<svg version="1.1" xmlns="http://www.w3.org/2000/svg" viewBox="0 0 401.1359297861726 424.37711743698196" width="401.1359297861726" height="424.37711743698196" filter="invert(93%) hue-rotate(180deg)" class="excalidraw-svg">
  <!-- svg-source:excalidraw -->
  
  <defs>
    <style class="style-fonts">
      
    </style>
    
  </defs>
  <g stroke-linecap="round" transform="translate(161.30512120276467 10.398865306789503) rotate(0 56.770054775251594 189.3423267692437)"><path d="M28.39 0 C47.5 -3.25, 61.29 -1.93, 85.16 0 C107.65 -1.96, 116.34 6.57, 113.54 28.39 C115.54 148.56, 118.6 273.1, 113.54 350.3 C113.16 370.83, 103.04 375.6, 85.16 378.68 C73.15 378.27, 60.59 380.6, 28.39 378.68 C10.56 375.5, 2.23 370.35, 0 350.3 C-1.13 232.61, 0.64 107.67, 0 28.39 C0.47 9.8, 12.17 1.81, 28.39 0" stroke="none" stroke-width="0" fill="#a5d8ff"></path><path d="M28.39 0 C43.99 -0.95, 60.24 0.42, 85.16 0 M28.39 0 C40.84 0.48, 54.28 0.44, 85.16 0 M85.16 0 C104.47 1.72, 115.46 9.63, 113.54 28.39 M85.16 0 C104.96 -0.63, 115.2 11.56, 113.54 28.39 M113.54 28.39 C114.25 133.76, 115.65 241.32, 113.54 350.3 M113.54 28.39 C112.88 103.34, 112.89 177.81, 113.54 350.3 M113.54 350.3 C111.99 371.09, 105.18 379.61, 85.16 378.68 M113.54 350.3 C115.21 367.14, 105.32 377.22, 85.16 378.68 M85.16 378.68 C69.5 378.39, 51.78 380.27, 28.39 378.68 M85.16 378.68 C69.83 378.79, 53.41 379.14, 28.39 378.68 M28.39 378.68 C8.19 377.39, 0.03 370.48, 0 350.3 M28.39 378.68 C8.06 377.14, -1.9 366.97, 0 350.3 M0 350.3 C-2.12 272.35, -2.09 197.87, 0 28.39 M0 350.3 C1.23 250.82, 1.89 151.66, 0 28.39 M0 28.39 C-1.78 9.68, 11.29 -0.09, 28.39 0 M0 28.39 C-2.04 7.29, 11 -0.84, 28.39 0" stroke="#1e1e1e" stroke-width="4" fill="none"></path></g><g stroke-linecap="round" transform="translate(46.295157051657725 10) rotate(0 56.770054775251594 189.3423267692437)"><path d="M28.39 0 C46.29 -0.75, 70.07 -1.14, 85.16 0 C106.88 -2.89, 116.32 12.44, 113.54 28.39 C113.1 153.25, 111.12 275.54, 113.54 350.3 C112.5 366.13, 101.66 380.74, 85.16 378.68 C70.55 380.61, 53.33 375.41, 28.39 378.68 C11.69 379.81, 2.64 368.19, 0 350.3 C3.16 222.46, 4.01 99.58, 0 28.39 C2.71 11.27, 9.47 2.95, 28.39 0" stroke="none" stroke-width="0" fill="#e7f5ff"></path><path d="M28.39 0 C50.98 1.08, 71.86 -0.58, 85.16 0 M28.39 0 C41.96 0, 54.65 0.82, 85.16 0 M85.16 0 C106 0.17, 114.31 8.91, 113.54 28.39 M85.16 0 C105.74 2.1, 114.24 10.61, 113.54 28.39 M113.54 28.39 C113.86 155.18, 111.93 281.53, 113.54 350.3 M113.54 28.39 C112.93 110.85, 112.52 194.04, 113.54 350.3 M113.54 350.3 C114.64 370.15, 105.53 376.87, 85.16 378.68 M113.54 350.3 C114.78 367.76, 104.02 379.63, 85.16 378.68 M85.16 378.68 C70.75 380.47, 55.29 376.66, 28.39 378.68 M85.16 378.68 C72.11 379.71, 57.01 378.28, 28.39 378.68 M28.39 378.68 C9.5 379.94, -1.22 367.88, 0 350.3 M28.39 378.68 C7.56 376.43, -1.43 370.96, 0 350.3 M0 350.3 C0.3 263.06, 0.79 173.42, 0 28.39 M0 350.3 C0.88 253.5, -0.31 158.15, 0 28.39 M0 28.39 C1.83 9.37, 7.69 -1.89, 28.39 0 M0 28.39 C1.54 8.63, 9.46 0.67, 28.39 0" stroke="#1e1e1e" stroke-width="4" fill="none"></path></g><g stroke-linecap="round" transform="translate(277.5958202356694 10.398865469557222) rotate(0 56.77005477525161 189.3423267692437)"><path d="M28.39 0 C44.44 -1.52, 56.15 -2.45, 85.16 0 C106.86 2.98, 116.5 7.53, 113.54 28.39 C116.04 109.98, 115.58 187.18, 113.54 350.3 C111.12 371.28, 103.72 379.89, 85.16 378.68 C69.72 376.08, 54.31 380.38, 28.39 378.68 C12.1 377.65, 3.23 365.94, 0 350.3 C1.18 222.5, 2.73 95.49, 0 28.39 C0.01 12.41, 6.99 1.11, 28.39 0" stroke="none" stroke-width="0" fill="#4dabf7"></path><path d="M28.39 0 C42.74 -0.97, 58.75 -0.71, 85.16 0 M28.39 0 C46.07 0.84, 64.32 0.06, 85.16 0 M85.16 0 C104.85 -0.55, 114.98 11.29, 113.54 28.39 M85.16 0 C104.78 1.15, 115.7 8.78, 113.54 28.39 M113.54 28.39 C114.19 100.12, 114.53 172.21, 113.54 350.3 M113.54 28.39 C112.56 135.86, 113.48 242.36, 113.54 350.3 M113.54 350.3 C114.99 367.41, 105.15 377.41, 85.16 378.68 M113.54 350.3 C113.48 370.17, 103.17 380.1, 85.16 378.68 M85.16 378.68 C68.05 377.2, 50.36 381, 28.39 378.68 M85.16 378.68 C65.04 378.48, 46.22 379.76, 28.39 378.68 M28.39 378.68 C8.25 377.34, -1.65 367.26, 0 350.3 M28.39 378.68 C8.04 380.42, -0.61 368.52, 0 350.3 M0 350.3 C0.74 283.69, 0.61 218.53, 0 28.39 M0 350.3 C-2.45 276.99, -1.19 203.49, 0 28.39 M0 28.39 C-1.77 7.57, 10.8 -0.73, 28.39 0 M0 28.39 C0 10.13, 10.28 1.33, 28.39 0" stroke="#1e1e1e" stroke-width="4" fill="none"></path></g><g transform="translate(67.82729278729016 34.91511314699278) rotate(0 4.039925894468809 39.3895391439836)" stroke="none"><path fill="#1e1e1e" d="M 9.37,-3.64 Q 9.37,-3.64 11.41,1.59 13.44,6.83 14.67,12.23 15.89,17.63 16.21,24.58 16.54,31.53 16.62,37.85 16.70,44.17 16.51,50.02 16.31,55.87 16.52,63.00 16.72,70.14 17.52,72.34 18.31,74.55 18.59,76.31 18.86,78.08 18.56,79.84 18.26,81.60 17.41,83.17 16.56,84.75 15.26,85.97 13.95,87.19 12.32,87.92 10.69,88.66 8.92,88.84 7.14,89.02 5.40,88.62 3.65,88.23 2.13,87.29 0.61,86.36 -0.53,84.99 -1.68,83.62 -2.33,81.96 -2.98,80.29 -3.06,78.51 -3.14,76.72 -2.65,75.00 -2.16,73.28 -1.15,71.81 -0.13,70.34 1.29,69.27 2.72,68.20 4.42,67.64 6.12,67.08 7.90,67.10 9.69,67.11 11.38,67.69 13.07,68.28 14.48,69.37 15.90,70.46 16.89,71.95 17.88,73.44 18.34,75.16 18.81,76.89 18.70,78.67 18.59,80.45 17.91,82.11 17.24,83.76 16.07,85.12 14.91,86.47 13.37,87.38 11.83,88.29 10.08,88.66 8.33,89.03 6.56,88.82 4.78,88.62 3.17,87.85 1.55,87.09 0.26,85.85 -1.02,84.61 -1.84,83.03 -2.66,81.44 -2.66,81.44 -2.66,81.45 -3.57,75.67 -4.49,69.90 -4.01,62.48 -3.53,55.06 -3.28,49.87 -3.03,44.67 -3.25,38.68 -3.48,32.70 -4.40,23.38 -5.31,14.06 -7.34,8.85 -9.37,3.64 -9.67,2.47 -9.97,1.29 -9.98,0.08 -9.99,-1.12 -9.71,-2.30 -9.43,-3.48 -8.87,-4.56 -8.32,-5.64 -7.52,-6.55 -6.73,-7.47 -5.73,-8.16 -4.74,-8.86 -3.61,-9.30 -2.48,-9.74 -1.28,-9.89 -0.08,-10.05 1.12,-9.91 2.32,-9.78 3.46,-9.36 4.59,-8.94 5.60,-8.26 6.60,-7.58 7.41,-6.68 8.22,-5.78 8.79,-4.71 9.37,-3.64 9.37,-3.64 L 9.37,-3.64 Z"></path></g><g transform="translate(67.82729278729016 29.86516357359801) rotate(0 147.45829119339245 181.79791452822838)" stroke="none"><path fill="#1e1e1e" d="M -0.26,-6.73 Q -0.26,-6.73 6.98,-7.10 14.24,-7.47 22.93,-7.37 31.63,-7.27 43.15,-7.16 54.68,-7.05 69.45,-6.96 84.22,-6.86 98.04,-6.78 111.87,-6.70 124.84,-6.06 137.81,-5.42 148.37,-4.24 158.94,-3.07 167.38,-1.40 175.82,0.27 182.75,2.55 189.68,4.83 195.00,6.73 200.33,8.62 205.20,10.81 210.08,13.01 215.82,15.95 221.56,18.89 227.35,22.22 233.15,25.56 238.69,28.60 244.24,31.64 248.44,34.06 252.64,36.48 256.15,39.21 259.65,41.95 262.75,45.56 265.86,49.17 268.06,52.83 270.25,56.49 274.08,63.27 277.90,70.05 282.16,77.03 286.41,84.01 288.46,88.76 290.50,93.51 291.83,97.59 293.16,101.66 295.18,109.54 297.21,117.41 297.85,122.26 298.50,127.11 299.07,131.38 299.64,135.64 301.54,142.85 303.44,150.06 304.35,155.40 305.26,160.74 305.71,165.26 306.15,169.78 306.35,174.10 306.55,178.43 306.59,183.20 306.62,187.96 305.58,194.36 304.53,200.76 303.49,206.10 302.44,211.44 301.44,215.78 300.44,220.11 298.51,227.93 296.57,235.75 295.16,242.45 293.74,249.14 292.41,253.72 291.07,258.30 289.97,262.62 288.86,266.94 286.86,271.46 284.86,275.98 281.91,282.43 278.96,288.88 277.84,293.64 276.72,298.41 274.97,302.93 273.22,307.45 270.65,311.70 268.08,315.95 264.87,319.81 261.67,323.67 256.41,327.12 251.15,330.57 247.01,332.76 242.86,334.94 238.14,337.23 233.43,339.53 228.81,341.51 224.20,343.50 219.34,345.42 214.48,347.34 209.72,348.90 204.96,350.45 200.94,351.88 196.91,353.31 191.36,354.62 185.81,355.92 180.57,357.17 175.34,358.42 169.02,359.88 162.71,361.34 155.85,362.52 148.98,363.70 142.97,364.76 136.95,365.83 131.89,366.92 126.83,368.01 121.45,368.85 116.07,369.69 110.58,370.10 105.09,370.50 100.45,371.21 95.80,371.91 90.96,372.58 86.12,373.25 81.43,373.62 76.74,374.00 72.45,374.45 68.16,374.91 60.45,375.38 52.75,375.86 47.66,376.14 42.57,376.42 33.93,372.60 25.30,368.78 24.00,364.37 22.69,359.96 22.49,354.29 22.29,348.63 21.57,342.18 20.86,335.74 21.19,333.58 21.53,331.43 22.53,329.49 23.54,327.56 25.11,326.05 26.68,324.53 28.66,323.60 30.63,322.67 32.79,322.42 34.96,322.16 37.09,322.62 39.23,323.07 41.11,324.18 42.98,325.29 44.41,326.94 45.83,328.59 46.66,330.61 47.48,332.63 47.62,334.81 47.75,336.98 47.18,339.09 46.62,341.20 45.41,343.01 44.20,344.83 42.47,346.16 40.74,347.49 38.68,348.20 36.62,348.92 34.44,348.93 32.26,348.95 30.19,348.27 28.11,347.59 26.37,346.28 24.62,344.98 23.38,343.18 22.15,341.39 21.55,339.29 20.95,337.19 21.05,335.01 21.15,332.83 21.94,330.80 22.73,328.77 24.13,327.10 25.53,325.42 27.39,324.28 29.25,323.15 31.38,322.66 33.50,322.18 35.67,322.40 37.84,322.61 39.83,323.51 41.82,324.42 43.41,325.90 45.01,327.39 46.04,329.31 47.08,331.23 47.45,333.38 47.82,335.53 47.82,335.53 47.82,335.52 48.19,339.23 48.56,342.93 48.41,347.35 48.26,351.77 47.96,356.78 47.66,361.78 45.04,357.26 42.42,352.75 47.35,352.94 52.27,353.13 59.24,353.12 66.22,353.12 74.85,352.65 83.49,352.18 88.18,351.66 92.86,351.13 98.33,350.41 103.79,349.69 108.44,349.46 113.08,349.23 117.87,348.59 122.67,347.94 127.88,346.89 133.10,345.85 138.96,344.63 144.82,343.41 150.88,341.94 156.94,340.47 163.26,338.43 169.59,336.39 174.96,334.88 180.33,333.36 184.71,332.25 189.08,331.14 197.28,328.36 205.47,325.58 210.04,323.59 214.61,321.60 218.52,319.86 222.43,318.11 226.84,315.71 231.26,313.32 237.12,310.36 242.99,307.40 246.60,302.72 250.21,298.03 252.26,291.92 254.31,285.82 257.23,278.78 260.14,271.74 263.01,266.43 265.88,261.12 267.01,256.44 268.14,251.77 270.24,244.13 272.34,236.50 274.40,229.90 276.47,223.31 278.26,215.36 280.06,207.41 280.89,202.32 281.73,197.22 282.37,192.72 283.02,188.22 282.84,180.00 282.66,171.78 281.71,164.16 280.77,156.54 279.46,151.89 278.14,147.25 277.30,142.94 276.46,138.62 275.94,134.39 275.42,130.16 274.33,122.64 273.24,115.11 271.57,108.57 269.90,102.03 266.57,94.72 263.23,87.41 259.51,80.11 255.79,72.81 253.08,66.82 250.37,60.83 246.71,55.94 243.06,51.05 239.62,48.47 236.18,45.88 230.57,42.61 224.97,39.33 219.55,36.01 214.14,32.70 208.53,29.54 202.93,26.39 198.88,23.81 194.82,21.23 190.08,18.73 185.33,16.23 179.49,13.64 173.64,11.05 165.70,9.45 157.76,7.85 147.53,6.79 137.31,5.73 124.59,5.22 111.87,4.71 98.06,4.81 84.24,4.90 69.49,5.05 54.74,5.19 43.27,5.40 31.81,5.62 23.30,5.96 14.79,6.31 7.53,6.52 0.26,6.73 -0.54,6.66 -1.34,6.60 -2.11,6.34 -2.88,6.08 -3.57,5.65 -4.26,5.21 -4.82,4.63 -5.38,4.04 -5.79,3.34 -6.19,2.63 -6.42,1.85 -6.64,1.07 -6.68,0.26 -6.71,-0.54 -6.55,-1.34 -6.38,-2.13 -6.04,-2.86 -5.69,-3.60 -5.17,-4.23 -4.66,-4.86 -4.01,-5.34 -3.36,-5.83 -2.61,-6.15 -1.87,-6.47 -1.07,-6.60 -0.26,-6.73 -0.26,-6.73 L -0.26,-6.73 Z"></path></g><g transform="translate(103.17683850831213 363.16132895393434) rotate(0 1.0099899146789255 -133.31846615213453)" stroke="none"><path fill="#1e1e1e" d="M -3.25,-9.76 Q -3.25,-9.76 2.89,-11.65 9.03,-13.54 14.77,-15.47 20.50,-17.40 24.73,-19.55 28.97,-21.70 32.27,-25.18 35.56,-28.67 36.09,-33.81 36.61,-38.95 36.46,-43.75 36.31,-48.56 36.20,-54.82 36.08,-61.08 36.13,-65.58 36.18,-70.09 36.39,-75.78 36.59,-81.47 37.09,-88.83 37.59,-96.18 37.73,-104.51 37.87,-112.83 37.33,-121.22 36.78,-129.61 36.03,-137.66 35.27,-145.70 34.41,-153.48 33.54,-161.26 32.17,-169.00 30.80,-176.74 29.47,-185.76 28.14,-194.79 26.62,-202.25 25.09,-209.72 23.42,-216.30 21.75,-222.88 20.20,-227.60 18.66,-232.31 15.96,-239.10 13.25,-245.88 11.39,-249.74 9.54,-253.60 1.63,-252.98 -6.27,-252.36 -12.45,-251.73 -18.63,-251.10 -25.18,-250.85 -31.73,-250.60 -37.09,-249.46 -42.45,-248.33 -44.20,-248.14 -45.96,-247.94 -47.69,-248.32 -49.41,-248.70 -50.93,-249.61 -52.44,-250.53 -53.59,-251.87 -54.73,-253.22 -55.39,-254.86 -56.04,-256.50 -56.14,-258.27 -56.23,-260.03 -55.76,-261.74 -55.29,-263.44 -54.30,-264.90 -53.30,-266.36 -51.90,-267.43 -50.49,-268.50 -48.82,-269.07 -47.14,-269.63 -45.37,-269.63 -43.61,-269.63 -41.93,-269.07 -40.26,-268.51 -38.85,-267.44 -37.44,-266.37 -36.45,-264.90 -35.46,-263.44 -34.98,-261.74 -34.51,-260.04 -34.61,-258.27 -34.70,-256.51 -35.36,-254.86 -36.01,-253.22 -37.15,-251.87 -38.30,-250.53 -39.81,-249.62 -41.33,-248.70 -43.05,-248.32 -44.78,-247.94 -46.54,-248.14 -48.29,-248.33 -49.90,-249.07 -51.50,-249.81 -52.79,-251.03 -54.07,-252.24 -54.90,-253.80 -55.72,-255.36 -56.01,-257.11 -56.30,-258.85 -56.01,-260.60 -55.72,-262.34 -54.90,-263.90 -54.07,-265.46 -52.78,-266.68 -51.50,-267.90 -49.90,-268.64 -48.29,-269.38 -48.30,-269.38 -48.30,-269.38 -44.97,-270.15 -41.65,-270.92 -37.31,-271.27 -32.97,-271.62 -27.26,-272.09 -21.56,-272.56 -15.31,-273.63 -9.06,-274.70 -4.50,-275.29 0.05,-275.87 5.33,-276.69 10.62,-277.51 17.08,-274.57 23.54,-271.63 25.49,-266.67 27.44,-261.71 28.84,-256.44 30.24,-251.18 31.84,-243.60 33.44,-236.03 34.35,-230.99 35.26,-225.95 36.63,-219.14 38.00,-212.33 39.54,-204.69 41.07,-197.04 42.85,-188.28 44.62,-179.52 46.45,-171.37 48.27,-163.22 49.47,-155.47 50.66,-147.73 52.01,-139.75 53.37,-131.76 55.06,-122.93 56.75,-114.10 58.06,-105.14 59.36,-96.18 59.86,-88.83 60.36,-81.47 60.56,-75.77 60.76,-70.08 60.74,-62.46 60.73,-54.83 60.54,-48.81 60.36,-42.79 59.95,-37.87 59.54,-32.95 57.49,-26.17 55.44,-19.38 50.85,-14.33 46.26,-9.27 41.97,-6.52 37.68,-3.77 32.35,-1.30 27.02,1.17 21.19,3.29 15.35,5.41 9.30,7.58 3.25,9.76 2.03,10.01 0.82,10.25 -0.41,10.20 -1.65,10.15 -2.84,9.81 -4.03,9.46 -5.11,8.84 -6.18,8.22 -7.08,7.36 -7.97,6.50 -8.63,5.45 -9.30,4.40 -9.69,3.23 -10.08,2.05 -10.18,0.81 -10.28,-0.41 -10.08,-1.64 -9.88,-2.86 -9.39,-4.00 -8.90,-5.15 -8.16,-6.14 -7.41,-7.13 -6.45,-7.91 -5.49,-8.70 -4.37,-9.23 -3.25,-9.76 -3.25,-9.76 L -3.25,-9.76 Z"></path></g><g transform="translate(216.25665990617176 166.58568575086588) rotate(0 31.129315257610358 54.84693303314714)" stroke="none"><path d="M0.04 1.54 C0.18 7.09, -1.39 14.82, -0.75 31.71 C-0.1 48.59, 2.8 89.17, 3.91 102.85 C5.01 116.52, 4.8 110.9, 5.89 113.77 C6.99 116.64, 9.37 119.25, 10.47 120.06 C11.57 120.87, 8.44 119.1, 12.48 118.64 C16.53 118.18, 29.53 118.41, 34.75 117.29 C39.96 116.16, 40.22 114.18, 43.77 111.88 C47.31 109.58, 52.7 106.23, 55.99 103.48 C59.29 100.74, 62.46 97.56, 63.51 95.43 C64.57 93.3, 61.4 93.27, 62.3 90.69 C63.21 88.11, 68.57 86.05, 68.94 79.94 C69.32 73.83, 66.12 61.56, 64.54 54.01 C62.95 46.47, 62.67 41.35, 59.45 34.69 C56.23 28.03, 50.65 20.34, 45.21 14.05 C39.77 7.76, 31.84 0.93, 26.81 -3.03 C21.79 -6.98, 18.37 -8.73, 15.08 -9.68 C11.8 -10.62, 9.58 -8.76, 7.09 -8.69 C4.6 -8.61, 2.27 -9.62, 0.15 -9.21 C-1.98 -8.81, -5.12 -7.14, -5.67 -6.26 C-6.22 -5.38, -3.03 -3.77, -3.16 -3.92" stroke="none" stroke-width="0" fill="#e9ecef" fill-rule="evenodd"></path><path fill="#1e1e1e" d="M 8.20,-0.18 Q 8.20,-0.18 8.02,9.41 7.84,19.01 8.06,27.87 8.28,36.73 8.71,46.50 9.14,56.27 9.68,65.52 10.22,74.77 10.62,83.46 11.02,92.14 12.05,97.51 13.08,102.89 15.24,108.68 17.39,114.47 21.95,111.11 26.52,107.76 30.51,106.24 34.51,104.71 39.20,102.40 43.88,100.09 48.02,94.88 52.15,89.66 53.88,81.94 55.60,74.22 55.76,69.33 55.93,64.44 54.90,60.06 53.86,55.68 52.25,51.14 50.64,46.60 48.43,41.64 46.21,36.68 43.51,31.46 40.80,26.24 37.23,21.84 33.66,17.44 29.59,13.16 25.53,8.88 21.71,6.29 17.90,3.69 12.79,1.90 7.67,0.10 5.81,0.65 3.95,1.20 2.53,2.43 1.11,3.65 -0.61,4.36 -2.35,5.07 -4.22,5.18 -6.09,5.30 -7.91,4.81 -9.72,4.33 -11.28,3.29 -12.84,2.25 -13.99,0.76 -15.13,-0.71 -15.75,-2.48 -16.36,-4.26 -16.37,-6.13 -16.39,-8.01 -15.80,-9.79 -15.22,-11.57 -14.10,-13.07 -12.97,-14.58 -11.43,-15.64 -9.88,-16.71 -8.08,-17.22 -6.28,-17.74 -4.41,-17.65 -2.53,-17.56 -0.78,-16.88 0.95,-16.20 2.39,-15.00 3.83,-13.80 4.81,-12.20 5.79,-10.60 6.21,-8.77 6.63,-6.94 6.44,-5.08 6.25,-3.21 5.48,-1.50 4.70,0.20 3.42,1.57 2.14,2.94 0.49,3.83 -1.15,4.72 -2.99,5.04 -4.84,5.36 -6.70,5.07 -8.55,4.78 -10.21,3.92 -11.88,3.05 -13.18,1.70 -14.48,0.35 -15.28,-1.34 -16.08,-3.03 -16.30,-4.90 -16.51,-6.76 -16.13,-8.60 -15.74,-10.43 -14.78,-12.04 -13.83,-13.66 -13.83,-13.66 -13.83,-13.66 -8.35,-17.10 -2.87,-20.55 3.51,-20.77 9.89,-20.98 15.49,-18.71 21.10,-16.45 25.16,-14.24 29.22,-12.03 34.23,-8.23 39.24,-4.43 43.89,0.30 48.55,5.04 53.46,10.85 58.38,16.65 61.60,22.40 64.83,28.15 67.55,33.96 70.26,39.78 72.23,45.54 74.20,51.30 75.57,58.13 76.94,64.96 76.74,71.40 76.55,77.85 75.39,84.11 74.23,90.37 71.91,95.97 69.58,101.57 66.20,105.97 62.81,110.37 57.97,114.30 53.13,118.22 47.23,121.21 41.32,124.19 31.62,126.48 21.92,128.77 17.13,128.86 12.34,128.94 7.40,125.46 2.47,121.97 1.73,117.54 0.99,113.11 0.41,108.77 -0.16,104.43 -0.42,98.63 -0.67,92.83 -1.30,84.26 -1.92,75.69 -2.78,66.40 -3.64,57.11 -4.50,47.31 -5.36,37.52 -6.17,28.43 -6.98,19.34 -7.59,9.76 -8.20,0.18 -8.10,-0.80 -8.00,-1.78 -7.67,-2.71 -7.34,-3.65 -6.80,-4.47 -6.26,-5.30 -5.53,-5.97 -4.80,-6.64 -3.94,-7.12 -3.07,-7.60 -2.12,-7.86 -1.16,-8.12 -0.18,-8.14 0.80,-8.16 1.77,-7.94 2.73,-7.73 3.62,-7.29 4.51,-6.85 5.26,-6.21 6.01,-5.57 6.59,-4.77 7.17,-3.97 7.54,-3.05 7.92,-2.13 8.06,-1.16 8.20,-0.18 8.20,-0.18 L 8.20,-0.18 Z"></path></g><g transform="translate(42.20966735676461 362.5615371051788) rotate(0 -9.802956487519339 25.207602396478137)" stroke="none"><path d="M-1.49 -1.65 C-2.3 -2.3, -4.35 -2.75, -4.82 -2.4 C-5.3 -2.05, -2.91 0.41, -4.32 0.45 C-5.72 0.49, -10.78 -2.2, -13.25 -2.15 C-15.72 -2.11, -17.39 -1.08, -19.15 0.71 C-20.91 2.5, -22.09 6.38, -23.81 8.59 C-25.53 10.79, -28.47 12.19, -29.45 13.97 C-30.44 15.75, -29.62 17.77, -29.74 19.24 C-29.87 20.72, -29.44 20.13, -30.21 22.8 C-30.99 25.47, -36.07 30.93, -34.39 35.28 C-32.72 39.63, -22.97 46.54, -20.17 48.91 C-17.36 51.28, -19.57 49.16, -17.57 49.5 C-15.57 49.84, -11.33 51.36, -8.16 50.93 C-5 50.5, -1.97 49.81, 1.4 46.92 C4.77 44.04, 10.77 37.15, 12.08 33.63 C13.38 30.11, 9.33 27.29, 9.24 25.83 C9.15 24.36, 11.2 26.49, 11.54 24.84 C11.88 23.19, 11.65 18.57, 11.27 15.91 C10.89 13.25, 9.84 11.44, 9.24 8.89 C8.63 6.34, 9.38 2.53, 7.63 0.61 C5.87 -1.31, -0.32 -2.59, -1.31 -2.62" stroke="none" stroke-width="0" fill="#e9ecef" fill-rule="evenodd"></path><path fill="#1e1e1e" d="M -1.18,10.64 Q -1.18,10.64 -4.71,10.37 -8.25,10.09 -12.06,13.94 -15.88,17.78 -17.77,22.47 -19.65,27.15 -17.08,32.58 -14.51,38.00 -10.15,36.07 -5.78,34.14 -3.49,27.99 -1.20,21.84 -1.44,17.42 -1.67,13.01 -2.79,12.38 -3.90,11.75 -5.84,10.68 -7.78,9.60 -9.28,7.96 -10.77,6.33 -11.66,4.30 -12.56,2.27 -12.75,0.06 -12.95,-2.14 -12.43,-4.30 -11.92,-6.45 -10.74,-8.33 -9.56,-10.21 -7.84,-11.61 -6.12,-13.02 -4.05,-13.80 -1.97,-14.58 0.23,-14.66 2.45,-14.74 4.57,-14.10 6.70,-13.47 8.51,-12.19 10.32,-10.91 11.63,-9.12 12.94,-7.33 13.61,-5.21 14.27,-3.10 14.23,-0.88 14.19,1.32 13.44,3.41 12.69,5.50 11.32,7.24 9.94,8.98 8.08,10.19 6.22,11.40 4.08,11.95 1.93,12.50 -0.27,12.34 -2.48,12.18 -4.53,11.32 -6.57,10.46 -8.23,8.99 -9.90,7.52 -11.00,5.60 -12.11,3.68 -12.54,1.50 -12.98,-0.66 -12.70,-2.86 -12.42,-5.06 -11.45,-7.05 -10.48,-9.05 -8.92,-10.63 -7.37,-12.21 -5.39,-13.21 -3.41,-14.21 -1.21,-14.53 0.97,-14.84 3.15,-14.44 5.33,-14.04 5.33,-14.04 5.33,-14.04 7.94,-12.99 10.55,-11.94 16.49,-5.21 22.43,1.50 23.76,5.57 25.09,9.63 25.25,16.51 25.40,23.38 24.03,28.91 22.66,34.44 18.74,41.80 14.81,49.16 11.41,52.74 8.00,56.32 0.68,59.37 -6.63,62.42 -11.71,62.72 -16.80,63.01 -21.65,61.31 -26.50,59.62 -30.87,56.06 -35.25,52.51 -38.80,45.98 -42.36,39.45 -42.72,31.22 -43.08,23.00 -40.57,17.30 -38.06,11.60 -35.65,7.09 -33.24,2.58 -29.67,-0.95 -26.10,-4.48 -20.78,-7.45 -15.47,-10.42 -10.85,-11.06 -6.24,-11.70 -2.52,-11.17 1.18,-10.64 2.44,-10.35 3.69,-10.05 4.84,-9.46 5.99,-8.87 6.97,-8.03 7.94,-7.18 8.69,-6.13 9.43,-5.07 9.90,-3.87 10.37,-2.66 10.54,-1.38 10.71,-0.10 10.57,1.17 10.42,2.45 9.98,3.67 9.53,4.88 8.81,5.95 8.09,7.02 7.13,7.89 6.17,8.75 5.03,9.36 3.90,9.97 2.64,10.30 1.39,10.62 0.10,10.63 -1.18,10.64 -1.18,10.64 L -1.18,10.64 Z"></path></g></svg>