<svg version="1.1" xmlns="http://www.w3.org/2000/svg" viewBox="0 0 1117.791892791526 651.592341332429" width="1117.791892791526" height="651.592341332429" filter="invert(93%) hue-rotate(180deg)" class="excalidraw-svg">
  <!-- svg-source:excalidraw -->
  
  <defs>
    <style class="style-fonts">
      
    </style>
    
  </defs>
  <g stroke-linecap="round" transform="translate(525.9767129134193 508.62953369713443) rotate(0 56.77005477525165 29.636812613219373)"><path d="M14.82 0 C43.42 -1.22, 69.94 1.36, 98.72 0 M14.82 0 C46.91 1.2, 78.44 1, 98.72 0 M98.72 0 C109.73 -1.77, 114.3 4.9, 113.54 14.82 M98.72 0 C110.5 -0.62, 112.12 5.9, 113.54 14.82 M113.54 14.82 C111.92 22.65, 112.91 34.35, 113.54 44.46 M113.54 14.82 C114.33 25.76, 114.51 37.85, 113.54 44.46 M113.54 44.46 C111.78 52.62, 106.82 60.02, 98.72 59.27 M113.54 44.46 C114.38 54.22, 107.22 59.15, 98.72 59.27 M98.72 59.27 C70.77 60.38, 43.32 60.79, 14.82 59.27 M98.72 59.27 C71.1 58.48, 41.63 58.3, 14.82 59.27 M14.82 59.27 C4.76 57.75, 0.67 54.38, 0 44.46 M14.82 59.27 C5.33 61.09, 1.34 54.37, 0 44.46 M0 44.46 C-1.09 38.37, 0.29 33.95, 0 14.82 M0 44.46 C0.18 38.18, -0.02 30.88, 0 14.82 M0 14.82 C-1.92 5.01, 5.25 0.24, 14.82 0 M0 14.82 C0.5 5.23, 6.48 -1.6, 14.82 0" stroke="#1e1e1e" stroke-width="4" fill="none"></path></g><g stroke-linecap="round" transform="translate(642.6725814064653 508.62953369713443) rotate(0 56.77005477525165 29.636812613219373)"><path d="M14.82 0 C33.71 1.55, 55.46 1.08, 98.72 0 M14.82 0 C32.67 -0.12, 51.29 -1.29, 98.72 0 M98.72 0 C109.36 -0.04, 115.19 4.4, 113.54 14.82 M98.72 0 C107.18 0.96, 113.84 6.49, 113.54 14.82 M113.54 14.82 C112.45 25.79, 114.87 36.32, 113.54 44.46 M113.54 14.82 C114.45 22.55, 112.83 28.42, 113.54 44.46 M113.54 44.46 C111.76 55.08, 109.33 59.17, 98.72 59.27 M113.54 44.46 C112.16 54.21, 109.05 59.62, 98.72 59.27 M98.72 59.27 C64.63 60.24, 34.79 58.7, 14.82 59.27 M98.72 59.27 C76.85 58.33, 55.97 58.17, 14.82 59.27 M14.82 59.27 C5.61 59.32, 0.34 55.91, 0 44.46 M14.82 59.27 C6.28 59.3, -2.07 52.06, 0 44.46 M0 44.46 C0.21 36.84, -1.49 25.6, 0 14.82 M0 44.46 C-0.05 37.26, -1.02 31.72, 0 14.82 M0 14.82 C0.31 5.18, 5.37 0.25, 14.82 0 M0 14.82 C1.54 3.34, 5.4 2, 14.82 0" stroke="#1e1e1e" stroke-width="4" fill="none"></path></g><g stroke-linecap="round" transform="translate(59.19323922264539 508.62953344123355) rotate(0 56.77005477525165 29.636812613219373)"><path d="M14.82 0 C33.95 3.61, 53.96 3.64, 98.72 0 C106.39 3.3, 112.4 4.11, 113.54 14.82 C117.07 19.85, 115.39 26.45, 113.54 44.46 C115.49 53.84, 106.47 60.06, 98.72 59.27 C67.36 61.18, 35.95 55.47, 14.82 59.27 C8.47 59.65, -1.77 52.24, 0 44.46 C-0.11 33.28, 2.24 20.72, 0 14.82 C-1.09 4.09, 7.52 -2.12, 14.82 0" stroke="none" stroke-width="0" fill="#fea9b2"></path><path d="M14.82 0 C34.09 0, 48.45 0.13, 98.72 0 M14.82 0 C44.55 -1.12, 73.54 -0.26, 98.72 0 M98.72 0 C110.25 -0.54, 112.31 5.77, 113.54 14.82 M98.72 0 C108.9 1.55, 114.4 2.84, 113.54 14.82 M113.54 14.82 C115.02 23.08, 112.3 29.44, 113.54 44.46 M113.54 14.82 C112.88 21.88, 112.87 31.04, 113.54 44.46 M113.54 44.46 C114.27 54.23, 107.4 59.17, 98.72 59.27 M113.54 44.46 C113.99 54.68, 110.56 57.98, 98.72 59.27 M98.72 59.27 C72.66 58.87, 44.2 60.91, 14.82 59.27 M98.72 59.27 C76.93 58.02, 55.64 58.8, 14.82 59.27 M14.82 59.27 C5.28 60.85, 1.16 54.36, 0 44.46 M14.82 59.27 C2.87 57, 0.52 52.74, 0 44.46 M0 44.46 C-1.7 35.62, -1.69 26.7, 0 14.82 M0 44.46 C-0.97 35.29, 0.15 26.17, 0 14.82 M0 14.82 C0.43 5.19, 6.28 -1.39, 14.82 0 M0 14.82 C0.47 6.94, 3.45 -1.43, 14.82 0" stroke="#1e1e1e" stroke-width="4" fill="none"></path></g><g stroke-linecap="round" transform="translate(175.8891077156909 508.62953344123355) rotate(0 56.77005477525165 29.636812613219373)"><path d="M14.82 0 C41.61 0.32, 72.79 -0.35, 98.72 0 M14.82 0 C42.74 0.73, 70.72 0.48, 98.72 0 M98.72 0 C107.37 0.84, 113.8 6.29, 113.54 14.82 M98.72 0 C109.46 -2.1, 111.88 3.99, 113.54 14.82 M113.54 14.82 C112.66 26.28, 113.13 36.99, 113.54 44.46 M113.54 14.82 C112.39 25.58, 113.65 35.54, 113.54 44.46 M113.54 44.46 C112.34 54.23, 108.99 59.58, 98.72 59.27 M113.54 44.46 C115.5 53.04, 109.05 57.26, 98.72 59.27 M98.72 59.27 C69.28 60.27, 40.84 57.89, 14.82 59.27 M98.72 59.27 C78.86 58.66, 58.49 59.42, 14.82 59.27 M14.82 59.27 C6.1 59.3, -1.8 52.36, 0 44.46 M14.82 59.27 C5.45 57.68, 0.16 54.34, 0 44.46 M0 44.46 C-1.44 33.12, 0.46 20.95, 0 14.82 M0 44.46 C0.44 38.1, 0.5 31.63, 0 14.82 M0 14.82 C1.34 3.55, 5.34 1.74, 14.82 0 M0 14.82 C-1.49 3.51, 2.97 0.19, 14.82 0" stroke="#1e1e1e" stroke-width="4" fill="none"></path></g><g stroke-linecap="round" transform="translate(292.58497620873663 508.62953344123355) rotate(0 56.77005477525165 29.636812613219373)"><path d="M14.82 0 C42.33 -0.4, 68.51 0.94, 98.72 0 M14.82 0 C33.37 -0.25, 49.65 0.43, 98.72 0 M98.72 0 C108.86 1.35, 114.28 3.12, 113.54 14.82 M98.72 0 C106.94 -0.95, 114.66 6.78, 113.54 14.82 M113.54 14.82 C112.72 27.45, 114.38 35.33, 113.54 44.46 M113.54 14.82 C113.64 21.11, 112.68 27.46, 113.54 44.46 M113.54 44.46 C113.93 54.64, 110.31 58.15, 98.72 59.27 M113.54 44.46 C113.99 52.32, 109.52 60.12, 98.72 59.27 M98.72 59.27 C75.83 58.74, 53.4 59.64, 14.82 59.27 M98.72 59.27 C80.11 60.08, 61.74 59.31, 14.82 59.27 M14.82 59.27 C3.14 57.3, 0.45 52.95, 0 44.46 M14.82 59.27 C5.09 59.28, 2.23 52.38, 0 44.46 M0 44.46 C0.46 35.22, -1.38 24, 0 14.82 M0 44.46 C0.17 35.59, 0.62 25.77, 0 14.82 M0 14.82 C0.4 6.68, 3.65 -1.24, 14.82 0 M0 14.82 C-1.97 5.13, 4.25 0.72, 14.82 0" stroke="#1e1e1e" stroke-width="4" fill="none"></path></g><g stroke-linecap="round" transform="translate(409.28084470178237 508.62953344123355) rotate(0 56.77005477525165 29.636812613219373)"><path d="M14.82 0 C42.49 1.22, 67.26 0.84, 98.72 0 M14.82 0 C39.21 0.64, 64.97 0.9, 98.72 0 M98.72 0 C109.35 -1.82, 112.09 4.11, 113.54 14.82 M98.72 0 C109.72 1.84, 115.28 3.65, 113.54 14.82 M113.54 14.82 C114.45 23.62, 111.73 34.16, 113.54 44.46 M113.54 14.82 C113.05 24.76, 113.85 34.97, 113.54 44.46 M113.54 44.46 C115.25 53.21, 108.99 57.52, 98.72 59.27 M113.54 44.46 C114.46 55.18, 107.75 58.22, 98.72 59.27 M98.72 59.27 C66.9 58.65, 35.92 59.49, 14.82 59.27 M98.72 59.27 C73.93 59.95, 47.07 58.95, 14.82 59.27 M14.82 59.27 C5.39 57.89, 0.13 54.34, 0 44.46 M14.82 59.27 C7.17 57.32, 0.29 52.39, 0 44.46 M0 44.46 C-1.66 33.01, 0.04 25.72, 0 14.82 M0 44.46 C0.61 34.5, 0.14 26.82, 0 14.82 M0 14.82 C-1.29 3.7, 3.23 0.16, 14.82 0 M0 14.82 C-0.69 5.66, 6.95 2.01, 14.82 0" stroke="#1e1e1e" stroke-width="4" fill="none"></path></g><g stroke-linecap="round" transform="translate(524.177219041221 119.89247201975274) rotate(0 175.74450472646674 188.42374257170445)"><path d="M32 0 C113.89 -0.65, 198.43 0.02, 319.49 0 M32 0 C110.63 -0.4, 189.35 -1.59, 319.49 0 M319.49 0 C339.38 -0.82, 352.47 12.27, 351.49 32 M319.49 0 C342.56 -1.29, 352.79 9.92, 351.49 32 M351.49 32 C351.39 147.94, 353.15 266.94, 351.49 344.85 M351.49 32 C350.29 124.35, 350.76 216.08, 351.49 344.85 M351.49 344.85 C351.88 364.43, 341.62 377.59, 319.49 376.85 M351.49 344.85 C350.64 365.13, 342.32 375.9, 319.49 376.85 M319.49 376.85 C247.57 377.16, 177.98 376.91, 32 376.85 M319.49 376.85 C209.89 376.13, 101.82 376.36, 32 376.85 M32 376.85 C10.8 376.85, 1.94 364.49, 0 344.85 M32 376.85 C10.96 374.9, 0.49 366.42, 0 344.85 M0 344.85 C1.86 250.81, 1.99 156.63, 0 32 M0 344.85 C-1.35 247.69, -1.95 148.85, 0 32 M0 32 C-1.71 10.83, 10.07 0.63, 32 0 M0 32 C2.01 12.68, 12.7 -1.41, 32 0" stroke="#1e1e1e" stroke-width="4" fill="none"></path></g><g transform="translate(555.0318642579107 82.99780534772242) rotate(178.8693453466229 158.9032921659986 98.22166886498673)" stroke="none"><path d="M4.17 56.45 C5.13 56.37, 5.5 59.64, 7.05 55.38 C8.6 51.13, 9.91 38.92, 13.46 30.92 C17.01 22.91, 24.68 12.19, 28.35 7.36 C32.03 2.53, 31.21 6.63, 35.52 1.95 C39.83 -2.73, 50.39 -13.98, 54.22 -20.7 C58.06 -27.41, 56.88 -34.75, 58.54 -38.35 C60.21 -41.95, 62.28 -40.35, 64.22 -42.31 C66.17 -44.27, 69.42 -48.27, 70.22 -50.12 C71.02 -51.96, 68.85 -52.47, 69.02 -53.37 C69.2 -54.27, 70.21 -54.84, 71.27 -55.52 C72.34 -56.2, 74.69 -56.69, 75.41 -57.47 C76.12 -58.25, 74.89 -60.88, 75.59 -60.22 C76.29 -59.56, 78.28 -55.7, 79.58 -53.49 C80.88 -51.28, 82.3 -48.92, 83.37 -46.96 C84.45 -45, 85.44 -44.38, 86.05 -41.73 C86.66 -39.07, 86.81 -34.15, 87.03 -31.04 C87.25 -27.93, 87.43 -26.65, 87.36 -23.05 C87.29 -19.46, 86.1 -13.2, 86.6 -9.49 C87.1 -5.77, 90.13 -4.63, 90.37 -0.76 C90.61 3.1, 87.64 10.07, 88.03 13.72 C88.43 17.38, 91.87 17.91, 92.76 21.17 C93.65 24.44, 78.06 31.4, 93.36 33.3 C108.65 35.2, 167.05 33.72, 184.54 32.58 C202.03 31.44, 195.54 27.12, 198.32 26.47 C201.11 25.81, 198.93 29.07, 201.26 28.63 C203.6 28.2, 197.72 24.18, 212.34 23.85 C226.96 23.52, 274.48 26.48, 289.01 26.66 C303.53 26.83, 296.5 24.93, 299.52 24.9 C302.54 24.87, 305.52 18.98, 307.13 26.49 C308.73 33.99, 308.63 58.48, 309.15 69.92 C309.66 81.37, 308.43 88.01, 310.22 95.16 C312.01 102.32, 318.45 108.44, 319.87 112.85 C321.28 117.26, 318.94 118.51, 318.73 121.63 C318.51 124.74, 318.42 127.19, 318.58 131.54 C318.74 135.89, 319.44 144.66, 319.7 147.73 C319.96 150.8, 319.63 148.92, 320.16 149.95 C320.7 150.98, 327.59 153.31, 322.9 153.9 C318.22 154.49, 299.48 152.88, 292.06 153.48 C284.63 154.09, 299.75 156.94, 278.35 157.54 C256.95 158.15, 184.93 157.58, 163.66 157.1 C142.39 156.62, 156.18 155.36, 150.74 154.67 C145.3 153.99, 134.19 152.57, 131 152.99 C127.81 153.41, 132.87 156.71, 131.59 157.19 C130.31 157.67, 124.99 155.79, 123.33 155.88 C121.66 155.98, 126.1 157.67, 121.58 157.75 C117.07 157.83, 99.84 156.42, 96.23 156.38 C92.62 156.33, 99.29 156.85, 99.92 157.48 C100.55 158.12, 99.69 159.06, 100.04 160.19 C100.39 161.32, 101.54 161.75, 102.01 164.26 C102.48 166.77, 101.92 171.26, 102.86 175.24 C103.8 179.22, 107.67 184.89, 107.68 188.14 C107.68 191.39, 103.05 192.08, 102.91 194.75 C102.78 197.41, 105.76 201.95, 106.87 204.13 C107.98 206.31, 108.97 204.24, 109.58 207.82 C110.18 211.39, 110.17 217.51, 110.5 225.58 C110.82 233.66, 112.15 252.57, 111.5 256.24 C110.86 259.91, 108.19 249.56, 106.62 247.62 C105.06 245.68, 103.73 246.2, 102.12 244.6 C100.51 243.01, 99.34 240.32, 96.96 238.06 C94.59 235.79, 90.47 233.92, 87.87 231.02 C85.27 228.11, 84.78 224.36, 81.35 220.64 C77.92 216.91, 74.95 216.82, 67.29 208.67 C59.63 200.53, 41.45 179.81, 35.39 171.75 C29.32 163.69, 36.34 170.2, 30.89 160.31 C25.43 150.41, 7.94 123.5, 2.66 112.4 C-2.61 101.29, 0.14 97.75, -0.76 93.68 C-1.65 89.61, -2.43 89.6, -2.72 87.99 C-3.02 86.38, -2.73 89.21, -2.54 84.02 C-2.34 78.82, -1.52 61.45, -1.56 56.83" stroke="none" stroke-width="0" fill="#a5d8ff" fill-rule="evenodd"></path><path fill="#1971c2" d="M -5.18,50.66 Q -5.18,50.66 -2.73,46.58 -0.29,42.49 3.94,34.09 8.19,25.70 12.44,17.29 16.69,8.88 19.58,4.63 22.46,0.38 25.66,-3.76 28.86,-7.90 31.64,-11.62 34.41,-15.34 37.08,-18.96 39.75,-22.58 42.02,-26.78 44.30,-30.98 46.96,-36.96 49.63,-42.94 52.05,-46.51 54.48,-50.07 57.87,-55.29 61.25,-60.51 67.81,-65.36 74.37,-70.20 79.15,-69.40 83.93,-68.61 87.12,-65.60 90.32,-62.59 92.61,-58.10 94.89,-53.60 97.22,-48.83 99.55,-44.05 99.81,-38.44 100.06,-32.83 100.78,-28.60 101.49,-24.36 101.61,-18.16 101.73,-11.96 102.31,-4.77 102.90,2.40 103.41,7.40 103.93,12.41 104.72,16.69 105.50,20.97 110.27,19.27 115.04,17.57 121.34,18.00 127.63,18.42 136.37,19.34 145.10,20.25 153.87,21.00 162.63,21.75 169.37,21.90 176.12,22.06 181.23,21.11 186.35,20.16 191.21,19.51 196.07,18.87 205.60,17.64 215.13,16.42 221.98,16.47 228.83,16.52 234.72,16.49 240.62,16.45 245.66,16.33 250.69,16.21 255.86,16.14 261.04,16.07 266.26,16.02 271.49,15.97 276.74,15.94 281.99,15.90 286.76,15.40 291.53,14.89 296.89,14.25 302.25,13.61 308.83,16.31 315.42,19.00 318.00,24.88 320.59,30.75 320.73,35.10 320.87,39.44 320.92,43.72 320.96,47.99 320.79,53.85 320.61,59.71 320.81,65.81 321.02,71.92 321.52,78.05 322.02,84.17 323.16,89.32 324.30,94.46 325.42,99.49 326.54,104.51 327.16,109.72 327.78,114.93 328.48,119.71 329.17,124.48 329.61,128.98 330.04,133.47 330.49,139.33 330.94,145.18 329.65,153.14 328.36,161.09 324.58,163.43 320.80,165.77 314.55,166.29 308.30,166.81 303.98,166.80 299.65,166.80 294.18,167.40 288.70,168.01 276.69,167.71 264.67,167.42 249.64,166.98 234.60,166.54 219.15,166.14 203.69,165.74 192.07,165.42 180.46,165.09 172.06,163.93 163.66,162.76 157.92,162.63 152.17,162.49 145.79,162.90 139.41,163.30 134.09,164.72 128.77,166.14 123.71,167.54 118.65,168.94 112.57,169.37 106.48,169.79 107.97,164.66 109.45,159.52 112.19,164.64 114.93,169.77 116.25,178.11 117.57,186.45 119.14,194.07 120.71,201.68 121.80,208.53 122.88,215.39 123.87,220.25 124.86,225.12 125.17,230.26 125.48,235.39 125.60,239.93 125.72,244.47 125.85,248.72 125.99,252.97 125.79,254.60 125.59,256.23 125.01,257.77 124.43,259.31 123.50,260.66 122.57,262.02 121.34,263.11 120.11,264.20 118.65,264.96 117.20,265.73 115.60,266.13 114.01,266.52 112.36,266.52 110.72,266.52 109.12,266.13 107.53,265.74 106.07,264.98 104.62,264.22 103.38,263.13 102.15,262.04 101.22,260.69 100.28,259.34 99.70,257.80 99.11,256.26 98.91,254.63 98.71,253.00 101.19,258.38 103.66,263.75 99.32,260.50 94.98,257.25 91.63,253.09 88.28,248.94 82.04,241.91 75.80,234.88 71.21,229.82 66.61,224.75 61.12,217.79 55.63,210.84 50.46,204.22 45.28,197.60 40.90,192.32 36.52,187.03 33.15,181.84 29.78,176.64 27.29,172.55 24.80,168.47 21.86,163.26 18.92,158.05 15.12,152.27 11.32,146.48 7.37,139.65 3.42,132.82 0.56,128.26 -2.28,123.70 -5.04,118.52 -7.80,113.35 -9.66,107.60 -11.52,101.85 -12.91,96.31 -14.30,90.77 -15.44,85.47 -16.59,80.18 -16.85,74.60 -17.11,69.02 -17.27,62.82 -17.43,56.61 -17.06,54.40 -16.70,52.19 -15.65,50.21 -14.60,48.23 -12.97,46.69 -11.35,45.15 -9.31,44.21 -7.28,43.26 -5.05,43.02 -2.82,42.78 -0.63,43.26 1.55,43.74 3.47,44.90 5.39,46.06 6.84,47.76 8.29,49.47 9.12,51.55 9.95,53.64 10.07,55.88 10.19,58.11 9.59,60.27 8.99,62.43 7.73,64.29 6.48,66.14 4.69,67.50 2.91,68.86 0.78,69.57 -1.33,70.29 -3.57,70.29 -5.81,70.29 -7.94,69.57 -10.06,68.85 -11.85,67.50 -13.63,66.14 -14.89,64.29 -16.15,62.43 -16.75,60.27 -17.35,58.11 -17.22,55.87 -17.10,53.63 -16.27,51.55 -15.44,49.47 -13.99,47.76 -12.54,46.05 -10.62,44.90 -8.70,43.74 -6.51,43.26 -4.32,42.78 -2.09,43.02 0.13,43.27 2.16,44.21 4.20,45.15 5.82,46.69 7.45,48.23 8.50,50.21 9.55,52.19 9.91,54.41 10.27,56.62 10.27,56.62 10.27,56.61 10.12,62.79 9.97,68.96 9.68,74.57 9.39,80.17 10.22,85.16 11.04,90.16 11.84,94.88 12.65,99.60 14.95,105.76 17.26,111.92 19.99,117.38 22.71,122.85 25.80,129.32 28.88,135.79 32.13,142.26 35.39,148.74 38.38,154.02 41.37,159.30 43.33,163.26 45.29,167.22 47.64,171.44 50.00,175.66 54.33,180.66 58.66,185.66 64.47,191.36 70.29,197.06 76.41,202.44 82.52,207.82 88.59,212.78 94.67,217.74 98.81,221.74 102.96,225.75 106.71,229.34 110.46,232.94 113.73,236.45 117.00,239.97 121.49,246.47 125.99,252.97 125.79,254.60 125.59,256.23 125.01,257.77 124.43,259.31 123.50,260.66 122.57,262.01 121.34,263.11 120.11,264.20 118.66,264.96 117.20,265.73 115.61,266.12 114.01,266.52 112.37,266.52 110.72,266.52 109.13,266.13 107.53,265.74 106.07,264.98 104.62,264.22 103.38,263.13 102.15,262.04 101.22,260.69 100.28,259.34 99.70,257.80 99.11,256.26 98.91,254.63 98.71,253.00 98.83,248.79 98.95,244.59 99.01,240.30 99.07,236.02 98.96,230.57 98.84,225.12 97.95,219.07 97.06,213.03 95.97,206.17 94.88,199.32 93.23,191.27 91.58,183.22 90.11,176.87 88.64,170.53 88.49,164.45 88.35,158.38 92.25,152.85 96.16,147.32 101.28,146.69 106.40,146.06 111.79,146.95 117.18,147.83 123.13,147.08 129.08,146.32 134.47,146.05 139.86,145.77 146.55,146.70 153.23,147.62 159.31,148.32 165.38,149.03 172.90,149.86 180.43,150.69 192.02,150.30 203.61,149.91 219.00,149.35 234.38,148.80 249.14,147.99 263.90,147.18 274.45,146.02 285.01,144.86 292.24,143.42 299.47,141.99 307.19,142.09 314.92,142.20 312.24,147.31 309.57,152.42 308.93,146.83 308.28,141.23 308.15,134.33 308.01,127.43 307.02,118.17 306.04,108.90 305.03,104.02 304.02,99.14 302.53,92.87 301.03,86.59 300.09,80.11 299.15,73.63 298.33,66.70 297.51,59.77 297.31,53.98 297.10,48.19 300.21,41.87 303.31,35.54 298.41,35.51 293.51,35.49 287.76,35.99 282.01,36.50 276.76,36.47 271.51,36.44 266.29,36.40 261.07,36.36 255.93,36.30 250.78,36.25 245.79,36.18 240.80,36.11 235.00,36.17 229.19,36.24 222.77,36.54 216.34,36.84 211.89,37.00 207.43,37.16 198.48,37.95 189.53,38.74 182.85,39.81 176.16,40.88 169.40,41.03 162.63,41.19 153.86,41.94 145.10,42.68 136.36,43.60 127.62,44.51 117.14,45.04 106.66,45.56 101.99,45.45 97.33,45.33 92.39,43.66 87.44,42.00 84.33,37.75 81.21,33.50 79.23,27.19 77.24,20.87 76.46,15.35 75.67,9.82 75.34,3.80 75.01,-2.21 74.34,-6.90 73.67,-11.58 73.46,-18.32 73.24,-25.06 73.70,-30.89 74.16,-36.73 72.83,-40.98 71.50,-45.24 76.32,-44.54 81.13,-43.84 78.38,-40.16 75.63,-36.49 72.53,-32.77 69.43,-29.06 66.91,-24.20 64.40,-19.33 60.94,-14.27 57.48,-9.21 54.71,-5.62 51.94,-2.03 49.05,1.69 46.17,5.43 41.02,12.05 35.86,18.68 33.47,23.41 31.07,28.15 28.91,32.07 26.74,35.98 24.42,40.06 22.11,44.13 19.70,48.80 17.29,53.47 14.68,57.46 12.08,61.46 11.31,62.41 10.54,63.37 9.56,64.11 8.58,64.85 7.46,65.34 6.33,65.83 5.12,66.03 3.91,66.23 2.68,66.14 1.46,66.05 0.29,65.67 -0.86,65.28 -1.90,64.63 -2.94,63.98 -3.80,63.10 -4.65,62.22 -5.27,61.16 -5.89,60.10 -6.24,58.92 -6.59,57.75 -6.64,56.52 -6.70,55.29 -6.46,54.09 -6.22,52.89 -5.70,51.77 -5.18,50.66 -5.18,50.66 L -5.18,50.66 Z"></path></g><g transform="translate(1003.5616053812394 569.2891060292105) rotate(179.66839486017565 -237.58194578039104 -21.455891532580495)" stroke="none"><path d="M-125.72 -2.01 C-126.11 -1.77, -122.56 -3.73, -125.27 0.62 C-127.98 4.96, -136.26 17.75, -141.99 24.06 C-147.72 30.36, -155.89 34.62, -159.64 38.46 C-163.39 42.29, -162.58 45.02, -164.48 47.04 C-166.39 49.07, -170.03 49.15, -171.07 50.6 C-172.11 52.04, -169.74 54.91, -170.7 55.73 C-171.67 56.55, -176.26 55.39, -176.85 55.5 C-177.45 55.62, -173.66 55.61, -174.3 56.45 C-174.95 57.28, -179.01 61.63, -180.73 60.51 C-182.45 59.4, -183.26 56.07, -184.61 49.76 C-185.96 43.44, -187.66 29.01, -188.83 22.61 C-189.99 16.2, -180.15 13.12, -191.58 11.33 C-203.01 9.55, -243.52 11.63, -257.4 11.91 C-271.28 12.2, -259.93 12.45, -274.85 13.05 C-289.78 13.65, -335.34 18.97, -346.94 15.52 C-358.53 12.06, -343.88 -2.14, -344.44 -7.7 C-344.99 -13.26, -349.01 -14.53, -350.26 -17.84 C-351.51 -21.15, -351.09 -22.75, -351.93 -27.57 C-352.78 -32.39, -355.18 -43.69, -355.32 -46.75 C-355.46 -49.8, -352.74 -45.02, -352.78 -45.91 C-352.82 -46.8, -358.66 -51.8, -355.57 -52.09 C-352.47 -52.39, -339.77 -47.59, -334.23 -47.69 C-328.69 -47.79, -337.59 -51.63, -322.34 -52.67 C-307.1 -53.72, -257.87 -54.08, -242.74 -53.96 C-227.61 -53.83, -235.99 -52.22, -231.57 -51.93 C-227.16 -51.64, -219.68 -52.5, -216.27 -52.2 C-212.86 -51.9, -214.5 -50.17, -211.11 -50.15 C-207.71 -50.14, -198.28 -50.25, -195.9 -52.11 C-193.52 -53.96, -196.67 -58.25, -196.85 -61.31 C-197.03 -64.36, -195.86 -67.88, -197 -70.41 C-198.13 -72.95, -202.27 -73.88, -203.66 -76.51 C-205.06 -79.15, -205.4 -82.21, -205.36 -86.24 C-205.33 -90.27, -209.48 -102.18, -203.47 -100.68 C-197.46 -99.19, -178.14 -83.83, -169.3 -77.25 C-160.46 -70.67, -154.47 -65.45, -150.41 -61.22 C-146.35 -56.99, -149.43 -57.61, -144.92 -51.86 C-140.42 -46.12, -127.32 -32.77, -123.38 -26.75 C-119.44 -20.72, -121.4 -20, -121.25 -15.7 C-121.11 -11.39, -122.99 -3.65, -122.52 -0.93" stroke="none" stroke-width="0" fill="#ffc9c9" fill-rule="evenodd"></path><path fill="#e03131" d="M -121.54,3.20 Q -121.54,3.20 -123.35,5.27 -125.15,7.35 -126.46,9.30 -127.76,11.26 -129.57,13.58 -131.39,15.91 -132.78,17.85 -134.17,19.79 -135.89,22.13 -137.60,24.47 -139.69,26.59 -141.77,28.72 -144.09,30.79 -146.41,32.86 -148.44,34.75 -150.47,36.64 -152.42,38.48 -154.37,40.32 -156.08,42.54 -157.80,44.77 -158.84,46.62 -159.88,48.48 -162.11,50.93 -164.34,53.38 -167.01,56.50 -169.69,59.63 -171.41,61.39 -173.13,63.15 -177.13,63.39 -181.12,63.62 -182.91,62.36 -184.70,61.10 -186.33,58.81 -187.97,56.51 -189.69,53.93 -191.42,51.35 -191.61,48.33 -191.80,45.31 -192.31,43.24 -192.83,41.16 -192.93,37.91 -193.04,34.66 -193.49,31.06 -193.94,27.47 -194.29,25.08 -194.64,22.68 -195.18,20.57 -195.72,18.46 -197.81,18.96 -199.89,19.47 -202.87,19.28 -205.85,19.10 -210.41,18.64 -214.96,18.17 -221.28,17.79 -227.60,17.41 -233.94,17.12 -240.28,16.82 -245.16,16.60 -250.04,16.38 -254.10,16.71 -258.16,17.05 -261.52,17.36 -264.88,17.66 -268.02,18.08 -271.15,18.49 -274.84,18.65 -278.52,18.81 -283.38,18.71 -288.24,18.61 -292.48,18.52 -296.72,18.43 -300.35,18.50 -303.98,18.56 -307.72,18.58 -311.45,18.61 -315.23,18.61 -319.01,18.62 -322.81,18.62 -326.60,18.62 -330.29,18.87 -333.98,19.12 -336.36,19.42 -338.73,19.72 -341.08,20.07 -343.43,20.42 -345.53,19.67 -347.64,18.92 -349.27,15.94 -350.91,12.96 -351.07,10.72 -351.23,8.48 -351.32,6.30 -351.41,4.11 -351.38,1.13 -351.34,-1.85 -351.60,-4.90 -351.85,-7.95 -352.29,-11.04 -352.73,-14.13 -353.58,-16.68 -354.42,-19.24 -355.25,-21.79 -356.08,-24.35 -356.55,-27.07 -357.02,-29.79 -357.53,-32.19 -358.04,-34.59 -358.36,-36.93 -358.67,-39.26 -358.95,-42.23 -359.23,-45.19 -359.65,-47.32 -360.07,-49.45 -359.00,-51.59 -357.93,-53.74 -355.75,-54.72 -353.57,-55.69 -349.55,-55.88 -345.53,-56.06 -342.43,-55.94 -339.33,-55.82 -335.00,-55.94 -330.67,-56.05 -322.29,-55.98 -313.91,-55.91 -303.10,-55.77 -292.28,-55.63 -281.12,-55.50 -269.95,-55.36 -261.56,-55.25 -253.16,-55.14 -247.27,-54.53 -241.37,-53.93 -237.16,-53.65 -232.95,-53.37 -230.41,-53.49 -227.88,-53.62 -225.73,-53.77 -223.58,-53.93 -221.39,-54.41 -219.20,-54.88 -216.57,-55.38 -213.94,-55.87 -211.06,-56.57 -208.19,-57.27 -205.34,-57.43 -202.48,-57.59 -200.10,-57.71 -197.72,-57.82 -198.47,-53.94 -199.23,-50.07 -200.44,-52.15 -201.66,-54.23 -202.86,-57.84 -204.07,-61.44 -204.42,-63.76 -204.78,-66.09 -205.91,-69.94 -207.05,-73.79 -207.83,-77.31 -208.60,-80.83 -209.30,-83.29 -209.99,-85.74 -210.20,-88.47 -210.42,-91.21 -210.49,-93.54 -210.56,-95.88 -210.63,-98.04 -210.70,-100.21 -210.60,-101.02 -210.51,-101.83 -210.22,-102.60 -209.93,-103.37 -209.47,-104.04 -209.00,-104.71 -208.39,-105.26 -207.78,-105.80 -207.05,-106.18 -206.33,-106.56 -205.54,-106.76 -204.74,-106.96 -203.92,-106.96 -203.11,-106.96 -202.31,-106.77 -201.52,-106.57 -200.79,-106.19 -200.07,-105.81 -199.45,-105.27 -198.84,-104.73 -198.37,-104.06 -197.91,-103.39 -197.62,-102.62 -197.32,-101.86 -197.22,-101.04 -197.12,-100.23 -198.54,-103.10 -199.96,-105.97 -197.05,-104.38 -194.14,-102.80 -191.98,-100.85 -189.83,-98.90 -185.28,-95.08 -180.72,-91.27 -177.26,-88.51 -173.80,-85.76 -169.67,-82.28 -165.54,-78.81 -161.67,-75.45 -157.80,-72.10 -154.69,-69.34 -151.59,-66.59 -149.24,-64.03 -146.90,-61.48 -145.13,-59.45 -143.36,-57.41 -141.23,-54.76 -139.10,-52.10 -137.69,-50.51 -136.27,-48.93 -133.54,-45.93 -130.81,-42.94 -129.44,-41.22 -128.07,-39.49 -126.03,-37.20 -123.99,-34.91 -122.03,-32.31 -120.07,-29.71 -118.71,-26.70 -117.35,-23.68 -116.52,-21.68 -115.69,-19.68 -114.93,-17.38 -114.17,-15.08 -113.85,-12.46 -113.54,-9.84 -113.46,-7.61 -113.37,-5.37 -113.32,-2.83 -113.27,-0.28 -113.45,0.80 -113.63,1.88 -114.14,2.86 -114.66,3.83 -115.46,4.58 -116.26,5.34 -117.25,5.80 -118.25,6.27 -119.35,6.38 -120.44,6.50 -121.52,6.27 -122.59,6.03 -123.53,5.46 -124.47,4.90 -125.19,4.06 -125.90,3.22 -126.31,2.20 -126.71,1.17 -126.77,0.08 -126.83,-1.01 -126.54,-2.07 -126.24,-3.13 -125.63,-4.04 -125.01,-4.95 -124.13,-5.62 -123.26,-6.29 -122.21,-6.64 -121.17,-6.99 -120.07,-6.99 -118.97,-6.99 -117.93,-6.64 -116.89,-6.28 -116.01,-5.62 -115.13,-4.95 -114.52,-4.04 -113.90,-3.13 -113.61,-2.07 -113.31,-1.01 -113.37,0.08 -113.43,1.18 -113.84,2.20 -114.25,3.22 -114.96,4.06 -115.67,4.90 -116.61,5.46 -117.56,6.03 -118.63,6.27 -119.71,6.50 -120.80,6.38 -121.89,6.26 -122.89,5.80 -123.89,5.34 -124.69,4.58 -125.49,3.83 -126.00,2.85 -126.52,1.88 -126.69,0.80 -126.87,-0.28 -126.87,-0.28 -126.87,-0.28 -126.80,-3.42 -126.73,-6.56 -126.50,-9.09 -126.26,-11.63 -126.85,-14.58 -127.44,-17.54 -128.63,-20.75 -129.83,-23.96 -130.99,-25.95 -132.15,-27.93 -134.15,-30.74 -136.16,-33.56 -138.43,-36.91 -140.71,-40.26 -143.10,-43.61 -145.49,-46.97 -147.66,-49.65 -149.82,-52.33 -151.27,-54.39 -152.72,-56.45 -154.51,-58.69 -156.30,-60.94 -159.50,-63.41 -162.69,-65.89 -166.77,-68.80 -170.85,-71.72 -175.11,-74.52 -179.38,-77.33 -183.63,-79.67 -187.89,-82.02 -190.96,-83.97 -194.03,-85.92 -197.24,-88.37 -200.45,-90.82 -202.70,-92.08 -204.94,-93.33 -207.82,-96.77 -210.70,-100.21 -210.60,-101.02 -210.51,-101.83 -210.22,-102.60 -209.93,-103.36 -209.47,-104.04 -209.00,-104.71 -208.39,-105.26 -207.78,-105.80 -207.06,-106.18 -206.33,-106.56 -205.54,-106.76 -204.74,-106.96 -203.92,-106.96 -203.11,-106.96 -202.31,-106.77 -201.52,-106.57 -200.79,-106.19 -200.07,-105.81 -199.45,-105.27 -198.84,-104.73 -198.37,-104.06 -197.91,-103.39 -197.62,-102.62 -197.32,-101.86 -197.22,-101.04 -197.12,-100.23 -197.19,-98.10 -197.25,-95.96 -197.27,-93.80 -197.30,-91.65 -197.22,-89.09 -197.14,-86.54 -196.47,-83.44 -195.80,-80.33 -195.04,-76.91 -194.27,-73.49 -193.20,-70.71 -192.14,-67.92 -191.43,-64.81 -190.72,-61.70 -189.94,-58.18 -189.15,-54.66 -193.43,-50.26 -197.70,-45.87 -200.06,-45.97 -202.42,-46.08 -205.05,-46.18 -207.68,-46.28 -209.99,-46.08 -212.30,-45.88 -214.75,-46.08 -217.19,-46.28 -220.45,-46.29 -223.72,-46.30 -225.92,-46.54 -228.13,-46.77 -230.69,-47.08 -233.25,-47.39 -237.58,-47.54 -241.92,-47.69 -247.53,-48.10 -253.15,-48.50 -261.54,-48.36 -269.93,-48.21 -281.07,-48.00 -292.21,-47.79 -302.94,-47.46 -313.67,-47.14 -321.61,-46.62 -329.56,-46.11 -334.42,-45.19 -339.28,-44.26 -342.33,-44.12 -345.37,-43.97 -347.97,-44.65 -350.57,-45.32 -350.00,-47.44 -349.43,-49.57 -348.87,-46.49 -348.31,-43.42 -348.20,-39.99 -348.09,-36.55 -347.41,-31.87 -346.73,-27.19 -346.01,-24.71 -345.30,-22.23 -344.24,-18.97 -343.18,-15.71 -342.58,-12.38 -341.98,-9.05 -341.49,-5.47 -341.00,-1.89 -340.99,3.14 -340.97,8.18 -342.29,9.94 -343.61,11.69 -341.35,11.91 -339.08,12.13 -336.76,12.21 -334.44,12.29 -330.52,12.03 -326.60,11.76 -322.81,11.76 -319.01,11.76 -315.24,11.76 -311.46,11.76 -307.73,11.78 -304.00,11.79 -300.38,11.83 -296.76,11.87 -292.55,11.73 -288.33,11.59 -283.59,11.36 -278.84,11.14 -275.41,11.00 -271.98,10.86 -268.68,10.57 -265.38,10.29 -262.19,10.16 -259.00,10.03 -254.53,9.34 -250.05,8.65 -245.16,8.42 -240.28,8.20 -233.94,7.90 -227.60,7.61 -221.28,7.23 -214.96,6.85 -210.40,6.39 -205.84,5.93 -202.83,5.76 -199.83,5.58 -196.72,5.59 -193.60,5.60 -191.09,6.17 -188.59,6.75 -186.88,8.38 -185.17,10.02 -184.02,11.92 -182.87,13.83 -182.20,16.46 -181.53,19.10 -181.03,21.26 -180.52,23.43 -180.31,26.37 -180.10,29.31 -179.62,31.84 -179.14,34.38 -179.03,37.57 -178.93,40.75 -179.23,43.66 -179.54,46.56 -178.08,48.97 -176.61,51.39 -178.68,52.53 -180.75,53.67 -178.78,52.04 -176.82,50.41 -175.49,48.45 -174.16,46.50 -171.94,44.64 -169.72,42.78 -167.93,40.34 -166.14,37.90 -163.70,35.41 -161.27,32.92 -159.28,31.10 -157.30,29.27 -155.24,27.36 -153.17,25.46 -151.02,23.44 -148.87,21.43 -147.30,20.00 -145.73,18.56 -144.01,16.14 -142.28,13.73 -140.74,11.74 -139.19,9.76 -137.54,7.67 -135.88,5.59 -134.17,3.23 -132.46,0.87 -130.61,-1.16 -128.76,-3.20 -128.33,-3.59 -127.89,-3.97 -127.38,-4.24 -126.86,-4.51 -126.29,-4.65 -125.73,-4.79 -125.15,-4.79 -124.57,-4.79 -124.00,-4.65 -123.44,-4.51 -122.92,-4.24 -122.41,-3.96 -121.97,-3.58 -121.54,-3.19 -121.21,-2.71 -120.88,-2.23 -120.67,-1.69 -120.47,-1.14 -120.40,-0.57 -120.33,0.00 -120.40,0.58 -120.47,1.16 -120.68,1.70 -120.88,2.24 -121.21,2.72 -121.54,3.20 -121.54,3.20 L -121.54,3.20 Z"></path></g><g stroke-linecap="round" transform="translate(175.30512120276535 122.39296679426286) rotate(0 56.77005477525165 189.3423267692437)"><path d="M28.39 0 C49.29 1.5, 72.28 -2.58, 85.16 0 C104.86 2.14, 115.3 8.16, 113.54 28.39 C114.02 116.68, 116.55 198.82, 113.54 350.3 C111.45 370.92, 103.55 376.95, 85.16 378.68 C65.27 378.21, 50.85 381.88, 28.39 378.68 C7.34 376.45, 2.69 370.13, 0 350.3 C4.84 230.77, 1.99 104.31, 0 28.39 C0.78 12.95, 10.91 -1.21, 28.39 0" stroke="none" stroke-width="0" fill="#a5d8ff"></path><path d="M28.39 0 C50.94 0.61, 73.17 1.09, 85.16 0 M28.39 0 C40.73 1.03, 52.85 -0.33, 85.16 0 M85.16 0 C105.21 -0.65, 115.03 10.47, 113.54 28.39 M85.16 0 C102.06 -1.97, 111.49 10.32, 113.54 28.39 M113.54 28.39 C113.35 137.04, 113.64 246.34, 113.54 350.3 M113.54 28.39 C114.26 107.05, 113.72 184.89, 113.54 350.3 M113.54 350.3 C114.84 368.4, 103 377.5, 85.16 378.68 M113.54 350.3 C113.34 367.47, 104.85 378.74, 85.16 378.68 M85.16 378.68 C67.2 377.21, 47.21 379.46, 28.39 378.68 M85.16 378.68 C73.02 377.84, 59.08 377.84, 28.39 378.68 M28.39 378.68 C9.89 378.89, 0.03 367.59, 0 350.3 M28.39 378.68 C7.25 378.76, 0.36 369.5, 0 350.3 M0 350.3 C-1.25 247.08, 0.93 142.39, 0 28.39 M0 350.3 C1.71 273.93, 2.53 197.73, 0 28.39 M0 28.39 C1.77 8.23, 11.29 -0.64, 28.39 0 M0 28.39 C-0.53 7.58, 10.55 0.58, 28.39 0" stroke="#1e1e1e" stroke-width="4" fill="none"></path></g><g stroke-linecap="round" transform="translate(60.295157051657725 121.99410148747336) rotate(0 56.77005477525165 189.3423267692437)"><path d="M28.39 0 C47.43 -2.69, 68.26 1.59, 85.16 0 C105.84 -1.3, 112.34 11.92, 113.54 28.39 C110.15 101.86, 108.43 178.99, 113.54 350.3 C113.01 367.48, 103.89 377.8, 85.16 378.68 C63.86 380.96, 42.14 376.14, 28.39 378.68 C12.15 379.59, 2.84 367.01, 0 350.3 C-4.29 243.3, -3.26 142.89, 0 28.39 C1.45 8.26, 6.54 -3.09, 28.39 0" stroke="none" stroke-width="0" fill="#e7f5ff"></path><path d="M28.39 0 C43.27 0.67, 53.63 -1.52, 85.16 0 M28.39 0 C43.83 -1.01, 58.33 -0.78, 85.16 0 M85.16 0 C105.57 1.01, 111.78 7.74, 113.54 28.39 M85.16 0 C102.03 0.86, 114.38 9.34, 113.54 28.39 M113.54 28.39 C113.63 106.82, 112.63 183.15, 113.54 350.3 M113.54 28.39 C114.18 96.39, 114.89 164.75, 113.54 350.3 M113.54 350.3 C112.46 368.04, 103.9 377.16, 85.16 378.68 M113.54 350.3 C114.31 369.28, 104.47 380.5, 85.16 378.68 M85.16 378.68 C62.85 378.62, 43.1 378.31, 28.39 378.68 M85.16 378.68 C68.24 377.36, 51.29 378.31, 28.39 378.68 M28.39 378.68 C9.49 377.06, -1.92 369.29, 0 350.3 M28.39 378.68 C9.82 378.97, 0.5 369.51, 0 350.3 M0 350.3 C2.78 231.28, 0.7 112.87, 0 28.39 M0 350.3 C1.28 251.73, 1.29 151.51, 0 28.39 M0 28.39 C1.83 8.83, 9 -1.64, 28.39 0 M0 28.39 C1.09 10.04, 11.55 -0.92, 28.39 0" stroke="#1e1e1e" stroke-width="4" fill="none"></path></g><g stroke-linecap="round" transform="translate(291.59582023566963 122.39296695703058) rotate(0 56.77005477525165 189.3423267692437)"><path d="M28.39 0 C49.28 2.75, 70.37 -0.69, 85.16 0 C102.88 2.45, 111.1 6.2, 113.54 28.39 C112.5 157.73, 113.59 283.51, 113.54 350.3 C113.35 368.34, 106.24 375.52, 85.16 378.68 C67.73 377.18, 57.22 380.32, 28.39 378.68 C12.3 376.48, 0.93 372.61, 0 350.3 C1.33 225.07, 1.8 94.13, 0 28.39 C-2.92 6.37, 11.76 -2.75, 28.39 0" stroke="none" stroke-width="0" fill="#4dabf7"></path><path d="M28.39 0 C44.33 -1.66, 63.1 0.76, 85.16 0 M28.39 0 C50.52 -0.01, 72.28 0.82, 85.16 0 M85.16 0 C102.32 -1.72, 111.76 10.21, 113.54 28.39 M85.16 0 C104.92 -0.12, 112.16 9.34, 113.54 28.39 M113.54 28.39 C113.09 131.58, 112.66 234.78, 113.54 350.3 M113.54 28.39 C113.16 136.58, 112.34 244.94, 113.54 350.3 M113.54 350.3 C113.36 367.7, 104.75 378.73, 85.16 378.68 M113.54 350.3 C113.93 371.04, 105.42 378.72, 85.16 378.68 M85.16 378.68 C71.86 378.95, 61.33 380.75, 28.39 378.68 M85.16 378.68 C73.15 378.31, 60.73 377.39, 28.39 378.68 M28.39 378.68 C7.54 378.75, 0.31 369.47, 0 350.3 M28.39 378.68 C9.96 378.97, 1.54 367.62, 0 350.3 M0 350.3 C-2.82 246.02, -1.84 143.71, 0 28.39 M0 350.3 C-1.35 243.18, -1.33 136.69, 0 28.39 M0 28.39 C-0.46 7.82, 10.41 0.5, 28.39 0 M0 28.39 C2.09 8.55, 10.48 -0.83, 28.39 0" stroke="#1e1e1e" stroke-width="4" fill="none"></path></g><g stroke-linecap="round" transform="translate(407.8865196288775 119.89247234113543) rotate(0 56.77005477525165 189.3423267692437)"><path d="M28.39 0 C46.71 1.39, 68.28 1.92, 85.16 0 M28.39 0 C42.98 0.69, 55.2 -0.67, 85.16 0 M85.16 0 C102.3 0.75, 114.27 9.36, 113.54 28.39 M85.16 0 C102.7 -0.12, 113.99 9.81, 113.54 28.39 M113.54 28.39 C111.05 153, 112.79 275.99, 113.54 350.3 M113.54 28.39 C114.63 109.82, 114.94 191.55, 113.54 350.3 M113.54 350.3 C114.21 369.27, 104.42 380.26, 85.16 378.68 M113.54 350.3 C114.88 369.25, 102.01 376.41, 85.16 378.68 M85.16 378.68 C66.85 380.66, 46.85 378.97, 28.39 378.68 M85.16 378.68 C72.94 377.93, 59.74 378.78, 28.39 378.68 M28.39 378.68 C9.77 378.93, 0.43 369.47, 0 350.3 M28.39 378.68 C11 377.08, 0.47 371.23, 0 350.3 M0 350.3 C1.51 274.1, 1.83 199.95, 0 28.39 M0 350.3 C-1.34 225.38, -2.14 100.33, 0 28.39 M0 28.39 C0.95 9.97, 11.28 -0.8, 28.39 0 M0 28.39 C1.02 8.63, 10.71 -0.32, 28.39 0" stroke="#1e1e1e" stroke-width="4" fill="none"></path></g><g transform="translate(415.8858226037876 314.78251351823394) rotate(0 45.55463752904416 90.30999026927464)" stroke="none"><path fill="#1e1e1e" d="M 8.21,-3.35 Q 8.21,-3.35 11.90,6.93 15.60,17.22 18.93,27.80 22.26,38.38 25.33,46.84 28.40,55.30 31.29,61.49 34.18,67.69 36.57,72.01 38.96,76.33 44.90,72.12 50.83,67.91 56.21,62.61 61.58,57.32 63.66,52.23 65.75,47.15 66.70,41.68 67.65,36.20 67.63,30.57 67.62,24.93 69.06,17.61 70.49,10.28 75.54,5.79 80.59,1.30 85.58,-1.20 90.57,-3.72 84.56,-0.51 78.56,2.70 79.36,1.31 80.16,-0.08 81.28,-1.24 82.39,-2.40 83.75,-3.26 85.11,-4.12 86.64,-4.63 88.17,-5.14 89.77,-5.27 91.37,-5.40 92.96,-5.14 94.55,-4.89 96.03,-4.26 97.51,-3.62 98.80,-2.66 100.09,-1.69 101.10,-0.45 102.12,0.79 102.81,2.24 103.50,3.70 103.82,5.27 104.15,6.85 104.08,8.46 104.02,10.07 103.57,11.61 103.12,13.16 99.71,16.82 96.29,20.47 93.84,24.74 91.39,29.01 88.06,35.25 84.72,41.49 82.67,50.30 80.61,59.12 77.96,68.41 75.32,77.71 71.52,89.23 67.72,100.76 63.00,110.97 58.29,121.18 54.98,128.18 51.68,135.19 48.39,140.64 45.09,146.09 41.84,150.46 38.59,154.82 36.37,160.03 34.15,165.24 31.11,171.14 28.07,177.04 27.79,179.07 27.50,181.10 27.04,182.90 26.58,184.71 25.56,186.27 24.54,187.83 23.08,188.99 21.62,190.15 19.87,190.78 18.11,191.40 16.25,191.44 14.39,191.48 12.61,190.92 10.83,190.36 9.32,189.26 7.82,188.16 6.74,186.64 5.67,185.11 5.13,183.33 4.60,181.54 4.66,179.68 4.73,177.82 5.39,176.07 6.04,174.33 7.22,172.88 8.40,171.44 9.98,170.45 11.56,169.46 13.37,169.02 15.18,168.58 17.04,168.75 18.89,168.92 20.60,169.67 22.31,170.41 23.68,171.67 25.06,172.93 25.97,174.55 26.87,176.18 27.21,178.02 27.55,179.85 27.28,181.70 27.01,183.54 26.17,185.20 25.33,186.87 24.00,188.18 22.68,189.48 21.00,190.30 19.32,191.11 17.47,191.35 15.63,191.59 13.80,191.22 11.97,190.86 10.36,189.93 8.74,189.00 7.51,187.60 6.27,186.20 5.55,184.49 4.83,182.77 4.69,180.91 4.55,179.05 4.55,179.05 4.55,179.05 5.21,175.41 5.87,171.77 9.17,166.98 12.48,162.18 15.60,157.28 18.72,152.38 21.93,148.09 25.15,143.80 28.26,140.42 31.36,137.04 34.38,132.90 37.40,128.77 40.31,121.88 43.21,114.98 46.61,105.46 50.00,95.95 52.32,84.84 54.64,73.73 55.58,64.38 56.52,55.03 57.34,48.78 58.17,42.54 59.64,36.54 61.12,30.54 63.08,26.25 65.04,21.96 67.19,18.16 69.33,14.36 73.94,8.53 78.56,2.70 79.36,1.31 80.16,-0.08 81.28,-1.24 82.39,-2.40 83.75,-3.26 85.11,-4.12 86.64,-4.63 88.16,-5.14 89.77,-5.27 91.37,-5.40 92.96,-5.14 94.55,-4.89 96.03,-4.26 97.51,-3.63 98.80,-2.66 100.08,-1.69 101.10,-0.45 102.12,0.79 102.81,2.24 103.50,3.70 103.82,5.27 104.15,6.85 104.08,8.46 104.02,10.07 103.57,11.61 103.12,13.16 97.76,16.97 92.40,20.79 92.07,25.31 91.74,29.83 90.91,35.96 90.08,42.10 88.40,48.23 86.73,54.37 84.55,59.78 82.37,65.19 79.37,68.99 76.38,72.79 69.78,78.43 63.19,84.07 59.35,86.84 55.51,89.60 51.42,92.07 47.33,94.55 39.99,93.88 32.64,93.20 28.88,88.03 25.11,82.85 23.28,78.08 21.44,73.31 18.71,66.76 15.98,60.22 12.32,51.68 8.66,43.14 4.80,33.17 0.94,23.21 -3.63,13.28 -8.21,3.35 -8.49,2.32 -8.77,1.29 -8.80,0.22 -8.83,-0.84 -8.60,-1.88 -8.37,-2.93 -7.90,-3.89 -7.42,-4.85 -6.74,-5.66 -6.05,-6.48 -5.18,-7.11 -4.32,-7.74 -3.33,-8.15 -2.34,-8.55 -1.28,-8.71 -0.22,-8.86 0.83,-8.76 1.90,-8.66 2.91,-8.31 3.91,-7.95 4.81,-7.37 5.71,-6.79 6.44,-6.00 7.16,-5.22 7.69,-4.29 8.21,-3.35 8.21,-3.35 L 8.21,-3.35 Z"></path></g><g transform="translate(542.1599947712261 325.971324985656) rotate(0 -1.5983558365418276 54.34586180638178)" stroke="none"><path fill="#1e1e1e" d="M 8.49,-0.70 Q 8.49,-0.70 9.10,4.79 9.71,10.28 10.86,15.33 12.01,20.37 12.60,26.94 13.18,33.51 12.88,43.26 12.59,53.00 10.40,63.70 8.22,74.40 6.76,82.63 5.30,90.87 5.17,95.72 5.04,100.57 -2.22,107.12 -9.49,113.66 -10.73,113.13 -11.96,112.60 -12.96,111.71 -13.96,110.81 -14.62,109.65 -15.28,108.48 -15.53,107.16 -15.79,105.84 -15.61,104.51 -15.43,103.18 -14.83,101.98 -14.24,100.78 -13.29,99.83 -12.34,98.88 -11.14,98.28 -9.94,97.69 -8.61,97.50 -7.28,97.32 -5.96,97.57 -4.65,97.82 -3.48,98.48 -2.31,99.14 -1.41,100.14 -0.51,101.14 0.01,102.37 0.54,103.60 0.65,104.94 0.76,106.28 0.43,107.58 0.11,108.88 -0.60,110.01 -1.32,111.14 -2.37,111.99 -3.41,112.83 -4.67,113.29 -5.93,113.75 -7.27,113.79 -8.61,113.83 -9.90,113.44 -11.18,113.04 -12.27,112.26 -13.36,111.48 -14.14,110.39 -14.93,109.30 -15.32,108.02 -15.72,106.74 -15.68,105.39 -15.64,104.05 -15.18,102.79 -14.72,101.53 -13.88,100.49 -13.04,99.44 -11.91,98.72 -10.78,97.99 -9.48,97.67 -8.18,97.35 -6.84,97.45 -5.50,97.56 -5.50,97.56 -5.50,97.56 -7.71,98.28 -9.92,98.99 -9.03,93.96 -8.14,88.93 -7.18,80.40 -6.23,71.87 -4.91,62.58 -3.59,53.29 -4.29,44.11 -4.99,34.94 -5.35,29.43 -5.72,23.92 -6.80,17.84 -7.88,11.76 -8.18,6.23 -8.49,0.70 -8.45,-0.31 -8.41,-1.34 -8.13,-2.33 -7.84,-3.32 -7.33,-4.21 -6.82,-5.10 -6.11,-5.84 -5.40,-6.58 -4.53,-7.13 -3.67,-7.68 -2.69,-8.01 -1.72,-8.34 -0.70,-8.43 0.32,-8.51 1.33,-8.35 2.35,-8.19 3.29,-7.79 4.24,-7.39 5.06,-6.77 5.88,-6.16 6.53,-5.36 7.19,-4.57 7.63,-3.64 8.07,-2.71 8.28,-1.71 8.49,-0.70 8.49,-0.70 L 8.49,-0.70 Z"></path></g><g transform="translate(534.1680018474312 325.971324985656) rotate(0 55.94421764292372 46.353815447315014)" stroke="none"><path fill="#1e1e1e" d="M 4.76,-6.13 Q 4.76,-6.13 9.06,-3.11 13.35,-0.10 19.03,3.97 24.71,8.04 30.38,13.44 36.04,18.83 44.06,27.23 52.07,35.64 60.50,44.85 68.93,54.07 77.39,62.51 85.84,70.96 91.83,77.49 97.82,84.01 101.85,89.16 105.88,94.30 108.43,98.52 110.98,102.74 113.35,106.91 115.73,111.07 116.16,111.49 116.59,111.91 116.82,112.94 117.04,113.97 117.01,115.02 116.98,116.07 116.70,117.08 116.42,118.10 115.91,119.02 115.39,119.94 114.67,120.70 113.95,121.47 113.07,122.05 112.19,122.62 111.19,122.96 110.20,123.31 109.15,123.41 108.10,123.51 107.06,123.35 106.02,123.19 105.05,122.79 104.07,122.39 103.22,121.77 102.37,121.15 101.70,120.34 101.02,119.53 100.56,118.59 100.10,117.64 100.19,111.56 100.28,105.47 100.92,96.48 101.56,87.49 102.22,79.38 102.88,71.28 103.40,61.37 103.93,51.45 102.95,41.73 101.98,32.01 100.76,23.16 99.54,14.30 98.74,7.05 97.94,-0.19 97.30,-5.12 96.66,-10.04 96.57,-15.93 96.49,-21.81 96.49,-22.17 96.50,-22.53 96.71,-23.58 96.92,-24.64 97.38,-25.61 97.83,-26.59 98.51,-27.42 99.19,-28.26 100.05,-28.91 100.90,-29.56 101.89,-29.99 102.88,-30.41 103.94,-30.59 105.00,-30.77 106.07,-30.68 107.15,-30.60 108.17,-30.26 109.19,-29.93 110.10,-29.36 111.01,-28.79 111.76,-28.01 112.51,-27.24 113.05,-26.31 113.59,-25.38 113.90,-24.35 114.20,-23.32 114.25,-22.24 114.30,-21.17 114.39,-19.63 114.49,-18.08 114.27,-16.65 114.04,-15.21 113.37,-13.91 112.69,-12.62 111.64,-11.61 110.59,-10.60 109.27,-9.98 107.95,-9.36 106.51,-9.20 105.06,-9.03 103.63,-9.33 102.21,-9.64 100.96,-10.38 99.70,-11.12 98.75,-12.23 97.80,-13.33 97.25,-14.68 96.71,-16.03 96.62,-17.48 96.53,-18.94 96.91,-20.34 97.29,-21.75 98.10,-22.96 98.91,-24.17 100.06,-25.06 101.22,-25.95 102.59,-26.43 103.97,-26.90 105.43,-26.91 106.89,-26.92 108.27,-26.46 109.65,-26.01 110.82,-25.13 111.98,-24.26 112.81,-23.06 113.63,-21.86 114.03,-20.46 114.43,-19.06 114.36,-17.60 114.29,-16.15 113.76,-14.79 113.23,-13.43 112.30,-12.31 111.36,-11.20 110.12,-10.44 108.87,-9.68 107.45,-9.36 106.03,-9.04 104.58,-9.18 103.13,-9.33 101.81,-9.93 100.48,-10.54 99.42,-11.53 98.35,-12.53 97.66,-13.81 96.97,-15.09 96.73,-16.53 96.48,-17.97 96.48,-17.96 96.48,-17.96 96.49,-20.25 96.50,-22.53 96.71,-23.58 96.92,-24.64 97.38,-25.61 97.83,-26.59 98.51,-27.42 99.19,-28.26 100.04,-28.91 100.90,-29.56 101.89,-29.98 102.88,-30.41 103.94,-30.59 105.00,-30.76 106.07,-30.68 107.15,-30.60 108.17,-30.26 109.19,-29.93 110.10,-29.36 111.01,-28.79 111.76,-28.01 112.51,-27.24 113.05,-26.31 113.59,-25.38 113.90,-24.35 114.20,-23.32 114.25,-22.24 114.30,-21.17 114.18,-20.82 114.06,-20.46 112.99,-15.67 111.92,-10.87 111.82,-6.15 111.72,-1.44 112.20,5.33 112.67,12.10 114.44,21.11 116.21,30.12 117.95,40.82 119.69,51.51 120.11,61.53 120.53,71.54 120.95,80.03 121.36,88.53 120.99,94.51 120.61,100.50 118.60,106.20 116.59,111.91 116.82,112.94 117.04,113.96 117.01,115.02 116.98,116.07 116.70,117.08 116.42,118.10 115.91,119.02 115.39,119.93 114.67,120.70 113.95,121.47 113.07,122.04 112.19,122.62 111.19,122.96 110.20,123.31 109.15,123.41 108.10,123.51 107.06,123.35 106.02,123.19 105.05,122.79 104.07,122.39 103.22,121.77 102.37,121.15 101.70,120.34 101.02,119.54 100.56,118.59 100.10,117.65 99.77,116.24 99.45,114.84 97.15,108.39 94.86,101.93 91.96,97.10 89.06,92.27 83.07,86.15 77.08,80.02 68.16,71.67 59.24,63.32 50.58,54.63 41.92,45.94 33.52,38.17 25.11,30.40 20.26,25.86 15.40,21.31 9.29,17.14 3.18,12.96 -0.79,9.55 -4.76,6.13 -5.43,5.47 -6.09,4.81 -6.58,4.01 -7.07,3.21 -7.35,2.32 -7.63,1.42 -7.69,0.49 -7.75,-0.44 -7.59,-1.36 -7.42,-2.28 -7.04,-3.14 -6.66,-3.99 -6.08,-4.73 -5.51,-5.47 -4.77,-6.05 -4.04,-6.63 -3.18,-7.02 -2.33,-7.40 -1.41,-7.58 -0.49,-7.75 0.43,-7.69 1.37,-7.64 2.26,-7.37 3.16,-7.09 3.96,-6.61 4.77,-6.13 4.77,-6.13 L 4.76,-6.13 Z"></path></g><g transform="translate(692.4102525805938 311.5856949746077) rotate(0 -9.590455630880001 78.32194744831042)" stroke="none"><path fill="#1e1e1e" d="M 7.34,0.77 Q 7.34,0.77 6.13,9.47 4.93,18.17 2.91,27.64 0.89,37.11 -0.89,50.01 -2.68,62.90 -5.36,78.22 -8.04,93.54 -9.64,106.75 -11.24,119.95 -11.95,128.73 -12.65,137.50 -12.49,143.08 -12.34,148.65 -12.65,151.14 -12.96,153.63 -13.42,154.57 -13.89,155.51 -14.63,156.25 -15.36,156.99 -16.30,157.45 -17.24,157.92 -18.27,158.06 -19.31,158.21 -20.34,158.01 -21.37,157.81 -22.28,157.30 -23.19,156.79 -23.89,156.01 -24.59,155.23 -25.00,154.27 -25.42,153.31 -25.50,152.27 -25.59,151.22 -25.34,150.21 -25.09,149.19 -24.53,148.31 -23.96,147.43 -23.15,146.77 -22.33,146.11 -21.35,145.75 -20.37,145.39 -19.33,145.36 -18.28,145.33 -17.28,145.64 -16.28,145.94 -15.43,146.55 -14.58,147.16 -13.97,148.01 -13.35,148.86 -13.05,149.86 -12.74,150.86 -12.76,151.90 -12.79,152.95 -13.15,153.93 -13.51,154.92 -14.17,155.73 -14.82,156.55 -15.70,157.11 -16.58,157.68 -17.60,157.93 -18.61,158.19 -19.65,158.10 -20.70,158.02 -21.66,157.61 -22.62,157.19 -23.40,156.50 -24.18,155.80 -24.70,154.89 -25.21,153.98 -25.41,152.95 -25.61,151.92 -25.47,150.89 -25.33,149.85 -25.33,149.85 -25.33,149.85 -25.26,148.93 -25.19,148.01 -24.48,142.35 -23.76,136.69 -23.15,127.67 -22.55,118.65 -21.07,105.13 -19.58,91.61 -17.16,76.49 -14.74,61.36 -13.19,48.03 -11.65,34.71 -10.13,25.72 -8.61,16.74 -7.97,7.98 -7.34,-0.77 -7.14,-1.64 -6.94,-2.50 -6.54,-3.30 -6.14,-4.09 -5.56,-4.77 -4.98,-5.44 -4.25,-5.96 -3.53,-6.48 -2.70,-6.81 -1.88,-7.14 -0.99,-7.26 -0.11,-7.38 0.76,-7.28 1.65,-7.19 2.49,-6.89 3.32,-6.59 4.06,-6.09 4.80,-5.60 5.40,-4.94 6.00,-4.29 6.43,-3.50 6.86,-2.72 7.08,-1.86 7.31,-1.00 7.32,-0.11 7.34,0.77 7.34,0.77 L 7.34,0.77 Z"></path></g><g transform="translate(703.5991709185582 330.766606236367) rotate(0 34.365719191079506 69.5306697357014)" stroke="none"><path fill="#1e1e1e" d="M 6.58,-4.39 Q 6.58,-4.39 10.31,1.08 14.04,6.57 18.54,14.22 23.04,21.87 27.77,31.91 32.51,41.96 38.48,53.89 44.45,65.82 49.75,77.48 55.06,89.15 59.07,97.72 63.08,106.29 66.08,111.60 69.07,116.91 70.79,120.96 72.51,125.01 74.85,131.41 77.19,137.81 77.08,139.18 76.96,140.56 76.42,141.83 75.87,143.10 74.95,144.12 74.03,145.15 72.82,145.83 71.62,146.51 70.26,146.77 68.91,147.03 67.54,146.84 66.17,146.65 64.93,146.04 63.70,145.43 62.72,144.45 61.74,143.47 61.13,142.23 60.52,141.00 60.33,139.63 60.15,138.26 60.41,136.90 60.67,135.55 61.35,134.34 62.03,133.14 63.06,132.22 64.09,131.30 65.36,130.75 66.63,130.21 68.00,130.10 69.38,129.99 70.72,130.32 72.06,130.65 73.22,131.40 74.39,132.14 75.25,133.22 76.12,134.30 76.59,135.60 77.07,136.89 77.10,138.27 77.14,139.65 76.73,140.97 76.33,142.29 75.52,143.41 74.71,144.54 73.59,145.34 72.47,146.15 71.15,146.55 69.83,146.95 68.45,146.92 67.07,146.88 65.77,146.40 64.47,145.92 63.40,145.06 62.32,144.19 61.58,143.03 60.84,141.86 60.50,140.52 60.17,139.18 60.17,139.18 60.17,139.18 60.12,136.89 60.07,134.61 58.68,128.62 57.29,122.63 54.94,116.99 52.58,111.35 48.35,102.81 44.11,94.27 38.66,82.97 33.20,71.66 26.83,59.83 20.45,47.99 15.61,38.88 10.78,29.77 5.72,22.63 0.66,15.48 -2.96,9.93 -6.58,4.39 -7.01,3.53 -7.44,2.68 -7.66,1.75 -7.87,0.82 -7.85,-0.12 -7.84,-1.08 -7.60,-2.00 -7.35,-2.92 -6.89,-3.76 -6.44,-4.60 -5.79,-5.30 -5.15,-6.01 -4.35,-6.54 -3.56,-7.06 -2.66,-7.39 -1.76,-7.71 -0.82,-7.81 0.12,-7.91 1.07,-7.78 2.01,-7.65 2.90,-7.30 3.79,-6.95 4.56,-6.39 5.34,-5.84 5.96,-5.11 6.58,-4.39 6.58,-4.39 L 6.58,-4.39 Z"></path></g><g transform="translate(692.4102525805938 421.87577442391296) rotate(0 28.77136689263989 -7.992046359066535)" stroke="none"><path fill="#1e1e1e" d="M -0.64,8.32 Q -0.64,8.32 -6.64,7.97 -12.65,7.62 -14.72,7.21 -16.80,6.81 -17.87,6.60 -18.94,6.38 -19.93,5.92 -20.92,5.45 -21.77,4.76 -22.62,4.08 -23.28,3.20 -23.94,2.33 -24.37,1.33 -24.81,0.32 -24.99,-0.75 -25.17,-1.82 -25.08,-2.92 -25.00,-4.01 -24.66,-5.04 -24.31,-6.08 -23.73,-7.01 -23.15,-7.94 -22.37,-8.70 -21.58,-9.46 -20.63,-10.01 -19.69,-10.56 -18.64,-10.87 -17.59,-11.17 -16.50,-11.22 -15.41,-11.27 -6.66,-14.11 2.07,-16.96 12.02,-17.48 21.97,-18.01 33.15,-18.04 44.33,-18.07 52.64,-19.27 60.95,-20.47 65.66,-21.52 70.37,-22.57 72.35,-23.06 74.33,-23.55 75.60,-23.57 76.88,-23.60 78.09,-23.22 79.31,-22.84 80.34,-22.09 81.37,-21.34 82.11,-20.30 82.84,-19.26 83.21,-18.04 83.58,-16.82 83.54,-15.55 83.49,-14.27 83.05,-13.08 82.60,-11.88 81.80,-10.90 80.99,-9.91 79.91,-9.23 78.84,-8.55 77.60,-8.25 76.36,-7.95 75.09,-8.06 73.82,-8.17 72.65,-8.68 71.49,-9.19 70.54,-10.05 69.60,-10.91 68.98,-12.02 68.36,-13.13 68.13,-14.38 67.89,-15.64 68.07,-16.90 68.25,-18.16 68.83,-19.30 69.40,-20.44 70.30,-21.33 71.21,-22.23 72.36,-22.79 73.50,-23.35 74.76,-23.51 76.03,-23.67 77.28,-23.43 78.53,-23.18 79.63,-22.54 80.74,-21.91 81.58,-20.96 82.43,-20.00 82.93,-18.83 83.42,-17.66 83.52,-16.39 83.61,-15.11 83.30,-13.88 82.98,-12.65 82.29,-11.58 81.60,-10.51 80.60,-9.71 79.60,-8.92 78.40,-8.49 77.20,-8.06 77.20,-8.06 77.21,-8.06 74.87,-7.74 72.53,-7.43 67.95,-7.15 63.37,-6.88 54.15,-4.97 44.93,-3.06 34.32,-2.25 23.71,-1.44 14.82,0.01 5.93,1.47 0.15,2.69 -5.63,3.91 -11.21,5.36 -16.80,6.81 -17.87,6.60 -18.94,6.38 -19.93,5.92 -20.92,5.45 -21.77,4.77 -22.62,4.08 -23.28,3.20 -23.94,2.33 -24.37,1.33 -24.81,0.32 -24.99,-0.74 -25.17,-1.82 -25.08,-2.91 -25.00,-4.00 -24.66,-5.04 -24.31,-6.08 -23.73,-7.01 -23.15,-7.94 -22.37,-8.70 -21.58,-9.46 -20.64,-10.01 -19.69,-10.56 -18.64,-10.87 -17.59,-11.17 -16.50,-11.22 -15.41,-11.27 -13.32,-10.36 -11.24,-9.45 -5.30,-8.89 0.64,-8.32 1.62,-8.12 2.61,-7.92 3.52,-7.50 4.43,-7.07 5.21,-6.44 5.99,-5.80 6.60,-5.00 7.21,-4.20 7.61,-3.27 8.01,-2.35 8.17,-1.36 8.34,-0.36 8.26,0.63 8.18,1.63 7.87,2.59 7.55,3.55 7.02,4.40 6.48,5.25 5.76,5.95 5.04,6.65 4.17,7.16 3.30,7.66 2.33,7.95 1.36,8.23 0.36,8.28 -0.64,8.32 -0.64,8.32 L -0.64,8.32 Z"></path></g><g transform="translate(783.5195276386821 317.9793320618611) rotate(0 4.795174380168646 72.72748827932787)" stroke="none"><path fill="#1e1e1e" d="M 7.68,-2.36 Q 7.68,-2.36 9.62,3.59 11.57,9.56 12.12,20.35 12.66,31.14 12.71,43.82 12.76,56.50 12.68,67.36 12.60,78.23 12.51,87.44 12.41,96.66 12.53,104.25 12.65,111.84 12.98,117.83 13.32,123.81 13.65,129.10 13.98,134.39 15.12,138.68 16.25,142.96 17.22,146.26 18.18,149.56 18.22,150.64 18.25,151.71 18.02,152.77 17.79,153.82 17.32,154.79 16.85,155.76 16.16,156.59 15.46,157.42 14.60,158.05 13.73,158.69 12.73,159.10 11.73,159.52 10.67,159.68 9.60,159.84 8.53,159.74 7.45,159.64 6.43,159.29 5.41,158.94 4.51,158.35 3.61,157.76 2.87,156.98 2.13,156.19 1.60,155.25 1.07,154.31 0.78,153.27 0.49,152.23 0.59,149.82 0.69,147.41 0.97,146.00 1.24,144.59 1.95,143.34 2.66,142.09 3.73,141.14 4.81,140.18 6.13,139.62 7.45,139.05 8.88,138.94 10.31,138.83 11.71,139.18 13.10,139.53 14.31,140.31 15.52,141.08 16.41,142.21 17.31,143.33 17.80,144.68 18.29,146.03 18.33,147.47 18.36,148.90 17.94,150.27 17.51,151.65 16.67,152.81 15.83,153.97 14.66,154.81 13.49,155.64 12.11,156.06 10.74,156.48 9.30,156.43 7.87,156.39 6.52,155.89 5.17,155.39 4.05,154.49 2.94,153.58 2.17,152.37 1.40,151.16 1.06,149.76 0.71,148.37 0.83,146.94 0.96,145.51 1.53,144.19 2.10,142.87 3.06,141.80 4.03,140.74 5.28,140.03 6.53,139.33 7.94,139.06 9.35,138.80 10.78,139.00 12.20,139.20 13.49,139.84 14.77,140.48 15.78,141.50 16.80,142.52 17.43,143.81 18.06,145.10 18.25,146.52 18.44,147.95 18.44,147.94 18.44,147.94 18.31,148.75 18.18,149.56 18.22,150.64 18.25,151.71 18.02,152.77 17.79,153.82 17.32,154.79 16.85,155.76 16.16,156.59 15.47,157.42 14.60,158.05 13.73,158.69 12.73,159.10 11.73,159.52 10.67,159.68 9.60,159.84 8.53,159.74 7.45,159.64 6.43,159.29 5.42,158.94 4.51,158.35 3.61,157.76 2.87,156.98 2.13,156.19 1.60,155.25 1.07,154.31 0.78,153.27 0.49,152.23 0.34,149.07 0.19,145.92 -0.50,140.18 -1.20,134.45 -0.88,129.14 -0.56,123.84 -0.25,117.86 0.06,111.88 0.12,104.31 0.19,96.74 -0.02,87.57 -0.24,78.39 -0.59,67.63 -0.95,56.86 -1.57,44.59 -2.19,32.31 -3.20,23.32 -4.21,14.33 -5.95,8.34 -7.68,2.36 -7.85,1.41 -8.02,0.45 -7.96,-0.51 -7.90,-1.47 -7.60,-2.40 -7.31,-3.32 -6.81,-4.15 -6.30,-4.98 -5.62,-5.66 -4.93,-6.34 -4.10,-6.84 -3.27,-7.34 -2.34,-7.62 -1.42,-7.91 -0.45,-7.96 0.51,-8.02 1.46,-7.84 2.41,-7.66 3.30,-7.26 4.18,-6.86 4.94,-6.26 5.70,-5.66 6.29,-4.89 6.89,-4.13 7.28,-3.24 7.68,-2.36 7.68,-2.36 L 7.68,-2.36 Z"></path></g><g transform="translate(769.1336838865482 308.38887643098053) rotate(0 109.49090153103464 71.92831036105713)" stroke="none"><path fill="#1e1e1e" d="M 1.31,-8.73 Q 1.31,-8.73 10.43,-6.89 19.55,-5.04 31.27,-2.72 43.00,-0.39 52.87,1.13 62.74,2.66 69.64,4.01 76.55,5.35 82.78,7.42 89.01,9.49 91.36,15.88 93.71,22.27 91.06,27.92 88.41,33.57 83.62,37.30 78.83,41.03 70.45,46.68 62.07,52.34 54.15,55.38 46.23,58.41 37.08,61.96 27.92,65.51 21.36,68.50 14.79,71.48 11.05,74.32 7.31,77.16 6.30,77.57 5.28,77.97 4.20,78.12 3.12,78.28 2.03,78.16 0.94,78.05 -0.08,77.68 -1.11,77.31 -2.02,76.70 -2.93,76.10 -3.67,75.29 -4.41,74.49 -4.93,73.53 -5.46,72.57 -5.74,71.51 -6.02,70.46 -6.03,69.36 -6.05,68.27 -5.81,67.20 -5.57,66.14 -5.08,65.16 -4.58,64.18 -3.87,63.35 -3.16,62.52 -2.27,61.88 -1.39,61.25 5.16,60.21 11.71,59.16 16.37,58.05 21.04,56.94 30.99,58.20 40.94,59.45 50.54,63.01 60.14,66.57 72.77,72.12 85.40,77.67 100.33,84.79 115.27,91.92 128.58,99.28 141.90,106.63 152.59,113.07 163.27,119.52 169.65,122.94 176.04,126.37 181.84,129.00 187.64,131.63 194.61,132.57 201.58,133.50 208.52,132.32 215.46,131.13 217.07,131.14 218.68,131.15 220.20,131.68 221.72,132.20 223.00,133.18 224.27,134.17 225.17,135.50 226.06,136.84 226.49,138.40 226.91,139.95 226.81,141.56 226.71,143.17 226.11,144.66 225.50,146.15 224.45,147.37 223.40,148.59 222.01,149.41 220.63,150.24 219.05,150.57 217.48,150.91 215.88,150.72 214.28,150.54 212.82,149.85 211.37,149.17 210.20,148.05 209.04,146.94 208.30,145.51 207.55,144.08 207.30,142.49 207.05,140.90 207.32,139.31 207.59,137.73 208.36,136.31 209.12,134.89 210.30,133.79 211.47,132.69 212.94,132.02 214.40,131.36 216.01,131.19 217.61,131.03 219.18,131.39 220.75,131.74 222.12,132.58 223.50,133.42 224.53,134.66 225.57,135.89 226.15,137.39 226.74,138.89 226.82,140.50 226.89,142.11 226.45,143.66 226.01,145.20 225.10,146.53 224.19,147.86 222.90,148.82 221.61,149.79 220.08,150.29 218.55,150.80 218.55,150.80 218.55,150.80 213.41,151.41 208.26,152.02 203.12,151.80 197.97,151.58 193.39,150.40 188.81,149.21 184.24,147.53 179.67,145.85 174.60,141.95 169.54,138.06 163.16,134.40 156.78,130.73 146.11,124.82 135.43,118.90 122.27,112.31 109.10,105.71 94.18,99.49 79.25,93.27 67.02,89.03 54.79,84.78 41.79,81.45 28.79,78.11 24.02,77.99 19.25,77.86 13.28,77.51 7.32,77.16 6.30,77.57 5.28,77.97 4.20,78.12 3.12,78.28 2.03,78.16 0.94,78.05 -0.08,77.68 -1.10,77.31 -2.02,76.71 -2.93,76.10 -3.67,75.29 -4.40,74.49 -4.93,73.53 -5.45,72.57 -5.74,71.51 -6.02,70.46 -6.03,69.36 -6.05,68.27 -5.81,67.20 -5.57,66.14 -5.08,65.16 -4.59,64.18 -3.87,63.35 -3.16,62.52 -2.28,61.89 -1.39,61.25 3.22,59.01 7.84,56.78 14.43,53.54 21.02,50.30 29.84,45.70 38.66,41.10 44.93,37.93 51.20,34.76 55.67,31.96 60.15,29.16 66.81,24.11 73.47,19.07 67.25,17.47 61.03,15.88 50.83,14.82 40.63,13.77 28.92,12.16 17.21,10.56 7.95,9.64 -1.31,8.73 -2.33,8.45 -3.36,8.17 -4.29,7.65 -5.22,7.12 -5.99,6.40 -6.77,5.67 -7.35,4.77 -7.93,3.88 -8.28,2.87 -8.63,1.87 -8.73,0.81 -8.83,-0.24 -8.67,-1.30 -8.51,-2.35 -8.11,-3.34 -7.70,-4.32 -7.07,-5.18 -6.44,-6.04 -5.63,-6.72 -4.81,-7.41 -3.85,-7.87 -2.89,-8.34 -1.85,-8.57 -0.81,-8.79 0.24,-8.76 1.31,-8.73 1.31,-8.73 L 1.31,-8.73 Z"></path></g><g transform="translate(81.82729278729084 146.9092146344659) rotate(0 4.039925894468752 39.3895391439836)" stroke="none"><path fill="#1e1e1e" d="M 9.37,-3.64 Q 9.37,-3.64 11.41,1.59 13.44,6.83 14.67,12.23 15.89,17.63 16.21,24.58 16.54,31.53 16.62,37.85 16.70,44.17 16.51,50.02 16.31,55.87 16.52,63.00 16.72,70.14 17.52,72.34 18.31,74.55 18.59,76.31 18.86,78.08 18.56,79.84 18.26,81.60 17.41,83.17 16.56,84.75 15.26,85.97 13.95,87.19 12.32,87.92 10.69,88.66 8.92,88.84 7.14,89.02 5.40,88.62 3.65,88.23 2.13,87.29 0.61,86.36 -0.53,84.99 -1.68,83.62 -2.33,81.96 -2.98,80.29 -3.06,78.51 -3.14,76.72 -2.65,75.00 -2.16,73.28 -1.15,71.81 -0.13,70.34 1.29,69.27 2.72,68.20 4.42,67.64 6.12,67.08 7.90,67.10 9.69,67.11 11.38,67.69 13.07,68.28 14.48,69.37 15.90,70.46 16.89,71.95 17.88,73.44 18.34,75.16 18.81,76.89 18.70,78.67 18.59,80.45 17.91,82.11 17.24,83.76 16.07,85.12 14.91,86.47 13.37,87.38 11.83,88.29 10.08,88.66 8.33,89.03 6.56,88.82 4.78,88.62 3.17,87.85 1.55,87.09 0.26,85.85 -1.02,84.61 -1.84,83.03 -2.66,81.44 -2.66,81.44 -2.66,81.45 -3.57,75.67 -4.49,69.90 -4.01,62.48 -3.53,55.06 -3.28,49.87 -3.03,44.67 -3.25,38.68 -3.48,32.70 -4.40,23.38 -5.31,14.06 -7.34,8.85 -9.37,3.64 -9.67,2.47 -9.97,1.29 -9.98,0.08 -9.99,-1.12 -9.71,-2.30 -9.43,-3.48 -8.87,-4.56 -8.32,-5.64 -7.52,-6.55 -6.73,-7.47 -5.73,-8.16 -4.74,-8.86 -3.61,-9.30 -2.48,-9.74 -1.28,-9.89 -0.08,-10.05 1.12,-9.91 2.32,-9.78 3.46,-9.36 4.59,-8.94 5.60,-8.26 6.60,-7.58 7.41,-6.68 8.22,-5.78 8.79,-4.71 9.37,-3.64 9.37,-3.64 L 9.37,-3.64 Z"></path></g><g transform="translate(81.82729278729084 141.85926506107114) rotate(0 147.45829119339248 181.79791452822838)" stroke="none"><path fill="#1e1e1e" d="M -0.26,-6.73 Q -0.26,-6.73 6.98,-7.10 14.24,-7.47 22.93,-7.37 31.63,-7.27 43.15,-7.16 54.68,-7.05 69.45,-6.96 84.22,-6.86 98.04,-6.78 111.87,-6.70 124.84,-6.06 137.81,-5.42 148.37,-4.24 158.94,-3.07 167.38,-1.40 175.82,0.27 182.75,2.55 189.68,4.83 195.00,6.73 200.33,8.62 205.20,10.81 210.08,13.01 215.82,15.95 221.56,18.89 227.35,22.22 233.15,25.56 238.69,28.60 244.24,31.64 248.44,34.06 252.64,36.48 256.15,39.21 259.65,41.95 262.75,45.56 265.86,49.17 268.06,52.83 270.25,56.49 274.08,63.27 277.90,70.05 282.16,77.03 286.41,84.01 288.46,88.76 290.50,93.51 291.83,97.59 293.16,101.66 295.18,109.54 297.21,117.41 297.85,122.26 298.50,127.11 299.07,131.38 299.64,135.64 301.54,142.85 303.44,150.06 304.35,155.40 305.26,160.74 305.71,165.26 306.15,169.78 306.35,174.10 306.55,178.43 306.59,183.20 306.62,187.96 305.58,194.36 304.53,200.76 303.49,206.10 302.44,211.44 301.44,215.78 300.44,220.11 298.51,227.93 296.57,235.75 295.16,242.45 293.74,249.14 292.41,253.72 291.07,258.30 289.97,262.62 288.86,266.94 286.86,271.46 284.86,275.98 281.91,282.43 278.96,288.88 277.84,293.64 276.72,298.41 274.97,302.93 273.22,307.45 270.65,311.70 268.08,315.95 264.87,319.81 261.67,323.67 256.41,327.12 251.15,330.57 247.01,332.76 242.86,334.94 238.14,337.23 233.43,339.53 228.81,341.51 224.20,343.50 219.34,345.42 214.48,347.34 209.72,348.90 204.96,350.45 200.94,351.88 196.91,353.31 191.36,354.62 185.81,355.92 180.57,357.17 175.34,358.42 169.02,359.88 162.71,361.34 155.85,362.52 148.98,363.70 142.97,364.76 136.95,365.83 131.89,366.92 126.83,368.01 121.45,368.85 116.07,369.69 110.58,370.10 105.09,370.50 100.45,371.21 95.80,371.91 90.96,372.58 86.12,373.25 81.43,373.62 76.74,374.00 72.45,374.45 68.16,374.91 60.45,375.38 52.75,375.86 47.66,376.14 42.57,376.42 33.93,372.60 25.30,368.78 24.00,364.37 22.69,359.96 22.49,354.29 22.29,348.63 21.57,342.18 20.86,335.74 21.19,333.58 21.53,331.43 22.53,329.49 23.54,327.56 25.11,326.05 26.68,324.53 28.66,323.60 30.63,322.67 32.79,322.42 34.96,322.16 37.09,322.62 39.23,323.07 41.11,324.18 42.98,325.29 44.41,326.94 45.83,328.59 46.66,330.61 47.48,332.63 47.62,334.81 47.75,336.98 47.18,339.09 46.62,341.20 45.41,343.01 44.20,344.83 42.47,346.16 40.74,347.49 38.68,348.20 36.62,348.92 34.44,348.93 32.26,348.95 30.19,348.27 28.11,347.59 26.37,346.28 24.62,344.98 23.38,343.18 22.15,341.39 21.55,339.29 20.95,337.19 21.05,335.01 21.15,332.83 21.94,330.80 22.73,328.77 24.13,327.10 25.53,325.42 27.39,324.28 29.25,323.15 31.38,322.66 33.50,322.18 35.67,322.40 37.84,322.61 39.83,323.51 41.82,324.42 43.41,325.90 45.01,327.39 46.04,329.31 47.08,331.23 47.45,333.38 47.82,335.53 47.82,335.53 47.82,335.52 48.19,339.23 48.56,342.93 48.41,347.35 48.26,351.77 47.96,356.78 47.66,361.78 45.04,357.26 42.42,352.75 47.35,352.94 52.27,353.13 59.24,353.12 66.22,353.12 74.85,352.65 83.49,352.18 88.18,351.66 92.86,351.13 98.33,350.41 103.79,349.69 108.44,349.46 113.08,349.23 117.87,348.59 122.67,347.94 127.88,346.89 133.10,345.85 138.96,344.63 144.82,343.41 150.88,341.94 156.94,340.47 163.26,338.43 169.59,336.39 174.96,334.88 180.33,333.36 184.71,332.25 189.08,331.14 197.28,328.36 205.47,325.58 210.04,323.59 214.61,321.60 218.52,319.86 222.43,318.11 226.84,315.71 231.26,313.32 237.12,310.36 242.99,307.40 246.60,302.72 250.21,298.03 252.26,291.92 254.31,285.82 257.23,278.78 260.14,271.74 263.01,266.43 265.88,261.12 267.01,256.44 268.14,251.77 270.24,244.13 272.34,236.50 274.40,229.90 276.47,223.31 278.26,215.36 280.06,207.41 280.89,202.32 281.73,197.22 282.37,192.72 283.02,188.22 282.84,180.00 282.66,171.78 281.71,164.16 280.77,156.54 279.46,151.89 278.14,147.25 277.30,142.94 276.46,138.62 275.94,134.39 275.42,130.16 274.33,122.64 273.24,115.11 271.57,108.57 269.90,102.03 266.57,94.72 263.23,87.41 259.51,80.11 255.79,72.81 253.08,66.82 250.37,60.83 246.71,55.94 243.06,51.05 239.62,48.47 236.18,45.88 230.57,42.61 224.97,39.33 219.55,36.01 214.14,32.70 208.53,29.54 202.93,26.39 198.88,23.81 194.82,21.23 190.08,18.73 185.33,16.23 179.49,13.64 173.64,11.05 165.70,9.45 157.76,7.85 147.53,6.79 137.31,5.73 124.59,5.22 111.87,4.71 98.06,4.81 84.24,4.90 69.49,5.05 54.74,5.19 43.27,5.40 31.81,5.62 23.30,5.96 14.79,6.31 7.53,6.52 0.26,6.73 -0.54,6.66 -1.34,6.60 -2.11,6.34 -2.88,6.08 -3.57,5.65 -4.26,5.21 -4.82,4.63 -5.38,4.04 -5.79,3.34 -6.19,2.63 -6.42,1.85 -6.64,1.07 -6.68,0.26 -6.71,-0.54 -6.55,-1.34 -6.38,-2.13 -6.04,-2.86 -5.69,-3.60 -5.17,-4.23 -4.66,-4.86 -4.01,-5.34 -3.36,-5.83 -2.61,-6.15 -1.87,-6.47 -1.07,-6.60 -0.26,-6.73 -0.26,-6.73 L -0.26,-6.73 Z"></path></g><g transform="translate(117.17683850831236 475.1554304414077) rotate(0 1.009989914678954 -133.31846615213453)" stroke="none"><path fill="#1e1e1e" d="M -3.25,-9.76 Q -3.25,-9.76 2.89,-11.65 9.03,-13.54 14.77,-15.47 20.50,-17.40 24.73,-19.55 28.97,-21.70 32.27,-25.18 35.56,-28.67 36.09,-33.81 36.61,-38.95 36.46,-43.75 36.31,-48.56 36.20,-54.82 36.08,-61.08 36.13,-65.58 36.18,-70.09 36.39,-75.78 36.59,-81.47 37.09,-88.83 37.59,-96.18 37.73,-104.51 37.87,-112.83 37.33,-121.22 36.78,-129.61 36.03,-137.66 35.27,-145.70 34.41,-153.48 33.54,-161.26 32.17,-169.00 30.80,-176.74 29.47,-185.76 28.14,-194.79 26.62,-202.25 25.09,-209.72 23.42,-216.30 21.75,-222.88 20.20,-227.60 18.66,-232.31 15.96,-239.10 13.25,-245.88 11.39,-249.74 9.54,-253.60 1.63,-252.98 -6.27,-252.36 -12.45,-251.73 -18.63,-251.10 -25.18,-250.85 -31.73,-250.60 -37.09,-249.46 -42.45,-248.33 -44.20,-248.14 -45.96,-247.94 -47.69,-248.32 -49.41,-248.70 -50.93,-249.61 -52.44,-250.53 -53.59,-251.87 -54.73,-253.22 -55.39,-254.86 -56.04,-256.50 -56.14,-258.27 -56.23,-260.03 -55.76,-261.74 -55.29,-263.44 -54.30,-264.90 -53.30,-266.36 -51.90,-267.43 -50.49,-268.50 -48.82,-269.07 -47.14,-269.63 -45.37,-269.63 -43.61,-269.63 -41.93,-269.07 -40.26,-268.51 -38.85,-267.44 -37.44,-266.37 -36.45,-264.90 -35.46,-263.44 -34.98,-261.74 -34.51,-260.04 -34.61,-258.27 -34.70,-256.51 -35.36,-254.86 -36.01,-253.22 -37.15,-251.87 -38.30,-250.53 -39.81,-249.62 -41.33,-248.70 -43.05,-248.32 -44.78,-247.94 -46.54,-248.14 -48.29,-248.33 -49.90,-249.07 -51.50,-249.81 -52.79,-251.03 -54.07,-252.24 -54.90,-253.80 -55.72,-255.36 -56.01,-257.11 -56.30,-258.85 -56.01,-260.60 -55.72,-262.34 -54.90,-263.90 -54.07,-265.46 -52.78,-266.68 -51.50,-267.90 -49.90,-268.64 -48.29,-269.38 -48.30,-269.38 -48.30,-269.38 -44.97,-270.15 -41.65,-270.92 -37.31,-271.27 -32.97,-271.62 -27.26,-272.09 -21.56,-272.56 -15.31,-273.63 -9.06,-274.70 -4.50,-275.29 0.05,-275.87 5.33,-276.69 10.62,-277.51 17.08,-274.57 23.54,-271.63 25.49,-266.67 27.44,-261.71 28.84,-256.44 30.24,-251.18 31.84,-243.60 33.44,-236.03 34.35,-230.99 35.26,-225.95 36.63,-219.14 38.00,-212.33 39.54,-204.69 41.07,-197.04 42.85,-188.28 44.62,-179.52 46.45,-171.37 48.27,-163.22 49.47,-155.47 50.66,-147.73 52.01,-139.75 53.37,-131.76 55.06,-122.93 56.75,-114.10 58.06,-105.14 59.36,-96.18 59.86,-88.83 60.36,-81.47 60.56,-75.77 60.76,-70.08 60.74,-62.46 60.73,-54.83 60.54,-48.81 60.36,-42.79 59.95,-37.87 59.54,-32.95 57.49,-26.17 55.44,-19.38 50.85,-14.33 46.26,-9.27 41.97,-6.52 37.68,-3.77 32.35,-1.30 27.02,1.17 21.19,3.29 15.35,5.41 9.30,7.58 3.25,9.76 2.03,10.01 0.82,10.25 -0.41,10.20 -1.65,10.15 -2.84,9.81 -4.03,9.46 -5.11,8.84 -6.18,8.22 -7.08,7.36 -7.97,6.50 -8.63,5.45 -9.30,4.40 -9.69,3.23 -10.08,2.05 -10.18,0.81 -10.28,-0.41 -10.08,-1.64 -9.88,-2.86 -9.39,-4.00 -8.90,-5.15 -8.16,-6.14 -7.41,-7.13 -6.45,-7.91 -5.49,-8.70 -4.37,-9.23 -3.25,-9.76 -3.25,-9.76 L -3.25,-9.76 Z"></path></g><g transform="translate(230.25665990617244 278.57978723833924) rotate(0 31.129315257610415 54.84693303314714)" stroke="none"><path d="M2.14 2.14 C2.75 7.32, 1.9 14.79, 2.91 31.85 C3.91 48.9, 7.51 91.46, 8.17 104.47 C8.83 117.48, 6.16 107.08, 6.85 109.91 C7.53 112.74, 10.58 120.02, 12.28 121.43 C13.98 122.84, 13.36 119.22, 17.05 118.35 C20.74 117.49, 29.52 117.35, 34.44 116.23 C39.35 115.1, 43.13 113.32, 46.54 111.58 C49.95 109.84, 52.14 107.87, 54.88 105.78 C57.62 103.69, 61.52 101.73, 62.97 99.03 C64.43 96.34, 62.7 93.05, 63.6 89.61 C64.5 86.17, 68.23 83.53, 68.37 78.38 C68.52 73.24, 66.21 66.07, 64.49 58.73 C62.77 51.4, 61.52 41.75, 58.07 34.37 C54.62 27, 49.2 21.16, 43.79 14.49 C38.37 7.83, 30.06 -1.63, 25.58 -5.63 C21.1 -9.63, 19.57 -8.22, 16.92 -9.5 C14.26 -10.77, 12.32 -12.9, 9.63 -13.27 C6.93 -13.63, 2.67 -12.31, 0.74 -11.69 C-1.19 -11.08, -0.71 -10.86, -1.95 -9.59 C-3.19 -8.33, -6.27 -5.03, -6.71 -4.1" stroke="none" stroke-width="0" fill="#e9ecef" fill-rule="evenodd"></path><path fill="#1e1e1e" d="M 8.20,-0.18 Q 8.20,-0.18 8.02,9.41 7.84,19.01 8.06,27.87 8.28,36.73 8.71,46.50 9.14,56.27 9.68,65.52 10.22,74.77 10.62,83.46 11.02,92.14 12.05,97.51 13.08,102.89 15.24,108.68 17.39,114.47 21.95,111.11 26.52,107.76 30.51,106.24 34.51,104.71 39.20,102.40 43.88,100.09 48.02,94.88 52.15,89.66 53.88,81.94 55.60,74.22 55.76,69.33 55.93,64.44 54.90,60.06 53.86,55.68 52.25,51.14 50.64,46.60 48.43,41.64 46.21,36.68 43.51,31.46 40.80,26.24 37.23,21.84 33.66,17.44 29.59,13.16 25.53,8.88 21.71,6.29 17.90,3.69 12.79,1.90 7.67,0.10 5.81,0.65 3.95,1.20 2.53,2.43 1.11,3.65 -0.61,4.36 -2.35,5.07 -4.22,5.18 -6.09,5.30 -7.91,4.81 -9.72,4.33 -11.28,3.29 -12.84,2.25 -13.99,0.76 -15.13,-0.71 -15.75,-2.48 -16.36,-4.26 -16.37,-6.13 -16.39,-8.01 -15.80,-9.79 -15.22,-11.57 -14.10,-13.07 -12.97,-14.58 -11.43,-15.64 -9.88,-16.71 -8.08,-17.22 -6.28,-17.74 -4.41,-17.65 -2.53,-17.56 -0.78,-16.88 0.95,-16.20 2.39,-15.00 3.83,-13.80 4.81,-12.20 5.79,-10.60 6.21,-8.77 6.63,-6.94 6.44,-5.08 6.25,-3.21 5.48,-1.50 4.70,0.20 3.42,1.57 2.14,2.94 0.49,3.83 -1.15,4.72 -2.99,5.04 -4.84,5.36 -6.70,5.07 -8.55,4.78 -10.21,3.92 -11.88,3.05 -13.18,1.70 -14.48,0.35 -15.28,-1.34 -16.08,-3.03 -16.30,-4.90 -16.51,-6.76 -16.13,-8.60 -15.74,-10.43 -14.78,-12.04 -13.83,-13.66 -13.83,-13.66 -13.83,-13.66 -8.35,-17.10 -2.87,-20.55 3.51,-20.77 9.89,-20.98 15.49,-18.71 21.10,-16.45 25.16,-14.24 29.22,-12.03 34.23,-8.23 39.24,-4.43 43.89,0.30 48.55,5.04 53.46,10.85 58.38,16.65 61.60,22.40 64.83,28.15 67.55,33.96 70.26,39.78 72.23,45.54 74.20,51.30 75.57,58.13 76.94,64.96 76.74,71.40 76.55,77.85 75.39,84.11 74.23,90.37 71.91,95.97 69.58,101.57 66.20,105.97 62.81,110.37 57.97,114.30 53.13,118.22 47.23,121.21 41.32,124.19 31.62,126.48 21.92,128.77 17.13,128.86 12.34,128.94 7.40,125.46 2.47,121.97 1.73,117.54 0.99,113.11 0.41,108.77 -0.16,104.43 -0.42,98.63 -0.67,92.83 -1.30,84.26 -1.92,75.69 -2.78,66.40 -3.64,57.11 -4.50,47.31 -5.36,37.52 -6.17,28.43 -6.98,19.34 -7.59,9.76 -8.20,0.18 -8.10,-0.80 -8.00,-1.78 -7.67,-2.71 -7.34,-3.65 -6.80,-4.47 -6.26,-5.30 -5.53,-5.97 -4.80,-6.64 -3.94,-7.12 -3.07,-7.60 -2.12,-7.86 -1.16,-8.12 -0.18,-8.14 0.80,-8.16 1.77,-7.94 2.73,-7.73 3.62,-7.29 4.51,-6.85 5.26,-6.21 6.01,-5.57 6.59,-4.77 7.17,-3.97 7.54,-3.05 7.92,-2.13 8.06,-1.16 8.20,-0.18 8.20,-0.18 L 8.20,-0.18 Z"></path></g><g transform="translate(56.20966735676461 474.55563859265214) rotate(0 -9.802956487519396 25.207602396478137)" stroke="none"><path d="M2.16 -1.5 C1.71 -1.99, 0.36 -0.46, -0.56 -0.78 C-1.48 -1.09, -1.55 -3.41, -3.36 -3.41 C-5.18 -3.41, -9.58 -1.42, -11.45 -0.78 C-13.31 -0.14, -12.47 -0.96, -14.58 0.43 C-16.69 1.81, -22.11 5.32, -24.12 7.52 C-26.14 9.73, -25.56 11.33, -26.68 13.67 C-27.8 16, -30.18 19.42, -30.86 21.54 C-31.54 23.66, -30.38 24.3, -30.75 26.41 C-31.13 28.51, -34.76 30.7, -33.09 34.19 C-31.42 37.68, -23.32 44.01, -20.74 47.35 C-18.16 50.69, -19.49 53.67, -17.62 54.22 C-15.76 54.76, -12.48 51.76, -9.55 50.61 C-6.61 49.47, -3.42 50.63, -0.02 47.37 C3.38 44.1, 8.99 34.59, 10.84 31.03 C12.69 27.47, 10.53 27.8, 11.07 26.01 C11.61 24.21, 13.94 22.35, 14.08 20.26 C14.21 18.16, 12.05 15.88, 11.86 13.43 C11.68 10.98, 14.26 7.73, 12.96 5.56 C11.66 3.4, 6.14 1.27, 4.08 0.43 C2.02 -0.41, 1.54 0.73, 0.61 0.53" stroke="none" stroke-width="0" fill="#e9ecef" fill-rule="evenodd"></path><path fill="#1e1e1e" d="M -1.18,10.64 Q -1.18,10.64 -4.71,10.37 -8.25,10.09 -12.06,13.94 -15.88,17.78 -17.77,22.47 -19.65,27.15 -17.08,32.58 -14.51,38.00 -10.15,36.07 -5.78,34.14 -3.49,27.99 -1.20,21.84 -1.44,17.42 -1.67,13.01 -2.79,12.38 -3.90,11.75 -5.84,10.68 -7.78,9.60 -9.28,7.96 -10.77,6.33 -11.66,4.30 -12.56,2.27 -12.75,0.06 -12.95,-2.14 -12.43,-4.30 -11.92,-6.45 -10.74,-8.33 -9.56,-10.21 -7.84,-11.61 -6.12,-13.02 -4.05,-13.80 -1.97,-14.58 0.23,-14.66 2.45,-14.74 4.57,-14.10 6.70,-13.47 8.51,-12.19 10.32,-10.91 11.63,-9.12 12.94,-7.33 13.61,-5.21 14.27,-3.10 14.23,-0.88 14.19,1.32 13.44,3.41 12.69,5.50 11.32,7.24 9.94,8.98 8.08,10.19 6.22,11.40 4.08,11.95 1.93,12.50 -0.27,12.34 -2.48,12.18 -4.53,11.32 -6.57,10.46 -8.23,8.99 -9.90,7.52 -11.00,5.60 -12.11,3.68 -12.54,1.50 -12.98,-0.66 -12.70,-2.86 -12.42,-5.06 -11.45,-7.05 -10.48,-9.05 -8.92,-10.63 -7.37,-12.21 -5.39,-13.21 -3.41,-14.21 -1.21,-14.53 0.97,-14.84 3.15,-14.44 5.33,-14.04 5.33,-14.04 5.33,-14.04 7.94,-12.99 10.55,-11.94 16.49,-5.21 22.43,1.50 23.76,5.57 25.09,9.63 25.25,16.51 25.40,23.38 24.03,28.91 22.66,34.44 18.74,41.80 14.81,49.16 11.41,52.74 8.00,56.32 0.68,59.37 -6.63,62.42 -11.71,62.72 -16.80,63.01 -21.65,61.31 -26.50,59.62 -30.87,56.06 -35.25,52.51 -38.80,45.98 -42.36,39.45 -42.72,31.22 -43.08,23.00 -40.57,17.30 -38.06,11.60 -35.65,7.09 -33.24,2.58 -29.67,-0.95 -26.10,-4.48 -20.78,-7.45 -15.47,-10.42 -10.85,-11.06 -6.24,-11.70 -2.52,-11.17 1.18,-10.64 2.44,-10.35 3.69,-10.05 4.84,-9.46 5.99,-8.87 6.97,-8.03 7.94,-7.18 8.69,-6.13 9.43,-5.07 9.90,-3.87 10.37,-2.66 10.54,-1.38 10.71,-0.10 10.57,1.17 10.42,2.45 9.98,3.67 9.53,4.88 8.81,5.95 8.09,7.02 7.13,7.89 6.17,8.75 5.03,9.36 3.90,9.97 2.64,10.30 1.39,10.62 0.10,10.63 -1.18,10.64 -1.18,10.64 L -1.18,10.64 Z"></path></g><g transform="translate(874.8100897294566 307.2475194701275) rotate(0 109.49090153103464 71.92831036105713)" stroke="none"><path fill="#1e1e1e" d="M 1.31,-8.73 Q 1.31,-8.73 10.43,-6.89 19.55,-5.04 31.27,-2.72 43.00,-0.39 52.87,1.13 62.74,2.66 69.64,4.01 76.55,5.35 82.78,7.42 89.01,9.49 91.36,15.88 93.71,22.27 91.06,27.92 88.41,33.57 83.62,37.30 78.83,41.03 70.45,46.68 62.07,52.34 54.15,55.38 46.23,58.41 37.08,61.96 27.92,65.51 21.36,68.50 14.79,71.48 11.05,74.32 7.31,77.16 6.30,77.57 5.28,77.97 4.20,78.12 3.12,78.28 2.03,78.16 0.94,78.05 -0.08,77.68 -1.11,77.31 -2.02,76.70 -2.93,76.10 -3.67,75.29 -4.41,74.49 -4.93,73.53 -5.46,72.57 -5.74,71.51 -6.02,70.46 -6.03,69.36 -6.05,68.27 -5.81,67.20 -5.57,66.14 -5.08,65.16 -4.58,64.18 -3.87,63.35 -3.16,62.52 -2.27,61.88 -1.39,61.25 5.16,60.21 11.71,59.16 16.37,58.05 21.04,56.94 30.99,58.20 40.94,59.45 50.54,63.01 60.14,66.57 72.77,72.12 85.40,77.67 100.33,84.79 115.27,91.92 128.58,99.28 141.90,106.63 152.59,113.07 163.27,119.52 169.65,122.94 176.04,126.37 181.84,129.00 187.64,131.63 194.61,132.57 201.58,133.50 208.52,132.32 215.46,131.13 217.07,131.14 218.68,131.15 220.20,131.68 221.72,132.20 223.00,133.18 224.27,134.17 225.17,135.50 226.06,136.84 226.49,138.40 226.91,139.95 226.81,141.56 226.71,143.17 226.11,144.66 225.50,146.15 224.45,147.37 223.40,148.59 222.01,149.41 220.63,150.24 219.05,150.57 217.48,150.91 215.88,150.72 214.28,150.54 212.82,149.85 211.37,149.17 210.20,148.05 209.04,146.94 208.30,145.51 207.55,144.08 207.30,142.49 207.05,140.90 207.32,139.31 207.59,137.73 208.36,136.31 209.12,134.89 210.30,133.79 211.47,132.69 212.94,132.02 214.40,131.36 216.01,131.19 217.61,131.03 219.18,131.39 220.75,131.74 222.12,132.58 223.50,133.42 224.53,134.66 225.57,135.89 226.15,137.39 226.74,138.89 226.82,140.50 226.89,142.11 226.45,143.66 226.01,145.20 225.10,146.53 224.19,147.86 222.90,148.82 221.61,149.79 220.08,150.29 218.55,150.80 218.55,150.80 218.55,150.80 213.41,151.41 208.26,152.02 203.12,151.80 197.97,151.58 193.39,150.40 188.81,149.21 184.24,147.53 179.67,145.85 174.60,141.95 169.54,138.06 163.16,134.40 156.78,130.73 146.11,124.82 135.43,118.90 122.27,112.31 109.10,105.71 94.18,99.49 79.25,93.27 67.02,89.03 54.79,84.78 41.79,81.45 28.79,78.11 24.02,77.99 19.25,77.86 13.28,77.51 7.32,77.16 6.30,77.57 5.28,77.97 4.20,78.12 3.12,78.28 2.03,78.16 0.94,78.05 -0.08,77.68 -1.10,77.31 -2.02,76.71 -2.93,76.10 -3.67,75.29 -4.40,74.49 -4.93,73.53 -5.45,72.57 -5.74,71.51 -6.02,70.46 -6.03,69.36 -6.05,68.27 -5.81,67.20 -5.57,66.14 -5.08,65.16 -4.59,64.18 -3.87,63.35 -3.16,62.52 -2.28,61.89 -1.39,61.25 3.22,59.01 7.84,56.78 14.43,53.54 21.02,50.30 29.84,45.70 38.66,41.10 44.93,37.93 51.20,34.76 55.67,31.96 60.15,29.16 66.81,24.11 73.47,19.07 67.25,17.47 61.03,15.88 50.83,14.82 40.63,13.77 28.92,12.16 17.21,10.56 7.95,9.64 -1.31,8.73 -2.33,8.45 -3.36,8.17 -4.29,7.65 -5.22,7.12 -5.99,6.40 -6.77,5.67 -7.35,4.77 -7.93,3.88 -8.28,2.87 -8.63,1.87 -8.73,0.81 -8.83,-0.24 -8.67,-1.30 -8.51,-2.35 -8.11,-3.34 -7.70,-4.32 -7.07,-5.18 -6.44,-6.04 -5.63,-6.72 -4.81,-7.41 -3.85,-7.87 -2.89,-8.34 -1.85,-8.57 -0.81,-8.79 0.24,-8.76 1.31,-8.73 1.31,-8.73 L 1.31,-8.73 Z"></path></g><g transform="translate(869.0397260692355 318.30140243140625) rotate(0 4.795174380168646 72.72748827932787)" stroke="none"><path fill="#1e1e1e" d="M 7.68,-2.36 Q 7.68,-2.36 9.62,3.59 11.57,9.56 12.12,20.35 12.66,31.14 12.71,43.82 12.76,56.50 12.68,67.36 12.60,78.23 12.51,87.44 12.41,96.66 12.53,104.25 12.65,111.84 12.98,117.83 13.32,123.81 13.65,129.10 13.98,134.39 15.12,138.68 16.25,142.96 17.22,146.26 18.18,149.56 18.22,150.64 18.25,151.71 18.02,152.77 17.79,153.82 17.32,154.79 16.85,155.76 16.16,156.59 15.46,157.42 14.60,158.05 13.73,158.69 12.73,159.10 11.73,159.52 10.67,159.68 9.60,159.84 8.53,159.74 7.45,159.64 6.43,159.29 5.41,158.94 4.51,158.35 3.61,157.76 2.87,156.98 2.13,156.19 1.60,155.25 1.07,154.31 0.78,153.27 0.49,152.23 0.59,149.82 0.69,147.41 0.97,146.00 1.24,144.59 1.95,143.34 2.66,142.09 3.73,141.14 4.81,140.18 6.13,139.62 7.45,139.05 8.88,138.94 10.31,138.83 11.71,139.18 13.10,139.53 14.31,140.31 15.52,141.08 16.41,142.21 17.31,143.33 17.80,144.68 18.29,146.03 18.33,147.47 18.36,148.90 17.94,150.27 17.51,151.65 16.67,152.81 15.83,153.97 14.66,154.81 13.49,155.64 12.11,156.06 10.74,156.48 9.30,156.43 7.87,156.39 6.52,155.89 5.17,155.39 4.05,154.49 2.94,153.58 2.17,152.37 1.40,151.16 1.06,149.76 0.71,148.37 0.83,146.94 0.96,145.51 1.53,144.19 2.10,142.87 3.06,141.80 4.03,140.74 5.28,140.03 6.53,139.33 7.94,139.06 9.35,138.80 10.78,139.00 12.20,139.20 13.49,139.84 14.77,140.48 15.78,141.50 16.80,142.52 17.43,143.81 18.06,145.10 18.25,146.52 18.44,147.95 18.44,147.94 18.44,147.94 18.31,148.75 18.18,149.56 18.22,150.64 18.25,151.71 18.02,152.77 17.79,153.82 17.32,154.79 16.85,155.76 16.16,156.59 15.47,157.42 14.60,158.05 13.73,158.69 12.73,159.10 11.73,159.52 10.67,159.68 9.60,159.84 8.53,159.74 7.45,159.64 6.43,159.29 5.42,158.94 4.51,158.35 3.61,157.76 2.87,156.98 2.13,156.19 1.60,155.25 1.07,154.31 0.78,153.27 0.49,152.23 0.34,149.07 0.19,145.92 -0.50,140.18 -1.20,134.45 -0.88,129.14 -0.56,123.84 -0.25,117.86 0.06,111.88 0.12,104.31 0.19,96.74 -0.02,87.57 -0.24,78.39 -0.59,67.63 -0.95,56.86 -1.57,44.59 -2.19,32.31 -3.20,23.32 -4.21,14.33 -5.95,8.34 -7.68,2.36 -7.85,1.41 -8.02,0.45 -7.96,-0.51 -7.90,-1.47 -7.60,-2.40 -7.31,-3.32 -6.81,-4.15 -6.30,-4.98 -5.62,-5.66 -4.93,-6.34 -4.10,-6.84 -3.27,-7.34 -2.34,-7.62 -1.42,-7.91 -0.45,-7.96 0.51,-8.02 1.46,-7.84 2.41,-7.66 3.30,-7.26 4.18,-6.86 4.94,-6.26 5.70,-5.66 6.29,-4.89 6.89,-4.13 7.28,-3.24 7.68,-2.36 7.68,-2.36 L 7.68,-2.36 Z"></path></g></svg>