<?xml version="1.0" encoding="UTF-8" standalone="no"?>
<!DOCTYPE svg PUBLIC "-//W3C//DTD SVG 1.1//EN"
 "http://www.w3.org/Graphics/SVG/1.1/DTD/svg11.dtd">
<!-- Generated by graphviz version 2.43.0 (0)
 -->
<!-- Title: binary_find_insert_place Pages: 1 -->
<svg width="634pt" height="69pt"
 viewBox="0.00 0.00 634.00 68.50" xmlns="http://www.w3.org/2000/svg" xmlns:xlink="http://www.w3.org/1999/xlink">
<g id="graph0" class="graph" transform="scale(1 1) rotate(0) translate(4 64.5)">
<title>binary_find_insert_place</title>
<!-- Node1 -->
<g id="Node000001" class="node">
<title>Node1</title>
<g id="a_Node000001"><a xlink:title=" ">
<polygon fill="#999999" stroke="#666666" points="104,-42.5 0,-42.5 0,-12.5 104,-12.5 104,-42.5"/>
<text text-anchor="start" x="8" y="-30.5" font-family="Mononoki" font-size="10.00">binary_find_insert</text>
<text text-anchor="middle" x="52" y="-19.5" font-family="Mononoki" font-size="10.00">_place</text>
</a>
</g>
</g>
<!-- Node1&#45;&gt;Node1 -->
<g id="edge1_Node000001_Node000001" class="edge">
<title>Node1&#45;&gt;Node1</title>
<g id="a_edge1_Node000001_Node000001"><a xlink:title=" ">
<path fill="none" stroke="#63b8ff" d="M30.55,-42.78C25.79,-51.91 32.94,-60.5 52,-60.5 63.32,-60.5 70.44,-57.47 73.35,-53.1"/>
<polygon fill="#63b8ff" stroke="#63b8ff" points="76.86,-52.81 73.45,-42.78 69.86,-52.74 76.86,-52.81"/>
</a>
</g>
</g>
<!-- Node2 -->
<g id="Node000002" class="node">
<title>Node2</title>
<g id="a_Node000002"><a xlink:href="group__Elements.html#ga93c32dd116523090126d427cce08e114" target="_top" xlink:title="Returns pointer for the element at index.">
<polygon fill="white" stroke="#666666" points="209,-37 140,-37 140,-18 209,-18 209,-37"/>
<text text-anchor="middle" x="174.5" y="-25" font-family="Mononoki" font-size="10.00">dynarr_get</text>
</a>
</g>
</g>
<!-- Node1&#45;&gt;Node2 -->
<g id="edge2_Node000001_Node000002" class="edge">
<title>Node1&#45;&gt;Node2</title>
<g id="a_edge2_Node000001_Node000002"><a xlink:title=" ">
<path fill="none" stroke="#63b8ff" d="M104.1,-27.5C112.58,-27.5 121.31,-27.5 129.59,-27.5"/>
<polygon fill="#63b8ff" stroke="#63b8ff" points="129.79,-31 139.79,-27.5 129.79,-24 129.79,-31"/>
</a>
</g>
</g>
<!-- Node3 -->
<g id="Node000003" class="node">
<title>Node3</title>
<g id="a_Node000003"><a xlink:href="group__Properties.html#gaf5c43e2644d185b9b01065af34ed6e29" target="_top" xlink:title="Access size property of a dynarr.">
<polygon fill="white" stroke="#666666" points="318,-56 245,-56 245,-37 318,-37 318,-56"/>
<text text-anchor="middle" x="281.5" y="-44" font-family="Mononoki" font-size="10.00">dynarr_size</text>
</a>
</g>
</g>
<!-- Node2&#45;&gt;Node3 -->
<g id="edge3_Node000002_Node000003" class="edge">
<title>Node2&#45;&gt;Node3</title>
<g id="a_edge3_Node000002_Node000003"><a xlink:title=" ">
<path fill="none" stroke="#63b8ff" d="M209.01,-33.56C217.21,-35.05 226.12,-36.66 234.78,-38.23"/>
<polygon fill="#63b8ff" stroke="#63b8ff" points="234.31,-41.7 244.77,-40.03 235.55,-34.81 234.31,-41.7"/>
</a>
</g>
</g>
<!-- Node6 -->
<g id="Node000006" class="node">
<title>Node6</title>
<g id="a_Node000006"><a target="_parent" xlink:href="https://evjeesm.github.io/vector/group__Elements.html#ga9437d9506a3b2799f595c88b82f160b3" xlink:title=" ">
<polygon fill="white" stroke="#666666" points="315.5,-19 247.5,-19 247.5,0 315.5,0 315.5,-19"/>
<text text-anchor="middle" x="281.5" y="-7" font-family="Mononoki" font-size="10.00">vector_get</text>
</a>
</g>
</g>
<!-- Node2&#45;&gt;Node6 -->
<g id="edge6_Node000002_Node000006" class="edge">
<title>Node2&#45;&gt;Node6</title>
<g id="a_edge6_Node000002_Node000006"><a xlink:title=" ">
<path fill="none" stroke="#63b8ff" d="M209.01,-21.76C218,-20.21 227.85,-18.53 237.29,-16.91"/>
<polygon fill="#63b8ff" stroke="#63b8ff" points="238.04,-20.33 247.31,-15.19 236.86,-13.43 238.04,-20.33"/>
</a>
</g>
</g>
<!-- Node4 -->
<g id="Node000004" class="node">
<title>Node4</title>
<g id="a_Node000004"><a xlink:href="dynarr_8c.html#a73f42f3f25cd0920d8039d63ea31be07" target="_top" xlink:title=" ">
<polygon fill="white" stroke="#666666" points="462,-56 354,-56 354,-37 462,-37 462,-56"/>
<text text-anchor="middle" x="408" y="-44" font-family="Mononoki" font-size="10.00">get_dynarr_header</text>
</a>
</g>
</g>
<!-- Node3&#45;&gt;Node4 -->
<g id="edge4_Node000003_Node000004" class="edge">
<title>Node3&#45;&gt;Node4</title>
<g id="a_edge4_Node000003_Node000004"><a xlink:title=" ">
<path fill="none" stroke="#63b8ff" d="M318.18,-46.5C326.13,-46.5 334.8,-46.5 343.49,-46.5"/>
<polygon fill="#63b8ff" stroke="#63b8ff" points="343.68,-50 353.68,-46.5 343.68,-43 343.68,-50"/>
</a>
</g>
</g>
<!-- Node5 -->
<g id="Node000005" class="node">
<title>Node5</title>
<g id="a_Node000005"><a target="_parent" xlink:href="https://evjeesm.github.io/vector/group__Extension.html#gafc2e34dbacffe6480af8681fbf46e808" xlink:title=" ">
<polygon fill="white" stroke="#666666" points="626,-56 498,-56 498,-37 626,-37 626,-56"/>
<text text-anchor="middle" x="562" y="-44" font-family="Mononoki" font-size="10.00">vector_get_ext_header</text>
</a>
</g>
</g>
<!-- Node4&#45;&gt;Node5 -->
<g id="edge5_Node000004_Node000005" class="edge">
<title>Node4&#45;&gt;Node5</title>
<g id="a_edge5_Node000004_Node000005"><a xlink:title=" ">
<path fill="none" stroke="#63b8ff" d="M462.16,-46.5C470.47,-46.5 479.18,-46.5 487.84,-46.5"/>
<polygon fill="#63b8ff" stroke="#63b8ff" points="487.95,-50 497.95,-46.5 487.95,-43 487.95,-50"/>
</a>
</g>
</g>
</g>
</svg>
