<?xml version="1.0" encoding="UTF-8" standalone="no"?>
<!DOCTYPE svg PUBLIC "-//W3C//DTD SVG 1.1//EN"
 "http://www.w3.org/Graphics/SVG/1.1/DTD/svg11.dtd">
<!-- Generated by graphviz version 2.43.0 (0)
 -->
<!-- Title: src/dynarr.c Pages: 1 -->
<svg width="632pt" height="137pt"
 viewBox="0.00 0.00 631.50 137.00" xmlns="http://www.w3.org/2000/svg" xmlns:xlink="http://www.w3.org/1999/xlink">
<g id="graph0" class="graph" transform="scale(1 1) rotate(0) translate(4 133)">
<title>src/dynarr.c</title>
<!-- Node1 -->
<g id="Node000001" class="node">
<title>Node1</title>
<g id="a_Node000001"><a xlink:title="Contains implementation of the dynarr.">
<polygon fill="#999999" stroke="#666666" points="424.5,-129 351.5,-129 351.5,-110 424.5,-110 424.5,-129"/>
<text text-anchor="middle" x="388" y="-117" font-family="Mononoki" font-size="10.00">src/dynarr.c</text>
</a>
</g>
</g>
<!-- Node2 -->
<g id="Node000002" class="node">
<title>Node2</title>
<g id="a_Node000002"><a xlink:href="dynarr_8h.html" target="_top" xlink:title="Describes dynarr public interface.">
<polygon fill="white" stroke="#666666" points="218,-74 162,-74 162,-55 218,-55 218,-74"/>
<text text-anchor="middle" x="190" y="-62" font-family="Mononoki" font-size="10.00">dynarr.h</text>
</a>
</g>
</g>
<!-- Node1&#45;&gt;Node2 -->
<g id="edge1_Node000001_Node000002" class="edge">
<title>Node1&#45;&gt;Node2</title>
<g id="a_edge1_Node000001_Node000002"><a xlink:title=" ">
<path fill="none" stroke="#63b8ff" d="M356.19,-109.98C321.32,-100.65 265.38,-85.68 228.17,-75.72"/>
<polygon fill="#63b8ff" stroke="#63b8ff" points="228.77,-72.25 218.21,-73.05 226.96,-79.02 228.77,-72.25"/>
</a>
</g>
</g>
<!-- Node6 -->
<g id="Node000006" class="node">
<title>Node6</title>
<g id="a_Node000006"><a xlink:title=" ">
<polygon fill="#e0e0e0" stroke="#999999" points="300,-19 244,-19 244,0 300,0 300,-19"/>
<text text-anchor="middle" x="272" y="-7" font-family="Mononoki" font-size="10.00">vector.h</text>
</a>
</g>
</g>
<!-- Node1&#45;&gt;Node6 -->
<g id="edge6_Node000001_Node000006" class="edge">
<title>Node1&#45;&gt;Node6</title>
<g id="a_edge6_Node000001_Node000006"><a xlink:title=" ">
<path fill="none" stroke="#63b8ff" d="M351.33,-113.62C326.51,-108.27 295.23,-97.13 278,-74 268.59,-61.37 267.79,-43.18 268.93,-29.51"/>
<polygon fill="#63b8ff" stroke="#63b8ff" points="272.43,-29.65 270.2,-19.3 265.49,-28.79 272.43,-29.65"/>
</a>
</g>
</g>
<!-- Node7 -->
<g id="Node000007" class="node">
<title>Node7</title>
<g id="a_Node000007"><a xlink:title=" ">
<polygon fill="#e0e0e0" stroke="#999999" points="343,-74 287,-74 287,-55 343,-55 343,-74"/>
<text text-anchor="middle" x="315" y="-62" font-family="Mononoki" font-size="10.00">assert.h</text>
</a>
</g>
</g>
<!-- Node1&#45;&gt;Node7 -->
<g id="edge7_Node000001_Node000007" class="edge">
<title>Node1&#45;&gt;Node7</title>
<g id="a_edge7_Node000001_Node000007"><a xlink:title=" ">
<path fill="none" stroke="#63b8ff" d="M376.27,-109.98C365.27,-102 348.58,-89.88 335.4,-80.31"/>
<polygon fill="#63b8ff" stroke="#63b8ff" points="337.09,-77.21 326.94,-74.17 332.98,-82.88 337.09,-77.21"/>
</a>
</g>
</g>
<!-- Node8 -->
<g id="Node000008" class="node">
<title>Node8</title>
<g id="a_Node000008"><a xlink:title=" ">
<polygon fill="#e0e0e0" stroke="#999999" points="414.5,-74 361.5,-74 361.5,-55 414.5,-55 414.5,-74"/>
<text text-anchor="middle" x="388" y="-62" font-family="Mononoki" font-size="10.00">string.h</text>
</a>
</g>
</g>
<!-- Node1&#45;&gt;Node8 -->
<g id="edge8_Node000001_Node000008" class="edge">
<title>Node1&#45;&gt;Node8</title>
<g id="a_edge8_Node000001_Node000008"><a xlink:title=" ">
<path fill="none" stroke="#63b8ff" d="M388,-109.75C388,-102.8 388,-92.85 388,-84.13"/>
<polygon fill="#63b8ff" stroke="#63b8ff" points="391.5,-84.09 388,-74.09 384.5,-84.09 391.5,-84.09"/>
</a>
</g>
</g>
<!-- Node9 -->
<g id="Node000009" class="node">
<title>Node9</title>
<g id="a_Node000009"><a xlink:title=" ">
<polygon fill="#e0e0e0" stroke="#999999" points="483.5,-74 432.5,-74 432.5,-55 483.5,-55 483.5,-74"/>
<text text-anchor="middle" x="458" y="-62" font-family="Mononoki" font-size="10.00">math.h</text>
</a>
</g>
</g>
<!-- Node1&#45;&gt;Node9 -->
<g id="edge9_Node000001_Node000009" class="edge">
<title>Node1&#45;&gt;Node9</title>
<g id="a_edge9_Node000001_Node000009"><a xlink:title=" ">
<path fill="none" stroke="#63b8ff" d="M399.25,-109.98C409.8,-102 425.8,-89.88 438.44,-80.31"/>
<polygon fill="#63b8ff" stroke="#63b8ff" points="440.69,-83 446.55,-74.17 436.46,-77.42 440.69,-83"/>
</a>
</g>
</g>
<!-- Node10 -->
<g id="Node000010" class="node">
<title>Node10</title>
<g id="a_Node000010"><a xlink:title=" ">
<polygon fill="#e0e0e0" stroke="#999999" points="552,-74 502,-74 502,-55 552,-55 552,-74"/>
<text text-anchor="middle" x="527" y="-62" font-family="Mononoki" font-size="10.00">stdio.h</text>
</a>
</g>
</g>
<!-- Node1&#45;&gt;Node10 -->
<g id="edge10_Node000001_Node000010" class="edge">
<title>Node1&#45;&gt;Node10</title>
<g id="a_edge10_Node000001_Node000010"><a xlink:title=" ">
<path fill="none" stroke="#63b8ff" d="M410.33,-109.98C433.2,-101.27 468.96,-87.63 494.86,-77.75"/>
<polygon fill="#63b8ff" stroke="#63b8ff" points="496.16,-81 504.26,-74.17 493.67,-74.46 496.16,-81"/>
</a>
</g>
</g>
<!-- Node11 -->
<g id="Node000011" class="node">
<title>Node11</title>
<g id="a_Node000011"><a xlink:title=" ">
<polygon fill="#e0e0e0" stroke="#999999" points="623.5,-74 570.5,-74 570.5,-55 623.5,-55 623.5,-74"/>
<text text-anchor="middle" x="597" y="-62" font-family="Mononoki" font-size="10.00">stdlib.h</text>
</a>
</g>
</g>
<!-- Node1&#45;&gt;Node11 -->
<g id="edge11_Node000001_Node000011" class="edge">
<title>Node1&#45;&gt;Node11</title>
<g id="a_edge11_Node000001_Node000011"><a xlink:title=" ">
<path fill="none" stroke="#63b8ff" d="M421.58,-109.98C459.61,-100.34 521.36,-84.68 560.54,-74.75"/>
<polygon fill="#63b8ff" stroke="#63b8ff" points="561.63,-78.08 570.47,-72.23 559.91,-71.29 561.63,-78.08"/>
</a>
</g>
</g>
<!-- Node3 -->
<g id="Node000003" class="node">
<title>Node3</title>
<g id="a_Node000003"><a xlink:title=" ">
<polygon fill="#e0e0e0" stroke="#999999" points="62,-19 0,-19 0,0 62,0 62,-19"/>
<text text-anchor="middle" x="31" y="-7" font-family="Mononoki" font-size="10.00">stdbool.h</text>
</a>
</g>
</g>
<!-- Node2&#45;&gt;Node3 -->
<g id="edge2_Node000002_Node000003" class="edge">
<title>Node2&#45;&gt;Node3</title>
<g id="a_edge2_Node000002_Node000003"><a xlink:title=" ">
<path fill="none" stroke="#63b8ff" d="M164.45,-54.98C137.88,-46.13 96.06,-32.19 66.33,-22.28"/>
<polygon fill="#63b8ff" stroke="#63b8ff" points="67.34,-18.92 56.75,-19.08 65.13,-25.56 67.34,-18.92"/>
</a>
</g>
</g>
<!-- Node4 -->
<g id="Node000004" class="node">
<title>Node4</title>
<g id="a_Node000004"><a xlink:title=" ">
<polygon fill="#e0e0e0" stroke="#999999" points="136,-19 80,-19 80,0 136,0 136,-19"/>
<text text-anchor="middle" x="108" y="-7" font-family="Mononoki" font-size="10.00">stddef.h</text>
</a>
</g>
</g>
<!-- Node2&#45;&gt;Node4 -->
<g id="edge3_Node000002_Node000004" class="edge">
<title>Node2&#45;&gt;Node4</title>
<g id="a_edge3_Node000002_Node000004"><a xlink:title=" ">
<path fill="none" stroke="#63b8ff" d="M176.83,-54.98C164.23,-46.84 145,-34.41 130.06,-24.76"/>
<polygon fill="#63b8ff" stroke="#63b8ff" points="131.71,-21.66 121.41,-19.17 127.91,-27.54 131.71,-21.66"/>
</a>
</g>
</g>
<!-- Node5 -->
<g id="Node000005" class="node">
<title>Node5</title>
<g id="a_Node000005"><a xlink:title=" ">
<polygon fill="#e0e0e0" stroke="#999999" points="226,-19 154,-19 154,0 226,0 226,-19"/>
<text text-anchor="middle" x="190" y="-7" font-family="Mononoki" font-size="10.00">sys/types.h</text>
</a>
</g>
</g>
<!-- Node2&#45;&gt;Node5 -->
<g id="edge4_Node000002_Node000005" class="edge">
<title>Node2&#45;&gt;Node5</title>
<g id="a_edge4_Node000002_Node000005"><a xlink:title=" ">
<path fill="none" stroke="#63b8ff" d="M190,-54.75C190,-47.8 190,-37.85 190,-29.13"/>
<polygon fill="#63b8ff" stroke="#63b8ff" points="193.5,-29.09 190,-19.09 186.5,-29.09 193.5,-29.09"/>
</a>
</g>
</g>
<!-- Node2&#45;&gt;Node6 -->
<g id="edge5_Node000002_Node000006" class="edge">
<title>Node2&#45;&gt;Node6</title>
<g id="a_edge5_Node000002_Node000006"><a xlink:title=" ">
<path fill="none" stroke="#63b8ff" d="M203.17,-54.98C215.77,-46.84 235,-34.41 249.94,-24.76"/>
<polygon fill="#63b8ff" stroke="#63b8ff" points="252.09,-27.54 258.59,-19.17 248.29,-21.66 252.09,-27.54"/>
</a>
</g>
</g>
</g>
</svg>
