<?xml version="1.0" encoding="UTF-8" standalone="no"?>
<!DOCTYPE svg PUBLIC "-//W3C//DTD SVG 1.1//EN"
 "http://www.w3.org/Graphics/SVG/1.1/DTD/svg11.dtd">
<!-- Generated by graphviz version 2.43.0 (0)
 -->
<!-- Title: src/dynarr.h Pages: 1 -->
<svg width="308pt" height="82pt"
 viewBox="0.00 0.00 308.00 82.00" xmlns="http://www.w3.org/2000/svg" xmlns:xlink="http://www.w3.org/1999/xlink">
<g id="graph0" class="graph" transform="scale(1 1) rotate(0) translate(4 78)">
<title>src/dynarr.h</title>
<!-- Node1 -->
<g id="Node000001" class="node">
<title>Node1</title>
<g id="a_Node000001"><a xlink:title="Describes dynarr public interface.">
<polygon fill="#999999" stroke="#666666" points="186,-74 112,-74 112,-55 186,-55 186,-74"/>
<text text-anchor="middle" x="149" y="-62" font-family="Mononoki" font-size="10.00">src/dynarr.h</text>
</a>
</g>
</g>
<!-- Node2 -->
<g id="Node000002" class="node">
<title>Node2</title>
<g id="a_Node000002"><a xlink:title=" ">
<polygon fill="#e0e0e0" stroke="#999999" points="62,-19 0,-19 0,0 62,0 62,-19"/>
<text text-anchor="middle" x="31" y="-7" font-family="Mononoki" font-size="10.00">stdbool.h</text>
</a>
</g>
</g>
<!-- Node1&#45;&gt;Node2 -->
<g id="edge1_Node000001_Node000002" class="edge">
<title>Node1&#45;&gt;Node2</title>
<g id="a_edge1_Node000001_Node000002"><a xlink:title=" ">
<path fill="none" stroke="#63b8ff" d="M130.04,-54.98C110.97,-46.42 81.34,-33.11 59.45,-23.28"/>
<polygon fill="#63b8ff" stroke="#63b8ff" points="60.86,-20.07 50.3,-19.17 57.99,-26.46 60.86,-20.07"/>
</a>
</g>
</g>
<!-- Node3 -->
<g id="Node000003" class="node">
<title>Node3</title>
<g id="a_Node000003"><a xlink:title=" ">
<polygon fill="#e0e0e0" stroke="#999999" points="136,-19 80,-19 80,0 136,0 136,-19"/>
<text text-anchor="middle" x="108" y="-7" font-family="Mononoki" font-size="10.00">stddef.h</text>
</a>
</g>
</g>
<!-- Node1&#45;&gt;Node3 -->
<g id="edge2_Node000001_Node000003" class="edge">
<title>Node1&#45;&gt;Node3</title>
<g id="a_edge2_Node000001_Node000003"><a xlink:title=" ">
<path fill="none" stroke="#63b8ff" d="M142.23,-54.75C136.44,-47.26 127.94,-36.28 120.86,-27.13"/>
<polygon fill="#63b8ff" stroke="#63b8ff" points="123.53,-24.86 114.64,-19.09 117.99,-29.14 123.53,-24.86"/>
</a>
</g>
</g>
<!-- Node4 -->
<g id="Node000004" class="node">
<title>Node4</title>
<g id="a_Node000004"><a xlink:title=" ">
<polygon fill="#e0e0e0" stroke="#999999" points="226,-19 154,-19 154,0 226,0 226,-19"/>
<text text-anchor="middle" x="190" y="-7" font-family="Mononoki" font-size="10.00">sys/types.h</text>
</a>
</g>
</g>
<!-- Node1&#45;&gt;Node4 -->
<g id="edge3_Node000001_Node000004" class="edge">
<title>Node1&#45;&gt;Node4</title>
<g id="a_edge3_Node000001_Node000004"><a xlink:title=" ">
<path fill="none" stroke="#63b8ff" d="M155.77,-54.75C161.56,-47.26 170.06,-36.28 177.14,-27.13"/>
<polygon fill="#63b8ff" stroke="#63b8ff" points="180.01,-29.14 183.36,-19.09 174.47,-24.86 180.01,-29.14"/>
</a>
</g>
</g>
<!-- Node5 -->
<g id="Node000005" class="node">
<title>Node5</title>
<g id="a_Node000005"><a xlink:title=" ">
<polygon fill="#e0e0e0" stroke="#999999" points="300,-19 244,-19 244,0 300,0 300,-19"/>
<text text-anchor="middle" x="272" y="-7" font-family="Mononoki" font-size="10.00">vector.h</text>
</a>
</g>
</g>
<!-- Node1&#45;&gt;Node5 -->
<g id="edge4_Node000001_Node000005" class="edge">
<title>Node1&#45;&gt;Node5</title>
<g id="a_edge4_Node000001_Node000005"><a xlink:title=" ">
<path fill="none" stroke="#63b8ff" d="M168.76,-54.98C188.73,-46.38 219.8,-32.99 242.65,-23.15"/>
<polygon fill="#63b8ff" stroke="#63b8ff" points="244.08,-26.34 251.88,-19.17 241.31,-19.91 244.08,-26.34"/>
</a>
</g>
</g>
</g>
</svg>
