<?xml version="1.0" encoding="UTF-8" standalone="no"?>
<!DOCTYPE svg PUBLIC "-//W3C//DTD SVG 1.1//EN"
 "http://www.w3.org/Graphics/SVG/1.1/DTD/svg11.dtd">
<!-- Generated by graphviz version 2.43.0 (0)
 -->
<!-- Title: get_opts Pages: 1 -->
<svg width="539pt" height="140pt"
 viewBox="0.00 0.00 539.00 140.00" xmlns="http://www.w3.org/2000/svg" xmlns:xlink="http://www.w3.org/1999/xlink">
<g id="graph0" class="graph" transform="scale(1 1) rotate(0) translate(4 136)">
<title>get_opts</title>
<!-- Node1 -->
<g id="Node000001" class="node">
<title>Node1</title>
<g id="a_Node000001"><a xlink:title=" ">
<polygon fill="#999999" stroke="#666666" points="59,-75 0,-75 0,-56 59,-56 59,-75"/>
<text text-anchor="middle" x="29.5" y="-63" font-family="Mononoki" font-size="10.00">get_opts</text>
</a>
</g>
</g>
<!-- Node2 -->
<g id="Node000002" class="node">
<title>Node2</title>
<g id="a_Node000002"><a xlink:href="group__Dynarr__API.html#ga745bff084f68eec950fa9ea0b42fb4e7" target="_top" xlink:title=" ">
<polygon fill="white" stroke="#666666" points="223,-132 95,-132 95,-113 223,-113 223,-132"/>
<text text-anchor="middle" x="159" y="-120" font-family="Mononoki" font-size="10.00">dynarr_initial_capacity</text>
</a>
</g>
</g>
<!-- Node1&#45;&gt;Node2 -->
<g id="edge1_Node000001_Node000002" class="edge">
<title>Node1&#45;&gt;Node2</title>
<g id="a_edge1_Node000001_Node000002"><a xlink:title=" ">
<path fill="none" stroke="#63b8ff" d="M48.04,-75.13C60.87,-82.01 78.79,-91.29 95,-98.5 103.47,-102.27 112.73,-106 121.48,-109.36"/>
<polygon fill="#63b8ff" stroke="#63b8ff" points="120.48,-112.72 131.07,-112.98 122.95,-106.17 120.48,-112.72"/>
</a>
</g>
</g>
<!-- Node3 -->
<g id="Node000003" class="node">
<title>Node3</title>
<g id="a_Node000003"><a xlink:href="dynarr_8c.html#a73f42f3f25cd0920d8039d63ea31be07" target="_top" xlink:title=" ">
<polygon fill="white" stroke="#666666" points="367,-113 259,-113 259,-94 367,-94 367,-113"/>
<text text-anchor="middle" x="313" y="-101" font-family="Mononoki" font-size="10.00">get_dynarr_header</text>
</a>
</g>
</g>
<!-- Node1&#45;&gt;Node3 -->
<g id="edge4_Node000001_Node000003" class="edge">
<title>Node1&#45;&gt;Node3</title>
<g id="a_edge4_Node000001_Node000003"><a xlink:title=" ">
<path fill="none" stroke="#63b8ff" d="M59.04,-69.35C103.31,-75.33 189.59,-86.98 248.97,-94.99"/>
<polygon fill="#63b8ff" stroke="#63b8ff" points="248.62,-98.48 259,-96.34 249.55,-91.54 248.62,-98.48"/>
</a>
</g>
</g>
<!-- Node5 -->
<g id="Node000005" class="node">
<title>Node5</title>
<g id="a_Node000005"><a target="_parent" xlink:href="https://evjeesm.github.io/vector/group__Vector__API.html#ga435ecb8dca435624d8d277feb6b2cc80" xlink:title=" ">
<polygon fill="white" stroke="#666666" points="212.5,-56 105.5,-56 105.5,-37 212.5,-37 212.5,-56"/>
<text text-anchor="middle" x="159" y="-44" font-family="Mononoki" font-size="10.00">vector_data_offset</text>
</a>
</g>
</g>
<!-- Node1&#45;&gt;Node5 -->
<g id="edge5_Node000001_Node000005" class="edge">
<title>Node1&#45;&gt;Node5</title>
<g id="a_edge5_Node000001_Node000005"><a xlink:title=" ">
<path fill="none" stroke="#63b8ff" d="M59.11,-61.24C69.89,-59.63 82.61,-57.73 95.28,-55.85"/>
<polygon fill="#63b8ff" stroke="#63b8ff" points="96.02,-59.28 105.39,-54.34 94.99,-52.35 96.02,-59.28"/>
</a>
</g>
</g>
<!-- Node6 -->
<g id="Node000006" class="node">
<title>Node6</title>
<g id="a_Node000006"><a target="_parent" xlink:href="https://evjeesm.github.io/vector/group__Vector__API.html#gaae93d7f0c056c1d11d3232a7a7aa5e09" xlink:title=" ">
<polygon fill="white" stroke="#666666" points="218,-19 100,-19 100,0 218,0 218,-19"/>
<text text-anchor="middle" x="159" y="-7" font-family="Mononoki" font-size="10.00">vector_element_size</text>
</a>
</g>
</g>
<!-- Node1&#45;&gt;Node6 -->
<g id="edge6_Node000001_Node000006" class="edge">
<title>Node1&#45;&gt;Node6</title>
<g id="a_edge6_Node000001_Node000006"><a xlink:title=" ">
<path fill="none" stroke="#63b8ff" d="M44.86,-55.99C57.62,-47.85 76.98,-36.27 95,-28.5 100.31,-26.21 105.98,-24.09 111.67,-22.15"/>
<polygon fill="#63b8ff" stroke="#63b8ff" points="112.75,-25.48 121.18,-19.07 110.59,-18.82 112.75,-25.48"/>
</a>
</g>
</g>
<!-- Node2&#45;&gt;Node3 -->
<g id="edge2_Node000002_Node000003" class="edge">
<title>Node2&#45;&gt;Node3</title>
<g id="a_edge2_Node000002_Node000003"><a xlink:title=" ">
<path fill="none" stroke="#63b8ff" d="M223.14,-114.61C231.61,-113.55 240.29,-112.46 248.76,-111.4"/>
<polygon fill="#63b8ff" stroke="#63b8ff" points="249.46,-114.84 258.95,-110.13 248.6,-107.9 249.46,-114.84"/>
</a>
</g>
</g>
<!-- Node4 -->
<g id="Node000004" class="node">
<title>Node4</title>
<g id="a_Node000004"><a target="_parent" xlink:href="https://evjeesm.github.io/vector/group__Vector__API.html#gafc2e34dbacffe6480af8681fbf46e808" xlink:title=" ">
<polygon fill="white" stroke="#666666" points="531,-113 403,-113 403,-94 531,-94 531,-113"/>
<text text-anchor="middle" x="467" y="-101" font-family="Mononoki" font-size="10.00">vector_get_ext_header</text>
</a>
</g>
</g>
<!-- Node3&#45;&gt;Node4 -->
<g id="edge3_Node000003_Node000004" class="edge">
<title>Node3&#45;&gt;Node4</title>
<g id="a_edge3_Node000003_Node000004"><a xlink:title=" ">
<path fill="none" stroke="#63b8ff" d="M367.16,-103.5C375.47,-103.5 384.18,-103.5 392.84,-103.5"/>
<polygon fill="#63b8ff" stroke="#63b8ff" points="392.95,-107 402.95,-103.5 392.95,-100 392.95,-107"/>
</a>
</g>
</g>
</g>
</svg>
