<?xml version="1.0" encoding="UTF-8" standalone="no"?>
<!DOCTYPE svg PUBLIC "-//W3C//DTD SVG 1.1//EN"
 "http://www.w3.org/Graphics/SVG/1.1/DTD/svg11.dtd">
<!-- Generated by graphviz version 2.43.0 (0)
 -->
<!-- Title: get_opts Pages: 1 -->
<svg width="375pt" height="46pt"
 viewBox="0.00 0.00 375.00 46.00" xmlns="http://www.w3.org/2000/svg" xmlns:xlink="http://www.w3.org/1999/xlink">
<g id="graph0" class="graph" transform="scale(1 1) rotate(0) translate(4 42)">
<title>get_opts</title>
<!-- Node1 -->
<g id="Node000001" class="node">
<title>Node1</title>
<g id="a_Node000001"><a xlink:title=" ">
<polygon fill="#999999" stroke="#666666" points="59,-19 0,-19 0,0 59,0 59,-19"/>
<text text-anchor="middle" x="29.5" y="-7" font-family="Mononoki" font-size="10.00">get_opts</text>
</a>
</g>
</g>
<!-- Node2 -->
<g id="Node000002" class="node">
<title>Node2</title>
<g id="a_Node000002"><a xlink:href="group__Dynarr__API.html#ga745bff084f68eec950fa9ea0b42fb4e7" target="_top" xlink:title=" ">
<polygon fill="white" stroke="#666666" points="223,-38 95,-38 95,-19 223,-19 223,-38"/>
<text text-anchor="middle" x="159" y="-26" font-family="Mononoki" font-size="10.00">dynarr_initial_capacity</text>
</a>
</g>
</g>
<!-- Node1&#45;&gt;Node2 -->
<g id="edge1_Node000001_Node000002" class="edge">
<title>Node1&#45;&gt;Node2</title>
<g id="a_edge1_Node000001_Node000002"><a xlink:title=" ">
<path fill="none" stroke="#63b8ff" d="M59.11,-13.76C66.93,-14.93 75.78,-16.25 84.88,-17.6"/>
<polygon fill="#63b8ff" stroke="#63b8ff" points="84.42,-21.07 94.82,-19.09 85.45,-14.15 84.42,-21.07"/>
</a>
</g>
</g>
<!-- Node3 -->
<g id="Node000003" class="node">
<title>Node3</title>
<g id="a_Node000003"><a xlink:href="dynarr_8c.html#a73f42f3f25cd0920d8039d63ea31be07" target="_top" xlink:title=" ">
<polygon fill="white" stroke="#666666" points="367,-19 259,-19 259,0 367,0 367,-19"/>
<text text-anchor="middle" x="313" y="-7" font-family="Mononoki" font-size="10.00">get_dynarr_header</text>
</a>
</g>
</g>
<!-- Node1&#45;&gt;Node3 -->
<g id="edge3_Node000001_Node000003" class="edge">
<title>Node1&#45;&gt;Node3</title>
<g id="a_edge3_Node000001_Node000003"><a xlink:title=" ">
<path fill="none" stroke="#63b8ff" d="M59.04,-9.5C103.31,-9.5 189.59,-9.5 248.97,-9.5"/>
<polygon fill="#63b8ff" stroke="#63b8ff" points="249,-13 259,-9.5 249,-6 249,-13"/>
</a>
</g>
</g>
<!-- Node2&#45;&gt;Node3 -->
<g id="edge2_Node000002_Node000003" class="edge">
<title>Node2&#45;&gt;Node3</title>
<g id="a_edge2_Node000002_Node000003"><a xlink:title=" ">
<path fill="none" stroke="#63b8ff" d="M223.14,-20.61C231.61,-19.55 240.29,-18.46 248.76,-17.4"/>
<polygon fill="#63b8ff" stroke="#63b8ff" points="249.46,-20.84 258.95,-16.13 248.6,-13.9 249.46,-20.84"/>
</a>
</g>
</g>
</g>
</svg>
