<?xml version="1.0" encoding="UTF-8" standalone="no"?>
<!DOCTYPE svg PUBLIC "-//W3C//DTD SVG 1.1//EN"
 "http://www.w3.org/Graphics/SVG/1.1/DTD/svg11.dtd">
<!-- Generated by graphviz version 2.43.0 (0)
 -->
<!-- Title: src/dynarr.h Pages: 1 -->
<svg width="363pt" height="82pt"
 viewBox="0.00 0.00 363.00 82.00" xmlns="http://www.w3.org/2000/svg" xmlns:xlink="http://www.w3.org/1999/xlink">
<g id="graph0" class="graph" transform="scale(1 1) rotate(0) translate(4 78)">
<title>src/dynarr.h</title>
<!-- Node1 -->
<g id="Node000001" class="node">
<title>Node1</title>
<g id="a_Node000001"><a xlink:title="Describes dynarr public interface.">
<polygon fill="#999999" stroke="#666666" points="231.5,-74 157.5,-74 157.5,-55 231.5,-55 231.5,-74"/>
<text text-anchor="middle" x="194.5" y="-62" font-family="Mononoki" font-size="10.00">src/dynarr.h</text>
</a>
</g>
</g>
<!-- Node2 -->
<g id="Node000002" class="node">
<title>Node2</title>
<g id="a_Node000002"><a xlink:href="create_8c_source.html" target="_top" xlink:title=" ">
<polygon fill="white" stroke="#666666" points="107,-19 0,-19 0,0 107,0 107,-19"/>
<text text-anchor="middle" x="53.5" y="-7" font-family="Mononoki" font-size="10.00">examples/create.c</text>
</a>
</g>
</g>
<!-- Node1&#45;&gt;Node2 -->
<g id="edge1_Node000001_Node000002" class="edge">
<title>Node1&#45;&gt;Node2</title>
<g id="a_edge1_Node000001_Node000002"><a xlink:title=" ">
<path fill="none" stroke="#63b8ff" d="M162.36,-51.42C136.21,-41.59 99.91,-27.95 76.57,-19.17"/>
<polygon fill="#63b8ff" stroke="#63b8ff" points="161.25,-54.74 171.85,-54.98 163.72,-48.19 161.25,-54.74"/>
</a>
</g>
</g>
<!-- Node3 -->
<g id="Node000003" class="node">
<title>Node3</title>
<g id="a_Node000003"><a xlink:href="input__strings_8c_source.html" target="_top" xlink:title=" ">
<polygon fill="white" stroke="#666666" points="264,-19 125,-19 125,0 264,0 264,-19"/>
<text text-anchor="middle" x="194.5" y="-7" font-family="Mononoki" font-size="10.00">examples/input_strings.c</text>
</a>
</g>
</g>
<!-- Node1&#45;&gt;Node3 -->
<g id="edge2_Node000001_Node000003" class="edge">
<title>Node1&#45;&gt;Node3</title>
<g id="a_edge2_Node000001_Node000003"><a xlink:title=" ">
<path fill="none" stroke="#63b8ff" d="M194.5,-44.66C194.5,-35.93 194.5,-25.99 194.5,-19.09"/>
<polygon fill="#63b8ff" stroke="#63b8ff" points="191,-44.75 194.5,-54.75 198,-44.75 191,-44.75"/>
</a>
</g>
</g>
<!-- Node4 -->
<g id="Node000004" class="node">
<title>Node4</title>
<g id="a_Node000004"><a xlink:href="dynarr_8c.html" target="_top" xlink:title="Contains implementation of the dynarr.">
<polygon fill="white" stroke="#666666" points="355,-19 282,-19 282,0 355,0 355,-19"/>
<text text-anchor="middle" x="318.5" y="-7" font-family="Mononoki" font-size="10.00">src/dynarr.c</text>
</a>
</g>
</g>
<!-- Node1&#45;&gt;Node4 -->
<g id="edge3_Node000001_Node000004" class="edge">
<title>Node1&#45;&gt;Node4</title>
<g id="a_edge3_Node000001_Node000004"><a xlink:title=" ">
<path fill="none" stroke="#63b8ff" d="M223.68,-51.03C246.61,-41.23 277.95,-27.83 298.21,-19.17"/>
<polygon fill="#63b8ff" stroke="#63b8ff" points="222.24,-47.84 214.42,-54.98 224.99,-54.27 222.24,-47.84"/>
</a>
</g>
</g>
</g>
</svg>
