<?xml version="1.0" encoding="UTF-8" standalone="no"?>
<!DOCTYPE svg PUBLIC "-//W3C//DTD SVG 1.1//EN"
 "http://www.w3.org/Graphics/SVG/1.1/DTD/svg11.dtd">
<!-- Generated by graphviz version 2.43.0 (0)
 -->
<!-- Title: src/dynarr.c Pages: 1 -->
<svg width="560pt" height="137pt"
 viewBox="0.00 0.00 560.00 137.00" xmlns="http://www.w3.org/2000/svg" xmlns:xlink="http://www.w3.org/1999/xlink">
<g id="graph0" class="graph" transform="scale(1 1) rotate(0) translate(4 133)">
<title>src/dynarr.c</title>
<!-- Node1 -->
<g id="Node000001" class="node">
<title>Node1</title>
<g id="a_Node000001"><a xlink:title="Contains implementation of the dynarr.">
<polygon fill="#999999" stroke="#666666" points="387.5,-129 314.5,-129 314.5,-110 387.5,-110 387.5,-129"/>
<text text-anchor="middle" x="351" y="-117" font-family="Mononoki" font-size="10.00">src/dynarr.c</text>
</a>
</g>
</g>
<!-- Node2 -->
<g id="Node000002" class="node">
<title>Node2</title>
<g id="a_Node000002"><a xlink:href="dynarr_8h.html" target="_top" xlink:title="Describes dynarr public interface.">
<polygon fill="white" stroke="#666666" points="218,-74 162,-74 162,-55 218,-55 218,-74"/>
<text text-anchor="middle" x="190" y="-62" font-family="Mononoki" font-size="10.00">dynarr.h</text>
</a>
</g>
</g>
<!-- Node1&#45;&gt;Node2 -->
<g id="edge1_Node000001_Node000002" class="edge">
<title>Node1&#45;&gt;Node2</title>
<g id="a_edge1_Node000001_Node000002"><a xlink:title=" ">
<path fill="none" stroke="#63b8ff" d="M325.13,-109.98C298.22,-101.13 255.88,-87.19 225.77,-77.28"/>
<polygon fill="#63b8ff" stroke="#63b8ff" points="226.66,-73.88 216.07,-74.08 224.47,-80.53 226.66,-73.88"/>
</a>
</g>
</g>
<!-- Node6 -->
<g id="Node000006" class="node">
<title>Node6</title>
<g id="a_Node000006"><a target="_parent" xlink:href="https://evjeesm.github.io/vector/vector_8h.html" xlink:title=" ">
<polygon fill="white" stroke="#666666" points="300,-19 244,-19 244,0 300,0 300,-19"/>
<text text-anchor="middle" x="272" y="-7" font-family="Mononoki" font-size="10.00">vector.h</text>
</a>
</g>
</g>
<!-- Node1&#45;&gt;Node6 -->
<g id="edge6_Node000001_Node000006" class="edge">
<title>Node1&#45;&gt;Node6</title>
<g id="a_edge6_Node000001_Node000006"><a xlink:title=" ">
<path fill="none" stroke="#63b8ff" d="M325.69,-109.92C309.22,-102.94 288.86,-91.37 278,-74 269.65,-60.65 268.73,-42.54 269.55,-29.08"/>
<polygon fill="#63b8ff" stroke="#63b8ff" points="273.04,-29.36 270.54,-19.07 266.08,-28.68 273.04,-29.36"/>
</a>
</g>
</g>
<!-- Node7 -->
<g id="Node000007" class="node">
<title>Node7</title>
<g id="a_Node000007"><a xlink:title=" ">
<polygon fill="#e0e0e0" stroke="#999999" points="343,-74 287,-74 287,-55 343,-55 343,-74"/>
<text text-anchor="middle" x="315" y="-62" font-family="Mononoki" font-size="10.00">assert.h</text>
</a>
</g>
</g>
<!-- Node1&#45;&gt;Node7 -->
<g id="edge7_Node000001_Node000007" class="edge">
<title>Node1&#45;&gt;Node7</title>
<g id="a_edge7_Node000001_Node000007"><a xlink:title=" ">
<path fill="none" stroke="#63b8ff" d="M345.06,-109.75C340.02,-102.34 332.66,-91.5 326.49,-82.41"/>
<polygon fill="#63b8ff" stroke="#63b8ff" points="329.35,-80.39 320.83,-74.09 323.56,-84.33 329.35,-80.39"/>
</a>
</g>
</g>
<!-- Node8 -->
<g id="Node000008" class="node">
<title>Node8</title>
<g id="a_Node000008"><a xlink:title=" ">
<polygon fill="#e0e0e0" stroke="#999999" points="414.5,-74 361.5,-74 361.5,-55 414.5,-55 414.5,-74"/>
<text text-anchor="middle" x="388" y="-62" font-family="Mononoki" font-size="10.00">string.h</text>
</a>
</g>
</g>
<!-- Node1&#45;&gt;Node8 -->
<g id="edge8_Node000001_Node000008" class="edge">
<title>Node1&#45;&gt;Node8</title>
<g id="a_edge8_Node000001_Node000008"><a xlink:title=" ">
<path fill="none" stroke="#63b8ff" d="M357.11,-109.75C362.28,-102.34 369.85,-91.5 376.19,-82.41"/>
<polygon fill="#63b8ff" stroke="#63b8ff" points="379.15,-84.29 382,-74.09 373.41,-80.29 379.15,-84.29"/>
</a>
</g>
</g>
<!-- Node9 -->
<g id="Node000009" class="node">
<title>Node9</title>
<g id="a_Node000009"><a xlink:title=" ">
<polygon fill="#e0e0e0" stroke="#999999" points="483.5,-74 432.5,-74 432.5,-55 483.5,-55 483.5,-74"/>
<text text-anchor="middle" x="458" y="-62" font-family="Mononoki" font-size="10.00">math.h</text>
</a>
</g>
</g>
<!-- Node1&#45;&gt;Node9 -->
<g id="edge9_Node000001_Node000009" class="edge">
<title>Node1&#45;&gt;Node9</title>
<g id="a_edge9_Node000001_Node000009"><a xlink:title=" ">
<path fill="none" stroke="#63b8ff" d="M368.19,-109.98C385.25,-101.54 411.63,-88.47 431.4,-78.68"/>
<polygon fill="#63b8ff" stroke="#63b8ff" points="433.09,-81.75 440.5,-74.17 429.98,-75.47 433.09,-81.75"/>
</a>
</g>
</g>
<!-- Node10 -->
<g id="Node000010" class="node">
<title>Node10</title>
<g id="a_Node000010"><a xlink:title=" ">
<polygon fill="#e0e0e0" stroke="#999999" points="552,-74 502,-74 502,-55 552,-55 552,-74"/>
<text text-anchor="middle" x="527" y="-62" font-family="Mononoki" font-size="10.00">stdio.h</text>
</a>
</g>
</g>
<!-- Node1&#45;&gt;Node10 -->
<g id="edge10_Node000001_Node000010" class="edge">
<title>Node1&#45;&gt;Node10</title>
<g id="a_edge10_Node000001_Node000010"><a xlink:title=" ">
<path fill="none" stroke="#63b8ff" d="M379.28,-109.98C410.01,-100.73 459.14,-85.93 492.22,-75.97"/>
<polygon fill="#63b8ff" stroke="#63b8ff" points="493.36,-79.28 501.93,-73.05 491.34,-72.58 493.36,-79.28"/>
</a>
</g>
</g>
<!-- Node3 -->
<g id="Node000003" class="node">
<title>Node3</title>
<g id="a_Node000003"><a xlink:title=" ">
<polygon fill="#e0e0e0" stroke="#999999" points="62,-19 0,-19 0,0 62,0 62,-19"/>
<text text-anchor="middle" x="31" y="-7" font-family="Mononoki" font-size="10.00">stdbool.h</text>
</a>
</g>
</g>
<!-- Node2&#45;&gt;Node3 -->
<g id="edge2_Node000002_Node000003" class="edge">
<title>Node2&#45;&gt;Node3</title>
<g id="a_edge2_Node000002_Node000003"><a xlink:title=" ">
<path fill="none" stroke="#63b8ff" d="M164.45,-54.98C137.88,-46.13 96.06,-32.19 66.33,-22.28"/>
<polygon fill="#63b8ff" stroke="#63b8ff" points="67.34,-18.92 56.75,-19.08 65.13,-25.56 67.34,-18.92"/>
</a>
</g>
</g>
<!-- Node4 -->
<g id="Node000004" class="node">
<title>Node4</title>
<g id="a_Node000004"><a xlink:title=" ">
<polygon fill="#e0e0e0" stroke="#999999" points="136,-19 80,-19 80,0 136,0 136,-19"/>
<text text-anchor="middle" x="108" y="-7" font-family="Mononoki" font-size="10.00">stddef.h</text>
</a>
</g>
</g>
<!-- Node2&#45;&gt;Node4 -->
<g id="edge3_Node000002_Node000004" class="edge">
<title>Node2&#45;&gt;Node4</title>
<g id="a_edge3_Node000002_Node000004"><a xlink:title=" ">
<path fill="none" stroke="#63b8ff" d="M176.83,-54.98C164.23,-46.84 145,-34.41 130.06,-24.76"/>
<polygon fill="#63b8ff" stroke="#63b8ff" points="131.71,-21.66 121.41,-19.17 127.91,-27.54 131.71,-21.66"/>
</a>
</g>
</g>
<!-- Node5 -->
<g id="Node000005" class="node">
<title>Node5</title>
<g id="a_Node000005"><a xlink:title=" ">
<polygon fill="#e0e0e0" stroke="#999999" points="226,-19 154,-19 154,0 226,0 226,-19"/>
<text text-anchor="middle" x="190" y="-7" font-family="Mononoki" font-size="10.00">sys/types.h</text>
</a>
</g>
</g>
<!-- Node2&#45;&gt;Node5 -->
<g id="edge4_Node000002_Node000005" class="edge">
<title>Node2&#45;&gt;Node5</title>
<g id="a_edge4_Node000002_Node000005"><a xlink:title=" ">
<path fill="none" stroke="#63b8ff" d="M190,-54.75C190,-47.8 190,-37.85 190,-29.13"/>
<polygon fill="#63b8ff" stroke="#63b8ff" points="193.5,-29.09 190,-19.09 186.5,-29.09 193.5,-29.09"/>
</a>
</g>
</g>
<!-- Node2&#45;&gt;Node6 -->
<g id="edge5_Node000002_Node000006" class="edge">
<title>Node2&#45;&gt;Node6</title>
<g id="a_edge5_Node000002_Node000006"><a xlink:title=" ">
<path fill="none" stroke="#63b8ff" d="M203.17,-54.98C215.77,-46.84 235,-34.41 249.94,-24.76"/>
<polygon fill="#63b8ff" stroke="#63b8ff" points="252.09,-27.54 258.59,-19.17 248.29,-21.66 252.09,-27.54"/>
</a>
</g>
</g>
</g>
</svg>
