<?xml version="1.0" encoding="UTF-8" standalone="no"?>
<!DOCTYPE svg PUBLIC "-//W3C//DTD SVG 1.1//EN"
 "http://www.w3.org/Graphics/SVG/1.1/DTD/svg11.dtd">
<!-- Generated by graphviz version 2.43.0 (0)
 -->
<!-- Title: get_opts Pages: 1 -->
<svg width="539pt" height="103pt"
 viewBox="0.00 0.00 539.00 103.00" xmlns="http://www.w3.org/2000/svg" xmlns:xlink="http://www.w3.org/1999/xlink">
<g id="graph0" class="graph" transform="scale(1 1) rotate(0) translate(4 99)">
<title>get_opts</title>
<!-- Node1 -->
<g id="Node000001" class="node">
<title>Node1</title>
<g id="a_Node000001"><a xlink:title=" ">
<polygon fill="#999999" stroke="#666666" points="59,-57 0,-57 0,-38 59,-38 59,-57"/>
<text text-anchor="middle" x="29.5" y="-45" font-family="Mononoki" font-size="10.00">get_opts</text>
</a>
</g>
</g>
<!-- Node2 -->
<g id="Node000002" class="node">
<title>Node2</title>
<g id="a_Node000002"><a xlink:href="group__Properties.html#ga745bff084f68eec950fa9ea0b42fb4e7" target="_top" xlink:title="Access initial capacity property.">
<polygon fill="white" stroke="#666666" points="223,-95 95,-95 95,-76 223,-76 223,-95"/>
<text text-anchor="middle" x="159" y="-83" font-family="Mononoki" font-size="10.00">dynarr_initial_capacity</text>
</a>
</g>
</g>
<!-- Node1&#45;&gt;Node2 -->
<g id="edge1_Node000001_Node000002" class="edge">
<title>Node1&#45;&gt;Node2</title>
<g id="a_edge1_Node000001_Node000002"><a xlink:title=" ">
<path fill="none" stroke="#63b8ff" d="M59.11,-56.03C75.92,-61.04 97.46,-67.46 116.14,-73.02"/>
<polygon fill="#63b8ff" stroke="#63b8ff" points="115.31,-76.43 125.89,-75.93 117.31,-69.72 115.31,-76.43"/>
</a>
</g>
</g>
<!-- Node3 -->
<g id="Node000003" class="node">
<title>Node3</title>
<g id="a_Node000003"><a xlink:href="dynarr_8c.html#a73f42f3f25cd0920d8039d63ea31be07" target="_top" xlink:title=" ">
<polygon fill="white" stroke="#666666" points="367,-76 259,-76 259,-57 367,-57 367,-76"/>
<text text-anchor="middle" x="313" y="-64" font-family="Mononoki" font-size="10.00">get_dynarr_header</text>
</a>
</g>
</g>
<!-- Node1&#45;&gt;Node3 -->
<g id="edge4_Node000001_Node000003" class="edge">
<title>Node1&#45;&gt;Node3</title>
<g id="a_edge4_Node000001_Node000003"><a xlink:title=" ">
<path fill="none" stroke="#63b8ff" d="M59.04,-49.43C103.31,-52.41 189.59,-58.24 248.97,-62.25"/>
<polygon fill="#63b8ff" stroke="#63b8ff" points="248.78,-65.74 259,-62.92 249.25,-58.76 248.78,-65.74"/>
</a>
</g>
</g>
<!-- Node5 -->
<g id="Node000005" class="node">
<title>Node5</title>
<g id="a_Node000005"><a target="_parent" xlink:href="https://evjeesm.github.io/vector/group__Vector__API.html#gaae93d7f0c056c1d11d3232a7a7aa5e09" xlink:title=" ">
<polygon fill="white" stroke="#666666" points="218,-19 100,-19 100,0 218,0 218,-19"/>
<text text-anchor="middle" x="159" y="-7" font-family="Mononoki" font-size="10.00">vector_element_size</text>
</a>
</g>
</g>
<!-- Node1&#45;&gt;Node5 -->
<g id="edge5_Node000001_Node000005" class="edge">
<title>Node1&#45;&gt;Node5</title>
<g id="a_edge5_Node000001_Node000005"><a xlink:title=" ">
<path fill="none" stroke="#63b8ff" d="M59.11,-38.97C75.92,-33.96 97.46,-27.54 116.14,-21.98"/>
<polygon fill="#63b8ff" stroke="#63b8ff" points="117.31,-25.28 125.89,-19.07 115.31,-18.57 117.31,-25.28"/>
</a>
</g>
</g>
<!-- Node2&#45;&gt;Node3 -->
<g id="edge2_Node000002_Node000003" class="edge">
<title>Node2&#45;&gt;Node3</title>
<g id="a_edge2_Node000002_Node000003"><a xlink:title=" ">
<path fill="none" stroke="#63b8ff" d="M223.14,-77.61C231.61,-76.55 240.29,-75.46 248.76,-74.4"/>
<polygon fill="#63b8ff" stroke="#63b8ff" points="249.46,-77.84 258.95,-73.13 248.6,-70.9 249.46,-77.84"/>
</a>
</g>
</g>
<!-- Node4 -->
<g id="Node000004" class="node">
<title>Node4</title>
<g id="a_Node000004"><a target="_parent" xlink:href="https://evjeesm.github.io/vector/group__Vector__API.html#gafc2e34dbacffe6480af8681fbf46e808" xlink:title=" ">
<polygon fill="white" stroke="#666666" points="531,-76 403,-76 403,-57 531,-57 531,-76"/>
<text text-anchor="middle" x="467" y="-64" font-family="Mononoki" font-size="10.00">vector_get_ext_header</text>
</a>
</g>
</g>
<!-- Node3&#45;&gt;Node4 -->
<g id="edge3_Node000003_Node000004" class="edge">
<title>Node3&#45;&gt;Node4</title>
<g id="a_edge3_Node000003_Node000004"><a xlink:title=" ">
<path fill="none" stroke="#63b8ff" d="M367.16,-66.5C375.47,-66.5 384.18,-66.5 392.84,-66.5"/>
<polygon fill="#63b8ff" stroke="#63b8ff" points="392.95,-70 402.95,-66.5 392.95,-63 392.95,-70"/>
</a>
</g>
</g>
</g>
</svg>
