<?xml version="1.0" encoding="UTF-8" standalone="no"?>
<!DOCTYPE svg PUBLIC "-//W3C//DTD SVG 1.1//EN"
 "http://www.w3.org/Graphics/SVG/1.1/DTD/svg11.dtd">
<!-- Generated by graphviz version 2.43.0 (0)
 -->
<!-- Title: Elements Pages: 1 -->
<svg width="174pt" height="64pt"
 viewBox="0.00 0.00 174.00 64.00" xmlns="http://www.w3.org/2000/svg" xmlns:xlink="http://www.w3.org/1999/xlink">
<g id="graph0" class="graph" transform="scale(1 1) rotate(0) translate(4 60)">
<title>Elements</title>
<!-- Node3 -->
<g id="Node000003" class="node">
<title>Node3</title>
<g id="a_Node000003"><a xlink:href="group__Dynarr__API.html" target="_top" xlink:title="Main dynarr methods. Callbacks.">
<polygon fill="white" stroke="#666666" points="68,-56 0,-56 0,-37 68,-37 68,-56"/>
<text text-anchor="middle" x="34" y="-44" font-family="Mononoki" font-size="10.00">Dynarr API</text>
</a>
</g>
</g>
<!-- Node1 -->
<g id="Node000001" class="node">
<title>Node1</title>
<g id="a_Node000001"><a xlink:title="Access and manipulate elements of a dynarr.">
<polygon fill="#999999" stroke="#666666" points="166,-37 104,-37 104,-18 166,-18 166,-37"/>
<text text-anchor="middle" x="135" y="-25" font-family="Mononoki" font-size="10.00">Elements</text>
</a>
</g>
</g>
<!-- Node3&#45;&gt;Node1 -->
<g id="edge2" class="edge">
<title>Node3&#45;&gt;Node1</title>
<path fill="none" stroke="black" d="M78.16,-38.22C86.76,-36.57 95.62,-34.87 103.68,-33.32"/>
<polygon fill="black" stroke="black" points="77.4,-34.8 68.24,-40.12 78.72,-41.67 77.4,-34.8"/>
</g>
<!-- Node2 -->
<g id="Node000002" class="node">
<title>Node2</title>
<g id="a_Node000002"><a target="_parent" xlink:href="https://evjeesm.github.io/vector/group__Vector__API.html" xlink:title=" ">
<polygon fill="white" stroke="#666666" points="67,-19 1,-19 1,0 67,0 67,-19"/>
<text text-anchor="middle" x="34" y="-7" font-family="Mononoki" font-size="10.00">Vector API</text>
</a>
</g>
</g>
<!-- Node2&#45;&gt;Node1 -->
<g id="edge1" class="edge">
<title>Node2&#45;&gt;Node1</title>
<path fill="none" stroke="black" d="M77.05,-17.14C86,-18.77 95.29,-20.46 103.7,-21.99"/>
<polygon fill="black" stroke="black" points="77.61,-13.69 67.14,-15.34 76.36,-20.58 77.61,-13.69"/>
</g>
</g>
</svg>
