<?xml version="1.0" encoding="UTF-8" standalone="no"?>
<!DOCTYPE svg PUBLIC "-//W3C//DTD SVG 1.1//EN"
 "http://www.w3.org/Graphics/SVG/1.1/DTD/svg11.dtd">
<!-- Generated by graphviz version 2.43.0 (0)
 -->
<!-- Title: make_space_at Pages: 1 -->
<svg width="458pt" height="84pt"
 viewBox="0.00 0.00 458.00 84.00" xmlns="http://www.w3.org/2000/svg" xmlns:xlink="http://www.w3.org/1999/xlink">
<g id="graph0" class="graph" transform="scale(1 1) rotate(0) translate(4 80)">
<title>make_space_at</title>
<!-- Node1 -->
<g id="Node000001" class="node">
<title>Node1</title>
<g id="a_Node000001"><a xlink:title=" ">
<polygon fill="#999999" stroke="#666666" points="92,-38 0,-38 0,-19 92,-19 92,-38"/>
<text text-anchor="middle" x="46" y="-26" font-family="Mononoki" font-size="10.00">make_space_at</text>
</a>
</g>
</g>
<!-- Node2 -->
<g id="Node000002" class="node">
<title>Node2</title>
<g id="a_Node000002"><a xlink:href="group__Dynarr__API.html#ga93c32dd116523090126d427cce08e114" target="_top" xlink:title=" ">
<polygon fill="white" stroke="#666666" points="197,-76 128,-76 128,-57 197,-57 197,-76"/>
<text text-anchor="middle" x="162.5" y="-64" font-family="Mononoki" font-size="10.00">dynarr_get</text>
</a>
</g>
</g>
<!-- Node1&#45;&gt;Node2 -->
<g id="edge1_Node000001_Node000002" class="edge">
<title>Node1&#45;&gt;Node2</title>
<g id="a_edge1_Node000001_Node000002"><a xlink:title=" ">
<path fill="none" stroke="#63b8ff" d="M75.89,-38.09C90.13,-42.81 107.5,-48.58 122.86,-53.68"/>
<polygon fill="#63b8ff" stroke="#63b8ff" points="122.02,-57.09 132.62,-56.91 124.23,-50.44 122.02,-57.09"/>
</a>
</g>
</g>
<!-- Node3 -->
<g id="Node000003" class="node">
<title>Node3</title>
<g id="a_Node000003"><a xlink:href="group__Dynarr__API.html#gaf5c43e2644d185b9b01065af34ed6e29" target="_top" xlink:title=" ">
<polygon fill="white" stroke="#666666" points="306,-38 233,-38 233,-19 306,-19 306,-38"/>
<text text-anchor="middle" x="269.5" y="-26" font-family="Mononoki" font-size="10.00">dynarr_size</text>
</a>
</g>
</g>
<!-- Node1&#45;&gt;Node3 -->
<g id="edge4_Node000001_Node000003" class="edge">
<title>Node1&#45;&gt;Node3</title>
<g id="a_edge4_Node000001_Node000003"><a xlink:title=" ">
<path fill="none" stroke="#63b8ff" d="M92.09,-28.5C130.13,-28.5 184.34,-28.5 222.61,-28.5"/>
<polygon fill="#63b8ff" stroke="#63b8ff" points="222.95,-32 232.95,-28.5 222.95,-25 222.95,-32"/>
</a>
</g>
</g>
<!-- Node4 -->
<g id="Node000004" class="node">
<title>Node4</title>
<g id="a_Node000004"><a xlink:href="dynarr_8c.html#a73f42f3f25cd0920d8039d63ea31be07" target="_top" xlink:title=" ">
<polygon fill="white" stroke="#666666" points="450,-19 342,-19 342,0 450,0 450,-19"/>
<text text-anchor="middle" x="396" y="-7" font-family="Mononoki" font-size="10.00">get_dynarr_header</text>
</a>
</g>
</g>
<!-- Node1&#45;&gt;Node4 -->
<g id="edge5_Node000001_Node000004" class="edge">
<title>Node1&#45;&gt;Node4</title>
<g id="a_edge5_Node000001_Node000004"><a xlink:title=" ">
<path fill="none" stroke="#63b8ff" d="M92.02,-22.99C129.64,-18.67 184.72,-12.98 233,-10.5 265.41,-8.84 301.52,-8.47 331.41,-8.57"/>
<polygon fill="#63b8ff" stroke="#63b8ff" points="331.68,-12.07 341.7,-8.62 331.72,-5.07 331.68,-12.07"/>
</a>
</g>
</g>
<!-- Node2&#45;&gt;Node3 -->
<g id="edge2_Node000002_Node000003" class="edge">
<title>Node2&#45;&gt;Node3</title>
<g id="a_edge2_Node000002_Node000003"><a xlink:title=" ">
<path fill="none" stroke="#63b8ff" d="M190,-56.91C202.8,-52.28 218.38,-46.64 232.26,-41.61"/>
<polygon fill="#63b8ff" stroke="#63b8ff" points="233.8,-44.78 242.01,-38.09 231.42,-38.2 233.8,-44.78"/>
</a>
</g>
</g>
<!-- Node3&#45;&gt;Node4 -->
<g id="edge3_Node000003_Node000004" class="edge">
<title>Node3&#45;&gt;Node4</title>
<g id="a_edge3_Node000003_Node000004"><a xlink:title=" ">
<path fill="none" stroke="#63b8ff" d="M306.18,-23.06C314.22,-21.83 322.98,-20.49 331.78,-19.15"/>
<polygon fill="#63b8ff" stroke="#63b8ff" points="332.32,-22.61 341.68,-17.64 331.27,-15.69 332.32,-22.61"/>
</a>
</g>
</g>
</g>
</svg>
