<?xml version="1.0" encoding="UTF-8" standalone="no"?>
<!DOCTYPE svg PUBLIC "-//W3C//DTD SVG 1.1//EN"
 "http://www.w3.org/Graphics/SVG/1.1/DTD/svg11.dtd">
<!-- Generated by graphviz version 2.43.0 (0)
 -->
<!-- Title: shrink Pages: 1 -->
<svg width="363pt" height="140pt"
 viewBox="0.00 0.00 363.00 140.00" xmlns="http://www.w3.org/2000/svg" xmlns:xlink="http://www.w3.org/1999/xlink">
<g id="graph0" class="graph" transform="scale(1 1) rotate(0) translate(4 136)">
<title>shrink</title>
<!-- Node1 -->
<g id="Node000001" class="node">
<title>Node1</title>
<g id="a_Node000001"><a xlink:title=" ">
<polygon fill="#999999" stroke="#666666" points="47,-76 0,-76 0,-57 47,-57 47,-76"/>
<text text-anchor="middle" x="23.5" y="-64" font-family="Mononoki" font-size="10.00">shrink</text>
</a>
</g>
</g>
<!-- Node2 -->
<g id="Node000002" class="node">
<title>Node2</title>
<g id="a_Node000002"><a xlink:href="group__Dynarr__API.html#ga3ff11107726213a640d814b63cb123b2" target="_top" xlink:title=" ">
<polygon fill="white" stroke="#666666" points="194.5,-132 99.5,-132 99.5,-113 194.5,-113 194.5,-132"/>
<text text-anchor="middle" x="147" y="-120" font-family="Mononoki" font-size="10.00">dynarr_capacity</text>
</a>
</g>
</g>
<!-- Node1&#45;&gt;Node2 -->
<g id="edge1_Node000001_Node000002" class="edge">
<title>Node1&#45;&gt;Node2</title>
<g id="a_edge1_Node000001_Node000002"><a xlink:title=" ">
<path fill="none" stroke="#63b8ff" d="M36.88,-76.11C48.3,-84.59 66.03,-96.77 83,-104.5 87.13,-106.38 91.5,-108.11 95.94,-109.69"/>
<polygon fill="#63b8ff" stroke="#63b8ff" points="95.1,-113.1 105.7,-112.92 97.3,-106.46 95.1,-113.1"/>
</a>
</g>
</g>
<!-- Node3 -->
<g id="Node000003" class="node">
<title>Node3</title>
<g id="a_Node000003"><a xlink:href="group__Dynarr__API.html#ga745bff084f68eec950fa9ea0b42fb4e7" target="_top" xlink:title=" ">
<polygon fill="white" stroke="#666666" points="211,-95 83,-95 83,-76 211,-76 211,-95"/>
<text text-anchor="middle" x="147" y="-83" font-family="Mononoki" font-size="10.00">dynarr_initial_capacity</text>
</a>
</g>
</g>
<!-- Node1&#45;&gt;Node3 -->
<g id="edge2_Node000001_Node000003" class="edge">
<title>Node1&#45;&gt;Node3</title>
<g id="a_edge2_Node000001_Node000003"><a xlink:title=" ">
<path fill="none" stroke="#63b8ff" d="M47.07,-70.03C55.2,-71.3 64.87,-72.81 74.92,-74.39"/>
<polygon fill="#63b8ff" stroke="#63b8ff" points="74.65,-77.88 85.07,-75.97 75.73,-70.97 74.65,-77.88"/>
</a>
</g>
</g>
<!-- Node4 -->
<g id="Node000004" class="node">
<title>Node4</title>
<g id="a_Node000004"><a xlink:href="dynarr_8c.html#a73f42f3f25cd0920d8039d63ea31be07" target="_top" xlink:title=" ">
<polygon fill="white" stroke="#666666" points="355,-57 247,-57 247,-38 355,-38 355,-57"/>
<text text-anchor="middle" x="301" y="-45" font-family="Mononoki" font-size="10.00">get_dynarr_header</text>
</a>
</g>
</g>
<!-- Node1&#45;&gt;Node4 -->
<g id="edge6_Node000001_Node000004" class="edge">
<title>Node1&#45;&gt;Node4</title>
<g id="a_edge6_Node000001_Node000004"><a xlink:title=" ">
<path fill="none" stroke="#63b8ff" d="M47.05,-64.95C88.05,-62.12 176.17,-56.04 236.77,-51.86"/>
<polygon fill="#63b8ff" stroke="#63b8ff" points="237.26,-55.34 246.99,-51.16 236.78,-48.35 237.26,-55.34"/>
</a>
</g>
</g>
<!-- Node5 -->
<g id="Node000005" class="node">
<title>Node5</title>
<g id="a_Node000005"><a xlink:href="group__Dynarr__API.html#gaf5c43e2644d185b9b01065af34ed6e29" target="_top" xlink:title=" ">
<polygon fill="white" stroke="#666666" points="183.5,-19 110.5,-19 110.5,0 183.5,0 183.5,-19"/>
<text text-anchor="middle" x="147" y="-7" font-family="Mononoki" font-size="10.00">dynarr_size</text>
</a>
</g>
</g>
<!-- Node1&#45;&gt;Node5 -->
<g id="edge4_Node000001_Node000005" class="edge">
<title>Node1&#45;&gt;Node5</title>
<g id="a_edge4_Node000001_Node000005"><a xlink:title=" ">
<path fill="none" stroke="#63b8ff" d="M40.05,-56.88C51.65,-49.92 68.01,-40.53 83,-33.5 91.24,-29.63 100.28,-25.9 108.88,-22.58"/>
<polygon fill="#63b8ff" stroke="#63b8ff" points="110.21,-25.82 118.34,-19.02 107.75,-19.27 110.21,-25.82"/>
</a>
</g>
</g>
<!-- Node3&#45;&gt;Node4 -->
<g id="edge3_Node000003_Node000004" class="edge">
<title>Node3&#45;&gt;Node4</title>
<g id="a_edge3_Node000003_Node000004"><a xlink:title=" ">
<path fill="none" stroke="#63b8ff" d="M186.36,-75.91C206.32,-70.92 230.93,-64.77 252.13,-59.47"/>
<polygon fill="#63b8ff" stroke="#63b8ff" points="253.07,-62.84 261.92,-57.02 251.37,-56.05 253.07,-62.84"/>
</a>
</g>
</g>
<!-- Node5&#45;&gt;Node4 -->
<g id="edge5_Node000005_Node000004" class="edge">
<title>Node5&#45;&gt;Node4</title>
<g id="a_edge5_Node000005_Node000004"><a xlink:title=" ">
<path fill="none" stroke="#63b8ff" d="M183.64,-18.41C204.03,-23.51 229.89,-29.97 252.04,-35.51"/>
<polygon fill="#63b8ff" stroke="#63b8ff" points="251.38,-38.95 261.93,-37.98 253.08,-32.16 251.38,-38.95"/>
</a>
</g>
</g>
</g>
</svg>
