<?xml version="1.0" encoding="UTF-8" standalone="no"?>
<!DOCTYPE svg PUBLIC "-//W3C//DTD SVG 1.1//EN"
 "http://www.w3.org/Graphics/SVG/1.1/DTD/svg11.dtd">
<!-- Generated by graphviz version 2.43.0 (0)
 -->
<!-- Title: dynarr_aggregate Pages: 1 -->
<svg width="557pt" height="64pt"
 viewBox="0.00 0.00 557.00 64.00" xmlns="http://www.w3.org/2000/svg" xmlns:xlink="http://www.w3.org/1999/xlink">
<g id="graph0" class="graph" transform="scale(1 1) rotate(0) translate(4 60)">
<title>dynarr_aggregate</title>
<!-- Node1 -->
<g id="Node000001" class="node">
<title>Node1</title>
<g id="a_Node000001"><a xlink:title=" ">
<polygon fill="#999999" stroke="#666666" points="103,-37 0,-37 0,-18 103,-18 103,-37"/>
<text text-anchor="middle" x="51.5" y="-25" font-family="Mononoki" font-size="10.00">dynarr_aggregate</text>
</a>
</g>
</g>
<!-- Node2 -->
<g id="Node000002" class="node">
<title>Node2</title>
<g id="a_Node000002"><a xlink:href="group__Dynarr__API.html#gaf5c43e2644d185b9b01065af34ed6e29" target="_top" xlink:title=" ">
<polygon fill="white" stroke="#666666" points="226.5,-56 153.5,-56 153.5,-37 226.5,-37 226.5,-56"/>
<text text-anchor="middle" x="190" y="-44" font-family="Mononoki" font-size="10.00">dynarr_size</text>
</a>
</g>
</g>
<!-- Node1&#45;&gt;Node2 -->
<g id="edge1_Node000001_Node000002" class="edge">
<title>Node1&#45;&gt;Node2</title>
<g id="a_edge1_Node000001_Node000002"><a xlink:title=" ">
<path fill="none" stroke="#63b8ff" d="M103.33,-34.57C116.49,-36.41 130.57,-38.37 143.44,-40.16"/>
<polygon fill="#63b8ff" stroke="#63b8ff" points="143.07,-43.64 153.46,-41.55 144.04,-36.71 143.07,-43.64"/>
</a>
</g>
</g>
<!-- Node5 -->
<g id="Node000005" class="node">
<title>Node5</title>
<g id="a_Node000005"><a target="_parent" xlink:href="https://evjeesm.github.io/vector/group__Vector__API.html#ga1a193e06f6700de896628631b8569740" xlink:title=" ">
<polygon fill="white" stroke="#666666" points="241,-19 139,-19 139,0 241,0 241,-19"/>
<text text-anchor="middle" x="190" y="-7" font-family="Mononoki" font-size="10.00">vector_aggregate</text>
</a>
</g>
</g>
<!-- Node1&#45;&gt;Node5 -->
<g id="edge4_Node000001_Node000005" class="edge">
<title>Node1&#45;&gt;Node5</title>
<g id="a_edge4_Node000001_Node000005"><a xlink:title=" ">
<path fill="none" stroke="#63b8ff" d="M103.33,-20.8C111.52,-19.72 120.07,-18.59 128.46,-17.48"/>
<polygon fill="#63b8ff" stroke="#63b8ff" points="129.13,-20.93 138.58,-16.15 128.21,-13.99 129.13,-20.93"/>
</a>
</g>
</g>
<!-- Node3 -->
<g id="Node000003" class="node">
<title>Node3</title>
<g id="a_Node000003"><a xlink:href="dynarr_8c.html#a73f42f3f25cd0920d8039d63ea31be07" target="_top" xlink:title=" ">
<polygon fill="white" stroke="#666666" points="385,-56 277,-56 277,-37 385,-37 385,-56"/>
<text text-anchor="middle" x="331" y="-44" font-family="Mononoki" font-size="10.00">get_dynarr_header</text>
</a>
</g>
</g>
<!-- Node2&#45;&gt;Node3 -->
<g id="edge2_Node000002_Node000003" class="edge">
<title>Node2&#45;&gt;Node3</title>
<g id="a_edge2_Node000002_Node000003"><a xlink:title=" ">
<path fill="none" stroke="#63b8ff" d="M226.8,-46.5C238.91,-46.5 252.83,-46.5 266.44,-46.5"/>
<polygon fill="#63b8ff" stroke="#63b8ff" points="266.75,-50 276.75,-46.5 266.75,-43 266.75,-50"/>
</a>
</g>
</g>
<!-- Node4 -->
<g id="Node000004" class="node">
<title>Node4</title>
<g id="a_Node000004"><a target="_parent" xlink:href="https://evjeesm.github.io/vector/group__Vector__API.html#gafc2e34dbacffe6480af8681fbf46e808" xlink:title=" ">
<polygon fill="white" stroke="#666666" points="549,-56 421,-56 421,-37 549,-37 549,-56"/>
<text text-anchor="middle" x="485" y="-44" font-family="Mononoki" font-size="10.00">vector_get_ext_header</text>
</a>
</g>
</g>
<!-- Node3&#45;&gt;Node4 -->
<g id="edge3_Node000003_Node000004" class="edge">
<title>Node3&#45;&gt;Node4</title>
<g id="a_edge3_Node000003_Node000004"><a xlink:title=" ">
<path fill="none" stroke="#63b8ff" d="M385.16,-46.5C393.47,-46.5 402.18,-46.5 410.84,-46.5"/>
<polygon fill="#63b8ff" stroke="#63b8ff" points="410.95,-50 420.95,-46.5 410.95,-43 410.95,-50"/>
</a>
</g>
</g>
</g>
</svg>
