<?xml version="1.0" encoding="UTF-8" standalone="no"?>
<!DOCTYPE svg PUBLIC "-//W3C//DTD SVG 1.1//EN"
 "http://www.w3.org/Graphics/SVG/1.1/DTD/svg11.dtd">
<!-- Generated by graphviz version 2.43.0 (0)
 -->
<!-- Title: dynarr_pop_back Pages: 1 -->
<svg width="929pt" height="283pt"
 viewBox="0.00 0.00 929.00 282.50" xmlns="http://www.w3.org/2000/svg" xmlns:xlink="http://www.w3.org/1999/xlink">
<g id="graph0" class="graph" transform="scale(1 1) rotate(0) translate(4 278.5)">
<title>dynarr_pop_back</title>
<!-- Node1 -->
<g id="Node000001" class="node">
<title>Node1</title>
<g id="a_Node000001"><a xlink:title=" ">
<polygon fill="#999999" stroke="#666666" points="100,-265 0,-265 0,-246 100,-246 100,-265"/>
<text text-anchor="middle" x="50" y="-253" font-family="Mononoki" font-size="10.00">dynarr_pop_back</text>
</a>
</g>
</g>
<!-- Node2 -->
<g id="Node000002" class="node">
<title>Node2</title>
<g id="a_Node000002"><a xlink:href="group__Dynarr__API.html#gae2e52e602d3867ce3e5fee688ea20263" target="_top" xlink:title=" ">
<polygon fill="white" stroke="#666666" points="227,-246 136,-246 136,-227 227,-227 227,-246"/>
<text text-anchor="middle" x="181.5" y="-234" font-family="Mononoki" font-size="10.00">dynarr_remove</text>
</a>
</g>
</g>
<!-- Node1&#45;&gt;Node2 -->
<g id="edge1_Node000001_Node000002" class="edge">
<title>Node1&#45;&gt;Node2</title>
<g id="a_edge1_Node000001_Node000002"><a xlink:title=" ">
<path fill="none" stroke="#63b8ff" d="M100.33,-248.26C108.66,-247.04 117.36,-245.76 125.82,-244.52"/>
<polygon fill="#63b8ff" stroke="#63b8ff" points="126.6,-247.95 135.98,-243.03 125.58,-241.02 126.6,-247.95"/>
</a>
</g>
</g>
<!-- Node4 -->
<g id="Node000004" class="node">
<title>Node4</title>
<g id="a_Node000004"><a xlink:href="group__Dynarr__API.html#gaf5c43e2644d185b9b01065af34ed6e29" target="_top" xlink:title=" ">
<polygon fill="white" stroke="#666666" points="749.5,-189 676.5,-189 676.5,-170 749.5,-170 749.5,-189"/>
<text text-anchor="middle" x="713" y="-177" font-family="Mononoki" font-size="10.00">dynarr_size</text>
</a>
</g>
</g>
<!-- Node1&#45;&gt;Node4 -->
<g id="edge16_Node000001_Node000004" class="edge">
<title>Node1&#45;&gt;Node4</title>
<g id="a_edge16_Node000001_Node000004"><a xlink:title=" ">
<path fill="none" stroke="#63b8ff" d="M100.25,-261C154.86,-266.61 245.61,-274.5 324,-274.5 324,-274.5 324,-274.5 466.5,-274.5 553.81,-274.5 647.54,-221.59 689.47,-194.74"/>
<polygon fill="#63b8ff" stroke="#63b8ff" points="691.61,-197.53 698.07,-189.13 687.79,-191.66 691.61,-197.53"/>
</a>
</g>
</g>
<!-- Node3 -->
<g id="Node000003" class="node">
<title>Node3</title>
<g id="a_Node000003"><a xlink:href="group__Dynarr__API.html#ga1187f49d8bde19551b2c95ad430e596c" target="_top" xlink:title=" ">
<polygon fill="white" stroke="#666666" points="387,-227 263,-227 263,-208 387,-208 387,-227"/>
<text text-anchor="middle" x="325" y="-215" font-family="Mononoki" font-size="10.00">dynarr_remove_range</text>
</a>
</g>
</g>
<!-- Node2&#45;&gt;Node3 -->
<g id="edge2_Node000002_Node000003" class="edge">
<title>Node2&#45;&gt;Node3</title>
<g id="a_edge2_Node000002_Node000003"><a xlink:title=" ">
<path fill="none" stroke="#63b8ff" d="M227.27,-230.49C235.42,-229.39 244.1,-228.23 252.79,-227.06"/>
<polygon fill="#63b8ff" stroke="#63b8ff" points="253.52,-230.5 262.96,-225.7 252.59,-223.56 253.52,-230.5"/>
</a>
</g>
</g>
<!-- Node3&#45;&gt;Node4 -->
<g id="edge3_Node000003_Node000004" class="edge">
<title>Node3&#45;&gt;Node4</title>
<g id="a_edge3_Node000003_Node000004"><a xlink:title=" ">
<path fill="none" stroke="#63b8ff" d="M387.04,-223.47C445.53,-227.74 536.04,-230.55 613,-216.5 637.55,-212.02 663.96,-201.85 683.32,-193.31"/>
<polygon fill="#63b8ff" stroke="#63b8ff" points="684.83,-196.47 692.49,-189.15 681.94,-190.1 684.83,-196.47"/>
</a>
</g>
</g>
<!-- Node6 -->
<g id="Node000006" class="node">
<title>Node6</title>
<g id="a_Node000006"><a xlink:href="group__Auto-resize.html#ga9ff20c2ac9693f6d8f0ea97f9b46539c" target="_top" xlink:title=" ">
<polygon fill="white" stroke="#666666" points="508,-189 423,-189 423,-170 508,-170 508,-189"/>
<text text-anchor="middle" x="465.5" y="-177" font-family="Mononoki" font-size="10.00">free_space_at</text>
</a>
</g>
</g>
<!-- Node3&#45;&gt;Node6 -->
<g id="edge5_Node000003_Node000006" class="edge">
<title>Node3&#45;&gt;Node6</title>
<g id="a_edge5_Node000003_Node000006"><a xlink:title=" ">
<path fill="none" stroke="#63b8ff" d="M360.95,-207.91C378.83,-203.01 400.79,-196.98 419.88,-191.74"/>
<polygon fill="#63b8ff" stroke="#63b8ff" points="420.84,-195.11 429.56,-189.09 418.99,-188.36 420.84,-195.11"/>
</a>
</g>
</g>
<!-- Node8 -->
<g id="Node000008" class="node">
<title>Node8</title>
<g id="a_Node000008"><a xlink:href="group__Auto-resize.html#ga8eb6c0a577084ccd7a64bec67b8bdbbe" target="_top" xlink:title=" ">
<polygon fill="white" stroke="#666666" points="602,-94 555,-94 555,-75 602,-75 602,-94"/>
<text text-anchor="middle" x="578.5" y="-82" font-family="Mononoki" font-size="10.00">shrink</text>
</a>
</g>
</g>
<!-- Node3&#45;&gt;Node8 -->
<g id="edge10_Node000003_Node000008" class="edge">
<title>Node3&#45;&gt;Node8</title>
<g id="a_edge10_Node000003_Node000008"><a xlink:title=" ">
<path fill="none" stroke="#63b8ff" d="M341.59,-207.86C360.58,-196.22 393.77,-176.25 423,-160.5 465.69,-137.5 516.31,-113.13 547.68,-98.36"/>
<polygon fill="#63b8ff" stroke="#63b8ff" points="549.19,-101.52 556.76,-94.1 546.22,-95.18 549.19,-101.52"/>
</a>
</g>
</g>
<!-- Node5 -->
<g id="Node000005" class="node">
<title>Node5</title>
<g id="a_Node000005"><a xlink:href="dynarr_8c.html#a73f42f3f25cd0920d8039d63ea31be07" target="_top" xlink:title=" ">
<polygon fill="white" stroke="#666666" points="921,-113 813,-113 813,-94 921,-94 921,-113"/>
<text text-anchor="middle" x="867" y="-101" font-family="Mononoki" font-size="10.00">get_dynarr_header</text>
</a>
</g>
</g>
<!-- Node4&#45;&gt;Node5 -->
<g id="edge4_Node000004_Node000005" class="edge">
<title>Node4&#45;&gt;Node5</title>
<g id="a_edge4_Node000004_Node000005"><a xlink:title=" ">
<path fill="none" stroke="#63b8ff" d="M733.25,-169.87C759.63,-156.68 807.21,-132.89 837.67,-117.67"/>
<polygon fill="#63b8ff" stroke="#63b8ff" points="839.53,-120.65 846.91,-113.05 836.4,-114.39 839.53,-120.65"/>
</a>
</g>
</g>
<!-- Node6&#45;&gt;Node4 -->
<g id="edge8_Node000006_Node000004" class="edge">
<title>Node6&#45;&gt;Node4</title>
<g id="a_edge8_Node000006_Node000004"><a xlink:title=" ">
<path fill="none" stroke="#63b8ff" d="M508.15,-179.5C551.93,-179.5 620.64,-179.5 666,-179.5"/>
<polygon fill="#63b8ff" stroke="#63b8ff" points="666.15,-183 676.15,-179.5 666.15,-176 666.15,-183"/>
</a>
</g>
</g>
<!-- Node6&#45;&gt;Node5 -->
<g id="edge9_Node000006_Node000005" class="edge">
<title>Node6&#45;&gt;Node5</title>
<g id="a_edge9_Node000006_Node000005"><a xlink:title=" ">
<path fill="none" stroke="#63b8ff" d="M508.12,-171.58C579.11,-158.08 723.83,-130.55 805.83,-114.95"/>
<polygon fill="#63b8ff" stroke="#63b8ff" points="806.58,-118.37 815.75,-113.06 805.27,-111.49 806.58,-118.37"/>
</a>
</g>
</g>
<!-- Node7 -->
<g id="Node000007" class="node">
<title>Node7</title>
<g id="a_Node000007"><a xlink:href="group__Dynarr__API.html#ga93c32dd116523090126d427cce08e114" target="_top" xlink:title=" ">
<polygon fill="white" stroke="#666666" points="613,-208 544,-208 544,-189 613,-189 613,-208"/>
<text text-anchor="middle" x="578.5" y="-196" font-family="Mononoki" font-size="10.00">dynarr_get</text>
</a>
</g>
</g>
<!-- Node6&#45;&gt;Node7 -->
<g id="edge6_Node000006_Node000007" class="edge">
<title>Node6&#45;&gt;Node7</title>
<g id="a_edge6_Node000006_Node000007"><a xlink:title=" ">
<path fill="none" stroke="#63b8ff" d="M508.15,-186.63C516.55,-188.07 525.39,-189.58 533.86,-191.03"/>
<polygon fill="#63b8ff" stroke="#63b8ff" points="533.49,-194.52 543.93,-192.75 534.67,-187.62 533.49,-194.52"/>
</a>
</g>
</g>
<!-- Node7&#45;&gt;Node4 -->
<g id="edge7_Node000007_Node000004" class="edge">
<title>Node7&#45;&gt;Node4</title>
<g id="a_edge7_Node000007_Node000004"><a xlink:title=" ">
<path fill="none" stroke="#63b8ff" d="M613.28,-193.66C629.43,-191.34 649,-188.53 666.45,-186.03"/>
<polygon fill="#63b8ff" stroke="#63b8ff" points="667.03,-189.48 676.43,-184.6 666.03,-182.56 667.03,-189.48"/>
</a>
</g>
</g>
<!-- Node8&#45;&gt;Node4 -->
<g id="edge14_Node000008_Node000004" class="edge">
<title>Node8&#45;&gt;Node4</title>
<g id="a_edge14_Node000008_Node000004"><a xlink:title=" ">
<path fill="none" stroke="#63b8ff" d="M593.18,-94.31C616.21,-110.82 662.89,-144.29 690.39,-164.01"/>
<polygon fill="#63b8ff" stroke="#63b8ff" points="688.42,-166.9 698.59,-169.89 692.5,-161.21 688.42,-166.9"/>
</a>
</g>
</g>
<!-- Node8&#45;&gt;Node5 -->
<g id="edge15_Node000008_Node000005" class="edge">
<title>Node8&#45;&gt;Node5</title>
<g id="a_edge15_Node000008_Node000005"><a xlink:title=" ">
<path fill="none" stroke="#63b8ff" d="M602.46,-86.02C645.42,-88.87 739.29,-95.1 802.6,-99.3"/>
<polygon fill="#63b8ff" stroke="#63b8ff" points="802.67,-102.81 812.88,-99.98 803.13,-95.82 802.67,-102.81"/>
</a>
</g>
</g>
<!-- Node9 -->
<g id="Node000009" class="node">
<title>Node9</title>
<g id="a_Node000009"><a xlink:href="group__Dynarr__API.html#ga3ff11107726213a640d814b63cb123b2" target="_top" xlink:title=" ">
<polygon fill="white" stroke="#666666" points="760.5,-56 665.5,-56 665.5,-37 760.5,-37 760.5,-56"/>
<text text-anchor="middle" x="713" y="-44" font-family="Mononoki" font-size="10.00">dynarr_capacity</text>
</a>
</g>
</g>
<!-- Node8&#45;&gt;Node9 -->
<g id="edge11_Node000008_Node000009" class="edge">
<title>Node8&#45;&gt;Node9</title>
<g id="a_edge11_Node000008_Node000009"><a xlink:title=" ">
<path fill="none" stroke="#63b8ff" d="M602.28,-77.97C620.56,-72.72 646.76,-65.21 668.97,-58.84"/>
<polygon fill="#63b8ff" stroke="#63b8ff" points="670.21,-62.13 678.86,-56.01 668.28,-55.4 670.21,-62.13"/>
</a>
</g>
</g>
<!-- Node10 -->
<g id="Node000010" class="node">
<title>Node10</title>
<g id="a_Node000010"><a xlink:href="group__Dynarr__API.html#ga745bff084f68eec950fa9ea0b42fb4e7" target="_top" xlink:title=" ">
<polygon fill="white" stroke="#666666" points="777,-19 649,-19 649,0 777,0 777,-19"/>
<text text-anchor="middle" x="713" y="-7" font-family="Mononoki" font-size="10.00">dynarr_initial_capacity</text>
</a>
</g>
</g>
<!-- Node8&#45;&gt;Node10 -->
<g id="edge12_Node000008_Node000010" class="edge">
<title>Node8&#45;&gt;Node10</title>
<g id="a_edge12_Node000008_Node000010"><a xlink:title=" ">
<path fill="none" stroke="#63b8ff" d="M588.92,-74.58C601.48,-61.91 624.95,-40.1 649,-27.5 652.47,-25.68 656.15,-24.03 659.92,-22.52"/>
<polygon fill="#63b8ff" stroke="#63b8ff" points="661.18,-25.79 669.39,-19.1 658.8,-19.21 661.18,-25.79"/>
</a>
</g>
</g>
<!-- Node10&#45;&gt;Node5 -->
<g id="edge13_Node000010_Node000005" class="edge">
<title>Node10&#45;&gt;Node5</title>
<g id="a_edge13_Node000010_Node000005"><a xlink:title=" ">
<path fill="none" stroke="#63b8ff" d="M757,-19.1C763.89,-21.39 770.79,-24.17 777,-27.5 805.77,-42.94 833.49,-68.94 850.14,-86.16"/>
<polygon fill="#63b8ff" stroke="#63b8ff" points="847.97,-88.96 857.39,-93.83 853.06,-84.16 847.97,-88.96"/>
</a>
</g>
</g>
</g>
</svg>
