<?xml version="1.0" encoding="UTF-8" standalone="no"?>
<!DOCTYPE svg PUBLIC "-//W3C//DTD SVG 1.1//EN"
 "http://www.w3.org/Graphics/SVG/1.1/DTD/svg11.dtd">
<!-- Generated by graphviz version 2.43.0 (0)
 -->
<!-- Title: shrink Pages: 1 -->
<svg width="527pt" height="177pt"
 viewBox="0.00 0.00 527.00 177.00" xmlns="http://www.w3.org/2000/svg" xmlns:xlink="http://www.w3.org/1999/xlink">
<g id="graph0" class="graph" transform="scale(1 1) rotate(0) translate(4 173)">
<title>shrink</title>
<!-- Node1 -->
<g id="Node000001" class="node">
<title>Node1</title>
<g id="a_Node000001"><a xlink:title=" ">
<polygon fill="#999999" stroke="#666666" points="47,-94 0,-94 0,-75 47,-75 47,-94"/>
<text text-anchor="middle" x="23.5" y="-82" font-family="Mononoki" font-size="10.00">shrink</text>
</a>
</g>
</g>
<!-- Node2 -->
<g id="Node000002" class="node">
<title>Node2</title>
<g id="a_Node000002"><a xlink:href="group__Dynarr__API.html#ga3ff11107726213a640d814b63cb123b2" target="_top" xlink:title=" ">
<polygon fill="white" stroke="#666666" points="194.5,-169 99.5,-169 99.5,-150 194.5,-150 194.5,-169"/>
<text text-anchor="middle" x="147" y="-157" font-family="Mononoki" font-size="10.00">dynarr_capacity</text>
</a>
</g>
</g>
<!-- Node1&#45;&gt;Node2 -->
<g id="edge1_Node000001_Node000002" class="edge">
<title>Node1&#45;&gt;Node2</title>
<g id="a_edge1_Node000001_Node000002"><a xlink:title=" ">
<path fill="none" stroke="#63b8ff" d="M31.74,-94.05C41.85,-106.74 61.41,-128.98 83,-141.5 85.99,-143.24 89.17,-144.81 92.43,-146.24"/>
<polygon fill="#63b8ff" stroke="#63b8ff" points="91.22,-149.53 101.81,-149.91 93.77,-143.01 91.22,-149.53"/>
</a>
</g>
</g>
<!-- Node4 -->
<g id="Node000004" class="node">
<title>Node4</title>
<g id="a_Node000004"><a xlink:href="group__Dynarr__API.html#ga745bff084f68eec950fa9ea0b42fb4e7" target="_top" xlink:title=" ">
<polygon fill="white" stroke="#666666" points="211,-132 83,-132 83,-113 211,-113 211,-132"/>
<text text-anchor="middle" x="147" y="-120" font-family="Mononoki" font-size="10.00">dynarr_initial_capacity</text>
</a>
</g>
</g>
<!-- Node1&#45;&gt;Node4 -->
<g id="edge3_Node000001_Node000004" class="edge">
<title>Node1&#45;&gt;Node4</title>
<g id="a_edge3_Node000001_Node000004"><a xlink:title=" ">
<path fill="none" stroke="#63b8ff" d="M47.07,-91.56C63.51,-96.7 86.22,-103.8 105.73,-109.91"/>
<polygon fill="#63b8ff" stroke="#63b8ff" points="104.72,-113.26 115.31,-112.9 106.81,-106.57 104.72,-113.26"/>
</a>
</g>
</g>
<!-- Node5 -->
<g id="Node000005" class="node">
<title>Node5</title>
<g id="a_Node000005"><a xlink:href="dynarr_8c.html#a73f42f3f25cd0920d8039d63ea31be07" target="_top" xlink:title=" ">
<polygon fill="white" stroke="#666666" points="355,-94 247,-94 247,-75 355,-75 355,-94"/>
<text text-anchor="middle" x="301" y="-82" font-family="Mononoki" font-size="10.00">get_dynarr_header</text>
</a>
</g>
</g>
<!-- Node1&#45;&gt;Node5 -->
<g id="edge8_Node000001_Node000005" class="edge">
<title>Node1&#45;&gt;Node5</title>
<g id="a_edge8_Node000001_Node000005"><a xlink:title=" ">
<path fill="none" stroke="#63b8ff" d="M47.05,-84.5C88.05,-84.5 176.17,-84.5 236.77,-84.5"/>
<polygon fill="#63b8ff" stroke="#63b8ff" points="236.99,-88 246.99,-84.5 236.99,-81 236.99,-88"/>
</a>
</g>
</g>
<!-- Node7 -->
<g id="Node000007" class="node">
<title>Node7</title>
<g id="a_Node000007"><a xlink:href="group__Dynarr__API.html#gaf5c43e2644d185b9b01065af34ed6e29" target="_top" xlink:title=" ">
<polygon fill="white" stroke="#666666" points="183.5,-56 110.5,-56 110.5,-37 183.5,-37 183.5,-56"/>
<text text-anchor="middle" x="147" y="-44" font-family="Mononoki" font-size="10.00">dynarr_size</text>
</a>
</g>
</g>
<!-- Node1&#45;&gt;Node7 -->
<g id="edge6_Node000001_Node000007" class="edge">
<title>Node1&#45;&gt;Node7</title>
<g id="a_edge6_Node000001_Node000007"><a xlink:title=" ">
<path fill="none" stroke="#63b8ff" d="M47.07,-77.44C63.51,-72.3 86.22,-65.2 105.73,-59.09"/>
<polygon fill="#63b8ff" stroke="#63b8ff" points="106.81,-62.43 115.31,-56.1 104.72,-55.74 106.81,-62.43"/>
</a>
</g>
</g>
<!-- Node8 -->
<g id="Node000008" class="node">
<title>Node8</title>
<g id="a_Node000008"><a target="_parent" xlink:href="https://evjeesm.github.io/vector/group__Vector__API.html#ga6e5077303af4dfe720af5a0608553922" xlink:title=" ">
<polygon fill="white" stroke="#666666" points="188,-19 106,-19 106,0 188,0 188,-19"/>
<text text-anchor="middle" x="147" y="-7" font-family="Mononoki" font-size="10.00">vector_resize</text>
</a>
</g>
</g>
<!-- Node1&#45;&gt;Node8 -->
<g id="edge9_Node000001_Node000008" class="edge">
<title>Node1&#45;&gt;Node8</title>
<g id="a_edge9_Node000001_Node000008"><a xlink:title=" ">
<path fill="none" stroke="#63b8ff" d="M31.74,-74.95C41.85,-62.26 61.41,-40.02 83,-27.5 87.15,-25.1 91.64,-22.99 96.25,-21.16"/>
<polygon fill="#63b8ff" stroke="#63b8ff" points="97.55,-24.41 105.8,-17.77 95.2,-17.82 97.55,-24.41"/>
</a>
</g>
</g>
<!-- Node3 -->
<g id="Node000003" class="node">
<title>Node3</title>
<g id="a_Node000003"><a target="_parent" xlink:href="https://evjeesm.github.io/vector/group__Vector__API.html#gab24bd801f91d4ae1ac79b54430b0409f" xlink:title=" ">
<polygon fill="white" stroke="#666666" points="348,-169 254,-169 254,-150 348,-150 348,-169"/>
<text text-anchor="middle" x="301" y="-157" font-family="Mononoki" font-size="10.00">vector_capacity</text>
</a>
</g>
</g>
<!-- Node2&#45;&gt;Node3 -->
<g id="edge2_Node000002_Node000003" class="edge">
<title>Node2&#45;&gt;Node3</title>
<g id="a_edge2_Node000002_Node000003"><a xlink:title=" ">
<path fill="none" stroke="#63b8ff" d="M194.85,-159.5C210.23,-159.5 227.49,-159.5 243.51,-159.5"/>
<polygon fill="#63b8ff" stroke="#63b8ff" points="243.83,-163 253.83,-159.5 243.83,-156 243.83,-163"/>
</a>
</g>
</g>
<!-- Node4&#45;&gt;Node5 -->
<g id="edge4_Node000004_Node000005" class="edge">
<title>Node4&#45;&gt;Node5</title>
<g id="a_edge4_Node000004_Node000005"><a xlink:title=" ">
<path fill="none" stroke="#63b8ff" d="M186.36,-112.91C206.32,-107.92 230.93,-101.77 252.13,-96.47"/>
<polygon fill="#63b8ff" stroke="#63b8ff" points="253.07,-99.84 261.92,-94.02 251.37,-93.05 253.07,-99.84"/>
</a>
</g>
</g>
<!-- Node6 -->
<g id="Node000006" class="node">
<title>Node6</title>
<g id="a_Node000006"><a target="_parent" xlink:href="https://evjeesm.github.io/vector/group__Vector__API.html#gafc2e34dbacffe6480af8681fbf46e808" xlink:title=" ">
<polygon fill="white" stroke="#666666" points="519,-94 391,-94 391,-75 519,-75 519,-94"/>
<text text-anchor="middle" x="455" y="-82" font-family="Mononoki" font-size="10.00">vector_get_ext_header</text>
</a>
</g>
</g>
<!-- Node5&#45;&gt;Node6 -->
<g id="edge5_Node000005_Node000006" class="edge">
<title>Node5&#45;&gt;Node6</title>
<g id="a_edge5_Node000005_Node000006"><a xlink:title=" ">
<path fill="none" stroke="#63b8ff" d="M355.16,-84.5C363.47,-84.5 372.18,-84.5 380.84,-84.5"/>
<polygon fill="#63b8ff" stroke="#63b8ff" points="380.95,-88 390.95,-84.5 380.95,-81 380.95,-88"/>
</a>
</g>
</g>
<!-- Node7&#45;&gt;Node5 -->
<g id="edge7_Node000007_Node000005" class="edge">
<title>Node7&#45;&gt;Node5</title>
<g id="a_edge7_Node000007_Node000005"><a xlink:title=" ">
<path fill="none" stroke="#63b8ff" d="M183.64,-55.41C204.03,-60.51 229.89,-66.97 252.04,-72.51"/>
<polygon fill="#63b8ff" stroke="#63b8ff" points="251.38,-75.95 261.93,-74.98 253.08,-69.16 251.38,-75.95"/>
</a>
</g>
</g>
</g>
</svg>
