<?xml version="1.0" encoding="UTF-8" standalone="no"?>
<!DOCTYPE svg PUBLIC "-//W3C//DTD SVG 1.1//EN"
 "http://www.w3.org/Graphics/SVG/1.1/DTD/svg11.dtd">
<!-- Generated by graphviz version 2.43.0 (0)
 -->
<!-- Title: dynarr_binary_reserve Pages: 1 -->
<svg width="1010pt" height="232pt"
 viewBox="0.00 0.00 1010.00 231.59" xmlns="http://www.w3.org/2000/svg" xmlns:xlink="http://www.w3.org/1999/xlink">
<g id="graph0" class="graph" transform="scale(1 1) rotate(0) translate(4 227.59)">
<title>dynarr_binary_reserve</title>
<!-- Node1 -->
<g id="Node000001" class="node">
<title>Node1</title>
<g id="a_Node000001"><a xlink:title="Reserve space for an element in sorted dynarr.">
<polygon fill="#999999" stroke="#666666" points="126,-118 0,-118 0,-99 126,-99 126,-118"/>
<text text-anchor="middle" x="63" y="-106" font-family="Mononoki" font-size="10.00">dynarr_binary_reserve</text>
</a>
</g>
</g>
<!-- Node2 -->
<g id="Node000002" class="node">
<title>Node2</title>
<g id="a_Node000002"><a xlink:href="group__Elements.html#ga5f6a46fc8cc0cfe14d98926cadbaa35d" target="_top" xlink:title="Binary search for binary insert support.">
<polygon fill="white" stroke="#666666" points="269,-123.5 162,-123.5 162,-93.5 269,-93.5 269,-123.5"/>
<text text-anchor="start" x="170" y="-111.5" font-family="Mononoki" font-size="10.00">dynarr_binary_find</text>
<text text-anchor="middle" x="215.5" y="-100.5" font-family="Mononoki" font-size="10.00">_insert_place</text>
</a>
</g>
</g>
<!-- Node1&#45;&gt;Node2 -->
<g id="edge1_Node000001_Node000002" class="edge">
<title>Node1&#45;&gt;Node2</title>
<g id="a_edge1_Node000001_Node000002"><a xlink:title=" ">
<path fill="none" stroke="#63b8ff" d="M126.08,-108.5C134.49,-108.5 143.12,-108.5 151.54,-108.5"/>
<polygon fill="#63b8ff" stroke="#63b8ff" points="151.67,-112 161.67,-108.5 151.67,-105 151.67,-112"/>
</a>
</g>
</g>
<!-- Node9 -->
<g id="Node000009" class="node">
<title>Node9</title>
<g id="a_Node000009"><a xlink:href="group__Auto-resize.html#ga036b69c5b674d3ac22027b04ba235b42" target="_top" xlink:title=" ">
<polygon fill="white" stroke="#666666" points="524.5,-56 483.5,-56 483.5,-37 524.5,-37 524.5,-56"/>
<text text-anchor="middle" x="504" y="-44" font-family="Mononoki" font-size="10.00">grow</text>
</a>
</g>
</g>
<!-- Node1&#45;&gt;Node9 -->
<g id="edge10_Node000001_Node000009" class="edge">
<title>Node1&#45;&gt;Node9</title>
<g id="a_edge10_Node000001_Node000009"><a xlink:title=" ">
<path fill="none" stroke="#63b8ff" d="M98.24,-98.96C116.95,-94.04 140.61,-88.29 162,-84.5 276.02,-64.27 413.51,-52.85 473.08,-48.53"/>
<polygon fill="#63b8ff" stroke="#63b8ff" points="473.54,-52 483.27,-47.8 473.04,-45.02 473.54,-52"/>
</a>
</g>
</g>
<!-- Node13 -->
<g id="Node000013" class="node">
<title>Node13</title>
<g id="a_Node000013"><a xlink:href="group__Auto-resize.html#gadb26f84b95f0ca45c7ccbd72e337485a" target="_top" xlink:title=" ">
<polygon fill="white" stroke="#666666" points="403,-198 311,-198 311,-179 403,-179 403,-198"/>
<text text-anchor="middle" x="357" y="-186" font-family="Mononoki" font-size="10.00">make_space_at</text>
</a>
</g>
</g>
<!-- Node1&#45;&gt;Node13 -->
<g id="edge16_Node000001_Node000013" class="edge">
<title>Node1&#45;&gt;Node13</title>
<g id="a_edge16_Node000001_Node000013"><a xlink:title=" ">
<path fill="none" stroke="#63b8ff" d="M98.93,-118.07C152.02,-132.62 253,-160.28 311.35,-176.27"/>
<polygon fill="#63b8ff" stroke="#63b8ff" points="310.46,-179.65 321.03,-178.92 312.31,-172.9 310.46,-179.65"/>
</a>
</g>
</g>
<!-- Node3 -->
<g id="Node000003" class="node">
<title>Node3</title>
<g id="a_Node000003"><a xlink:href="dynarr_8c.html#a187b18732062f4f69486553f37697739" target="_top" xlink:title=" ">
<polygon fill="white" stroke="#666666" points="409,-142.5 305,-142.5 305,-112.5 409,-112.5 409,-142.5"/>
<text text-anchor="start" x="313" y="-130.5" font-family="Mononoki" font-size="10.00">binary_find_insert</text>
<text text-anchor="middle" x="357" y="-119.5" font-family="Mononoki" font-size="10.00">_place</text>
</a>
</g>
</g>
<!-- Node2&#45;&gt;Node3 -->
<g id="edge2_Node000002_Node000003" class="edge">
<title>Node2&#45;&gt;Node3</title>
<g id="a_edge2_Node000002_Node000003"><a xlink:title=" ">
<path fill="none" stroke="#63b8ff" d="M269.24,-115.68C277.47,-116.8 286.03,-117.97 294.43,-119.11"/>
<polygon fill="#63b8ff" stroke="#63b8ff" points="294.19,-122.61 304.57,-120.5 295.14,-115.68 294.19,-122.61"/>
</a>
</g>
</g>
<!-- Node5 -->
<g id="Node000005" class="node">
<title>Node5</title>
<g id="a_Node000005"><a xlink:href="group__Properties.html#gaf5c43e2644d185b9b01065af34ed6e29" target="_top" xlink:title="Access size property of a dynarr.">
<polygon fill="white" stroke="#666666" points="683,-132 610,-132 610,-113 683,-113 683,-132"/>
<text text-anchor="middle" x="646.5" y="-120" font-family="Mononoki" font-size="10.00">dynarr_size</text>
</a>
</g>
</g>
<!-- Node2&#45;&gt;Node5 -->
<g id="edge9_Node000002_Node000005" class="edge">
<title>Node2&#45;&gt;Node5</title>
<g id="a_edge9_Node000002_Node000005"><a xlink:title=" ">
<path fill="none" stroke="#63b8ff" d="M269.24,-103.91C337.33,-98.89 459.41,-92.99 563,-104.5 574.95,-105.83 587.7,-108.15 599.52,-110.7"/>
<polygon fill="#63b8ff" stroke="#63b8ff" points="599.1,-114.19 609.63,-112.97 600.64,-107.36 599.1,-114.19"/>
</a>
</g>
</g>
<!-- Node3&#45;&gt;Node3 -->
<g id="edge3_Node000003_Node000003" class="edge">
<title>Node3&#45;&gt;Node3</title>
<g id="a_edge3_Node000003_Node000003"><a xlink:title=" ">
<path fill="none" stroke="#63b8ff" d="M332.39,-142.78C326.92,-151.91 335.12,-160.5 357,-160.5 369.99,-160.5 378.16,-157.47 381.51,-153.1"/>
<polygon fill="#63b8ff" stroke="#63b8ff" points="385.01,-152.81 381.61,-142.78 378.01,-152.74 385.01,-152.81"/>
</a>
</g>
</g>
<!-- Node4 -->
<g id="Node000004" class="node">
<title>Node4</title>
<g id="a_Node000004"><a xlink:href="group__Elements.html#ga93c32dd116523090126d427cce08e114" target="_top" xlink:title="Returns pointer for the element at index.">
<polygon fill="white" stroke="#666666" points="538.5,-132 469.5,-132 469.5,-113 538.5,-113 538.5,-132"/>
<text text-anchor="middle" x="504" y="-120" font-family="Mononoki" font-size="10.00">dynarr_get</text>
</a>
</g>
</g>
<!-- Node3&#45;&gt;Node4 -->
<g id="edge4_Node000003_Node000004" class="edge">
<title>Node3&#45;&gt;Node4</title>
<g id="a_edge4_Node000003_Node000004"><a xlink:title=" ">
<path fill="none" stroke="#63b8ff" d="M409.12,-125.74C425.44,-125.17 443.35,-124.56 459.11,-124.01"/>
<polygon fill="#63b8ff" stroke="#63b8ff" points="459.24,-127.51 469.12,-123.67 459,-120.52 459.24,-127.51"/>
</a>
</g>
</g>
<!-- Node4&#45;&gt;Node5 -->
<g id="edge5_Node000004_Node000005" class="edge">
<title>Node4&#45;&gt;Node5</title>
<g id="a_edge5_Node000004_Node000005"><a xlink:title=" ">
<path fill="none" stroke="#63b8ff" d="M538.65,-122.5C556.9,-122.5 579.73,-122.5 599.59,-122.5"/>
<polygon fill="#63b8ff" stroke="#63b8ff" points="599.67,-126 609.67,-122.5 599.67,-119 599.67,-126"/>
</a>
</g>
</g>
<!-- Node8 -->
<g id="Node000008" class="node">
<title>Node8</title>
<g id="a_Node000008"><a target="_parent" xlink:href="https://evjeesm.github.io/vector/group__Elements.html#ga9437d9506a3b2799f595c88b82f160b3" xlink:title=" ">
<polygon fill="white" stroke="#666666" points="680.5,-169 612.5,-169 612.5,-150 680.5,-150 680.5,-169"/>
<text text-anchor="middle" x="646.5" y="-157" font-family="Mononoki" font-size="10.00">vector_get</text>
</a>
</g>
</g>
<!-- Node4&#45;&gt;Node8 -->
<g id="edge8_Node000004_Node000008" class="edge">
<title>Node4&#45;&gt;Node8</title>
<g id="a_edge8_Node000004_Node000008"><a xlink:title=" ">
<path fill="none" stroke="#63b8ff" d="M538.65,-131.36C557.77,-136.4 581.9,-142.75 602.39,-148.15"/>
<polygon fill="#63b8ff" stroke="#63b8ff" points="601.56,-151.55 612.12,-150.71 603.34,-144.78 601.56,-151.55"/>
</a>
</g>
</g>
<!-- Node6 -->
<g id="Node000006" class="node">
<title>Node6</title>
<g id="a_Node000006"><a xlink:href="dynarr_8c.html#a73f42f3f25cd0920d8039d63ea31be07" target="_top" xlink:title=" ">
<polygon fill="white" stroke="#666666" points="838,-132 730,-132 730,-113 838,-113 838,-132"/>
<text text-anchor="middle" x="784" y="-120" font-family="Mononoki" font-size="10.00">get_dynarr_header</text>
</a>
</g>
</g>
<!-- Node5&#45;&gt;Node6 -->
<g id="edge6_Node000005_Node000006" class="edge">
<title>Node5&#45;&gt;Node6</title>
<g id="a_edge6_Node000005_Node000006"><a xlink:title=" ">
<path fill="none" stroke="#63b8ff" d="M683.1,-122.5C694.36,-122.5 707.16,-122.5 719.76,-122.5"/>
<polygon fill="#63b8ff" stroke="#63b8ff" points="719.78,-126 729.78,-122.5 719.78,-119 719.78,-126"/>
</a>
</g>
</g>
<!-- Node7 -->
<g id="Node000007" class="node">
<title>Node7</title>
<g id="a_Node000007"><a target="_parent" xlink:href="https://evjeesm.github.io/vector/group__Extension.html#gafc2e34dbacffe6480af8681fbf46e808" xlink:title=" ">
<polygon fill="white" stroke="#666666" points="1002,-132 874,-132 874,-113 1002,-113 1002,-132"/>
<text text-anchor="middle" x="938" y="-120" font-family="Mononoki" font-size="10.00">vector_get_ext_header</text>
</a>
</g>
</g>
<!-- Node6&#45;&gt;Node7 -->
<g id="edge7_Node000006_Node000007" class="edge">
<title>Node6&#45;&gt;Node7</title>
<g id="a_edge7_Node000006_Node000007"><a xlink:title=" ">
<path fill="none" stroke="#63b8ff" d="M838.16,-122.5C846.47,-122.5 855.18,-122.5 863.84,-122.5"/>
<polygon fill="#63b8ff" stroke="#63b8ff" points="863.95,-126 873.95,-122.5 863.95,-119 863.95,-126"/>
</a>
</g>
</g>
<!-- Node9&#45;&gt;Node5 -->
<g id="edge13_Node000009_Node000005" class="edge">
<title>Node9&#45;&gt;Node5</title>
<g id="a_edge13_Node000009_Node000005"><a xlink:title=" ">
<path fill="none" stroke="#63b8ff" d="M524.69,-53.14C536.21,-57.39 550.85,-63.43 563,-70.5 580.52,-80.69 581.92,-87.58 599,-98.5 604.2,-101.82 609.91,-105.07 615.5,-108.05"/>
<polygon fill="#63b8ff" stroke="#63b8ff" points="614.18,-111.31 624.67,-112.78 617.39,-105.09 614.18,-111.31"/>
</a>
</g>
</g>
<!-- Node9&#45;&gt;Node6 -->
<g id="edge14_Node000009_Node000006" class="edge">
<title>Node9&#45;&gt;Node6</title>
<g id="a_edge14_Node000009_Node000006"><a xlink:title=" ">
<path fill="none" stroke="#63b8ff" d="M524.55,-51.84C568.57,-63.88 676.41,-93.36 737.98,-110.19"/>
<polygon fill="#63b8ff" stroke="#63b8ff" points="737.25,-113.62 747.82,-112.88 739.09,-106.87 737.25,-113.62"/>
</a>
</g>
</g>
<!-- Node10 -->
<g id="Node000010" class="node">
<title>Node10</title>
<g id="a_Node000010"><a xlink:href="group__Properties.html#ga3ff11107726213a640d814b63cb123b2" target="_top" xlink:title="Access current capacity of the dynarr.">
<polygon fill="white" stroke="#666666" points="694,-19 599,-19 599,0 694,0 694,-19"/>
<text text-anchor="middle" x="646.5" y="-7" font-family="Mononoki" font-size="10.00">dynarr_capacity</text>
</a>
</g>
</g>
<!-- Node9&#45;&gt;Node10 -->
<g id="edge11_Node000009_Node000010" class="edge">
<title>Node9&#45;&gt;Node10</title>
<g id="a_edge11_Node000009_Node000010"><a xlink:title=" ">
<path fill="none" stroke="#63b8ff" d="M524.54,-41.36C543.84,-36.27 574.08,-28.31 599.5,-21.61"/>
<polygon fill="#63b8ff" stroke="#63b8ff" points="600.55,-24.96 609.33,-19.03 598.77,-18.19 600.55,-24.96"/>
</a>
</g>
</g>
<!-- Node12 -->
<g id="Node000012" class="node">
<title>Node12</title>
<g id="a_Node000012"><a target="_parent" xlink:href="https://evjeesm.github.io/vector/group__Lifetime.html#ga6e5077303af4dfe720af5a0608553922" xlink:title=" ">
<polygon fill="white" stroke="#666666" points="687.5,-56 605.5,-56 605.5,-37 687.5,-37 687.5,-56"/>
<text text-anchor="middle" x="646.5" y="-44" font-family="Mononoki" font-size="10.00">vector_resize</text>
</a>
</g>
</g>
<!-- Node9&#45;&gt;Node12 -->
<g id="edge15_Node000009_Node000012" class="edge">
<title>Node9&#45;&gt;Node12</title>
<g id="a_edge15_Node000009_Node000012"><a xlink:title=" ">
<path fill="none" stroke="#63b8ff" d="M524.54,-46.5C542.75,-46.5 570.69,-46.5 595.13,-46.5"/>
<polygon fill="#63b8ff" stroke="#63b8ff" points="595.36,-50 605.36,-46.5 595.36,-43 595.36,-50"/>
</a>
</g>
</g>
<!-- Node11 -->
<g id="Node000011" class="node">
<title>Node11</title>
<g id="a_Node000011"><a target="_parent" xlink:href="https://evjeesm.github.io/vector/group__Properties.html#gab24bd801f91d4ae1ac79b54430b0409f" xlink:title=" ">
<polygon fill="white" stroke="#666666" points="831,-19 737,-19 737,0 831,0 831,-19"/>
<text text-anchor="middle" x="784" y="-7" font-family="Mononoki" font-size="10.00">vector_capacity</text>
</a>
</g>
</g>
<!-- Node10&#45;&gt;Node11 -->
<g id="edge12_Node000010_Node000011" class="edge">
<title>Node10&#45;&gt;Node11</title>
<g id="a_edge12_Node000010_Node000011"><a xlink:title=" ">
<path fill="none" stroke="#63b8ff" d="M694.13,-9.5C704.57,-9.5 715.76,-9.5 726.55,-9.5"/>
<polygon fill="#63b8ff" stroke="#63b8ff" points="726.74,-13 736.74,-9.5 726.74,-6 726.74,-13"/>
</a>
</g>
</g>
<!-- Node13&#45;&gt;Node4 -->
<g id="edge17_Node000013_Node000004" class="edge">
<title>Node13&#45;&gt;Node4</title>
<g id="a_edge17_Node000013_Node000004"><a xlink:title=" ">
<path fill="none" stroke="#63b8ff" d="M386.78,-178.99C394.15,-176.23 401.98,-173 409,-169.5 425.99,-161.03 428.16,-155.27 445,-146.5 452.2,-142.75 460.13,-139.14 467.74,-135.92"/>
<polygon fill="#63b8ff" stroke="#63b8ff" points="469.22,-139.1 477.15,-132.06 466.57,-132.62 469.22,-139.1"/>
</a>
</g>
</g>
<!-- Node13&#45;&gt;Node5 -->
<g id="edge18_Node000013_Node000005" class="edge">
<title>Node13&#45;&gt;Node5</title>
<g id="a_edge18_Node000013_Node000005"><a xlink:title=" ">
<path fill="none" stroke="#63b8ff" d="M399.62,-178.97C441.04,-169.48 506.42,-154.5 563,-141.5 574.97,-138.75 587.93,-135.77 599.94,-133"/>
<polygon fill="#63b8ff" stroke="#63b8ff" points="600.81,-136.39 609.77,-130.74 599.24,-129.57 600.81,-136.39"/>
</a>
</g>
</g>
<!-- Node13&#45;&gt;Node6 -->
<g id="edge19_Node000013_Node000006" class="edge">
<title>Node13&#45;&gt;Node6</title>
<g id="a_edge19_Node000013_Node000006"><a xlink:title=" ">
<path fill="none" stroke="#63b8ff" d="M380.03,-198.04C397.33,-204.99 422.21,-213.8 445,-217.5 496.77,-225.9 511.1,-225.06 563,-217.5 623.11,-208.74 638.67,-203.57 694,-178.5 718.64,-167.33 744.57,-150.33 762.05,-137.99"/>
<polygon fill="#63b8ff" stroke="#63b8ff" points="764.28,-140.7 770.36,-132.02 760.2,-135.01 764.28,-140.7"/>
</a>
</g>
</g>
<!-- Node14 -->
<g id="Node000014" class="node">
<title>Node14</title>
<g id="a_Node000014"><a target="_parent" xlink:href="https://evjeesm.github.io/vector/group__Properties.html#gaae93d7f0c056c1d11d3232a7a7aa5e09" xlink:title=" ">
<polygon fill="white" stroke="#666666" points="563,-208 445,-208 445,-189 563,-189 563,-208"/>
<text text-anchor="middle" x="504" y="-196" font-family="Mononoki" font-size="10.00">vector_element_size</text>
</a>
</g>
</g>
<!-- Node13&#45;&gt;Node14 -->
<g id="edge20_Node000013_Node000014" class="edge">
<title>Node13&#45;&gt;Node14</title>
<g id="a_edge20_Node000013_Node000014"><a xlink:title=" ">
<path fill="none" stroke="#63b8ff" d="M403.08,-191.61C413.1,-192.3 423.94,-193.05 434.65,-193.79"/>
<polygon fill="#63b8ff" stroke="#63b8ff" points="434.64,-197.29 444.86,-194.49 435.12,-190.31 434.64,-197.29"/>
</a>
</g>
</g>
</g>
</svg>
