<?xml version="1.0" encoding="UTF-8" standalone="no"?>
<!DOCTYPE svg PUBLIC "-//W3C//DTD SVG 1.1//EN"
 "http://www.w3.org/Graphics/SVG/1.1/DTD/svg11.dtd">
<!-- Generated by graphviz version 2.43.0 (0)
 -->
<!-- Title: dynarr_binary_merge Pages: 1 -->
<svg width="1134pt" height="534pt"
 viewBox="0.00 0.00 1134.00 534.24" xmlns="http://www.w3.org/2000/svg" xmlns:xlink="http://www.w3.org/1999/xlink">
<g id="graph0" class="graph" transform="scale(1 1) rotate(0) translate(4 530.24)">
<title>dynarr_binary_merge</title>
<!-- Node1 -->
<g id="Node000001" class="node">
<title>Node1</title>
<g id="a_Node000001"><a xlink:title="Non&#45;destructive merge of two sorted dynarrs.">
<polygon fill="#999999" stroke="#666666" points="121,-323 0,-323 0,-304 121,-304 121,-323"/>
<text text-anchor="middle" x="60.5" y="-311" font-family="Mononoki" font-size="10.00">dynarr_binary_merge</text>
</a>
</g>
</g>
<!-- Node2 -->
<g id="Node000002" class="node">
<title>Node2</title>
<g id="a_Node000002"><a xlink:href="group__Elements.html#ga1e7f043863514d809cd6446053f6dc47" target="_top" xlink:title="Appends an element to the tail of a dynarr.">
<polygon fill="white" stroke="#666666" points="246.5,-247 157.5,-247 157.5,-228 246.5,-228 246.5,-247"/>
<text text-anchor="middle" x="202" y="-235" font-family="Mononoki" font-size="10.00">dynarr_append</text>
</a>
</g>
</g>
<!-- Node1&#45;&gt;Node2 -->
<g id="edge1_Node000001_Node000002" class="edge">
<title>Node1&#45;&gt;Node2</title>
<g id="a_edge1_Node000001_Node000002"><a xlink:title=" ">
<path fill="none" stroke="#63b8ff" d="M79.17,-303.87C103.28,-290.74 146.67,-267.1 174.63,-251.86"/>
<polygon fill="#63b8ff" stroke="#63b8ff" points="176.37,-254.9 183.48,-247.05 173.02,-248.76 176.37,-254.9"/>
</a>
</g>
</g>
<!-- Node5 -->
<g id="Node000005" class="node">
<title>Node5</title>
<g id="a_Node000005"><a xlink:href="group__Properties.html#gaf5c43e2644d185b9b01065af34ed6e29" target="_top" xlink:title="Access size property of a dynarr.">
<polygon fill="white" stroke="#666666" points="790.5,-172 717.5,-172 717.5,-153 790.5,-153 790.5,-172"/>
<text text-anchor="middle" x="754" y="-160" font-family="Mononoki" font-size="10.00">dynarr_size</text>
</a>
</g>
</g>
<!-- Node1&#45;&gt;Node5 -->
<g id="edge28_Node000001_Node000005" class="edge">
<title>Node1&#45;&gt;Node5</title>
<g id="a_edge28_Node000001_Node000005"><a xlink:title=" ">
<path fill="none" stroke="#63b8ff" d="M65.36,-303.72C85.03,-255.73 178.85,-47.5 326.5,-47.5 326.5,-47.5 326.5,-47.5 455,-47.5 564.66,-47.5 682.73,-116.12 730.77,-147.35"/>
<polygon fill="#63b8ff" stroke="#63b8ff" points="728.89,-150.3 739.17,-152.89 732.75,-144.46 728.89,-150.3"/>
</a>
</g>
</g>
<!-- Node14 -->
<g id="Node000014" class="node">
<title>Node14</title>
<g id="a_Node000014"><a xlink:href="group__Elements.html#ga93c32dd116523090126d427cce08e114" target="_top" xlink:title="Returns pointer for the element at index.">
<polygon fill="white" stroke="#666666" points="629.5,-361 560.5,-361 560.5,-342 629.5,-342 629.5,-361"/>
<text text-anchor="middle" x="595" y="-349" font-family="Mononoki" font-size="10.00">dynarr_get</text>
</a>
</g>
</g>
<!-- Node1&#45;&gt;Node14 -->
<g id="edge27_Node000001_Node000014" class="edge">
<title>Node1&#45;&gt;Node14</title>
<g id="a_edge27_Node000001_Node000014"><a xlink:title=" ">
<path fill="none" stroke="#63b8ff" d="M121.03,-317.75C229.07,-325.46 455.02,-341.58 550.22,-348.38"/>
<polygon fill="#63b8ff" stroke="#63b8ff" points="550.14,-351.88 560.36,-349.1 550.64,-344.9 550.14,-351.88"/>
</a>
</g>
</g>
<!-- Node17 -->
<g id="Node000017" class="node">
<title>Node17</title>
<g id="a_Node000017"><a xlink:href="group__Lifetime.html#ga99f1163f1932f71f0229a7340df68efb" target="_top" xlink:title="Constructor of the dynamic array.">
<polygon fill="white" stroke="#666666" points="372,-493 283,-493 283,-474 372,-474 372,-493"/>
<text text-anchor="middle" x="327.5" y="-481" font-family="Mononoki" font-size="10.00">dynarr_create_</text>
</a>
</g>
</g>
<!-- Node1&#45;&gt;Node17 -->
<g id="edge23_Node000001_Node000017" class="edge">
<title>Node1&#45;&gt;Node17</title>
<g id="a_edge23_Node000001_Node000017"><a xlink:title=" ">
<path fill="none" stroke="#63b8ff" d="M69.89,-323.22C85.58,-340.95 121.05,-378.99 157,-403.5 199.76,-432.65 254.81,-456.46 290.38,-470.31"/>
<polygon fill="#63b8ff" stroke="#63b8ff" points="289.28,-473.64 299.87,-473.95 291.78,-467.1 289.28,-473.64"/>
</a>
</g>
</g>
<!-- Node18 -->
<g id="Node000018" class="node">
<title>Node18</title>
<g id="a_Node000018"><a xlink:href="group__Lifetime.html#gaebbaac3879771d77aa20068a26952197" target="_top" xlink:title="Deallocates a dynamic array.">
<polygon fill="white" stroke="#666666" points="247,-19 157,-19 157,0 247,0 247,-19"/>
<text text-anchor="middle" x="202" y="-7" font-family="Mononoki" font-size="10.00">dynarr_destroy</text>
</a>
</g>
</g>
<!-- Node1&#45;&gt;Node18 -->
<g id="edge25_Node000001_Node000018" class="edge">
<title>Node1&#45;&gt;Node18</title>
<g id="a_edge25_Node000001_Node000018"><a xlink:title=" ">
<path fill="none" stroke="#63b8ff" d="M62.29,-303.84C65.91,-265.25 84.04,-120.11 157,-33.5 159.92,-30.04 163.47,-26.99 167.27,-24.33"/>
<polygon fill="#63b8ff" stroke="#63b8ff" points="169.12,-27.31 175.86,-19.13 165.49,-21.32 169.12,-27.31"/>
</a>
</g>
</g>
<!-- Node20 -->
<g id="Node000020" class="node">
<title>Node20</title>
<g id="a_Node000020"><a xlink:href="dynarr_8c.html#a498b4e9fc56a6e87a6c5ca525026a9ed" target="_top" xlink:title=" ">
<polygon fill="white" stroke="#666666" points="483.5,-417 424.5,-417 424.5,-398 483.5,-398 483.5,-417"/>
<text text-anchor="middle" x="454" y="-405" font-family="Mononoki" font-size="10.00">get_opts</text>
</a>
</g>
</g>
<!-- Node1&#45;&gt;Node20 -->
<g id="edge29_Node000001_Node000020" class="edge">
<title>Node1&#45;&gt;Node20</title>
<g id="a_edge29_Node000001_Node000020"><a xlink:title=" ">
<path fill="none" stroke="#63b8ff" d="M75.33,-323.12C93.28,-335.1 126,-355.23 157,-365.5 246.06,-394.99 356.92,-403.78 414.39,-406.39"/>
<polygon fill="#63b8ff" stroke="#63b8ff" points="414.35,-409.89 424.49,-406.81 414.64,-402.9 414.35,-409.89"/>
</a>
</g>
</g>
<!-- Node3 -->
<g id="Node000003" class="node">
<title>Node3</title>
<g id="a_Node000003"><a xlink:href="group__Elements.html#gab449a79e6b33f55af35329df4363336e" target="_top" xlink:title="Inserts new element into a dynarr.">
<polygon fill="white" stroke="#666666" points="368,-247 287,-247 287,-228 368,-228 368,-247"/>
<text text-anchor="middle" x="327.5" y="-235" font-family="Mononoki" font-size="10.00">dynarr_insert</text>
</a>
</g>
</g>
<!-- Node2&#45;&gt;Node3 -->
<g id="edge2_Node000002_Node000003" class="edge">
<title>Node2&#45;&gt;Node3</title>
<g id="a_edge2_Node000002_Node000003"><a xlink:title=" ">
<path fill="none" stroke="#63b8ff" d="M246.54,-237.5C256.23,-237.5 266.58,-237.5 276.5,-237.5"/>
<polygon fill="#63b8ff" stroke="#63b8ff" points="276.65,-241 286.65,-237.5 276.65,-234 276.65,-241"/>
</a>
</g>
</g>
<!-- Node2&#45;&gt;Node5 -->
<g id="edge22_Node000002_Node000005" class="edge">
<title>Node2&#45;&gt;Node5</title>
<g id="a_edge22_Node000002_Node000005"><a xlink:title=" ">
<path fill="none" stroke="#63b8ff" d="M220.72,-227.9C255.46,-209.62 335.46,-170.15 408,-153.5 514.62,-129.02 545,-136.21 654,-145.5 671.56,-147 690.67,-149.96 707.39,-153"/>
<polygon fill="#63b8ff" stroke="#63b8ff" points="706.97,-156.48 717.45,-154.89 708.26,-149.6 706.97,-156.48"/>
</a>
</g>
</g>
<!-- Node4 -->
<g id="Node000004" class="node">
<title>Node4</title>
<g id="a_Node000004"><a xlink:href="group__Elements.html#ga30d508a9f387e2227dd0d72a8bfd2a39" target="_top" xlink:title="Sets element at given index to a value.">
<polygon fill="white" stroke="#666666" points="488,-209 420,-209 420,-190 488,-190 488,-209"/>
<text text-anchor="middle" x="454" y="-197" font-family="Mononoki" font-size="10.00">dynarr_set</text>
</a>
</g>
</g>
<!-- Node3&#45;&gt;Node4 -->
<g id="edge3_Node000003_Node000004" class="edge">
<title>Node3&#45;&gt;Node4</title>
<g id="a_edge3_Node000003_Node000004"><a xlink:title=" ">
<path fill="none" stroke="#63b8ff" d="M359.92,-227.91C375.69,-223.1 395.01,-217.2 411.94,-212.03"/>
<polygon fill="#63b8ff" stroke="#63b8ff" points="413.05,-215.35 421.59,-209.09 411.01,-208.66 413.05,-215.35"/>
</a>
</g>
</g>
<!-- Node3&#45;&gt;Node5 -->
<g id="edge8_Node000003_Node000005" class="edge">
<title>Node3&#45;&gt;Node5</title>
<g id="a_edge8_Node000003_Node000005"><a xlink:title=" ">
<path fill="none" stroke="#63b8ff" d="M338.84,-227.71C353.16,-214.8 380.37,-192.43 408,-181.5 508.94,-141.57 639.56,-148.6 707.47,-156.15"/>
<polygon fill="#63b8ff" stroke="#63b8ff" points="707.08,-159.63 717.42,-157.31 707.89,-152.67 707.08,-159.63"/>
</a>
</g>
</g>
<!-- Node9 -->
<g id="Node000009" class="node">
<title>Node9</title>
<g id="a_Node000009"><a xlink:href="group__Auto-resize.html#ga036b69c5b674d3ac22027b04ba235b42" target="_top" xlink:title=" ">
<polygon fill="white" stroke="#666666" points="615.5,-285 574.5,-285 574.5,-266 615.5,-266 615.5,-285"/>
<text text-anchor="middle" x="595" y="-273" font-family="Mononoki" font-size="10.00">grow</text>
</a>
</g>
</g>
<!-- Node3&#45;&gt;Node9 -->
<g id="edge9_Node000003_Node000009" class="edge">
<title>Node3&#45;&gt;Node9</title>
<g id="a_edge9_Node000003_Node000009"><a xlink:title=" ">
<path fill="none" stroke="#63b8ff" d="M368.25,-243.19C421.91,-250.87 516.31,-264.38 564.26,-271.24"/>
<polygon fill="#63b8ff" stroke="#63b8ff" points="563.9,-274.73 574.3,-272.68 564.9,-267.8 563.9,-274.73"/>
</a>
</g>
</g>
<!-- Node13 -->
<g id="Node000013" class="node">
<title>Node13</title>
<g id="a_Node000013"><a xlink:href="group__Auto-resize.html#gadb26f84b95f0ca45c7ccbd72e337485a" target="_top" xlink:title=" ">
<polygon fill="white" stroke="#666666" points="500,-323 408,-323 408,-304 500,-304 500,-323"/>
<text text-anchor="middle" x="454" y="-311" font-family="Mononoki" font-size="10.00">make_space_at</text>
</a>
</g>
</g>
<!-- Node3&#45;&gt;Node13 -->
<g id="edge15_Node000003_Node000013" class="edge">
<title>Node3&#45;&gt;Node13</title>
<g id="a_edge15_Node000003_Node000013"><a xlink:title=" ">
<path fill="none" stroke="#63b8ff" d="M344.27,-247.13C365.6,-260.15 403.84,-283.49 428.81,-298.74"/>
<polygon fill="#63b8ff" stroke="#63b8ff" points="427,-301.73 437.36,-303.95 430.65,-295.75 427,-301.73"/>
</a>
</g>
</g>
<!-- Node4&#45;&gt;Node5 -->
<g id="edge4_Node000004_Node000005" class="edge">
<title>Node4&#45;&gt;Node5</title>
<g id="a_edge4_Node000004_Node000005"><a xlink:title=" ">
<path fill="none" stroke="#63b8ff" d="M488.31,-191.06C502.87,-187.64 520.2,-183.94 536,-181.5 594.82,-172.43 663.34,-167.33 707.39,-164.75"/>
<polygon fill="#63b8ff" stroke="#63b8ff" points="707.71,-168.24 717.5,-164.17 707.32,-161.25 707.71,-168.24"/>
</a>
</g>
</g>
<!-- Node8 -->
<g id="Node000008" class="node">
<title>Node8</title>
<g id="a_Node000008"><a target="_parent" xlink:href="https://evjeesm.github.io/vector/group__Vector__API.html#gab3a5e466261d31ee9edd77a5eb280030" xlink:title=" ">
<polygon fill="white" stroke="#666666" points="629,-209 561,-209 561,-190 629,-190 629,-209"/>
<text text-anchor="middle" x="595" y="-197" font-family="Mononoki" font-size="10.00">vector_set</text>
</a>
</g>
</g>
<!-- Node4&#45;&gt;Node8 -->
<g id="edge7_Node000004_Node000008" class="edge">
<title>Node4&#45;&gt;Node8</title>
<g id="a_edge7_Node000004_Node000008"><a xlink:title=" ">
<path fill="none" stroke="#63b8ff" d="M488.29,-199.5C507.03,-199.5 530.65,-199.5 550.8,-199.5"/>
<polygon fill="#63b8ff" stroke="#63b8ff" points="550.98,-203 560.98,-199.5 550.98,-196 550.98,-203"/>
</a>
</g>
</g>
<!-- Node6 -->
<g id="Node000006" class="node">
<title>Node6</title>
<g id="a_Node000006"><a xlink:href="dynarr_8c.html#a73f42f3f25cd0920d8039d63ea31be07" target="_top" xlink:title=" ">
<polygon fill="white" stroke="#666666" points="962,-379 854,-379 854,-360 962,-360 962,-379"/>
<text text-anchor="middle" x="908" y="-367" font-family="Mononoki" font-size="10.00">get_dynarr_header</text>
</a>
</g>
</g>
<!-- Node5&#45;&gt;Node6 -->
<g id="edge5_Node000005_Node000006" class="edge">
<title>Node5&#45;&gt;Node6</title>
<g id="a_edge5_Node000005_Node000006"><a xlink:title=" ">
<path fill="none" stroke="#63b8ff" d="M790.62,-168.36C800.34,-171.33 810.3,-175.79 818,-182.5 870.54,-228.3 894.54,-311.97 903.1,-349.89"/>
<polygon fill="#63b8ff" stroke="#63b8ff" points="899.69,-350.66 905.2,-359.7 906.53,-349.19 899.69,-350.66"/>
</a>
</g>
</g>
<!-- Node7 -->
<g id="Node000007" class="node">
<title>Node7</title>
<g id="a_Node000007"><a target="_parent" xlink:href="https://evjeesm.github.io/vector/group__Vector__API.html#gafc2e34dbacffe6480af8681fbf46e808" xlink:title=" ">
<polygon fill="white" stroke="#666666" points="1126,-379 998,-379 998,-360 1126,-360 1126,-379"/>
<text text-anchor="middle" x="1062" y="-367" font-family="Mononoki" font-size="10.00">vector_get_ext_header</text>
</a>
</g>
</g>
<!-- Node6&#45;&gt;Node7 -->
<g id="edge6_Node000006_Node000007" class="edge">
<title>Node6&#45;&gt;Node7</title>
<g id="a_edge6_Node000006_Node000007"><a xlink:title=" ">
<path fill="none" stroke="#63b8ff" d="M962.16,-369.5C970.47,-369.5 979.18,-369.5 987.84,-369.5"/>
<polygon fill="#63b8ff" stroke="#63b8ff" points="987.95,-373 997.95,-369.5 987.95,-366 987.95,-373"/>
</a>
</g>
</g>
<!-- Node9&#45;&gt;Node5 -->
<g id="edge12_Node000009_Node000005" class="edge">
<title>Node9&#45;&gt;Node5</title>
<g id="a_edge12_Node000009_Node000005"><a xlink:title=" ">
<path fill="none" stroke="#63b8ff" d="M615.62,-271.06C627.84,-267.47 643.23,-261.36 654,-251.5 679.52,-228.15 663.51,-204.75 690,-182.5 695.2,-178.14 701.35,-174.72 707.75,-172.05"/>
<polygon fill="#63b8ff" stroke="#63b8ff" points="708.98,-175.32 717.21,-168.64 706.61,-168.74 708.98,-175.32"/>
</a>
</g>
</g>
<!-- Node9&#45;&gt;Node6 -->
<g id="edge13_Node000009_Node000006" class="edge">
<title>Node9&#45;&gt;Node6</title>
<g id="a_edge13_Node000009_Node000006"><a xlink:title=" ">
<path fill="none" stroke="#63b8ff" d="M615.58,-274.09C655.36,-271.98 747.82,-270.89 818,-299.5 847.1,-311.36 874.56,-335.7 891.08,-352.31"/>
<polygon fill="#63b8ff" stroke="#63b8ff" points="888.81,-355 898.27,-359.76 893.84,-350.13 888.81,-355"/>
</a>
</g>
</g>
<!-- Node10 -->
<g id="Node000010" class="node">
<title>Node10</title>
<g id="a_Node000010"><a xlink:href="group__Properties.html#ga3ff11107726213a640d814b63cb123b2" target="_top" xlink:title="Access current capacity of the dynarr.">
<polygon fill="white" stroke="#666666" points="801.5,-210 706.5,-210 706.5,-191 801.5,-191 801.5,-210"/>
<text text-anchor="middle" x="754" y="-198" font-family="Mononoki" font-size="10.00">dynarr_capacity</text>
</a>
</g>
</g>
<!-- Node9&#45;&gt;Node10 -->
<g id="edge10_Node000009_Node000010" class="edge">
<title>Node9&#45;&gt;Node10</title>
<g id="a_edge10_Node000009_Node000010"><a xlink:title=" ">
<path fill="none" stroke="#63b8ff" d="M615.59,-269.25C627.22,-265.09 641.99,-259.02 654,-251.5 672.14,-240.14 671.31,-229.95 690,-219.5 693.92,-217.31 698.12,-215.34 702.43,-213.58"/>
<polygon fill="#63b8ff" stroke="#63b8ff" points="703.78,-216.81 711.94,-210.06 701.35,-210.25 703.78,-216.81"/>
</a>
</g>
</g>
<!-- Node12 -->
<g id="Node000012" class="node">
<title>Node12</title>
<g id="a_Node000012"><a target="_parent" xlink:href="https://evjeesm.github.io/vector/group__Vector__API.html#ga6e5077303af4dfe720af5a0608553922" xlink:title=" ">
<polygon fill="white" stroke="#666666" points="795,-247 713,-247 713,-228 795,-228 795,-247"/>
<text text-anchor="middle" x="754" y="-235" font-family="Mononoki" font-size="10.00">vector_resize</text>
</a>
</g>
</g>
<!-- Node9&#45;&gt;Node12 -->
<g id="edge14_Node000009_Node000012" class="edge">
<title>Node9&#45;&gt;Node12</title>
<g id="a_edge14_Node000009_Node000012"><a xlink:title=" ">
<path fill="none" stroke="#63b8ff" d="M615.57,-270.76C637.5,-265.46 673.9,-256.65 703.73,-249.42"/>
<polygon fill="#63b8ff" stroke="#63b8ff" points="704.67,-252.8 713.57,-247.04 703.02,-246 704.67,-252.8"/>
</a>
</g>
</g>
<!-- Node11 -->
<g id="Node000011" class="node">
<title>Node11</title>
<g id="a_Node000011"><a target="_parent" xlink:href="https://evjeesm.github.io/vector/group__Vector__API.html#gab24bd801f91d4ae1ac79b54430b0409f" xlink:title=" ">
<polygon fill="white" stroke="#666666" points="955,-210 861,-210 861,-191 955,-191 955,-210"/>
<text text-anchor="middle" x="908" y="-198" font-family="Mononoki" font-size="10.00">vector_capacity</text>
</a>
</g>
</g>
<!-- Node10&#45;&gt;Node11 -->
<g id="edge11_Node000010_Node000011" class="edge">
<title>Node10&#45;&gt;Node11</title>
<g id="a_edge11_Node000010_Node000011"><a xlink:title=" ">
<path fill="none" stroke="#63b8ff" d="M801.85,-200.5C817.23,-200.5 834.49,-200.5 850.51,-200.5"/>
<polygon fill="#63b8ff" stroke="#63b8ff" points="850.83,-204 860.83,-200.5 850.83,-197 850.83,-204"/>
</a>
</g>
</g>
<!-- Node13&#45;&gt;Node5 -->
<g id="edge19_Node000013_Node000005" class="edge">
<title>Node13&#45;&gt;Node5</title>
<g id="a_edge19_Node000013_Node000005"><a xlink:title=" ">
<path fill="none" stroke="#63b8ff" d="M466.67,-303.82C481.84,-291.62 509.53,-270.68 536,-257.5 585.44,-232.88 606.98,-247.48 654,-218.5 673.26,-206.63 670.67,-194.26 690,-182.5 695.47,-179.17 701.55,-176.35 707.71,-173.96"/>
<polygon fill="#63b8ff" stroke="#63b8ff" points="709.1,-177.18 717.38,-170.57 706.78,-170.58 709.1,-177.18"/>
</a>
</g>
</g>
<!-- Node13&#45;&gt;Node6 -->
<g id="edge20_Node000013_Node000006" class="edge">
<title>Node13&#45;&gt;Node6</title>
<g id="a_edge20_Node000013_Node000006"><a xlink:title=" ">
<path fill="none" stroke="#63b8ff" d="M500.07,-311.28C569.34,-308.92 705.74,-308.43 818,-333.5 839.21,-338.24 861.91,-347.49 879.07,-355.43"/>
<polygon fill="#63b8ff" stroke="#63b8ff" points="877.95,-358.77 888.49,-359.91 880.96,-352.45 877.95,-358.77"/>
</a>
</g>
</g>
<!-- Node13&#45;&gt;Node14 -->
<g id="edge16_Node000013_Node000014" class="edge">
<title>Node13&#45;&gt;Node14</title>
<g id="a_edge16_Node000013_Node000014"><a xlink:title=" ">
<path fill="none" stroke="#63b8ff" d="M490.08,-323.09C508.43,-328.11 531.07,-334.3 550.53,-339.62"/>
<polygon fill="#63b8ff" stroke="#63b8ff" points="549.81,-343.05 560.37,-342.31 551.65,-336.29 549.81,-343.05"/>
</a>
</g>
</g>
<!-- Node16 -->
<g id="Node000016" class="node">
<title>Node16</title>
<g id="a_Node000016"><a target="_parent" xlink:href="https://evjeesm.github.io/vector/group__Vector__API.html#gaae93d7f0c056c1d11d3232a7a7aa5e09" xlink:title=" ">
<polygon fill="white" stroke="#666666" points="654,-398 536,-398 536,-379 654,-379 654,-398"/>
<text text-anchor="middle" x="595" y="-386" font-family="Mononoki" font-size="10.00">vector_element_size</text>
</a>
</g>
</g>
<!-- Node13&#45;&gt;Node16 -->
<g id="edge21_Node000013_Node000016" class="edge">
<title>Node13&#45;&gt;Node16</title>
<g id="a_edge21_Node000013_Node000016"><a xlink:title=" ">
<path fill="none" stroke="#63b8ff" d="M466.09,-323.02C481.06,-335.46 509,-357.22 536,-370.5 539.73,-372.33 543.68,-374.03 547.7,-375.58"/>
<polygon fill="#63b8ff" stroke="#63b8ff" points="546.53,-378.88 557.13,-378.96 548.89,-372.29 546.53,-378.88"/>
</a>
</g>
</g>
<!-- Node14&#45;&gt;Node5 -->
<g id="edge17_Node000014_Node000005" class="edge">
<title>Node14&#45;&gt;Node5</title>
<g id="a_edge17_Node000014_Node000005"><a xlink:title=" ">
<path fill="none" stroke="#63b8ff" d="M608.86,-341.96C621.96,-331.62 642,-313.97 654,-294.5 681.44,-249.99 652.96,-219.41 690,-182.5 694.97,-177.55 701.16,-173.82 707.7,-171.01"/>
<polygon fill="#63b8ff" stroke="#63b8ff" points="709.21,-174.19 717.44,-167.53 706.85,-167.6 709.21,-174.19"/>
</a>
</g>
</g>
<!-- Node15 -->
<g id="Node000015" class="node">
<title>Node15</title>
<g id="a_Node000015"><a target="_parent" xlink:href="https://evjeesm.github.io/vector/group__Vector__API.html#ga9437d9506a3b2799f595c88b82f160b3" xlink:title=" ">
<polygon fill="white" stroke="#666666" points="788,-361 720,-361 720,-342 788,-342 788,-361"/>
<text text-anchor="middle" x="754" y="-349" font-family="Mononoki" font-size="10.00">vector_get</text>
</a>
</g>
</g>
<!-- Node14&#45;&gt;Node15 -->
<g id="edge18_Node000014_Node000015" class="edge">
<title>Node14&#45;&gt;Node15</title>
<g id="a_edge18_Node000014_Node000015"><a xlink:title=" ">
<path fill="none" stroke="#63b8ff" d="M629.68,-351.5C653.12,-351.5 684.58,-351.5 709.86,-351.5"/>
<polygon fill="#63b8ff" stroke="#63b8ff" points="709.91,-355 719.91,-351.5 709.91,-348 709.91,-355"/>
</a>
</g>
</g>
<!-- Node17&#45;&gt;Node6 -->
<g id="edge24_Node000017_Node000006" class="edge">
<title>Node17&#45;&gt;Node6</title>
<g id="a_edge24_Node000017_Node000006"><a xlink:title=" ">
<path fill="none" stroke="#63b8ff" d="M362.21,-493.07C444.94,-514.61 662.58,-559.34 818,-483.5 858.62,-463.68 886.12,-415.37 898.87,-388.43"/>
<polygon fill="#63b8ff" stroke="#63b8ff" points="902.08,-389.81 903.03,-379.26 895.71,-386.92 902.08,-389.81"/>
</a>
</g>
</g>
<!-- Node19 -->
<g id="Node000019" class="node">
<title>Node19</title>
<g id="a_Node000019"><a target="_parent" xlink:href="https://evjeesm.github.io/vector/group__Vector__API.html#gae0c0da17ad9469e47ef376a82b6493f3" xlink:title=" ">
<polygon fill="white" stroke="#666666" points="372,-19 283,-19 283,0 372,0 372,-19"/>
<text text-anchor="middle" x="327.5" y="-7" font-family="Mononoki" font-size="10.00">vector_destroy</text>
</a>
</g>
</g>
<!-- Node18&#45;&gt;Node19 -->
<g id="edge26_Node000018_Node000019" class="edge">
<title>Node18&#45;&gt;Node19</title>
<g id="a_edge26_Node000018_Node000019"><a xlink:title=" ">
<path fill="none" stroke="#63b8ff" d="M247.24,-9.5C255.5,-9.5 264.23,-9.5 272.74,-9.5"/>
<polygon fill="#63b8ff" stroke="#63b8ff" points="272.99,-13 282.99,-9.5 272.99,-6 272.99,-13"/>
</a>
</g>
</g>
<!-- Node20&#45;&gt;Node6 -->
<g id="edge32_Node000020_Node000006" class="edge">
<title>Node20&#45;&gt;Node6</title>
<g id="a_edge32_Node000020_Node000006"><a xlink:title=" ">
<path fill="none" stroke="#63b8ff" d="M483.72,-408.84C522.45,-410.34 593.54,-412.02 654,-407.5 721.06,-402.49 797.3,-390.12 848.4,-380.84"/>
<polygon fill="#63b8ff" stroke="#63b8ff" points="849.07,-384.27 858.27,-379.03 847.8,-377.39 849.07,-384.27"/>
</a>
</g>
</g>
<!-- Node20&#45;&gt;Node16 -->
<g id="edge33_Node000020_Node000016" class="edge">
<title>Node20&#45;&gt;Node16</title>
<g id="a_edge33_Node000020_Node000016"><a xlink:title=" ">
<path fill="none" stroke="#63b8ff" d="M483.8,-403.56C496.08,-401.89 510.97,-399.85 525.78,-397.82"/>
<polygon fill="#63b8ff" stroke="#63b8ff" points="526.56,-401.25 535.99,-396.43 525.61,-394.32 526.56,-401.25"/>
</a>
</g>
</g>
<!-- Node21 -->
<g id="Node000021" class="node">
<title>Node21</title>
<g id="a_Node000021"><a xlink:href="group__Properties.html#ga745bff084f68eec950fa9ea0b42fb4e7" target="_top" xlink:title="Access initial capacity property.">
<polygon fill="white" stroke="#666666" points="818,-474 690,-474 690,-455 818,-455 818,-474"/>
<text text-anchor="middle" x="754" y="-462" font-family="Mononoki" font-size="10.00">dynarr_initial_capacity</text>
</a>
</g>
</g>
<!-- Node20&#45;&gt;Node21 -->
<g id="edge30_Node000020_Node000021" class="edge">
<title>Node20&#45;&gt;Node21</title>
<g id="a_edge30_Node000020_Node000021"><a xlink:title=" ">
<path fill="none" stroke="#63b8ff" d="M474.13,-417.06C490.23,-424.67 514.07,-434.94 536,-440.5 583.11,-452.45 637.46,-458.45 679.99,-461.47"/>
<polygon fill="#63b8ff" stroke="#63b8ff" points="679.77,-464.96 689.98,-462.13 680.23,-457.97 679.77,-464.96"/>
</a>
</g>
</g>
<!-- Node21&#45;&gt;Node6 -->
<g id="edge31_Node000021_Node000006" class="edge">
<title>Node21&#45;&gt;Node6</title>
<g id="a_edge31_Node000021_Node000006"><a xlink:title=" ">
<path fill="none" stroke="#63b8ff" d="M785.67,-454.97C796.24,-451.13 807.94,-446.24 818,-440.5 845,-425.09 872.41,-401.82 889.54,-386.16"/>
<polygon fill="#63b8ff" stroke="#63b8ff" points="892.14,-388.53 897.08,-379.15 887.37,-383.4 892.14,-388.53"/>
</a>
</g>
</g>
</g>
</svg>
