<?xml version="1.0" encoding="UTF-8" standalone="no"?>
<!DOCTYPE svg PUBLIC "-//W3C//DTD SVG 1.1//EN"
 "http://www.w3.org/Graphics/SVG/1.1/DTD/svg11.dtd">
<!-- Generated by graphviz version 2.43.0 (0)
 -->
<!-- Title: dynarr_pop_back Pages: 1 -->
<svg width="1142pt" height="318pt"
 viewBox="0.00 0.00 1142.00 317.67" xmlns="http://www.w3.org/2000/svg" xmlns:xlink="http://www.w3.org/1999/xlink">
<g id="graph0" class="graph" transform="scale(1 1) rotate(0) translate(4 313.67)">
<title>dynarr_pop_back</title>
<!-- Node1 -->
<g id="Node000001" class="node">
<title>Node1</title>
<g id="a_Node000001"><a xlink:title="Removes an element from the tail of a dynarr.">
<polygon fill="#999999" stroke="#666666" points="100,-197.67 0,-197.67 0,-178.67 100,-178.67 100,-197.67"/>
<text text-anchor="middle" x="50" y="-185.67" font-family="Mononoki" font-size="10.00">dynarr_pop_back</text>
</a>
</g>
</g>
<!-- Node2 -->
<g id="Node000002" class="node">
<title>Node2</title>
<g id="a_Node000002"><a xlink:href="group__Elements.html#gae2e52e602d3867ce3e5fee688ea20263" target="_top" xlink:title="Removes an element from a dynarr.">
<polygon fill="white" stroke="#666666" points="227,-216.67 136,-216.67 136,-197.67 227,-197.67 227,-216.67"/>
<text text-anchor="middle" x="181.5" y="-204.67" font-family="Mononoki" font-size="10.00">dynarr_remove</text>
</a>
</g>
</g>
<!-- Node1&#45;&gt;Node2 -->
<g id="edge1_Node000001_Node000002" class="edge">
<title>Node1&#45;&gt;Node2</title>
<g id="a_edge1_Node000001_Node000002"><a xlink:title=" ">
<path fill="none" stroke="#63b8ff" d="M100.33,-195.41C108.66,-196.63 117.36,-197.9 125.82,-199.15"/>
<polygon fill="#63b8ff" stroke="#63b8ff" points="125.58,-202.65 135.98,-200.64 126.6,-195.72 125.58,-202.65"/>
</a>
</g>
</g>
<!-- Node4 -->
<g id="Node000004" class="node">
<title>Node4</title>
<g id="a_Node000004"><a xlink:href="group__Properties.html#gaf5c43e2644d185b9b01065af34ed6e29" target="_top" xlink:title="Access size property of a dynarr.">
<polygon fill="white" stroke="#666666" points="798.5,-159.67 725.5,-159.67 725.5,-140.67 798.5,-140.67 798.5,-159.67"/>
<text text-anchor="middle" x="762" y="-147.67" font-family="Mononoki" font-size="10.00">dynarr_size</text>
</a>
</g>
</g>
<!-- Node1&#45;&gt;Node4 -->
<g id="edge21_Node000001_Node000004" class="edge">
<title>Node1&#45;&gt;Node4</title>
<g id="a_edge21_Node000001_Node000004"><a xlink:title=" ">
<path fill="none" stroke="#63b8ff" d="M100.25,-182.67C154.86,-177.06 245.61,-169.17 324,-169.17 324,-169.17 324,-169.17 466.5,-169.17 554.52,-169.17 657.04,-160.61 714.95,-154.98"/>
<polygon fill="#63b8ff" stroke="#63b8ff" points="715.63,-158.43 725.23,-153.97 714.94,-151.47 715.63,-158.43"/>
</a>
</g>
</g>
<!-- Node3 -->
<g id="Node000003" class="node">
<title>Node3</title>
<g id="a_Node000003"><a xlink:href="group__Elements.html#ga1187f49d8bde19551b2c95ad430e596c" target="_top" xlink:title="Removes range of elements from a dynarr.">
<polygon fill="white" stroke="#666666" points="387,-216.67 263,-216.67 263,-197.67 387,-197.67 387,-216.67"/>
<text text-anchor="middle" x="325" y="-204.67" font-family="Mononoki" font-size="10.00">dynarr_remove_range</text>
</a>
</g>
</g>
<!-- Node2&#45;&gt;Node3 -->
<g id="edge2_Node000002_Node000003" class="edge">
<title>Node2&#45;&gt;Node3</title>
<g id="a_edge2_Node000002_Node000003"><a xlink:title=" ">
<path fill="none" stroke="#63b8ff" d="M227.27,-207.17C235.42,-207.17 244.1,-207.17 252.79,-207.17"/>
<polygon fill="#63b8ff" stroke="#63b8ff" points="252.96,-210.67 262.96,-207.17 252.96,-203.67 252.96,-210.67"/>
</a>
</g>
</g>
<!-- Node3&#45;&gt;Node4 -->
<g id="edge3_Node000003_Node000004" class="edge">
<title>Node3&#45;&gt;Node4</title>
<g id="a_edge3_Node000003_Node000004"><a xlink:title=" ">
<path fill="none" stroke="#63b8ff" d="M387.29,-208.67C455.33,-208.99 567.97,-205.49 662,-183.17 678.86,-179.17 681.64,-173.89 698,-168.17 703.64,-166.19 709.62,-164.27 715.56,-162.47"/>
<polygon fill="#63b8ff" stroke="#63b8ff" points="716.85,-165.73 725.45,-159.54 714.87,-159.02 716.85,-165.73"/>
</a>
</g>
</g>
<!-- Node7 -->
<g id="Node000007" class="node">
<title>Node7</title>
<g id="a_Node000007"><a xlink:href="group__Auto-resize.html#ga9ff20c2ac9693f6d8f0ea97f9b46539c" target="_top" xlink:title=" ">
<polygon fill="white" stroke="#666666" points="508,-102.67 423,-102.67 423,-83.67 508,-83.67 508,-102.67"/>
<text text-anchor="middle" x="465.5" y="-90.67" font-family="Mononoki" font-size="10.00">free_space_at</text>
</a>
</g>
</g>
<!-- Node3&#45;&gt;Node7 -->
<g id="edge6_Node000003_Node000007" class="edge">
<title>Node3&#45;&gt;Node7</title>
<g id="a_edge6_Node000003_Node000007"><a xlink:title=" ">
<path fill="none" stroke="#63b8ff" d="M337.81,-197.45C361.62,-177.85 415.63,-133.4 444.85,-109.35"/>
<polygon fill="#63b8ff" stroke="#63b8ff" points="447.22,-111.92 452.72,-102.86 442.78,-106.52 447.22,-111.92"/>
</a>
</g>
</g>
<!-- Node11 -->
<g id="Node000011" class="node">
<title>Node11</title>
<g id="a_Node000011"><a xlink:href="group__Auto-resize.html#ga8eb6c0a577084ccd7a64bec67b8bdbbe" target="_top" xlink:title=" ">
<polygon fill="white" stroke="#666666" points="626.5,-254.67 579.5,-254.67 579.5,-235.67 626.5,-235.67 626.5,-254.67"/>
<text text-anchor="middle" x="603" y="-242.67" font-family="Mononoki" font-size="10.00">shrink</text>
</a>
</g>
</g>
<!-- Node3&#45;&gt;Node11 -->
<g id="edge13_Node000003_Node000011" class="edge">
<title>Node3&#45;&gt;Node11</title>
<g id="a_edge13_Node000003_Node000011"><a xlink:title=" ">
<path fill="none" stroke="#63b8ff" d="M387.04,-216.07C398.97,-217.79 411.37,-219.55 423,-221.17 473.94,-228.26 533.09,-236.12 569.02,-240.85"/>
<polygon fill="#63b8ff" stroke="#63b8ff" points="569.01,-244.38 579.38,-242.21 569.93,-237.44 569.01,-244.38"/>
</a>
</g>
</g>
<!-- Node5 -->
<g id="Node000005" class="node">
<title>Node5</title>
<g id="a_Node000005"><a xlink:href="dynarr_8c.html#a73f42f3f25cd0920d8039d63ea31be07" target="_top" xlink:title=" ">
<polygon fill="white" stroke="#666666" points="970,-178.67 862,-178.67 862,-159.67 970,-159.67 970,-178.67"/>
<text text-anchor="middle" x="916" y="-166.67" font-family="Mononoki" font-size="10.00">get_dynarr_header</text>
</a>
</g>
</g>
<!-- Node4&#45;&gt;Node5 -->
<g id="edge4_Node000004_Node000005" class="edge">
<title>Node4&#45;&gt;Node5</title>
<g id="a_edge4_Node000004_Node000005"><a xlink:title=" ">
<path fill="none" stroke="#63b8ff" d="M798.64,-154.62C814.48,-156.6 833.62,-159 851.76,-161.26"/>
<polygon fill="#63b8ff" stroke="#63b8ff" points="851.36,-164.74 861.71,-162.51 852.22,-157.79 851.36,-164.74"/>
</a>
</g>
</g>
<!-- Node6 -->
<g id="Node000006" class="node">
<title>Node6</title>
<g id="a_Node000006"><a target="_parent" xlink:href="https://evjeesm.github.io/vector/group__Vector__API.html#gafc2e34dbacffe6480af8681fbf46e808" xlink:title=" ">
<polygon fill="white" stroke="#666666" points="1134,-178.67 1006,-178.67 1006,-159.67 1134,-159.67 1134,-178.67"/>
<text text-anchor="middle" x="1070" y="-166.67" font-family="Mononoki" font-size="10.00">vector_get_ext_header</text>
</a>
</g>
</g>
<!-- Node5&#45;&gt;Node6 -->
<g id="edge5_Node000005_Node000006" class="edge">
<title>Node5&#45;&gt;Node6</title>
<g id="a_edge5_Node000005_Node000006"><a xlink:title=" ">
<path fill="none" stroke="#63b8ff" d="M970.16,-169.17C978.47,-169.17 987.18,-169.17 995.84,-169.17"/>
<polygon fill="#63b8ff" stroke="#63b8ff" points="995.95,-172.67 1005.95,-169.17 995.95,-165.67 995.95,-172.67"/>
</a>
</g>
</g>
<!-- Node7&#45;&gt;Node4 -->
<g id="edge10_Node000007_Node000004" class="edge">
<title>Node7&#45;&gt;Node4</title>
<g id="a_edge10_Node000007_Node000004"><a xlink:title=" ">
<path fill="none" stroke="#63b8ff" d="M505.84,-102.71C518.04,-105.56 531.55,-108.61 544,-111.17 602.83,-123.28 671.07,-135.2 715.08,-142.61"/>
<polygon fill="#63b8ff" stroke="#63b8ff" points="714.74,-146.1 725.18,-144.3 715.9,-139.19 714.74,-146.1"/>
</a>
</g>
</g>
<!-- Node7&#45;&gt;Node5 -->
<g id="edge11_Node000007_Node000005" class="edge">
<title>Node7&#45;&gt;Node5</title>
<g id="a_edge11_Node000007_Node000005"><a xlink:title=" ">
<path fill="none" stroke="#63b8ff" d="M475.87,-83.27C489.4,-69.78 515.89,-46.26 544,-37.17 663.25,1.41 715.34,21.68 826,-37.17 871.19,-61.2 897.57,-119.53 908.71,-149.96"/>
<polygon fill="#63b8ff" stroke="#63b8ff" points="905.42,-151.17 912.02,-159.46 912.03,-148.87 905.42,-151.17"/>
</a>
</g>
</g>
<!-- Node8 -->
<g id="Node000008" class="node">
<title>Node8</title>
<g id="a_Node000008"><a xlink:href="group__Elements.html#ga93c32dd116523090126d427cce08e114" target="_top" xlink:title="Returns pointer for the element at index.">
<polygon fill="white" stroke="#666666" points="637.5,-65.67 568.5,-65.67 568.5,-46.67 637.5,-46.67 637.5,-65.67"/>
<text text-anchor="middle" x="603" y="-53.67" font-family="Mononoki" font-size="10.00">dynarr_get</text>
</a>
</g>
</g>
<!-- Node7&#45;&gt;Node8 -->
<g id="edge7_Node000007_Node000008" class="edge">
<title>Node7&#45;&gt;Node8</title>
<g id="a_edge7_Node000007_Node000008"><a xlink:title=" ">
<path fill="none" stroke="#63b8ff" d="M501.39,-83.64C518.81,-78.88 540.04,-73.09 558.51,-68.04"/>
<polygon fill="#63b8ff" stroke="#63b8ff" points="559.44,-71.42 568.16,-65.41 557.59,-64.67 559.44,-71.42"/>
</a>
</g>
</g>
<!-- Node10 -->
<g id="Node000010" class="node">
<title>Node10</title>
<g id="a_Node000010"><a target="_parent" xlink:href="https://evjeesm.github.io/vector/group__Vector__API.html#gaae93d7f0c056c1d11d3232a7a7aa5e09" xlink:title=" ">
<polygon fill="white" stroke="#666666" points="662,-102.67 544,-102.67 544,-83.67 662,-83.67 662,-102.67"/>
<text text-anchor="middle" x="603" y="-90.67" font-family="Mononoki" font-size="10.00">vector_element_size</text>
</a>
</g>
</g>
<!-- Node7&#45;&gt;Node10 -->
<g id="edge12_Node000007_Node000010" class="edge">
<title>Node7&#45;&gt;Node10</title>
<g id="a_edge12_Node000007_Node000010"><a xlink:title=" ">
<path fill="none" stroke="#63b8ff" d="M508.26,-93.17C516.31,-93.17 524.93,-93.17 533.57,-93.17"/>
<polygon fill="#63b8ff" stroke="#63b8ff" points="533.69,-96.67 543.69,-93.17 533.69,-89.67 533.69,-96.67"/>
</a>
</g>
</g>
<!-- Node8&#45;&gt;Node4 -->
<g id="edge8_Node000008_Node000004" class="edge">
<title>Node8&#45;&gt;Node4</title>
<g id="a_edge8_Node000008_Node000004"><a xlink:title=" ">
<path fill="none" stroke="#63b8ff" d="M637.62,-64.4C645.83,-67 654.42,-70.24 662,-74.17 693.34,-90.4 724.88,-116.75 743.68,-133.76"/>
<polygon fill="#63b8ff" stroke="#63b8ff" points="741.42,-136.44 751.14,-140.64 746.16,-131.29 741.42,-136.44"/>
</a>
</g>
</g>
<!-- Node9 -->
<g id="Node000009" class="node">
<title>Node9</title>
<g id="a_Node000009"><a target="_parent" xlink:href="https://evjeesm.github.io/vector/group__Vector__API.html#ga9437d9506a3b2799f595c88b82f160b3" xlink:title=" ">
<polygon fill="white" stroke="#666666" points="796,-65.67 728,-65.67 728,-46.67 796,-46.67 796,-65.67"/>
<text text-anchor="middle" x="762" y="-53.67" font-family="Mononoki" font-size="10.00">vector_get</text>
</a>
</g>
</g>
<!-- Node8&#45;&gt;Node9 -->
<g id="edge9_Node000008_Node000009" class="edge">
<title>Node8&#45;&gt;Node9</title>
<g id="a_edge9_Node000008_Node000009"><a xlink:title=" ">
<path fill="none" stroke="#63b8ff" d="M637.68,-56.17C661.12,-56.17 692.58,-56.17 717.86,-56.17"/>
<polygon fill="#63b8ff" stroke="#63b8ff" points="717.91,-59.67 727.91,-56.17 717.91,-52.67 717.91,-59.67"/>
</a>
</g>
</g>
<!-- Node11&#45;&gt;Node4 -->
<g id="edge18_Node000011_Node000004" class="edge">
<title>Node11&#45;&gt;Node4</title>
<g id="a_edge18_Node000011_Node000004"><a xlink:title=" ">
<path fill="none" stroke="#63b8ff" d="M626.56,-239.22C638.03,-235.41 651.69,-229.56 662,-221.17 684.08,-203.19 674.93,-184.86 698,-168.17 703.26,-164.36 709.31,-161.36 715.53,-158.99"/>
<polygon fill="#63b8ff" stroke="#63b8ff" points="716.96,-162.2 725.37,-155.76 714.77,-155.55 716.96,-162.2"/>
</a>
</g>
</g>
<!-- Node11&#45;&gt;Node5 -->
<g id="edge19_Node000011_Node000005" class="edge">
<title>Node11&#45;&gt;Node5</title>
<g id="a_edge19_Node000011_Node000005"><a xlink:title=" ">
<path fill="none" stroke="#63b8ff" d="M626.73,-242.64C667.32,-237.79 754.7,-225.77 826,-205.17 846.35,-199.29 868.42,-190.38 885.49,-182.89"/>
<polygon fill="#63b8ff" stroke="#63b8ff" points="887.22,-185.96 894.92,-178.68 884.36,-179.56 887.22,-185.96"/>
</a>
</g>
</g>
<!-- Node12 -->
<g id="Node000012" class="node">
<title>Node12</title>
<g id="a_Node000012"><a xlink:href="group__Properties.html#ga3ff11107726213a640d814b63cb123b2" target="_top" xlink:title="Access current capacity of the dynarr.">
<polygon fill="white" stroke="#666666" points="809.5,-309.67 714.5,-309.67 714.5,-290.67 809.5,-290.67 809.5,-309.67"/>
<text text-anchor="middle" x="762" y="-297.67" font-family="Mononoki" font-size="10.00">dynarr_capacity</text>
</a>
</g>
</g>
<!-- Node11&#45;&gt;Node12 -->
<g id="edge14_Node000011_Node000012" class="edge">
<title>Node11&#45;&gt;Node12</title>
<g id="a_edge14_Node000011_Node000012"><a xlink:title=" ">
<path fill="none" stroke="#63b8ff" d="M626.57,-254.76C645.47,-262.62 673.25,-273.78 698,-282.17 703.59,-284.06 709.5,-285.93 715.38,-287.7"/>
<polygon fill="#63b8ff" stroke="#63b8ff" points="714.58,-291.11 725.16,-290.58 716.56,-284.4 714.58,-291.11"/>
</a>
</g>
</g>
<!-- Node14 -->
<g id="Node000014" class="node">
<title>Node14</title>
<g id="a_Node000014"><a xlink:href="group__Properties.html#ga745bff084f68eec950fa9ea0b42fb4e7" target="_top" xlink:title="Access initial capacity property.">
<polygon fill="white" stroke="#666666" points="826,-196.67 698,-196.67 698,-177.67 826,-177.67 826,-196.67"/>
<text text-anchor="middle" x="762" y="-184.67" font-family="Mononoki" font-size="10.00">dynarr_initial_capacity</text>
</a>
</g>
</g>
<!-- Node11&#45;&gt;Node14 -->
<g id="edge16_Node000011_Node000014" class="edge">
<title>Node11&#45;&gt;Node14</title>
<g id="a_edge16_Node000011_Node000014"><a xlink:title=" ">
<path fill="none" stroke="#63b8ff" d="M626.83,-236.73C652.73,-227.17 695.3,-211.44 725.53,-200.27"/>
<polygon fill="#63b8ff" stroke="#63b8ff" points="727.1,-203.42 735.27,-196.67 724.68,-196.86 727.1,-203.42"/>
</a>
</g>
</g>
<!-- Node15 -->
<g id="Node000015" class="node">
<title>Node15</title>
<g id="a_Node000015"><a target="_parent" xlink:href="https://evjeesm.github.io/vector/group__Vector__API.html#ga6e5077303af4dfe720af5a0608553922" xlink:title=" ">
<polygon fill="white" stroke="#666666" points="803,-272.67 721,-272.67 721,-253.67 803,-253.67 803,-272.67"/>
<text text-anchor="middle" x="762" y="-260.67" font-family="Mononoki" font-size="10.00">vector_resize</text>
</a>
</g>
</g>
<!-- Node11&#45;&gt;Node15 -->
<g id="edge20_Node000011_Node000015" class="edge">
<title>Node11&#45;&gt;Node15</title>
<g id="a_edge20_Node000011_Node000015"><a xlink:title=" ">
<path fill="none" stroke="#63b8ff" d="M626.83,-247.79C648.72,-250.3 682.51,-254.17 710.7,-257.4"/>
<polygon fill="#63b8ff" stroke="#63b8ff" points="710.47,-260.9 720.8,-258.56 711.27,-253.94 710.47,-260.9"/>
</a>
</g>
</g>
<!-- Node13 -->
<g id="Node000013" class="node">
<title>Node13</title>
<g id="a_Node000013"><a target="_parent" xlink:href="https://evjeesm.github.io/vector/group__Vector__API.html#gab24bd801f91d4ae1ac79b54430b0409f" xlink:title=" ">
<polygon fill="white" stroke="#666666" points="963,-309.67 869,-309.67 869,-290.67 963,-290.67 963,-309.67"/>
<text text-anchor="middle" x="916" y="-297.67" font-family="Mononoki" font-size="10.00">vector_capacity</text>
</a>
</g>
</g>
<!-- Node12&#45;&gt;Node13 -->
<g id="edge15_Node000012_Node000013" class="edge">
<title>Node12&#45;&gt;Node13</title>
<g id="a_edge15_Node000012_Node000013"><a xlink:title=" ">
<path fill="none" stroke="#63b8ff" d="M809.85,-300.17C825.23,-300.17 842.49,-300.17 858.51,-300.17"/>
<polygon fill="#63b8ff" stroke="#63b8ff" points="858.83,-303.67 868.83,-300.17 858.83,-296.67 858.83,-303.67"/>
</a>
</g>
</g>
<!-- Node14&#45;&gt;Node5 -->
<g id="edge17_Node000014_Node000005" class="edge">
<title>Node14&#45;&gt;Node5</title>
<g id="a_edge17_Node000014_Node000005"><a xlink:title=" ">
<path fill="none" stroke="#63b8ff" d="M826.14,-179.69C834.61,-178.69 843.29,-177.66 851.76,-176.66"/>
<polygon fill="#63b8ff" stroke="#63b8ff" points="852.43,-180.1 861.95,-175.45 851.61,-173.15 852.43,-180.1"/>
</a>
</g>
</g>
</g>
</svg>
