<?xml version="1.0" encoding="UTF-8" standalone="no"?>
<!DOCTYPE svg PUBLIC "-//W3C//DTD SVG 1.1//EN"
 "http://www.w3.org/Graphics/SVG/1.1/DTD/svg11.dtd">
<!-- Generated by graphviz version 2.43.0 (0)
 -->
<!-- Title: dynarr_binary_reserve Pages: 1 -->
<svg width="797pt" height="169pt"
 viewBox="0.00 0.00 797.00 169.00" xmlns="http://www.w3.org/2000/svg" xmlns:xlink="http://www.w3.org/1999/xlink">
<g id="graph0" class="graph" transform="scale(1 1) rotate(0) translate(4 165)">
<title>dynarr_binary_reserve</title>
<!-- Node1 -->
<g id="Node000001" class="node">
<title>Node1</title>
<g id="a_Node000001"><a xlink:title=" ">
<polygon fill="#999999" stroke="#666666" points="126,-81 0,-81 0,-62 126,-62 126,-81"/>
<text text-anchor="middle" x="63" y="-69" font-family="Mononoki" font-size="10.00">dynarr_binary_reserve</text>
</a>
</g>
</g>
<!-- Node2 -->
<g id="Node000002" class="node">
<title>Node2</title>
<g id="a_Node000002"><a xlink:href="group__Dynarr__API.html#ga5f6a46fc8cc0cfe14d98926cadbaa35d" target="_top" xlink:title=" ">
<polygon fill="white" stroke="#666666" points="269,-86.5 162,-86.5 162,-56.5 269,-56.5 269,-86.5"/>
<text text-anchor="start" x="170" y="-74.5" font-family="Mononoki" font-size="10.00">dynarr_binary_find</text>
<text text-anchor="middle" x="215.5" y="-63.5" font-family="Mononoki" font-size="10.00">_insert_place</text>
</a>
</g>
</g>
<!-- Node1&#45;&gt;Node2 -->
<g id="edge1_Node000001_Node000002" class="edge">
<title>Node1&#45;&gt;Node2</title>
<g id="a_edge1_Node000001_Node000002"><a xlink:title=" ">
<path fill="none" stroke="#63b8ff" d="M126.08,-71.5C134.49,-71.5 143.12,-71.5 151.54,-71.5"/>
<polygon fill="#63b8ff" stroke="#63b8ff" points="151.67,-75 161.67,-71.5 151.67,-68 151.67,-75"/>
</a>
</g>
</g>
<!-- Node7 -->
<g id="Node000007" class="node">
<title>Node7</title>
<g id="a_Node000007"><a xlink:href="group__Auto-resize.html#ga036b69c5b674d3ac22027b04ba235b42" target="_top" xlink:title=" ">
<polygon fill="white" stroke="#666666" points="500,-19 459,-19 459,0 500,0 500,-19"/>
<text text-anchor="middle" x="479.5" y="-7" font-family="Mononoki" font-size="10.00">grow</text>
</a>
</g>
</g>
<!-- Node1&#45;&gt;Node7 -->
<g id="edge8_Node000001_Node000007" class="edge">
<title>Node1&#45;&gt;Node7</title>
<g id="a_edge8_Node000001_Node000007"><a xlink:title=" ">
<path fill="none" stroke="#63b8ff" d="M98.7,-61.92C117.35,-57.04 140.8,-51.35 162,-47.5 266.61,-28.48 392.46,-16.61 448.75,-11.87"/>
<polygon fill="#63b8ff" stroke="#63b8ff" points="449.07,-15.35 458.75,-11.04 448.49,-8.37 449.07,-15.35"/>
</a>
</g>
</g>
<!-- Node9 -->
<g id="Node000009" class="node">
<title>Node9</title>
<g id="a_Node000009"><a xlink:href="group__Auto-resize.html#gadb26f84b95f0ca45c7ccbd72e337485a" target="_top" xlink:title=" ">
<polygon fill="white" stroke="#666666" points="403,-161 311,-161 311,-142 403,-142 403,-161"/>
<text text-anchor="middle" x="357" y="-149" font-family="Mononoki" font-size="10.00">make_space_at</text>
</a>
</g>
</g>
<!-- Node1&#45;&gt;Node9 -->
<g id="edge12_Node000001_Node000009" class="edge">
<title>Node1&#45;&gt;Node9</title>
<g id="a_edge12_Node000001_Node000009"><a xlink:title=" ">
<path fill="none" stroke="#63b8ff" d="M98.93,-81.07C152.02,-95.62 253,-123.28 311.35,-139.27"/>
<polygon fill="#63b8ff" stroke="#63b8ff" points="310.46,-142.65 321.03,-141.92 312.31,-135.9 310.46,-142.65"/>
</a>
</g>
</g>
<!-- Node3 -->
<g id="Node000003" class="node">
<title>Node3</title>
<g id="a_Node000003"><a xlink:href="dynarr_8c.html#a187b18732062f4f69486553f37697739" target="_top" xlink:title=" ">
<polygon fill="white" stroke="#666666" points="409,-105.5 305,-105.5 305,-75.5 409,-75.5 409,-105.5"/>
<text text-anchor="start" x="313" y="-93.5" font-family="Mononoki" font-size="10.00">binary_find_insert</text>
<text text-anchor="middle" x="357" y="-82.5" font-family="Mononoki" font-size="10.00">_place</text>
</a>
</g>
</g>
<!-- Node2&#45;&gt;Node3 -->
<g id="edge2_Node000002_Node000003" class="edge">
<title>Node2&#45;&gt;Node3</title>
<g id="a_edge2_Node000002_Node000003"><a xlink:title=" ">
<path fill="none" stroke="#63b8ff" d="M269.24,-78.68C277.47,-79.8 286.03,-80.97 294.43,-82.11"/>
<polygon fill="#63b8ff" stroke="#63b8ff" points="294.19,-85.61 304.57,-83.5 295.14,-78.68 294.19,-85.61"/>
</a>
</g>
</g>
<!-- Node5 -->
<g id="Node000005" class="node">
<title>Node5</title>
<g id="a_Node000005"><a xlink:href="group__Dynarr__API.html#gaf5c43e2644d185b9b01065af34ed6e29" target="_top" xlink:title=" ">
<polygon fill="white" stroke="#666666" points="634,-94 561,-94 561,-75 634,-75 634,-94"/>
<text text-anchor="middle" x="597.5" y="-82" font-family="Mononoki" font-size="10.00">dynarr_size</text>
</a>
</g>
</g>
<!-- Node2&#45;&gt;Node5 -->
<g id="edge7_Node000002_Node000005" class="edge">
<title>Node2&#45;&gt;Node5</title>
<g id="a_edge7_Node000002_Node000005"><a xlink:title=" ">
<path fill="none" stroke="#63b8ff" d="M269.07,-67.01C328.66,-62.79 428.61,-58.38 514,-67.5 525.92,-68.77 538.67,-70.97 550.49,-73.38"/>
<polygon fill="#63b8ff" stroke="#63b8ff" points="550.09,-76.87 560.6,-75.53 551.54,-70.02 550.09,-76.87"/>
</a>
</g>
</g>
<!-- Node3&#45;&gt;Node3 -->
<g id="edge3_Node000003_Node000003" class="edge">
<title>Node3&#45;&gt;Node3</title>
<g id="a_edge3_Node000003_Node000003"><a xlink:title=" ">
<path fill="none" stroke="#63b8ff" d="M335.55,-105.78C330.79,-114.91 337.94,-123.5 357,-123.5 368.32,-123.5 375.44,-120.47 378.35,-116.1"/>
<polygon fill="#63b8ff" stroke="#63b8ff" points="381.86,-115.81 378.45,-105.78 374.86,-115.74 381.86,-115.81"/>
</a>
</g>
</g>
<!-- Node4 -->
<g id="Node000004" class="node">
<title>Node4</title>
<g id="a_Node000004"><a xlink:href="group__Dynarr__API.html#ga93c32dd116523090126d427cce08e114" target="_top" xlink:title=" ">
<polygon fill="white" stroke="#666666" points="514,-95 445,-95 445,-76 514,-76 514,-95"/>
<text text-anchor="middle" x="479.5" y="-83" font-family="Mononoki" font-size="10.00">dynarr_get</text>
</a>
</g>
</g>
<!-- Node3&#45;&gt;Node4 -->
<g id="edge4_Node000003_Node000004" class="edge">
<title>Node3&#45;&gt;Node4</title>
<g id="a_edge4_Node000003_Node000004"><a xlink:title=" ">
<path fill="none" stroke="#63b8ff" d="M409.1,-88.38C417.58,-88.03 426.31,-87.67 434.59,-87.32"/>
<polygon fill="#63b8ff" stroke="#63b8ff" points="434.94,-90.81 444.79,-86.9 434.65,-83.82 434.94,-90.81"/>
</a>
</g>
</g>
<!-- Node4&#45;&gt;Node5 -->
<g id="edge5_Node000004_Node000005" class="edge">
<title>Node4&#45;&gt;Node5</title>
<g id="a_edge5_Node000004_Node000005"><a xlink:title=" ">
<path fill="none" stroke="#63b8ff" d="M514.05,-85.21C525.45,-85.11 538.39,-85 550.58,-84.9"/>
<polygon fill="#63b8ff" stroke="#63b8ff" points="550.62,-88.4 560.59,-84.81 550.56,-81.4 550.62,-88.4"/>
</a>
</g>
</g>
<!-- Node6 -->
<g id="Node000006" class="node">
<title>Node6</title>
<g id="a_Node000006"><a xlink:href="dynarr_8c.html#a73f42f3f25cd0920d8039d63ea31be07" target="_top" xlink:title=" ">
<polygon fill="white" stroke="#666666" points="789,-94 681,-94 681,-75 789,-75 789,-94"/>
<text text-anchor="middle" x="735" y="-82" font-family="Mononoki" font-size="10.00">get_dynarr_header</text>
</a>
</g>
</g>
<!-- Node5&#45;&gt;Node6 -->
<g id="edge6_Node000005_Node000006" class="edge">
<title>Node5&#45;&gt;Node6</title>
<g id="a_edge6_Node000005_Node000006"><a xlink:title=" ">
<path fill="none" stroke="#63b8ff" d="M634.1,-84.5C645.36,-84.5 658.16,-84.5 670.76,-84.5"/>
<polygon fill="#63b8ff" stroke="#63b8ff" points="670.78,-88 680.78,-84.5 670.78,-81 670.78,-88"/>
</a>
</g>
</g>
<!-- Node7&#45;&gt;Node5 -->
<g id="edge10_Node000007_Node000005" class="edge">
<title>Node7&#45;&gt;Node5</title>
<g id="a_edge10_Node000007_Node000005"><a xlink:title=" ">
<path fill="none" stroke="#63b8ff" d="M494.8,-19.18C500.85,-23.41 507.89,-28.54 514,-33.5 530.85,-47.18 531.56,-55.05 550,-66.5 552.33,-67.95 554.8,-69.31 557.34,-70.6"/>
<polygon fill="#63b8ff" stroke="#63b8ff" points="556.13,-73.89 566.68,-74.86 559.04,-67.53 556.13,-73.89"/>
</a>
</g>
</g>
<!-- Node7&#45;&gt;Node6 -->
<g id="edge11_Node000007_Node000006" class="edge">
<title>Node7&#45;&gt;Node6</title>
<g id="a_edge11_Node000007_Node000006"><a xlink:title=" ">
<path fill="none" stroke="#63b8ff" d="M500.12,-9C531.61,-8.8 594.96,-10.9 645,-28.5 670.96,-37.63 697.2,-55.42 714.4,-68.51"/>
<polygon fill="#63b8ff" stroke="#63b8ff" points="712.48,-71.46 722.51,-74.86 716.79,-65.94 712.48,-71.46"/>
</a>
</g>
</g>
<!-- Node8 -->
<g id="Node000008" class="node">
<title>Node8</title>
<g id="a_Node000008"><a xlink:href="group__Dynarr__API.html#ga3ff11107726213a640d814b63cb123b2" target="_top" xlink:title=" ">
<polygon fill="white" stroke="#666666" points="645,-57 550,-57 550,-38 645,-38 645,-57"/>
<text text-anchor="middle" x="597.5" y="-45" font-family="Mononoki" font-size="10.00">dynarr_capacity</text>
</a>
</g>
</g>
<!-- Node7&#45;&gt;Node8 -->
<g id="edge9_Node000007_Node000008" class="edge">
<title>Node7&#45;&gt;Node8</title>
<g id="a_edge9_Node000007_Node000008"><a xlink:title=" ">
<path fill="none" stroke="#63b8ff" d="M500.18,-15.95C515.81,-21.07 538.17,-28.39 557.41,-34.69"/>
<polygon fill="#63b8ff" stroke="#63b8ff" points="556.54,-38.09 567.13,-37.88 558.72,-31.44 556.54,-38.09"/>
</a>
</g>
</g>
<!-- Node9&#45;&gt;Node4 -->
<g id="edge13_Node000009_Node000004" class="edge">
<title>Node9&#45;&gt;Node4</title>
<g id="a_edge13_Node000009_Node000004"><a xlink:title=" ">
<path fill="none" stroke="#63b8ff" d="M387.38,-141.92C394.59,-139.19 402.2,-136 409,-132.5 418.51,-127.6 439.97,-112.87 456.54,-101.18"/>
<polygon fill="#63b8ff" stroke="#63b8ff" points="459.01,-103.73 465.14,-95.09 454.96,-98.02 459.01,-103.73"/>
</a>
</g>
</g>
<!-- Node9&#45;&gt;Node5 -->
<g id="edge14_Node000009_Node000005" class="edge">
<title>Node9&#45;&gt;Node5</title>
<g id="a_edge14_Node000009_Node000005"><a xlink:title=" ">
<path fill="none" stroke="#63b8ff" d="M391.92,-141.97C434.09,-130.12 506.17,-109.88 552.54,-96.85"/>
<polygon fill="#63b8ff" stroke="#63b8ff" points="553.63,-100.18 562.31,-94.1 551.74,-93.44 553.63,-100.18"/>
</a>
</g>
</g>
<!-- Node9&#45;&gt;Node6 -->
<g id="edge15_Node000009_Node000006" class="edge">
<title>Node9&#45;&gt;Node6</title>
<g id="a_edge15_Node000009_Node000006"><a xlink:title=" ">
<path fill="none" stroke="#63b8ff" d="M403.18,-146.26C434.39,-142.43 476.82,-136.83 514,-130.5 572.6,-120.53 586.82,-115.71 645,-103.5 656.24,-101.14 668.28,-98.59 679.75,-96.15"/>
<polygon fill="#63b8ff" stroke="#63b8ff" points="680.6,-99.54 689.65,-94.03 679.14,-92.7 680.6,-99.54"/>
</a>
</g>
</g>
</g>
</svg>
