<?xml version="1.0" encoding="UTF-8" standalone="no"?>
<!DOCTYPE svg PUBLIC "-//W3C//DTD SVG 1.1//EN"
 "http://www.w3.org/Graphics/SVG/1.1/DTD/svg11.dtd">
<!-- Generated by graphviz version 2.43.0 (0)
 -->
<!-- Title: Searches Pages: 1 -->
<svg width="173pt" height="64pt"
 viewBox="0.00 0.00 173.00 64.00" xmlns="http://www.w3.org/2000/svg" xmlns:xlink="http://www.w3.org/1999/xlink">

<svg id="main" version="1.1" xmlns="http://www.w3.org/2000/svg" xmlns:xlink="http://www.w3.org/1999/xlink" xml:space="preserve" onload="init(evt)">
<style type="text/css"><![CDATA[
.node, .edge {opacity: 0.7;}
.node.selected, .edge.selected {opacity: 1;}
.edge:hover path { stroke: red; }
.edge:hover polygon { stroke: red; fill: red; }
]]></style>
<script type="application/ecmascript" xlink:href="svg.min.js"/>
<svg id="graph" class="graph">
<g id="graph0" class="graph" transform="scale(1 1) rotate(0) translate(4 60)">
<title>Searches</title>
<!-- Node3 -->
<g id="Node000003" class="node">
<title>Node3</title>
<g id="a_Node000003"><a xlink:href="group__Dynarr__API.html" target="_top" xlink:title="Main dynarr methods. Callbacks.">
<polygon fill="white" stroke="#666666" points="68,-56 0,-56 0,-37 68,-37 68,-56"/>
<text text-anchor="middle" x="34" y="-44" font-family="Mononoki" font-size="10.00">Dynarr API</text>
</a>
</g>
</g>
<!-- Node1 -->
<g id="Node000001" class="node">
<title>Node1</title>
<g id="a_Node000001"><a xlink:title="Methods for querying the dynarr.">
<polygon fill="#999999" stroke="#666666" points="165,-37 104,-37 104,-18 165,-18 165,-37"/>
<text text-anchor="middle" x="134.5" y="-25" font-family="Mononoki" font-size="10.00">Searches</text>
</a>
</g>
</g>
<!-- Node3&#45;&gt;Node1 -->
<g id="edge2" class="edge">
<title>Node3&#45;&gt;Node1</title>
<path fill="none" stroke="black" d="M78.14,-38.18C86.87,-36.5 95.86,-34.76 103.99,-33.19"/>
<polygon fill="black" stroke="black" points="77.23,-34.79 68.07,-40.12 78.56,-41.66 77.23,-34.79"/>
</g>
<!-- Node2 -->
<g id="Node000002" class="node">
<title>Node2</title>
<g id="a_Node000002"><a target="_parent" xlink:href="https://evjeesm.github.io/vector/group__Vector__API.html" xlink:title=" ">
<polygon fill="white" stroke="#666666" points="67,-19 1,-19 1,0 67,0 67,-19"/>
<text text-anchor="middle" x="34" y="-7" font-family="Mononoki" font-size="10.00">Vector API</text>
</a>
</g>
</g>
<!-- Node2&#45;&gt;Node1 -->
<g id="edge1" class="edge">
<title>Node2&#45;&gt;Node1</title>
<path fill="none" stroke="black" d="M77.18,-17.21C86.16,-18.85 95.45,-20.55 103.84,-22.08"/>
<polygon fill="black" stroke="black" points="77.72,-13.75 67.25,-15.39 76.46,-20.63 77.72,-13.75"/>
</g>
</g>
</svg>
</svg>

<style type='text/css'>
<![CDATA[
[data-mouse-over-selected='false'] { opacity: 0.7; }
[data-mouse-over-selected='true']  { opacity: 1.0; }
]]>
</style>
<script type="application/ecmascript"><![CDATA[
document.addEventListener('DOMContentLoaded', (event) => {
  highlightEdges();
  highlightAdjacentNodes();
});
]]></script>
</svg>
