<?xml version="1.0" encoding="UTF-8" standalone="no"?>
<!DOCTYPE svg PUBLIC "-//W3C//DTD SVG 1.1//EN"
 "http://www.w3.org/Graphics/SVG/1.1/DTD/svg11.dtd">
<!-- Generated by graphviz version 2.43.0 (0)
 -->
<!-- Title: dynarr_prepend Pages: 1 -->
<svg width="726pt" height="193pt"
 viewBox="0.00 0.00 726.00 193.39" xmlns="http://www.w3.org/2000/svg" xmlns:xlink="http://www.w3.org/1999/xlink">
<g id="graph0" class="graph" transform="scale(1 1) rotate(0) translate(4 189.39)">
<title>dynarr_prepend</title>
<!-- Node1 -->
<g id="Node000001" class="node">
<title>Node1</title>
<g id="a_Node000001"><a xlink:title=" ">
<polygon fill="#999999" stroke="#666666" points="93,-128.39 0,-128.39 0,-109.39 93,-109.39 93,-128.39"/>
<text text-anchor="middle" x="46.5" y="-116.39" font-family="Mononoki" font-size="10.00">dynarr_prepend</text>
</a>
</g>
</g>
<!-- Node2 -->
<g id="Node000002" class="node">
<title>Node2</title>
<g id="a_Node000002"><a xlink:href="group__Dynarr__API.html#gab449a79e6b33f55af35329df4363336e" target="_top" xlink:title=" ">
<polygon fill="white" stroke="#666666" points="210,-128.39 129,-128.39 129,-109.39 210,-109.39 210,-128.39"/>
<text text-anchor="middle" x="169.5" y="-116.39" font-family="Mononoki" font-size="10.00">dynarr_insert</text>
</a>
</g>
</g>
<!-- Node1&#45;&gt;Node2 -->
<g id="edge1_Node000001_Node000002" class="edge">
<title>Node1&#45;&gt;Node2</title>
<g id="a_edge1_Node000001_Node000002"><a xlink:title=" ">
<path fill="none" stroke="#63b8ff" d="M93.24,-118.89C101.52,-118.89 110.19,-118.89 118.59,-118.89"/>
<polygon fill="#63b8ff" stroke="#63b8ff" points="118.64,-122.39 128.64,-118.89 118.64,-115.39 118.64,-122.39"/>
</a>
</g>
</g>
<!-- Node3 -->
<g id="Node000003" class="node">
<title>Node3</title>
<g id="a_Node000003"><a xlink:href="group__Dynarr__API.html#ga30d508a9f387e2227dd0d72a8bfd2a39" target="_top" xlink:title=" ">
<polygon fill="white" stroke="#666666" points="326,-147.39 258,-147.39 258,-128.39 326,-128.39 326,-147.39"/>
<text text-anchor="middle" x="292" y="-135.39" font-family="Mononoki" font-size="10.00">dynarr_set</text>
</a>
</g>
</g>
<!-- Node2&#45;&gt;Node3 -->
<g id="edge2_Node000002_Node000003" class="edge">
<title>Node2&#45;&gt;Node3</title>
<g id="a_edge2_Node000002_Node000003"><a xlink:title=" ">
<path fill="none" stroke="#63b8ff" d="M210.29,-125.16C222.29,-127.05 235.51,-129.14 247.72,-131.06"/>
<polygon fill="#63b8ff" stroke="#63b8ff" points="247.27,-134.54 257.69,-132.64 248.36,-127.62 247.27,-134.54"/>
</a>
</g>
</g>
<!-- Node4 -->
<g id="Node000004" class="node">
<title>Node4</title>
<g id="a_Node000004"><a xlink:href="group__Dynarr__API.html#gaf5c43e2644d185b9b01065af34ed6e29" target="_top" xlink:title=" ">
<polygon fill="white" stroke="#666666" points="563,-109.39 490,-109.39 490,-90.39 563,-90.39 563,-109.39"/>
<text text-anchor="middle" x="526.5" y="-97.39" font-family="Mononoki" font-size="10.00">dynarr_size</text>
</a>
</g>
</g>
<!-- Node2&#45;&gt;Node4 -->
<g id="edge5_Node000002_Node000004" class="edge">
<title>Node2&#45;&gt;Node4</title>
<g id="a_edge5_Node000002_Node000004"><a xlink:title=" ">
<path fill="none" stroke="#63b8ff" d="M210.19,-116.76C276.45,-113.22 409.23,-106.11 479.47,-102.35"/>
<polygon fill="#63b8ff" stroke="#63b8ff" points="479.98,-105.83 489.78,-101.8 479.61,-98.84 479.98,-105.83"/>
</a>
</g>
</g>
<!-- Node6 -->
<g id="Node000006" class="node">
<title>Node6</title>
<g id="a_Node000006"><a xlink:href="group__Auto-resize.html#ga036b69c5b674d3ac22027b04ba235b42" target="_top" xlink:title=" ">
<polygon fill="white" stroke="#666666" points="429,-185.39 388,-185.39 388,-166.39 429,-166.39 429,-185.39"/>
<text text-anchor="middle" x="408.5" y="-173.39" font-family="Mononoki" font-size="10.00">grow</text>
</a>
</g>
</g>
<!-- Node2&#45;&gt;Node6 -->
<g id="edge6_Node000002_Node000006" class="edge">
<title>Node2&#45;&gt;Node6</title>
<g id="a_edge6_Node000002_Node000006"><a xlink:title=" ">
<path fill="none" stroke="#63b8ff" d="M185.46,-128.4C200.24,-137.31 223.79,-150.22 246,-156.89 290.58,-170.27 344.72,-174.3 377.62,-175.47"/>
<polygon fill="#63b8ff" stroke="#63b8ff" points="377.82,-178.97 387.92,-175.76 378.02,-171.98 377.82,-178.97"/>
</a>
</g>
</g>
<!-- Node8 -->
<g id="Node000008" class="node">
<title>Node8</title>
<g id="a_Node000008"><a xlink:href="group__Auto-resize.html#gadb26f84b95f0ca45c7ccbd72e337485a" target="_top" xlink:title=" ">
<polygon fill="white" stroke="#666666" points="338,-52.39 246,-52.39 246,-33.39 338,-33.39 338,-52.39"/>
<text text-anchor="middle" x="292" y="-40.39" font-family="Mononoki" font-size="10.00">make_space_at</text>
</a>
</g>
</g>
<!-- Node2&#45;&gt;Node8 -->
<g id="edge10_Node000002_Node000008" class="edge">
<title>Node2&#45;&gt;Node8</title>
<g id="a_edge10_Node000002_Node000008"><a xlink:title=" ">
<path fill="none" stroke="#63b8ff" d="M185.76,-109.26C206.31,-96.3 243.1,-73.1 267.27,-57.85"/>
<polygon fill="#63b8ff" stroke="#63b8ff" points="269.27,-60.73 275.86,-52.44 265.54,-54.81 269.27,-60.73"/>
</a>
</g>
</g>
<!-- Node3&#45;&gt;Node4 -->
<g id="edge3_Node000003_Node000004" class="edge">
<title>Node3&#45;&gt;Node4</title>
<g id="a_edge3_Node000003_Node000004"><a xlink:title=" ">
<path fill="none" stroke="#63b8ff" d="M326.08,-132.69C356.49,-127.88 402.8,-120.52 443,-113.89 454.86,-111.93 467.68,-109.78 479.59,-107.76"/>
<polygon fill="#63b8ff" stroke="#63b8ff" points="480.51,-111.15 489.78,-106.03 479.33,-104.25 480.51,-111.15"/>
</a>
</g>
</g>
<!-- Node5 -->
<g id="Node000005" class="node">
<title>Node5</title>
<g id="a_Node000005"><a xlink:href="dynarr_8c.html#a73f42f3f25cd0920d8039d63ea31be07" target="_top" xlink:title=" ">
<polygon fill="white" stroke="#666666" points="718,-109.39 610,-109.39 610,-90.39 718,-90.39 718,-109.39"/>
<text text-anchor="middle" x="664" y="-97.39" font-family="Mononoki" font-size="10.00">get_dynarr_header</text>
</a>
</g>
</g>
<!-- Node4&#45;&gt;Node5 -->
<g id="edge4_Node000004_Node000005" class="edge">
<title>Node4&#45;&gt;Node5</title>
<g id="a_edge4_Node000004_Node000005"><a xlink:title=" ">
<path fill="none" stroke="#63b8ff" d="M563.1,-99.89C574.36,-99.89 587.16,-99.89 599.76,-99.89"/>
<polygon fill="#63b8ff" stroke="#63b8ff" points="599.78,-103.39 609.78,-99.89 599.78,-96.39 599.78,-103.39"/>
</a>
</g>
</g>
<!-- Node6&#45;&gt;Node4 -->
<g id="edge8_Node000006_Node000004" class="edge">
<title>Node6&#45;&gt;Node4</title>
<g id="a_edge8_Node000006_Node000004"><a xlink:title=" ">
<path fill="none" stroke="#63b8ff" d="M423.76,-166.17C429.8,-161.92 436.85,-156.8 443,-151.89 459.72,-138.52 460.94,-131.38 479,-119.89 482.41,-117.72 486.09,-115.69 489.84,-113.81"/>
<polygon fill="#63b8ff" stroke="#63b8ff" points="491.57,-116.86 499.17,-109.48 488.63,-110.51 491.57,-116.86"/>
</a>
</g>
</g>
<!-- Node6&#45;&gt;Node5 -->
<g id="edge9_Node000006_Node000005" class="edge">
<title>Node6&#45;&gt;Node5</title>
<g id="a_edge9_Node000006_Node000005"><a xlink:title=" ">
<path fill="none" stroke="#63b8ff" d="M429.14,-176.44C460.65,-176.7 524.04,-174.69 574,-156.89 600.2,-147.55 626.57,-129.29 643.73,-115.94"/>
<polygon fill="#63b8ff" stroke="#63b8ff" points="646.19,-118.46 651.82,-109.48 641.82,-112.99 646.19,-118.46"/>
</a>
</g>
</g>
<!-- Node7 -->
<g id="Node000007" class="node">
<title>Node7</title>
<g id="a_Node000007"><a xlink:href="group__Dynarr__API.html#ga3ff11107726213a640d814b63cb123b2" target="_top" xlink:title=" ">
<polygon fill="white" stroke="#666666" points="574,-147.39 479,-147.39 479,-128.39 574,-128.39 574,-147.39"/>
<text text-anchor="middle" x="526.5" y="-135.39" font-family="Mononoki" font-size="10.00">dynarr_capacity</text>
</a>
</g>
</g>
<!-- Node6&#45;&gt;Node7 -->
<g id="edge7_Node000006_Node000007" class="edge">
<title>Node6&#45;&gt;Node7</title>
<g id="a_edge7_Node000006_Node000007"><a xlink:title=" ">
<path fill="none" stroke="#63b8ff" d="M429.18,-169.44C444.81,-164.32 467.17,-157 486.41,-150.69"/>
<polygon fill="#63b8ff" stroke="#63b8ff" points="487.72,-153.95 496.13,-147.51 485.54,-147.3 487.72,-153.95"/>
</a>
</g>
</g>
<!-- Node8&#45;&gt;Node4 -->
<g id="edge13_Node000008_Node000004" class="edge">
<title>Node8&#45;&gt;Node4</title>
<g id="a_edge13_Node000008_Node000004"><a xlink:title=" ">
<path fill="none" stroke="#63b8ff" d="M331.92,-52.43C372.73,-62.43 436.81,-78.14 479.95,-88.72"/>
<polygon fill="#63b8ff" stroke="#63b8ff" points="479.35,-92.18 489.89,-91.16 481.02,-85.38 479.35,-92.18"/>
</a>
</g>
</g>
<!-- Node8&#45;&gt;Node5 -->
<g id="edge14_Node000008_Node000005" class="edge">
<title>Node8&#45;&gt;Node5</title>
<g id="a_edge14_Node000008_Node000005"><a xlink:title=" ">
<path fill="none" stroke="#63b8ff" d="M308.1,-33.32C323.85,-23.96 349.59,-10.33 374,-4.89 403.93,1.78 412.97,1.32 443,-4.89 518.06,-20.4 599.02,-62.79 638.52,-85.33"/>
<polygon fill="#63b8ff" stroke="#63b8ff" points="636.79,-88.37 647.2,-90.35 640.29,-82.31 636.79,-88.37"/>
</a>
</g>
</g>
<!-- Node9 -->
<g id="Node000009" class="node">
<title>Node9</title>
<g id="a_Node000009"><a xlink:href="group__Dynarr__API.html#ga93c32dd116523090126d427cce08e114" target="_top" xlink:title=" ">
<polygon fill="white" stroke="#666666" points="443,-33.39 374,-33.39 374,-14.39 443,-14.39 443,-33.39"/>
<text text-anchor="middle" x="408.5" y="-21.39" font-family="Mononoki" font-size="10.00">dynarr_get</text>
</a>
</g>
</g>
<!-- Node8&#45;&gt;Node9 -->
<g id="edge11_Node000008_Node000009" class="edge">
<title>Node8&#45;&gt;Node9</title>
<g id="a_edge11_Node000008_Node000009"><a xlink:title=" ">
<path fill="none" stroke="#63b8ff" d="M338.25,-35.38C346.7,-33.98 355.51,-32.52 363.9,-31.12"/>
<polygon fill="#63b8ff" stroke="#63b8ff" points="364.58,-34.56 373.88,-29.47 363.44,-27.65 364.58,-34.56"/>
</a>
</g>
</g>
<!-- Node9&#45;&gt;Node4 -->
<g id="edge12_Node000009_Node000004" class="edge">
<title>Node9&#45;&gt;Node4</title>
<g id="a_edge12_Node000009_Node000004"><a xlink:title=" ">
<path fill="none" stroke="#63b8ff" d="M424.19,-33.51C443.89,-46.42 479.07,-69.47 502.35,-84.72"/>
<polygon fill="#63b8ff" stroke="#63b8ff" points="500.65,-87.79 510.93,-90.34 504.48,-81.93 500.65,-87.79"/>
</a>
</g>
</g>
</g>
</svg>
