<?xml version="1.0" encoding="UTF-8" standalone="no"?>
<!DOCTYPE svg PUBLIC "-//W3C//DTD SVG 1.1//EN"
 "http://www.w3.org/Graphics/SVG/1.1/DTD/svg11.dtd">
<!-- Generated by graphviz version 2.43.0 (0)
 -->
<!-- Title: dynarr_insert Pages: 1 -->
<svg width="810pt" height="322pt"
 viewBox="0.00 0.00 810.00 321.94" xmlns="http://www.w3.org/2000/svg" xmlns:xlink="http://www.w3.org/1999/xlink">
<g id="graph0" class="graph" transform="scale(1 1) rotate(0) translate(4 317.94)">
<title>dynarr_insert</title>
<!-- Node1 -->
<g id="Node000001" class="node">
<title>Node1</title>
<g id="a_Node000001"><a xlink:title="Inserts new element into a dynarr.">
<polygon fill="#999999" stroke="#666666" points="81,-192.94 0,-192.94 0,-173.94 81,-173.94 81,-192.94"/>
<text text-anchor="middle" x="40.5" y="-180.94" font-family="Mononoki" font-size="10.00">dynarr_insert</text>
</a>
</g>
</g>
<!-- Node2 -->
<g id="Node000002" class="node">
<title>Node2</title>
<g id="a_Node000002"><a xlink:href="group__Elements.html#ga30d508a9f387e2227dd0d72a8bfd2a39" target="_top" xlink:title="Sets element at given index to a value.">
<polygon fill="white" stroke="#666666" points="197,-211.94 129,-211.94 129,-192.94 197,-192.94 197,-211.94"/>
<text text-anchor="middle" x="163" y="-199.94" font-family="Mononoki" font-size="10.00">dynarr_set</text>
</a>
</g>
</g>
<!-- Node1&#45;&gt;Node2 -->
<g id="edge1_Node000001_Node000002" class="edge">
<title>Node1&#45;&gt;Node2</title>
<g id="a_edge1_Node000001_Node000002"><a xlink:title=" ">
<path fill="none" stroke="#63b8ff" d="M81.29,-189.72C93.29,-191.61 106.51,-193.69 118.72,-195.62"/>
<polygon fill="#63b8ff" stroke="#63b8ff" points="118.27,-199.09 128.69,-197.19 119.36,-192.17 118.27,-199.09"/>
</a>
</g>
</g>
<!-- Node3 -->
<g id="Node000003" class="node">
<title>Node3</title>
<g id="a_Node000003"><a xlink:href="group__Properties.html#gaf5c43e2644d185b9b01065af34ed6e29" target="_top" xlink:title="Access size property of a dynarr.">
<polygon fill="white" stroke="#666666" points="483,-173.94 410,-173.94 410,-154.94 483,-154.94 483,-173.94"/>
<text text-anchor="middle" x="446.5" y="-161.94" font-family="Mononoki" font-size="10.00">dynarr_size</text>
</a>
</g>
</g>
<!-- Node1&#45;&gt;Node3 -->
<g id="edge6_Node000001_Node000003" class="edge">
<title>Node1&#45;&gt;Node3</title>
<g id="a_edge6_Node000001_Node000003"><a xlink:title=" ">
<path fill="none" stroke="#63b8ff" d="M81.34,-181.57C156.69,-178.02 319.65,-170.36 399.51,-166.6"/>
<polygon fill="#63b8ff" stroke="#63b8ff" points="399.92,-170.09 409.75,-166.12 399.59,-163.1 399.92,-170.09"/>
</a>
</g>
</g>
<!-- Node7 -->
<g id="Node000007" class="node">
<title>Node7</title>
<g id="a_Node000007"><a xlink:href="group__Auto-resize.html#ga036b69c5b674d3ac22027b04ba235b42" target="_top" xlink:title=" ">
<polygon fill="white" stroke="#666666" points="324.5,-286.94 283.5,-286.94 283.5,-267.94 324.5,-267.94 324.5,-286.94"/>
<text text-anchor="middle" x="304" y="-274.94" font-family="Mononoki" font-size="10.00">grow</text>
</a>
</g>
</g>
<!-- Node1&#45;&gt;Node7 -->
<g id="edge7_Node000001_Node000007" class="edge">
<title>Node1&#45;&gt;Node7</title>
<g id="a_edge7_Node000001_Node000007"><a xlink:title=" ">
<path fill="none" stroke="#63b8ff" d="M58.5,-193.07C73.55,-201.33 96.28,-213.18 117,-221.44 170.74,-242.87 235.99,-260.73 273.18,-270.18"/>
<polygon fill="#63b8ff" stroke="#63b8ff" points="272.79,-273.69 283.34,-272.72 274.49,-266.9 272.79,-273.69"/>
</a>
</g>
</g>
<!-- Node11 -->
<g id="Node000011" class="node">
<title>Node11</title>
<g id="a_Node000011"><a xlink:href="group__Auto-resize.html#gadb26f84b95f0ca45c7ccbd72e337485a" target="_top" xlink:title=" ">
<polygon fill="white" stroke="#666666" points="209,-97.94 117,-97.94 117,-78.94 209,-78.94 209,-97.94"/>
<text text-anchor="middle" x="163" y="-85.94" font-family="Mononoki" font-size="10.00">make_space_at</text>
</a>
</g>
</g>
<!-- Node1&#45;&gt;Node11 -->
<g id="edge13_Node000001_Node000011" class="edge">
<title>Node1&#45;&gt;Node11</title>
<g id="a_edge13_Node000001_Node000011"><a xlink:title=" ">
<path fill="none" stroke="#63b8ff" d="M53.94,-173.63C74.7,-157.26 116.61,-124.23 141.7,-104.45"/>
<polygon fill="#63b8ff" stroke="#63b8ff" points="144.12,-107 149.81,-98.06 139.79,-101.5 144.12,-107"/>
</a>
</g>
</g>
<!-- Node2&#45;&gt;Node3 -->
<g id="edge2_Node000002_Node000003" class="edge">
<title>Node2&#45;&gt;Node3</title>
<g id="a_edge2_Node000002_Node000003"><a xlink:title=" ">
<path fill="none" stroke="#63b8ff" d="M197.16,-198.94C236.72,-194.64 304.8,-186.88 363,-178.44 374.9,-176.72 387.73,-174.64 399.64,-172.63"/>
<polygon fill="#63b8ff" stroke="#63b8ff" points="400.56,-176.02 409.82,-170.88 399.38,-169.12 400.56,-176.02"/>
</a>
</g>
</g>
<!-- Node6 -->
<g id="Node000006" class="node">
<title>Node6</title>
<g id="a_Node000006"><a target="_parent" xlink:href="https://evjeesm.github.io/vector/group__Elements.html#gab3a5e466261d31ee9edd77a5eb280030" xlink:title=" ">
<polygon fill="white" stroke="#666666" points="338,-249.94 270,-249.94 270,-230.94 338,-230.94 338,-249.94"/>
<text text-anchor="middle" x="304" y="-237.94" font-family="Mononoki" font-size="10.00">vector_set</text>
</a>
</g>
</g>
<!-- Node2&#45;&gt;Node6 -->
<g id="edge5_Node000002_Node000006" class="edge">
<title>Node2&#45;&gt;Node6</title>
<g id="a_edge5_Node000002_Node000006"><a xlink:title=" ">
<path fill="none" stroke="#63b8ff" d="M197.29,-211.54C216.12,-216.69 239.86,-223.18 260.08,-228.71"/>
<polygon fill="#63b8ff" stroke="#63b8ff" points="259.41,-232.15 269.98,-231.41 261.25,-225.4 259.41,-232.15"/>
</a>
</g>
</g>
<!-- Node4 -->
<g id="Node000004" class="node">
<title>Node4</title>
<g id="a_Node000004"><a xlink:href="dynarr_8c.html#a73f42f3f25cd0920d8039d63ea31be07" target="_top" xlink:title=" ">
<polygon fill="white" stroke="#666666" points="638,-173.94 530,-173.94 530,-154.94 638,-154.94 638,-173.94"/>
<text text-anchor="middle" x="584" y="-161.94" font-family="Mononoki" font-size="10.00">get_dynarr_header</text>
</a>
</g>
</g>
<!-- Node3&#45;&gt;Node4 -->
<g id="edge3_Node000003_Node000004" class="edge">
<title>Node3&#45;&gt;Node4</title>
<g id="a_edge3_Node000003_Node000004"><a xlink:title=" ">
<path fill="none" stroke="#63b8ff" d="M483.1,-164.44C494.36,-164.44 507.16,-164.44 519.76,-164.44"/>
<polygon fill="#63b8ff" stroke="#63b8ff" points="519.78,-167.94 529.78,-164.44 519.78,-160.94 519.78,-167.94"/>
</a>
</g>
</g>
<!-- Node5 -->
<g id="Node000005" class="node">
<title>Node5</title>
<g id="a_Node000005"><a target="_parent" xlink:href="https://evjeesm.github.io/vector/group__Extension.html#gafc2e34dbacffe6480af8681fbf46e808" xlink:title=" ">
<polygon fill="white" stroke="#666666" points="802,-173.94 674,-173.94 674,-154.94 802,-154.94 802,-173.94"/>
<text text-anchor="middle" x="738" y="-161.94" font-family="Mononoki" font-size="10.00">vector_get_ext_header</text>
</a>
</g>
</g>
<!-- Node4&#45;&gt;Node5 -->
<g id="edge4_Node000004_Node000005" class="edge">
<title>Node4&#45;&gt;Node5</title>
<g id="a_edge4_Node000004_Node000005"><a xlink:title=" ">
<path fill="none" stroke="#63b8ff" d="M638.16,-164.44C646.47,-164.44 655.18,-164.44 663.84,-164.44"/>
<polygon fill="#63b8ff" stroke="#63b8ff" points="663.95,-167.94 673.95,-164.44 663.95,-160.94 663.95,-167.94"/>
</a>
</g>
</g>
<!-- Node7&#45;&gt;Node3 -->
<g id="edge10_Node000007_Node000003" class="edge">
<title>Node7&#45;&gt;Node3</title>
<g id="a_edge10_Node000007_Node000003"><a xlink:title=" ">
<path fill="none" stroke="#63b8ff" d="M324.77,-274.69C336.75,-272.25 351.82,-267.72 363,-259.44 385.88,-242.49 380.3,-227.92 399,-206.44 407.01,-197.24 416.93,-188.04 425.54,-180.61"/>
<polygon fill="#63b8ff" stroke="#63b8ff" points="427.9,-183.19 433.3,-174.08 423.4,-177.84 427.9,-183.19"/>
</a>
</g>
</g>
<!-- Node7&#45;&gt;Node4 -->
<g id="edge11_Node000007_Node000004" class="edge">
<title>Node7&#45;&gt;Node4</title>
<g id="a_edge11_Node000007_Node000004"><a xlink:title=" ">
<path fill="none" stroke="#63b8ff" d="M324.51,-271.95C335.84,-268.62 350.34,-264.12 363,-259.44 432.54,-233.72 511.87,-197.77 553.67,-178.3"/>
<polygon fill="#63b8ff" stroke="#63b8ff" points="555.4,-181.36 562.97,-173.95 552.43,-175.02 555.4,-181.36"/>
</a>
</g>
</g>
<!-- Node8 -->
<g id="Node000008" class="node">
<title>Node8</title>
<g id="a_Node000008"><a xlink:href="group__Properties.html#ga3ff11107726213a640d814b63cb123b2" target="_top" xlink:title="Access current capacity of the dynarr.">
<polygon fill="white" stroke="#666666" points="494,-313.94 399,-313.94 399,-294.94 494,-294.94 494,-313.94"/>
<text text-anchor="middle" x="446.5" y="-301.94" font-family="Mononoki" font-size="10.00">dynarr_capacity</text>
</a>
</g>
</g>
<!-- Node7&#45;&gt;Node8 -->
<g id="edge8_Node000007_Node000008" class="edge">
<title>Node7&#45;&gt;Node8</title>
<g id="a_edge8_Node000007_Node000008"><a xlink:title=" ">
<path fill="none" stroke="#63b8ff" d="M324.54,-281.2C341.22,-284.4 366.07,-289.18 388.92,-293.57"/>
<polygon fill="#63b8ff" stroke="#63b8ff" points="388.42,-297.04 398.9,-295.49 389.74,-290.16 388.42,-297.04"/>
</a>
</g>
</g>
<!-- Node10 -->
<g id="Node000010" class="node">
<title>Node10</title>
<g id="a_Node000010"><a target="_parent" xlink:href="https://evjeesm.github.io/vector/group__Lifetime.html#ga6e5077303af4dfe720af5a0608553922" xlink:title=" ">
<polygon fill="white" stroke="#666666" points="487.5,-276.94 405.5,-276.94 405.5,-257.94 487.5,-257.94 487.5,-276.94"/>
<text text-anchor="middle" x="446.5" y="-264.94" font-family="Mononoki" font-size="10.00">vector_resize</text>
</a>
</g>
</g>
<!-- Node7&#45;&gt;Node10 -->
<g id="edge12_Node000007_Node000010" class="edge">
<title>Node7&#45;&gt;Node10</title>
<g id="a_edge12_Node000007_Node000010"><a xlink:title=" ">
<path fill="none" stroke="#63b8ff" d="M324.54,-276.05C342.75,-274.75 370.69,-272.77 395.13,-271.03"/>
<polygon fill="#63b8ff" stroke="#63b8ff" points="395.63,-274.5 405.36,-270.3 395.13,-267.52 395.63,-274.5"/>
</a>
</g>
</g>
<!-- Node9 -->
<g id="Node000009" class="node">
<title>Node9</title>
<g id="a_Node000009"><a target="_parent" xlink:href="https://evjeesm.github.io/vector/group__Properties.html#gab24bd801f91d4ae1ac79b54430b0409f" xlink:title=" ">
<polygon fill="white" stroke="#666666" points="631,-313.94 537,-313.94 537,-294.94 631,-294.94 631,-313.94"/>
<text text-anchor="middle" x="584" y="-301.94" font-family="Mononoki" font-size="10.00">vector_capacity</text>
</a>
</g>
</g>
<!-- Node8&#45;&gt;Node9 -->
<g id="edge9_Node000008_Node000009" class="edge">
<title>Node8&#45;&gt;Node9</title>
<g id="a_edge9_Node000008_Node000009"><a xlink:title=" ">
<path fill="none" stroke="#63b8ff" d="M494.13,-304.44C504.57,-304.44 515.76,-304.44 526.55,-304.44"/>
<polygon fill="#63b8ff" stroke="#63b8ff" points="526.74,-307.94 536.74,-304.44 526.74,-300.94 526.74,-307.94"/>
</a>
</g>
</g>
<!-- Node11&#45;&gt;Node3 -->
<g id="edge17_Node000011_Node000003" class="edge">
<title>Node11&#45;&gt;Node3</title>
<g id="a_edge17_Node000011_Node000003"><a xlink:title=" ">
<path fill="none" stroke="#63b8ff" d="M199.37,-97.99C250.25,-111.73 344.11,-137.07 400.07,-152.18"/>
<polygon fill="#63b8ff" stroke="#63b8ff" points="399.49,-155.64 410.06,-154.87 401.31,-148.89 399.49,-155.64"/>
</a>
</g>
</g>
<!-- Node11&#45;&gt;Node4 -->
<g id="edge18_Node000011_Node000004" class="edge">
<title>Node11&#45;&gt;Node4</title>
<g id="a_edge18_Node000011_Node000004"><a xlink:title=" ">
<path fill="none" stroke="#63b8ff" d="M173.89,-78.54C188.14,-65.04 215.95,-41.51 245,-32.44 350.64,0.52 396.29,19.52 494,-32.44 539.19,-56.47 565.57,-114.8 576.71,-145.24"/>
<polygon fill="#63b8ff" stroke="#63b8ff" points="573.42,-146.45 580.02,-154.74 580.03,-144.14 573.42,-146.45"/>
</a>
</g>
</g>
<!-- Node12 -->
<g id="Node000012" class="node">
<title>Node12</title>
<g id="a_Node000012"><a xlink:href="group__Elements.html#ga93c32dd116523090126d427cce08e114" target="_top" xlink:title="Returns pointer for the element at index.">
<polygon fill="white" stroke="#666666" points="338.5,-60.94 269.5,-60.94 269.5,-41.94 338.5,-41.94 338.5,-60.94"/>
<text text-anchor="middle" x="304" y="-48.94" font-family="Mononoki" font-size="10.00">dynarr_get</text>
</a>
</g>
</g>
<!-- Node11&#45;&gt;Node12 -->
<g id="edge14_Node000011_Node000012" class="edge">
<title>Node11&#45;&gt;Node12</title>
<g id="a_edge14_Node000011_Node000012"><a xlink:title=" ">
<path fill="none" stroke="#63b8ff" d="M199.8,-78.91C218.02,-74.06 240.32,-68.13 259.52,-63.02"/>
<polygon fill="#63b8ff" stroke="#63b8ff" points="260.48,-66.38 269.24,-60.43 258.67,-59.62 260.48,-66.38"/>
</a>
</g>
</g>
<!-- Node14 -->
<g id="Node000014" class="node">
<title>Node14</title>
<g id="a_Node000014"><a target="_parent" xlink:href="https://evjeesm.github.io/vector/group__Properties.html#gaae93d7f0c056c1d11d3232a7a7aa5e09" xlink:title=" ">
<polygon fill="white" stroke="#666666" points="363,-97.94 245,-97.94 245,-78.94 363,-78.94 363,-97.94"/>
<text text-anchor="middle" x="304" y="-85.94" font-family="Mononoki" font-size="10.00">vector_element_size</text>
</a>
</g>
</g>
<!-- Node11&#45;&gt;Node14 -->
<g id="edge19_Node000011_Node000014" class="edge">
<title>Node11&#45;&gt;Node14</title>
<g id="a_edge19_Node000011_Node000014"><a xlink:title=" ">
<path fill="none" stroke="#63b8ff" d="M209.13,-88.44C217.33,-88.44 226.06,-88.44 234.75,-88.44"/>
<polygon fill="#63b8ff" stroke="#63b8ff" points="234.92,-91.94 244.92,-88.44 234.92,-84.94 234.92,-91.94"/>
</a>
</g>
</g>
<!-- Node12&#45;&gt;Node3 -->
<g id="edge15_Node000012_Node000003" class="edge">
<title>Node12&#45;&gt;Node3</title>
<g id="a_edge15_Node000012_Node000003"><a xlink:title=" ">
<path fill="none" stroke="#63b8ff" d="M338.62,-58.44C347,-61.08 355.67,-64.66 363,-69.44 394.07,-89.72 420.23,-124.92 434.32,-146.3"/>
<polygon fill="#63b8ff" stroke="#63b8ff" points="431.42,-148.26 439.76,-154.8 437.31,-144.49 431.42,-148.26"/>
</a>
</g>
</g>
<!-- Node13 -->
<g id="Node000013" class="node">
<title>Node13</title>
<g id="a_Node000013"><a target="_parent" xlink:href="https://evjeesm.github.io/vector/group__Elements.html#ga9437d9506a3b2799f595c88b82f160b3" xlink:title=" ">
<polygon fill="white" stroke="#666666" points="480.5,-60.94 412.5,-60.94 412.5,-41.94 480.5,-41.94 480.5,-60.94"/>
<text text-anchor="middle" x="446.5" y="-48.94" font-family="Mononoki" font-size="10.00">vector_get</text>
</a>
</g>
</g>
<!-- Node12&#45;&gt;Node13 -->
<g id="edge16_Node000012_Node000013" class="edge">
<title>Node12&#45;&gt;Node13</title>
<g id="a_edge16_Node000012_Node000013"><a xlink:title=" ">
<path fill="none" stroke="#63b8ff" d="M338.65,-51.44C357.68,-51.44 381.68,-51.44 402.11,-51.44"/>
<polygon fill="#63b8ff" stroke="#63b8ff" points="402.12,-54.94 412.12,-51.44 402.12,-47.94 402.12,-54.94"/>
</a>
</g>
</g>
</g>
</svg>
