<?xml version="1.0" encoding="UTF-8" standalone="no"?>
<!DOCTYPE svg PUBLIC "-//W3C//DTD SVG 1.1//EN"
 "http://www.w3.org/Graphics/SVG/1.1/DTD/svg11.dtd">
<!-- Generated by graphviz version 2.43.0 (0)
 -->
<!-- Title: dynarr_get_ext_header Pages: 1 -->
<svg width="445pt" height="46pt"
 viewBox="0.00 0.00 445.00 46.00" xmlns="http://www.w3.org/2000/svg" xmlns:xlink="http://www.w3.org/1999/xlink">
<g id="graph0" class="graph" transform="scale(1 1) rotate(0) translate(4 42)">
<title>dynarr_get_ext_header</title>
<!-- Node1 -->
<g id="Node000001" class="node">
<title>Node1</title>
<g id="a_Node000001"><a xlink:title="Retrieve a location of extended header.">
<polygon fill="#999999" stroke="#666666" points="129,-19 0,-19 0,0 129,0 129,-19"/>
<text text-anchor="middle" x="64.5" y="-7" font-family="Mononoki" font-size="10.00">dynarr_get_ext_header</text>
</a>
</g>
</g>
<!-- Node2 -->
<g id="Node000002" class="node">
<title>Node2</title>
<g id="a_Node000002"><a xlink:href="dynarr_8c.html#a73f42f3f25cd0920d8039d63ea31be07" target="_top" xlink:title=" ">
<polygon fill="white" stroke="#666666" points="273,-38 165,-38 165,-19 273,-19 273,-38"/>
<text text-anchor="middle" x="219" y="-26" font-family="Mononoki" font-size="10.00">get_dynarr_header</text>
</a>
</g>
</g>
<!-- Node1&#45;&gt;Node2 -->
<g id="edge1_Node000001_Node000002" class="edge">
<title>Node1&#45;&gt;Node2</title>
<g id="a_edge1_Node000001_Node000002"><a xlink:title=" ">
<path fill="none" stroke="#63b8ff" d="M129.29,-17.45C137.65,-18.49 146.21,-19.56 154.56,-20.6"/>
<polygon fill="#63b8ff" stroke="#63b8ff" points="154.25,-24.08 164.61,-21.85 155.12,-17.14 154.25,-24.08"/>
</a>
</g>
</g>
<!-- Node3 -->
<g id="Node000003" class="node">
<title>Node3</title>
<g id="a_Node000003"><a target="_parent" xlink:href="https://evjeesm.github.io/vector/group__Vector__API.html#gafc2e34dbacffe6480af8681fbf46e808" xlink:title=" ">
<polygon fill="white" stroke="#666666" points="437,-19 309,-19 309,0 437,0 437,-19"/>
<text text-anchor="middle" x="373" y="-7" font-family="Mononoki" font-size="10.00">vector_get_ext_header</text>
</a>
</g>
</g>
<!-- Node1&#45;&gt;Node3 -->
<g id="edge3_Node000001_Node000003" class="edge">
<title>Node1&#45;&gt;Node3</title>
<g id="a_edge3_Node000001_Node000003"><a xlink:title=" ">
<path fill="none" stroke="#63b8ff" d="M129.01,-9.5C178.4,-9.5 247.01,-9.5 298.73,-9.5"/>
<polygon fill="#63b8ff" stroke="#63b8ff" points="298.84,-13 308.84,-9.5 298.84,-6 298.84,-13"/>
</a>
</g>
</g>
<!-- Node2&#45;&gt;Node3 -->
<g id="edge2_Node000002_Node000003" class="edge">
<title>Node2&#45;&gt;Node3</title>
<g id="a_edge2_Node000002_Node000003"><a xlink:title=" ">
<path fill="none" stroke="#63b8ff" d="M273.16,-21.85C281.47,-20.82 290.18,-19.73 298.84,-18.65"/>
<polygon fill="#63b8ff" stroke="#63b8ff" points="299.46,-22.09 308.95,-17.38 298.59,-15.15 299.46,-22.09"/>
</a>
</g>
</g>
</g>
</svg>
