<?xml version="1.0" encoding="UTF-8" standalone="no"?>
<!DOCTYPE svg PUBLIC "-//W3C//DTD SVG 1.1//EN"
 "http://www.w3.org/Graphics/SVG/1.1/DTD/svg11.dtd">
<!-- Generated by graphviz version 2.43.0 (0)
 -->
<!-- Title: dynarr_set_zero Pages: 1 -->
<svg width="541pt" height="64pt"
 viewBox="0.00 0.00 541.00 64.00" xmlns="http://www.w3.org/2000/svg" xmlns:xlink="http://www.w3.org/1999/xlink">
<g id="graph0" class="graph" transform="scale(1 1) rotate(0) translate(4 60)">
<title>dynarr_set_zero</title>
<!-- Node1 -->
<g id="Node000001" class="node">
<title>Node1</title>
<g id="a_Node000001"><a xlink:title="Sets element at given index to a zero value.">
<polygon fill="#999999" stroke="#666666" points="95,-37 0,-37 0,-18 95,-18 95,-37"/>
<text text-anchor="middle" x="47.5" y="-25" font-family="Mononoki" font-size="10.00">dynarr_set_zero</text>
</a>
</g>
</g>
<!-- Node2 -->
<g id="Node000002" class="node">
<title>Node2</title>
<g id="a_Node000002"><a xlink:href="group__Properties.html#gaf5c43e2644d185b9b01065af34ed6e29" target="_top" xlink:title="Access size property of a dynarr.">
<polygon fill="white" stroke="#666666" points="214.5,-56 141.5,-56 141.5,-37 214.5,-37 214.5,-56"/>
<text text-anchor="middle" x="178" y="-44" font-family="Mononoki" font-size="10.00">dynarr_size</text>
</a>
</g>
</g>
<!-- Node1&#45;&gt;Node2 -->
<g id="edge1_Node000001_Node000002" class="edge">
<title>Node1&#45;&gt;Node2</title>
<g id="a_edge1_Node000001_Node000002"><a xlink:title=" ">
<path fill="none" stroke="#63b8ff" d="M95.25,-34.41C107.02,-36.15 119.64,-38.02 131.35,-39.75"/>
<polygon fill="#63b8ff" stroke="#63b8ff" points="130.96,-43.23 141.36,-41.23 131.98,-36.31 130.96,-43.23"/>
</a>
</g>
</g>
<!-- Node5 -->
<g id="Node000005" class="node">
<title>Node5</title>
<g id="a_Node000005"><a target="_parent" xlink:href="https://evjeesm.github.io/vector/group__Elements.html#gaf3eaea4a3a47741f46eae9ae6e984ef2" xlink:title=" ">
<polygon fill="white" stroke="#666666" points="225,-19 131,-19 131,0 225,0 225,-19"/>
<text text-anchor="middle" x="178" y="-7" font-family="Mononoki" font-size="10.00">vector_set_zero</text>
</a>
</g>
</g>
<!-- Node1&#45;&gt;Node5 -->
<g id="edge4_Node000001_Node000005" class="edge">
<title>Node1&#45;&gt;Node5</title>
<g id="a_edge4_Node000001_Node000005"><a xlink:title=" ">
<path fill="none" stroke="#63b8ff" d="M95.25,-20.95C103.61,-19.78 112.39,-18.55 120.98,-17.35"/>
<polygon fill="#63b8ff" stroke="#63b8ff" points="121.51,-20.81 130.92,-15.95 120.54,-13.88 121.51,-20.81"/>
</a>
</g>
</g>
<!-- Node3 -->
<g id="Node000003" class="node">
<title>Node3</title>
<g id="a_Node000003"><a xlink:href="dynarr_8c.html#a73f42f3f25cd0920d8039d63ea31be07" target="_top" xlink:title=" ">
<polygon fill="white" stroke="#666666" points="369,-56 261,-56 261,-37 369,-37 369,-56"/>
<text text-anchor="middle" x="315" y="-44" font-family="Mononoki" font-size="10.00">get_dynarr_header</text>
</a>
</g>
</g>
<!-- Node2&#45;&gt;Node3 -->
<g id="edge2_Node000002_Node000003" class="edge">
<title>Node2&#45;&gt;Node3</title>
<g id="a_edge2_Node000002_Node000003"><a xlink:title=" ">
<path fill="none" stroke="#63b8ff" d="M214.82,-46.5C225.87,-46.5 238.38,-46.5 250.7,-46.5"/>
<polygon fill="#63b8ff" stroke="#63b8ff" points="250.97,-50 260.97,-46.5 250.97,-43 250.97,-50"/>
</a>
</g>
</g>
<!-- Node4 -->
<g id="Node000004" class="node">
<title>Node4</title>
<g id="a_Node000004"><a target="_parent" xlink:href="https://evjeesm.github.io/vector/group__Extension.html#gafc2e34dbacffe6480af8681fbf46e808" xlink:title=" ">
<polygon fill="white" stroke="#666666" points="533,-56 405,-56 405,-37 533,-37 533,-56"/>
<text text-anchor="middle" x="469" y="-44" font-family="Mononoki" font-size="10.00">vector_get_ext_header</text>
</a>
</g>
</g>
<!-- Node3&#45;&gt;Node4 -->
<g id="edge3_Node000003_Node000004" class="edge">
<title>Node3&#45;&gt;Node4</title>
<g id="a_edge3_Node000003_Node000004"><a xlink:title=" ">
<path fill="none" stroke="#63b8ff" d="M369.16,-46.5C377.47,-46.5 386.18,-46.5 394.84,-46.5"/>
<polygon fill="#63b8ff" stroke="#63b8ff" points="394.95,-50 404.95,-46.5 394.95,-43 394.95,-50"/>
</a>
</g>
</g>
</g>
</svg>
