<?xml version="1.0" encoding="UTF-8" standalone="no"?>
<!DOCTYPE svg PUBLIC "-//W3C//DTD SVG 1.1//EN"
 "http://www.w3.org/Graphics/SVG/1.1/DTD/svg11.dtd">
<!-- Generated by graphviz version 2.43.0 (0)
 -->
<!-- Title: dynarr_binary_find_insert_place Pages: 1 -->
<svg width="613pt" height="78pt"
 viewBox="0.00 0.00 613.00 78.00" xmlns="http://www.w3.org/2000/svg" xmlns:xlink="http://www.w3.org/1999/xlink">
<g id="graph0" class="graph" transform="scale(1 1) rotate(0) translate(4 74)">
<title>dynarr_binary_find_insert_place</title>
<!-- Node1 -->
<g id="Node000001" class="node">
<title>Node1</title>
<g id="a_Node000001"><a xlink:title=" ">
<polygon fill="#999999" stroke="#666666" points="107,-30 0,-30 0,0 107,0 107,-30"/>
<text text-anchor="start" x="8" y="-18" font-family="Mononoki" font-size="10.00">dynarr_binary_find</text>
<text text-anchor="middle" x="53.5" y="-7" font-family="Mononoki" font-size="10.00">_insert_place</text>
</a>
</g>
</g>
<!-- Node2 -->
<g id="Node000002" class="node">
<title>Node2</title>
<g id="a_Node000002"><a xlink:href="dynarr_8c.html#a187b18732062f4f69486553f37697739" target="_top" xlink:title=" ">
<polygon fill="white" stroke="#666666" points="247,-52 143,-52 143,-22 247,-22 247,-52"/>
<text text-anchor="start" x="151" y="-40" font-family="Mononoki" font-size="10.00">binary_find_insert</text>
<text text-anchor="middle" x="195" y="-29" font-family="Mononoki" font-size="10.00">_place</text>
</a>
</g>
</g>
<!-- Node1&#45;&gt;Node2 -->
<g id="edge1_Node000001_Node000002" class="edge">
<title>Node1&#45;&gt;Node2</title>
<g id="a_edge1_Node000001_Node000002"><a xlink:title=" ">
<path fill="none" stroke="#63b8ff" d="M107.24,-23.32C115.47,-24.61 124.03,-25.97 132.43,-27.29"/>
<polygon fill="#63b8ff" stroke="#63b8ff" points="132.15,-30.79 142.57,-28.89 133.24,-23.87 132.15,-30.79"/>
</a>
</g>
</g>
<!-- Node4 -->
<g id="Node000004" class="node">
<title>Node4</title>
<g id="a_Node000004"><a xlink:href="group__Dynarr__API.html#gaf5c43e2644d185b9b01065af34ed6e29" target="_top" xlink:title=" ">
<polygon fill="white" stroke="#666666" points="461,-22.5 388,-22.5 388,-3.5 461,-3.5 461,-22.5"/>
<text text-anchor="middle" x="424.5" y="-10.5" font-family="Mononoki" font-size="10.00">dynarr_size</text>
</a>
</g>
</g>
<!-- Node1&#45;&gt;Node4 -->
<g id="edge6_Node000001_Node000004" class="edge">
<title>Node1&#45;&gt;Node4</title>
<g id="a_edge6_Node000001_Node000004"><a xlink:title=" ">
<path fill="none" stroke="#63b8ff" d="M107.38,-13.61C119.11,-13.36 131.47,-13.13 143,-13 225.57,-12.07 321.83,-12.37 377.41,-12.68"/>
<polygon fill="#63b8ff" stroke="#63b8ff" points="377.61,-16.18 387.63,-12.74 377.65,-9.18 377.61,-16.18"/>
</a>
</g>
</g>
<!-- Node2&#45;&gt;Node2 -->
<g id="edge2_Node000002_Node000002" class="edge">
<title>Node2&#45;&gt;Node2</title>
<g id="a_edge2_Node000002_Node000002"><a xlink:title=" ">
<path fill="none" stroke="#63b8ff" d="M173.55,-52.28C168.79,-61.41 175.94,-70 195,-70 206.32,-70 213.44,-66.97 216.35,-62.6"/>
<polygon fill="#63b8ff" stroke="#63b8ff" points="219.86,-62.31 216.45,-52.28 212.86,-62.24 219.86,-62.31"/>
</a>
</g>
</g>
<!-- Node3 -->
<g id="Node000003" class="node">
<title>Node3</title>
<g id="a_Node000003"><a xlink:href="group__Dynarr__API.html#ga93c32dd116523090126d427cce08e114" target="_top" xlink:title=" ">
<polygon fill="white" stroke="#666666" points="352,-43.5 283,-43.5 283,-24.5 352,-24.5 352,-43.5"/>
<text text-anchor="middle" x="317.5" y="-31.5" font-family="Mononoki" font-size="10.00">dynarr_get</text>
</a>
</g>
</g>
<!-- Node2&#45;&gt;Node3 -->
<g id="edge3_Node000002_Node000003" class="edge">
<title>Node2&#45;&gt;Node3</title>
<g id="a_edge3_Node000002_Node000003"><a xlink:title=" ">
<path fill="none" stroke="#63b8ff" d="M247.1,-35.73C255.58,-35.52 264.31,-35.3 272.59,-35.09"/>
<polygon fill="#63b8ff" stroke="#63b8ff" points="272.88,-38.59 282.79,-34.84 272.7,-31.59 272.88,-38.59"/>
</a>
</g>
</g>
<!-- Node3&#45;&gt;Node4 -->
<g id="edge4_Node000003_Node000004" class="edge">
<title>Node3&#45;&gt;Node4</title>
<g id="a_edge4_Node000003_Node000004"><a xlink:title=" ">
<path fill="none" stroke="#63b8ff" d="M352.01,-27.3C360.21,-25.66 369.12,-23.88 377.78,-22.14"/>
<polygon fill="#63b8ff" stroke="#63b8ff" points="378.65,-25.54 387.77,-20.15 377.28,-18.68 378.65,-25.54"/>
</a>
</g>
</g>
<!-- Node5 -->
<g id="Node000005" class="node">
<title>Node5</title>
<g id="a_Node000005"><a xlink:href="dynarr_8c.html#a73f42f3f25cd0920d8039d63ea31be07" target="_top" xlink:title=" ">
<polygon fill="white" stroke="#666666" points="605,-22.5 497,-22.5 497,-3.5 605,-3.5 605,-22.5"/>
<text text-anchor="middle" x="551" y="-10.5" font-family="Mononoki" font-size="10.00">get_dynarr_header</text>
</a>
</g>
</g>
<!-- Node4&#45;&gt;Node5 -->
<g id="edge5_Node000004_Node000005" class="edge">
<title>Node4&#45;&gt;Node5</title>
<g id="a_edge5_Node000004_Node000005"><a xlink:title=" ">
<path fill="none" stroke="#63b8ff" d="M461.18,-13C469.13,-13 477.8,-13 486.49,-13"/>
<polygon fill="#63b8ff" stroke="#63b8ff" points="486.68,-16.5 496.68,-13 486.68,-9.5 486.68,-16.5"/>
</a>
</g>
</g>
</g>
</svg>
