<?xml version="1.0" encoding="UTF-8" standalone="no"?>
<!DOCTYPE svg PUBLIC "-//W3C//DTD SVG 1.1//EN"
 "http://www.w3.org/Graphics/SVG/1.1/DTD/svg11.dtd">
<!-- Generated by graphviz version 2.43.0 (0)
 -->
<!-- Title: dynarr_pop_front Pages: 1 -->
<svg width="929pt" height="192pt"
 viewBox="0.00 0.00 929.00 191.86" xmlns="http://www.w3.org/2000/svg" xmlns:xlink="http://www.w3.org/1999/xlink">
<g id="graph0" class="graph" transform="scale(1 1) rotate(0) translate(4 187.86)">
<title>dynarr_pop_front</title>
<!-- Node1 -->
<g id="Node000001" class="node">
<title>Node1</title>
<g id="a_Node000001"><a xlink:title=" ">
<polygon fill="#999999" stroke="#666666" points="100,-94 0,-94 0,-75 100,-75 100,-94"/>
<text text-anchor="middle" x="50" y="-82" font-family="Mononoki" font-size="10.00">dynarr_pop_front</text>
</a>
</g>
</g>
<!-- Node2 -->
<g id="Node000002" class="node">
<title>Node2</title>
<g id="a_Node000002"><a xlink:href="group__Dynarr__API.html#gae2e52e602d3867ce3e5fee688ea20263" target="_top" xlink:title=" ">
<polygon fill="white" stroke="#666666" points="227,-94 136,-94 136,-75 227,-75 227,-94"/>
<text text-anchor="middle" x="181.5" y="-82" font-family="Mononoki" font-size="10.00">dynarr_remove</text>
</a>
</g>
</g>
<!-- Node1&#45;&gt;Node2 -->
<g id="edge1_Node000001_Node000002" class="edge">
<title>Node1&#45;&gt;Node2</title>
<g id="a_edge1_Node000001_Node000002"><a xlink:title=" ">
<path fill="none" stroke="#63b8ff" d="M100.33,-84.5C108.66,-84.5 117.36,-84.5 125.82,-84.5"/>
<polygon fill="#63b8ff" stroke="#63b8ff" points="125.98,-88 135.98,-84.5 125.98,-81 125.98,-88"/>
</a>
</g>
</g>
<!-- Node3 -->
<g id="Node000003" class="node">
<title>Node3</title>
<g id="a_Node000003"><a xlink:href="group__Dynarr__API.html#ga1187f49d8bde19551b2c95ad430e596c" target="_top" xlink:title=" ">
<polygon fill="white" stroke="#666666" points="387,-94 263,-94 263,-75 387,-75 387,-94"/>
<text text-anchor="middle" x="325" y="-82" font-family="Mononoki" font-size="10.00">dynarr_remove_range</text>
</a>
</g>
</g>
<!-- Node2&#45;&gt;Node3 -->
<g id="edge2_Node000002_Node000003" class="edge">
<title>Node2&#45;&gt;Node3</title>
<g id="a_edge2_Node000002_Node000003"><a xlink:title=" ">
<path fill="none" stroke="#63b8ff" d="M227.27,-84.5C235.42,-84.5 244.1,-84.5 252.79,-84.5"/>
<polygon fill="#63b8ff" stroke="#63b8ff" points="252.96,-88 262.96,-84.5 252.96,-81 252.96,-88"/>
</a>
</g>
</g>
<!-- Node4 -->
<g id="Node000004" class="node">
<title>Node4</title>
<g id="a_Node000004"><a xlink:href="group__Dynarr__API.html#gaf5c43e2644d185b9b01065af34ed6e29" target="_top" xlink:title=" ">
<polygon fill="white" stroke="#666666" points="749.5,-132 676.5,-132 676.5,-113 749.5,-113 749.5,-132"/>
<text text-anchor="middle" x="713" y="-120" font-family="Mononoki" font-size="10.00">dynarr_size</text>
</a>
</g>
</g>
<!-- Node3&#45;&gt;Node4 -->
<g id="edge3_Node000003_Node000004" class="edge">
<title>Node3&#45;&gt;Node4</title>
<g id="a_edge3_Node000003_Node000004"><a xlink:title=" ">
<path fill="none" stroke="#63b8ff" d="M387.16,-90.52C464.71,-98.16 596.64,-111.14 666.1,-117.98"/>
<polygon fill="#63b8ff" stroke="#63b8ff" points="666,-121.49 676.29,-118.98 666.68,-114.52 666,-121.49"/>
</a>
</g>
</g>
<!-- Node6 -->
<g id="Node000006" class="node">
<title>Node6</title>
<g id="a_Node000006"><a xlink:href="group__Auto-resize.html#ga9ff20c2ac9693f6d8f0ea97f9b46539c" target="_top" xlink:title=" ">
<polygon fill="white" stroke="#666666" points="508,-151 423,-151 423,-132 508,-132 508,-151"/>
<text text-anchor="middle" x="465.5" y="-139" font-family="Mononoki" font-size="10.00">free_space_at</text>
</a>
</g>
</g>
<!-- Node3&#45;&gt;Node6 -->
<g id="edge5_Node000003_Node000006" class="edge">
<title>Node3&#45;&gt;Node6</title>
<g id="a_edge5_Node000003_Node000006"><a xlink:title=" ">
<path fill="none" stroke="#63b8ff" d="M349.18,-94.04C371.75,-103.33 406.27,-117.54 431.66,-127.99"/>
<polygon fill="#63b8ff" stroke="#63b8ff" points="430.66,-131.36 441.24,-131.93 433.33,-124.89 430.66,-131.36"/>
</a>
</g>
</g>
<!-- Node8 -->
<g id="Node000008" class="node">
<title>Node8</title>
<g id="a_Node000008"><a xlink:href="group__Auto-resize.html#ga8eb6c0a577084ccd7a64bec67b8bdbbe" target="_top" xlink:title=" ">
<polygon fill="white" stroke="#666666" points="602,-56 555,-56 555,-37 602,-37 602,-56"/>
<text text-anchor="middle" x="578.5" y="-44" font-family="Mononoki" font-size="10.00">shrink</text>
</a>
</g>
</g>
<!-- Node3&#45;&gt;Node8 -->
<g id="edge10_Node000003_Node000008" class="edge">
<title>Node3&#45;&gt;Node8</title>
<g id="a_edge10_Node000003_Node000008"><a xlink:title=" ">
<path fill="none" stroke="#63b8ff" d="M387.2,-75.25C436.85,-67.75 504.93,-57.47 544.76,-51.45"/>
<polygon fill="#63b8ff" stroke="#63b8ff" points="545.36,-54.9 554.73,-49.94 544.32,-47.97 545.36,-54.9"/>
</a>
</g>
</g>
<!-- Node5 -->
<g id="Node000005" class="node">
<title>Node5</title>
<g id="a_Node000005"><a xlink:href="dynarr_8c.html#a73f42f3f25cd0920d8039d63ea31be07" target="_top" xlink:title=" ">
<polygon fill="white" stroke="#666666" points="921,-113 813,-113 813,-94 921,-94 921,-113"/>
<text text-anchor="middle" x="867" y="-101" font-family="Mononoki" font-size="10.00">get_dynarr_header</text>
</a>
</g>
</g>
<!-- Node4&#45;&gt;Node5 -->
<g id="edge4_Node000004_Node000005" class="edge">
<title>Node4&#45;&gt;Node5</title>
<g id="a_edge4_Node000004_Node000005"><a xlink:title=" ">
<path fill="none" stroke="#63b8ff" d="M749.64,-118.05C765.48,-116.06 784.62,-113.67 802.76,-111.4"/>
<polygon fill="#63b8ff" stroke="#63b8ff" points="803.22,-114.87 812.71,-110.16 802.36,-107.93 803.22,-114.87"/>
</a>
</g>
</g>
<!-- Node6&#45;&gt;Node4 -->
<g id="edge8_Node000006_Node000004" class="edge">
<title>Node6&#45;&gt;Node4</title>
<g id="a_edge8_Node000006_Node000004"><a xlink:title=" ">
<path fill="none" stroke="#63b8ff" d="M508.15,-138.28C551.93,-134.89 620.64,-129.57 666,-126.06"/>
<polygon fill="#63b8ff" stroke="#63b8ff" points="666.45,-129.54 676.15,-125.27 665.91,-122.56 666.45,-129.54"/>
</a>
</g>
</g>
<!-- Node6&#45;&gt;Node5 -->
<g id="edge9_Node000006_Node000005" class="edge">
<title>Node6&#45;&gt;Node5</title>
<g id="a_edge9_Node000006_Node000005"><a xlink:title=" ">
<path fill="none" stroke="#63b8ff" d="M480.89,-151.06C495.9,-160.42 520.5,-174.05 544,-179.5 573.87,-186.43 582.54,-183.07 613,-179.5 687.41,-170.77 705.74,-163.62 777,-140.5 797.09,-133.98 819.01,-124.9 836.06,-117.36"/>
<polygon fill="#63b8ff" stroke="#63b8ff" points="837.8,-120.42 845.49,-113.13 834.94,-114.03 837.8,-120.42"/>
</a>
</g>
</g>
<!-- Node7 -->
<g id="Node000007" class="node">
<title>Node7</title>
<g id="a_Node000007"><a xlink:href="group__Dynarr__API.html#ga93c32dd116523090126d427cce08e114" target="_top" xlink:title=" ">
<polygon fill="white" stroke="#666666" points="613,-170 544,-170 544,-151 613,-151 613,-170"/>
<text text-anchor="middle" x="578.5" y="-158" font-family="Mononoki" font-size="10.00">dynarr_get</text>
</a>
</g>
</g>
<!-- Node6&#45;&gt;Node7 -->
<g id="edge6_Node000006_Node000007" class="edge">
<title>Node6&#45;&gt;Node7</title>
<g id="a_edge6_Node000006_Node000007"><a xlink:title=" ">
<path fill="none" stroke="#63b8ff" d="M508.15,-148.63C516.55,-150.07 525.39,-151.58 533.86,-153.03"/>
<polygon fill="#63b8ff" stroke="#63b8ff" points="533.49,-156.52 543.93,-154.75 534.67,-149.62 533.49,-156.52"/>
</a>
</g>
</g>
<!-- Node7&#45;&gt;Node4 -->
<g id="edge7_Node000007_Node000004" class="edge">
<title>Node7&#45;&gt;Node4</title>
<g id="a_edge7_Node000007_Node000004"><a xlink:title=" ">
<path fill="none" stroke="#63b8ff" d="M612.94,-150.91C629.88,-146.05 650.66,-140.09 668.81,-134.89"/>
<polygon fill="#63b8ff" stroke="#63b8ff" points="669.93,-138.21 678.58,-132.09 668,-131.48 669.93,-138.21"/>
</a>
</g>
</g>
<!-- Node8&#45;&gt;Node4 -->
<g id="edge14_Node000008_Node000004" class="edge">
<title>Node8&#45;&gt;Node4</title>
<g id="a_edge14_Node000008_Node000004"><a xlink:title=" ">
<path fill="none" stroke="#63b8ff" d="M593.28,-56.19C599.36,-60.51 606.58,-65.71 613,-70.5 629.24,-82.63 631.33,-88.56 649,-98.5 656.18,-102.54 664.17,-106.17 671.99,-109.32"/>
<polygon fill="#63b8ff" stroke="#63b8ff" points="670.78,-112.6 681.37,-112.9 673.28,-106.06 670.78,-112.6"/>
</a>
</g>
</g>
<!-- Node8&#45;&gt;Node5 -->
<g id="edge15_Node000008_Node000005" class="edge">
<title>Node8&#45;&gt;Node5</title>
<g id="a_edge15_Node000008_Node000005"><a xlink:title=" ">
<path fill="none" stroke="#63b8ff" d="M602.25,-52.85C615.77,-56.52 633.29,-61.06 649,-64.5 700.4,-75.76 759.18,-86.17 802.58,-93.4"/>
<polygon fill="#63b8ff" stroke="#63b8ff" points="802.28,-96.9 812.72,-95.08 803.42,-89.99 802.28,-96.9"/>
</a>
</g>
</g>
<!-- Node9 -->
<g id="Node000009" class="node">
<title>Node9</title>
<g id="a_Node000009"><a xlink:href="group__Dynarr__API.html#ga3ff11107726213a640d814b63cb123b2" target="_top" xlink:title=" ">
<polygon fill="white" stroke="#666666" points="760.5,-56 665.5,-56 665.5,-37 760.5,-37 760.5,-56"/>
<text text-anchor="middle" x="713" y="-44" font-family="Mononoki" font-size="10.00">dynarr_capacity</text>
</a>
</g>
</g>
<!-- Node8&#45;&gt;Node9 -->
<g id="edge11_Node000008_Node000009" class="edge">
<title>Node8&#45;&gt;Node9</title>
<g id="a_edge11_Node000008_Node000009"><a xlink:title=" ">
<path fill="none" stroke="#63b8ff" d="M602.28,-46.5C616.89,-46.5 636.54,-46.5 655.18,-46.5"/>
<polygon fill="#63b8ff" stroke="#63b8ff" points="655.4,-50 665.4,-46.5 655.4,-43 655.4,-50"/>
</a>
</g>
</g>
<!-- Node10 -->
<g id="Node000010" class="node">
<title>Node10</title>
<g id="a_Node000010"><a xlink:href="group__Dynarr__API.html#ga745bff084f68eec950fa9ea0b42fb4e7" target="_top" xlink:title=" ">
<polygon fill="white" stroke="#666666" points="777,-19 649,-19 649,0 777,0 777,-19"/>
<text text-anchor="middle" x="713" y="-7" font-family="Mononoki" font-size="10.00">dynarr_initial_capacity</text>
</a>
</g>
</g>
<!-- Node8&#45;&gt;Node10 -->
<g id="edge12_Node000008_Node000010" class="edge">
<title>Node8&#45;&gt;Node10</title>
<g id="a_edge12_Node000008_Node000010"><a xlink:title=" ">
<path fill="none" stroke="#63b8ff" d="M602.28,-40.14C620.31,-35.1 646.03,-27.92 668.04,-21.78"/>
<polygon fill="#63b8ff" stroke="#63b8ff" points="669.16,-25.1 677.85,-19.04 667.27,-18.36 669.16,-25.1"/>
</a>
</g>
</g>
<!-- Node10&#45;&gt;Node5 -->
<g id="edge13_Node000010_Node000005" class="edge">
<title>Node10&#45;&gt;Node5</title>
<g id="a_edge13_Node000010_Node000005"><a xlink:title=" ">
<path fill="none" stroke="#63b8ff" d="M757,-19.1C763.89,-21.39 770.79,-24.17 777,-27.5 805.77,-42.94 833.49,-68.94 850.14,-86.16"/>
<polygon fill="#63b8ff" stroke="#63b8ff" points="847.97,-88.96 857.39,-93.83 853.06,-84.16 847.97,-88.96"/>
</a>
</g>
</g>
</g>
</svg>
