<?xml version="1.0" encoding="UTF-8" standalone="no"?>
<!DOCTYPE svg PUBLIC "-//W3C//DTD SVG 1.1//EN"
 "http://www.w3.org/Graphics/SVG/1.1/DTD/svg11.dtd">
<!-- Generated by graphviz version 2.43.0 (0)
 -->
<!-- Title: dynarr_set Pages: 1 -->
<svg width="493pt" height="64pt"
 viewBox="0.00 0.00 493.00 64.00" xmlns="http://www.w3.org/2000/svg" xmlns:xlink="http://www.w3.org/1999/xlink">
<g id="graph0" class="graph" transform="scale(1 1) rotate(0) translate(4 60)">
<title>dynarr_set</title>
<!-- Node1 -->
<g id="Node000001" class="node">
<title>Node1</title>
<g id="a_Node000001"><a xlink:title=" ">
<polygon fill="#999999" stroke="#666666" points="68,-37 0,-37 0,-18 68,-18 68,-37"/>
<text text-anchor="middle" x="34" y="-25" font-family="Mononoki" font-size="10.00">dynarr_set</text>
</a>
</g>
</g>
<!-- Node2 -->
<g id="Node000002" class="node">
<title>Node2</title>
<g id="a_Node000002"><a xlink:href="group__Dynarr__API.html#gaf5c43e2644d185b9b01065af34ed6e29" target="_top" xlink:title=" ">
<polygon fill="white" stroke="#666666" points="177,-56 104,-56 104,-37 177,-37 177,-56"/>
<text text-anchor="middle" x="140.5" y="-44" font-family="Mononoki" font-size="10.00">dynarr_size</text>
</a>
</g>
</g>
<!-- Node1&#45;&gt;Node2 -->
<g id="edge1_Node000001_Node000002" class="edge">
<title>Node1&#45;&gt;Node2</title>
<g id="a_edge1_Node000001_Node000002"><a xlink:title=" ">
<path fill="none" stroke="#63b8ff" d="M68.06,-33.51C76.23,-35 85.12,-36.61 93.77,-38.19"/>
<polygon fill="#63b8ff" stroke="#63b8ff" points="93.29,-41.66 103.76,-40 94.54,-34.77 93.29,-41.66"/>
</a>
</g>
</g>
<!-- Node5 -->
<g id="Node000005" class="node">
<title>Node5</title>
<g id="a_Node000005"><a target="_parent" xlink:href="https://evjeesm.github.io/vector/group__Vector__API.html#gab3a5e466261d31ee9edd77a5eb280030" xlink:title=" ">
<polygon fill="white" stroke="#666666" points="174.5,-19 106.5,-19 106.5,0 174.5,0 174.5,-19"/>
<text text-anchor="middle" x="140.5" y="-7" font-family="Mononoki" font-size="10.00">vector_set</text>
</a>
</g>
</g>
<!-- Node1&#45;&gt;Node5 -->
<g id="edge4_Node000001_Node000005" class="edge">
<title>Node1&#45;&gt;Node5</title>
<g id="a_edge4_Node000001_Node000005"><a xlink:title=" ">
<path fill="none" stroke="#63b8ff" d="M68.06,-21.8C77.02,-20.26 86.85,-18.57 96.28,-16.94"/>
<polygon fill="#63b8ff" stroke="#63b8ff" points="97.03,-20.37 106.29,-15.22 95.84,-13.47 97.03,-20.37"/>
</a>
</g>
</g>
<!-- Node3 -->
<g id="Node000003" class="node">
<title>Node3</title>
<g id="a_Node000003"><a xlink:href="dynarr_8c.html#a73f42f3f25cd0920d8039d63ea31be07" target="_top" xlink:title=" ">
<polygon fill="white" stroke="#666666" points="321,-56 213,-56 213,-37 321,-37 321,-56"/>
<text text-anchor="middle" x="267" y="-44" font-family="Mononoki" font-size="10.00">get_dynarr_header</text>
</a>
</g>
</g>
<!-- Node2&#45;&gt;Node3 -->
<g id="edge2_Node000002_Node000003" class="edge">
<title>Node2&#45;&gt;Node3</title>
<g id="a_edge2_Node000002_Node000003"><a xlink:title=" ">
<path fill="none" stroke="#63b8ff" d="M177.18,-46.5C185.13,-46.5 193.8,-46.5 202.49,-46.5"/>
<polygon fill="#63b8ff" stroke="#63b8ff" points="202.68,-50 212.68,-46.5 202.68,-43 202.68,-50"/>
</a>
</g>
</g>
<!-- Node4 -->
<g id="Node000004" class="node">
<title>Node4</title>
<g id="a_Node000004"><a target="_parent" xlink:href="https://evjeesm.github.io/vector/group__Vector__API.html#gafc2e34dbacffe6480af8681fbf46e808" xlink:title=" ">
<polygon fill="white" stroke="#666666" points="485,-56 357,-56 357,-37 485,-37 485,-56"/>
<text text-anchor="middle" x="421" y="-44" font-family="Mononoki" font-size="10.00">vector_get_ext_header</text>
</a>
</g>
</g>
<!-- Node3&#45;&gt;Node4 -->
<g id="edge3_Node000003_Node000004" class="edge">
<title>Node3&#45;&gt;Node4</title>
<g id="a_edge3_Node000003_Node000004"><a xlink:title=" ">
<path fill="none" stroke="#63b8ff" d="M321.16,-46.5C329.47,-46.5 338.18,-46.5 346.84,-46.5"/>
<polygon fill="#63b8ff" stroke="#63b8ff" points="346.95,-50 356.95,-46.5 346.95,-43 346.95,-50"/>
</a>
</g>
</g>
</g>
</svg>
