<?xml version="1.0" encoding="UTF-8" standalone="no"?>
<!DOCTYPE svg PUBLIC "-//W3C//DTD SVG 1.1//EN"
 "http://www.w3.org/Graphics/SVG/1.1/DTD/svg11.dtd">
<!-- Generated by graphviz version 2.43.0 (0)
 -->
<!-- Title: dynarr_last Pages: 1 -->
<svg width="601pt" height="64pt"
 viewBox="0.00 0.00 601.00 64.00" xmlns="http://www.w3.org/2000/svg" xmlns:xlink="http://www.w3.org/1999/xlink">
<g id="graph0" class="graph" transform="scale(1 1) rotate(0) translate(4 60)">
<title>dynarr_last</title>
<!-- Node1 -->
<g id="Node000001" class="node">
<title>Node1</title>
<g id="a_Node000001"><a xlink:title="Access last element if a dynarr.">
<polygon fill="#999999" stroke="#666666" points="71,-38 0,-38 0,-19 71,-19 71,-38"/>
<text text-anchor="middle" x="35.5" y="-26" font-family="Mononoki" font-size="10.00">dynarr_last</text>
</a>
</g>
</g>
<!-- Node2 -->
<g id="Node000002" class="node">
<title>Node2</title>
<g id="a_Node000002"><a xlink:href="group__Elements.html#ga93c32dd116523090126d427cce08e114" target="_top" xlink:title="Returns pointer for the element at index.">
<polygon fill="white" stroke="#666666" points="176,-19 107,-19 107,0 176,0 176,-19"/>
<text text-anchor="middle" x="141.5" y="-7" font-family="Mononoki" font-size="10.00">dynarr_get</text>
</a>
</g>
</g>
<!-- Node1&#45;&gt;Node2 -->
<g id="edge1_Node000001_Node000002" class="edge">
<title>Node1&#45;&gt;Node2</title>
<g id="a_edge1_Node000001_Node000002"><a xlink:title=" ">
<path fill="none" stroke="#63b8ff" d="M71.13,-22.17C79.37,-20.67 88.27,-19.04 96.85,-17.47"/>
<polygon fill="#63b8ff" stroke="#63b8ff" points="97.52,-20.91 106.73,-15.67 96.26,-14.02 97.52,-20.91"/>
</a>
</g>
</g>
<!-- Node3 -->
<g id="Node000003" class="node">
<title>Node3</title>
<g id="a_Node000003"><a xlink:href="group__Properties.html#gaf5c43e2644d185b9b01065af34ed6e29" target="_top" xlink:title="Access size property of a dynarr.">
<polygon fill="white" stroke="#666666" points="285,-56 212,-56 212,-37 285,-37 285,-56"/>
<text text-anchor="middle" x="248.5" y="-44" font-family="Mononoki" font-size="10.00">dynarr_size</text>
</a>
</g>
</g>
<!-- Node1&#45;&gt;Node3 -->
<g id="edge6_Node000001_Node000003" class="edge">
<title>Node1&#45;&gt;Node3</title>
<g id="a_edge6_Node000001_Node000003"><a xlink:title=" ">
<path fill="none" stroke="#63b8ff" d="M71.34,-31.47C107.02,-34.52 162.64,-39.26 201.82,-42.6"/>
<polygon fill="#63b8ff" stroke="#63b8ff" points="201.64,-46.1 211.9,-43.46 202.23,-39.13 201.64,-46.1"/>
</a>
</g>
</g>
<!-- Node2&#45;&gt;Node3 -->
<g id="edge2_Node000002_Node000003" class="edge">
<title>Node2&#45;&gt;Node3</title>
<g id="a_edge2_Node000002_Node000003"><a xlink:title=" ">
<path fill="none" stroke="#63b8ff" d="M169.54,-19.03C182.06,-23.44 197.12,-28.75 210.66,-33.52"/>
<polygon fill="#63b8ff" stroke="#63b8ff" points="209.59,-36.85 220.19,-36.88 211.92,-30.25 209.59,-36.85"/>
</a>
</g>
</g>
<!-- Node6 -->
<g id="Node000006" class="node">
<title>Node6</title>
<g id="a_Node000006"><a target="_parent" xlink:href="https://evjeesm.github.io/vector/group__Elements.html#ga9437d9506a3b2799f595c88b82f160b3" xlink:title=" ">
<polygon fill="white" stroke="#666666" points="282.5,-19 214.5,-19 214.5,0 282.5,0 282.5,-19"/>
<text text-anchor="middle" x="248.5" y="-7" font-family="Mononoki" font-size="10.00">vector_get</text>
</a>
</g>
</g>
<!-- Node2&#45;&gt;Node6 -->
<g id="edge5_Node000002_Node000006" class="edge">
<title>Node2&#45;&gt;Node6</title>
<g id="a_edge5_Node000002_Node000006"><a xlink:title=" ">
<path fill="none" stroke="#63b8ff" d="M176.01,-9.5C185,-9.5 194.85,-9.5 204.29,-9.5"/>
<polygon fill="#63b8ff" stroke="#63b8ff" points="204.31,-13 214.31,-9.5 204.31,-6 204.31,-13"/>
</a>
</g>
</g>
<!-- Node4 -->
<g id="Node000004" class="node">
<title>Node4</title>
<g id="a_Node000004"><a xlink:href="dynarr_8c.html#a73f42f3f25cd0920d8039d63ea31be07" target="_top" xlink:title=" ">
<polygon fill="white" stroke="#666666" points="429,-56 321,-56 321,-37 429,-37 429,-56"/>
<text text-anchor="middle" x="375" y="-44" font-family="Mononoki" font-size="10.00">get_dynarr_header</text>
</a>
</g>
</g>
<!-- Node3&#45;&gt;Node4 -->
<g id="edge3_Node000003_Node000004" class="edge">
<title>Node3&#45;&gt;Node4</title>
<g id="a_edge3_Node000003_Node000004"><a xlink:title=" ">
<path fill="none" stroke="#63b8ff" d="M285.18,-46.5C293.13,-46.5 301.8,-46.5 310.49,-46.5"/>
<polygon fill="#63b8ff" stroke="#63b8ff" points="310.68,-50 320.68,-46.5 310.68,-43 310.68,-50"/>
</a>
</g>
</g>
<!-- Node5 -->
<g id="Node000005" class="node">
<title>Node5</title>
<g id="a_Node000005"><a target="_parent" xlink:href="https://evjeesm.github.io/vector/group__Extension.html#gafc2e34dbacffe6480af8681fbf46e808" xlink:title=" ">
<polygon fill="white" stroke="#666666" points="593,-56 465,-56 465,-37 593,-37 593,-56"/>
<text text-anchor="middle" x="529" y="-44" font-family="Mononoki" font-size="10.00">vector_get_ext_header</text>
</a>
</g>
</g>
<!-- Node4&#45;&gt;Node5 -->
<g id="edge4_Node000004_Node000005" class="edge">
<title>Node4&#45;&gt;Node5</title>
<g id="a_edge4_Node000004_Node000005"><a xlink:title=" ">
<path fill="none" stroke="#63b8ff" d="M429.16,-46.5C437.47,-46.5 446.18,-46.5 454.84,-46.5"/>
<polygon fill="#63b8ff" stroke="#63b8ff" points="454.95,-50 464.95,-46.5 454.95,-43 454.95,-50"/>
</a>
</g>
</g>
</g>
</svg>
