<?xml version="1.0" encoding="UTF-8" standalone="no"?>
<!DOCTYPE svg PUBLIC "-//W3C//DTD SVG 1.1//EN"
 "http://www.w3.org/Graphics/SVG/1.1/DTD/svg11.dtd">
<!-- Generated by graphviz version 2.43.0 (0)
 -->
<!-- Title: dynarr_get Pages: 1 -->
<svg width="494pt" height="64pt"
 viewBox="0.00 0.00 494.00 64.00" xmlns="http://www.w3.org/2000/svg" xmlns:xlink="http://www.w3.org/1999/xlink">
<g id="graph0" class="graph" transform="scale(1 1) rotate(0) translate(4 60)">
<title>dynarr_get</title>
<!-- Node1 -->
<g id="Node000001" class="node">
<title>Node1</title>
<g id="a_Node000001"><a xlink:title="Returns pointer for the element at index.">
<polygon fill="#999999" stroke="#666666" points="69,-37 0,-37 0,-18 69,-18 69,-37"/>
<text text-anchor="middle" x="34.5" y="-25" font-family="Mononoki" font-size="10.00">dynarr_get</text>
</a>
</g>
</g>
<!-- Node2 -->
<g id="Node000002" class="node">
<title>Node2</title>
<g id="a_Node000002"><a xlink:href="group__Properties.html#gaf5c43e2644d185b9b01065af34ed6e29" target="_top" xlink:title="Access size property of a dynarr.">
<polygon fill="white" stroke="#666666" points="178,-56 105,-56 105,-37 178,-37 178,-56"/>
<text text-anchor="middle" x="141.5" y="-44" font-family="Mononoki" font-size="10.00">dynarr_size</text>
</a>
</g>
</g>
<!-- Node1&#45;&gt;Node2 -->
<g id="edge1_Node000001_Node000002" class="edge">
<title>Node1&#45;&gt;Node2</title>
<g id="a_edge1_Node000001_Node000002"><a xlink:title=" ">
<path fill="none" stroke="#63b8ff" d="M69.01,-33.56C77.21,-35.05 86.12,-36.66 94.78,-38.23"/>
<polygon fill="#63b8ff" stroke="#63b8ff" points="94.31,-41.7 104.77,-40.03 95.55,-34.81 94.31,-41.7"/>
</a>
</g>
</g>
<!-- Node5 -->
<g id="Node000005" class="node">
<title>Node5</title>
<g id="a_Node000005"><a target="_parent" xlink:href="https://evjeesm.github.io/vector/group__Elements.html#ga9437d9506a3b2799f595c88b82f160b3" xlink:title=" ">
<polygon fill="white" stroke="#666666" points="175.5,-19 107.5,-19 107.5,0 175.5,0 175.5,-19"/>
<text text-anchor="middle" x="141.5" y="-7" font-family="Mononoki" font-size="10.00">vector_get</text>
</a>
</g>
</g>
<!-- Node1&#45;&gt;Node5 -->
<g id="edge4_Node000001_Node000005" class="edge">
<title>Node1&#45;&gt;Node5</title>
<g id="a_edge4_Node000001_Node000005"><a xlink:title=" ">
<path fill="none" stroke="#63b8ff" d="M69.01,-21.76C78,-20.21 87.85,-18.53 97.29,-16.91"/>
<polygon fill="#63b8ff" stroke="#63b8ff" points="98.04,-20.33 107.31,-15.19 96.86,-13.43 98.04,-20.33"/>
</a>
</g>
</g>
<!-- Node3 -->
<g id="Node000003" class="node">
<title>Node3</title>
<g id="a_Node000003"><a xlink:href="dynarr_8c.html#a73f42f3f25cd0920d8039d63ea31be07" target="_top" xlink:title=" ">
<polygon fill="white" stroke="#666666" points="322,-56 214,-56 214,-37 322,-37 322,-56"/>
<text text-anchor="middle" x="268" y="-44" font-family="Mononoki" font-size="10.00">get_dynarr_header</text>
</a>
</g>
</g>
<!-- Node2&#45;&gt;Node3 -->
<g id="edge2_Node000002_Node000003" class="edge">
<title>Node2&#45;&gt;Node3</title>
<g id="a_edge2_Node000002_Node000003"><a xlink:title=" ">
<path fill="none" stroke="#63b8ff" d="M178.18,-46.5C186.13,-46.5 194.8,-46.5 203.49,-46.5"/>
<polygon fill="#63b8ff" stroke="#63b8ff" points="203.68,-50 213.68,-46.5 203.68,-43 203.68,-50"/>
</a>
</g>
</g>
<!-- Node4 -->
<g id="Node000004" class="node">
<title>Node4</title>
<g id="a_Node000004"><a target="_parent" xlink:href="https://evjeesm.github.io/vector/group__Extension.html#gafc2e34dbacffe6480af8681fbf46e808" xlink:title=" ">
<polygon fill="white" stroke="#666666" points="486,-56 358,-56 358,-37 486,-37 486,-56"/>
<text text-anchor="middle" x="422" y="-44" font-family="Mononoki" font-size="10.00">vector_get_ext_header</text>
</a>
</g>
</g>
<!-- Node3&#45;&gt;Node4 -->
<g id="edge3_Node000003_Node000004" class="edge">
<title>Node3&#45;&gt;Node4</title>
<g id="a_edge3_Node000003_Node000004"><a xlink:title=" ">
<path fill="none" stroke="#63b8ff" d="M322.16,-46.5C330.47,-46.5 339.18,-46.5 347.84,-46.5"/>
<polygon fill="#63b8ff" stroke="#63b8ff" points="347.95,-50 357.95,-46.5 347.95,-43 347.95,-50"/>
</a>
</g>
</g>
</g>
</svg>
