<?xml version="1.0" encoding="UTF-8" standalone="no"?>
<!DOCTYPE svg PUBLIC "-//W3C//DTD SVG 1.1//EN"
 "http://www.w3.org/Graphics/SVG/1.1/DTD/svg11.dtd">
<!-- Generated by graphviz version 2.43.0 (0)
 -->
<!-- Title: dynarr_binary_insert Pages: 1 -->
<!--zoomable 386 -->

<svg id="main" version="1.1" xmlns="http://www.w3.org/2000/svg" xmlns:xlink="http://www.w3.org/1999/xlink" xml:space="preserve" onload="init(evt)">
<style type="text/css"><![CDATA[
.node, .edge {opacity: 0.7;}
.node.selected, .edge.selected {opacity: 1;}
.edge:hover path { stroke: red; }
.edge:hover polygon { stroke: red; fill: red; }
]]></style>

<defs>
  <circle id="rim" cx="0" cy="0" r="7"/>
  <circle id="rim2" cx="0" cy="0" r="3.5"/>
  <g id="zoomPlus">
    <use xlink:href="#rim" fill="#404040"><set attributeName="fill" to="#808080" begin="zoomplus.mouseover" end="zoomplus.mouseout"/></use>
    <path d="M-4,0h8M0,-4v8" fill="none" stroke="white" stroke-width="1.5" pointer-events="none"/>
  </g>
  <g id="zoomMin">
    <use xlink:href="#rim" fill="#404040"><set attributeName="fill" to="#808080" begin="zoomminus.mouseover" end="zoomminus.mouseout"/></use>
    <path d="M-4,0h8" fill="none" stroke="white" stroke-width="1.5" pointer-events="none"/>
  </g>
  <g id="arrowUp" transform="translate(30 24)">
    <use xlink:href="#rim"/>
    <path pointer-events="none" fill="none" stroke="white" stroke-width="1.5" d="M0,-3.0v7 M-2.5,-0.5L0,-3.0L2.5,-0.5"/>
  </g>
  <g id="arrowRight" transform="rotate(90) translate(36 -43)">
    <use xlink:href="#rim"/>
    <path pointer-events="none" fill="none" stroke="white" stroke-width="1.5" d="M0,-3.0v7 M-2.5,-0.5L0,-3.0L2.5,-0.5"/>
  </g>
  <g id="arrowDown" transform="rotate(180) translate(-30 -48)">
    <use xlink:href="#rim"/>
    <path pointer-events="none" fill="none" stroke="white" stroke-width="1.5" d="M0,-3.0v7 M-2.5,-0.5L0,-3.0L2.5,-0.5"/>
  </g>
  <g id="arrowLeft" transform="rotate(270) translate(-36 17)">
    <use xlink:href="#rim"/>
    <path pointer-events="none" fill="none" stroke="white" stroke-width="1.5" d="M0,-3.0v7 M-2.5,-0.5L0,-3.0L2.5,-0.5"/>
  </g>
  <g id="resetDef">
    <use xlink:href="#rim2" fill="#404040"><set attributeName="fill" to="#808080" begin="reset.mouseover" end="reset.mouseout"/></use>
  </g>
</defs>
<script type="application/ecmascript">
var viewWidth = 1001;
var viewHeight = 386;
var sectionId = 'dynsection-18';
</script>
<script type="application/ecmascript" xlink:href="svg.min.js"/>
<svg id="graph" class="graph">
<g id="viewport">
<title>dynarr_binary_insert</title>
<!-- Node1 -->
<g id="Node000001" class="node">
<title>Node1</title>
<g id="a_Node000001"><a xlink:title="Binary insert.">
<polygon fill="#999999" stroke="#666666" points="117,-142.5 0,-142.5 0,-123.5 117,-123.5 117,-142.5"/>
<text text-anchor="middle" x="58.5" y="-130.5" font-family="Mononoki" font-size="10.00">dynarr_binary_insert</text>
</a>
</g>
</g>
<!-- Node2 -->
<g id="Node000002" class="node">
<title>Node2</title>
<g id="a_Node000002"><a xlink:href="group__Elements.html#ga5f6a46fc8cc0cfe14d98926cadbaa35d" target="_top" xlink:title="Binary search for binary insert support.">
<polygon fill="white" stroke="#666666" points="260,-91 153,-91 153,-61 260,-61 260,-91"/>
<text text-anchor="start" x="161" y="-79" font-family="Mononoki" font-size="10.00">dynarr_binary_find</text>
<text text-anchor="middle" x="206.5" y="-68" font-family="Mononoki" font-size="10.00">_insert_place</text>
</a>
</g>
</g>
<!-- Node1&#45;&gt;Node2 -->
<g id="edge1_Node000001_Node000002" class="edge">
<title>Node1&#45;&gt;Node2</title>
<g id="a_edge1_Node000001_Node000002"><a xlink:title=" ">
<path fill="none" stroke="#63b8ff" d="M83.94,-123.46C103.93,-115.65 132.82,-104.37 157.42,-94.77"/>
<polygon fill="#63b8ff" stroke="#63b8ff" points="158.92,-97.94 166.96,-91.05 156.37,-91.42 158.92,-97.94"/>
</a>
</g>
</g>
<!-- Node9 -->
<g id="Node000009" class="node">
<title>Node9</title>
<g id="a_Node000009"><a xlink:href="group__Elements.html#gab449a79e6b33f55af35329df4363336e" target="_top" xlink:title="Inserts new element into a dynarr.">
<polygon fill="white" stroke="#666666" points="247,-199.5 166,-199.5 166,-180.5 247,-180.5 247,-199.5"/>
<text text-anchor="middle" x="206.5" y="-187.5" font-family="Mononoki" font-size="10.00">dynarr_insert</text>
</a>
</g>
</g>
<!-- Node1&#45;&gt;Node9 -->
<g id="edge10_Node000001_Node000009" class="edge">
<title>Node1&#45;&gt;Node9</title>
<g id="a_edge10_Node000001_Node000009"><a xlink:title=" ">
<path fill="none" stroke="#63b8ff" d="M83.94,-142.54C107.94,-151.91 144.76,-166.29 171.59,-176.76"/>
<polygon fill="#63b8ff" stroke="#63b8ff" points="170.4,-180.05 180.98,-180.43 172.94,-173.53 170.4,-180.05"/>
</a>
</g>
</g>
<!-- Node3 -->
<g id="Node000003" class="node">
<title>Node3</title>
<g id="a_Node000003"><a xlink:href="dynarr_8c.html#a187b18732062f4f69486553f37697739" target="_top" xlink:title=" ">
<polygon fill="white" stroke="#666666" points="400,-30 296,-30 296,0 400,0 400,-30"/>
<text text-anchor="start" x="304" y="-18" font-family="Mononoki" font-size="10.00">binary_find_insert</text>
<text text-anchor="middle" x="348" y="-7" font-family="Mononoki" font-size="10.00">_place</text>
</a>
</g>
</g>
<!-- Node2&#45;&gt;Node3 -->
<g id="edge2_Node000002_Node000003" class="edge">
<title>Node2&#45;&gt;Node3</title>
<g id="a_edge2_Node000002_Node000003"><a xlink:title=" ">
<path fill="none" stroke="#63b8ff" d="M241.98,-60.92C260.43,-52.86 283.34,-42.84 303.04,-34.22"/>
<polygon fill="#63b8ff" stroke="#63b8ff" points="304.67,-37.33 312.43,-30.12 301.87,-30.92 304.67,-37.33"/>
</a>
</g>
</g>
<!-- Node5 -->
<g id="Node000005" class="node">
<title>Node5</title>
<g id="a_Node000005"><a xlink:href="group__Properties.html#gaf5c43e2644d185b9b01065af34ed6e29" target="_top" xlink:title="Access size property of a dynarr.">
<polygon fill="white" stroke="#666666" points="674,-199.5 601,-199.5 601,-180.5 674,-180.5 674,-199.5"/>
<text text-anchor="middle" x="637.5" y="-187.5" font-family="Mononoki" font-size="10.00">dynarr_size</text>
</a>
</g>
</g>
<!-- Node2&#45;&gt;Node5 -->
<g id="edge9_Node000002_Node000005" class="edge">
<title>Node2&#45;&gt;Node5</title>
<g id="a_edge9_Node000002_Node000005"><a xlink:title=" ">
<path fill="none" stroke="#63b8ff" d="M260.11,-73.88C330.19,-73 456.62,-78.35 554,-121 581.09,-132.87 606.24,-156.46 621.48,-172.73"/>
<polygon fill="#63b8ff" stroke="#63b8ff" points="619.19,-175.42 628.5,-180.47 624.37,-170.71 619.19,-175.42"/>
</a>
</g>
</g>
<!-- Node3&#45;&gt;Node3 -->
<g id="edge3_Node000003_Node000003" class="edge">
<title>Node3&#45;&gt;Node3</title>
<g id="a_edge3_Node000003_Node000003"><a xlink:title=" ">
<path fill="none" stroke="#63b8ff" d="M323.39,-30.28C317.92,-39.41 326.12,-48 348,-48 360.99,-48 369.16,-44.97 372.51,-40.6"/>
<polygon fill="#63b8ff" stroke="#63b8ff" points="376.01,-40.31 372.61,-30.28 369.01,-40.24 376.01,-40.31"/>
</a>
</g>
</g>
<!-- Node4 -->
<g id="Node000004" class="node">
<title>Node4</title>
<g id="a_Node000004"><a xlink:href="group__Elements.html#ga93c32dd116523090126d427cce08e114" target="_top" xlink:title="Returns pointer for the element at index.">
<polygon fill="white" stroke="#666666" points="529.5,-47.5 460.5,-47.5 460.5,-28.5 529.5,-28.5 529.5,-47.5"/>
<text text-anchor="middle" x="495" y="-35.5" font-family="Mononoki" font-size="10.00">dynarr_get</text>
</a>
</g>
</g>
<!-- Node3&#45;&gt;Node4 -->
<g id="edge4_Node000003_Node000004" class="edge">
<title>Node3&#45;&gt;Node4</title>
<g id="a_edge4_Node000003_Node000004"><a xlink:title=" ">
<path fill="none" stroke="#63b8ff" d="M400.12,-23.11C416.44,-25.7 434.35,-28.54 450.11,-31.04"/>
<polygon fill="#63b8ff" stroke="#63b8ff" points="449.69,-34.52 460.12,-32.63 450.79,-27.6 449.69,-34.52"/>
</a>
</g>
</g>
<!-- Node4&#45;&gt;Node5 -->
<g id="edge5_Node000004_Node000005" class="edge">
<title>Node4&#45;&gt;Node5</title>
<g id="a_edge5_Node000004_Node000005"><a xlink:title=" ">
<path fill="none" stroke="#63b8ff" d="M528.64,-47.5C537.48,-51.1 546.64,-55.86 554,-62 590.54,-92.49 616.48,-143.38 628.67,-170.92"/>
<polygon fill="#63b8ff" stroke="#63b8ff" points="625.5,-172.42 632.65,-180.23 631.94,-169.66 625.5,-172.42"/>
</a>
</g>
</g>
<!-- Node8 -->
<g id="Node000008" class="node">
<title>Node8</title>
<g id="a_Node000008"><a target="_parent" xlink:href="https://evjeesm.github.io/vector/group__Elements.html#ga9437d9506a3b2799f595c88b82f160b3" xlink:title=" ">
<polygon fill="white" stroke="#666666" points="671.5,-47.5 603.5,-47.5 603.5,-28.5 671.5,-28.5 671.5,-47.5"/>
<text text-anchor="middle" x="637.5" y="-35.5" font-family="Mononoki" font-size="10.00">vector_get</text>
</a>
</g>
</g>
<!-- Node4&#45;&gt;Node8 -->
<g id="edge8_Node000004_Node000008" class="edge">
<title>Node4&#45;&gt;Node8</title>
<g id="a_edge8_Node000004_Node000008"><a xlink:title=" ">
<path fill="none" stroke="#63b8ff" d="M529.65,-38C548.68,-38 572.68,-38 593.11,-38"/>
<polygon fill="#63b8ff" stroke="#63b8ff" points="593.12,-41.5 603.12,-38 593.12,-34.5 593.12,-41.5"/>
</a>
</g>
</g>
<!-- Node6 -->
<g id="Node000006" class="node">
<title>Node6</title>
<g id="a_Node000006"><a xlink:href="dynarr_8c.html#a73f42f3f25cd0920d8039d63ea31be07" target="_top" xlink:title=" ">
<polygon fill="white" stroke="#666666" points="829,-237.5 721,-237.5 721,-218.5 829,-218.5 829,-237.5"/>
<text text-anchor="middle" x="775" y="-225.5" font-family="Mononoki" font-size="10.00">get_dynarr_header</text>
</a>
</g>
</g>
<!-- Node5&#45;&gt;Node6 -->
<g id="edge6_Node000005_Node000006" class="edge">
<title>Node5&#45;&gt;Node6</title>
<g id="a_edge6_Node000005_Node000006"><a xlink:title=" ">
<path fill="none" stroke="#63b8ff" d="M672.69,-199.59C690.1,-204.47 711.47,-210.46 730.09,-215.68"/>
<polygon fill="#63b8ff" stroke="#63b8ff" points="729.24,-219.08 739.82,-218.41 731.14,-212.34 729.24,-219.08"/>
</a>
</g>
</g>
<!-- Node7 -->
<g id="Node000007" class="node">
<title>Node7</title>
<g id="a_Node000007"><a target="_parent" xlink:href="https://evjeesm.github.io/vector/group__Extension.html#gafc2e34dbacffe6480af8681fbf46e808" xlink:title=" ">
<polygon fill="white" stroke="#666666" points="993,-237.5 865,-237.5 865,-218.5 993,-218.5 993,-237.5"/>
<text text-anchor="middle" x="929" y="-225.5" font-family="Mononoki" font-size="10.00">vector_get_ext_header</text>
</a>
</g>
</g>
<!-- Node6&#45;&gt;Node7 -->
<g id="edge7_Node000006_Node000007" class="edge">
<title>Node6&#45;&gt;Node7</title>
<g id="a_edge7_Node000006_Node000007"><a xlink:title=" ">
<path fill="none" stroke="#63b8ff" d="M829.16,-228C837.47,-228 846.18,-228 854.84,-228"/>
<polygon fill="#63b8ff" stroke="#63b8ff" points="854.95,-231.5 864.95,-228 854.95,-224.5 854.95,-231.5"/>
</a>
</g>
</g>
<!-- Node9&#45;&gt;Node5 -->
<g id="edge14_Node000009_Node000005" class="edge">
<title>Node9&#45;&gt;Node5</title>
<g id="a_edge14_Node000009_Node000005"><a xlink:title=" ">
<path fill="none" stroke="#63b8ff" d="M247.09,-190C326.84,-190 506.39,-190 590.9,-190"/>
<polygon fill="#63b8ff" stroke="#63b8ff" points="590.96,-193.5 600.96,-190 590.96,-186.5 590.96,-193.5"/>
</a>
</g>
</g>
<!-- Node10 -->
<g id="Node000010" class="node">
<title>Node10</title>
<g id="a_Node000010"><a xlink:href="group__Elements.html#ga30d508a9f387e2227dd0d72a8bfd2a39" target="_top" xlink:title="Sets element at given index to a value.">
<polygon fill="white" stroke="#666666" points="382,-275.5 314,-275.5 314,-256.5 382,-256.5 382,-275.5"/>
<text text-anchor="middle" x="348" y="-263.5" font-family="Mononoki" font-size="10.00">dynarr_set</text>
</a>
</g>
</g>
<!-- Node9&#45;&gt;Node10 -->
<g id="edge11_Node000009_Node000010" class="edge">
<title>Node9&#45;&gt;Node10</title>
<g id="a_edge11_Node000009_Node000010"><a xlink:title=" ">
<path fill="none" stroke="#63b8ff" d="M225.17,-199.63C249.28,-212.76 292.67,-236.4 320.63,-251.64"/>
<polygon fill="#63b8ff" stroke="#63b8ff" points="319.02,-254.74 329.48,-256.45 322.37,-248.6 319.02,-254.74"/>
</a>
</g>
</g>
<!-- Node12 -->
<g id="Node000012" class="node">
<title>Node12</title>
<g id="a_Node000012"><a xlink:href="group__Auto-resize.html#ga036b69c5b674d3ac22027b04ba235b42" target="_top" xlink:title=" ">
<polygon fill="white" stroke="#666666" points="515.5,-350.5 474.5,-350.5 474.5,-331.5 515.5,-331.5 515.5,-350.5"/>
<text text-anchor="middle" x="495" y="-338.5" font-family="Mononoki" font-size="10.00">grow</text>
</a>
</g>
</g>
<!-- Node9&#45;&gt;Node12 -->
<g id="edge15_Node000009_Node000012" class="edge">
<title>Node9&#45;&gt;Node12</title>
<g id="a_edge15_Node000009_Node000012"><a xlink:title=" ">
<path fill="none" stroke="#63b8ff" d="M213.79,-199.71C226.77,-218.96 258.49,-262.09 296,-285 349.88,-317.9 423.72,-332.06 464.29,-337.68"/>
<polygon fill="#63b8ff" stroke="#63b8ff" points="463.96,-341.17 474.33,-338.99 464.87,-334.23 463.96,-341.17"/>
</a>
</g>
</g>
<!-- Node16 -->
<g id="Node000016" class="node">
<title>Node16</title>
<g id="a_Node000016"><a xlink:href="group__Auto-resize.html#gadb26f84b95f0ca45c7ccbd72e337485a" target="_top" xlink:title=" ">
<polygon fill="white" stroke="#666666" points="394,-161.5 302,-161.5 302,-142.5 394,-142.5 394,-161.5"/>
<text text-anchor="middle" x="348" y="-149.5" font-family="Mononoki" font-size="10.00">make_space_at</text>
</a>
</g>
</g>
<!-- Node9&#45;&gt;Node16 -->
<g id="edge21_Node000009_Node000016" class="edge">
<title>Node9&#45;&gt;Node16</title>
<g id="a_edge21_Node000009_Node000016"><a xlink:title=" ">
<path fill="none" stroke="#63b8ff" d="M242.7,-180.41C260.71,-175.51 282.83,-169.48 302.06,-164.24"/>
<polygon fill="#63b8ff" stroke="#63b8ff" points="303.08,-167.59 311.81,-161.59 301.24,-160.84 303.08,-167.59"/>
</a>
</g>
</g>
<!-- Node10&#45;&gt;Node5 -->
<g id="edge12_Node000010_Node000005" class="edge">
<title>Node10&#45;&gt;Node5</title>
<g id="a_edge12_Node000010_Node000005"><a xlink:title=" ">
<path fill="none" stroke="#63b8ff" d="M382.26,-257.21C433.71,-243.61 532.72,-217.43 590.84,-202.07"/>
<polygon fill="#63b8ff" stroke="#63b8ff" points="592.07,-205.36 600.85,-199.43 590.28,-198.6 592.07,-205.36"/>
</a>
</g>
</g>
<!-- Node11 -->
<g id="Node000011" class="node">
<title>Node11</title>
<g id="a_Node000011"><a target="_parent" xlink:href="https://evjeesm.github.io/vector/group__Elements.html#gab3a5e466261d31ee9edd77a5eb280030" xlink:title=" ">
<polygon fill="white" stroke="#666666" points="529,-313.5 461,-313.5 461,-294.5 529,-294.5 529,-313.5"/>
<text text-anchor="middle" x="495" y="-301.5" font-family="Mononoki" font-size="10.00">vector_set</text>
</a>
</g>
</g>
<!-- Node10&#45;&gt;Node11 -->
<g id="edge13_Node000010_Node000011" class="edge">
<title>Node10&#45;&gt;Node11</title>
<g id="a_edge13_Node000010_Node000011"><a xlink:title=" ">
<path fill="none" stroke="#63b8ff" d="M382.27,-274.72C402.71,-280.08 429.12,-287 451.12,-292.76"/>
<polygon fill="#63b8ff" stroke="#63b8ff" points="450.33,-296.17 460.89,-295.32 452.1,-289.4 450.33,-296.17"/>
</a>
</g>
</g>
<!-- Node12&#45;&gt;Node5 -->
<g id="edge18_Node000012_Node000005" class="edge">
<title>Node12&#45;&gt;Node5</title>
<g id="a_edge18_Node000012_Node000005"><a xlink:title=" ">
<path fill="none" stroke="#63b8ff" d="M515.62,-338.47C527.69,-336.1 542.91,-331.58 554,-323 564.37,-314.98 605.98,-243.49 625.84,-208.77"/>
<polygon fill="#63b8ff" stroke="#63b8ff" points="629.12,-210.08 631.04,-199.66 623.04,-206.61 629.12,-210.08"/>
</a>
</g>
</g>
<!-- Node12&#45;&gt;Node6 -->
<g id="edge19_Node000012_Node000006" class="edge">
<title>Node12&#45;&gt;Node6</title>
<g id="a_edge19_Node000012_Node000006"><a xlink:title=" ">
<path fill="none" stroke="#63b8ff" d="M515.51,-335.51C526.84,-332.18 541.34,-327.68 554,-323 623.54,-297.28 702.87,-261.33 744.67,-241.86"/>
<polygon fill="#63b8ff" stroke="#63b8ff" points="746.4,-244.91 753.97,-237.51 743.43,-238.57 746.4,-244.91"/>
</a>
</g>
</g>
<!-- Node13 -->
<g id="Node000013" class="node">
<title>Node13</title>
<g id="a_Node000013"><a xlink:href="group__Properties.html#ga3ff11107726213a640d814b63cb123b2" target="_top" xlink:title="Access current capacity of the dynarr.">
<polygon fill="white" stroke="#666666" points="685,-377.5 590,-377.5 590,-358.5 685,-358.5 685,-377.5"/>
<text text-anchor="middle" x="637.5" y="-365.5" font-family="Mononoki" font-size="10.00">dynarr_capacity</text>
</a>
</g>
</g>
<!-- Node12&#45;&gt;Node13 -->
<g id="edge16_Node000012_Node000013" class="edge">
<title>Node12&#45;&gt;Node13</title>
<g id="a_edge16_Node000012_Node000013"><a xlink:title=" ">
<path fill="none" stroke="#63b8ff" d="M515.54,-344.75C532.22,-347.96 557.07,-352.74 579.92,-357.13"/>
<polygon fill="#63b8ff" stroke="#63b8ff" points="579.42,-360.59 589.9,-359.04 580.74,-353.72 579.42,-360.59"/>
</a>
</g>
</g>
<!-- Node15 -->
<g id="Node000015" class="node">
<title>Node15</title>
<g id="a_Node000015"><a target="_parent" xlink:href="https://evjeesm.github.io/vector/group__Lifetime.html#ga6e5077303af4dfe720af5a0608553922" xlink:title=" ">
<polygon fill="white" stroke="#666666" points="678.5,-340.5 596.5,-340.5 596.5,-321.5 678.5,-321.5 678.5,-340.5"/>
<text text-anchor="middle" x="637.5" y="-328.5" font-family="Mononoki" font-size="10.00">vector_resize</text>
</a>
</g>
</g>
<!-- Node12&#45;&gt;Node15 -->
<g id="edge20_Node000012_Node000015" class="edge">
<title>Node12&#45;&gt;Node15</title>
<g id="a_edge20_Node000012_Node000015"><a xlink:title=" ">
<path fill="none" stroke="#63b8ff" d="M515.54,-339.61C533.75,-338.31 561.69,-336.32 586.13,-334.58"/>
<polygon fill="#63b8ff" stroke="#63b8ff" points="586.63,-338.06 596.36,-333.86 586.13,-331.08 586.63,-338.06"/>
</a>
</g>
</g>
<!-- Node14 -->
<g id="Node000014" class="node">
<title>Node14</title>
<g id="a_Node000014"><a target="_parent" xlink:href="https://evjeesm.github.io/vector/group__Properties.html#gab24bd801f91d4ae1ac79b54430b0409f" xlink:title=" ">
<polygon fill="white" stroke="#666666" points="822,-377.5 728,-377.5 728,-358.5 822,-358.5 822,-377.5"/>
<text text-anchor="middle" x="775" y="-365.5" font-family="Mononoki" font-size="10.00">vector_capacity</text>
</a>
</g>
</g>
<!-- Node13&#45;&gt;Node14 -->
<g id="edge17_Node000013_Node000014" class="edge">
<title>Node13&#45;&gt;Node14</title>
<g id="a_edge17_Node000013_Node000014"><a xlink:title=" ">
<path fill="none" stroke="#63b8ff" d="M685.13,-368C695.57,-368 706.76,-368 717.55,-368"/>
<polygon fill="#63b8ff" stroke="#63b8ff" points="717.74,-371.5 727.74,-368 717.74,-364.5 717.74,-371.5"/>
</a>
</g>
</g>
<!-- Node16&#45;&gt;Node4 -->
<g id="edge22_Node000016_Node000004" class="edge">
<title>Node16&#45;&gt;Node4</title>
<g id="a_edge22_Node000016_Node000004"><a xlink:title=" ">
<path fill="none" stroke="#63b8ff" d="M361.36,-142.28C386.3,-122.68 442.83,-78.23 473.42,-54.18"/>
<polygon fill="#63b8ff" stroke="#63b8ff" points="475.97,-56.63 481.67,-47.69 471.64,-51.12 475.97,-56.63"/>
</a>
</g>
</g>
<!-- Node16&#45;&gt;Node5 -->
<g id="edge23_Node000016_Node000005" class="edge">
<title>Node16&#45;&gt;Node5</title>
<g id="a_edge23_Node000016_Node000005"><a xlink:title=" ">
<path fill="none" stroke="#63b8ff" d="M378.94,-142.41C419.54,-130.96 493.89,-115.53 554,-134 578.85,-141.64 602.94,-159.59 618.61,-173.12"/>
<polygon fill="#63b8ff" stroke="#63b8ff" points="616.61,-176.03 626.39,-180.09 621.28,-170.82 616.61,-176.03"/>
</a>
</g>
</g>
<!-- Node16&#45;&gt;Node6 -->
<g id="edge24_Node000016_Node000006" class="edge">
<title>Node16&#45;&gt;Node6</title>
<g id="a_edge24_Node000016_Node000006"><a xlink:title=" ">
<path fill="none" stroke="#63b8ff" d="M383.04,-161.52C429.46,-174.17 515.39,-196.38 590,-209 629.77,-215.73 674.81,-220.43 710.37,-223.47"/>
<polygon fill="#63b8ff" stroke="#63b8ff" points="710.36,-226.98 720.61,-224.32 710.94,-220 710.36,-226.98"/>
</a>
</g>
</g>
<!-- Node17 -->
<g id="Node000017" class="node">
<title>Node17</title>
<g id="a_Node000017"><a target="_parent" xlink:href="https://evjeesm.github.io/vector/group__Properties.html#gaae93d7f0c056c1d11d3232a7a7aa5e09" xlink:title=" ">
<polygon fill="white" stroke="#666666" points="554,-161.5 436,-161.5 436,-142.5 554,-142.5 554,-161.5"/>
<text text-anchor="middle" x="495" y="-149.5" font-family="Mononoki" font-size="10.00">vector_element_size</text>
</a>
</g>
</g>
<!-- Node16&#45;&gt;Node17 -->
<g id="edge25_Node000016_Node000017" class="edge">
<title>Node16&#45;&gt;Node17</title>
<g id="a_edge25_Node000016_Node000017"><a xlink:title=" ">
<path fill="none" stroke="#63b8ff" d="M394.08,-152C404.1,-152 414.94,-152 425.65,-152"/>
<polygon fill="#63b8ff" stroke="#63b8ff" points="425.86,-155.5 435.86,-152 425.86,-148.5 425.86,-155.5"/>
</a>
</g>
</g>
</g>
</svg>

<g id="navigator" transform="translate(0 0)" fill="#404254">
  <rect fill="#f2f5e9" fill-opacity="0.5" stroke="#606060" stroke-width=".5" x="0" y="0" width="60" height="60"/>
  <use id="zoomplus" xlink:href="#zoomPlus" x="17" y="9" onmousedown="handleZoom(evt,'in')"/>
  <use id="zoomminus" xlink:href="#zoomMin" x="42" y="9" onmousedown="handleZoom(evt,'out')"/>
  <use id="reset" xlink:href="#resetDef" x="30" y="36" onmousedown="handleReset()"/>
   <use id="arrowup" xlink:href="#arrowUp" x="0" y="0" onmousedown="handlePan(0,-1)"/>
  <use id="arrowright" xlink:href="#arrowRight" x="0" y="0" onmousedown="handlePan(1,0)"/>
  <use id="arrowdown" xlink:href="#arrowDown" x="0" y="0" onmousedown="handlePan(0,1)"/>
  <use id="arrowleft" xlink:href="#arrowLeft" x="0" y="0" onmousedown="handlePan(-1,0)"/>
</g>
<svg viewBox="0 0 15 15" width="100%" height="30px" preserveAspectRatio="xMaxYMin meet">
 <g id="arrow_out" transform="scale(0.3 0.3)">
  <a xlink:href="group__Elements_gad2dd0b992152881697da2073a0c840d7_cgraph_org.svg" target="_base">
   <rect id="button" ry="5" rx="5" y="6" x="6" height="38" width="38"
        fill="#f2f5e9" fill-opacity="0.5" stroke="#606060" stroke-width="1.0"/>
   <path id="arrow"
     d="M 11.500037,31.436501 C 11.940474,20.09759 22.043105,11.32322 32.158766,21.979434 L 37.068811,17.246167 C 37.068811,17.246167 37.088388,32 37.088388,32 L 22.160133,31.978069 C 22.160133,31.978069 26.997745,27.140456 26.997745,27.140456 C 18.528582,18.264221 13.291696,25.230495 11.500037,31.436501 z"
     style="fill:#404040;"/>
  </a>
 </g>
</svg>

<style type='text/css'>
<![CDATA[
[data-mouse-over-selected='false'] { opacity: 0.7; }
[data-mouse-over-selected='true']  { opacity: 1.0; }
]]>
</style>
<script type="application/ecmascript"><![CDATA[
document.addEventListener('DOMContentLoaded', (event) => {
  highlightEdges();
  highlightAdjacentNodes();
});
]]></script>
</svg>
