<?xml version="1.0" encoding="UTF-8" standalone="no"?>
<!DOCTYPE svg PUBLIC "-//W3C//DTD SVG 1.1//EN"
 "http://www.w3.org/Graphics/SVG/1.1/DTD/svg11.dtd">
<!-- Generated by graphviz version 2.43.0 (0)
 -->
<!-- Title: dynarr_binary_find_index Pages: 1 -->
<svg width="566pt" height="76pt"
 viewBox="0.00 0.00 566.00 75.50" xmlns="http://www.w3.org/2000/svg" xmlns:xlink="http://www.w3.org/1999/xlink">
<g id="graph0" class="graph" transform="scale(1 1) rotate(0) translate(4 71.5)">
<title>dynarr_binary_find_index</title>
<!-- Node1 -->
<g id="Node000001" class="node">
<title>Node1</title>
<g id="a_Node000001"><a xlink:title=" ">
<polygon fill="#999999" stroke="#666666" points="107,-51 0,-51 0,-21 107,-21 107,-51"/>
<text text-anchor="start" x="8" y="-39" font-family="Mononoki" font-size="10.00">dynarr_binary_find</text>
<text text-anchor="middle" x="53.5" y="-28" font-family="Mononoki" font-size="10.00">_index</text>
</a>
</g>
</g>
<!-- Node2 -->
<g id="Node000002" class="node">
<title>Node2</title>
<g id="a_Node000002"><a xlink:href="group__Dynarr__API.html#gaf5c43e2644d185b9b01065af34ed6e29" target="_top" xlink:title=" ">
<polygon fill="white" stroke="#666666" points="233,-67.5 160,-67.5 160,-48.5 233,-48.5 233,-67.5"/>
<text text-anchor="middle" x="196.5" y="-55.5" font-family="Mononoki" font-size="10.00">dynarr_size</text>
</a>
</g>
</g>
<!-- Node1&#45;&gt;Node2 -->
<g id="edge1_Node000001_Node000002" class="edge">
<title>Node1&#45;&gt;Node2</title>
<g id="a_edge1_Node000001_Node000002"><a xlink:title=" ">
<path fill="none" stroke="#63b8ff" d="M107,-44.19C120.98,-46.37 135.97,-48.71 149.56,-50.83"/>
<polygon fill="#63b8ff" stroke="#63b8ff" points="149.23,-54.32 159.65,-52.41 150.31,-47.41 149.23,-54.32"/>
</a>
</g>
</g>
<!-- Node5 -->
<g id="Node000005" class="node">
<title>Node5</title>
<g id="a_Node000005"><a target="_parent" xlink:href="https://evjeesm.github.io/vector/group__Vector__API.html#gaae3cfb2691a50da87169b5e057169782" xlink:title=" ">
<polygon fill="white" stroke="#666666" points="250,-30 143,-30 143,0 250,0 250,-30"/>
<text text-anchor="start" x="151" y="-18" font-family="Mononoki" font-size="10.00">vector_binary_find</text>
<text text-anchor="middle" x="196.5" y="-7" font-family="Mononoki" font-size="10.00">_index</text>
</a>
</g>
</g>
<!-- Node1&#45;&gt;Node5 -->
<g id="edge4_Node000001_Node000005" class="edge">
<title>Node1&#45;&gt;Node5</title>
<g id="a_edge4_Node000001_Node000005"><a xlink:title=" ">
<path fill="none" stroke="#63b8ff" d="M107,-28.18C115.44,-26.92 124.26,-25.61 132.9,-24.32"/>
<polygon fill="#63b8ff" stroke="#63b8ff" points="133.58,-27.76 142.95,-22.83 132.55,-20.84 133.58,-27.76"/>
</a>
</g>
</g>
<!-- Node3 -->
<g id="Node000003" class="node">
<title>Node3</title>
<g id="a_Node000003"><a xlink:href="dynarr_8c.html#a73f42f3f25cd0920d8039d63ea31be07" target="_top" xlink:title=" ">
<polygon fill="white" stroke="#666666" points="394,-67.5 286,-67.5 286,-48.5 394,-48.5 394,-67.5"/>
<text text-anchor="middle" x="340" y="-55.5" font-family="Mononoki" font-size="10.00">get_dynarr_header</text>
</a>
</g>
</g>
<!-- Node2&#45;&gt;Node3 -->
<g id="edge2_Node000002_Node000003" class="edge">
<title>Node2&#45;&gt;Node3</title>
<g id="a_edge2_Node000002_Node000003"><a xlink:title=" ">
<path fill="none" stroke="#63b8ff" d="M233.21,-58C246.18,-58 261.25,-58 275.89,-58"/>
<polygon fill="#63b8ff" stroke="#63b8ff" points="275.91,-61.5 285.91,-58 275.91,-54.5 275.91,-61.5"/>
</a>
</g>
</g>
<!-- Node4 -->
<g id="Node000004" class="node">
<title>Node4</title>
<g id="a_Node000004"><a target="_parent" xlink:href="https://evjeesm.github.io/vector/group__Vector__API.html#gafc2e34dbacffe6480af8681fbf46e808" xlink:title=" ">
<polygon fill="white" stroke="#666666" points="558,-67.5 430,-67.5 430,-48.5 558,-48.5 558,-67.5"/>
<text text-anchor="middle" x="494" y="-55.5" font-family="Mononoki" font-size="10.00">vector_get_ext_header</text>
</a>
</g>
</g>
<!-- Node3&#45;&gt;Node4 -->
<g id="edge3_Node000003_Node000004" class="edge">
<title>Node3&#45;&gt;Node4</title>
<g id="a_edge3_Node000003_Node000004"><a xlink:title=" ">
<path fill="none" stroke="#63b8ff" d="M394.16,-58C402.47,-58 411.18,-58 419.84,-58"/>
<polygon fill="#63b8ff" stroke="#63b8ff" points="419.95,-61.5 429.95,-58 419.95,-54.5 419.95,-61.5"/>
</a>
</g>
</g>
</g>
</svg>
