<?xml version="1.0" encoding="UTF-8" standalone="no"?>
<!DOCTYPE svg PUBLIC "-//W3C//DTD SVG 1.1//EN"
 "http://www.w3.org/Graphics/SVG/1.1/DTD/svg11.dtd">
<!-- Generated by graphviz version 2.43.0 (0)
 -->
<!-- Title: dynarr_prepend Pages: 1 -->
<svg width="939pt" height="322pt"
 viewBox="0.00 0.00 939.00 321.94" xmlns="http://www.w3.org/2000/svg" xmlns:xlink="http://www.w3.org/1999/xlink">
<g id="graph0" class="graph" transform="scale(1 1) rotate(0) translate(4 317.94)">
<title>dynarr_prepend</title>
<!-- Node1 -->
<g id="Node000001" class="node">
<title>Node1</title>
<g id="a_Node000001"><a xlink:title="Prepends an element to the head of a dynarr.">
<polygon fill="#999999" stroke="#666666" points="93,-192.94 0,-192.94 0,-173.94 93,-173.94 93,-192.94"/>
<text text-anchor="middle" x="46.5" y="-180.94" font-family="Mononoki" font-size="10.00">dynarr_prepend</text>
</a>
</g>
</g>
<!-- Node2 -->
<g id="Node000002" class="node">
<title>Node2</title>
<g id="a_Node000002"><a xlink:href="group__Elements.html#gab449a79e6b33f55af35329df4363336e" target="_top" xlink:title="Inserts new element into a dynarr.">
<polygon fill="white" stroke="#666666" points="210,-192.94 129,-192.94 129,-173.94 210,-173.94 210,-192.94"/>
<text text-anchor="middle" x="169.5" y="-180.94" font-family="Mononoki" font-size="10.00">dynarr_insert</text>
</a>
</g>
</g>
<!-- Node1&#45;&gt;Node2 -->
<g id="edge1_Node000001_Node000002" class="edge">
<title>Node1&#45;&gt;Node2</title>
<g id="a_edge1_Node000001_Node000002"><a xlink:title=" ">
<path fill="none" stroke="#63b8ff" d="M93.24,-183.44C101.52,-183.44 110.19,-183.44 118.59,-183.44"/>
<polygon fill="#63b8ff" stroke="#63b8ff" points="118.64,-186.94 128.64,-183.44 118.64,-179.94 118.64,-186.94"/>
</a>
</g>
</g>
<!-- Node3 -->
<g id="Node000003" class="node">
<title>Node3</title>
<g id="a_Node000003"><a xlink:href="group__Elements.html#ga30d508a9f387e2227dd0d72a8bfd2a39" target="_top" xlink:title="Sets element at given index to a value.">
<polygon fill="white" stroke="#666666" points="326,-211.94 258,-211.94 258,-192.94 326,-192.94 326,-211.94"/>
<text text-anchor="middle" x="292" y="-199.94" font-family="Mononoki" font-size="10.00">dynarr_set</text>
</a>
</g>
</g>
<!-- Node2&#45;&gt;Node3 -->
<g id="edge2_Node000002_Node000003" class="edge">
<title>Node2&#45;&gt;Node3</title>
<g id="a_edge2_Node000002_Node000003"><a xlink:title=" ">
<path fill="none" stroke="#63b8ff" d="M210.29,-189.72C222.29,-191.61 235.51,-193.69 247.72,-195.62"/>
<polygon fill="#63b8ff" stroke="#63b8ff" points="247.27,-199.09 257.69,-197.19 248.36,-192.17 247.27,-199.09"/>
</a>
</g>
</g>
<!-- Node4 -->
<g id="Node000004" class="node">
<title>Node4</title>
<g id="a_Node000004"><a xlink:href="group__Properties.html#gaf5c43e2644d185b9b01065af34ed6e29" target="_top" xlink:title="Access size property of a dynarr.">
<polygon fill="white" stroke="#666666" points="612,-173.94 539,-173.94 539,-154.94 612,-154.94 612,-173.94"/>
<text text-anchor="middle" x="575.5" y="-161.94" font-family="Mononoki" font-size="10.00">dynarr_size</text>
</a>
</g>
</g>
<!-- Node2&#45;&gt;Node4 -->
<g id="edge7_Node000002_Node000004" class="edge">
<title>Node2&#45;&gt;Node4</title>
<g id="a_edge7_Node000002_Node000004"><a xlink:title=" ">
<path fill="none" stroke="#63b8ff" d="M210.34,-181.57C285.69,-178.02 448.65,-170.36 528.51,-166.6"/>
<polygon fill="#63b8ff" stroke="#63b8ff" points="528.92,-170.09 538.75,-166.12 528.59,-163.1 528.92,-170.09"/>
</a>
</g>
</g>
<!-- Node8 -->
<g id="Node000008" class="node">
<title>Node8</title>
<g id="a_Node000008"><a xlink:href="group__Auto-resize.html#ga036b69c5b674d3ac22027b04ba235b42" target="_top" xlink:title=" ">
<polygon fill="white" stroke="#666666" points="453.5,-286.94 412.5,-286.94 412.5,-267.94 453.5,-267.94 453.5,-286.94"/>
<text text-anchor="middle" x="433" y="-274.94" font-family="Mononoki" font-size="10.00">grow</text>
</a>
</g>
</g>
<!-- Node2&#45;&gt;Node8 -->
<g id="edge8_Node000002_Node000008" class="edge">
<title>Node2&#45;&gt;Node8</title>
<g id="a_edge8_Node000002_Node000008"><a xlink:title=" ">
<path fill="none" stroke="#63b8ff" d="M187.5,-193.07C202.55,-201.33 225.28,-213.18 246,-221.44 299.74,-242.87 364.99,-260.73 402.18,-270.18"/>
<polygon fill="#63b8ff" stroke="#63b8ff" points="401.79,-273.69 412.34,-272.72 403.49,-266.9 401.79,-273.69"/>
</a>
</g>
</g>
<!-- Node12 -->
<g id="Node000012" class="node">
<title>Node12</title>
<g id="a_Node000012"><a xlink:href="group__Auto-resize.html#gadb26f84b95f0ca45c7ccbd72e337485a" target="_top" xlink:title=" ">
<polygon fill="white" stroke="#666666" points="338,-97.94 246,-97.94 246,-78.94 338,-78.94 338,-97.94"/>
<text text-anchor="middle" x="292" y="-85.94" font-family="Mononoki" font-size="10.00">make_space_at</text>
</a>
</g>
</g>
<!-- Node2&#45;&gt;Node12 -->
<g id="edge14_Node000002_Node000012" class="edge">
<title>Node2&#45;&gt;Node12</title>
<g id="a_edge14_Node000002_Node000012"><a xlink:title=" ">
<path fill="none" stroke="#63b8ff" d="M182.94,-173.63C203.7,-157.26 245.61,-124.23 270.7,-104.45"/>
<polygon fill="#63b8ff" stroke="#63b8ff" points="273.12,-107 278.81,-98.06 268.79,-101.5 273.12,-107"/>
</a>
</g>
</g>
<!-- Node3&#45;&gt;Node4 -->
<g id="edge3_Node000003_Node000004" class="edge">
<title>Node3&#45;&gt;Node4</title>
<g id="a_edge3_Node000003_Node000004"><a xlink:title=" ">
<path fill="none" stroke="#63b8ff" d="M326.16,-198.94C365.72,-194.64 433.8,-186.88 492,-178.44 503.9,-176.72 516.73,-174.64 528.64,-172.63"/>
<polygon fill="#63b8ff" stroke="#63b8ff" points="529.56,-176.02 538.82,-170.88 528.38,-169.12 529.56,-176.02"/>
</a>
</g>
</g>
<!-- Node7 -->
<g id="Node000007" class="node">
<title>Node7</title>
<g id="a_Node000007"><a target="_parent" xlink:href="https://evjeesm.github.io/vector/group__Elements.html#gab3a5e466261d31ee9edd77a5eb280030" xlink:title=" ">
<polygon fill="white" stroke="#666666" points="467,-249.94 399,-249.94 399,-230.94 467,-230.94 467,-249.94"/>
<text text-anchor="middle" x="433" y="-237.94" font-family="Mononoki" font-size="10.00">vector_set</text>
</a>
</g>
</g>
<!-- Node3&#45;&gt;Node7 -->
<g id="edge6_Node000003_Node000007" class="edge">
<title>Node3&#45;&gt;Node7</title>
<g id="a_edge6_Node000003_Node000007"><a xlink:title=" ">
<path fill="none" stroke="#63b8ff" d="M326.29,-211.54C345.12,-216.69 368.86,-223.18 389.08,-228.71"/>
<polygon fill="#63b8ff" stroke="#63b8ff" points="388.41,-232.15 398.98,-231.41 390.25,-225.4 388.41,-232.15"/>
</a>
</g>
</g>
<!-- Node5 -->
<g id="Node000005" class="node">
<title>Node5</title>
<g id="a_Node000005"><a xlink:href="dynarr_8c.html#a73f42f3f25cd0920d8039d63ea31be07" target="_top" xlink:title=" ">
<polygon fill="white" stroke="#666666" points="767,-173.94 659,-173.94 659,-154.94 767,-154.94 767,-173.94"/>
<text text-anchor="middle" x="713" y="-161.94" font-family="Mononoki" font-size="10.00">get_dynarr_header</text>
</a>
</g>
</g>
<!-- Node4&#45;&gt;Node5 -->
<g id="edge4_Node000004_Node000005" class="edge">
<title>Node4&#45;&gt;Node5</title>
<g id="a_edge4_Node000004_Node000005"><a xlink:title=" ">
<path fill="none" stroke="#63b8ff" d="M612.1,-164.44C623.36,-164.44 636.16,-164.44 648.76,-164.44"/>
<polygon fill="#63b8ff" stroke="#63b8ff" points="648.78,-167.94 658.78,-164.44 648.78,-160.94 648.78,-167.94"/>
</a>
</g>
</g>
<!-- Node6 -->
<g id="Node000006" class="node">
<title>Node6</title>
<g id="a_Node000006"><a target="_parent" xlink:href="https://evjeesm.github.io/vector/group__Extension.html#gafc2e34dbacffe6480af8681fbf46e808" xlink:title=" ">
<polygon fill="white" stroke="#666666" points="931,-173.94 803,-173.94 803,-154.94 931,-154.94 931,-173.94"/>
<text text-anchor="middle" x="867" y="-161.94" font-family="Mononoki" font-size="10.00">vector_get_ext_header</text>
</a>
</g>
</g>
<!-- Node5&#45;&gt;Node6 -->
<g id="edge5_Node000005_Node000006" class="edge">
<title>Node5&#45;&gt;Node6</title>
<g id="a_edge5_Node000005_Node000006"><a xlink:title=" ">
<path fill="none" stroke="#63b8ff" d="M767.16,-164.44C775.47,-164.44 784.18,-164.44 792.84,-164.44"/>
<polygon fill="#63b8ff" stroke="#63b8ff" points="792.95,-167.94 802.95,-164.44 792.95,-160.94 792.95,-167.94"/>
</a>
</g>
</g>
<!-- Node8&#45;&gt;Node4 -->
<g id="edge11_Node000008_Node000004" class="edge">
<title>Node8&#45;&gt;Node4</title>
<g id="a_edge11_Node000008_Node000004"><a xlink:title=" ">
<path fill="none" stroke="#63b8ff" d="M453.77,-274.69C465.75,-272.25 480.82,-267.72 492,-259.44 514.88,-242.49 509.3,-227.92 528,-206.44 536.01,-197.24 545.93,-188.04 554.54,-180.61"/>
<polygon fill="#63b8ff" stroke="#63b8ff" points="556.9,-183.19 562.3,-174.08 552.4,-177.84 556.9,-183.19"/>
</a>
</g>
</g>
<!-- Node8&#45;&gt;Node5 -->
<g id="edge12_Node000008_Node000005" class="edge">
<title>Node8&#45;&gt;Node5</title>
<g id="a_edge12_Node000008_Node000005"><a xlink:title=" ">
<path fill="none" stroke="#63b8ff" d="M453.51,-271.95C464.84,-268.62 479.34,-264.12 492,-259.44 561.54,-233.72 640.87,-197.77 682.67,-178.3"/>
<polygon fill="#63b8ff" stroke="#63b8ff" points="684.4,-181.36 691.97,-173.95 681.43,-175.02 684.4,-181.36"/>
</a>
</g>
</g>
<!-- Node9 -->
<g id="Node000009" class="node">
<title>Node9</title>
<g id="a_Node000009"><a xlink:href="group__Properties.html#ga3ff11107726213a640d814b63cb123b2" target="_top" xlink:title="Access current capacity of the dynarr.">
<polygon fill="white" stroke="#666666" points="623,-313.94 528,-313.94 528,-294.94 623,-294.94 623,-313.94"/>
<text text-anchor="middle" x="575.5" y="-301.94" font-family="Mononoki" font-size="10.00">dynarr_capacity</text>
</a>
</g>
</g>
<!-- Node8&#45;&gt;Node9 -->
<g id="edge9_Node000008_Node000009" class="edge">
<title>Node8&#45;&gt;Node9</title>
<g id="a_edge9_Node000008_Node000009"><a xlink:title=" ">
<path fill="none" stroke="#63b8ff" d="M453.54,-281.2C470.22,-284.4 495.07,-289.18 517.92,-293.57"/>
<polygon fill="#63b8ff" stroke="#63b8ff" points="517.42,-297.04 527.9,-295.49 518.74,-290.16 517.42,-297.04"/>
</a>
</g>
</g>
<!-- Node11 -->
<g id="Node000011" class="node">
<title>Node11</title>
<g id="a_Node000011"><a target="_parent" xlink:href="https://evjeesm.github.io/vector/group__Lifetime.html#ga6e5077303af4dfe720af5a0608553922" xlink:title=" ">
<polygon fill="white" stroke="#666666" points="616.5,-276.94 534.5,-276.94 534.5,-257.94 616.5,-257.94 616.5,-276.94"/>
<text text-anchor="middle" x="575.5" y="-264.94" font-family="Mononoki" font-size="10.00">vector_resize</text>
</a>
</g>
</g>
<!-- Node8&#45;&gt;Node11 -->
<g id="edge13_Node000008_Node000011" class="edge">
<title>Node8&#45;&gt;Node11</title>
<g id="a_edge13_Node000008_Node000011"><a xlink:title=" ">
<path fill="none" stroke="#63b8ff" d="M453.54,-276.05C471.75,-274.75 499.69,-272.77 524.13,-271.03"/>
<polygon fill="#63b8ff" stroke="#63b8ff" points="524.63,-274.5 534.36,-270.3 524.13,-267.52 524.63,-274.5"/>
</a>
</g>
</g>
<!-- Node10 -->
<g id="Node000010" class="node">
<title>Node10</title>
<g id="a_Node000010"><a target="_parent" xlink:href="https://evjeesm.github.io/vector/group__Properties.html#gab24bd801f91d4ae1ac79b54430b0409f" xlink:title=" ">
<polygon fill="white" stroke="#666666" points="760,-313.94 666,-313.94 666,-294.94 760,-294.94 760,-313.94"/>
<text text-anchor="middle" x="713" y="-301.94" font-family="Mononoki" font-size="10.00">vector_capacity</text>
</a>
</g>
</g>
<!-- Node9&#45;&gt;Node10 -->
<g id="edge10_Node000009_Node000010" class="edge">
<title>Node9&#45;&gt;Node10</title>
<g id="a_edge10_Node000009_Node000010"><a xlink:title=" ">
<path fill="none" stroke="#63b8ff" d="M623.13,-304.44C633.57,-304.44 644.76,-304.44 655.55,-304.44"/>
<polygon fill="#63b8ff" stroke="#63b8ff" points="655.74,-307.94 665.74,-304.44 655.74,-300.94 655.74,-307.94"/>
</a>
</g>
</g>
<!-- Node12&#45;&gt;Node4 -->
<g id="edge18_Node000012_Node000004" class="edge">
<title>Node12&#45;&gt;Node4</title>
<g id="a_edge18_Node000012_Node000004"><a xlink:title=" ">
<path fill="none" stroke="#63b8ff" d="M328.37,-97.99C379.25,-111.73 473.11,-137.07 529.07,-152.18"/>
<polygon fill="#63b8ff" stroke="#63b8ff" points="528.49,-155.64 539.06,-154.87 530.31,-148.89 528.49,-155.64"/>
</a>
</g>
</g>
<!-- Node12&#45;&gt;Node5 -->
<g id="edge19_Node000012_Node000005" class="edge">
<title>Node12&#45;&gt;Node5</title>
<g id="a_edge19_Node000012_Node000005"><a xlink:title=" ">
<path fill="none" stroke="#63b8ff" d="M302.89,-78.54C317.14,-65.04 344.95,-41.51 374,-32.44 479.64,0.52 525.29,19.52 623,-32.44 668.19,-56.47 694.57,-114.8 705.71,-145.24"/>
<polygon fill="#63b8ff" stroke="#63b8ff" points="702.42,-146.45 709.02,-154.74 709.03,-144.14 702.42,-146.45"/>
</a>
</g>
</g>
<!-- Node13 -->
<g id="Node000013" class="node">
<title>Node13</title>
<g id="a_Node000013"><a xlink:href="group__Elements.html#ga93c32dd116523090126d427cce08e114" target="_top" xlink:title="Returns pointer for the element at index.">
<polygon fill="white" stroke="#666666" points="467.5,-60.94 398.5,-60.94 398.5,-41.94 467.5,-41.94 467.5,-60.94"/>
<text text-anchor="middle" x="433" y="-48.94" font-family="Mononoki" font-size="10.00">dynarr_get</text>
</a>
</g>
</g>
<!-- Node12&#45;&gt;Node13 -->
<g id="edge15_Node000012_Node000013" class="edge">
<title>Node12&#45;&gt;Node13</title>
<g id="a_edge15_Node000012_Node000013"><a xlink:title=" ">
<path fill="none" stroke="#63b8ff" d="M328.8,-78.91C347.02,-74.06 369.32,-68.13 388.52,-63.02"/>
<polygon fill="#63b8ff" stroke="#63b8ff" points="389.48,-66.38 398.24,-60.43 387.67,-59.62 389.48,-66.38"/>
</a>
</g>
</g>
<!-- Node15 -->
<g id="Node000015" class="node">
<title>Node15</title>
<g id="a_Node000015"><a target="_parent" xlink:href="https://evjeesm.github.io/vector/group__Properties.html#gaae93d7f0c056c1d11d3232a7a7aa5e09" xlink:title=" ">
<polygon fill="white" stroke="#666666" points="492,-97.94 374,-97.94 374,-78.94 492,-78.94 492,-97.94"/>
<text text-anchor="middle" x="433" y="-85.94" font-family="Mononoki" font-size="10.00">vector_element_size</text>
</a>
</g>
</g>
<!-- Node12&#45;&gt;Node15 -->
<g id="edge20_Node000012_Node000015" class="edge">
<title>Node12&#45;&gt;Node15</title>
<g id="a_edge20_Node000012_Node000015"><a xlink:title=" ">
<path fill="none" stroke="#63b8ff" d="M338.13,-88.44C346.33,-88.44 355.06,-88.44 363.75,-88.44"/>
<polygon fill="#63b8ff" stroke="#63b8ff" points="363.92,-91.94 373.92,-88.44 363.92,-84.94 363.92,-91.94"/>
</a>
</g>
</g>
<!-- Node13&#45;&gt;Node4 -->
<g id="edge16_Node000013_Node000004" class="edge">
<title>Node13&#45;&gt;Node4</title>
<g id="a_edge16_Node000013_Node000004"><a xlink:title=" ">
<path fill="none" stroke="#63b8ff" d="M467.62,-58.44C476,-61.08 484.67,-64.66 492,-69.44 523.07,-89.72 549.23,-124.92 563.32,-146.3"/>
<polygon fill="#63b8ff" stroke="#63b8ff" points="560.42,-148.26 568.76,-154.8 566.31,-144.49 560.42,-148.26"/>
</a>
</g>
</g>
<!-- Node14 -->
<g id="Node000014" class="node">
<title>Node14</title>
<g id="a_Node000014"><a target="_parent" xlink:href="https://evjeesm.github.io/vector/group__Elements.html#ga9437d9506a3b2799f595c88b82f160b3" xlink:title=" ">
<polygon fill="white" stroke="#666666" points="609.5,-60.94 541.5,-60.94 541.5,-41.94 609.5,-41.94 609.5,-60.94"/>
<text text-anchor="middle" x="575.5" y="-48.94" font-family="Mononoki" font-size="10.00">vector_get</text>
</a>
</g>
</g>
<!-- Node13&#45;&gt;Node14 -->
<g id="edge17_Node000013_Node000014" class="edge">
<title>Node13&#45;&gt;Node14</title>
<g id="a_edge17_Node000013_Node000014"><a xlink:title=" ">
<path fill="none" stroke="#63b8ff" d="M467.65,-51.44C486.68,-51.44 510.68,-51.44 531.11,-51.44"/>
<polygon fill="#63b8ff" stroke="#63b8ff" points="531.12,-54.94 541.12,-51.44 531.12,-47.94 531.12,-54.94"/>
</a>
</g>
</g>
</g>
</svg>
