<?xml version="1.0" encoding="UTF-8" standalone="no"?>
<!DOCTYPE svg PUBLIC "-//W3C//DTD SVG 1.1//EN"
 "http://www.w3.org/Graphics/SVG/1.1/DTD/svg11.dtd">
<!-- Generated by graphviz version 2.43.0 (0)
 -->
<!-- Title: dynarr_transform Pages: 1 -->
<svg width="668pt" height="64pt"
 viewBox="0.00 0.00 668.00 64.00" xmlns="http://www.w3.org/2000/svg" xmlns:xlink="http://www.w3.org/1999/xlink">
<g id="graph0" class="graph" transform="scale(1 1) rotate(0) translate(4 60)">
<title>dynarr_transform</title>
<!-- Node1 -->
<g id="Node000001" class="node">
<title>Node1</title>
<g id="a_Node000001"><a xlink:title=" ">
<polygon fill="#999999" stroke="#666666" points="101,-37 0,-37 0,-18 101,-18 101,-37"/>
<text text-anchor="middle" x="50.5" y="-25" font-family="Mononoki" font-size="10.00">dynarr_transform</text>
</a>
</g>
</g>
<!-- Node2 -->
<g id="Node000002" class="node">
<title>Node2</title>
<g id="a_Node000002"><a xlink:href="group__Elements.html#ga2575dd307a95358e074e07c2b9999a9d" target="_top" xlink:title=" ">
<polygon fill="white" stroke="#666666" points="227,-37 137,-37 137,-18 227,-18 227,-37"/>
<text text-anchor="middle" x="182" y="-25" font-family="Mononoki" font-size="10.00">dynarr_foreach</text>
</a>
</g>
</g>
<!-- Node1&#45;&gt;Node2 -->
<g id="edge1_Node000001_Node000002" class="edge">
<title>Node1&#45;&gt;Node2</title>
<g id="a_edge1_Node000001_Node000002"><a xlink:title=" ">
<path fill="none" stroke="#63b8ff" d="M101.2,-27.5C109.51,-27.5 118.18,-27.5 126.61,-27.5"/>
<polygon fill="#63b8ff" stroke="#63b8ff" points="126.73,-31 136.73,-27.5 126.73,-24 126.73,-31"/>
</a>
</g>
</g>
<!-- Node3 -->
<g id="Node000003" class="node">
<title>Node3</title>
<g id="a_Node000003"><a xlink:href="group__Properties.html#gaf5c43e2644d185b9b01065af34ed6e29" target="_top" xlink:title="Access size property of a dynarr.">
<polygon fill="white" stroke="#666666" points="344,-56 271,-56 271,-37 344,-37 344,-56"/>
<text text-anchor="middle" x="307.5" y="-44" font-family="Mononoki" font-size="10.00">dynarr_size</text>
</a>
</g>
</g>
<!-- Node2&#45;&gt;Node3 -->
<g id="edge2_Node000002_Node000003" class="edge">
<title>Node2&#45;&gt;Node3</title>
<g id="a_edge2_Node000002_Node000003"><a xlink:title=" ">
<path fill="none" stroke="#63b8ff" d="M227.24,-34.31C238.04,-35.97 249.63,-37.75 260.51,-39.42"/>
<polygon fill="#63b8ff" stroke="#63b8ff" points="260.27,-42.93 270.68,-40.99 261.33,-36.01 260.27,-42.93"/>
</a>
</g>
</g>
<!-- Node6 -->
<g id="Node000006" class="node">
<title>Node6</title>
<g id="a_Node000006"><a target="_parent" xlink:href="https://evjeesm.github.io/vector/group__Elements.html#ga988880baa4fe32fb6d4299daf1a29a1f" xlink:title=" ">
<polygon fill="white" stroke="#666666" points="352,-19 263,-19 263,0 352,0 352,-19"/>
<text text-anchor="middle" x="307.5" y="-7" font-family="Mononoki" font-size="10.00">vector_foreach</text>
</a>
</g>
</g>
<!-- Node2&#45;&gt;Node6 -->
<g id="edge5_Node000002_Node000006" class="edge">
<title>Node2&#45;&gt;Node6</title>
<g id="a_edge5_Node000002_Node000006"><a xlink:title=" ">
<path fill="none" stroke="#63b8ff" d="M227.24,-21.05C235.59,-19.83 244.42,-18.55 253.02,-17.29"/>
<polygon fill="#63b8ff" stroke="#63b8ff" points="253.6,-20.75 262.99,-15.84 252.59,-13.82 253.6,-20.75"/>
</a>
</g>
</g>
<!-- Node4 -->
<g id="Node000004" class="node">
<title>Node4</title>
<g id="a_Node000004"><a xlink:href="dynarr_8c.html#a73f42f3f25cd0920d8039d63ea31be07" target="_top" xlink:title=" ">
<polygon fill="white" stroke="#666666" points="496,-56 388,-56 388,-37 496,-37 496,-56"/>
<text text-anchor="middle" x="442" y="-44" font-family="Mononoki" font-size="10.00">get_dynarr_header</text>
</a>
</g>
</g>
<!-- Node3&#45;&gt;Node4 -->
<g id="edge3_Node000003_Node000004" class="edge">
<title>Node3&#45;&gt;Node4</title>
<g id="a_edge3_Node000003_Node000004"><a xlink:title=" ">
<path fill="none" stroke="#63b8ff" d="M344.01,-46.5C354.44,-46.5 366.18,-46.5 377.8,-46.5"/>
<polygon fill="#63b8ff" stroke="#63b8ff" points="377.94,-50 387.94,-46.5 377.94,-43 377.94,-50"/>
</a>
</g>
</g>
<!-- Node5 -->
<g id="Node000005" class="node">
<title>Node5</title>
<g id="a_Node000005"><a target="_parent" xlink:href="https://evjeesm.github.io/vector/group__Extension.html#gafc2e34dbacffe6480af8681fbf46e808" xlink:title=" ">
<polygon fill="white" stroke="#666666" points="660,-56 532,-56 532,-37 660,-37 660,-56"/>
<text text-anchor="middle" x="596" y="-44" font-family="Mononoki" font-size="10.00">vector_get_ext_header</text>
</a>
</g>
</g>
<!-- Node4&#45;&gt;Node5 -->
<g id="edge4_Node000004_Node000005" class="edge">
<title>Node4&#45;&gt;Node5</title>
<g id="a_edge4_Node000004_Node000005"><a xlink:title=" ">
<path fill="none" stroke="#63b8ff" d="M496.16,-46.5C504.47,-46.5 513.18,-46.5 521.84,-46.5"/>
<polygon fill="#63b8ff" stroke="#63b8ff" points="521.95,-50 531.95,-46.5 521.95,-43 521.95,-50"/>
</a>
</g>
</g>
</g>
</svg>
