<?xml version="1.0" encoding="UTF-8" standalone="no"?>
<!DOCTYPE svg PUBLIC "-//W3C//DTD SVG 1.1//EN"
 "http://www.w3.org/Graphics/SVG/1.1/DTD/svg11.dtd">
<!-- Generated by graphviz version 2.43.0 (0)
 -->
<!-- Title: dynarr_remove_range Pages: 1 -->
<svg width="879pt" height="297pt"
 viewBox="0.00 0.00 879.00 296.99" xmlns="http://www.w3.org/2000/svg" xmlns:xlink="http://www.w3.org/1999/xlink">
<g id="graph0" class="graph" transform="scale(1 1) rotate(0) translate(4 292.99)">
<title>dynarr_remove_range</title>
<!-- Node1 -->
<g id="Node000001" class="node">
<title>Node1</title>
<g id="a_Node000001"><a xlink:title=" ">
<polygon fill="#999999" stroke="#666666" points="124,-131 0,-131 0,-112 124,-112 124,-131"/>
<text text-anchor="middle" x="62" y="-119" font-family="Mononoki" font-size="10.00">dynarr_remove_range</text>
</a>
</g>
</g>
<!-- Node2 -->
<g id="Node000002" class="node">
<title>Node2</title>
<g id="a_Node000002"><a xlink:href="group__Dynarr__API.html#gaf5c43e2644d185b9b01065af34ed6e29" target="_top" xlink:title=" ">
<polygon fill="white" stroke="#666666" points="535.5,-169 462.5,-169 462.5,-150 535.5,-150 535.5,-169"/>
<text text-anchor="middle" x="499" y="-157" font-family="Mononoki" font-size="10.00">dynarr_size</text>
</a>
</g>
</g>
<!-- Node1&#45;&gt;Node2 -->
<g id="edge1_Node000001_Node000002" class="edge">
<title>Node1&#45;&gt;Node2</title>
<g id="a_edge1_Node000001_Node000002"><a xlink:title=" ">
<path fill="none" stroke="#63b8ff" d="M124.4,-126.86C212.71,-134.58 373.58,-148.63 452.24,-155.5"/>
<polygon fill="#63b8ff" stroke="#63b8ff" points="452.05,-159 462.32,-156.38 452.66,-152.03 452.05,-159"/>
</a>
</g>
</g>
<!-- Node5 -->
<g id="Node000005" class="node">
<title>Node5</title>
<g id="a_Node000005"><a xlink:href="group__Auto-resize.html#ga9ff20c2ac9693f6d8f0ea97f9b46539c" target="_top" xlink:title=" ">
<polygon fill="white" stroke="#666666" points="245,-207 160,-207 160,-188 245,-188 245,-207"/>
<text text-anchor="middle" x="202.5" y="-195" font-family="Mononoki" font-size="10.00">free_space_at</text>
</a>
</g>
</g>
<!-- Node1&#45;&gt;Node5 -->
<g id="edge4_Node000001_Node000005" class="edge">
<title>Node1&#45;&gt;Node5</title>
<g id="a_edge4_Node000001_Node000005"><a xlink:title=" ">
<path fill="none" stroke="#63b8ff" d="M80.54,-131.13C104.48,-144.26 147.56,-167.9 175.32,-183.14"/>
<polygon fill="#63b8ff" stroke="#63b8ff" points="173.65,-186.21 184.1,-187.95 177.02,-180.07 173.65,-186.21"/>
</a>
</g>
</g>
<!-- Node9 -->
<g id="Node000009" class="node">
<title>Node9</title>
<g id="a_Node000009"><a xlink:href="group__Auto-resize.html#ga8eb6c0a577084ccd7a64bec67b8bdbbe" target="_top" xlink:title=" ">
<polygon fill="white" stroke="#666666" points="363.5,-93 316.5,-93 316.5,-74 363.5,-74 363.5,-93"/>
<text text-anchor="middle" x="340" y="-81" font-family="Mononoki" font-size="10.00">shrink</text>
</a>
</g>
</g>
<!-- Node1&#45;&gt;Node9 -->
<g id="edge11_Node000001_Node000009" class="edge">
<title>Node1&#45;&gt;Node9</title>
<g id="a_edge11_Node000001_Node000009"><a xlink:title=" ">
<path fill="none" stroke="#63b8ff" d="M124.04,-112.59C135.97,-110.88 148.37,-109.12 160,-107.5 210.94,-100.41 270.09,-92.55 306.02,-87.82"/>
<polygon fill="#63b8ff" stroke="#63b8ff" points="306.93,-91.23 316.38,-86.46 306.01,-84.29 306.93,-91.23"/>
</a>
</g>
</g>
<!-- Node3 -->
<g id="Node000003" class="node">
<title>Node3</title>
<g id="a_Node000003"><a xlink:href="dynarr_8c.html#a73f42f3f25cd0920d8039d63ea31be07" target="_top" xlink:title=" ">
<polygon fill="white" stroke="#666666" points="707,-150 599,-150 599,-131 707,-131 707,-150"/>
<text text-anchor="middle" x="653" y="-138" font-family="Mononoki" font-size="10.00">get_dynarr_header</text>
</a>
</g>
</g>
<!-- Node2&#45;&gt;Node3 -->
<g id="edge2_Node000002_Node000003" class="edge">
<title>Node2&#45;&gt;Node3</title>
<g id="a_edge2_Node000002_Node000003"><a xlink:title=" ">
<path fill="none" stroke="#63b8ff" d="M535.64,-155.05C551.48,-153.06 570.62,-150.67 588.76,-148.4"/>
<polygon fill="#63b8ff" stroke="#63b8ff" points="589.22,-151.87 598.71,-147.16 588.36,-144.93 589.22,-151.87"/>
</a>
</g>
</g>
<!-- Node4 -->
<g id="Node000004" class="node">
<title>Node4</title>
<g id="a_Node000004"><a target="_parent" xlink:href="https://evjeesm.github.io/vector/group__Vector__API.html#gafc2e34dbacffe6480af8681fbf46e808" xlink:title=" ">
<polygon fill="white" stroke="#666666" points="871,-150 743,-150 743,-131 871,-131 871,-150"/>
<text text-anchor="middle" x="807" y="-138" font-family="Mononoki" font-size="10.00">vector_get_ext_header</text>
</a>
</g>
</g>
<!-- Node3&#45;&gt;Node4 -->
<g id="edge3_Node000003_Node000004" class="edge">
<title>Node3&#45;&gt;Node4</title>
<g id="a_edge3_Node000003_Node000004"><a xlink:title=" ">
<path fill="none" stroke="#63b8ff" d="M707.16,-140.5C715.47,-140.5 724.18,-140.5 732.84,-140.5"/>
<polygon fill="#63b8ff" stroke="#63b8ff" points="732.95,-144 742.95,-140.5 732.95,-137 732.95,-144"/>
</a>
</g>
</g>
<!-- Node5&#45;&gt;Node2 -->
<g id="edge8_Node000005_Node000002" class="edge">
<title>Node5&#45;&gt;Node2</title>
<g id="a_edge8_Node000005_Node000002"><a xlink:title=" ">
<path fill="none" stroke="#63b8ff" d="M239.96,-187.95C252.85,-184.87 267.5,-181.68 281,-179.5 339.78,-170.01 408.3,-164.63 452.37,-161.89"/>
<polygon fill="#63b8ff" stroke="#63b8ff" points="452.71,-165.38 462.48,-161.28 452.29,-158.39 452.71,-165.38"/>
</a>
</g>
</g>
<!-- Node5&#45;&gt;Node3 -->
<g id="edge9_Node000005_Node000003" class="edge">
<title>Node5&#45;&gt;Node3</title>
<g id="a_edge9_Node000005_Node000003"><a xlink:title=" ">
<path fill="none" stroke="#63b8ff" d="M212.87,-207.4C226.4,-220.88 252.89,-244.41 281,-253.5 400.25,-292.08 450.24,-308.22 563,-253.5 603.44,-233.87 631.01,-185.98 643.82,-159.27"/>
<polygon fill="#63b8ff" stroke="#63b8ff" points="647,-160.73 648,-150.18 640.64,-157.8 647,-160.73"/>
</a>
</g>
</g>
<!-- Node6 -->
<g id="Node000006" class="node">
<title>Node6</title>
<g id="a_Node000006"><a xlink:href="group__Dynarr__API.html#ga93c32dd116523090126d427cce08e114" target="_top" xlink:title=" ">
<polygon fill="white" stroke="#666666" points="374.5,-244 305.5,-244 305.5,-225 374.5,-225 374.5,-244"/>
<text text-anchor="middle" x="340" y="-232" font-family="Mononoki" font-size="10.00">dynarr_get</text>
</a>
</g>
</g>
<!-- Node5&#45;&gt;Node6 -->
<g id="edge5_Node000005_Node000006" class="edge">
<title>Node5&#45;&gt;Node6</title>
<g id="a_edge5_Node000005_Node000006"><a xlink:title=" ">
<path fill="none" stroke="#63b8ff" d="M238.39,-207.03C255.81,-211.78 277.04,-217.58 295.51,-222.62"/>
<polygon fill="#63b8ff" stroke="#63b8ff" points="294.59,-226 305.16,-225.26 296.44,-219.25 294.59,-226"/>
</a>
</g>
</g>
<!-- Node8 -->
<g id="Node000008" class="node">
<title>Node8</title>
<g id="a_Node000008"><a target="_parent" xlink:href="https://evjeesm.github.io/vector/group__Vector__API.html#gaae93d7f0c056c1d11d3232a7a7aa5e09" xlink:title=" ">
<polygon fill="white" stroke="#666666" points="399,-207 281,-207 281,-188 399,-188 399,-207"/>
<text text-anchor="middle" x="340" y="-195" font-family="Mononoki" font-size="10.00">vector_element_size</text>
</a>
</g>
</g>
<!-- Node5&#45;&gt;Node8 -->
<g id="edge10_Node000005_Node000008" class="edge">
<title>Node5&#45;&gt;Node8</title>
<g id="a_edge10_Node000005_Node000008"><a xlink:title=" ">
<path fill="none" stroke="#63b8ff" d="M245.26,-197.5C253.31,-197.5 261.93,-197.5 270.57,-197.5"/>
<polygon fill="#63b8ff" stroke="#63b8ff" points="270.69,-201 280.69,-197.5 270.69,-194 270.69,-201"/>
</a>
</g>
</g>
<!-- Node6&#45;&gt;Node2 -->
<g id="edge6_Node000006_Node000002" class="edge">
<title>Node6&#45;&gt;Node2</title>
<g id="a_edge6_Node000006_Node000002"><a xlink:title=" ">
<path fill="none" stroke="#63b8ff" d="M374.59,-225.46C382.71,-222.9 391.27,-219.87 399,-216.5 426.3,-204.58 455.65,-187.02 475.24,-174.55"/>
<polygon fill="#63b8ff" stroke="#63b8ff" points="477.26,-177.41 483.77,-169.05 473.47,-171.53 477.26,-177.41"/>
</a>
</g>
</g>
<!-- Node7 -->
<g id="Node000007" class="node">
<title>Node7</title>
<g id="a_Node000007"><a target="_parent" xlink:href="https://evjeesm.github.io/vector/group__Vector__API.html#ga9437d9506a3b2799f595c88b82f160b3" xlink:title=" ">
<polygon fill="white" stroke="#666666" points="533,-244 465,-244 465,-225 533,-225 533,-244"/>
<text text-anchor="middle" x="499" y="-232" font-family="Mononoki" font-size="10.00">vector_get</text>
</a>
</g>
</g>
<!-- Node6&#45;&gt;Node7 -->
<g id="edge7_Node000006_Node000007" class="edge">
<title>Node6&#45;&gt;Node7</title>
<g id="a_edge7_Node000006_Node000007"><a xlink:title=" ">
<path fill="none" stroke="#63b8ff" d="M374.68,-234.5C398.12,-234.5 429.58,-234.5 454.86,-234.5"/>
<polygon fill="#63b8ff" stroke="#63b8ff" points="454.91,-238 464.91,-234.5 454.91,-231 454.91,-238"/>
</a>
</g>
</g>
<!-- Node9&#45;&gt;Node2 -->
<g id="edge16_Node000009_Node000002" class="edge">
<title>Node9&#45;&gt;Node2</title>
<g id="a_edge16_Node000009_Node000002"><a xlink:title=" ">
<path fill="none" stroke="#63b8ff" d="M363.7,-90.71C374.82,-94.77 388.11,-100.45 399,-107.5 417.47,-119.46 415.87,-130.61 435,-141.5 440.51,-144.64 446.62,-147.27 452.79,-149.45"/>
<polygon fill="#63b8ff" stroke="#63b8ff" points="451.88,-152.84 462.47,-152.54 454.01,-146.17 451.88,-152.84"/>
</a>
</g>
</g>
<!-- Node9&#45;&gt;Node3 -->
<g id="edge17_Node000009_Node000003" class="edge">
<title>Node9&#45;&gt;Node3</title>
<g id="a_edge17_Node000009_Node000003"><a xlink:title=" ">
<path fill="none" stroke="#63b8ff" d="M363.75,-83.29C404.37,-83.41 491.8,-85.93 563,-103.5 584.19,-108.73 606.88,-118.23 624.05,-126.3"/>
<polygon fill="#63b8ff" stroke="#63b8ff" points="622.94,-129.65 633.47,-130.84 625.98,-123.34 622.94,-129.65"/>
</a>
</g>
</g>
<!-- Node10 -->
<g id="Node000010" class="node">
<title>Node10</title>
<g id="a_Node000010"><a xlink:href="group__Dynarr__API.html#ga3ff11107726213a640d814b63cb123b2" target="_top" xlink:title=" ">
<polygon fill="white" stroke="#666666" points="546.5,-19 451.5,-19 451.5,0 546.5,0 546.5,-19"/>
<text text-anchor="middle" x="499" y="-7" font-family="Mononoki" font-size="10.00">dynarr_capacity</text>
</a>
</g>
</g>
<!-- Node9&#45;&gt;Node10 -->
<g id="edge12_Node000009_Node000010" class="edge">
<title>Node9&#45;&gt;Node10</title>
<g id="a_edge12_Node000009_Node000010"><a xlink:title=" ">
<path fill="none" stroke="#63b8ff" d="M354.42,-73.98C372.14,-61.77 404.66,-40.61 435,-27.5 439.4,-25.6 444.06,-23.83 448.78,-22.22"/>
<polygon fill="#63b8ff" stroke="#63b8ff" points="450.02,-25.49 458.47,-19.1 447.87,-18.83 450.02,-25.49"/>
</a>
</g>
</g>
<!-- Node12 -->
<g id="Node000012" class="node">
<title>Node12</title>
<g id="a_Node000012"><a xlink:href="group__Dynarr__API.html#ga745bff084f68eec950fa9ea0b42fb4e7" target="_top" xlink:title=" ">
<polygon fill="white" stroke="#666666" points="563,-132 435,-132 435,-113 563,-113 563,-132"/>
<text text-anchor="middle" x="499" y="-120" font-family="Mononoki" font-size="10.00">dynarr_initial_capacity</text>
</a>
</g>
</g>
<!-- Node9&#45;&gt;Node12 -->
<g id="edge14_Node000009_Node000012" class="edge">
<title>Node9&#45;&gt;Node12</title>
<g id="a_edge14_Node000009_Node000012"><a xlink:title=" ">
<path fill="none" stroke="#63b8ff" d="M363.83,-89.17C386.27,-94.75 421.22,-103.43 449.82,-110.53"/>
<polygon fill="#63b8ff" stroke="#63b8ff" points="449.1,-113.96 459.65,-112.97 450.78,-107.16 449.1,-113.96"/>
</a>
</g>
</g>
<!-- Node13 -->
<g id="Node000013" class="node">
<title>Node13</title>
<g id="a_Node000013"><a target="_parent" xlink:href="https://evjeesm.github.io/vector/group__Vector__API.html#ga6e5077303af4dfe720af5a0608553922" xlink:title=" ">
<polygon fill="white" stroke="#666666" points="540,-56 458,-56 458,-37 540,-37 540,-56"/>
<text text-anchor="middle" x="499" y="-44" font-family="Mononoki" font-size="10.00">vector_resize</text>
</a>
</g>
</g>
<!-- Node9&#45;&gt;Node13 -->
<g id="edge18_Node000009_Node000013" class="edge">
<title>Node9&#45;&gt;Node13</title>
<g id="a_edge18_Node000009_Node000013"><a xlink:title=" ">
<path fill="none" stroke="#63b8ff" d="M363.83,-78.12C385.72,-72.96 419.51,-65 447.7,-58.35"/>
<polygon fill="#63b8ff" stroke="#63b8ff" points="448.87,-61.67 457.8,-55.97 447.27,-54.86 448.87,-61.67"/>
</a>
</g>
</g>
<!-- Node11 -->
<g id="Node000011" class="node">
<title>Node11</title>
<g id="a_Node000011"><a target="_parent" xlink:href="https://evjeesm.github.io/vector/group__Vector__API.html#gab24bd801f91d4ae1ac79b54430b0409f" xlink:title=" ">
<polygon fill="white" stroke="#666666" points="700,-19 606,-19 606,0 700,0 700,-19"/>
<text text-anchor="middle" x="653" y="-7" font-family="Mononoki" font-size="10.00">vector_capacity</text>
</a>
</g>
</g>
<!-- Node10&#45;&gt;Node11 -->
<g id="edge13_Node000010_Node000011" class="edge">
<title>Node10&#45;&gt;Node11</title>
<g id="a_edge13_Node000010_Node000011"><a xlink:title=" ">
<path fill="none" stroke="#63b8ff" d="M546.85,-9.5C562.23,-9.5 579.49,-9.5 595.51,-9.5"/>
<polygon fill="#63b8ff" stroke="#63b8ff" points="595.83,-13 605.83,-9.5 595.83,-6 595.83,-13"/>
</a>
</g>
</g>
<!-- Node12&#45;&gt;Node3 -->
<g id="edge15_Node000012_Node000003" class="edge">
<title>Node12&#45;&gt;Node3</title>
<g id="a_edge15_Node000012_Node000003"><a xlink:title=" ">
<path fill="none" stroke="#63b8ff" d="M563.14,-129.98C571.61,-130.98 580.29,-132.01 588.76,-133.01"/>
<polygon fill="#63b8ff" stroke="#63b8ff" points="588.61,-136.52 598.95,-134.22 589.43,-129.57 588.61,-136.52"/>
</a>
</g>
</g>
</g>
</svg>
