<?xml version="1.0" encoding="UTF-8" standalone="no"?>
<!DOCTYPE svg PUBLIC "-//W3C//DTD SVG 1.1//EN"
 "http://www.w3.org/Graphics/SVG/1.1/DTD/svg11.dtd">
<!-- Generated by graphviz version 2.43.0 (0)
 -->
<!-- Title: dynarr_remove Pages: 1 -->
<svg width="793pt" height="192pt"
 viewBox="0.00 0.00 793.00 191.86" xmlns="http://www.w3.org/2000/svg" xmlns:xlink="http://www.w3.org/1999/xlink">
<g id="graph0" class="graph" transform="scale(1 1) rotate(0) translate(4 187.86)">
<title>dynarr_remove</title>
<!-- Node1 -->
<g id="Node000001" class="node">
<title>Node1</title>
<g id="a_Node000001"><a xlink:title=" ">
<polygon fill="#999999" stroke="#666666" points="91,-94 0,-94 0,-75 91,-75 91,-94"/>
<text text-anchor="middle" x="45.5" y="-82" font-family="Mononoki" font-size="10.00">dynarr_remove</text>
</a>
</g>
</g>
<!-- Node2 -->
<g id="Node000002" class="node">
<title>Node2</title>
<g id="a_Node000002"><a xlink:href="group__Dynarr__API.html#ga1187f49d8bde19551b2c95ad430e596c" target="_top" xlink:title=" ">
<polygon fill="white" stroke="#666666" points="251,-94 127,-94 127,-75 251,-75 251,-94"/>
<text text-anchor="middle" x="189" y="-82" font-family="Mononoki" font-size="10.00">dynarr_remove_range</text>
</a>
</g>
</g>
<!-- Node1&#45;&gt;Node2 -->
<g id="edge1_Node000001_Node000002" class="edge">
<title>Node1&#45;&gt;Node2</title>
<g id="a_edge1_Node000001_Node000002"><a xlink:title=" ">
<path fill="none" stroke="#63b8ff" d="M91.27,-84.5C99.42,-84.5 108.1,-84.5 116.79,-84.5"/>
<polygon fill="#63b8ff" stroke="#63b8ff" points="116.96,-88 126.96,-84.5 116.96,-81 116.96,-88"/>
</a>
</g>
</g>
<!-- Node3 -->
<g id="Node000003" class="node">
<title>Node3</title>
<g id="a_Node000003"><a xlink:href="group__Dynarr__API.html#gaf5c43e2644d185b9b01065af34ed6e29" target="_top" xlink:title=" ">
<polygon fill="white" stroke="#666666" points="613.5,-132 540.5,-132 540.5,-113 613.5,-113 613.5,-132"/>
<text text-anchor="middle" x="577" y="-120" font-family="Mononoki" font-size="10.00">dynarr_size</text>
</a>
</g>
</g>
<!-- Node2&#45;&gt;Node3 -->
<g id="edge2_Node000002_Node000003" class="edge">
<title>Node2&#45;&gt;Node3</title>
<g id="a_edge2_Node000002_Node000003"><a xlink:title=" ">
<path fill="none" stroke="#63b8ff" d="M251.16,-90.52C328.71,-98.16 460.64,-111.14 530.1,-117.98"/>
<polygon fill="#63b8ff" stroke="#63b8ff" points="530,-121.49 540.29,-118.98 530.68,-114.52 530,-121.49"/>
</a>
</g>
</g>
<!-- Node5 -->
<g id="Node000005" class="node">
<title>Node5</title>
<g id="a_Node000005"><a xlink:href="group__Auto-resize.html#ga9ff20c2ac9693f6d8f0ea97f9b46539c" target="_top" xlink:title=" ">
<polygon fill="white" stroke="#666666" points="372,-151 287,-151 287,-132 372,-132 372,-151"/>
<text text-anchor="middle" x="329.5" y="-139" font-family="Mononoki" font-size="10.00">free_space_at</text>
</a>
</g>
</g>
<!-- Node2&#45;&gt;Node5 -->
<g id="edge4_Node000002_Node000005" class="edge">
<title>Node2&#45;&gt;Node5</title>
<g id="a_edge4_Node000002_Node000005"><a xlink:title=" ">
<path fill="none" stroke="#63b8ff" d="M213.18,-94.04C235.75,-103.33 270.27,-117.54 295.66,-127.99"/>
<polygon fill="#63b8ff" stroke="#63b8ff" points="294.66,-131.36 305.24,-131.93 297.33,-124.89 294.66,-131.36"/>
</a>
</g>
</g>
<!-- Node7 -->
<g id="Node000007" class="node">
<title>Node7</title>
<g id="a_Node000007"><a xlink:href="group__Auto-resize.html#ga8eb6c0a577084ccd7a64bec67b8bdbbe" target="_top" xlink:title=" ">
<polygon fill="white" stroke="#666666" points="466,-56 419,-56 419,-37 466,-37 466,-56"/>
<text text-anchor="middle" x="442.5" y="-44" font-family="Mononoki" font-size="10.00">shrink</text>
</a>
</g>
</g>
<!-- Node2&#45;&gt;Node7 -->
<g id="edge9_Node000002_Node000007" class="edge">
<title>Node2&#45;&gt;Node7</title>
<g id="a_edge9_Node000002_Node000007"><a xlink:title=" ">
<path fill="none" stroke="#63b8ff" d="M251.2,-75.25C300.85,-67.75 368.93,-57.47 408.76,-51.45"/>
<polygon fill="#63b8ff" stroke="#63b8ff" points="409.36,-54.9 418.73,-49.94 408.32,-47.97 409.36,-54.9"/>
</a>
</g>
</g>
<!-- Node4 -->
<g id="Node000004" class="node">
<title>Node4</title>
<g id="a_Node000004"><a xlink:href="dynarr_8c.html#a73f42f3f25cd0920d8039d63ea31be07" target="_top" xlink:title=" ">
<polygon fill="white" stroke="#666666" points="785,-113 677,-113 677,-94 785,-94 785,-113"/>
<text text-anchor="middle" x="731" y="-101" font-family="Mononoki" font-size="10.00">get_dynarr_header</text>
</a>
</g>
</g>
<!-- Node3&#45;&gt;Node4 -->
<g id="edge3_Node000003_Node000004" class="edge">
<title>Node3&#45;&gt;Node4</title>
<g id="a_edge3_Node000003_Node000004"><a xlink:title=" ">
<path fill="none" stroke="#63b8ff" d="M613.64,-118.05C629.48,-116.06 648.62,-113.67 666.76,-111.4"/>
<polygon fill="#63b8ff" stroke="#63b8ff" points="667.22,-114.87 676.71,-110.16 666.36,-107.93 667.22,-114.87"/>
</a>
</g>
</g>
<!-- Node5&#45;&gt;Node3 -->
<g id="edge7_Node000005_Node000003" class="edge">
<title>Node5&#45;&gt;Node3</title>
<g id="a_edge7_Node000005_Node000003"><a xlink:title=" ">
<path fill="none" stroke="#63b8ff" d="M372.15,-138.28C415.93,-134.89 484.64,-129.57 530,-126.06"/>
<polygon fill="#63b8ff" stroke="#63b8ff" points="530.45,-129.54 540.15,-125.27 529.91,-122.56 530.45,-129.54"/>
</a>
</g>
</g>
<!-- Node5&#45;&gt;Node4 -->
<g id="edge8_Node000005_Node000004" class="edge">
<title>Node5&#45;&gt;Node4</title>
<g id="a_edge8_Node000005_Node000004"><a xlink:title=" ">
<path fill="none" stroke="#63b8ff" d="M344.89,-151.06C359.9,-160.42 384.5,-174.05 408,-179.5 437.87,-186.43 446.54,-183.07 477,-179.5 551.41,-170.77 569.74,-163.62 641,-140.5 661.09,-133.98 683.01,-124.9 700.06,-117.36"/>
<polygon fill="#63b8ff" stroke="#63b8ff" points="701.8,-120.42 709.49,-113.13 698.94,-114.03 701.8,-120.42"/>
</a>
</g>
</g>
<!-- Node6 -->
<g id="Node000006" class="node">
<title>Node6</title>
<g id="a_Node000006"><a xlink:href="group__Dynarr__API.html#ga93c32dd116523090126d427cce08e114" target="_top" xlink:title=" ">
<polygon fill="white" stroke="#666666" points="477,-170 408,-170 408,-151 477,-151 477,-170"/>
<text text-anchor="middle" x="442.5" y="-158" font-family="Mononoki" font-size="10.00">dynarr_get</text>
</a>
</g>
</g>
<!-- Node5&#45;&gt;Node6 -->
<g id="edge5_Node000005_Node000006" class="edge">
<title>Node5&#45;&gt;Node6</title>
<g id="a_edge5_Node000005_Node000006"><a xlink:title=" ">
<path fill="none" stroke="#63b8ff" d="M372.15,-148.63C380.55,-150.07 389.39,-151.58 397.86,-153.03"/>
<polygon fill="#63b8ff" stroke="#63b8ff" points="397.49,-156.52 407.93,-154.75 398.67,-149.62 397.49,-156.52"/>
</a>
</g>
</g>
<!-- Node6&#45;&gt;Node3 -->
<g id="edge6_Node000006_Node000003" class="edge">
<title>Node6&#45;&gt;Node3</title>
<g id="a_edge6_Node000006_Node000003"><a xlink:title=" ">
<path fill="none" stroke="#63b8ff" d="M476.94,-150.91C493.88,-146.05 514.66,-140.09 532.81,-134.89"/>
<polygon fill="#63b8ff" stroke="#63b8ff" points="533.93,-138.21 542.58,-132.09 532,-131.48 533.93,-138.21"/>
</a>
</g>
</g>
<!-- Node7&#45;&gt;Node3 -->
<g id="edge13_Node000007_Node000003" class="edge">
<title>Node7&#45;&gt;Node3</title>
<g id="a_edge13_Node000007_Node000003"><a xlink:title=" ">
<path fill="none" stroke="#63b8ff" d="M457.28,-56.19C463.36,-60.51 470.58,-65.71 477,-70.5 493.24,-82.63 495.33,-88.56 513,-98.5 520.18,-102.54 528.17,-106.17 535.99,-109.32"/>
<polygon fill="#63b8ff" stroke="#63b8ff" points="534.78,-112.6 545.37,-112.9 537.28,-106.06 534.78,-112.6"/>
</a>
</g>
</g>
<!-- Node7&#45;&gt;Node4 -->
<g id="edge14_Node000007_Node000004" class="edge">
<title>Node7&#45;&gt;Node4</title>
<g id="a_edge14_Node000007_Node000004"><a xlink:title=" ">
<path fill="none" stroke="#63b8ff" d="M466.25,-52.85C479.77,-56.52 497.29,-61.06 513,-64.5 564.4,-75.76 623.18,-86.17 666.58,-93.4"/>
<polygon fill="#63b8ff" stroke="#63b8ff" points="666.28,-96.9 676.72,-95.08 667.42,-89.99 666.28,-96.9"/>
</a>
</g>
</g>
<!-- Node8 -->
<g id="Node000008" class="node">
<title>Node8</title>
<g id="a_Node000008"><a xlink:href="group__Dynarr__API.html#ga3ff11107726213a640d814b63cb123b2" target="_top" xlink:title=" ">
<polygon fill="white" stroke="#666666" points="624.5,-56 529.5,-56 529.5,-37 624.5,-37 624.5,-56"/>
<text text-anchor="middle" x="577" y="-44" font-family="Mononoki" font-size="10.00">dynarr_capacity</text>
</a>
</g>
</g>
<!-- Node7&#45;&gt;Node8 -->
<g id="edge10_Node000007_Node000008" class="edge">
<title>Node7&#45;&gt;Node8</title>
<g id="a_edge10_Node000007_Node000008"><a xlink:title=" ">
<path fill="none" stroke="#63b8ff" d="M466.28,-46.5C480.89,-46.5 500.54,-46.5 519.18,-46.5"/>
<polygon fill="#63b8ff" stroke="#63b8ff" points="519.4,-50 529.4,-46.5 519.4,-43 519.4,-50"/>
</a>
</g>
</g>
<!-- Node9 -->
<g id="Node000009" class="node">
<title>Node9</title>
<g id="a_Node000009"><a xlink:href="group__Dynarr__API.html#ga745bff084f68eec950fa9ea0b42fb4e7" target="_top" xlink:title=" ">
<polygon fill="white" stroke="#666666" points="641,-19 513,-19 513,0 641,0 641,-19"/>
<text text-anchor="middle" x="577" y="-7" font-family="Mononoki" font-size="10.00">dynarr_initial_capacity</text>
</a>
</g>
</g>
<!-- Node7&#45;&gt;Node9 -->
<g id="edge11_Node000007_Node000009" class="edge">
<title>Node7&#45;&gt;Node9</title>
<g id="a_edge11_Node000007_Node000009"><a xlink:title=" ">
<path fill="none" stroke="#63b8ff" d="M466.28,-40.14C484.31,-35.1 510.03,-27.92 532.04,-21.78"/>
<polygon fill="#63b8ff" stroke="#63b8ff" points="533.16,-25.1 541.85,-19.04 531.27,-18.36 533.16,-25.1"/>
</a>
</g>
</g>
<!-- Node9&#45;&gt;Node4 -->
<g id="edge12_Node000009_Node000004" class="edge">
<title>Node9&#45;&gt;Node4</title>
<g id="a_edge12_Node000009_Node000004"><a xlink:title=" ">
<path fill="none" stroke="#63b8ff" d="M621,-19.1C627.89,-21.39 634.79,-24.17 641,-27.5 669.77,-42.94 697.49,-68.94 714.14,-86.16"/>
<polygon fill="#63b8ff" stroke="#63b8ff" points="711.97,-88.96 721.39,-93.83 717.06,-84.16 711.97,-88.96"/>
</a>
</g>
</g>
</g>
</svg>
