<?xml version="1.0" encoding="UTF-8" standalone="no"?>
<!DOCTYPE svg PUBLIC "-//W3C//DTD SVG 1.1//EN"
 "http://www.w3.org/Graphics/SVG/1.1/DTD/svg11.dtd">
<!-- Generated by graphviz version 2.43.0 (0)
 -->
<!-- Title: dynarr_spread_insert Pages: 1 -->
<!--zoomable 193 -->

<svg id="main" version="1.1" xmlns="http://www.w3.org/2000/svg" xmlns:xlink="http://www.w3.org/1999/xlink" xml:space="preserve" onload="init(evt)">
<style type="text/css"><![CDATA[
.node, .edge {opacity: 0.7;}
.node.selected, .edge.selected {opacity: 1;}
.edge:hover path { stroke: red; }
.edge:hover polygon { stroke: red; fill: red; }
]]></style>

<defs>
  <circle id="rim" cx="0" cy="0" r="7"/>
  <circle id="rim2" cx="0" cy="0" r="3.5"/>
  <g id="zoomPlus">
    <use xlink:href="#rim" fill="#404040"><set attributeName="fill" to="#808080" begin="zoomplus.mouseover" end="zoomplus.mouseout"/></use>
    <path d="M-4,0h8M0,-4v8" fill="none" stroke="white" stroke-width="1.5" pointer-events="none"/>
  </g>
  <g id="zoomMin">
    <use xlink:href="#rim" fill="#404040"><set attributeName="fill" to="#808080" begin="zoomminus.mouseover" end="zoomminus.mouseout"/></use>
    <path d="M-4,0h8" fill="none" stroke="white" stroke-width="1.5" pointer-events="none"/>
  </g>
  <g id="arrowUp" transform="translate(30 24)">
    <use xlink:href="#rim"/>
    <path pointer-events="none" fill="none" stroke="white" stroke-width="1.5" d="M0,-3.0v7 M-2.5,-0.5L0,-3.0L2.5,-0.5"/>
  </g>
  <g id="arrowRight" transform="rotate(90) translate(36 -43)">
    <use xlink:href="#rim"/>
    <path pointer-events="none" fill="none" stroke="white" stroke-width="1.5" d="M0,-3.0v7 M-2.5,-0.5L0,-3.0L2.5,-0.5"/>
  </g>
  <g id="arrowDown" transform="rotate(180) translate(-30 -48)">
    <use xlink:href="#rim"/>
    <path pointer-events="none" fill="none" stroke="white" stroke-width="1.5" d="M0,-3.0v7 M-2.5,-0.5L0,-3.0L2.5,-0.5"/>
  </g>
  <g id="arrowLeft" transform="rotate(270) translate(-36 17)">
    <use xlink:href="#rim"/>
    <path pointer-events="none" fill="none" stroke="white" stroke-width="1.5" d="M0,-3.0v7 M-2.5,-0.5L0,-3.0L2.5,-0.5"/>
  </g>
  <g id="resetDef">
    <use xlink:href="#rim2" fill="#404040"><set attributeName="fill" to="#808080" begin="reset.mouseover" end="reset.mouseout"/></use>
  </g>
</defs>
<script type="application/ecmascript">
var viewWidth = 635;
var viewHeight = 193;
var sectionId = 'dynsection-20';
</script>
<script type="application/ecmascript" xlink:href="svg.min.js"/>
<svg id="graph" class="graph">
<g id="viewport">
<title>dynarr_spread_insert</title>
<!-- Node1 -->
<g id="Node000001" class="node">
<title>Node1</title>
<g id="a_Node000001"><a xlink:title=" ">
<polygon fill="#999999" stroke="#666666" points="119,-128.39 0,-128.39 0,-109.39 119,-109.39 119,-128.39"/>
<text text-anchor="middle" x="59.5" y="-116.39" font-family="Mononoki" font-size="10.00">dynarr_spread_insert</text>
</a>
</g>
</g>
<!-- Node2 -->
<g id="Node000002" class="node">
<title>Node2</title>
<g id="a_Node000002"><a xlink:href="group__Dynarr__API.html#ga30d508a9f387e2227dd0d72a8bfd2a39" target="_top" xlink:title=" ">
<polygon fill="white" stroke="#666666" points="235,-147.39 167,-147.39 167,-128.39 235,-128.39 235,-147.39"/>
<text text-anchor="middle" x="201" y="-135.39" font-family="Mononoki" font-size="10.00">dynarr_set</text>
</a>
</g>
</g>
<!-- Node1&#45;&gt;Node2 -->
<g id="edge1_Node000001_Node000002" class="edge">
<title>Node1&#45;&gt;Node2</title>
<g id="a_edge1_Node000001_Node000002"><a xlink:title=" ">
<path fill="none" stroke="#63b8ff" d="M119.26,-126.89C131.81,-128.6 144.85,-130.38 156.7,-131.99"/>
<polygon fill="#63b8ff" stroke="#63b8ff" points="156.38,-135.48 166.76,-133.36 157.33,-128.54 156.38,-135.48"/>
</a>
</g>
</g>
<!-- Node3 -->
<g id="Node000003" class="node">
<title>Node3</title>
<g id="a_Node000003"><a xlink:href="group__Dynarr__API.html#gaf5c43e2644d185b9b01065af34ed6e29" target="_top" xlink:title=" ">
<polygon fill="white" stroke="#666666" points="472,-109.39 399,-109.39 399,-90.39 472,-90.39 472,-109.39"/>
<text text-anchor="middle" x="435.5" y="-97.39" font-family="Mononoki" font-size="10.00">dynarr_size</text>
</a>
</g>
</g>
<!-- Node1&#45;&gt;Node3 -->
<g id="edge4_Node000001_Node000003" class="edge">
<title>Node1&#45;&gt;Node3</title>
<g id="a_edge4_Node000001_Node000003"><a xlink:title=" ">
<path fill="none" stroke="#63b8ff" d="M119.35,-115.9C193.84,-112.11 320.61,-105.67 388.45,-102.23"/>
<polygon fill="#63b8ff" stroke="#63b8ff" points="389,-105.7 398.81,-101.7 388.65,-98.71 389,-105.7"/>
</a>
</g>
</g>
<!-- Node5 -->
<g id="Node000005" class="node">
<title>Node5</title>
<g id="a_Node000005"><a xlink:href="group__Auto-resize.html#ga036b69c5b674d3ac22027b04ba235b42" target="_top" xlink:title=" ">
<polygon fill="white" stroke="#666666" points="338,-185.39 297,-185.39 297,-166.39 338,-166.39 338,-185.39"/>
<text text-anchor="middle" x="317.5" y="-173.39" font-family="Mononoki" font-size="10.00">grow</text>
</a>
</g>
</g>
<!-- Node1&#45;&gt;Node5 -->
<g id="edge5_Node000001_Node000005" class="edge">
<title>Node1&#45;&gt;Node5</title>
<g id="a_edge5_Node000001_Node000005"><a xlink:title=" ">
<path fill="none" stroke="#63b8ff" d="M79.9,-128.46C98.65,-137.29 128.1,-150.03 155,-156.89 199.98,-168.36 253.8,-172.93 286.55,-174.74"/>
<polygon fill="#63b8ff" stroke="#63b8ff" points="286.64,-178.25 296.8,-175.25 286.99,-171.25 286.64,-178.25"/>
</a>
</g>
</g>
<!-- Node7 -->
<g id="Node000007" class="node">
<title>Node7</title>
<g id="a_Node000007"><a xlink:href="group__Auto-resize.html#gadb26f84b95f0ca45c7ccbd72e337485a" target="_top" xlink:title=" ">
<polygon fill="white" stroke="#666666" points="247,-52.39 155,-52.39 155,-33.39 247,-33.39 247,-52.39"/>
<text text-anchor="middle" x="201" y="-40.39" font-family="Mononoki" font-size="10.00">make_space_at</text>
</a>
</g>
</g>
<!-- Node1&#45;&gt;Node7 -->
<g id="edge9_Node000001_Node000007" class="edge">
<title>Node1&#45;&gt;Node7</title>
<g id="a_edge9_Node000001_Node000007"><a xlink:title=" ">
<path fill="none" stroke="#63b8ff" d="M78.17,-109.26C102.28,-96.13 145.67,-72.49 173.63,-57.25"/>
<polygon fill="#63b8ff" stroke="#63b8ff" points="175.37,-60.29 182.48,-52.44 172.02,-54.15 175.37,-60.29"/>
</a>
</g>
</g>
<!-- Node2&#45;&gt;Node3 -->
<g id="edge2_Node000002_Node000003" class="edge">
<title>Node2&#45;&gt;Node3</title>
<g id="a_edge2_Node000002_Node000003"><a xlink:title=" ">
<path fill="none" stroke="#63b8ff" d="M235.08,-132.69C265.49,-127.88 311.8,-120.52 352,-113.89 363.86,-111.93 376.68,-109.78 388.59,-107.76"/>
<polygon fill="#63b8ff" stroke="#63b8ff" points="389.51,-111.15 398.78,-106.03 388.33,-104.25 389.51,-111.15"/>
</a>
</g>
</g>
<!-- Node4 -->
<g id="Node000004" class="node">
<title>Node4</title>
<g id="a_Node000004"><a xlink:href="dynarr_8c.html#a73f42f3f25cd0920d8039d63ea31be07" target="_top" xlink:title=" ">
<polygon fill="white" stroke="#666666" points="627,-109.39 519,-109.39 519,-90.39 627,-90.39 627,-109.39"/>
<text text-anchor="middle" x="573" y="-97.39" font-family="Mononoki" font-size="10.00">get_dynarr_header</text>
</a>
</g>
</g>
<!-- Node3&#45;&gt;Node4 -->
<g id="edge3_Node000003_Node000004" class="edge">
<title>Node3&#45;&gt;Node4</title>
<g id="a_edge3_Node000003_Node000004"><a xlink:title=" ">
<path fill="none" stroke="#63b8ff" d="M472.1,-99.89C483.36,-99.89 496.16,-99.89 508.76,-99.89"/>
<polygon fill="#63b8ff" stroke="#63b8ff" points="508.78,-103.39 518.78,-99.89 508.78,-96.39 508.78,-103.39"/>
</a>
</g>
</g>
<!-- Node5&#45;&gt;Node3 -->
<g id="edge7_Node000005_Node000003" class="edge">
<title>Node5&#45;&gt;Node3</title>
<g id="a_edge7_Node000005_Node000003"><a xlink:title=" ">
<path fill="none" stroke="#63b8ff" d="M332.76,-166.17C338.8,-161.92 345.85,-156.8 352,-151.89 368.72,-138.52 369.94,-131.38 388,-119.89 391.41,-117.72 395.09,-115.69 398.84,-113.81"/>
<polygon fill="#63b8ff" stroke="#63b8ff" points="400.57,-116.86 408.17,-109.48 397.63,-110.51 400.57,-116.86"/>
</a>
</g>
</g>
<!-- Node5&#45;&gt;Node4 -->
<g id="edge8_Node000005_Node000004" class="edge">
<title>Node5&#45;&gt;Node4</title>
<g id="a_edge8_Node000005_Node000004"><a xlink:title=" ">
<path fill="none" stroke="#63b8ff" d="M338.14,-176.44C369.65,-176.7 433.04,-174.69 483,-156.89 509.2,-147.55 535.57,-129.29 552.73,-115.94"/>
<polygon fill="#63b8ff" stroke="#63b8ff" points="555.19,-118.46 560.82,-109.48 550.82,-112.99 555.19,-118.46"/>
</a>
</g>
</g>
<!-- Node6 -->
<g id="Node000006" class="node">
<title>Node6</title>
<g id="a_Node000006"><a xlink:href="group__Dynarr__API.html#ga3ff11107726213a640d814b63cb123b2" target="_top" xlink:title=" ">
<polygon fill="white" stroke="#666666" points="483,-147.39 388,-147.39 388,-128.39 483,-128.39 483,-147.39"/>
<text text-anchor="middle" x="435.5" y="-135.39" font-family="Mononoki" font-size="10.00">dynarr_capacity</text>
</a>
</g>
</g>
<!-- Node5&#45;&gt;Node6 -->
<g id="edge6_Node000005_Node000006" class="edge">
<title>Node5&#45;&gt;Node6</title>
<g id="a_edge6_Node000005_Node000006"><a xlink:title=" ">
<path fill="none" stroke="#63b8ff" d="M338.18,-169.44C353.81,-164.32 376.17,-157 395.41,-150.69"/>
<polygon fill="#63b8ff" stroke="#63b8ff" points="396.72,-153.95 405.13,-147.51 394.54,-147.3 396.72,-153.95"/>
</a>
</g>
</g>
<!-- Node7&#45;&gt;Node3 -->
<g id="edge12_Node000007_Node000003" class="edge">
<title>Node7&#45;&gt;Node3</title>
<g id="a_edge12_Node000007_Node000003"><a xlink:title=" ">
<path fill="none" stroke="#63b8ff" d="M240.92,-52.43C281.73,-62.43 345.81,-78.14 388.95,-88.72"/>
<polygon fill="#63b8ff" stroke="#63b8ff" points="388.35,-92.18 398.89,-91.16 390.02,-85.38 388.35,-92.18"/>
</a>
</g>
</g>
<!-- Node7&#45;&gt;Node4 -->
<g id="edge13_Node000007_Node000004" class="edge">
<title>Node7&#45;&gt;Node4</title>
<g id="a_edge13_Node000007_Node000004"><a xlink:title=" ">
<path fill="none" stroke="#63b8ff" d="M217.1,-33.32C232.85,-23.96 258.59,-10.33 283,-4.89 312.93,1.78 321.97,1.32 352,-4.89 427.06,-20.4 508.02,-62.79 547.52,-85.33"/>
<polygon fill="#63b8ff" stroke="#63b8ff" points="545.79,-88.37 556.2,-90.35 549.29,-82.31 545.79,-88.37"/>
</a>
</g>
</g>
<!-- Node8 -->
<g id="Node000008" class="node">
<title>Node8</title>
<g id="a_Node000008"><a xlink:href="group__Dynarr__API.html#ga93c32dd116523090126d427cce08e114" target="_top" xlink:title=" ">
<polygon fill="white" stroke="#666666" points="352,-33.39 283,-33.39 283,-14.39 352,-14.39 352,-33.39"/>
<text text-anchor="middle" x="317.5" y="-21.39" font-family="Mononoki" font-size="10.00">dynarr_get</text>
</a>
</g>
</g>
<!-- Node7&#45;&gt;Node8 -->
<g id="edge10_Node000007_Node000008" class="edge">
<title>Node7&#45;&gt;Node8</title>
<g id="a_edge10_Node000007_Node000008"><a xlink:title=" ">
<path fill="none" stroke="#63b8ff" d="M247.25,-35.38C255.7,-33.98 264.51,-32.52 272.9,-31.12"/>
<polygon fill="#63b8ff" stroke="#63b8ff" points="273.58,-34.56 282.88,-29.47 272.44,-27.65 273.58,-34.56"/>
</a>
</g>
</g>
<!-- Node8&#45;&gt;Node3 -->
<g id="edge11_Node000008_Node000003" class="edge">
<title>Node8&#45;&gt;Node3</title>
<g id="a_edge11_Node000008_Node000003"><a xlink:title=" ">
<path fill="none" stroke="#63b8ff" d="M333.19,-33.51C352.89,-46.42 388.07,-69.47 411.35,-84.72"/>
<polygon fill="#63b8ff" stroke="#63b8ff" points="409.65,-87.79 419.93,-90.34 413.48,-81.93 409.65,-87.79"/>
</a>
</g>
</g>
</g>
</svg>

<g id="navigator" transform="translate(0 0)" fill="#404254">
  <rect fill="#f2f5e9" fill-opacity="0.5" stroke="#606060" stroke-width=".5" x="0" y="0" width="60" height="60"/>
  <use id="zoomplus" xlink:href="#zoomPlus" x="17" y="9" onmousedown="handleZoom(evt,'in')"/>
  <use id="zoomminus" xlink:href="#zoomMin" x="42" y="9" onmousedown="handleZoom(evt,'out')"/>
  <use id="reset" xlink:href="#resetDef" x="30" y="36" onmousedown="handleReset()"/>
   <use id="arrowup" xlink:href="#arrowUp" x="0" y="0" onmousedown="handlePan(0,-1)"/>
  <use id="arrowright" xlink:href="#arrowRight" x="0" y="0" onmousedown="handlePan(1,0)"/>
  <use id="arrowdown" xlink:href="#arrowDown" x="0" y="0" onmousedown="handlePan(0,1)"/>
  <use id="arrowleft" xlink:href="#arrowLeft" x="0" y="0" onmousedown="handlePan(-1,0)"/>
</g>
<svg viewBox="0 0 15 15" width="100%" height="30px" preserveAspectRatio="xMaxYMin meet">
 <g id="arrow_out" transform="scale(0.3 0.3)">
  <a xlink:href="group__Dynarr__API_ga00ddd61f7109ab9bb88da4fa5a88fb51_cgraph_org.svg" target="_base">
   <rect id="button" ry="5" rx="5" y="6" x="6" height="38" width="38"
        fill="#f2f5e9" fill-opacity="0.5" stroke="#606060" stroke-width="1.0"/>
   <path id="arrow"
     d="M 11.500037,31.436501 C 11.940474,20.09759 22.043105,11.32322 32.158766,21.979434 L 37.068811,17.246167 C 37.068811,17.246167 37.088388,32 37.088388,32 L 22.160133,31.978069 C 22.160133,31.978069 26.997745,27.140456 26.997745,27.140456 C 18.528582,18.264221 13.291696,25.230495 11.500037,31.436501 z"
     style="fill:#404040;"/>
  </a>
 </g>
</svg>

<style type='text/css'>
<![CDATA[
[data-mouse-over-selected='false'] { opacity: 0.7; }
[data-mouse-over-selected='true']  { opacity: 1.0; }
]]>
</style>
<script type="application/ecmascript"><![CDATA[
document.addEventListener('DOMContentLoaded', (event) => {
  highlightEdges();
  highlightAdjacentNodes();
});
]]></script>
</svg>
