<?xml version="1.0" encoding="UTF-8" standalone="no"?>
<!DOCTYPE svg PUBLIC "-//W3C//DTD SVG 1.1//EN"
 "http://www.w3.org/Graphics/SVG/1.1/DTD/svg11.dtd">
<!-- Generated by graphviz version 2.43.0 (0)
 -->
<!-- Title: dynarr_binary_merge Pages: 1 -->
<svg width="921pt" height="369pt"
 viewBox="0.00 0.00 921.00 369.00" xmlns="http://www.w3.org/2000/svg" xmlns:xlink="http://www.w3.org/1999/xlink">
<g id="graph0" class="graph" transform="scale(1 1) rotate(0) translate(4 365)">
<title>dynarr_binary_merge</title>
<!-- Node1 -->
<g id="Node000001" class="node">
<title>Node1</title>
<g id="a_Node000001"><a xlink:title=" ">
<polygon fill="#999999" stroke="#666666" points="121,-114 0,-114 0,-95 121,-95 121,-114"/>
<text text-anchor="middle" x="60.5" y="-102" font-family="Mononoki" font-size="10.00">dynarr_binary_merge</text>
</a>
</g>
</g>
<!-- Node2 -->
<g id="Node000002" class="node">
<title>Node2</title>
<g id="a_Node000002"><a xlink:href="group__Dynarr__API.html#ga1e7f043863514d809cd6446053f6dc47" target="_top" xlink:title=" ">
<polygon fill="white" stroke="#666666" points="246.5,-133 157.5,-133 157.5,-114 246.5,-114 246.5,-133"/>
<text text-anchor="middle" x="202" y="-121" font-family="Mononoki" font-size="10.00">dynarr_append</text>
</a>
</g>
</g>
<!-- Node1&#45;&gt;Node2 -->
<g id="edge1_Node000001_Node000002" class="edge">
<title>Node1&#45;&gt;Node2</title>
<g id="a_edge1_Node000001_Node000002"><a xlink:title=" ">
<path fill="none" stroke="#63b8ff" d="M121.07,-112.61C129.7,-113.79 138.55,-114.99 147.06,-116.15"/>
<polygon fill="#63b8ff" stroke="#63b8ff" points="146.87,-119.66 157.25,-117.54 147.81,-112.72 146.87,-119.66"/>
</a>
</g>
</g>
<!-- Node5 -->
<g id="Node000005" class="node">
<title>Node5</title>
<g id="a_Node000005"><a xlink:href="group__Dynarr__API.html#gaf5c43e2644d185b9b01065af34ed6e29" target="_top" xlink:title=" ">
<polygon fill="white" stroke="#666666" points="741.5,-171 668.5,-171 668.5,-152 741.5,-152 741.5,-171"/>
<text text-anchor="middle" x="705" y="-159" font-family="Mononoki" font-size="10.00">dynarr_size</text>
</a>
</g>
</g>
<!-- Node1&#45;&gt;Node5 -->
<g id="edge21_Node000001_Node000005" class="edge">
<title>Node1&#45;&gt;Node5</title>
<g id="a_edge21_Node000001_Node000005"><a xlink:title=" ">
<path fill="none" stroke="#63b8ff" d="M121.14,-97.77C174.79,-92.31 255.81,-85.5 326.5,-85.5 326.5,-85.5 326.5,-85.5 455,-85.5 541.46,-85.5 558.28,-117.35 641,-142.5 647.99,-144.62 655.42,-146.87 662.63,-149.05"/>
<polygon fill="#63b8ff" stroke="#63b8ff" points="661.68,-152.42 672.27,-151.96 663.7,-145.72 661.68,-152.42"/>
</a>
</g>
</g>
<!-- Node10 -->
<g id="Node000010" class="node">
<title>Node10</title>
<g id="a_Node000010"><a xlink:href="group__Dynarr__API.html#ga93c32dd116523090126d427cce08e114" target="_top" xlink:title=" ">
<polygon fill="white" stroke="#666666" points="605,-323 536,-323 536,-304 605,-304 605,-323"/>
<text text-anchor="middle" x="570.5" y="-311" font-family="Mononoki" font-size="10.00">dynarr_get</text>
</a>
</g>
</g>
<!-- Node1&#45;&gt;Node10 -->
<g id="edge20_Node000001_Node000010" class="edge">
<title>Node1&#45;&gt;Node10</title>
<g id="a_edge20_Node000001_Node000010"><a xlink:title=" ">
<path fill="none" stroke="#63b8ff" d="M74.5,-114.1C118.6,-146.1 267.5,-249.6 408,-294.5 446.58,-306.83 492.64,-311.31 525.68,-312.86"/>
<polygon fill="#63b8ff" stroke="#63b8ff" points="525.8,-316.37 535.93,-313.27 526.07,-309.37 525.8,-316.37"/>
</a>
</g>
</g>
<!-- Node11 -->
<g id="Node000011" class="node">
<title>Node11</title>
<g id="a_Node000011"><a xlink:href="group__Dynarr__API.html#ga99f1163f1932f71f0229a7340df68efb" target="_top" xlink:title=" ">
<polygon fill="white" stroke="#666666" points="372,-361 283,-361 283,-342 372,-342 372,-361"/>
<text text-anchor="middle" x="327.5" y="-349" font-family="Mononoki" font-size="10.00">dynarr_create_</text>
</a>
</g>
</g>
<!-- Node1&#45;&gt;Node11 -->
<g id="edge17_Node000001_Node000011" class="edge">
<title>Node1&#45;&gt;Node11</title>
<g id="a_edge17_Node000001_Node000011"><a xlink:title=" ">
<path fill="none" stroke="#63b8ff" d="M62.37,-114.09C66.1,-149.22 84.1,-271.69 157,-327.5 189.54,-352.41 236.2,-357.45 272.33,-356.8"/>
<polygon fill="#63b8ff" stroke="#63b8ff" points="272.82,-360.28 282.7,-356.45 272.59,-353.29 272.82,-360.28"/>
</a>
</g>
</g>
<!-- Node12 -->
<g id="Node000012" class="node">
<title>Node12</title>
<g id="a_Node000012"><a xlink:href="group__Dynarr__API.html#gaebbaac3879771d77aa20068a26952197" target="_top" xlink:title=" ">
<polygon fill="white" stroke="#666666" points="247,-19 157,-19 157,0 247,0 247,-19"/>
<text text-anchor="middle" x="202" y="-7" font-family="Mononoki" font-size="10.00">dynarr_destroy</text>
</a>
</g>
</g>
<!-- Node1&#45;&gt;Node12 -->
<g id="edge19_Node000001_Node000012" class="edge">
<title>Node1&#45;&gt;Node12</title>
<g id="a_edge19_Node000001_Node000012"><a xlink:title=" ">
<path fill="none" stroke="#63b8ff" d="M73.18,-94.98C90.81,-80.8 125.5,-53.66 157,-33.5 162.07,-30.25 167.61,-27.01 173.01,-24"/>
<polygon fill="#63b8ff" stroke="#63b8ff" points="174.71,-27.06 181.82,-19.21 171.36,-20.91 174.71,-27.06"/>
</a>
</g>
</g>
<!-- Node13 -->
<g id="Node000013" class="node">
<title>Node13</title>
<g id="a_Node000013"><a xlink:href="dynarr_8c.html#a498b4e9fc56a6e87a6c5ca525026a9ed" target="_top" xlink:title=" ">
<polygon fill="white" stroke="#666666" points="600,-20 541,-20 541,-1 600,-1 600,-20"/>
<text text-anchor="middle" x="570.5" y="-8" font-family="Mononoki" font-size="10.00">get_opts</text>
</a>
</g>
</g>
<!-- Node1&#45;&gt;Node13 -->
<g id="edge22_Node000001_Node000013" class="edge">
<title>Node1&#45;&gt;Node13</title>
<g id="a_edge22_Node000001_Node000013"><a xlink:title=" ">
<path fill="none" stroke="#63b8ff" d="M85.07,-94.98C104.18,-87.6 131.95,-77.62 157,-71.5 292.23,-38.44 457.04,-20.63 530.7,-13.81"/>
<polygon fill="#63b8ff" stroke="#63b8ff" points="531.25,-17.28 540.89,-12.88 530.62,-10.3 531.25,-17.28"/>
</a>
</g>
</g>
<!-- Node3 -->
<g id="Node000003" class="node">
<title>Node3</title>
<g id="a_Node000003"><a xlink:href="group__Dynarr__API.html#gab449a79e6b33f55af35329df4363336e" target="_top" xlink:title=" ">
<polygon fill="white" stroke="#666666" points="368,-209 287,-209 287,-190 368,-190 368,-209"/>
<text text-anchor="middle" x="327.5" y="-197" font-family="Mononoki" font-size="10.00">dynarr_insert</text>
</a>
</g>
</g>
<!-- Node2&#45;&gt;Node3 -->
<g id="edge2_Node000002_Node000003" class="edge">
<title>Node2&#45;&gt;Node3</title>
<g id="a_edge2_Node000002_Node000003"><a xlink:title=" ">
<path fill="none" stroke="#63b8ff" d="M218.64,-133.13C239.71,-146.09 277.4,-169.29 302.18,-184.54"/>
<polygon fill="#63b8ff" stroke="#63b8ff" points="300.63,-187.69 310.99,-189.95 304.3,-181.73 300.63,-187.69"/>
</a>
</g>
</g>
<!-- Node2&#45;&gt;Node5 -->
<g id="edge16_Node000002_Node000005" class="edge">
<title>Node2&#45;&gt;Node5</title>
<g id="a_edge16_Node000002_Node000005"><a xlink:title=" ">
<path fill="none" stroke="#63b8ff" d="M246.58,-126.81C340.76,-133.95 562.47,-150.76 658.42,-158.04"/>
<polygon fill="#63b8ff" stroke="#63b8ff" points="658.16,-161.53 668.39,-158.8 658.69,-154.55 658.16,-161.53"/>
</a>
</g>
</g>
<!-- Node4 -->
<g id="Node000004" class="node">
<title>Node4</title>
<g id="a_Node000004"><a xlink:href="group__Dynarr__API.html#ga30d508a9f387e2227dd0d72a8bfd2a39" target="_top" xlink:title=" ">
<polygon fill="white" stroke="#666666" points="488,-209 420,-209 420,-190 488,-190 488,-209"/>
<text text-anchor="middle" x="454" y="-197" font-family="Mononoki" font-size="10.00">dynarr_set</text>
</a>
</g>
</g>
<!-- Node3&#45;&gt;Node4 -->
<g id="edge3_Node000003_Node000004" class="edge">
<title>Node3&#45;&gt;Node4</title>
<g id="a_edge3_Node000003_Node000004"><a xlink:title=" ">
<path fill="none" stroke="#63b8ff" d="M368.23,-199.5C381.5,-199.5 396.35,-199.5 409.87,-199.5"/>
<polygon fill="#63b8ff" stroke="#63b8ff" points="409.9,-203 419.9,-199.5 409.9,-196 409.9,-203"/>
</a>
</g>
</g>
<!-- Node3&#45;&gt;Node5 -->
<g id="edge6_Node000003_Node000005" class="edge">
<title>Node3&#45;&gt;Node5</title>
<g id="a_edge6_Node000003_Node000005"><a xlink:title=" ">
<path fill="none" stroke="#63b8ff" d="M360.68,-209.01C375.03,-212.77 392.22,-216.64 408,-218.5 448.61,-223.29 459.49,-224.05 500,-218.5 560.62,-210.19 628.63,-188.6 668.8,-174.51"/>
<polygon fill="#63b8ff" stroke="#63b8ff" points="670.14,-177.74 678.39,-171.1 667.8,-171.15 670.14,-177.74"/>
</a>
</g>
</g>
<!-- Node7 -->
<g id="Node000007" class="node">
<title>Node7</title>
<g id="a_Node000007"><a xlink:href="group__Auto-resize.html#ga036b69c5b674d3ac22027b04ba235b42" target="_top" xlink:title=" ">
<polygon fill="white" stroke="#666666" points="591,-57 550,-57 550,-38 591,-38 591,-57"/>
<text text-anchor="middle" x="570.5" y="-45" font-family="Mononoki" font-size="10.00">grow</text>
</a>
</g>
</g>
<!-- Node3&#45;&gt;Node7 -->
<g id="edge7_Node000003_Node000007" class="edge">
<title>Node3&#45;&gt;Node7</title>
<g id="a_edge7_Node000003_Node000007"><a xlink:title=" ">
<path fill="none" stroke="#63b8ff" d="M343.58,-189.99C384.24,-164.35 496.4,-93.6 545.71,-62.5"/>
<polygon fill="#63b8ff" stroke="#63b8ff" points="547.84,-65.3 554.43,-57 544.1,-59.38 547.84,-65.3"/>
</a>
</g>
</g>
<!-- Node9 -->
<g id="Node000009" class="node">
<title>Node9</title>
<g id="a_Node000009"><a xlink:href="group__Auto-resize.html#gadb26f84b95f0ca45c7ccbd72e337485a" target="_top" xlink:title=" ">
<polygon fill="white" stroke="#666666" points="500,-285 408,-285 408,-266 500,-266 500,-285"/>
<text text-anchor="middle" x="454" y="-273" font-family="Mononoki" font-size="10.00">make_space_at</text>
</a>
</g>
</g>
<!-- Node3&#45;&gt;Node9 -->
<g id="edge11_Node000003_Node000009" class="edge">
<title>Node3&#45;&gt;Node9</title>
<g id="a_edge11_Node000003_Node000009"><a xlink:title=" ">
<path fill="none" stroke="#63b8ff" d="M342.33,-209.09C358.01,-219.83 384.44,-237.55 408,-251.5 413.37,-254.68 419.19,-257.93 424.81,-260.96"/>
<polygon fill="#63b8ff" stroke="#63b8ff" points="423.49,-264.22 433.96,-265.83 426.78,-258.04 423.49,-264.22"/>
</a>
</g>
</g>
<!-- Node4&#45;&gt;Node5 -->
<g id="edge4_Node000004_Node000005" class="edge">
<title>Node4&#45;&gt;Node5</title>
<g id="a_edge4_Node000004_Node000005"><a xlink:title=" ">
<path fill="none" stroke="#63b8ff" d="M488.07,-193.56C502.73,-190.98 520.21,-187.99 536,-185.5 577.28,-178.99 624.38,-172.32 658.19,-167.68"/>
<polygon fill="#63b8ff" stroke="#63b8ff" points="658.8,-171.13 668.23,-166.3 657.85,-164.19 658.8,-171.13"/>
</a>
</g>
</g>
<!-- Node6 -->
<g id="Node000006" class="node">
<title>Node6</title>
<g id="a_Node000006"><a xlink:href="dynarr_8c.html#a73f42f3f25cd0920d8039d63ea31be07" target="_top" xlink:title=" ">
<polygon fill="white" stroke="#666666" points="913,-133 805,-133 805,-114 913,-114 913,-133"/>
<text text-anchor="middle" x="859" y="-121" font-family="Mononoki" font-size="10.00">get_dynarr_header</text>
</a>
</g>
</g>
<!-- Node5&#45;&gt;Node6 -->
<g id="edge5_Node000005_Node000006" class="edge">
<title>Node5&#45;&gt;Node6</title>
<g id="a_edge5_Node000005_Node000006"><a xlink:title=" ">
<path fill="none" stroke="#63b8ff" d="M741.64,-152.59C762.03,-147.49 787.89,-141.03 810.04,-135.49"/>
<polygon fill="#63b8ff" stroke="#63b8ff" points="811.08,-138.84 819.93,-133.02 809.38,-132.05 811.08,-138.84"/>
</a>
</g>
</g>
<!-- Node7&#45;&gt;Node5 -->
<g id="edge9_Node000007_Node000005" class="edge">
<title>Node7&#45;&gt;Node5</title>
<g id="a_edge9_Node000007_Node000005"><a xlink:title=" ">
<path fill="none" stroke="#63b8ff" d="M588.12,-57.09C593.96,-61.03 600.25,-65.96 605,-71.5 628.04,-98.35 613.88,-119.78 641,-142.5 646.18,-146.84 652.32,-150.18 658.72,-152.77"/>
<polygon fill="#63b8ff" stroke="#63b8ff" points="657.58,-156.08 668.17,-156.03 659.86,-149.46 657.58,-156.08"/>
</a>
</g>
</g>
<!-- Node7&#45;&gt;Node6 -->
<g id="edge10_Node000007_Node000006" class="edge">
<title>Node7&#45;&gt;Node6</title>
<g id="a_edge10_Node000007_Node000006"><a xlink:title=" ">
<path fill="none" stroke="#63b8ff" d="M591.26,-52.96C605.16,-56.78 624.21,-62 641,-66.5 699.64,-82.22 767.31,-99.92 811.28,-111.37"/>
<polygon fill="#63b8ff" stroke="#63b8ff" points="810.55,-114.8 821.11,-113.93 812.31,-108.02 810.55,-114.8"/>
</a>
</g>
</g>
<!-- Node8 -->
<g id="Node000008" class="node">
<title>Node8</title>
<g id="a_Node000008"><a xlink:href="group__Dynarr__API.html#ga3ff11107726213a640d814b63cb123b2" target="_top" xlink:title=" ">
<polygon fill="white" stroke="#666666" points="752.5,-134 657.5,-134 657.5,-115 752.5,-115 752.5,-134"/>
<text text-anchor="middle" x="705" y="-122" font-family="Mononoki" font-size="10.00">dynarr_capacity</text>
</a>
</g>
</g>
<!-- Node7&#45;&gt;Node8 -->
<g id="edge8_Node000007_Node000008" class="edge">
<title>Node7&#45;&gt;Node8</title>
<g id="a_edge8_Node000007_Node000008"><a xlink:title=" ">
<path fill="none" stroke="#63b8ff" d="M585.32,-57.14C591.41,-61.45 598.62,-66.65 605,-71.5 621.36,-83.93 623.18,-90.27 641,-100.5 648.14,-104.6 656.12,-108.26 663.94,-111.41"/>
<polygon fill="#63b8ff" stroke="#63b8ff" points="662.73,-114.7 673.32,-115 665.23,-108.16 662.73,-114.7"/>
</a>
</g>
</g>
<!-- Node9&#45;&gt;Node5 -->
<g id="edge14_Node000009_Node000005" class="edge">
<title>Node9&#45;&gt;Node5</title>
<g id="a_edge14_Node000009_Node000005"><a xlink:title=" ">
<path fill="none" stroke="#63b8ff" d="M479.99,-265.98C510.01,-254.36 561.74,-233.75 605,-213.5 630.23,-201.69 658.29,-186.78 678.07,-175.95"/>
<polygon fill="#63b8ff" stroke="#63b8ff" points="680,-178.89 687.07,-171 676.62,-172.76 680,-178.89"/>
</a>
</g>
</g>
<!-- Node9&#45;&gt;Node6 -->
<g id="edge15_Node000009_Node000006" class="edge">
<title>Node9&#45;&gt;Node6</title>
<g id="a_edge15_Node000009_Node000006"><a xlink:title=" ">
<path fill="none" stroke="#63b8ff" d="M500.04,-266.93C530.04,-260.81 570.2,-251.87 605,-241.5 679.53,-219.3 699.42,-215.22 769,-180.5 793.19,-168.43 819.01,-151.38 836.58,-139.07"/>
<polygon fill="#63b8ff" stroke="#63b8ff" points="838.83,-141.76 844.96,-133.12 834.78,-136.06 838.83,-141.76"/>
</a>
</g>
</g>
<!-- Node9&#45;&gt;Node10 -->
<g id="edge12_Node000009_Node000010" class="edge">
<title>Node9&#45;&gt;Node10</title>
<g id="a_edge12_Node000009_Node000010"><a xlink:title=" ">
<path fill="none" stroke="#63b8ff" d="M483.89,-285.09C498.13,-289.81 515.5,-295.58 530.86,-300.68"/>
<polygon fill="#63b8ff" stroke="#63b8ff" points="530.02,-304.09 540.62,-303.91 532.23,-297.44 530.02,-304.09"/>
</a>
</g>
</g>
<!-- Node10&#45;&gt;Node5 -->
<g id="edge13_Node000010_Node000005" class="edge">
<title>Node10&#45;&gt;Node5</title>
<g id="a_edge13_Node000010_Node000005"><a xlink:title=" ">
<path fill="none" stroke="#63b8ff" d="M579.79,-303.99C601.63,-278.93 661.01,-210.82 689.01,-178.7"/>
<polygon fill="#63b8ff" stroke="#63b8ff" points="691.78,-180.84 695.71,-171 686.51,-176.24 691.78,-180.84"/>
</a>
</g>
</g>
<!-- Node11&#45;&gt;Node6 -->
<g id="edge18_Node000011_Node000006" class="edge">
<title>Node11&#45;&gt;Node6</title>
<g id="a_edge18_Node000011_Node000006"><a xlink:title=" ">
<path fill="none" stroke="#63b8ff" d="M372.07,-355.46C427.77,-358.97 526.41,-359.94 605,-332.5 714.7,-294.19 810.19,-184.27 844.48,-141.16"/>
<polygon fill="#63b8ff" stroke="#63b8ff" points="847.27,-143.27 850.68,-133.24 841.76,-138.95 847.27,-143.27"/>
</a>
</g>
</g>
<!-- Node13&#45;&gt;Node6 -->
<g id="edge25_Node000013_Node000006" class="edge">
<title>Node13&#45;&gt;Node6</title>
<g id="a_edge25_Node000013_Node000006"><a xlink:title=" ">
<path fill="none" stroke="#63b8ff" d="M600.32,-7.2C640.36,-3.91 714.06,-2.67 769,-29.5 803.81,-46.5 832.09,-83.23 846.86,-105.4"/>
<polygon fill="#63b8ff" stroke="#63b8ff" points="843.98,-107.4 852.34,-113.92 849.87,-103.62 843.98,-107.4"/>
</a>
</g>
</g>
<!-- Node14 -->
<g id="Node000014" class="node">
<title>Node14</title>
<g id="a_Node000014"><a xlink:href="group__Dynarr__API.html#ga745bff084f68eec950fa9ea0b42fb4e7" target="_top" xlink:title=" ">
<polygon fill="white" stroke="#666666" points="769,-58 641,-58 641,-39 769,-39 769,-58"/>
<text text-anchor="middle" x="705" y="-46" font-family="Mononoki" font-size="10.00">dynarr_initial_capacity</text>
</a>
</g>
</g>
<!-- Node13&#45;&gt;Node14 -->
<g id="edge23_Node000013_Node000014" class="edge">
<title>Node13&#45;&gt;Node14</title>
<g id="a_edge23_Node000013_Node000014"><a xlink:title=" ">
<path fill="none" stroke="#63b8ff" d="M600.25,-18.75C617.96,-23.82 641,-30.43 660.87,-36.13"/>
<polygon fill="#63b8ff" stroke="#63b8ff" points="660.05,-39.54 670.63,-38.93 661.98,-32.81 660.05,-39.54"/>
</a>
</g>
</g>
<!-- Node14&#45;&gt;Node6 -->
<g id="edge24_Node000014_Node000006" class="edge">
<title>Node14&#45;&gt;Node6</title>
<g id="a_edge24_Node000014_Node000006"><a xlink:title=" ">
<path fill="none" stroke="#63b8ff" d="M733.99,-58.1C745.06,-62.16 757.79,-67.19 769,-72.5 791.89,-83.34 816.81,-97.87 834.45,-108.65"/>
<polygon fill="#63b8ff" stroke="#63b8ff" points="832.61,-111.63 842.96,-113.91 836.29,-105.67 832.61,-111.63"/>
</a>
</g>
</g>
</g>
</svg>
