<?xml version="1.0" encoding="UTF-8" standalone="no"?>
<!DOCTYPE svg PUBLIC "-//W3C//DTD SVG 1.1//EN"
 "http://www.w3.org/Graphics/SVG/1.1/DTD/svg11.dtd">
<!-- Generated by graphviz version 2.43.0 (0)
 -->
<!-- Title: Properties Pages: 1 -->
<svg width="178pt" height="64pt"
 viewBox="0.00 0.00 178.00 64.00" xmlns="http://www.w3.org/2000/svg" xmlns:xlink="http://www.w3.org/1999/xlink">
<g id="graph0" class="graph" transform="scale(1 1) rotate(0) translate(4 60)">
<title>Properties</title>
<!-- Node3 -->
<g id="Node000003" class="node">
<title>Node3</title>
<g id="a_Node000003"><a xlink:href="group__Dynarr__API.html" target="_top" xlink:title="Main dynarr methods. Callbacks.">
<polygon fill="white" stroke="#666666" points="68,-56 0,-56 0,-37 68,-37 68,-56"/>
<text text-anchor="middle" x="34" y="-44" font-family="Mononoki" font-size="10.00">Dynarr API</text>
</a>
</g>
</g>
<!-- Node1 -->
<g id="Node000001" class="node">
<title>Node1</title>
<g id="a_Node000001"><a xlink:title="Access properties of a dynarr.">
<polygon fill="#999999" stroke="#666666" points="170,-37 104,-37 104,-18 170,-18 170,-37"/>
<text text-anchor="middle" x="137" y="-25" font-family="Mononoki" font-size="10.00">Properties</text>
</a>
</g>
</g>
<!-- Node3&#45;&gt;Node1 -->
<g id="edge2" class="edge">
<title>Node3&#45;&gt;Node1</title>
<path fill="none" stroke="black" d="M78.04,-38.4C86.71,-36.77 95.67,-35.09 103.89,-33.54"/>
<polygon fill="black" stroke="black" points="77.25,-34.99 68.07,-40.28 78.55,-41.87 77.25,-34.99"/>
</g>
<!-- Node2 -->
<g id="Node000002" class="node">
<title>Node2</title>
<g id="a_Node000002"><a target="_parent" xlink:href="https://evjeesm.github.io/vector/group__Vector__API.html" xlink:title=" ">
<polygon fill="white" stroke="#666666" points="67,-19 1,-19 1,0 67,0 67,-19"/>
<text text-anchor="middle" x="34" y="-7" font-family="Mononoki" font-size="10.00">Vector API</text>
</a>
</g>
</g>
<!-- Node2&#45;&gt;Node1 -->
<g id="edge1" class="edge">
<title>Node2&#45;&gt;Node1</title>
<path fill="none" stroke="black" d="M77.36,-17.05C86.18,-18.62 95.34,-20.25 103.73,-21.75"/>
<polygon fill="black" stroke="black" points="77.69,-13.55 67.23,-15.24 76.47,-20.45 77.69,-13.55"/>
</g>
</g>
</svg>
