<?xml version="1.0" encoding="UTF-8" standalone="no"?>
<!DOCTYPE svg PUBLIC "-//W3C//DTD SVG 1.1//EN"
 "http://www.w3.org/Graphics/SVG/1.1/DTD/svg11.dtd">
<!-- Generated by graphviz version 2.43.0 (0)
 -->
<!-- Title: free_space_at Pages: 1 -->
<svg width="664pt" height="140pt"
 viewBox="0.00 0.00 664.00 140.00" xmlns="http://www.w3.org/2000/svg" xmlns:xlink="http://www.w3.org/1999/xlink">
<g id="graph0" class="graph" transform="scale(1 1) rotate(0) translate(4 136)">
<title>free_space_at</title>
<!-- Node1 -->
<g id="Node000001" class="node">
<title>Node1</title>
<g id="a_Node000001"><a xlink:title=" ">
<polygon fill="#999999" stroke="#666666" points="85,-76 0,-76 0,-57 85,-57 85,-76"/>
<text text-anchor="middle" x="42.5" y="-64" font-family="Mononoki" font-size="10.00">free_space_at</text>
</a>
</g>
</g>
<!-- Node2 -->
<g id="Node000002" class="node">
<title>Node2</title>
<g id="a_Node000002"><a xlink:href="group__Elements.html#ga93c32dd116523090126d427cce08e114" target="_top" xlink:title="Returns pointer for the element at index.">
<polygon fill="white" stroke="#666666" points="214.5,-95 145.5,-95 145.5,-76 214.5,-76 214.5,-95"/>
<text text-anchor="middle" x="180" y="-83" font-family="Mononoki" font-size="10.00">dynarr_get</text>
</a>
</g>
</g>
<!-- Node1&#45;&gt;Node2 -->
<g id="edge1_Node000001_Node000002" class="edge">
<title>Node1&#45;&gt;Node2</title>
<g id="a_edge1_Node000001_Node000002"><a xlink:title=" ">
<path fill="none" stroke="#63b8ff" d="M85.26,-72.36C101.08,-74.57 119.13,-77.1 135.13,-79.35"/>
<polygon fill="#63b8ff" stroke="#63b8ff" points="134.93,-82.85 145.32,-80.78 135.9,-75.92 134.93,-82.85"/>
</a>
</g>
</g>
<!-- Node3 -->
<g id="Node000003" class="node">
<title>Node3</title>
<g id="a_Node000003"><a xlink:href="group__Properties.html#gaf5c43e2644d185b9b01065af34ed6e29" target="_top" xlink:title="Access size property of a dynarr.">
<polygon fill="white" stroke="#666666" points="348,-132 275,-132 275,-113 348,-113 348,-132"/>
<text text-anchor="middle" x="311.5" y="-120" font-family="Mononoki" font-size="10.00">dynarr_size</text>
</a>
</g>
</g>
<!-- Node1&#45;&gt;Node3 -->
<g id="edge6_Node000001_Node000003" class="edge">
<title>Node1&#45;&gt;Node3</title>
<g id="a_edge6_Node000001_Node000003"><a xlink:title=" ">
<path fill="none" stroke="#63b8ff" d="M58.86,-76.11C74.03,-85.1 98.21,-98.06 121,-104.5 168.67,-117.97 225.49,-121.83 264.4,-122.73"/>
<polygon fill="#63b8ff" stroke="#63b8ff" points="264.82,-126.23 274.88,-122.9 264.94,-119.23 264.82,-126.23"/>
</a>
</g>
</g>
<!-- Node4 -->
<g id="Node000004" class="node">
<title>Node4</title>
<g id="a_Node000004"><a xlink:href="dynarr_8c.html#a73f42f3f25cd0920d8039d63ea31be07" target="_top" xlink:title=" ">
<polygon fill="white" stroke="#666666" points="492,-94 384,-94 384,-75 492,-75 492,-94"/>
<text text-anchor="middle" x="438" y="-82" font-family="Mononoki" font-size="10.00">get_dynarr_header</text>
</a>
</g>
</g>
<!-- Node1&#45;&gt;Node4 -->
<g id="edge7_Node000001_Node000004" class="edge">
<title>Node1&#45;&gt;Node4</title>
<g id="a_edge7_Node000001_Node000004"><a xlink:title=" ">
<path fill="none" stroke="#63b8ff" d="M85.49,-64.19C144.33,-61.5 254.6,-58.5 348,-67.5 360.23,-68.68 373.29,-70.72 385.52,-72.99"/>
<polygon fill="#63b8ff" stroke="#63b8ff" points="385.09,-76.47 395.57,-74.94 386.42,-69.6 385.09,-76.47"/>
</a>
</g>
</g>
<!-- Node7 -->
<g id="Node000007" class="node">
<title>Node7</title>
<g id="a_Node000007"><a target="_parent" xlink:href="https://evjeesm.github.io/vector/group__Properties.html#gaae93d7f0c056c1d11d3232a7a7aa5e09" xlink:title=" ">
<polygon fill="white" stroke="#666666" points="239,-19 121,-19 121,0 239,0 239,-19"/>
<text text-anchor="middle" x="180" y="-7" font-family="Mononoki" font-size="10.00">vector_element_size</text>
</a>
</g>
</g>
<!-- Node1&#45;&gt;Node7 -->
<g id="edge8_Node000001_Node000007" class="edge">
<title>Node1&#45;&gt;Node7</title>
<g id="a_edge8_Node000001_Node000007"><a xlink:title=" ">
<path fill="none" stroke="#63b8ff" d="M65.86,-56.91C81.33,-50.29 102.39,-41.31 121,-33.5 129.23,-30.04 138.14,-26.34 146.44,-22.9"/>
<polygon fill="#63b8ff" stroke="#63b8ff" points="147.93,-26.08 155.83,-19.02 145.26,-19.61 147.93,-26.08"/>
</a>
</g>
</g>
<!-- Node2&#45;&gt;Node3 -->
<g id="edge2_Node000002_Node000003" class="edge">
<title>Node2&#45;&gt;Node3</title>
<g id="a_edge2_Node000002_Node000003"><a xlink:title=" ">
<path fill="none" stroke="#63b8ff" d="M214.35,-95.03C230.39,-99.61 249.82,-105.16 267,-110.07"/>
<polygon fill="#63b8ff" stroke="#63b8ff" points="266.24,-113.49 276.81,-112.88 268.16,-106.76 266.24,-113.49"/>
</a>
</g>
</g>
<!-- Node6 -->
<g id="Node000006" class="node">
<title>Node6</title>
<g id="a_Node000006"><a target="_parent" xlink:href="https://evjeesm.github.io/vector/group__Elements.html#ga9437d9506a3b2799f595c88b82f160b3" xlink:title=" ">
<polygon fill="white" stroke="#666666" points="345.5,-95 277.5,-95 277.5,-76 345.5,-76 345.5,-95"/>
<text text-anchor="middle" x="311.5" y="-83" font-family="Mononoki" font-size="10.00">vector_get</text>
</a>
</g>
</g>
<!-- Node2&#45;&gt;Node6 -->
<g id="edge5_Node000002_Node000006" class="edge">
<title>Node2&#45;&gt;Node6</title>
<g id="a_edge5_Node000002_Node000006"><a xlink:title=" ">
<path fill="none" stroke="#63b8ff" d="M214.69,-85.5C230.7,-85.5 250.03,-85.5 267.13,-85.5"/>
<polygon fill="#63b8ff" stroke="#63b8ff" points="267.43,-89 277.43,-85.5 267.43,-82 267.43,-89"/>
</a>
</g>
</g>
<!-- Node3&#45;&gt;Node4 -->
<g id="edge3_Node000003_Node000004" class="edge">
<title>Node3&#45;&gt;Node4</title>
<g id="a_edge3_Node000003_Node000004"><a xlink:title=" ">
<path fill="none" stroke="#63b8ff" d="M343.92,-112.91C359.69,-108.1 379.01,-102.2 395.94,-97.03"/>
<polygon fill="#63b8ff" stroke="#63b8ff" points="397.05,-100.35 405.59,-94.09 395.01,-93.66 397.05,-100.35"/>
</a>
</g>
</g>
<!-- Node5 -->
<g id="Node000005" class="node">
<title>Node5</title>
<g id="a_Node000005"><a target="_parent" xlink:href="https://evjeesm.github.io/vector/group__Extension.html#gafc2e34dbacffe6480af8681fbf46e808" xlink:title=" ">
<polygon fill="white" stroke="#666666" points="656,-94 528,-94 528,-75 656,-75 656,-94"/>
<text text-anchor="middle" x="592" y="-82" font-family="Mononoki" font-size="10.00">vector_get_ext_header</text>
</a>
</g>
</g>
<!-- Node4&#45;&gt;Node5 -->
<g id="edge4_Node000004_Node000005" class="edge">
<title>Node4&#45;&gt;Node5</title>
<g id="a_edge4_Node000004_Node000005"><a xlink:title=" ">
<path fill="none" stroke="#63b8ff" d="M492.16,-84.5C500.47,-84.5 509.18,-84.5 517.84,-84.5"/>
<polygon fill="#63b8ff" stroke="#63b8ff" points="517.95,-88 527.95,-84.5 517.95,-81 517.95,-88"/>
</a>
</g>
</g>
</g>
</svg>
