<?xml version="1.0" encoding="UTF-8" standalone="no"?>
<!DOCTYPE svg PUBLIC "-//W3C//DTD SVG 1.1//EN"
 "http://www.w3.org/Graphics/SVG/1.1/DTD/svg11.dtd">
<!-- Generated by graphviz version 2.43.0 (0)
 -->
<!-- Title: dynarr_insert Pages: 1 -->
<svg width="597pt" height="193pt"
 viewBox="0.00 0.00 597.00 193.39" xmlns="http://www.w3.org/2000/svg" xmlns:xlink="http://www.w3.org/1999/xlink">
<g id="graph0" class="graph" transform="scale(1 1) rotate(0) translate(4 189.39)">
<title>dynarr_insert</title>
<!-- Node1 -->
<g id="Node000001" class="node">
<title>Node1</title>
<g id="a_Node000001"><a xlink:title=" ">
<polygon fill="#999999" stroke="#666666" points="81,-128.39 0,-128.39 0,-109.39 81,-109.39 81,-128.39"/>
<text text-anchor="middle" x="40.5" y="-116.39" font-family="Mononoki" font-size="10.00">dynarr_insert</text>
</a>
</g>
</g>
<!-- Node2 -->
<g id="Node000002" class="node">
<title>Node2</title>
<g id="a_Node000002"><a xlink:href="group__Dynarr__API.html#ga30d508a9f387e2227dd0d72a8bfd2a39" target="_top" xlink:title=" ">
<polygon fill="white" stroke="#666666" points="197,-147.39 129,-147.39 129,-128.39 197,-128.39 197,-147.39"/>
<text text-anchor="middle" x="163" y="-135.39" font-family="Mononoki" font-size="10.00">dynarr_set</text>
</a>
</g>
</g>
<!-- Node1&#45;&gt;Node2 -->
<g id="edge1_Node000001_Node000002" class="edge">
<title>Node1&#45;&gt;Node2</title>
<g id="a_edge1_Node000001_Node000002"><a xlink:title=" ">
<path fill="none" stroke="#63b8ff" d="M81.29,-125.16C93.29,-127.05 106.51,-129.14 118.72,-131.06"/>
<polygon fill="#63b8ff" stroke="#63b8ff" points="118.27,-134.54 128.69,-132.64 119.36,-127.62 118.27,-134.54"/>
</a>
</g>
</g>
<!-- Node3 -->
<g id="Node000003" class="node">
<title>Node3</title>
<g id="a_Node000003"><a xlink:href="group__Dynarr__API.html#gaf5c43e2644d185b9b01065af34ed6e29" target="_top" xlink:title=" ">
<polygon fill="white" stroke="#666666" points="434,-109.39 361,-109.39 361,-90.39 434,-90.39 434,-109.39"/>
<text text-anchor="middle" x="397.5" y="-97.39" font-family="Mononoki" font-size="10.00">dynarr_size</text>
</a>
</g>
</g>
<!-- Node1&#45;&gt;Node3 -->
<g id="edge4_Node000001_Node000003" class="edge">
<title>Node1&#45;&gt;Node3</title>
<g id="a_edge4_Node000001_Node000003"><a xlink:title=" ">
<path fill="none" stroke="#63b8ff" d="M81.19,-116.76C147.45,-113.22 280.23,-106.11 350.47,-102.35"/>
<polygon fill="#63b8ff" stroke="#63b8ff" points="350.98,-105.83 360.78,-101.8 350.61,-98.84 350.98,-105.83"/>
</a>
</g>
</g>
<!-- Node5 -->
<g id="Node000005" class="node">
<title>Node5</title>
<g id="a_Node000005"><a xlink:href="group__Auto-resize.html#ga036b69c5b674d3ac22027b04ba235b42" target="_top" xlink:title=" ">
<polygon fill="white" stroke="#666666" points="300,-185.39 259,-185.39 259,-166.39 300,-166.39 300,-185.39"/>
<text text-anchor="middle" x="279.5" y="-173.39" font-family="Mononoki" font-size="10.00">grow</text>
</a>
</g>
</g>
<!-- Node1&#45;&gt;Node5 -->
<g id="edge5_Node000001_Node000005" class="edge">
<title>Node1&#45;&gt;Node5</title>
<g id="a_edge5_Node000001_Node000005"><a xlink:title=" ">
<path fill="none" stroke="#63b8ff" d="M56.46,-128.4C71.24,-137.31 94.79,-150.22 117,-156.89 161.58,-170.27 215.72,-174.3 248.62,-175.47"/>
<polygon fill="#63b8ff" stroke="#63b8ff" points="248.82,-178.97 258.92,-175.76 249.02,-171.98 248.82,-178.97"/>
</a>
</g>
</g>
<!-- Node7 -->
<g id="Node000007" class="node">
<title>Node7</title>
<g id="a_Node000007"><a xlink:href="group__Auto-resize.html#gadb26f84b95f0ca45c7ccbd72e337485a" target="_top" xlink:title=" ">
<polygon fill="white" stroke="#666666" points="209,-52.39 117,-52.39 117,-33.39 209,-33.39 209,-52.39"/>
<text text-anchor="middle" x="163" y="-40.39" font-family="Mononoki" font-size="10.00">make_space_at</text>
</a>
</g>
</g>
<!-- Node1&#45;&gt;Node7 -->
<g id="edge9_Node000001_Node000007" class="edge">
<title>Node1&#45;&gt;Node7</title>
<g id="a_edge9_Node000001_Node000007"><a xlink:title=" ">
<path fill="none" stroke="#63b8ff" d="M56.76,-109.26C77.31,-96.3 114.1,-73.1 138.27,-57.85"/>
<polygon fill="#63b8ff" stroke="#63b8ff" points="140.27,-60.73 146.86,-52.44 136.54,-54.81 140.27,-60.73"/>
</a>
</g>
</g>
<!-- Node2&#45;&gt;Node3 -->
<g id="edge2_Node000002_Node000003" class="edge">
<title>Node2&#45;&gt;Node3</title>
<g id="a_edge2_Node000002_Node000003"><a xlink:title=" ">
<path fill="none" stroke="#63b8ff" d="M197.08,-132.69C227.49,-127.88 273.8,-120.52 314,-113.89 325.86,-111.93 338.68,-109.78 350.59,-107.76"/>
<polygon fill="#63b8ff" stroke="#63b8ff" points="351.51,-111.15 360.78,-106.03 350.33,-104.25 351.51,-111.15"/>
</a>
</g>
</g>
<!-- Node4 -->
<g id="Node000004" class="node">
<title>Node4</title>
<g id="a_Node000004"><a xlink:href="dynarr_8c.html#a73f42f3f25cd0920d8039d63ea31be07" target="_top" xlink:title=" ">
<polygon fill="white" stroke="#666666" points="589,-109.39 481,-109.39 481,-90.39 589,-90.39 589,-109.39"/>
<text text-anchor="middle" x="535" y="-97.39" font-family="Mononoki" font-size="10.00">get_dynarr_header</text>
</a>
</g>
</g>
<!-- Node3&#45;&gt;Node4 -->
<g id="edge3_Node000003_Node000004" class="edge">
<title>Node3&#45;&gt;Node4</title>
<g id="a_edge3_Node000003_Node000004"><a xlink:title=" ">
<path fill="none" stroke="#63b8ff" d="M434.1,-99.89C445.36,-99.89 458.16,-99.89 470.76,-99.89"/>
<polygon fill="#63b8ff" stroke="#63b8ff" points="470.78,-103.39 480.78,-99.89 470.78,-96.39 470.78,-103.39"/>
</a>
</g>
</g>
<!-- Node5&#45;&gt;Node3 -->
<g id="edge7_Node000005_Node000003" class="edge">
<title>Node5&#45;&gt;Node3</title>
<g id="a_edge7_Node000005_Node000003"><a xlink:title=" ">
<path fill="none" stroke="#63b8ff" d="M294.76,-166.17C300.8,-161.92 307.85,-156.8 314,-151.89 330.72,-138.52 331.94,-131.38 350,-119.89 353.41,-117.72 357.09,-115.69 360.84,-113.81"/>
<polygon fill="#63b8ff" stroke="#63b8ff" points="362.57,-116.86 370.17,-109.48 359.63,-110.51 362.57,-116.86"/>
</a>
</g>
</g>
<!-- Node5&#45;&gt;Node4 -->
<g id="edge8_Node000005_Node000004" class="edge">
<title>Node5&#45;&gt;Node4</title>
<g id="a_edge8_Node000005_Node000004"><a xlink:title=" ">
<path fill="none" stroke="#63b8ff" d="M300.14,-176.44C331.65,-176.7 395.04,-174.69 445,-156.89 471.2,-147.55 497.57,-129.29 514.73,-115.94"/>
<polygon fill="#63b8ff" stroke="#63b8ff" points="517.19,-118.46 522.82,-109.48 512.82,-112.99 517.19,-118.46"/>
</a>
</g>
</g>
<!-- Node6 -->
<g id="Node000006" class="node">
<title>Node6</title>
<g id="a_Node000006"><a xlink:href="group__Dynarr__API.html#ga3ff11107726213a640d814b63cb123b2" target="_top" xlink:title=" ">
<polygon fill="white" stroke="#666666" points="445,-147.39 350,-147.39 350,-128.39 445,-128.39 445,-147.39"/>
<text text-anchor="middle" x="397.5" y="-135.39" font-family="Mononoki" font-size="10.00">dynarr_capacity</text>
</a>
</g>
</g>
<!-- Node5&#45;&gt;Node6 -->
<g id="edge6_Node000005_Node000006" class="edge">
<title>Node5&#45;&gt;Node6</title>
<g id="a_edge6_Node000005_Node000006"><a xlink:title=" ">
<path fill="none" stroke="#63b8ff" d="M300.18,-169.44C315.81,-164.32 338.17,-157 357.41,-150.69"/>
<polygon fill="#63b8ff" stroke="#63b8ff" points="358.72,-153.95 367.13,-147.51 356.54,-147.3 358.72,-153.95"/>
</a>
</g>
</g>
<!-- Node7&#45;&gt;Node3 -->
<g id="edge12_Node000007_Node000003" class="edge">
<title>Node7&#45;&gt;Node3</title>
<g id="a_edge12_Node000007_Node000003"><a xlink:title=" ">
<path fill="none" stroke="#63b8ff" d="M202.92,-52.43C243.73,-62.43 307.81,-78.14 350.95,-88.72"/>
<polygon fill="#63b8ff" stroke="#63b8ff" points="350.35,-92.18 360.89,-91.16 352.02,-85.38 350.35,-92.18"/>
</a>
</g>
</g>
<!-- Node7&#45;&gt;Node4 -->
<g id="edge13_Node000007_Node000004" class="edge">
<title>Node7&#45;&gt;Node4</title>
<g id="a_edge13_Node000007_Node000004"><a xlink:title=" ">
<path fill="none" stroke="#63b8ff" d="M179.1,-33.32C194.85,-23.96 220.59,-10.33 245,-4.89 274.93,1.78 283.97,1.32 314,-4.89 389.06,-20.4 470.02,-62.79 509.52,-85.33"/>
<polygon fill="#63b8ff" stroke="#63b8ff" points="507.79,-88.37 518.2,-90.35 511.29,-82.31 507.79,-88.37"/>
</a>
</g>
</g>
<!-- Node8 -->
<g id="Node000008" class="node">
<title>Node8</title>
<g id="a_Node000008"><a xlink:href="group__Dynarr__API.html#ga93c32dd116523090126d427cce08e114" target="_top" xlink:title=" ">
<polygon fill="white" stroke="#666666" points="314,-33.39 245,-33.39 245,-14.39 314,-14.39 314,-33.39"/>
<text text-anchor="middle" x="279.5" y="-21.39" font-family="Mononoki" font-size="10.00">dynarr_get</text>
</a>
</g>
</g>
<!-- Node7&#45;&gt;Node8 -->
<g id="edge10_Node000007_Node000008" class="edge">
<title>Node7&#45;&gt;Node8</title>
<g id="a_edge10_Node000007_Node000008"><a xlink:title=" ">
<path fill="none" stroke="#63b8ff" d="M209.25,-35.38C217.7,-33.98 226.51,-32.52 234.9,-31.12"/>
<polygon fill="#63b8ff" stroke="#63b8ff" points="235.58,-34.56 244.88,-29.47 234.44,-27.65 235.58,-34.56"/>
</a>
</g>
</g>
<!-- Node8&#45;&gt;Node3 -->
<g id="edge11_Node000008_Node000003" class="edge">
<title>Node8&#45;&gt;Node3</title>
<g id="a_edge11_Node000008_Node000003"><a xlink:title=" ">
<path fill="none" stroke="#63b8ff" d="M295.19,-33.51C314.89,-46.42 350.07,-69.47 373.35,-84.72"/>
<polygon fill="#63b8ff" stroke="#63b8ff" points="371.65,-87.79 381.93,-90.34 375.48,-81.93 371.65,-87.79"/>
</a>
</g>
</g>
</g>
</svg>
