<?xml version="1.0" encoding="UTF-8" standalone="no"?>
<!DOCTYPE svg PUBLIC "-//W3C//DTD SVG 1.1//EN"
 "http://www.w3.org/Graphics/SVG/1.1/DTD/svg11.dtd">
<!-- Generated by graphviz version 2.43.0 (0)
 -->
<!-- Title: Dynarr API Pages: 1 -->
<svg width="178pt" height="175pt"
 viewBox="0.00 0.00 178.00 175.00" xmlns="http://www.w3.org/2000/svg" xmlns:xlink="http://www.w3.org/1999/xlink">
<g id="graph0" class="graph" transform="scale(1 1) rotate(0) translate(4 171)">
<title>Dynarr API</title>
<!-- Node1 -->
<g id="Node000001" class="node">
<title>Node1</title>
<g id="a_Node000001"><a xlink:title="Main dynarr methods. Callbacks.">
<polygon fill="#999999" stroke="#666666" points="68,-93 0,-93 0,-74 68,-74 68,-93"/>
<text text-anchor="middle" x="34" y="-81" font-family="Mononoki" font-size="10.00">Dynarr API</text>
</a>
</g>
</g>
<!-- Node6 -->
<g id="Node000006" class="node">
<title>Node6</title>
<g id="a_Node000006"><a xlink:href="group__Elements.html" target="_top" xlink:title="Access and manipulate elements of a dynarr.">
<polygon fill="white" stroke="#666666" points="168,-167 106,-167 106,-148 168,-148 168,-167"/>
<text text-anchor="middle" x="137" y="-155" font-family="Mononoki" font-size="10.00">Elements</text>
</a>
</g>
</g>
<!-- Node1&#45;&gt;Node6 -->
<g id="edge5" class="edge">
<title>Node1&#45;&gt;Node6</title>
<path fill="none" stroke="black" d="M53.43,-99.9C66.96,-111.57 86.04,-127.29 104,-139.5 108.32,-142.44 113.16,-145.34 117.74,-147.93"/>
<polygon fill="black" stroke="black" points="55.62,-97.16 45.79,-93.22 51.02,-102.43 55.62,-97.16"/>
</g>
<!-- Node3 -->
<g id="Node000003" class="node">
<title>Node3</title>
<g id="a_Node000003"><a xlink:href="group__Extension.html" target="_top" xlink:title="Support for derived classes.">
<polygon fill="white" stroke="#666666" points="169.5,-130 104.5,-130 104.5,-111 169.5,-111 169.5,-130"/>
<text text-anchor="middle" x="137" y="-118" font-family="Mononoki" font-size="10.00">Extension</text>
</a>
</g>
</g>
<!-- Node1&#45;&gt;Node3 -->
<g id="edge2" class="edge">
<title>Node1&#45;&gt;Node3</title>
<path fill="none" stroke="black" d="M70.53,-96.52C83.43,-101.24 97.77,-106.49 109.73,-110.88"/>
<polygon fill="black" stroke="black" points="71.6,-93.18 61.01,-93.03 69.2,-99.75 71.6,-93.18"/>
</g>
<!-- Node2 -->
<g id="Node000002" class="node">
<title>Node2</title>
<g id="a_Node000002"><a xlink:href="group__Lifetime.html" target="_top" xlink:title="Main dynarr methods.">
<polygon fill="white" stroke="#666666" points="165.5,-93 108.5,-93 108.5,-74 165.5,-74 165.5,-93"/>
<text text-anchor="middle" x="137" y="-81" font-family="Mononoki" font-size="10.00">Lifetime</text>
</a>
</g>
</g>
<!-- Node1&#45;&gt;Node2 -->
<g id="edge1" class="edge">
<title>Node1&#45;&gt;Node2</title>
<path fill="none" stroke="black" d="M78.09,-83.5C88.31,-83.5 98.94,-83.5 108.26,-83.5"/>
<polygon fill="black" stroke="black" points="78.07,-80 68.07,-83.5 78.07,-87 78.07,-80"/>
</g>
<!-- Node4 -->
<g id="Node000004" class="node">
<title>Node4</title>
<g id="a_Node000004"><a xlink:href="group__Properties.html" target="_top" xlink:title="Access properties of a dynarr.">
<polygon fill="white" stroke="#666666" points="170,-56 104,-56 104,-37 170,-37 170,-56"/>
<text text-anchor="middle" x="137" y="-44" font-family="Mononoki" font-size="10.00">Properties</text>
</a>
</g>
</g>
<!-- Node1&#45;&gt;Node4 -->
<g id="edge3" class="edge">
<title>Node1&#45;&gt;Node4</title>
<path fill="none" stroke="black" d="M70.53,-70.48C83.43,-65.76 97.77,-60.51 109.73,-56.12"/>
<polygon fill="black" stroke="black" points="69.2,-67.25 61.01,-73.97 71.6,-73.82 69.2,-67.25"/>
</g>
<!-- Node5 -->
<g id="Node000005" class="node">
<title>Node5</title>
<g id="a_Node000005"><a xlink:href="group__Searches.html" target="_top" xlink:title="Methods for querying the dynarr.">
<polygon fill="white" stroke="#666666" points="167.5,-19 106.5,-19 106.5,0 167.5,0 167.5,-19"/>
<text text-anchor="middle" x="137" y="-7" font-family="Mononoki" font-size="10.00">Searches</text>
</a>
</g>
</g>
<!-- Node1&#45;&gt;Node5 -->
<g id="edge4" class="edge">
<title>Node1&#45;&gt;Node5</title>
<path fill="none" stroke="black" d="M54.05,-67.15C67.61,-55.8 86.46,-40.61 104,-28.5 108.68,-25.27 113.92,-22.01 118.79,-19.13"/>
<polygon fill="black" stroke="black" points="51.73,-64.53 46.35,-73.66 56.24,-69.87 51.73,-64.53"/>
</g>
</g>
</svg>
