<?xml version="1.0" encoding="UTF-8" standalone="no"?>
<!DOCTYPE svg PUBLIC "-//W3C//DTD SVG 1.1//EN"
 "http://www.w3.org/Graphics/SVG/1.1/DTD/svg11.dtd">
<!-- Generated by graphviz version 2.43.0 (0)
 -->
<!-- Title: dynarr_binary_find_insert_place Pages: 1 -->
<svg width="777pt" height="91pt"
 viewBox="0.00 0.00 777.00 90.50" xmlns="http://www.w3.org/2000/svg" xmlns:xlink="http://www.w3.org/1999/xlink">
<g id="graph0" class="graph" transform="scale(1 1) rotate(0) translate(4 86.5)">
<title>dynarr_binary_find_insert_place</title>
<!-- Node1 -->
<g id="Node000001" class="node">
<title>Node1</title>
<g id="a_Node000001"><a xlink:title="Binary search for binary insert support.">
<polygon fill="#999999" stroke="#666666" points="107,-42.5 0,-42.5 0,-12.5 107,-12.5 107,-42.5"/>
<text text-anchor="start" x="8" y="-30.5" font-family="Mononoki" font-size="10.00">dynarr_binary_find</text>
<text text-anchor="middle" x="53.5" y="-19.5" font-family="Mononoki" font-size="10.00">_insert_place</text>
</a>
</g>
</g>
<!-- Node2 -->
<g id="Node000002" class="node">
<title>Node2</title>
<g id="a_Node000002"><a xlink:href="dynarr_8c.html#a187b18732062f4f69486553f37697739" target="_top" xlink:title=" ">
<polygon fill="white" stroke="#666666" points="247,-64.5 143,-64.5 143,-34.5 247,-34.5 247,-64.5"/>
<text text-anchor="start" x="151" y="-52.5" font-family="Mononoki" font-size="10.00">binary_find_insert</text>
<text text-anchor="middle" x="195" y="-41.5" font-family="Mononoki" font-size="10.00">_place</text>
</a>
</g>
</g>
<!-- Node1&#45;&gt;Node2 -->
<g id="edge1_Node000001_Node000002" class="edge">
<title>Node1&#45;&gt;Node2</title>
<g id="a_edge1_Node000001_Node000002"><a xlink:title=" ">
<path fill="none" stroke="#63b8ff" d="M107.24,-35.82C115.47,-37.11 124.03,-38.47 132.43,-39.79"/>
<polygon fill="#63b8ff" stroke="#63b8ff" points="132.15,-43.29 142.57,-41.39 133.24,-36.37 132.15,-43.29"/>
</a>
</g>
</g>
<!-- Node4 -->
<g id="Node000004" class="node">
<title>Node4</title>
<g id="a_Node000004"><a xlink:href="group__Properties.html#gaf5c43e2644d185b9b01065af34ed6e29" target="_top" xlink:title="Access size property of a dynarr.">
<polygon fill="white" stroke="#666666" points="461,-19 388,-19 388,0 461,0 461,-19"/>
<text text-anchor="middle" x="424.5" y="-7" font-family="Mononoki" font-size="10.00">dynarr_size</text>
</a>
</g>
</g>
<!-- Node1&#45;&gt;Node4 -->
<g id="edge8_Node000001_Node000004" class="edge">
<title>Node1&#45;&gt;Node4</title>
<g id="a_edge8_Node000001_Node000004"><a xlink:title=" ">
<path fill="none" stroke="#63b8ff" d="M107.37,-24.92C179.97,-21.38 309.3,-15.07 377.88,-11.73"/>
<polygon fill="#63b8ff" stroke="#63b8ff" points="378.13,-15.22 387.94,-11.23 377.78,-8.23 378.13,-15.22"/>
</a>
</g>
</g>
<!-- Node2&#45;&gt;Node2 -->
<g id="edge2_Node000002_Node000002" class="edge">
<title>Node2&#45;&gt;Node2</title>
<g id="a_edge2_Node000002_Node000002"><a xlink:title=" ">
<path fill="none" stroke="#63b8ff" d="M173.55,-64.78C168.79,-73.91 175.94,-82.5 195,-82.5 206.32,-82.5 213.44,-79.47 216.35,-75.1"/>
<polygon fill="#63b8ff" stroke="#63b8ff" points="219.86,-74.81 216.45,-64.78 212.86,-74.74 219.86,-74.81"/>
</a>
</g>
</g>
<!-- Node3 -->
<g id="Node000003" class="node">
<title>Node3</title>
<g id="a_Node000003"><a xlink:href="group__Elements.html#ga93c32dd116523090126d427cce08e114" target="_top" xlink:title="Returns pointer for the element at index.">
<polygon fill="white" stroke="#666666" points="352,-56 283,-56 283,-37 352,-37 352,-56"/>
<text text-anchor="middle" x="317.5" y="-44" font-family="Mononoki" font-size="10.00">dynarr_get</text>
</a>
</g>
</g>
<!-- Node2&#45;&gt;Node3 -->
<g id="edge3_Node000002_Node000003" class="edge">
<title>Node2&#45;&gt;Node3</title>
<g id="a_edge3_Node000002_Node000003"><a xlink:title=" ">
<path fill="none" stroke="#63b8ff" d="M247.1,-48.23C255.58,-48.02 264.31,-47.8 272.59,-47.59"/>
<polygon fill="#63b8ff" stroke="#63b8ff" points="272.88,-51.09 282.79,-47.34 272.7,-44.09 272.88,-51.09"/>
</a>
</g>
</g>
<!-- Node3&#45;&gt;Node4 -->
<g id="edge4_Node000003_Node000004" class="edge">
<title>Node3&#45;&gt;Node4</title>
<g id="a_edge4_Node000003_Node000004"><a xlink:title=" ">
<path fill="none" stroke="#63b8ff" d="M345.54,-36.97C358.06,-32.56 373.12,-27.25 386.66,-22.48"/>
<polygon fill="#63b8ff" stroke="#63b8ff" points="387.92,-25.75 396.19,-19.12 385.59,-19.15 387.92,-25.75"/>
</a>
</g>
</g>
<!-- Node7 -->
<g id="Node000007" class="node">
<title>Node7</title>
<g id="a_Node000007"><a target="_parent" xlink:href="https://evjeesm.github.io/vector/group__Vector__API.html#ga9437d9506a3b2799f595c88b82f160b3" xlink:title=" ">
<polygon fill="white" stroke="#666666" points="458.5,-56 390.5,-56 390.5,-37 458.5,-37 458.5,-56"/>
<text text-anchor="middle" x="424.5" y="-44" font-family="Mononoki" font-size="10.00">vector_get</text>
</a>
</g>
</g>
<!-- Node3&#45;&gt;Node7 -->
<g id="edge7_Node000003_Node000007" class="edge">
<title>Node3&#45;&gt;Node7</title>
<g id="a_edge7_Node000003_Node000007"><a xlink:title=" ">
<path fill="none" stroke="#63b8ff" d="M352.01,-46.5C361,-46.5 370.85,-46.5 380.29,-46.5"/>
<polygon fill="#63b8ff" stroke="#63b8ff" points="380.31,-50 390.31,-46.5 380.31,-43 380.31,-50"/>
</a>
</g>
</g>
<!-- Node5 -->
<g id="Node000005" class="node">
<title>Node5</title>
<g id="a_Node000005"><a xlink:href="dynarr_8c.html#a73f42f3f25cd0920d8039d63ea31be07" target="_top" xlink:title=" ">
<polygon fill="white" stroke="#666666" points="605,-19 497,-19 497,0 605,0 605,-19"/>
<text text-anchor="middle" x="551" y="-7" font-family="Mononoki" font-size="10.00">get_dynarr_header</text>
</a>
</g>
</g>
<!-- Node4&#45;&gt;Node5 -->
<g id="edge5_Node000004_Node000005" class="edge">
<title>Node4&#45;&gt;Node5</title>
<g id="a_edge5_Node000004_Node000005"><a xlink:title=" ">
<path fill="none" stroke="#63b8ff" d="M461.18,-9.5C469.13,-9.5 477.8,-9.5 486.49,-9.5"/>
<polygon fill="#63b8ff" stroke="#63b8ff" points="486.68,-13 496.68,-9.5 486.68,-6 486.68,-13"/>
</a>
</g>
</g>
<!-- Node6 -->
<g id="Node000006" class="node">
<title>Node6</title>
<g id="a_Node000006"><a target="_parent" xlink:href="https://evjeesm.github.io/vector/group__Vector__API.html#gafc2e34dbacffe6480af8681fbf46e808" xlink:title=" ">
<polygon fill="white" stroke="#666666" points="769,-19 641,-19 641,0 769,0 769,-19"/>
<text text-anchor="middle" x="705" y="-7" font-family="Mononoki" font-size="10.00">vector_get_ext_header</text>
</a>
</g>
</g>
<!-- Node5&#45;&gt;Node6 -->
<g id="edge6_Node000005_Node000006" class="edge">
<title>Node5&#45;&gt;Node6</title>
<g id="a_edge6_Node000005_Node000006"><a xlink:title=" ">
<path fill="none" stroke="#63b8ff" d="M605.16,-9.5C613.47,-9.5 622.18,-9.5 630.84,-9.5"/>
<polygon fill="#63b8ff" stroke="#63b8ff" points="630.95,-13 640.95,-9.5 630.95,-6 630.95,-13"/>
</a>
</g>
</g>
</g>
</svg>
