<?xml version="1.0" encoding="UTF-8" standalone="no"?>
<!DOCTYPE svg PUBLIC "-//W3C//DTD SVG 1.1//EN"
 "http://www.w3.org/Graphics/SVG/1.1/DTD/svg11.dtd">
<!-- Generated by graphviz version 2.43.0 (0)
 -->
<!-- Title: free_space_at Pages: 1 -->
<svg width="451pt" height="84pt"
 viewBox="0.00 0.00 451.00 84.00" xmlns="http://www.w3.org/2000/svg" xmlns:xlink="http://www.w3.org/1999/xlink">
<g id="graph0" class="graph" transform="scale(1 1) rotate(0) translate(4 80)">
<title>free_space_at</title>
<!-- Node1 -->
<g id="Node000001" class="node">
<title>Node1</title>
<g id="a_Node000001"><a xlink:title=" ">
<polygon fill="#999999" stroke="#666666" points="85,-38 0,-38 0,-19 85,-19 85,-38"/>
<text text-anchor="middle" x="42.5" y="-26" font-family="Mononoki" font-size="10.00">free_space_at</text>
</a>
</g>
</g>
<!-- Node2 -->
<g id="Node000002" class="node">
<title>Node2</title>
<g id="a_Node000002"><a xlink:href="group__Dynarr__API.html#ga93c32dd116523090126d427cce08e114" target="_top" xlink:title=" ">
<polygon fill="white" stroke="#666666" points="190,-76 121,-76 121,-57 190,-57 190,-76"/>
<text text-anchor="middle" x="155.5" y="-64" font-family="Mononoki" font-size="10.00">dynarr_get</text>
</a>
</g>
</g>
<!-- Node1&#45;&gt;Node2 -->
<g id="edge1_Node000001_Node000002" class="edge">
<title>Node1&#45;&gt;Node2</title>
<g id="a_edge1_Node000001_Node000002"><a xlink:title=" ">
<path fill="none" stroke="#63b8ff" d="M71.51,-38.09C85.18,-42.77 101.83,-48.47 116.62,-53.53"/>
<polygon fill="#63b8ff" stroke="#63b8ff" points="115.9,-56.99 126.5,-56.91 118.17,-50.36 115.9,-56.99"/>
</a>
</g>
</g>
<!-- Node3 -->
<g id="Node000003" class="node">
<title>Node3</title>
<g id="a_Node000003"><a xlink:href="group__Dynarr__API.html#gaf5c43e2644d185b9b01065af34ed6e29" target="_top" xlink:title=" ">
<polygon fill="white" stroke="#666666" points="299,-38 226,-38 226,-19 299,-19 299,-38"/>
<text text-anchor="middle" x="262.5" y="-26" font-family="Mononoki" font-size="10.00">dynarr_size</text>
</a>
</g>
</g>
<!-- Node1&#45;&gt;Node3 -->
<g id="edge4_Node000001_Node000003" class="edge">
<title>Node1&#45;&gt;Node3</title>
<g id="a_edge4_Node000001_Node000003"><a xlink:title=" ">
<path fill="none" stroke="#63b8ff" d="M85.02,-28.5C122.28,-28.5 176.89,-28.5 215.48,-28.5"/>
<polygon fill="#63b8ff" stroke="#63b8ff" points="215.91,-32 225.91,-28.5 215.91,-25 215.91,-32"/>
</a>
</g>
</g>
<!-- Node4 -->
<g id="Node000004" class="node">
<title>Node4</title>
<g id="a_Node000004"><a xlink:href="dynarr_8c.html#a73f42f3f25cd0920d8039d63ea31be07" target="_top" xlink:title=" ">
<polygon fill="white" stroke="#666666" points="443,-19 335,-19 335,0 443,0 443,-19"/>
<text text-anchor="middle" x="389" y="-7" font-family="Mononoki" font-size="10.00">get_dynarr_header</text>
</a>
</g>
</g>
<!-- Node1&#45;&gt;Node4 -->
<g id="edge5_Node000001_Node000004" class="edge">
<title>Node1&#45;&gt;Node4</title>
<g id="a_edge5_Node000001_Node000004"><a xlink:title=" ">
<path fill="none" stroke="#63b8ff" d="M85.1,-23.3C122.03,-18.94 177.51,-13.04 226,-10.5 258.41,-8.81 294.52,-8.44 324.41,-8.54"/>
<polygon fill="#63b8ff" stroke="#63b8ff" points="324.68,-12.04 334.7,-8.6 324.72,-5.04 324.68,-12.04"/>
</a>
</g>
</g>
<!-- Node2&#45;&gt;Node3 -->
<g id="edge2_Node000002_Node000003" class="edge">
<title>Node2&#45;&gt;Node3</title>
<g id="a_edge2_Node000002_Node000003"><a xlink:title=" ">
<path fill="none" stroke="#63b8ff" d="M183,-56.91C195.8,-52.28 211.38,-46.64 225.26,-41.61"/>
<polygon fill="#63b8ff" stroke="#63b8ff" points="226.8,-44.78 235.01,-38.09 224.42,-38.2 226.8,-44.78"/>
</a>
</g>
</g>
<!-- Node3&#45;&gt;Node4 -->
<g id="edge3_Node000003_Node000004" class="edge">
<title>Node3&#45;&gt;Node4</title>
<g id="a_edge3_Node000003_Node000004"><a xlink:title=" ">
<path fill="none" stroke="#63b8ff" d="M299.18,-23.06C307.22,-21.83 315.98,-20.49 324.78,-19.15"/>
<polygon fill="#63b8ff" stroke="#63b8ff" points="325.32,-22.61 334.68,-17.64 324.27,-15.69 325.32,-22.61"/>
</a>
</g>
</g>
</g>
</svg>
