<?xml version="1.0" encoding="UTF-8" standalone="no"?>
<!DOCTYPE svg PUBLIC "-//W3C//DTD SVG 1.1//EN"
 "http://www.w3.org/Graphics/SVG/1.1/DTD/svg11.dtd">
<!-- Generated by graphviz version 2.43.0 (0)
 -->
<!-- Title: dynarr_binary_insert_uniq Pages: 1 -->
<svg width="1180pt" height="416pt"
 viewBox="0.00 0.00 1180.00 415.50" xmlns="http://www.w3.org/2000/svg" xmlns:xlink="http://www.w3.org/1999/xlink">
<g id="graph0" class="graph" transform="scale(1 1) rotate(0) translate(4 411.5)">
<title>dynarr_binary_insert_uniq</title>
<!-- Node1 -->
<g id="Node000001" class="node">
<title>Node1</title>
<g id="a_Node000001"><a xlink:title="Binary unique insert.">
<polygon fill="#999999" stroke="#666666" points="143,-113 0,-113 0,-94 143,-94 143,-113"/>
<text text-anchor="middle" x="71.5" y="-101" font-family="Mononoki" font-size="10.00">dynarr_binary_insert_uniq</text>
</a>
</g>
</g>
<!-- Node2 -->
<g id="Node000002" class="node">
<title>Node2</title>
<g id="a_Node000002"><a xlink:href="group__Searches.html#ga8592e4d2a568f36dbcb1bce45a4b1460" target="_top" xlink:title="Binary search for the element with matching value.">
<polygon fill="white" stroke="#666666" points="291,-80.5 184,-80.5 184,-50.5 291,-50.5 291,-80.5"/>
<text text-anchor="start" x="192" y="-68.5" font-family="Mononoki" font-size="10.00">dynarr_binary_find</text>
<text text-anchor="middle" x="237.5" y="-57.5" font-family="Mononoki" font-size="10.00">_index</text>
</a>
</g>
</g>
<!-- Node1&#45;&gt;Node2 -->
<g id="edge1_Node000001_Node000002" class="edge">
<title>Node1&#45;&gt;Node2</title>
<g id="a_edge1_Node000001_Node000002"><a xlink:title=" ">
<path fill="none" stroke="#63b8ff" d="M113.88,-93.91C132.15,-89.68 154.01,-84.61 174.19,-79.94"/>
<polygon fill="#63b8ff" stroke="#63b8ff" points="174.98,-83.35 183.93,-77.68 173.4,-76.53 174.98,-83.35"/>
</a>
</g>
</g>
<!-- Node7 -->
<g id="Node000007" class="node">
<title>Node7</title>
<g id="a_Node000007"><a xlink:href="group__Elements.html#gad2dd0b992152881697da2073a0c840d7" target="_top" xlink:title="Binary insert.">
<polygon fill="white" stroke="#666666" points="296,-170 179,-170 179,-151 296,-151 296,-170"/>
<text text-anchor="middle" x="237.5" y="-158" font-family="Mononoki" font-size="10.00">dynarr_binary_insert</text>
</a>
</g>
</g>
<!-- Node1&#45;&gt;Node7 -->
<g id="edge6_Node000001_Node000007" class="edge">
<title>Node1&#45;&gt;Node7</title>
<g id="a_edge6_Node000001_Node000007"><a xlink:title=" ">
<path fill="none" stroke="#63b8ff" d="M99.95,-113.04C127.15,-122.49 169,-137.04 199.2,-147.54"/>
<polygon fill="#63b8ff" stroke="#63b8ff" points="198.37,-150.95 208.96,-150.93 200.66,-144.34 198.37,-150.95"/>
</a>
</g>
</g>
<!-- Node3 -->
<g id="Node000003" class="node">
<title>Node3</title>
<g id="a_Node000003"><a xlink:href="group__Properties.html#gaf5c43e2644d185b9b01065af34ed6e29" target="_top" xlink:title="Access size property of a dynarr.">
<polygon fill="white" stroke="#666666" points="853,-189 780,-189 780,-170 853,-170 853,-189"/>
<text text-anchor="middle" x="816.5" y="-177" font-family="Mononoki" font-size="10.00">dynarr_size</text>
</a>
</g>
</g>
<!-- Node2&#45;&gt;Node3 -->
<g id="edge2_Node000002_Node000003" class="edge">
<title>Node2&#45;&gt;Node3</title>
<g id="a_edge2_Node000002_Node000003"><a xlink:title=" ">
<path fill="none" stroke="#63b8ff" d="M291.1,-60.32C384.18,-53.28 582.33,-47.93 733,-110.5 760.31,-121.84 785.41,-145.56 800.58,-162"/>
<polygon fill="#63b8ff" stroke="#63b8ff" points="798.29,-164.7 807.56,-169.83 803.52,-160.04 798.29,-164.7"/>
</a>
</g>
</g>
<!-- Node6 -->
<g id="Node000006" class="node">
<title>Node6</title>
<g id="a_Node000006"><a target="_parent" xlink:href="https://evjeesm.github.io/vector/group__Vector__API.html#gaae3cfb2691a50da87169b5e057169782" xlink:title=" ">
<polygon fill="white" stroke="#666666" points="439,-37.5 332,-37.5 332,-7.5 439,-7.5 439,-37.5"/>
<text text-anchor="start" x="340" y="-25.5" font-family="Mononoki" font-size="10.00">vector_binary_find</text>
<text text-anchor="middle" x="385.5" y="-14.5" font-family="Mononoki" font-size="10.00">_index</text>
</a>
</g>
</g>
<!-- Node2&#45;&gt;Node6 -->
<g id="edge5_Node000002_Node000006" class="edge">
<title>Node2&#45;&gt;Node6</title>
<g id="a_edge5_Node000002_Node000006"><a xlink:title=" ">
<path fill="none" stroke="#63b8ff" d="M289.56,-50.46C300.5,-47.24 312.17,-43.8 323.44,-40.48"/>
<polygon fill="#63b8ff" stroke="#63b8ff" points="324.61,-43.79 333.22,-37.6 322.64,-37.07 324.61,-43.79"/>
</a>
</g>
</g>
<!-- Node4 -->
<g id="Node000004" class="node">
<title>Node4</title>
<g id="a_Node000004"><a xlink:href="dynarr_8c.html#a73f42f3f25cd0920d8039d63ea31be07" target="_top" xlink:title=" ">
<polygon fill="white" stroke="#666666" points="1008,-189 900,-189 900,-170 1008,-170 1008,-189"/>
<text text-anchor="middle" x="954" y="-177" font-family="Mononoki" font-size="10.00">get_dynarr_header</text>
</a>
</g>
</g>
<!-- Node3&#45;&gt;Node4 -->
<g id="edge3_Node000003_Node000004" class="edge">
<title>Node3&#45;&gt;Node4</title>
<g id="a_edge3_Node000003_Node000004"><a xlink:title=" ">
<path fill="none" stroke="#63b8ff" d="M853.1,-179.5C864.36,-179.5 877.16,-179.5 889.76,-179.5"/>
<polygon fill="#63b8ff" stroke="#63b8ff" points="889.78,-183 899.78,-179.5 889.78,-176 889.78,-183"/>
</a>
</g>
</g>
<!-- Node5 -->
<g id="Node000005" class="node">
<title>Node5</title>
<g id="a_Node000005"><a target="_parent" xlink:href="https://evjeesm.github.io/vector/group__Vector__API.html#gafc2e34dbacffe6480af8681fbf46e808" xlink:title=" ">
<polygon fill="white" stroke="#666666" points="1172,-189 1044,-189 1044,-170 1172,-170 1172,-189"/>
<text text-anchor="middle" x="1108" y="-177" font-family="Mononoki" font-size="10.00">vector_get_ext_header</text>
</a>
</g>
</g>
<!-- Node4&#45;&gt;Node5 -->
<g id="edge4_Node000004_Node000005" class="edge">
<title>Node4&#45;&gt;Node5</title>
<g id="a_edge4_Node000004_Node000005"><a xlink:title=" ">
<path fill="none" stroke="#63b8ff" d="M1008.16,-179.5C1016.47,-179.5 1025.18,-179.5 1033.84,-179.5"/>
<polygon fill="#63b8ff" stroke="#63b8ff" points="1033.95,-183 1043.95,-179.5 1033.95,-176 1033.95,-183"/>
</a>
</g>
</g>
<!-- Node8 -->
<g id="Node000008" class="node">
<title>Node8</title>
<g id="a_Node000008"><a xlink:href="group__Elements.html#ga5f6a46fc8cc0cfe14d98926cadbaa35d" target="_top" xlink:title="Binary search for binary insert support.">
<polygon fill="white" stroke="#666666" points="439,-346.5 332,-346.5 332,-316.5 439,-316.5 439,-346.5"/>
<text text-anchor="start" x="340" y="-334.5" font-family="Mononoki" font-size="10.00">dynarr_binary_find</text>
<text text-anchor="middle" x="385.5" y="-323.5" font-family="Mononoki" font-size="10.00">_insert_place</text>
</a>
</g>
</g>
<!-- Node7&#45;&gt;Node8 -->
<g id="edge7_Node000007_Node000008" class="edge">
<title>Node7&#45;&gt;Node8</title>
<g id="a_edge7_Node000007_Node000008"><a xlink:title=" ">
<path fill="none" stroke="#63b8ff" d="M246.77,-170.18C269.31,-196.59 332.33,-270.4 364.72,-308.34"/>
<polygon fill="#63b8ff" stroke="#63b8ff" points="362.36,-310.96 371.52,-316.29 367.69,-306.42 362.36,-310.96"/>
</a>
</g>
</g>
<!-- Node12 -->
<g id="Node000012" class="node">
<title>Node12</title>
<g id="a_Node000012"><a xlink:href="group__Elements.html#gab449a79e6b33f55af35329df4363336e" target="_top" xlink:title="Inserts new element into a dynarr.">
<polygon fill="white" stroke="#666666" points="426,-170 345,-170 345,-151 426,-151 426,-170"/>
<text text-anchor="middle" x="385.5" y="-158" font-family="Mononoki" font-size="10.00">dynarr_insert</text>
</a>
</g>
</g>
<!-- Node7&#45;&gt;Node12 -->
<g id="edge14_Node000007_Node000012" class="edge">
<title>Node7&#45;&gt;Node12</title>
<g id="a_edge14_Node000007_Node000012"><a xlink:title=" ">
<path fill="none" stroke="#63b8ff" d="M296.2,-160.5C308.91,-160.5 322.26,-160.5 334.62,-160.5"/>
<polygon fill="#63b8ff" stroke="#63b8ff" points="334.74,-164 344.74,-160.5 334.74,-157 334.74,-164"/>
</a>
</g>
</g>
<!-- Node8&#45;&gt;Node3 -->
<g id="edge13_Node000008_Node000003" class="edge">
<title>Node8&#45;&gt;Node3</title>
<g id="a_edge13_Node000008_Node000003"><a xlink:title=" ">
<path fill="none" stroke="#63b8ff" d="M439.22,-329.89C509.96,-325.76 637.74,-311.21 733,-260.5 762.22,-244.95 788.02,-215.83 802.69,-197.07"/>
<polygon fill="#63b8ff" stroke="#63b8ff" points="805.53,-199.11 808.79,-189.03 799.96,-194.88 805.53,-199.11"/>
</a>
</g>
</g>
<!-- Node9 -->
<g id="Node000009" class="node">
<title>Node9</title>
<g id="a_Node000009"><a xlink:href="dynarr_8c.html#a187b18732062f4f69486553f37697739" target="_top" xlink:title=" ">
<polygon fill="white" stroke="#666666" points="579,-389.5 475,-389.5 475,-359.5 579,-359.5 579,-389.5"/>
<text text-anchor="start" x="483" y="-377.5" font-family="Mononoki" font-size="10.00">binary_find_insert</text>
<text text-anchor="middle" x="527" y="-366.5" font-family="Mononoki" font-size="10.00">_place</text>
</a>
</g>
</g>
<!-- Node8&#45;&gt;Node9 -->
<g id="edge8_Node000008_Node000009" class="edge">
<title>Node8&#45;&gt;Node9</title>
<g id="a_edge8_Node000008_Node000009"><a xlink:title=" ">
<path fill="none" stroke="#63b8ff" d="M435.29,-346.54C445.64,-349.73 456.66,-353.13 467.33,-356.42"/>
<polygon fill="#63b8ff" stroke="#63b8ff" points="466.41,-359.8 477,-359.4 468.48,-353.11 466.41,-359.8"/>
</a>
</g>
</g>
<!-- Node9&#45;&gt;Node9 -->
<g id="edge9_Node000009_Node000009" class="edge">
<title>Node9&#45;&gt;Node9</title>
<g id="a_edge9_Node000009_Node000009"><a xlink:title=" ">
<path fill="none" stroke="#63b8ff" d="M502.39,-389.78C496.92,-398.91 505.12,-407.5 527,-407.5 539.99,-407.5 548.16,-404.47 551.51,-400.1"/>
<polygon fill="#63b8ff" stroke="#63b8ff" points="555.01,-399.81 551.61,-389.78 548.01,-399.74 555.01,-399.81"/>
</a>
</g>
</g>
<!-- Node10 -->
<g id="Node000010" class="node">
<title>Node10</title>
<g id="a_Node000010"><a xlink:href="group__Elements.html#ga93c32dd116523090126d427cce08e114" target="_top" xlink:title="Returns pointer for the element at index.">
<polygon fill="white" stroke="#666666" points="708.5,-379 639.5,-379 639.5,-360 708.5,-360 708.5,-379"/>
<text text-anchor="middle" x="674" y="-367" font-family="Mononoki" font-size="10.00">dynarr_get</text>
</a>
</g>
</g>
<!-- Node9&#45;&gt;Node10 -->
<g id="edge10_Node000009_Node000010" class="edge">
<title>Node9&#45;&gt;Node10</title>
<g id="a_edge10_Node000009_Node000010"><a xlink:title=" ">
<path fill="none" stroke="#63b8ff" d="M579.12,-372.74C595.44,-372.17 613.35,-371.56 629.11,-371.01"/>
<polygon fill="#63b8ff" stroke="#63b8ff" points="629.24,-374.51 639.12,-370.67 629,-367.52 629.24,-374.51"/>
</a>
</g>
</g>
<!-- Node10&#45;&gt;Node3 -->
<g id="edge11_Node000010_Node000003" class="edge">
<title>Node10&#45;&gt;Node3</title>
<g id="a_edge11_Node000010_Node000003"><a xlink:title=" ">
<path fill="none" stroke="#63b8ff" d="M708.7,-360.27C717.36,-356.7 726.15,-351.89 733,-345.5 777.58,-303.89 801.37,-232.93 810.72,-198.87"/>
<polygon fill="#63b8ff" stroke="#63b8ff" points="814.1,-199.75 813.25,-189.19 807.33,-197.97 814.1,-199.75"/>
</a>
</g>
</g>
<!-- Node11 -->
<g id="Node000011" class="node">
<title>Node11</title>
<g id="a_Node000011"><a target="_parent" xlink:href="https://evjeesm.github.io/vector/group__Vector__API.html#ga9437d9506a3b2799f595c88b82f160b3" xlink:title=" ">
<polygon fill="white" stroke="#666666" points="850.5,-379 782.5,-379 782.5,-360 850.5,-360 850.5,-379"/>
<text text-anchor="middle" x="816.5" y="-367" font-family="Mononoki" font-size="10.00">vector_get</text>
</a>
</g>
</g>
<!-- Node10&#45;&gt;Node11 -->
<g id="edge12_Node000010_Node000011" class="edge">
<title>Node10&#45;&gt;Node11</title>
<g id="a_edge12_Node000010_Node000011"><a xlink:title=" ">
<path fill="none" stroke="#63b8ff" d="M708.65,-369.5C727.68,-369.5 751.68,-369.5 772.11,-369.5"/>
<polygon fill="#63b8ff" stroke="#63b8ff" points="772.12,-373 782.12,-369.5 772.12,-366 772.12,-373"/>
</a>
</g>
</g>
<!-- Node12&#45;&gt;Node3 -->
<g id="edge18_Node000012_Node000003" class="edge">
<title>Node12&#45;&gt;Node3</title>
<g id="a_edge18_Node000012_Node000003"><a xlink:title=" ">
<path fill="none" stroke="#63b8ff" d="M426.09,-162.25C505.84,-165.79 685.39,-173.74 769.9,-177.48"/>
<polygon fill="#63b8ff" stroke="#63b8ff" points="769.81,-180.98 779.96,-177.93 770.12,-173.99 769.81,-180.98"/>
</a>
</g>
</g>
<!-- Node13 -->
<g id="Node000013" class="node">
<title>Node13</title>
<g id="a_Node000013"><a xlink:href="group__Elements.html#ga30d508a9f387e2227dd0d72a8bfd2a39" target="_top" xlink:title="Sets element at given index to a value.">
<polygon fill="white" stroke="#666666" points="561,-151 493,-151 493,-132 561,-132 561,-151"/>
<text text-anchor="middle" x="527" y="-139" font-family="Mononoki" font-size="10.00">dynarr_set</text>
</a>
</g>
</g>
<!-- Node12&#45;&gt;Node13 -->
<g id="edge15_Node000012_Node000013" class="edge">
<title>Node12&#45;&gt;Node13</title>
<g id="a_edge15_Node000012_Node000013"><a xlink:title=" ">
<path fill="none" stroke="#63b8ff" d="M426.1,-155.11C443.83,-152.69 464.77,-149.84 482.89,-147.37"/>
<polygon fill="#63b8ff" stroke="#63b8ff" points="483.47,-150.83 492.9,-146.01 482.52,-143.89 483.47,-150.83"/>
</a>
</g>
</g>
<!-- Node15 -->
<g id="Node000015" class="node">
<title>Node15</title>
<g id="a_Node000015"><a xlink:href="group__Auto-resize.html#ga036b69c5b674d3ac22027b04ba235b42" target="_top" xlink:title=" ">
<polygon fill="white" stroke="#666666" points="694.5,-37 653.5,-37 653.5,-18 694.5,-18 694.5,-37"/>
<text text-anchor="middle" x="674" y="-25" font-family="Mononoki" font-size="10.00">grow</text>
</a>
</g>
</g>
<!-- Node12&#45;&gt;Node15 -->
<g id="edge19_Node000012_Node000015" class="edge">
<title>Node12&#45;&gt;Node15</title>
<g id="a_edge19_Node000012_Node000015"><a xlink:title=" ">
<path fill="none" stroke="#63b8ff" d="M407.1,-150.93C457.32,-127.62 586.12,-67.83 644.03,-40.95"/>
<polygon fill="#63b8ff" stroke="#63b8ff" points="645.75,-44.01 653.34,-36.63 642.8,-37.66 645.75,-44.01"/>
</a>
</g>
</g>
<!-- Node19 -->
<g id="Node000019" class="node">
<title>Node19</title>
<g id="a_Node000019"><a xlink:href="group__Auto-resize.html#gadb26f84b95f0ca45c7ccbd72e337485a" target="_top" xlink:title=" ">
<polygon fill="white" stroke="#666666" points="573,-265 481,-265 481,-246 573,-246 573,-265"/>
<text text-anchor="middle" x="527" y="-253" font-family="Mononoki" font-size="10.00">make_space_at</text>
</a>
</g>
</g>
<!-- Node12&#45;&gt;Node19 -->
<g id="edge25_Node000012_Node000019" class="edge">
<title>Node12&#45;&gt;Node19</title>
<g id="a_edge25_Node000012_Node000019"><a xlink:title=" ">
<path fill="none" stroke="#63b8ff" d="M400.64,-170.13C424.87,-186.63 474.51,-220.44 503.53,-240.2"/>
<polygon fill="#63b8ff" stroke="#63b8ff" points="501.58,-243.11 511.82,-245.84 505.52,-237.32 501.58,-243.11"/>
</a>
</g>
</g>
<!-- Node13&#45;&gt;Node3 -->
<g id="edge16_Node000013_Node000003" class="edge">
<title>Node13&#45;&gt;Node3</title>
<g id="a_edge16_Node000013_Node000003"><a xlink:title=" ">
<path fill="none" stroke="#63b8ff" d="M556.92,-131.91C597.3,-120.05 672.43,-103.61 733,-122.5 758.24,-130.37 782.57,-148.97 798.18,-162.79"/>
<polygon fill="#63b8ff" stroke="#63b8ff" points="796.18,-165.7 805.91,-169.88 800.91,-160.54 796.18,-165.7"/>
</a>
</g>
</g>
<!-- Node14 -->
<g id="Node000014" class="node">
<title>Node14</title>
<g id="a_Node000014"><a target="_parent" xlink:href="https://evjeesm.github.io/vector/group__Vector__API.html#gab3a5e466261d31ee9edd77a5eb280030" xlink:title=" ">
<polygon fill="white" stroke="#666666" points="708,-151 640,-151 640,-132 708,-132 708,-151"/>
<text text-anchor="middle" x="674" y="-139" font-family="Mononoki" font-size="10.00">vector_set</text>
</a>
</g>
</g>
<!-- Node13&#45;&gt;Node14 -->
<g id="edge17_Node000013_Node000014" class="edge">
<title>Node13&#45;&gt;Node14</title>
<g id="a_edge17_Node000013_Node000014"><a xlink:title=" ">
<path fill="none" stroke="#63b8ff" d="M561.27,-141.5C581.62,-141.5 607.88,-141.5 629.83,-141.5"/>
<polygon fill="#63b8ff" stroke="#63b8ff" points="629.89,-145 639.89,-141.5 629.89,-138 629.89,-145"/>
</a>
</g>
</g>
<!-- Node15&#45;&gt;Node3 -->
<g id="edge22_Node000015_Node000003" class="edge">
<title>Node15&#45;&gt;Node3</title>
<g id="a_edge22_Node000015_Node000003"><a xlink:title=" ">
<path fill="none" stroke="#63b8ff" d="M694.75,-31.8C707.02,-35.33 722.42,-41.44 733,-51.5 760.08,-77.26 748.33,-96.36 769,-127.5 777.37,-140.11 788.65,-152.81 798.01,-162.49"/>
<polygon fill="#63b8ff" stroke="#63b8ff" points="795.78,-165.22 805.31,-169.86 800.75,-160.29 795.78,-165.22"/>
</a>
</g>
</g>
<!-- Node15&#45;&gt;Node4 -->
<g id="edge23_Node000015_Node000004" class="edge">
<title>Node15&#45;&gt;Node4</title>
<g id="a_edge23_Node000015_Node000004"><a xlink:title=" ">
<path fill="none" stroke="#63b8ff" d="M694.62,-34.86C706,-39.31 720.5,-45.31 733,-51.5 806.88,-88.07 889.9,-139.31 929.52,-164.42"/>
<polygon fill="#63b8ff" stroke="#63b8ff" points="927.87,-167.52 938.18,-169.94 931.63,-161.61 927.87,-167.52"/>
</a>
</g>
</g>
<!-- Node16 -->
<g id="Node000016" class="node">
<title>Node16</title>
<g id="a_Node000016"><a xlink:href="group__Properties.html#ga3ff11107726213a640d814b63cb123b2" target="_top" xlink:title="Access current capacity of the dynarr.">
<polygon fill="white" stroke="#666666" points="864,-19 769,-19 769,0 864,0 864,-19"/>
<text text-anchor="middle" x="816.5" y="-7" font-family="Mononoki" font-size="10.00">dynarr_capacity</text>
</a>
</g>
</g>
<!-- Node15&#45;&gt;Node16 -->
<g id="edge20_Node000015_Node000016" class="edge">
<title>Node15&#45;&gt;Node16</title>
<g id="a_edge20_Node000015_Node000016"><a xlink:title=" ">
<path fill="none" stroke="#63b8ff" d="M694.54,-25C711.22,-22.86 736.07,-19.68 758.92,-16.75"/>
<polygon fill="#63b8ff" stroke="#63b8ff" points="759.42,-20.21 768.9,-15.47 758.53,-13.27 759.42,-20.21"/>
</a>
</g>
</g>
<!-- Node18 -->
<g id="Node000018" class="node">
<title>Node18</title>
<g id="a_Node000018"><a target="_parent" xlink:href="https://evjeesm.github.io/vector/group__Vector__API.html#ga6e5077303af4dfe720af5a0608553922" xlink:title=" ">
<polygon fill="white" stroke="#666666" points="857.5,-56 775.5,-56 775.5,-37 857.5,-37 857.5,-56"/>
<text text-anchor="middle" x="816.5" y="-44" font-family="Mononoki" font-size="10.00">vector_resize</text>
</a>
</g>
</g>
<!-- Node15&#45;&gt;Node18 -->
<g id="edge24_Node000015_Node000018" class="edge">
<title>Node15&#45;&gt;Node18</title>
<g id="a_edge24_Node000015_Node000018"><a xlink:title=" ">
<path fill="none" stroke="#63b8ff" d="M694.54,-30.14C712.75,-32.6 740.69,-36.38 765.13,-39.69"/>
<polygon fill="#63b8ff" stroke="#63b8ff" points="764.98,-43.2 775.36,-41.07 765.92,-36.26 764.98,-43.2"/>
</a>
</g>
</g>
<!-- Node17 -->
<g id="Node000017" class="node">
<title>Node17</title>
<g id="a_Node000017"><a target="_parent" xlink:href="https://evjeesm.github.io/vector/group__Vector__API.html#gab24bd801f91d4ae1ac79b54430b0409f" xlink:title=" ">
<polygon fill="white" stroke="#666666" points="1001,-19 907,-19 907,0 1001,0 1001,-19"/>
<text text-anchor="middle" x="954" y="-7" font-family="Mononoki" font-size="10.00">vector_capacity</text>
</a>
</g>
</g>
<!-- Node16&#45;&gt;Node17 -->
<g id="edge21_Node000016_Node000017" class="edge">
<title>Node16&#45;&gt;Node17</title>
<g id="a_edge21_Node000016_Node000017"><a xlink:title=" ">
<path fill="none" stroke="#63b8ff" d="M864.13,-9.5C874.57,-9.5 885.76,-9.5 896.55,-9.5"/>
<polygon fill="#63b8ff" stroke="#63b8ff" points="896.74,-13 906.74,-9.5 896.74,-6 896.74,-13"/>
</a>
</g>
</g>
<!-- Node19&#45;&gt;Node3 -->
<g id="edge27_Node000019_Node000003" class="edge">
<title>Node19&#45;&gt;Node3</title>
<g id="a_edge27_Node000019_Node000003"><a xlink:title=" ">
<path fill="none" stroke="#63b8ff" d="M573.01,-257.78C615.52,-258.45 680.43,-255.6 733,-236.5 757.57,-227.57 781.71,-209.5 797.46,-196.09"/>
<polygon fill="#63b8ff" stroke="#63b8ff" points="800.1,-198.43 805.3,-189.2 795.48,-193.17 800.1,-198.43"/>
</a>
</g>
</g>
<!-- Node19&#45;&gt;Node4 -->
<g id="edge28_Node000019_Node000004" class="edge">
<title>Node19&#45;&gt;Node4</title>
<g id="a_edge28_Node000019_Node000004"><a xlink:title=" ">
<path fill="none" stroke="#63b8ff" d="M573.13,-258.59C586.6,-259.38 601.39,-260.11 615,-260.5 667.42,-262.01 681.37,-269.7 733,-260.5 804.97,-247.67 884.24,-212.98 925.14,-193.41"/>
<polygon fill="#63b8ff" stroke="#63b8ff" points="926.74,-196.52 934.22,-189.01 923.69,-190.22 926.74,-196.52"/>
</a>
</g>
</g>
<!-- Node19&#45;&gt;Node10 -->
<g id="edge26_Node000019_Node000010" class="edge">
<title>Node19&#45;&gt;Node10</title>
<g id="a_edge26_Node000019_Node000010"><a xlink:title=" ">
<path fill="none" stroke="#63b8ff" d="M540.36,-265.22C565.3,-284.82 621.83,-329.27 652.42,-353.32"/>
<polygon fill="#63b8ff" stroke="#63b8ff" points="650.64,-356.38 660.67,-359.81 654.97,-350.87 650.64,-356.38"/>
</a>
</g>
</g>
<!-- Node20 -->
<g id="Node000020" class="node">
<title>Node20</title>
<g id="a_Node000020"><a target="_parent" xlink:href="https://evjeesm.github.io/vector/group__Vector__API.html#gaae93d7f0c056c1d11d3232a7a7aa5e09" xlink:title=" ">
<polygon fill="white" stroke="#666666" points="733,-227 615,-227 615,-208 733,-208 733,-227"/>
<text text-anchor="middle" x="674" y="-215" font-family="Mononoki" font-size="10.00">vector_element_size</text>
</a>
</g>
</g>
<!-- Node19&#45;&gt;Node20 -->
<g id="edge29_Node000019_Node000020" class="edge">
<title>Node19&#45;&gt;Node20</title>
<g id="a_edge29_Node000019_Node000020"><a xlink:title=" ">
<path fill="none" stroke="#63b8ff" d="M564.59,-245.91C583.47,-240.96 606.69,-234.88 626.79,-229.61"/>
<polygon fill="#63b8ff" stroke="#63b8ff" points="627.89,-232.94 636.67,-227.02 626.11,-226.17 627.89,-232.94"/>
</a>
</g>
</g>
</g>
</svg>
