<?xml version="1.0" encoding="UTF-8" standalone="no"?>
<!DOCTYPE svg PUBLIC "-//W3C//DTD SVG 1.1//EN"
 "http://www.w3.org/Graphics/SVG/1.1/DTD/svg11.dtd">
<!-- Generated by graphviz version 2.43.0 (0)
 -->
<!-- Title: dynarr_binary_merge Pages: 1 -->
<!--zoomable 516 -->

<svg id="main" version="1.1" xmlns="http://www.w3.org/2000/svg" xmlns:xlink="http://www.w3.org/1999/xlink" xml:space="preserve" onload="init(evt)">
<style type="text/css"><![CDATA[
.node, .edge {opacity: 0.7;}
.node.selected, .edge.selected {opacity: 1;}
.edge:hover path { stroke: red; }
.edge:hover polygon { stroke: red; fill: red; }
]]></style>

<defs>
  <circle id="rim" cx="0" cy="0" r="7"/>
  <circle id="rim2" cx="0" cy="0" r="3.5"/>
  <g id="zoomPlus">
    <use xlink:href="#rim" fill="#404040"><set attributeName="fill" to="#808080" begin="zoomplus.mouseover" end="zoomplus.mouseout"/></use>
    <path d="M-4,0h8M0,-4v8" fill="none" stroke="white" stroke-width="1.5" pointer-events="none"/>
  </g>
  <g id="zoomMin">
    <use xlink:href="#rim" fill="#404040"><set attributeName="fill" to="#808080" begin="zoomminus.mouseover" end="zoomminus.mouseout"/></use>
    <path d="M-4,0h8" fill="none" stroke="white" stroke-width="1.5" pointer-events="none"/>
  </g>
  <g id="arrowUp" transform="translate(30 24)">
    <use xlink:href="#rim"/>
    <path pointer-events="none" fill="none" stroke="white" stroke-width="1.5" d="M0,-3.0v7 M-2.5,-0.5L0,-3.0L2.5,-0.5"/>
  </g>
  <g id="arrowRight" transform="rotate(90) translate(36 -43)">
    <use xlink:href="#rim"/>
    <path pointer-events="none" fill="none" stroke="white" stroke-width="1.5" d="M0,-3.0v7 M-2.5,-0.5L0,-3.0L2.5,-0.5"/>
  </g>
  <g id="arrowDown" transform="rotate(180) translate(-30 -48)">
    <use xlink:href="#rim"/>
    <path pointer-events="none" fill="none" stroke="white" stroke-width="1.5" d="M0,-3.0v7 M-2.5,-0.5L0,-3.0L2.5,-0.5"/>
  </g>
  <g id="arrowLeft" transform="rotate(270) translate(-36 17)">
    <use xlink:href="#rim"/>
    <path pointer-events="none" fill="none" stroke="white" stroke-width="1.5" d="M0,-3.0v7 M-2.5,-0.5L0,-3.0L2.5,-0.5"/>
  </g>
  <g id="resetDef">
    <use xlink:href="#rim2" fill="#404040"><set attributeName="fill" to="#808080" begin="reset.mouseover" end="reset.mouseout"/></use>
  </g>
</defs>
<script type="application/ecmascript">
var viewWidth = 1134;
var viewHeight = 516;
var sectionId = 'dynsection-15';
</script>
<script type="application/ecmascript" xlink:href="svg.min.js"/>
<svg id="graph" class="graph">
<g id="viewport">
<title>dynarr_binary_merge</title>
<!-- Node1 -->
<g id="Node000001" class="node">
<title>Node1</title>
<g id="a_Node000001"><a xlink:title="Non&#45;destructive merge of two sorted dynarrs.">
<polygon fill="#999999" stroke="#666666" points="121,-167.83 0,-167.83 0,-148.83 121,-148.83 121,-167.83"/>
<text text-anchor="middle" x="60.5" y="-155.83" font-family="Mononoki" font-size="10.00">dynarr_binary_merge</text>
</a>
</g>
</g>
<!-- Node2 -->
<g id="Node000002" class="node">
<title>Node2</title>
<g id="a_Node000002"><a xlink:href="group__Elements.html#ga1e7f043863514d809cd6446053f6dc47" target="_top" xlink:title="Appends an element to the tail of a dynarr.">
<polygon fill="white" stroke="#666666" points="246.5,-224.83 157.5,-224.83 157.5,-205.83 246.5,-205.83 246.5,-224.83"/>
<text text-anchor="middle" x="202" y="-212.83" font-family="Mononoki" font-size="10.00">dynarr_append</text>
</a>
</g>
</g>
<!-- Node1&#45;&gt;Node2 -->
<g id="edge1_Node000001_Node000002" class="edge">
<title>Node1&#45;&gt;Node2</title>
<g id="a_edge1_Node000001_Node000002"><a xlink:title=" ">
<path fill="none" stroke="#63b8ff" d="M84.85,-167.87C107.68,-177.2 142.66,-191.49 168.26,-201.95"/>
<polygon fill="#63b8ff" stroke="#63b8ff" points="166.99,-205.21 177.57,-205.76 169.64,-198.73 166.99,-205.21"/>
</a>
</g>
</g>
<!-- Node5 -->
<g id="Node000005" class="node">
<title>Node5</title>
<g id="a_Node000005"><a xlink:href="group__Properties.html#gaf5c43e2644d185b9b01065af34ed6e29" target="_top" xlink:title="Access size property of a dynarr.">
<polygon fill="white" stroke="#666666" points="790.5,-319.83 717.5,-319.83 717.5,-300.83 790.5,-300.83 790.5,-319.83"/>
<text text-anchor="middle" x="754" y="-307.83" font-family="Mononoki" font-size="10.00">dynarr_size</text>
</a>
</g>
</g>
<!-- Node1&#45;&gt;Node5 -->
<g id="edge28_Node000001_Node000005" class="edge">
<title>Node1&#45;&gt;Node5</title>
<g id="a_edge28_Node000001_Node000005"><a xlink:title=" ">
<path fill="none" stroke="#63b8ff" d="M64.91,-168.14C83,-218.25 172.79,-443.33 326.5,-443.33 326.5,-443.33 326.5,-443.33 455,-443.33 545.13,-443.33 573.91,-445.67 654,-404.33 690.28,-385.6 722.56,-349.51 739.8,-327.91"/>
<polygon fill="#63b8ff" stroke="#63b8ff" points="742.66,-329.93 746.04,-319.89 737.14,-325.63 742.66,-329.93"/>
</a>
</g>
</g>
<!-- Node14 -->
<g id="Node000014" class="node">
<title>Node14</title>
<g id="a_Node000014"><a xlink:href="group__Elements.html#ga93c32dd116523090126d427cce08e114" target="_top" xlink:title="Returns pointer for the element at index.">
<polygon fill="white" stroke="#666666" points="629.5,-186.83 560.5,-186.83 560.5,-167.83 629.5,-167.83 629.5,-186.83"/>
<text text-anchor="middle" x="595" y="-174.83" font-family="Mononoki" font-size="10.00">dynarr_get</text>
</a>
</g>
</g>
<!-- Node1&#45;&gt;Node14 -->
<g id="edge27_Node000001_Node000014" class="edge">
<title>Node1&#45;&gt;Node14</title>
<g id="a_edge27_Node000001_Node000014"><a xlink:title=" ">
<path fill="none" stroke="#63b8ff" d="M121.03,-160.45C229.07,-164.31 455.02,-172.37 550.22,-175.77"/>
<polygon fill="#63b8ff" stroke="#63b8ff" points="550.24,-179.27 560.36,-176.13 550.49,-172.27 550.24,-179.27"/>
</a>
</g>
</g>
<!-- Node17 -->
<g id="Node000017" class="node">
<title>Node17</title>
<g id="a_Node000017"><a xlink:href="group__Lifetime.html#ga99f1163f1932f71f0229a7340df68efb" target="_top" xlink:title="Constructor of the dynamic array.">
<polygon fill="white" stroke="#666666" points="372,-109.83 283,-109.83 283,-90.83 372,-90.83 372,-109.83"/>
<text text-anchor="middle" x="327.5" y="-97.83" font-family="Mononoki" font-size="10.00">dynarr_create_</text>
</a>
</g>
</g>
<!-- Node1&#45;&gt;Node17 -->
<g id="edge23_Node000001_Node000017" class="edge">
<title>Node1&#45;&gt;Node17</title>
<g id="a_edge23_Node000001_Node000017"><a xlink:title=" ">
<path fill="none" stroke="#63b8ff" d="M85.07,-148.8C104.18,-141.42 131.95,-131.45 157,-125.33 195.23,-115.99 239.22,-109.63 272.81,-105.66"/>
<polygon fill="#63b8ff" stroke="#63b8ff" points="273.34,-109.12 282.88,-104.5 272.54,-102.16 273.34,-109.12"/>
</a>
</g>
</g>
<!-- Node18 -->
<g id="Node000018" class="node">
<title>Node18</title>
<g id="a_Node000018"><a xlink:href="group__Lifetime.html#gaebbaac3879771d77aa20068a26952197" target="_top" xlink:title="Deallocates a dynamic array.">
<polygon fill="white" stroke="#666666" points="247,-72.83 157,-72.83 157,-53.83 247,-53.83 247,-72.83"/>
<text text-anchor="middle" x="202" y="-60.83" font-family="Mononoki" font-size="10.00">dynarr_destroy</text>
</a>
</g>
</g>
<!-- Node1&#45;&gt;Node18 -->
<g id="edge25_Node000001_Node000018" class="edge">
<title>Node1&#45;&gt;Node18</title>
<g id="a_edge25_Node000001_Node000018"><a xlink:title=" ">
<path fill="none" stroke="#63b8ff" d="M73.18,-148.81C90.81,-134.63 125.5,-107.49 157,-87.33 162.07,-84.08 167.61,-80.84 173.01,-77.83"/>
<polygon fill="#63b8ff" stroke="#63b8ff" points="174.71,-80.89 181.82,-73.04 171.36,-74.74 174.71,-80.89"/>
</a>
</g>
</g>
<!-- Node20 -->
<g id="Node000020" class="node">
<title>Node20</title>
<g id="a_Node000020"><a xlink:href="dynarr_8c.html#a498b4e9fc56a6e87a6c5ca525026a9ed" target="_top" xlink:title=" ">
<polygon fill="white" stroke="#666666" points="483.5,-111.83 424.5,-111.83 424.5,-92.83 483.5,-92.83 483.5,-111.83"/>
<text text-anchor="middle" x="454" y="-99.83" font-family="Mononoki" font-size="10.00">get_opts</text>
</a>
</g>
</g>
<!-- Node1&#45;&gt;Node20 -->
<g id="edge29_Node000001_Node000020" class="edge">
<title>Node1&#45;&gt;Node20</title>
<g id="a_edge29_Node000001_Node000020"><a xlink:title=" ">
<path fill="none" stroke="#63b8ff" d="M121.2,-151.84C183.84,-144.75 285.1,-132.49 372,-118.33 385.87,-116.07 400.99,-113.19 414.37,-110.51"/>
<polygon fill="#63b8ff" stroke="#63b8ff" points="415.12,-113.93 424.22,-108.5 413.72,-107.07 415.12,-113.93"/>
</a>
</g>
</g>
<!-- Node3 -->
<g id="Node000003" class="node">
<title>Node3</title>
<g id="a_Node000003"><a xlink:href="group__Elements.html#gab449a79e6b33f55af35329df4363336e" target="_top" xlink:title="Inserts new element into a dynarr.">
<polygon fill="white" stroke="#666666" points="368,-338.83 287,-338.83 287,-319.83 368,-319.83 368,-338.83"/>
<text text-anchor="middle" x="327.5" y="-326.83" font-family="Mononoki" font-size="10.00">dynarr_insert</text>
</a>
</g>
</g>
<!-- Node2&#45;&gt;Node3 -->
<g id="edge2_Node000002_Node000003" class="edge">
<title>Node2&#45;&gt;Node3</title>
<g id="a_edge2_Node000002_Node000003"><a xlink:title=" ">
<path fill="none" stroke="#63b8ff" d="M213.53,-225.05C234.67,-244.57 282.51,-288.72 308.64,-312.84"/>
<polygon fill="#63b8ff" stroke="#63b8ff" points="306.28,-315.42 316,-319.63 311.02,-310.28 306.28,-315.42"/>
</a>
</g>
</g>
<!-- Node2&#45;&gt;Node5 -->
<g id="edge22_Node000002_Node000005" class="edge">
<title>Node2&#45;&gt;Node5</title>
<g id="a_edge22_Node000002_Node000005"><a xlink:title=" ">
<path fill="none" stroke="#63b8ff" d="M246.79,-214.6C328.78,-214.47 510.18,-220.01 654,-266.33 678.81,-274.32 705.77,-286.55 725.28,-296.09"/>
<polygon fill="#63b8ff" stroke="#63b8ff" points="723.98,-299.35 734.49,-300.67 727.09,-293.08 723.98,-299.35"/>
</a>
</g>
</g>
<!-- Node4 -->
<g id="Node000004" class="node">
<title>Node4</title>
<g id="a_Node000004"><a xlink:href="group__Elements.html#ga30d508a9f387e2227dd0d72a8bfd2a39" target="_top" xlink:title="Sets element at given index to a value.">
<polygon fill="white" stroke="#666666" points="488,-338.83 420,-338.83 420,-319.83 488,-319.83 488,-338.83"/>
<text text-anchor="middle" x="454" y="-326.83" font-family="Mononoki" font-size="10.00">dynarr_set</text>
</a>
</g>
</g>
<!-- Node3&#45;&gt;Node4 -->
<g id="edge3_Node000003_Node000004" class="edge">
<title>Node3&#45;&gt;Node4</title>
<g id="a_edge3_Node000003_Node000004"><a xlink:title=" ">
<path fill="none" stroke="#63b8ff" d="M368.23,-329.33C381.5,-329.33 396.35,-329.33 409.87,-329.33"/>
<polygon fill="#63b8ff" stroke="#63b8ff" points="409.9,-332.83 419.9,-329.33 409.9,-325.83 409.9,-332.83"/>
</a>
</g>
</g>
<!-- Node3&#45;&gt;Node5 -->
<g id="edge8_Node000003_Node000005" class="edge">
<title>Node3&#45;&gt;Node5</title>
<g id="a_edge8_Node000003_Node000005"><a xlink:title=" ">
<path fill="none" stroke="#63b8ff" d="M354.56,-338.93C393.43,-352.68 469.17,-377.32 536,-386.33 587.97,-393.34 604.34,-403.19 654,-386.33 688.14,-374.74 719.72,-346.11 737.65,-327.49"/>
<polygon fill="#63b8ff" stroke="#63b8ff" points="740.4,-329.66 744.67,-319.96 735.29,-324.88 740.4,-329.66"/>
</a>
</g>
</g>
<!-- Node9 -->
<g id="Node000009" class="node">
<title>Node9</title>
<g id="a_Node000009"><a xlink:href="group__Auto-resize.html#ga036b69c5b674d3ac22027b04ba235b42" target="_top" xlink:title=" ">
<polygon fill="white" stroke="#666666" points="615.5,-490.83 574.5,-490.83 574.5,-471.83 615.5,-471.83 615.5,-490.83"/>
<text text-anchor="middle" x="595" y="-478.83" font-family="Mononoki" font-size="10.00">grow</text>
</a>
</g>
</g>
<!-- Node3&#45;&gt;Node9 -->
<g id="edge9_Node000003_Node000009" class="edge">
<title>Node3&#45;&gt;Node9</title>
<g id="a_edge9_Node000003_Node000009"><a xlink:title=" ">
<path fill="none" stroke="#63b8ff" d="M342.34,-338.9C358.03,-349.63 384.47,-367.34 408,-381.33 462.82,-413.91 529.02,-448.39 565.83,-467.14"/>
<polygon fill="#63b8ff" stroke="#63b8ff" points="564.46,-470.37 574.96,-471.78 567.63,-464.13 564.46,-470.37"/>
</a>
</g>
</g>
<!-- Node13 -->
<g id="Node000013" class="node">
<title>Node13</title>
<g id="a_Node000013"><a xlink:href="group__Auto-resize.html#gadb26f84b95f0ca45c7ccbd72e337485a" target="_top" xlink:title=" ">
<polygon fill="white" stroke="#666666" points="500,-262.83 408,-262.83 408,-243.83 500,-243.83 500,-262.83"/>
<text text-anchor="middle" x="454" y="-250.83" font-family="Mononoki" font-size="10.00">make_space_at</text>
</a>
</g>
</g>
<!-- Node3&#45;&gt;Node13 -->
<g id="edge15_Node000003_Node000013" class="edge">
<title>Node3&#45;&gt;Node13</title>
<g id="a_edge15_Node000003_Node000013"><a xlink:title=" ">
<path fill="none" stroke="#63b8ff" d="M344.27,-319.7C365.6,-306.68 403.84,-283.34 428.81,-268.09"/>
<polygon fill="#63b8ff" stroke="#63b8ff" points="430.65,-271.07 437.36,-262.87 427,-265.1 430.65,-271.07"/>
</a>
</g>
</g>
<!-- Node4&#45;&gt;Node5 -->
<g id="edge4_Node000004_Node000005" class="edge">
<title>Node4&#45;&gt;Node5</title>
<g id="a_edge4_Node000004_Node000005"><a xlink:title=" ">
<path fill="none" stroke="#63b8ff" d="M488.03,-327.22C541.32,-323.82 646.4,-317.12 706.99,-313.26"/>
<polygon fill="#63b8ff" stroke="#63b8ff" points="707.29,-316.75 717.04,-312.62 706.84,-309.76 707.29,-316.75"/>
</a>
</g>
</g>
<!-- Node8 -->
<g id="Node000008" class="node">
<title>Node8</title>
<g id="a_Node000008"><a target="_parent" xlink:href="https://evjeesm.github.io/vector/group__Elements.html#gab3a5e466261d31ee9edd77a5eb280030" xlink:title=" ">
<polygon fill="white" stroke="#666666" points="629,-376.83 561,-376.83 561,-357.83 629,-357.83 629,-376.83"/>
<text text-anchor="middle" x="595" y="-364.83" font-family="Mononoki" font-size="10.00">vector_set</text>
</a>
</g>
</g>
<!-- Node4&#45;&gt;Node8 -->
<g id="edge7_Node000004_Node000008" class="edge">
<title>Node4&#45;&gt;Node8</title>
<g id="a_edge7_Node000004_Node000008"><a xlink:title=" ">
<path fill="none" stroke="#63b8ff" d="M488.29,-338.43C507.12,-343.58 530.86,-350.07 551.08,-355.59"/>
<polygon fill="#63b8ff" stroke="#63b8ff" points="550.41,-359.04 560.98,-358.3 552.25,-352.29 550.41,-359.04"/>
</a>
</g>
</g>
<!-- Node6 -->
<g id="Node000006" class="node">
<title>Node6</title>
<g id="a_Node000006"><a xlink:href="dynarr_8c.html#a73f42f3f25cd0920d8039d63ea31be07" target="_top" xlink:title=" ">
<polygon fill="white" stroke="#666666" points="962,-187.83 854,-187.83 854,-168.83 962,-168.83 962,-187.83"/>
<text text-anchor="middle" x="908" y="-175.83" font-family="Mononoki" font-size="10.00">get_dynarr_header</text>
</a>
</g>
</g>
<!-- Node5&#45;&gt;Node6 -->
<g id="edge5_Node000005_Node000006" class="edge">
<title>Node5&#45;&gt;Node6</title>
<g id="a_edge5_Node000005_Node000006"><a xlink:title=" ">
<path fill="none" stroke="#63b8ff" d="M770.86,-300.67C783.96,-292.42 802.81,-279.92 818,-267.33 845.7,-244.37 874.58,-214.13 891.67,-195.47"/>
<polygon fill="#63b8ff" stroke="#63b8ff" points="894.31,-197.77 898.44,-188.01 889.12,-193.06 894.31,-197.77"/>
</a>
</g>
</g>
<!-- Node7 -->
<g id="Node000007" class="node">
<title>Node7</title>
<g id="a_Node000007"><a target="_parent" xlink:href="https://evjeesm.github.io/vector/group__Extension.html#gafc2e34dbacffe6480af8681fbf46e808" xlink:title=" ">
<polygon fill="white" stroke="#666666" points="1126,-187.83 998,-187.83 998,-168.83 1126,-168.83 1126,-187.83"/>
<text text-anchor="middle" x="1062" y="-175.83" font-family="Mononoki" font-size="10.00">vector_get_ext_header</text>
</a>
</g>
</g>
<!-- Node6&#45;&gt;Node7 -->
<g id="edge6_Node000006_Node000007" class="edge">
<title>Node6&#45;&gt;Node7</title>
<g id="a_edge6_Node000006_Node000007"><a xlink:title=" ">
<path fill="none" stroke="#63b8ff" d="M962.16,-178.33C970.47,-178.33 979.18,-178.33 987.84,-178.33"/>
<polygon fill="#63b8ff" stroke="#63b8ff" points="987.95,-181.83 997.95,-178.33 987.95,-174.83 987.95,-181.83"/>
</a>
</g>
</g>
<!-- Node9&#45;&gt;Node5 -->
<g id="edge12_Node000009_Node000005" class="edge">
<title>Node9&#45;&gt;Node5</title>
<g id="a_edge12_Node000009_Node000005"><a xlink:title=" ">
<path fill="none" stroke="#63b8ff" d="M615.53,-476.38C627.56,-472.62 642.78,-466.5 654,-457.33 659.9,-452.5 716.01,-367.03 741.04,-328.69"/>
<polygon fill="#63b8ff" stroke="#63b8ff" points="744.16,-330.32 746.69,-320.03 738.29,-326.49 744.16,-330.32"/>
</a>
</g>
</g>
<!-- Node9&#45;&gt;Node6 -->
<g id="edge13_Node000009_Node000006" class="edge">
<title>Node9&#45;&gt;Node6</title>
<g id="a_edge13_Node000009_Node000006"><a xlink:title=" ">
<path fill="none" stroke="#63b8ff" d="M615.61,-488.37C657.52,-502.05 756.91,-527.06 818,-481.33 841.55,-463.7 888.16,-262.68 902.62,-198.14"/>
<polygon fill="#63b8ff" stroke="#63b8ff" points="906.11,-198.58 904.86,-188.06 899.27,-197.06 906.11,-198.58"/>
</a>
</g>
</g>
<!-- Node10 -->
<g id="Node000010" class="node">
<title>Node10</title>
<g id="a_Node000010"><a xlink:href="group__Properties.html#ga3ff11107726213a640d814b63cb123b2" target="_top" xlink:title="Access current capacity of the dynarr.">
<polygon fill="white" stroke="#666666" points="801.5,-434.83 706.5,-434.83 706.5,-415.83 801.5,-415.83 801.5,-434.83"/>
<text text-anchor="middle" x="754" y="-422.83" font-family="Mononoki" font-size="10.00">dynarr_capacity</text>
</a>
</g>
</g>
<!-- Node9&#45;&gt;Node10 -->
<g id="edge10_Node000009_Node000010" class="edge">
<title>Node9&#45;&gt;Node10</title>
<g id="a_edge10_Node000009_Node000010"><a xlink:title=" ">
<path fill="none" stroke="#63b8ff" d="M615.63,-473.06C634.53,-465.22 663.99,-453.35 690,-444.33 696.38,-442.11 703.18,-439.91 709.85,-437.83"/>
<polygon fill="#63b8ff" stroke="#63b8ff" points="710.95,-441.15 719.49,-434.88 708.9,-434.46 710.95,-441.15"/>
</a>
</g>
</g>
<!-- Node12 -->
<g id="Node000012" class="node">
<title>Node12</title>
<g id="a_Node000012"><a target="_parent" xlink:href="https://evjeesm.github.io/vector/group__Lifetime.html#ga6e5077303af4dfe720af5a0608553922" xlink:title=" ">
<polygon fill="white" stroke="#666666" points="795,-471.83 713,-471.83 713,-452.83 795,-452.83 795,-471.83"/>
<text text-anchor="middle" x="754" y="-459.83" font-family="Mononoki" font-size="10.00">vector_resize</text>
</a>
</g>
</g>
<!-- Node9&#45;&gt;Node12 -->
<g id="edge14_Node000009_Node000012" class="edge">
<title>Node9&#45;&gt;Node12</title>
<g id="a_edge14_Node000009_Node000012"><a xlink:title=" ">
<path fill="none" stroke="#63b8ff" d="M615.57,-478.96C637.26,-476.33 673.1,-472 702.74,-468.41"/>
<polygon fill="#63b8ff" stroke="#63b8ff" points="703.43,-471.85 712.93,-467.18 702.58,-464.9 703.43,-471.85"/>
</a>
</g>
</g>
<!-- Node11 -->
<g id="Node000011" class="node">
<title>Node11</title>
<g id="a_Node000011"><a target="_parent" xlink:href="https://evjeesm.github.io/vector/group__Properties.html#gab24bd801f91d4ae1ac79b54430b0409f" xlink:title=" ">
<polygon fill="white" stroke="#666666" points="955,-434.83 861,-434.83 861,-415.83 955,-415.83 955,-434.83"/>
<text text-anchor="middle" x="908" y="-422.83" font-family="Mononoki" font-size="10.00">vector_capacity</text>
</a>
</g>
</g>
<!-- Node10&#45;&gt;Node11 -->
<g id="edge11_Node000010_Node000011" class="edge">
<title>Node10&#45;&gt;Node11</title>
<g id="a_edge11_Node000010_Node000011"><a xlink:title=" ">
<path fill="none" stroke="#63b8ff" d="M801.85,-425.33C817.23,-425.33 834.49,-425.33 850.51,-425.33"/>
<polygon fill="#63b8ff" stroke="#63b8ff" points="850.83,-428.83 860.83,-425.33 850.83,-421.83 850.83,-428.83"/>
</a>
</g>
</g>
<!-- Node13&#45;&gt;Node5 -->
<g id="edge19_Node000013_Node000005" class="edge">
<title>Node13&#45;&gt;Node5</title>
<g id="a_edge19_Node000013_Node000005"><a xlink:title=" ">
<path fill="none" stroke="#63b8ff" d="M500.26,-261.98C556.21,-272.69 650.89,-290.8 707.12,-301.55"/>
<polygon fill="#63b8ff" stroke="#63b8ff" points="706.68,-305.03 717.16,-303.47 707.99,-298.16 706.68,-305.03"/>
</a>
</g>
</g>
<!-- Node13&#45;&gt;Node6 -->
<g id="edge20_Node000013_Node000006" class="edge">
<title>Node13&#45;&gt;Node6</title>
<g id="a_edge20_Node000013_Node000006"><a xlink:title=" ">
<path fill="none" stroke="#63b8ff" d="M500.06,-246.58C568.76,-236.18 703.75,-215.36 818,-195.33 827.88,-193.6 838.35,-191.67 848.52,-189.76"/>
<polygon fill="#63b8ff" stroke="#63b8ff" points="849.38,-193.16 858.55,-187.86 848.07,-186.28 849.38,-193.16"/>
</a>
</g>
</g>
<!-- Node13&#45;&gt;Node14 -->
<g id="edge16_Node000013_Node000014" class="edge">
<title>Node13&#45;&gt;Node14</title>
<g id="a_edge16_Node000013_Node000014"><a xlink:title=" ">
<path fill="none" stroke="#63b8ff" d="M472.6,-243.7C496.63,-230.57 539.87,-206.93 567.73,-191.69"/>
<polygon fill="#63b8ff" stroke="#63b8ff" points="569.44,-194.74 576.54,-186.87 566.09,-188.6 569.44,-194.74"/>
</a>
</g>
</g>
<!-- Node16 -->
<g id="Node000016" class="node">
<title>Node16</title>
<g id="a_Node000016"><a target="_parent" xlink:href="https://evjeesm.github.io/vector/group__Properties.html#gaae93d7f0c056c1d11d3232a7a7aa5e09" xlink:title=" ">
<polygon fill="white" stroke="#666666" points="654,-149.83 536,-149.83 536,-130.83 654,-130.83 654,-149.83"/>
<text text-anchor="middle" x="595" y="-137.83" font-family="Mononoki" font-size="10.00">vector_element_size</text>
</a>
</g>
</g>
<!-- Node13&#45;&gt;Node16 -->
<g id="edge21_Node000013_Node000016" class="edge">
<title>Node13&#45;&gt;Node16</title>
<g id="a_edge21_Node000013_Node000016"><a xlink:title=" ">
<path fill="none" stroke="#63b8ff" d="M460.59,-243.68C472.19,-224.53 500.71,-181.59 536,-158.33 538.39,-156.75 540.93,-155.3 543.56,-153.98"/>
<polygon fill="#63b8ff" stroke="#63b8ff" points="545,-157.17 552.74,-149.93 542.18,-150.76 545,-157.17"/>
</a>
</g>
</g>
<!-- Node14&#45;&gt;Node5 -->
<g id="edge17_Node000014_Node000005" class="edge">
<title>Node14&#45;&gt;Node5</title>
<g id="a_edge17_Node000014_Node000005"><a xlink:title=" ">
<path fill="none" stroke="#63b8ff" d="M626.22,-186.92C635.58,-190.63 645.62,-195.44 654,-201.33 690.55,-227.03 723.34,-268.45 740.47,-292.14"/>
<polygon fill="#63b8ff" stroke="#63b8ff" points="737.8,-294.42 746.43,-300.56 743.51,-290.38 737.8,-294.42"/>
</a>
</g>
</g>
<!-- Node15 -->
<g id="Node000015" class="node">
<title>Node15</title>
<g id="a_Node000015"><a target="_parent" xlink:href="https://evjeesm.github.io/vector/group__Elements.html#ga9437d9506a3b2799f595c88b82f160b3" xlink:title=" ">
<polygon fill="white" stroke="#666666" points="788,-186.83 720,-186.83 720,-167.83 788,-167.83 788,-186.83"/>
<text text-anchor="middle" x="754" y="-174.83" font-family="Mononoki" font-size="10.00">vector_get</text>
</a>
</g>
</g>
<!-- Node14&#45;&gt;Node15 -->
<g id="edge18_Node000014_Node000015" class="edge">
<title>Node14&#45;&gt;Node15</title>
<g id="a_edge18_Node000014_Node000015"><a xlink:title=" ">
<path fill="none" stroke="#63b8ff" d="M629.68,-177.33C653.12,-177.33 684.58,-177.33 709.86,-177.33"/>
<polygon fill="#63b8ff" stroke="#63b8ff" points="709.91,-180.83 719.91,-177.33 709.91,-173.83 709.91,-180.83"/>
</a>
</g>
</g>
<!-- Node17&#45;&gt;Node6 -->
<g id="edge24_Node000017_Node000006" class="edge">
<title>Node17&#45;&gt;Node6</title>
<g id="a_edge24_Node000017_Node000006"><a xlink:title=" ">
<path fill="none" stroke="#63b8ff" d="M350.65,-90.71C357.5,-87.72 365.07,-84.4 372,-81.33 490.43,-28.75 526.92,17.97 654,-7.33 731.39,-22.74 754.04,-29.12 818,-75.33 851.02,-99.18 879.92,-137.61 895.28,-160.17"/>
<polygon fill="#63b8ff" stroke="#63b8ff" points="892.56,-162.39 901.01,-168.78 898.39,-158.52 892.56,-162.39"/>
</a>
</g>
</g>
<!-- Node19 -->
<g id="Node000019" class="node">
<title>Node19</title>
<g id="a_Node000019"><a target="_parent" xlink:href="https://evjeesm.github.io/vector/group__Lifetime.html#gae0c0da17ad9469e47ef376a82b6493f3" xlink:title=" ">
<polygon fill="white" stroke="#666666" points="372,-72.83 283,-72.83 283,-53.83 372,-53.83 372,-72.83"/>
<text text-anchor="middle" x="327.5" y="-60.83" font-family="Mononoki" font-size="10.00">vector_destroy</text>
</a>
</g>
</g>
<!-- Node18&#45;&gt;Node19 -->
<g id="edge26_Node000018_Node000019" class="edge">
<title>Node18&#45;&gt;Node19</title>
<g id="a_edge26_Node000018_Node000019"><a xlink:title=" ">
<path fill="none" stroke="#63b8ff" d="M247.24,-63.33C255.5,-63.33 264.23,-63.33 272.74,-63.33"/>
<polygon fill="#63b8ff" stroke="#63b8ff" points="272.99,-66.83 282.99,-63.33 272.99,-59.83 272.99,-66.83"/>
</a>
</g>
</g>
<!-- Node20&#45;&gt;Node6 -->
<g id="edge32_Node000020_Node000006" class="edge">
<title>Node20&#45;&gt;Node6</title>
<g id="a_edge32_Node000020_Node000006"><a xlink:title=" ">
<path fill="none" stroke="#63b8ff" d="M483.95,-95.78C547.03,-82.88 700.63,-59.03 818,-102.33 849.57,-113.97 877.55,-142.36 893.36,-160.96"/>
<polygon fill="#63b8ff" stroke="#63b8ff" points="890.69,-163.21 899.74,-168.71 896.09,-158.77 890.69,-163.21"/>
</a>
</g>
</g>
<!-- Node20&#45;&gt;Node16 -->
<g id="edge34_Node000020_Node000016" class="edge">
<title>Node20&#45;&gt;Node16</title>
<g id="a_edge34_Node000020_Node000016"><a xlink:title=" ">
<path fill="none" stroke="#63b8ff" d="M483.8,-110.2C502.68,-115.36 527.74,-122.21 549.2,-128.08"/>
<polygon fill="#63b8ff" stroke="#63b8ff" points="548.51,-131.52 559.08,-130.78 550.36,-124.77 548.51,-131.52"/>
</a>
</g>
</g>
<!-- Node21 -->
<g id="Node000021" class="node">
<title>Node21</title>
<g id="a_Node000021"><a xlink:href="group__Properties.html#ga745bff084f68eec950fa9ea0b42fb4e7" target="_top" xlink:title="Access initial capacity property.">
<polygon fill="white" stroke="#666666" points="818,-130.83 690,-130.83 690,-111.83 818,-111.83 818,-130.83"/>
<text text-anchor="middle" x="754" y="-118.83" font-family="Mononoki" font-size="10.00">dynarr_initial_capacity</text>
</a>
</g>
</g>
<!-- Node20&#45;&gt;Node21 -->
<g id="edge30_Node000020_Node000021" class="edge">
<title>Node20&#45;&gt;Node21</title>
<g id="a_edge30_Node000020_Node000021"><a xlink:title=" ">
<path fill="none" stroke="#63b8ff" d="M483.57,-104.15C528.28,-107 616.2,-112.61 679.47,-116.64"/>
<polygon fill="#63b8ff" stroke="#63b8ff" points="679.59,-120.15 689.79,-117.3 680.03,-113.17 679.59,-120.15"/>
</a>
</g>
</g>
<!-- Node22 -->
<g id="Node000022" class="node">
<title>Node22</title>
<g id="a_Node000022"><a target="_parent" xlink:href="https://evjeesm.github.io/vector/group__Properties.html#gafe6a5c3c08ddafc9be60051f447be0e1" xlink:title=" ">
<polygon fill="white" stroke="#666666" points="646,-35.83 544,-35.83 544,-16.83 646,-16.83 646,-35.83"/>
<text text-anchor="middle" x="595" y="-23.83" font-family="Mononoki" font-size="10.00">vector_alloc_opts</text>
</a>
</g>
</g>
<!-- Node20&#45;&gt;Node22 -->
<g id="edge33_Node000020_Node000022" class="edge">
<title>Node20&#45;&gt;Node22</title>
<g id="a_edge33_Node000020_Node000022"><a xlink:title=" ">
<path fill="none" stroke="#63b8ff" d="M468.31,-92.73C484.01,-81.66 511.12,-63.33 536,-50.33 543.2,-46.57 551.12,-42.96 558.74,-39.74"/>
<polygon fill="#63b8ff" stroke="#63b8ff" points="560.22,-42.91 568.14,-35.88 557.56,-36.44 560.22,-42.91"/>
</a>
</g>
</g>
<!-- Node21&#45;&gt;Node6 -->
<g id="edge31_Node000021_Node000006" class="edge">
<title>Node21&#45;&gt;Node6</title>
<g id="a_edge31_Node000021_Node000006"><a xlink:title=" ">
<path fill="none" stroke="#63b8ff" d="M780.44,-130.87C805.54,-140.28 844.1,-154.74 872.07,-165.23"/>
<polygon fill="#63b8ff" stroke="#63b8ff" points="870.88,-168.52 881.48,-168.76 873.34,-161.97 870.88,-168.52"/>
</a>
</g>
</g>
</g>
</svg>

<g id="navigator" transform="translate(0 0)" fill="#404254">
  <rect fill="#f2f5e9" fill-opacity="0.5" stroke="#606060" stroke-width=".5" x="0" y="0" width="60" height="60"/>
  <use id="zoomplus" xlink:href="#zoomPlus" x="17" y="9" onmousedown="handleZoom(evt,'in')"/>
  <use id="zoomminus" xlink:href="#zoomMin" x="42" y="9" onmousedown="handleZoom(evt,'out')"/>
  <use id="reset" xlink:href="#resetDef" x="30" y="36" onmousedown="handleReset()"/>
   <use id="arrowup" xlink:href="#arrowUp" x="0" y="0" onmousedown="handlePan(0,-1)"/>
  <use id="arrowright" xlink:href="#arrowRight" x="0" y="0" onmousedown="handlePan(1,0)"/>
  <use id="arrowdown" xlink:href="#arrowDown" x="0" y="0" onmousedown="handlePan(0,1)"/>
  <use id="arrowleft" xlink:href="#arrowLeft" x="0" y="0" onmousedown="handlePan(-1,0)"/>
</g>
<svg viewBox="0 0 15 15" width="100%" height="30px" preserveAspectRatio="xMaxYMin meet">
 <g id="arrow_out" transform="scale(0.3 0.3)">
  <a xlink:href="group__Elements_ga0bfdd0d8fbe0ca29ef26df50dc94f310_cgraph_org.svg" target="_base">
   <rect id="button" ry="5" rx="5" y="6" x="6" height="38" width="38"
        fill="#f2f5e9" fill-opacity="0.5" stroke="#606060" stroke-width="1.0"/>
   <path id="arrow"
     d="M 11.500037,31.436501 C 11.940474,20.09759 22.043105,11.32322 32.158766,21.979434 L 37.068811,17.246167 C 37.068811,17.246167 37.088388,32 37.088388,32 L 22.160133,31.978069 C 22.160133,31.978069 26.997745,27.140456 26.997745,27.140456 C 18.528582,18.264221 13.291696,25.230495 11.500037,31.436501 z"
     style="fill:#404040;"/>
  </a>
 </g>
</svg>

<style type='text/css'>
<![CDATA[
[data-mouse-over-selected='false'] { opacity: 0.7; }
[data-mouse-over-selected='true']  { opacity: 1.0; }
]]>
</style>
<script type="application/ecmascript"><![CDATA[
document.addEventListener('DOMContentLoaded', (event) => {
  highlightEdges();
  highlightAdjacentNodes();
});
]]></script>
</svg>
