<?xml version="1.0" encoding="UTF-8" standalone="no"?>
<!DOCTYPE svg PUBLIC "-//W3C//DTD SVG 1.1//EN"
 "http://www.w3.org/Graphics/SVG/1.1/DTD/svg11.dtd">
<!-- Generated by graphviz version 2.43.0 (0)
 -->
<!-- Title: dynarr_remove_range Pages: 1 -->
<svg width="666pt" height="192pt"
 viewBox="0.00 0.00 666.00 191.86" xmlns="http://www.w3.org/2000/svg" xmlns:xlink="http://www.w3.org/1999/xlink">
<g id="graph0" class="graph" transform="scale(1 1) rotate(0) translate(4 187.86)">
<title>dynarr_remove_range</title>
<!-- Node1 -->
<g id="Node000001" class="node">
<title>Node1</title>
<g id="a_Node000001"><a xlink:title=" ">
<polygon fill="#999999" stroke="#666666" points="124,-94 0,-94 0,-75 124,-75 124,-94"/>
<text text-anchor="middle" x="62" y="-82" font-family="Mononoki" font-size="10.00">dynarr_remove_range</text>
</a>
</g>
</g>
<!-- Node2 -->
<g id="Node000002" class="node">
<title>Node2</title>
<g id="a_Node000002"><a xlink:href="group__Dynarr__API.html#gaf5c43e2644d185b9b01065af34ed6e29" target="_top" xlink:title=" ">
<polygon fill="white" stroke="#666666" points="486.5,-132 413.5,-132 413.5,-113 486.5,-113 486.5,-132"/>
<text text-anchor="middle" x="450" y="-120" font-family="Mononoki" font-size="10.00">dynarr_size</text>
</a>
</g>
</g>
<!-- Node1&#45;&gt;Node2 -->
<g id="edge1_Node000001_Node000002" class="edge">
<title>Node1&#45;&gt;Node2</title>
<g id="a_edge1_Node000001_Node000002"><a xlink:title=" ">
<path fill="none" stroke="#63b8ff" d="M124.16,-90.52C201.71,-98.16 333.64,-111.14 403.1,-117.98"/>
<polygon fill="#63b8ff" stroke="#63b8ff" points="403,-121.49 413.29,-118.98 403.68,-114.52 403,-121.49"/>
</a>
</g>
</g>
<!-- Node4 -->
<g id="Node000004" class="node">
<title>Node4</title>
<g id="a_Node000004"><a xlink:href="group__Auto-resize.html#ga9ff20c2ac9693f6d8f0ea97f9b46539c" target="_top" xlink:title=" ">
<polygon fill="white" stroke="#666666" points="245,-151 160,-151 160,-132 245,-132 245,-151"/>
<text text-anchor="middle" x="202.5" y="-139" font-family="Mononoki" font-size="10.00">free_space_at</text>
</a>
</g>
</g>
<!-- Node1&#45;&gt;Node4 -->
<g id="edge3_Node000001_Node000004" class="edge">
<title>Node1&#45;&gt;Node4</title>
<g id="a_edge3_Node000001_Node000004"><a xlink:title=" ">
<path fill="none" stroke="#63b8ff" d="M86.18,-94.04C108.75,-103.33 143.27,-117.54 168.66,-127.99"/>
<polygon fill="#63b8ff" stroke="#63b8ff" points="167.66,-131.36 178.24,-131.93 170.33,-124.89 167.66,-131.36"/>
</a>
</g>
</g>
<!-- Node6 -->
<g id="Node000006" class="node">
<title>Node6</title>
<g id="a_Node000006"><a xlink:href="group__Auto-resize.html#ga8eb6c0a577084ccd7a64bec67b8bdbbe" target="_top" xlink:title=" ">
<polygon fill="white" stroke="#666666" points="339,-56 292,-56 292,-37 339,-37 339,-56"/>
<text text-anchor="middle" x="315.5" y="-44" font-family="Mononoki" font-size="10.00">shrink</text>
</a>
</g>
</g>
<!-- Node1&#45;&gt;Node6 -->
<g id="edge8_Node000001_Node000006" class="edge">
<title>Node1&#45;&gt;Node6</title>
<g id="a_edge8_Node000001_Node000006"><a xlink:title=" ">
<path fill="none" stroke="#63b8ff" d="M124.2,-75.25C173.85,-67.75 241.93,-57.47 281.76,-51.45"/>
<polygon fill="#63b8ff" stroke="#63b8ff" points="282.36,-54.9 291.73,-49.94 281.32,-47.97 282.36,-54.9"/>
</a>
</g>
</g>
<!-- Node3 -->
<g id="Node000003" class="node">
<title>Node3</title>
<g id="a_Node000003"><a xlink:href="dynarr_8c.html#a73f42f3f25cd0920d8039d63ea31be07" target="_top" xlink:title=" ">
<polygon fill="white" stroke="#666666" points="658,-113 550,-113 550,-94 658,-94 658,-113"/>
<text text-anchor="middle" x="604" y="-101" font-family="Mononoki" font-size="10.00">get_dynarr_header</text>
</a>
</g>
</g>
<!-- Node2&#45;&gt;Node3 -->
<g id="edge2_Node000002_Node000003" class="edge">
<title>Node2&#45;&gt;Node3</title>
<g id="a_edge2_Node000002_Node000003"><a xlink:title=" ">
<path fill="none" stroke="#63b8ff" d="M486.64,-118.05C502.48,-116.06 521.62,-113.67 539.76,-111.4"/>
<polygon fill="#63b8ff" stroke="#63b8ff" points="540.22,-114.87 549.71,-110.16 539.36,-107.93 540.22,-114.87"/>
</a>
</g>
</g>
<!-- Node4&#45;&gt;Node2 -->
<g id="edge6_Node000004_Node000002" class="edge">
<title>Node4&#45;&gt;Node2</title>
<g id="a_edge6_Node000004_Node000002"><a xlink:title=" ">
<path fill="none" stroke="#63b8ff" d="M245.15,-138.28C288.93,-134.89 357.64,-129.57 403,-126.06"/>
<polygon fill="#63b8ff" stroke="#63b8ff" points="403.45,-129.54 413.15,-125.27 402.91,-122.56 403.45,-129.54"/>
</a>
</g>
</g>
<!-- Node4&#45;&gt;Node3 -->
<g id="edge7_Node000004_Node000003" class="edge">
<title>Node4&#45;&gt;Node3</title>
<g id="a_edge7_Node000004_Node000003"><a xlink:title=" ">
<path fill="none" stroke="#63b8ff" d="M217.89,-151.06C232.9,-160.42 257.5,-174.05 281,-179.5 310.87,-186.43 319.54,-183.07 350,-179.5 424.41,-170.77 442.74,-163.62 514,-140.5 534.09,-133.98 556.01,-124.9 573.06,-117.36"/>
<polygon fill="#63b8ff" stroke="#63b8ff" points="574.8,-120.42 582.49,-113.13 571.94,-114.03 574.8,-120.42"/>
</a>
</g>
</g>
<!-- Node5 -->
<g id="Node000005" class="node">
<title>Node5</title>
<g id="a_Node000005"><a xlink:href="group__Dynarr__API.html#ga93c32dd116523090126d427cce08e114" target="_top" xlink:title=" ">
<polygon fill="white" stroke="#666666" points="350,-170 281,-170 281,-151 350,-151 350,-170"/>
<text text-anchor="middle" x="315.5" y="-158" font-family="Mononoki" font-size="10.00">dynarr_get</text>
</a>
</g>
</g>
<!-- Node4&#45;&gt;Node5 -->
<g id="edge4_Node000004_Node000005" class="edge">
<title>Node4&#45;&gt;Node5</title>
<g id="a_edge4_Node000004_Node000005"><a xlink:title=" ">
<path fill="none" stroke="#63b8ff" d="M245.15,-148.63C253.55,-150.07 262.39,-151.58 270.86,-153.03"/>
<polygon fill="#63b8ff" stroke="#63b8ff" points="270.49,-156.52 280.93,-154.75 271.67,-149.62 270.49,-156.52"/>
</a>
</g>
</g>
<!-- Node5&#45;&gt;Node2 -->
<g id="edge5_Node000005_Node000002" class="edge">
<title>Node5&#45;&gt;Node2</title>
<g id="a_edge5_Node000005_Node000002"><a xlink:title=" ">
<path fill="none" stroke="#63b8ff" d="M349.94,-150.91C366.88,-146.05 387.66,-140.09 405.81,-134.89"/>
<polygon fill="#63b8ff" stroke="#63b8ff" points="406.93,-138.21 415.58,-132.09 405,-131.48 406.93,-138.21"/>
</a>
</g>
</g>
<!-- Node6&#45;&gt;Node2 -->
<g id="edge12_Node000006_Node000002" class="edge">
<title>Node6&#45;&gt;Node2</title>
<g id="a_edge12_Node000006_Node000002"><a xlink:title=" ">
<path fill="none" stroke="#63b8ff" d="M330.28,-56.19C336.36,-60.51 343.58,-65.71 350,-70.5 366.24,-82.63 368.33,-88.56 386,-98.5 393.18,-102.54 401.17,-106.17 408.99,-109.32"/>
<polygon fill="#63b8ff" stroke="#63b8ff" points="407.78,-112.6 418.37,-112.9 410.28,-106.06 407.78,-112.6"/>
</a>
</g>
</g>
<!-- Node6&#45;&gt;Node3 -->
<g id="edge13_Node000006_Node000003" class="edge">
<title>Node6&#45;&gt;Node3</title>
<g id="a_edge13_Node000006_Node000003"><a xlink:title=" ">
<path fill="none" stroke="#63b8ff" d="M339.25,-52.85C352.77,-56.52 370.29,-61.06 386,-64.5 437.4,-75.76 496.18,-86.17 539.58,-93.4"/>
<polygon fill="#63b8ff" stroke="#63b8ff" points="539.28,-96.9 549.72,-95.08 540.42,-89.99 539.28,-96.9"/>
</a>
</g>
</g>
<!-- Node7 -->
<g id="Node000007" class="node">
<title>Node7</title>
<g id="a_Node000007"><a xlink:href="group__Dynarr__API.html#ga3ff11107726213a640d814b63cb123b2" target="_top" xlink:title=" ">
<polygon fill="white" stroke="#666666" points="497.5,-56 402.5,-56 402.5,-37 497.5,-37 497.5,-56"/>
<text text-anchor="middle" x="450" y="-44" font-family="Mononoki" font-size="10.00">dynarr_capacity</text>
</a>
</g>
</g>
<!-- Node6&#45;&gt;Node7 -->
<g id="edge9_Node000006_Node000007" class="edge">
<title>Node6&#45;&gt;Node7</title>
<g id="a_edge9_Node000006_Node000007"><a xlink:title=" ">
<path fill="none" stroke="#63b8ff" d="M339.28,-46.5C353.89,-46.5 373.54,-46.5 392.18,-46.5"/>
<polygon fill="#63b8ff" stroke="#63b8ff" points="392.4,-50 402.4,-46.5 392.4,-43 392.4,-50"/>
</a>
</g>
</g>
<!-- Node8 -->
<g id="Node000008" class="node">
<title>Node8</title>
<g id="a_Node000008"><a xlink:href="group__Dynarr__API.html#ga745bff084f68eec950fa9ea0b42fb4e7" target="_top" xlink:title=" ">
<polygon fill="white" stroke="#666666" points="514,-19 386,-19 386,0 514,0 514,-19"/>
<text text-anchor="middle" x="450" y="-7" font-family="Mononoki" font-size="10.00">dynarr_initial_capacity</text>
</a>
</g>
</g>
<!-- Node6&#45;&gt;Node8 -->
<g id="edge10_Node000006_Node000008" class="edge">
<title>Node6&#45;&gt;Node8</title>
<g id="a_edge10_Node000006_Node000008"><a xlink:title=" ">
<path fill="none" stroke="#63b8ff" d="M339.28,-40.14C357.31,-35.1 383.03,-27.92 405.04,-21.78"/>
<polygon fill="#63b8ff" stroke="#63b8ff" points="406.16,-25.1 414.85,-19.04 404.27,-18.36 406.16,-25.1"/>
</a>
</g>
</g>
<!-- Node8&#45;&gt;Node3 -->
<g id="edge11_Node000008_Node000003" class="edge">
<title>Node8&#45;&gt;Node3</title>
<g id="a_edge11_Node000008_Node000003"><a xlink:title=" ">
<path fill="none" stroke="#63b8ff" d="M494,-19.1C500.89,-21.39 507.79,-24.17 514,-27.5 542.77,-42.94 570.49,-68.94 587.14,-86.16"/>
<polygon fill="#63b8ff" stroke="#63b8ff" points="584.97,-88.96 594.39,-93.83 590.06,-84.16 584.97,-88.96"/>
</a>
</g>
</g>
</g>
</svg>
