<?xml version="1.0" encoding="UTF-8" standalone="no"?>
<!DOCTYPE svg PUBLIC "-//W3C//DTD SVG 1.1//EN"
 "http://www.w3.org/Graphics/SVG/1.1/DTD/svg11.dtd">
<!-- Generated by graphviz version 2.43.0 (0)
 -->
<!-- Title: dynarr_binary_insert_uniq Pages: 1 -->
<!--zoomable 298 -->

<svg id="main" version="1.1" xmlns="http://www.w3.org/2000/svg" xmlns:xlink="http://www.w3.org/1999/xlink" xml:space="preserve" onload="init(evt)">
<style type="text/css"><![CDATA[
.node, .edge {opacity: 0.7;}
.node.selected, .edge.selected {opacity: 1;}
.edge:hover path { stroke: red; }
.edge:hover polygon { stroke: red; fill: red; }
]]></style>

<defs>
  <circle id="rim" cx="0" cy="0" r="7"/>
  <circle id="rim2" cx="0" cy="0" r="3.5"/>
  <g id="zoomPlus">
    <use xlink:href="#rim" fill="#404040"><set attributeName="fill" to="#808080" begin="zoomplus.mouseover" end="zoomplus.mouseout"/></use>
    <path d="M-4,0h8M0,-4v8" fill="none" stroke="white" stroke-width="1.5" pointer-events="none"/>
  </g>
  <g id="zoomMin">
    <use xlink:href="#rim" fill="#404040"><set attributeName="fill" to="#808080" begin="zoomminus.mouseover" end="zoomminus.mouseout"/></use>
    <path d="M-4,0h8" fill="none" stroke="white" stroke-width="1.5" pointer-events="none"/>
  </g>
  <g id="arrowUp" transform="translate(30 24)">
    <use xlink:href="#rim"/>
    <path pointer-events="none" fill="none" stroke="white" stroke-width="1.5" d="M0,-3.0v7 M-2.5,-0.5L0,-3.0L2.5,-0.5"/>
  </g>
  <g id="arrowRight" transform="rotate(90) translate(36 -43)">
    <use xlink:href="#rim"/>
    <path pointer-events="none" fill="none" stroke="white" stroke-width="1.5" d="M0,-3.0v7 M-2.5,-0.5L0,-3.0L2.5,-0.5"/>
  </g>
  <g id="arrowDown" transform="rotate(180) translate(-30 -48)">
    <use xlink:href="#rim"/>
    <path pointer-events="none" fill="none" stroke="white" stroke-width="1.5" d="M0,-3.0v7 M-2.5,-0.5L0,-3.0L2.5,-0.5"/>
  </g>
  <g id="arrowLeft" transform="rotate(270) translate(-36 17)">
    <use xlink:href="#rim"/>
    <path pointer-events="none" fill="none" stroke="white" stroke-width="1.5" d="M0,-3.0v7 M-2.5,-0.5L0,-3.0L2.5,-0.5"/>
  </g>
  <g id="resetDef">
    <use xlink:href="#rim2" fill="#404040"><set attributeName="fill" to="#808080" begin="reset.mouseover" end="reset.mouseout"/></use>
  </g>
</defs>
<script type="application/ecmascript">
var viewWidth = 967;
var viewHeight = 298;
var sectionId = 'dynsection-23';
</script>
<script type="application/ecmascript" xlink:href="svg.min.js"/>
<svg id="graph" class="graph">
<g id="viewport">
<title>dynarr_binary_insert_uniq</title>
<!-- Node1 -->
<g id="Node000001" class="node">
<title>Node1</title>
<g id="a_Node000001"><a xlink:title="Same as dynarr_binary_insert except does not inserts duplicates.">
<polygon fill="#999999" stroke="#666666" points="143,-234 0,-234 0,-215 143,-215 143,-234"/>
<text text-anchor="middle" x="71.5" y="-222" font-family="Mononoki" font-size="10.00">dynarr_binary_insert_uniq</text>
</a>
</g>
</g>
<!-- Node2 -->
<g id="Node000002" class="node">
<title>Node2</title>
<g id="a_Node000002"><a xlink:href="group__Dynarr__API.html#ga8592e4d2a568f36dbcb1bce45a4b1460" target="_top" xlink:title=" ">
<polygon fill="white" stroke="#666666" points="291,-289.5 184,-289.5 184,-259.5 291,-259.5 291,-289.5"/>
<text text-anchor="start" x="192" y="-277.5" font-family="Mononoki" font-size="10.00">dynarr_binary_find</text>
<text text-anchor="middle" x="237.5" y="-266.5" font-family="Mononoki" font-size="10.00">_index</text>
</a>
</g>
</g>
<!-- Node1&#45;&gt;Node2 -->
<g id="edge1_Node000001_Node000002" class="edge">
<title>Node1&#45;&gt;Node2</title>
<g id="a_edge1_Node000001_Node000002"><a xlink:title=" ">
<path fill="none" stroke="#63b8ff" d="M103.73,-234.02C124.49,-240.35 152.4,-248.86 177.28,-256.44"/>
<polygon fill="#63b8ff" stroke="#63b8ff" points="176.41,-259.84 187,-259.41 178.46,-253.14 176.41,-259.84"/>
</a>
</g>
</g>
<!-- Node5 -->
<g id="Node000005" class="node">
<title>Node5</title>
<g id="a_Node000005"><a xlink:href="group__Dynarr__API.html#gad2dd0b992152881697da2073a0c840d7" target="_top" xlink:title=" ">
<polygon fill="white" stroke="#666666" points="296,-213 179,-213 179,-194 296,-194 296,-213"/>
<text text-anchor="middle" x="237.5" y="-201" font-family="Mononoki" font-size="10.00">dynarr_binary_insert</text>
</a>
</g>
</g>
<!-- Node1&#45;&gt;Node5 -->
<g id="edge4_Node000001_Node000005" class="edge">
<title>Node1&#45;&gt;Node5</title>
<g id="a_edge4_Node000001_Node000005"><a xlink:title=" ">
<path fill="none" stroke="#63b8ff" d="M143,-215.47C151.61,-214.37 160.4,-213.24 168.96,-212.15"/>
<polygon fill="#63b8ff" stroke="#63b8ff" points="169.42,-215.62 178.9,-210.88 168.53,-208.67 169.42,-215.62"/>
</a>
</g>
</g>
<!-- Node3 -->
<g id="Node000003" class="node">
<title>Node3</title>
<g id="a_Node000003"><a xlink:href="group__Dynarr__API.html#gaf5c43e2644d185b9b01065af34ed6e29" target="_top" xlink:title=" ">
<polygon fill="white" stroke="#666666" points="804,-151 731,-151 731,-132 804,-132 804,-151"/>
<text text-anchor="middle" x="767.5" y="-139" font-family="Mononoki" font-size="10.00">dynarr_size</text>
</a>
</g>
</g>
<!-- Node2&#45;&gt;Node3 -->
<g id="edge2_Node000002_Node000003" class="edge">
<title>Node2&#45;&gt;Node3</title>
<g id="a_edge2_Node000002_Node000003"><a xlink:title=" ">
<path fill="none" stroke="#63b8ff" d="M291.04,-280.89C378.47,-288.96 556.76,-294.35 684,-224.5 713.37,-208.38 739.13,-178.59 753.75,-159.43"/>
<polygon fill="#63b8ff" stroke="#63b8ff" points="756.69,-161.34 759.82,-151.22 751.06,-157.18 756.69,-161.34"/>
</a>
</g>
</g>
<!-- Node4 -->
<g id="Node000004" class="node">
<title>Node4</title>
<g id="a_Node000004"><a xlink:href="dynarr_8c.html#a73f42f3f25cd0920d8039d63ea31be07" target="_top" xlink:title=" ">
<polygon fill="white" stroke="#666666" points="959,-94 851,-94 851,-75 959,-75 959,-94"/>
<text text-anchor="middle" x="905" y="-82" font-family="Mononoki" font-size="10.00">get_dynarr_header</text>
</a>
</g>
</g>
<!-- Node3&#45;&gt;Node4 -->
<g id="edge3_Node000003_Node000004" class="edge">
<title>Node3&#45;&gt;Node4</title>
<g id="a_edge3_Node000003_Node000004"><a xlink:title=" ">
<path fill="none" stroke="#63b8ff" d="M791.18,-131.96C813.26,-122.67 847.03,-108.46 871.87,-98.01"/>
<polygon fill="#63b8ff" stroke="#63b8ff" points="873.39,-101.18 881.25,-94.07 870.67,-94.72 873.39,-101.18"/>
</a>
</g>
</g>
<!-- Node6 -->
<g id="Node000006" class="node">
<title>Node6</title>
<g id="a_Node000006"><a xlink:href="group__Dynarr__API.html#ga5f6a46fc8cc0cfe14d98926cadbaa35d" target="_top" xlink:title=" ">
<polygon fill="white" stroke="#666666" points="439,-218.5 332,-218.5 332,-188.5 439,-188.5 439,-218.5"/>
<text text-anchor="start" x="340" y="-206.5" font-family="Mononoki" font-size="10.00">dynarr_binary_find</text>
<text text-anchor="middle" x="385.5" y="-195.5" font-family="Mononoki" font-size="10.00">_insert_place</text>
</a>
</g>
</g>
<!-- Node5&#45;&gt;Node6 -->
<g id="edge5_Node000005_Node000006" class="edge">
<title>Node5&#45;&gt;Node6</title>
<g id="a_edge5_Node000005_Node000006"><a xlink:title=" ">
<path fill="none" stroke="#63b8ff" d="M296.2,-203.5C304.59,-203.5 313.26,-203.5 321.74,-203.5"/>
<polygon fill="#63b8ff" stroke="#63b8ff" points="321.96,-207 331.96,-203.5 321.96,-200 321.96,-207"/>
</a>
</g>
</g>
<!-- Node9 -->
<g id="Node000009" class="node">
<title>Node9</title>
<g id="a_Node000009"><a xlink:href="group__Dynarr__API.html#gab449a79e6b33f55af35329df4363336e" target="_top" xlink:title=" ">
<polygon fill="white" stroke="#666666" points="426,-118 345,-118 345,-99 426,-99 426,-118"/>
<text text-anchor="middle" x="385.5" y="-106" font-family="Mononoki" font-size="10.00">dynarr_insert</text>
</a>
</g>
</g>
<!-- Node5&#45;&gt;Node9 -->
<g id="edge11_Node000005_Node000009" class="edge">
<title>Node5&#45;&gt;Node9</title>
<g id="a_edge11_Node000005_Node000009"><a xlink:title=" ">
<path fill="none" stroke="#63b8ff" d="M253.3,-193.87C278.66,-177.37 330.61,-143.56 360.98,-123.8"/>
<polygon fill="#63b8ff" stroke="#63b8ff" points="363.19,-126.55 369.66,-118.16 359.37,-120.68 363.19,-126.55"/>
</a>
</g>
</g>
<!-- Node6&#45;&gt;Node3 -->
<g id="edge10_Node000006_Node000003" class="edge">
<title>Node6&#45;&gt;Node3</title>
<g id="a_edge10_Node000006_Node000003"><a xlink:title=" ">
<path fill="none" stroke="#63b8ff" d="M425.09,-218.54C440.38,-223.74 458.28,-228.92 475,-231.5 520.68,-238.55 533.41,-239.1 579,-231.5 627.66,-223.39 639.68,-217.18 684,-195.5 706.19,-184.65 729.57,-168.88 745.75,-157.18"/>
<polygon fill="#63b8ff" stroke="#63b8ff" points="747.97,-159.89 753.95,-151.15 743.82,-154.25 747.97,-159.89"/>
</a>
</g>
</g>
<!-- Node7 -->
<g id="Node000007" class="node">
<title>Node7</title>
<g id="a_Node000007"><a xlink:href="dynarr_8c.html#a187b18732062f4f69486553f37697739" target="_top" xlink:title=" ">
<polygon fill="white" stroke="#666666" points="579,-204.5 475,-204.5 475,-174.5 579,-174.5 579,-204.5"/>
<text text-anchor="start" x="483" y="-192.5" font-family="Mononoki" font-size="10.00">binary_find_insert</text>
<text text-anchor="middle" x="527" y="-181.5" font-family="Mononoki" font-size="10.00">_place</text>
</a>
</g>
</g>
<!-- Node6&#45;&gt;Node7 -->
<g id="edge6_Node000006_Node000007" class="edge">
<title>Node6&#45;&gt;Node7</title>
<g id="a_edge6_Node000006_Node000007"><a xlink:title=" ">
<path fill="none" stroke="#63b8ff" d="M439.24,-198.21C447.47,-197.38 456.03,-196.52 464.43,-195.68"/>
<polygon fill="#63b8ff" stroke="#63b8ff" points="464.97,-199.14 474.57,-194.66 464.27,-192.18 464.97,-199.14"/>
</a>
</g>
</g>
<!-- Node7&#45;&gt;Node7 -->
<g id="edge7_Node000007_Node000007" class="edge">
<title>Node7&#45;&gt;Node7</title>
<g id="a_edge7_Node000007_Node000007"><a xlink:title=" ">
<path fill="none" stroke="#63b8ff" d="M505.55,-204.78C500.79,-213.91 507.94,-222.5 527,-222.5 538.32,-222.5 545.44,-219.47 548.35,-215.1"/>
<polygon fill="#63b8ff" stroke="#63b8ff" points="551.86,-214.81 548.45,-204.78 544.86,-214.74 551.86,-214.81"/>
</a>
</g>
</g>
<!-- Node8 -->
<g id="Node000008" class="node">
<title>Node8</title>
<g id="a_Node000008"><a xlink:href="group__Dynarr__API.html#ga93c32dd116523090126d427cce08e114" target="_top" xlink:title=" ">
<polygon fill="white" stroke="#666666" points="684,-170 615,-170 615,-151 684,-151 684,-170"/>
<text text-anchor="middle" x="649.5" y="-158" font-family="Mononoki" font-size="10.00">dynarr_get</text>
</a>
</g>
</g>
<!-- Node7&#45;&gt;Node8 -->
<g id="edge8_Node000007_Node000008" class="edge">
<title>Node7&#45;&gt;Node8</title>
<g id="a_edge8_Node000007_Node000008"><a xlink:title=" ">
<path fill="none" stroke="#63b8ff" d="M579.1,-177.2C587.68,-175.14 596.5,-173.01 604.87,-171"/>
<polygon fill="#63b8ff" stroke="#63b8ff" points="605.89,-174.36 614.79,-168.61 604.25,-167.55 605.89,-174.36"/>
</a>
</g>
</g>
<!-- Node8&#45;&gt;Node3 -->
<g id="edge9_Node000008_Node000003" class="edge">
<title>Node8&#45;&gt;Node3</title>
<g id="a_edge9_Node000008_Node000003"><a xlink:title=" ">
<path fill="none" stroke="#63b8ff" d="M684.05,-155C695.45,-153.14 708.39,-151.02 720.58,-149.02"/>
<polygon fill="#63b8ff" stroke="#63b8ff" points="721.29,-152.45 730.59,-147.38 720.16,-145.54 721.29,-152.45"/>
</a>
</g>
</g>
<!-- Node9&#45;&gt;Node3 -->
<g id="edge14_Node000009_Node000003" class="edge">
<title>Node9&#45;&gt;Node3</title>
<g id="a_edge14_Node000009_Node000003"><a xlink:title=" ">
<path fill="none" stroke="#63b8ff" d="M421.11,-118.09C459.8,-128.96 524.19,-147.51 579,-165.5 595.16,-170.81 598.24,-175.57 615,-178.5 645.21,-183.79 654.01,-184.92 684,-178.5 704.21,-174.18 725.46,-164.51 741.33,-156.14"/>
<polygon fill="#63b8ff" stroke="#63b8ff" points="743.35,-159.02 750.45,-151.16 740,-152.88 743.35,-159.02"/>
</a>
</g>
</g>
<!-- Node10 -->
<g id="Node000010" class="node">
<title>Node10</title>
<g id="a_Node000010"><a xlink:href="group__Dynarr__API.html#ga30d508a9f387e2227dd0d72a8bfd2a39" target="_top" xlink:title=" ">
<polygon fill="white" stroke="#666666" points="683.5,-56 615.5,-56 615.5,-37 683.5,-37 683.5,-56"/>
<text text-anchor="middle" x="649.5" y="-44" font-family="Mononoki" font-size="10.00">dynarr_set</text>
</a>
</g>
</g>
<!-- Node9&#45;&gt;Node10 -->
<g id="edge12_Node000009_Node000010" class="edge">
<title>Node9&#45;&gt;Node10</title>
<g id="a_edge12_Node000009_Node000010"><a xlink:title=" ">
<path fill="none" stroke="#63b8ff" d="M426.01,-99.15C474.29,-87.73 555.68,-68.46 605.5,-56.68"/>
<polygon fill="#63b8ff" stroke="#63b8ff" points="606.4,-60.06 615.32,-54.35 604.79,-53.25 606.4,-60.06"/>
</a>
</g>
</g>
<!-- Node11 -->
<g id="Node000011" class="node">
<title>Node11</title>
<g id="a_Node000011"><a xlink:href="group__Auto-resize.html#ga036b69c5b674d3ac22027b04ba235b42" target="_top" xlink:title=" ">
<polygon fill="white" stroke="#666666" points="670,-19 629,-19 629,0 670,0 670,-19"/>
<text text-anchor="middle" x="649.5" y="-7" font-family="Mononoki" font-size="10.00">grow</text>
</a>
</g>
</g>
<!-- Node9&#45;&gt;Node11 -->
<g id="edge15_Node000009_Node000011" class="edge">
<title>Node9&#45;&gt;Node11</title>
<g id="a_edge15_Node000009_Node000011"><a xlink:title=" ">
<path fill="none" stroke="#63b8ff" d="M401.33,-98.92C418.5,-88.16 447.91,-70.74 475,-59.5 523.81,-39.26 583.56,-24 618.69,-15.93"/>
<polygon fill="#63b8ff" stroke="#63b8ff" points="619.77,-19.27 628.76,-13.66 618.23,-12.44 619.77,-19.27"/>
</a>
</g>
</g>
<!-- Node13 -->
<g id="Node000013" class="node">
<title>Node13</title>
<g id="a_Node000013"><a xlink:href="group__Auto-resize.html#gadb26f84b95f0ca45c7ccbd72e337485a" target="_top" xlink:title=" ">
<polygon fill="white" stroke="#666666" points="573,-118 481,-118 481,-99 573,-99 573,-118"/>
<text text-anchor="middle" x="527" y="-106" font-family="Mononoki" font-size="10.00">make_space_at</text>
</a>
</g>
</g>
<!-- Node9&#45;&gt;Node13 -->
<g id="edge19_Node000009_Node000013" class="edge">
<title>Node9&#45;&gt;Node13</title>
<g id="a_edge19_Node000009_Node000013"><a xlink:title=" ">
<path fill="none" stroke="#63b8ff" d="M426.1,-108.5C439.98,-108.5 455.82,-108.5 470.74,-108.5"/>
<polygon fill="#63b8ff" stroke="#63b8ff" points="470.89,-112 480.89,-108.5 470.89,-105 470.89,-112"/>
</a>
</g>
</g>
<!-- Node10&#45;&gt;Node3 -->
<g id="edge13_Node000010_Node000003" class="edge">
<title>Node10&#45;&gt;Node3</title>
<g id="a_edge13_Node000010_Node000003"><a xlink:title=" ">
<path fill="none" stroke="#63b8ff" d="M662.48,-56.31C682.46,-72.68 722.8,-105.71 746.95,-125.49"/>
<polygon fill="#63b8ff" stroke="#63b8ff" points="744.81,-128.26 754.76,-131.89 749.24,-122.84 744.81,-128.26"/>
</a>
</g>
</g>
<!-- Node11&#45;&gt;Node3 -->
<g id="edge17_Node000011_Node000003" class="edge">
<title>Node11&#45;&gt;Node3</title>
<g id="a_edge17_Node000011_Node000003"><a xlink:title=" ">
<path fill="none" stroke="#63b8ff" d="M670.24,-18.2C675.02,-20.81 679.93,-23.94 684,-27.5 716.16,-55.63 742.89,-98.54 756.59,-122.9"/>
<polygon fill="#63b8ff" stroke="#63b8ff" points="753.61,-124.74 761.49,-131.82 759.75,-121.37 753.61,-124.74"/>
</a>
</g>
</g>
<!-- Node11&#45;&gt;Node4 -->
<g id="edge18_Node000011_Node000004" class="edge">
<title>Node11&#45;&gt;Node4</title>
<g id="a_edge18_Node000011_Node000004"><a xlink:title=" ">
<path fill="none" stroke="#63b8ff" d="M670.13,-8.8C701.64,-8.3 765.02,-9.86 815,-27.5 841.23,-36.76 867.6,-55.04 884.75,-68.41"/>
<polygon fill="#63b8ff" stroke="#63b8ff" points="882.83,-71.36 892.83,-74.88 887.21,-65.89 882.83,-71.36"/>
</a>
</g>
</g>
<!-- Node12 -->
<g id="Node000012" class="node">
<title>Node12</title>
<g id="a_Node000012"><a xlink:href="group__Dynarr__API.html#ga3ff11107726213a640d814b63cb123b2" target="_top" xlink:title=" ">
<polygon fill="white" stroke="#666666" points="815,-56 720,-56 720,-37 815,-37 815,-56"/>
<text text-anchor="middle" x="767.5" y="-44" font-family="Mononoki" font-size="10.00">dynarr_capacity</text>
</a>
</g>
</g>
<!-- Node11&#45;&gt;Node12 -->
<g id="edge16_Node000011_Node000012" class="edge">
<title>Node11&#45;&gt;Node12</title>
<g id="a_edge16_Node000011_Node000012"><a xlink:title=" ">
<path fill="none" stroke="#63b8ff" d="M670.18,-15.78C685.7,-20.73 707.85,-27.79 727,-33.9"/>
<polygon fill="#63b8ff" stroke="#63b8ff" points="726.1,-37.29 736.69,-36.99 728.22,-30.62 726.1,-37.29"/>
</a>
</g>
</g>
<!-- Node13&#45;&gt;Node3 -->
<g id="edge21_Node000013_Node000003" class="edge">
<title>Node13&#45;&gt;Node3</title>
<g id="a_edge21_Node000013_Node000003"><a xlink:title=" ">
<path fill="none" stroke="#63b8ff" d="M573.14,-114.75C615.43,-120.6 678.33,-129.3 720.8,-135.18"/>
<polygon fill="#63b8ff" stroke="#63b8ff" points="720.49,-138.67 730.87,-136.57 721.45,-131.73 720.49,-138.67"/>
</a>
</g>
</g>
<!-- Node13&#45;&gt;Node4 -->
<g id="edge22_Node000013_Node000004" class="edge">
<title>Node13&#45;&gt;Node4</title>
<g id="a_edge22_Node000013_Node000004"><a xlink:title=" ">
<path fill="none" stroke="#63b8ff" d="M573.35,-105.61C640.04,-101.35 764.83,-93.38 840.57,-88.55"/>
<polygon fill="#63b8ff" stroke="#63b8ff" points="841.17,-92.02 850.92,-87.89 840.72,-85.03 841.17,-92.02"/>
</a>
</g>
</g>
<!-- Node13&#45;&gt;Node8 -->
<g id="edge20_Node000013_Node000008" class="edge">
<title>Node13&#45;&gt;Node8</title>
<g id="a_edge20_Node000013_Node000008"><a xlink:title=" ">
<path fill="none" stroke="#63b8ff" d="M550.1,-118.04C568.75,-126.09 595.69,-137.71 616.67,-146.76"/>
<polygon fill="#63b8ff" stroke="#63b8ff" points="615.56,-150.1 626.13,-150.85 618.34,-143.67 615.56,-150.1"/>
</a>
</g>
</g>
</g>
</svg>

<g id="navigator" transform="translate(0 0)" fill="#404254">
  <rect fill="#f2f5e9" fill-opacity="0.5" stroke="#606060" stroke-width=".5" x="0" y="0" width="60" height="60"/>
  <use id="zoomplus" xlink:href="#zoomPlus" x="17" y="9" onmousedown="handleZoom(evt,'in')"/>
  <use id="zoomminus" xlink:href="#zoomMin" x="42" y="9" onmousedown="handleZoom(evt,'out')"/>
  <use id="reset" xlink:href="#resetDef" x="30" y="36" onmousedown="handleReset()"/>
   <use id="arrowup" xlink:href="#arrowUp" x="0" y="0" onmousedown="handlePan(0,-1)"/>
  <use id="arrowright" xlink:href="#arrowRight" x="0" y="0" onmousedown="handlePan(1,0)"/>
  <use id="arrowdown" xlink:href="#arrowDown" x="0" y="0" onmousedown="handlePan(0,1)"/>
  <use id="arrowleft" xlink:href="#arrowLeft" x="0" y="0" onmousedown="handlePan(-1,0)"/>
</g>
<svg viewBox="0 0 15 15" width="100%" height="30px" preserveAspectRatio="xMaxYMin meet">
 <g id="arrow_out" transform="scale(0.3 0.3)">
  <a xlink:href="group__Dynarr__API_ga093962de5ee87e07faeda4575cc73dc0_cgraph_org.svg" target="_base">
   <rect id="button" ry="5" rx="5" y="6" x="6" height="38" width="38"
        fill="#f2f5e9" fill-opacity="0.5" stroke="#606060" stroke-width="1.0"/>
   <path id="arrow"
     d="M 11.500037,31.436501 C 11.940474,20.09759 22.043105,11.32322 32.158766,21.979434 L 37.068811,17.246167 C 37.068811,17.246167 37.088388,32 37.088388,32 L 22.160133,31.978069 C 22.160133,31.978069 26.997745,27.140456 26.997745,27.140456 C 18.528582,18.264221 13.291696,25.230495 11.500037,31.436501 z"
     style="fill:#404040;"/>
  </a>
 </g>
</svg>

<style type='text/css'>
<![CDATA[
[data-mouse-over-selected='false'] { opacity: 0.7; }
[data-mouse-over-selected='true']  { opacity: 1.0; }
]]>
</style>
<script type="application/ecmascript"><![CDATA[
document.addEventListener('DOMContentLoaded', (event) => {
  highlightEdges();
  highlightAdjacentNodes();
});
]]></script>
</svg>
