<?xml version="1.0" encoding="UTF-8" standalone="no"?>
<!DOCTYPE svg PUBLIC "-//W3C//DTD SVG 1.1//EN"
 "http://www.w3.org/Graphics/SVG/1.1/DTD/svg11.dtd">
<!-- Generated by graphviz version 2.43.0 (0)
 -->
<!-- Title: make_space_at Pages: 1 -->
<svg width="671pt" height="140pt"
 viewBox="0.00 0.00 671.00 140.00" xmlns="http://www.w3.org/2000/svg" xmlns:xlink="http://www.w3.org/1999/xlink">
<g id="graph0" class="graph" transform="scale(1 1) rotate(0) translate(4 136)">
<title>make_space_at</title>
<!-- Node1 -->
<g id="Node000001" class="node">
<title>Node1</title>
<g id="a_Node000001"><a xlink:title=" ">
<polygon fill="#999999" stroke="#666666" points="92,-76 0,-76 0,-57 92,-57 92,-76"/>
<text text-anchor="middle" x="46" y="-64" font-family="Mononoki" font-size="10.00">make_space_at</text>
</a>
</g>
</g>
<!-- Node2 -->
<g id="Node000002" class="node">
<title>Node2</title>
<g id="a_Node000002"><a xlink:href="group__Elements.html#ga93c32dd116523090126d427cce08e114" target="_top" xlink:title="Returns pointer for the element at index.">
<polygon fill="white" stroke="#666666" points="221.5,-95 152.5,-95 152.5,-76 221.5,-76 221.5,-95"/>
<text text-anchor="middle" x="187" y="-83" font-family="Mononoki" font-size="10.00">dynarr_get</text>
</a>
</g>
</g>
<!-- Node1&#45;&gt;Node2 -->
<g id="edge1_Node000001_Node000002" class="edge">
<title>Node1&#45;&gt;Node2</title>
<g id="a_edge1_Node000001_Node000002"><a xlink:title=" ">
<path fill="none" stroke="#63b8ff" d="M92.13,-72.67C108.13,-74.86 126.1,-77.31 142,-79.49"/>
<polygon fill="#63b8ff" stroke="#63b8ff" points="141.72,-82.98 152.11,-80.87 142.67,-76.04 141.72,-82.98"/>
</a>
</g>
</g>
<!-- Node3 -->
<g id="Node000003" class="node">
<title>Node3</title>
<g id="a_Node000003"><a xlink:href="group__Properties.html#gaf5c43e2644d185b9b01065af34ed6e29" target="_top" xlink:title="Access size property of a dynarr.">
<polygon fill="white" stroke="#666666" points="355,-132 282,-132 282,-113 355,-113 355,-132"/>
<text text-anchor="middle" x="318.5" y="-120" font-family="Mononoki" font-size="10.00">dynarr_size</text>
</a>
</g>
</g>
<!-- Node1&#45;&gt;Node3 -->
<g id="edge6_Node000001_Node000003" class="edge">
<title>Node1&#45;&gt;Node3</title>
<g id="a_edge6_Node000001_Node000003"><a xlink:title=" ">
<path fill="none" stroke="#63b8ff" d="M63.11,-76.1C79.02,-85.07 104.33,-98.03 128,-104.5 175.79,-117.56 232.59,-121.49 271.46,-122.51"/>
<polygon fill="#63b8ff" stroke="#63b8ff" points="271.86,-126.02 281.93,-122.73 272,-119.02 271.86,-126.02"/>
</a>
</g>
</g>
<!-- Node4 -->
<g id="Node000004" class="node">
<title>Node4</title>
<g id="a_Node000004"><a xlink:href="dynarr_8c.html#a73f42f3f25cd0920d8039d63ea31be07" target="_top" xlink:title=" ">
<polygon fill="white" stroke="#666666" points="499,-94 391,-94 391,-75 499,-75 499,-94"/>
<text text-anchor="middle" x="445" y="-82" font-family="Mononoki" font-size="10.00">get_dynarr_header</text>
</a>
</g>
</g>
<!-- Node1&#45;&gt;Node4 -->
<g id="edge7_Node000001_Node000004" class="edge">
<title>Node1&#45;&gt;Node4</title>
<g id="a_edge7_Node000001_Node000004"><a xlink:title=" ">
<path fill="none" stroke="#63b8ff" d="M92.02,-64.04C152.13,-61.36 261.85,-58.53 355,-67.5 367.23,-68.68 380.29,-70.72 392.52,-72.99"/>
<polygon fill="#63b8ff" stroke="#63b8ff" points="392.09,-76.47 402.57,-74.94 393.42,-69.6 392.09,-76.47"/>
</a>
</g>
</g>
<!-- Node7 -->
<g id="Node000007" class="node">
<title>Node7</title>
<g id="a_Node000007"><a target="_parent" xlink:href="https://evjeesm.github.io/vector/group__Vector__API.html#gaae93d7f0c056c1d11d3232a7a7aa5e09" xlink:title=" ">
<polygon fill="white" stroke="#666666" points="246,-19 128,-19 128,0 246,0 246,-19"/>
<text text-anchor="middle" x="187" y="-7" font-family="Mononoki" font-size="10.00">vector_element_size</text>
</a>
</g>
</g>
<!-- Node1&#45;&gt;Node7 -->
<g id="edge8_Node000001_Node000007" class="edge">
<title>Node1&#45;&gt;Node7</title>
<g id="a_edge8_Node000001_Node000007"><a xlink:title=" ">
<path fill="none" stroke="#63b8ff" d="M70.27,-56.96C93.02,-47.63 127.87,-33.34 153.38,-22.88"/>
<polygon fill="#63b8ff" stroke="#63b8ff" points="154.73,-26.1 162.66,-19.07 152.08,-19.63 154.73,-26.1"/>
</a>
</g>
</g>
<!-- Node2&#45;&gt;Node3 -->
<g id="edge2_Node000002_Node000003" class="edge">
<title>Node2&#45;&gt;Node3</title>
<g id="a_edge2_Node000002_Node000003"><a xlink:title=" ">
<path fill="none" stroke="#63b8ff" d="M221.35,-95.03C237.39,-99.61 256.82,-105.16 274,-110.07"/>
<polygon fill="#63b8ff" stroke="#63b8ff" points="273.24,-113.49 283.81,-112.88 275.16,-106.76 273.24,-113.49"/>
</a>
</g>
</g>
<!-- Node6 -->
<g id="Node000006" class="node">
<title>Node6</title>
<g id="a_Node000006"><a target="_parent" xlink:href="https://evjeesm.github.io/vector/group__Vector__API.html#ga9437d9506a3b2799f595c88b82f160b3" xlink:title=" ">
<polygon fill="white" stroke="#666666" points="352.5,-95 284.5,-95 284.5,-76 352.5,-76 352.5,-95"/>
<text text-anchor="middle" x="318.5" y="-83" font-family="Mononoki" font-size="10.00">vector_get</text>
</a>
</g>
</g>
<!-- Node2&#45;&gt;Node6 -->
<g id="edge5_Node000002_Node000006" class="edge">
<title>Node2&#45;&gt;Node6</title>
<g id="a_edge5_Node000002_Node000006"><a xlink:title=" ">
<path fill="none" stroke="#63b8ff" d="M221.69,-85.5C237.7,-85.5 257.03,-85.5 274.13,-85.5"/>
<polygon fill="#63b8ff" stroke="#63b8ff" points="274.43,-89 284.43,-85.5 274.43,-82 274.43,-89"/>
</a>
</g>
</g>
<!-- Node3&#45;&gt;Node4 -->
<g id="edge3_Node000003_Node000004" class="edge">
<title>Node3&#45;&gt;Node4</title>
<g id="a_edge3_Node000003_Node000004"><a xlink:title=" ">
<path fill="none" stroke="#63b8ff" d="M350.92,-112.91C366.69,-108.1 386.01,-102.2 402.94,-97.03"/>
<polygon fill="#63b8ff" stroke="#63b8ff" points="404.05,-100.35 412.59,-94.09 402.01,-93.66 404.05,-100.35"/>
</a>
</g>
</g>
<!-- Node5 -->
<g id="Node000005" class="node">
<title>Node5</title>
<g id="a_Node000005"><a target="_parent" xlink:href="https://evjeesm.github.io/vector/group__Vector__API.html#gafc2e34dbacffe6480af8681fbf46e808" xlink:title=" ">
<polygon fill="white" stroke="#666666" points="663,-94 535,-94 535,-75 663,-75 663,-94"/>
<text text-anchor="middle" x="599" y="-82" font-family="Mononoki" font-size="10.00">vector_get_ext_header</text>
</a>
</g>
</g>
<!-- Node4&#45;&gt;Node5 -->
<g id="edge4_Node000004_Node000005" class="edge">
<title>Node4&#45;&gt;Node5</title>
<g id="a_edge4_Node000004_Node000005"><a xlink:title=" ">
<path fill="none" stroke="#63b8ff" d="M499.16,-84.5C507.47,-84.5 516.18,-84.5 524.84,-84.5"/>
<polygon fill="#63b8ff" stroke="#63b8ff" points="524.95,-88 534.95,-84.5 524.95,-81 524.95,-88"/>
</a>
</g>
</g>
</g>
</svg>
