<?xml version="1.0" encoding="UTF-8" standalone="no"?>
<!DOCTYPE svg PUBLIC "-//W3C//DTD SVG 1.1//EN"
 "http://www.w3.org/Graphics/SVG/1.1/DTD/svg11.dtd">
<!-- Generated by graphviz version 2.43.0 (0)
 -->
<!-- Title: dynarr_first Pages: 1 -->
<svg width="602pt" height="64pt"
 viewBox="0.00 0.00 602.00 64.00" xmlns="http://www.w3.org/2000/svg" xmlns:xlink="http://www.w3.org/1999/xlink">
<g id="graph0" class="graph" transform="scale(1 1) rotate(0) translate(4 60)">
<title>dynarr_first</title>
<!-- Node1 -->
<g id="Node000001" class="node">
<title>Node1</title>
<g id="a_Node000001"><a xlink:title=" ">
<polygon fill="#999999" stroke="#666666" points="72,-38 0,-38 0,-19 72,-19 72,-38"/>
<text text-anchor="middle" x="36" y="-26" font-family="Mononoki" font-size="10.00">dynarr_first</text>
</a>
</g>
</g>
<!-- Node2 -->
<g id="Node000002" class="node">
<title>Node2</title>
<g id="a_Node000002"><a xlink:href="group__Dynarr__API.html#ga93c32dd116523090126d427cce08e114" target="_top" xlink:title=" ">
<polygon fill="white" stroke="#666666" points="177,-19 108,-19 108,0 177,0 177,-19"/>
<text text-anchor="middle" x="142.5" y="-7" font-family="Mononoki" font-size="10.00">dynarr_get</text>
</a>
</g>
</g>
<!-- Node1&#45;&gt;Node2 -->
<g id="edge1_Node000001_Node000002" class="edge">
<title>Node1&#45;&gt;Node2</title>
<g id="a_edge1_Node000001_Node000002"><a xlink:title=" ">
<path fill="none" stroke="#63b8ff" d="M72.09,-22.12C80.36,-20.62 89.27,-19 97.86,-17.43"/>
<polygon fill="#63b8ff" stroke="#63b8ff" points="98.53,-20.87 107.74,-15.64 97.28,-13.98 98.53,-20.87"/>
</a>
</g>
</g>
<!-- Node3 -->
<g id="Node000003" class="node">
<title>Node3</title>
<g id="a_Node000003"><a xlink:href="group__Dynarr__API.html#gaf5c43e2644d185b9b01065af34ed6e29" target="_top" xlink:title=" ">
<polygon fill="white" stroke="#666666" points="286,-56 213,-56 213,-37 286,-37 286,-56"/>
<text text-anchor="middle" x="249.5" y="-44" font-family="Mononoki" font-size="10.00">dynarr_size</text>
</a>
</g>
</g>
<!-- Node1&#45;&gt;Node3 -->
<g id="edge6_Node000001_Node000003" class="edge">
<title>Node1&#45;&gt;Node3</title>
<g id="a_edge6_Node000001_Node000003"><a xlink:title=" ">
<path fill="none" stroke="#63b8ff" d="M72.4,-31.51C108.24,-34.56 163.81,-39.29 202.92,-42.62"/>
<polygon fill="#63b8ff" stroke="#63b8ff" points="202.72,-46.12 212.98,-43.48 203.32,-39.14 202.72,-46.12"/>
</a>
</g>
</g>
<!-- Node2&#45;&gt;Node3 -->
<g id="edge2_Node000002_Node000003" class="edge">
<title>Node2&#45;&gt;Node3</title>
<g id="a_edge2_Node000002_Node000003"><a xlink:title=" ">
<path fill="none" stroke="#63b8ff" d="M170.54,-19.03C183.06,-23.44 198.12,-28.75 211.66,-33.52"/>
<polygon fill="#63b8ff" stroke="#63b8ff" points="210.59,-36.85 221.19,-36.88 212.92,-30.25 210.59,-36.85"/>
</a>
</g>
</g>
<!-- Node6 -->
<g id="Node000006" class="node">
<title>Node6</title>
<g id="a_Node000006"><a target="_parent" xlink:href="https://evjeesm.github.io/vector/group__Vector__API.html#ga9437d9506a3b2799f595c88b82f160b3" xlink:title=" ">
<polygon fill="white" stroke="#666666" points="283.5,-19 215.5,-19 215.5,0 283.5,0 283.5,-19"/>
<text text-anchor="middle" x="249.5" y="-7" font-family="Mononoki" font-size="10.00">vector_get</text>
</a>
</g>
</g>
<!-- Node2&#45;&gt;Node6 -->
<g id="edge5_Node000002_Node000006" class="edge">
<title>Node2&#45;&gt;Node6</title>
<g id="a_edge5_Node000002_Node000006"><a xlink:title=" ">
<path fill="none" stroke="#63b8ff" d="M177.01,-9.5C186,-9.5 195.85,-9.5 205.29,-9.5"/>
<polygon fill="#63b8ff" stroke="#63b8ff" points="205.31,-13 215.31,-9.5 205.31,-6 205.31,-13"/>
</a>
</g>
</g>
<!-- Node4 -->
<g id="Node000004" class="node">
<title>Node4</title>
<g id="a_Node000004"><a xlink:href="dynarr_8c.html#a73f42f3f25cd0920d8039d63ea31be07" target="_top" xlink:title=" ">
<polygon fill="white" stroke="#666666" points="430,-56 322,-56 322,-37 430,-37 430,-56"/>
<text text-anchor="middle" x="376" y="-44" font-family="Mononoki" font-size="10.00">get_dynarr_header</text>
</a>
</g>
</g>
<!-- Node3&#45;&gt;Node4 -->
<g id="edge3_Node000003_Node000004" class="edge">
<title>Node3&#45;&gt;Node4</title>
<g id="a_edge3_Node000003_Node000004"><a xlink:title=" ">
<path fill="none" stroke="#63b8ff" d="M286.18,-46.5C294.13,-46.5 302.8,-46.5 311.49,-46.5"/>
<polygon fill="#63b8ff" stroke="#63b8ff" points="311.68,-50 321.68,-46.5 311.68,-43 311.68,-50"/>
</a>
</g>
</g>
<!-- Node5 -->
<g id="Node000005" class="node">
<title>Node5</title>
<g id="a_Node000005"><a target="_parent" xlink:href="https://evjeesm.github.io/vector/group__Vector__API.html#gafc2e34dbacffe6480af8681fbf46e808" xlink:title=" ">
<polygon fill="white" stroke="#666666" points="594,-56 466,-56 466,-37 594,-37 594,-56"/>
<text text-anchor="middle" x="530" y="-44" font-family="Mononoki" font-size="10.00">vector_get_ext_header</text>
</a>
</g>
</g>
<!-- Node4&#45;&gt;Node5 -->
<g id="edge4_Node000004_Node000005" class="edge">
<title>Node4&#45;&gt;Node5</title>
<g id="a_edge4_Node000004_Node000005"><a xlink:title=" ">
<path fill="none" stroke="#63b8ff" d="M430.16,-46.5C438.47,-46.5 447.18,-46.5 455.84,-46.5"/>
<polygon fill="#63b8ff" stroke="#63b8ff" points="455.95,-50 465.95,-46.5 455.95,-43 455.95,-50"/>
</a>
</g>
</g>
</g>
</svg>
