<?xml version="1.0" encoding="UTF-8" standalone="no"?>
<!DOCTYPE svg PUBLIC "-//W3C//DTD SVG 1.1//EN"
 "http://www.w3.org/Graphics/SVG/1.1/DTD/svg11.dtd">
<!-- Generated by graphviz version 2.43.0 (0)
 -->
<!-- Title: dynarr_append Pages: 1 -->
<svg width="722pt" height="242pt"
 viewBox="0.00 0.00 722.00 241.68" xmlns="http://www.w3.org/2000/svg" xmlns:xlink="http://www.w3.org/1999/xlink">
<g id="graph0" class="graph" transform="scale(1 1) rotate(0) translate(4 237.68)">
<title>dynarr_append</title>
<!-- Node1 -->
<g id="Node000001" class="node">
<title>Node1</title>
<g id="a_Node000001"><a xlink:title=" ">
<polygon fill="#999999" stroke="#666666" points="89,-224.78 0,-224.78 0,-205.78 89,-205.78 89,-224.78"/>
<text text-anchor="middle" x="44.5" y="-212.78" font-family="Mononoki" font-size="10.00">dynarr_append</text>
</a>
</g>
</g>
<!-- Node2 -->
<g id="Node000002" class="node">
<title>Node2</title>
<g id="a_Node000002"><a xlink:href="group__Dynarr__API.html#gab449a79e6b33f55af35329df4363336e" target="_top" xlink:title=" ">
<polygon fill="white" stroke="#666666" points="206,-186.78 125,-186.78 125,-167.78 206,-167.78 206,-186.78"/>
<text text-anchor="middle" x="165.5" y="-174.78" font-family="Mononoki" font-size="10.00">dynarr_insert</text>
</a>
</g>
</g>
<!-- Node1&#45;&gt;Node2 -->
<g id="edge1_Node000001_Node000002" class="edge">
<title>Node1&#45;&gt;Node2</title>
<g id="a_edge1_Node000001_Node000002"><a xlink:title=" ">
<path fill="none" stroke="#63b8ff" d="M75.53,-205.69C90.47,-200.92 108.72,-195.09 124.8,-189.96"/>
<polygon fill="#63b8ff" stroke="#63b8ff" points="126.02,-193.24 134.48,-186.87 123.89,-186.57 126.02,-193.24"/>
</a>
</g>
</g>
<!-- Node4 -->
<g id="Node000004" class="node">
<title>Node4</title>
<g id="a_Node000004"><a xlink:href="group__Dynarr__API.html#gaf5c43e2644d185b9b01065af34ed6e29" target="_top" xlink:title=" ">
<polygon fill="white" stroke="#666666" points="559,-148.78 486,-148.78 486,-129.78 559,-129.78 559,-148.78"/>
<text text-anchor="middle" x="522.5" y="-136.78" font-family="Mononoki" font-size="10.00">dynarr_size</text>
</a>
</g>
</g>
<!-- Node1&#45;&gt;Node4 -->
<g id="edge15_Node000001_Node000004" class="edge">
<title>Node1&#45;&gt;Node4</title>
<g id="a_edge15_Node000001_Node000004"><a xlink:title=" ">
<path fill="none" stroke="#63b8ff" d="M89.03,-222.68C163.67,-233.43 319.57,-247.32 439,-200.28 464.4,-190.27 488.96,-170.38 504.58,-156.03"/>
<polygon fill="#63b8ff" stroke="#63b8ff" points="507.04,-158.53 511.89,-149.11 502.22,-153.44 507.04,-158.53"/>
</a>
</g>
</g>
<!-- Node3 -->
<g id="Node000003" class="node">
<title>Node3</title>
<g id="a_Node000003"><a xlink:href="group__Dynarr__API.html#ga30d508a9f387e2227dd0d72a8bfd2a39" target="_top" xlink:title=" ">
<polygon fill="white" stroke="#666666" points="322,-186.78 254,-186.78 254,-167.78 322,-167.78 322,-186.78"/>
<text text-anchor="middle" x="288" y="-174.78" font-family="Mononoki" font-size="10.00">dynarr_set</text>
</a>
</g>
</g>
<!-- Node2&#45;&gt;Node3 -->
<g id="edge2_Node000002_Node000003" class="edge">
<title>Node2&#45;&gt;Node3</title>
<g id="a_edge2_Node000002_Node000003"><a xlink:title=" ">
<path fill="none" stroke="#63b8ff" d="M206.29,-177.28C218.17,-177.28 231.25,-177.28 243.36,-177.28"/>
<polygon fill="#63b8ff" stroke="#63b8ff" points="243.69,-180.78 253.69,-177.28 243.69,-173.78 243.69,-180.78"/>
</a>
</g>
</g>
<!-- Node2&#45;&gt;Node4 -->
<g id="edge5_Node000002_Node000004" class="edge">
<title>Node2&#45;&gt;Node4</title>
<g id="a_edge5_Node000002_Node000004"><a xlink:title=" ">
<path fill="none" stroke="#63b8ff" d="M199.28,-186.86C212.43,-190.24 227.81,-193.61 242,-195.28 329.36,-205.55 354.97,-202.3 439,-176.28 458.12,-170.36 478.67,-161.15 494.47,-153.41"/>
<polygon fill="#63b8ff" stroke="#63b8ff" points="496.27,-156.42 503.64,-148.82 493.13,-150.16 496.27,-156.42"/>
</a>
</g>
</g>
<!-- Node6 -->
<g id="Node000006" class="node">
<title>Node6</title>
<g id="a_Node000006"><a xlink:href="group__Auto-resize.html#ga036b69c5b674d3ac22027b04ba235b42" target="_top" xlink:title=" ">
<polygon fill="white" stroke="#666666" points="425,-34.78 384,-34.78 384,-15.78 425,-15.78 425,-34.78"/>
<text text-anchor="middle" x="404.5" y="-22.78" font-family="Mononoki" font-size="10.00">grow</text>
</a>
</g>
</g>
<!-- Node2&#45;&gt;Node6 -->
<g id="edge6_Node000002_Node000006" class="edge">
<title>Node2&#45;&gt;Node6</title>
<g id="a_edge6_Node000002_Node000006"><a xlink:title=" ">
<path fill="none" stroke="#63b8ff" d="M174.42,-167.31C187.27,-151.64 214.03,-121 242,-101.28 284.46,-71.34 340.57,-48.02 374.24,-35.49"/>
<polygon fill="#63b8ff" stroke="#63b8ff" points="375.74,-38.67 383.93,-31.95 373.34,-32.09 375.74,-38.67"/>
</a>
</g>
</g>
<!-- Node8 -->
<g id="Node000008" class="node">
<title>Node8</title>
<g id="a_Node000008"><a xlink:href="group__Auto-resize.html#gadb26f84b95f0ca45c7ccbd72e337485a" target="_top" xlink:title=" ">
<polygon fill="white" stroke="#666666" points="334,-129.78 242,-129.78 242,-110.78 334,-110.78 334,-129.78"/>
<text text-anchor="middle" x="288" y="-117.78" font-family="Mononoki" font-size="10.00">make_space_at</text>
</a>
</g>
</g>
<!-- Node2&#45;&gt;Node8 -->
<g id="edge10_Node000002_Node000008" class="edge">
<title>Node2&#45;&gt;Node8</title>
<g id="a_edge10_Node000002_Node000008"><a xlink:title=" ">
<path fill="none" stroke="#63b8ff" d="M186.67,-167.74C206.05,-158.57 235.54,-144.62 257.55,-134.21"/>
<polygon fill="#63b8ff" stroke="#63b8ff" points="259.22,-137.29 266.77,-129.85 256.23,-130.96 259.22,-137.29"/>
</a>
</g>
</g>
<!-- Node3&#45;&gt;Node4 -->
<g id="edge3_Node000003_Node000004" class="edge">
<title>Node3&#45;&gt;Node4</title>
<g id="a_edge3_Node000003_Node000004"><a xlink:title=" ">
<path fill="none" stroke="#63b8ff" d="M322.19,-173.65C352.66,-170.13 399.02,-164.29 439,-157.28 451.07,-155.16 464.05,-152.51 476.07,-149.89"/>
<polygon fill="#63b8ff" stroke="#63b8ff" points="476.88,-153.3 485.89,-147.72 475.37,-146.46 476.88,-153.3"/>
</a>
</g>
</g>
<!-- Node5 -->
<g id="Node000005" class="node">
<title>Node5</title>
<g id="a_Node000005"><a xlink:href="dynarr_8c.html#a73f42f3f25cd0920d8039d63ea31be07" target="_top" xlink:title=" ">
<polygon fill="white" stroke="#666666" points="714,-72.78 606,-72.78 606,-53.78 714,-53.78 714,-72.78"/>
<text text-anchor="middle" x="660" y="-60.78" font-family="Mononoki" font-size="10.00">get_dynarr_header</text>
</a>
</g>
</g>
<!-- Node4&#45;&gt;Node5 -->
<g id="edge4_Node000004_Node000005" class="edge">
<title>Node4&#45;&gt;Node5</title>
<g id="a_edge4_Node000004_Node000005"><a xlink:title=" ">
<path fill="none" stroke="#63b8ff" d="M540.66,-129.65C563.98,-116.58 605.86,-93.08 633.03,-77.84"/>
<polygon fill="#63b8ff" stroke="#63b8ff" points="634.97,-80.77 641.98,-72.83 631.54,-74.67 634.97,-80.77"/>
</a>
</g>
</g>
<!-- Node6&#45;&gt;Node4 -->
<g id="edge8_Node000006_Node000004" class="edge">
<title>Node6&#45;&gt;Node4</title>
<g id="a_edge8_Node000006_Node000004"><a xlink:title=" ">
<path fill="none" stroke="#63b8ff" d="M415.39,-35C435.17,-54.43 479.79,-98.29 504.4,-122.48"/>
<polygon fill="#63b8ff" stroke="#63b8ff" points="502.05,-125.07 511.63,-129.58 506.96,-120.08 502.05,-125.07"/>
</a>
</g>
</g>
<!-- Node6&#45;&gt;Node5 -->
<g id="edge9_Node000006_Node000005" class="edge">
<title>Node6&#45;&gt;Node5</title>
<g id="a_edge9_Node000006_Node000005"><a xlink:title=" ">
<path fill="none" stroke="#63b8ff" d="M425.17,-18.09C456.46,-7.73 519.23,8.58 570,-6.28 596.99,-14.18 623.57,-33.06 640.55,-46.93"/>
<polygon fill="#63b8ff" stroke="#63b8ff" points="638.61,-49.87 648.51,-53.65 643.12,-44.52 638.61,-49.87"/>
</a>
</g>
</g>
<!-- Node7 -->
<g id="Node000007" class="node">
<title>Node7</title>
<g id="a_Node000007"><a xlink:href="group__Dynarr__API.html#ga3ff11107726213a640d814b63cb123b2" target="_top" xlink:title=" ">
<polygon fill="white" stroke="#666666" points="570,-34.78 475,-34.78 475,-15.78 570,-15.78 570,-34.78"/>
<text text-anchor="middle" x="522.5" y="-22.78" font-family="Mononoki" font-size="10.00">dynarr_capacity</text>
</a>
</g>
</g>
<!-- Node6&#45;&gt;Node7 -->
<g id="edge7_Node000006_Node000007" class="edge">
<title>Node6&#45;&gt;Node7</title>
<g id="a_edge7_Node000006_Node000007"><a xlink:title=" ">
<path fill="none" stroke="#63b8ff" d="M425.18,-25.28C436.1,-25.28 450.31,-25.28 464.44,-25.28"/>
<polygon fill="#63b8ff" stroke="#63b8ff" points="464.67,-28.78 474.67,-25.28 464.67,-21.78 464.67,-28.78"/>
</a>
</g>
</g>
<!-- Node8&#45;&gt;Node4 -->
<g id="edge13_Node000008_Node000004" class="edge">
<title>Node8&#45;&gt;Node4</title>
<g id="a_edge13_Node000008_Node000004"><a xlink:title=" ">
<path fill="none" stroke="#63b8ff" d="M334.11,-117.63C363.97,-116.53 403.94,-116.29 439,-120.28 451.91,-121.75 465.73,-124.47 478.31,-127.4"/>
<polygon fill="#63b8ff" stroke="#63b8ff" points="477.54,-130.81 488.08,-129.77 479.19,-124.01 477.54,-130.81"/>
</a>
</g>
</g>
<!-- Node8&#45;&gt;Node5 -->
<g id="edge14_Node000008_Node000005" class="edge">
<title>Node8&#45;&gt;Node5</title>
<g id="a_edge14_Node000008_Node000005"><a xlink:title=" ">
<path fill="none" stroke="#63b8ff" d="M334.37,-113.29C399.89,-103.2 521.27,-84.5 595.61,-73.05"/>
<polygon fill="#63b8ff" stroke="#63b8ff" points="596.43,-76.46 605.78,-71.48 595.36,-69.54 596.43,-76.46"/>
</a>
</g>
</g>
<!-- Node9 -->
<g id="Node000009" class="node">
<title>Node9</title>
<g id="a_Node000009"><a xlink:href="group__Dynarr__API.html#ga93c32dd116523090126d427cce08e114" target="_top" xlink:title=" ">
<polygon fill="white" stroke="#666666" points="439,-148.78 370,-148.78 370,-129.78 439,-129.78 439,-148.78"/>
<text text-anchor="middle" x="404.5" y="-136.78" font-family="Mononoki" font-size="10.00">dynarr_get</text>
</a>
</g>
</g>
<!-- Node8&#45;&gt;Node9 -->
<g id="edge11_Node000008_Node000009" class="edge">
<title>Node8&#45;&gt;Node9</title>
<g id="a_edge11_Node000008_Node000009"><a xlink:title=" ">
<path fill="none" stroke="#63b8ff" d="M334.25,-127.79C342.7,-129.19 351.51,-130.65 359.9,-132.04"/>
<polygon fill="#63b8ff" stroke="#63b8ff" points="359.44,-135.52 369.88,-133.7 360.58,-128.61 359.44,-135.52"/>
</a>
</g>
</g>
<!-- Node9&#45;&gt;Node4 -->
<g id="edge12_Node000009_Node000004" class="edge">
<title>Node9&#45;&gt;Node4</title>
<g id="a_edge12_Node000009_Node000004"><a xlink:title=" ">
<path fill="none" stroke="#63b8ff" d="M439.05,-139.28C450.45,-139.28 463.39,-139.28 475.58,-139.28"/>
<polygon fill="#63b8ff" stroke="#63b8ff" points="475.59,-142.78 485.59,-139.28 475.59,-135.78 475.59,-142.78"/>
</a>
</g>
</g>
</g>
</svg>
