<?xml version="1.0" encoding="UTF-8" standalone="no"?>
<!DOCTYPE svg PUBLIC "-//W3C//DTD SVG 1.1//EN"
 "http://www.w3.org/Graphics/SVG/1.1/DTD/svg11.dtd">
<!-- Generated by graphviz version 2.43.0 (0)
 -->
<!-- Title: dynarr_append Pages: 1 -->
<!--zoomable 329 -->

<svg id="main" version="1.1" xmlns="http://www.w3.org/2000/svg" xmlns:xlink="http://www.w3.org/1999/xlink" xml:space="preserve" onload="init(evt)">
<style type="text/css"><![CDATA[
.node, .edge {opacity: 0.7;}
.node.selected, .edge.selected {opacity: 1;}
.edge:hover path { stroke: red; }
.edge:hover polygon { stroke: red; fill: red; }
]]></style>

<defs>
  <circle id="rim" cx="0" cy="0" r="7"/>
  <circle id="rim2" cx="0" cy="0" r="3.5"/>
  <g id="zoomPlus">
    <use xlink:href="#rim" fill="#404040"><set attributeName="fill" to="#808080" begin="zoomplus.mouseover" end="zoomplus.mouseout"/></use>
    <path d="M-4,0h8M0,-4v8" fill="none" stroke="white" stroke-width="1.5" pointer-events="none"/>
  </g>
  <g id="zoomMin">
    <use xlink:href="#rim" fill="#404040"><set attributeName="fill" to="#808080" begin="zoomminus.mouseover" end="zoomminus.mouseout"/></use>
    <path d="M-4,0h8" fill="none" stroke="white" stroke-width="1.5" pointer-events="none"/>
  </g>
  <g id="arrowUp" transform="translate(30 24)">
    <use xlink:href="#rim"/>
    <path pointer-events="none" fill="none" stroke="white" stroke-width="1.5" d="M0,-3.0v7 M-2.5,-0.5L0,-3.0L2.5,-0.5"/>
  </g>
  <g id="arrowRight" transform="rotate(90) translate(36 -43)">
    <use xlink:href="#rim"/>
    <path pointer-events="none" fill="none" stroke="white" stroke-width="1.5" d="M0,-3.0v7 M-2.5,-0.5L0,-3.0L2.5,-0.5"/>
  </g>
  <g id="arrowDown" transform="rotate(180) translate(-30 -48)">
    <use xlink:href="#rim"/>
    <path pointer-events="none" fill="none" stroke="white" stroke-width="1.5" d="M0,-3.0v7 M-2.5,-0.5L0,-3.0L2.5,-0.5"/>
  </g>
  <g id="arrowLeft" transform="rotate(270) translate(-36 17)">
    <use xlink:href="#rim"/>
    <path pointer-events="none" fill="none" stroke="white" stroke-width="1.5" d="M0,-3.0v7 M-2.5,-0.5L0,-3.0L2.5,-0.5"/>
  </g>
  <g id="resetDef">
    <use xlink:href="#rim2" fill="#404040"><set attributeName="fill" to="#808080" begin="reset.mouseover" end="reset.mouseout"/></use>
  </g>
</defs>
<script type="application/ecmascript">
var viewWidth = 935;
var viewHeight = 329;
var sectionId = 'dynsection-7';
</script>
<script type="application/ecmascript" xlink:href="svg.min.js"/>
<svg id="graph" class="graph">
<g id="viewport">
<title>dynarr_append</title>
<!-- Node1 -->
<g id="Node000001" class="node">
<title>Node1</title>
<g id="a_Node000001"><a xlink:title="Appends an element to the tail of a dynarr.">
<polygon fill="#999999" stroke="#666666" points="89,-113 0,-113 0,-94 89,-94 89,-113"/>
<text text-anchor="middle" x="44.5" y="-101" font-family="Mononoki" font-size="10.00">dynarr_append</text>
</a>
</g>
</g>
<!-- Node2 -->
<g id="Node000002" class="node">
<title>Node2</title>
<g id="a_Node000002"><a xlink:href="group__Elements.html#gab449a79e6b33f55af35329df4363336e" target="_top" xlink:title="Inserts new element into a dynarr.">
<polygon fill="white" stroke="#666666" points="206,-151 125,-151 125,-132 206,-132 206,-151"/>
<text text-anchor="middle" x="165.5" y="-139" font-family="Mononoki" font-size="10.00">dynarr_insert</text>
</a>
</g>
</g>
<!-- Node1&#45;&gt;Node2 -->
<g id="edge1_Node000001_Node000002" class="edge">
<title>Node1&#45;&gt;Node2</title>
<g id="a_edge1_Node000001_Node000002"><a xlink:title=" ">
<path fill="none" stroke="#63b8ff" d="M75.53,-113.09C90.47,-117.86 108.72,-123.69 124.8,-128.82"/>
<polygon fill="#63b8ff" stroke="#63b8ff" points="123.89,-132.21 134.48,-131.91 126.02,-125.54 123.89,-132.21"/>
</a>
</g>
</g>
<!-- Node4 -->
<g id="Node000004" class="node">
<title>Node4</title>
<g id="a_Node000004"><a xlink:href="group__Properties.html#gaf5c43e2644d185b9b01065af34ed6e29" target="_top" xlink:title="Access size property of a dynarr.">
<polygon fill="white" stroke="#666666" points="608,-170 535,-170 535,-151 608,-151 608,-170"/>
<text text-anchor="middle" x="571.5" y="-158" font-family="Mononoki" font-size="10.00">dynarr_size</text>
</a>
</g>
</g>
<!-- Node1&#45;&gt;Node4 -->
<g id="edge21_Node000001_Node000004" class="edge">
<title>Node1&#45;&gt;Node4</title>
<g id="a_edge21_Node000001_Node000004"><a xlink:title=" ">
<path fill="none" stroke="#63b8ff" d="M76.4,-93.94C150.5,-72.72 342.95,-27.87 488,-84.5 517.78,-96.12 543.29,-124.09 557.76,-142.66"/>
<polygon fill="#63b8ff" stroke="#63b8ff" points="555.15,-145.01 563.95,-150.91 560.74,-140.81 555.15,-145.01"/>
</a>
</g>
</g>
<!-- Node3 -->
<g id="Node000003" class="node">
<title>Node3</title>
<g id="a_Node000003"><a xlink:href="group__Elements.html#ga30d508a9f387e2227dd0d72a8bfd2a39" target="_top" xlink:title="Sets element at given index to a value.">
<polygon fill="white" stroke="#666666" points="322,-151 254,-151 254,-132 322,-132 322,-151"/>
<text text-anchor="middle" x="288" y="-139" font-family="Mononoki" font-size="10.00">dynarr_set</text>
</a>
</g>
</g>
<!-- Node2&#45;&gt;Node3 -->
<g id="edge2_Node000002_Node000003" class="edge">
<title>Node2&#45;&gt;Node3</title>
<g id="a_edge2_Node000002_Node000003"><a xlink:title=" ">
<path fill="none" stroke="#63b8ff" d="M206.29,-141.5C218.17,-141.5 231.25,-141.5 243.36,-141.5"/>
<polygon fill="#63b8ff" stroke="#63b8ff" points="243.69,-145 253.69,-141.5 243.69,-138 243.69,-145"/>
</a>
</g>
</g>
<!-- Node2&#45;&gt;Node4 -->
<g id="edge7_Node000002_Node000004" class="edge">
<title>Node2&#45;&gt;Node4</title>
<g id="a_edge7_Node000002_Node000004"><a xlink:title=" ">
<path fill="none" stroke="#63b8ff" d="M200.44,-151.02C213.35,-154.26 228.26,-157.56 242,-159.5 342.03,-173.64 460.91,-168.69 524.66,-164.3"/>
<polygon fill="#63b8ff" stroke="#63b8ff" points="525.06,-167.78 534.79,-163.57 524.56,-160.8 525.06,-167.78"/>
</a>
</g>
</g>
<!-- Node8 -->
<g id="Node000008" class="node">
<title>Node8</title>
<g id="a_Node000008"><a xlink:href="group__Auto-resize.html#ga036b69c5b674d3ac22027b04ba235b42" target="_top" xlink:title=" ">
<polygon fill="white" stroke="#666666" points="449.5,-37 408.5,-37 408.5,-18 449.5,-18 449.5,-37"/>
<text text-anchor="middle" x="429" y="-25" font-family="Mononoki" font-size="10.00">grow</text>
</a>
</g>
</g>
<!-- Node2&#45;&gt;Node8 -->
<g id="edge8_Node000002_Node000008" class="edge">
<title>Node2&#45;&gt;Node8</title>
<g id="a_edge8_Node000002_Node000008"><a xlink:title=" ">
<path fill="none" stroke="#63b8ff" d="M188.35,-131.98C235.28,-111.52 345.77,-63.35 398.71,-40.27"/>
<polygon fill="#63b8ff" stroke="#63b8ff" points="400.43,-43.34 408.2,-36.13 397.63,-36.92 400.43,-43.34"/>
</a>
</g>
</g>
<!-- Node12 -->
<g id="Node000012" class="node">
<title>Node12</title>
<g id="a_Node000012"><a xlink:href="group__Auto-resize.html#gadb26f84b95f0ca45c7ccbd72e337485a" target="_top" xlink:title=" ">
<polygon fill="white" stroke="#666666" points="334,-265 242,-265 242,-246 334,-246 334,-265"/>
<text text-anchor="middle" x="288" y="-253" font-family="Mononoki" font-size="10.00">make_space_at</text>
</a>
</g>
</g>
<!-- Node2&#45;&gt;Node12 -->
<g id="edge14_Node000002_Node000012" class="edge">
<title>Node2&#45;&gt;Node12</title>
<g id="a_edge14_Node000002_Node000012"><a xlink:title=" ">
<path fill="none" stroke="#63b8ff" d="M176.77,-151.22C197.32,-170.65 243.67,-214.51 269.24,-238.7"/>
<polygon fill="#63b8ff" stroke="#63b8ff" points="267.08,-241.48 276.75,-245.81 271.89,-236.39 267.08,-241.48"/>
</a>
</g>
</g>
<!-- Node3&#45;&gt;Node4 -->
<g id="edge3_Node000003_Node000004" class="edge">
<title>Node3&#45;&gt;Node4</title>
<g id="a_edge3_Node000003_Node000004"><a xlink:title=" ">
<path fill="none" stroke="#63b8ff" d="M322.12,-143.74C372.33,-147.12 467.88,-153.57 524.71,-157.41"/>
<polygon fill="#63b8ff" stroke="#63b8ff" points="524.64,-160.91 534.85,-158.09 525.11,-153.93 524.64,-160.91"/>
</a>
</g>
</g>
<!-- Node7 -->
<g id="Node000007" class="node">
<title>Node7</title>
<g id="a_Node000007"><a target="_parent" xlink:href="https://evjeesm.github.io/vector/group__Elements.html#gab3a5e466261d31ee9edd77a5eb280030" xlink:title=" ">
<polygon fill="white" stroke="#666666" points="463,-113 395,-113 395,-94 463,-94 463,-113"/>
<text text-anchor="middle" x="429" y="-101" font-family="Mononoki" font-size="10.00">vector_set</text>
</a>
</g>
</g>
<!-- Node3&#45;&gt;Node7 -->
<g id="edge6_Node000003_Node000007" class="edge">
<title>Node3&#45;&gt;Node7</title>
<g id="a_edge6_Node000003_Node000007"><a xlink:title=" ">
<path fill="none" stroke="#63b8ff" d="M322.29,-132.4C341.12,-127.25 364.86,-120.76 385.08,-115.23"/>
<polygon fill="#63b8ff" stroke="#63b8ff" points="386.25,-118.54 394.98,-112.53 384.41,-111.79 386.25,-118.54"/>
</a>
</g>
</g>
<!-- Node5 -->
<g id="Node000005" class="node">
<title>Node5</title>
<g id="a_Node000005"><a xlink:href="dynarr_8c.html#a73f42f3f25cd0920d8039d63ea31be07" target="_top" xlink:title=" ">
<polygon fill="white" stroke="#666666" points="763,-170 655,-170 655,-151 763,-151 763,-170"/>
<text text-anchor="middle" x="709" y="-158" font-family="Mononoki" font-size="10.00">get_dynarr_header</text>
</a>
</g>
</g>
<!-- Node4&#45;&gt;Node5 -->
<g id="edge4_Node000004_Node000005" class="edge">
<title>Node4&#45;&gt;Node5</title>
<g id="a_edge4_Node000004_Node000005"><a xlink:title=" ">
<path fill="none" stroke="#63b8ff" d="M608.1,-160.5C619.36,-160.5 632.16,-160.5 644.76,-160.5"/>
<polygon fill="#63b8ff" stroke="#63b8ff" points="644.78,-164 654.78,-160.5 644.78,-157 644.78,-164"/>
</a>
</g>
</g>
<!-- Node6 -->
<g id="Node000006" class="node">
<title>Node6</title>
<g id="a_Node000006"><a target="_parent" xlink:href="https://evjeesm.github.io/vector/group__Extension.html#gafc2e34dbacffe6480af8681fbf46e808" xlink:title=" ">
<polygon fill="white" stroke="#666666" points="927,-170 799,-170 799,-151 927,-151 927,-170"/>
<text text-anchor="middle" x="863" y="-158" font-family="Mononoki" font-size="10.00">vector_get_ext_header</text>
</a>
</g>
</g>
<!-- Node5&#45;&gt;Node6 -->
<g id="edge5_Node000005_Node000006" class="edge">
<title>Node5&#45;&gt;Node6</title>
<g id="a_edge5_Node000005_Node000006"><a xlink:title=" ">
<path fill="none" stroke="#63b8ff" d="M763.16,-160.5C771.47,-160.5 780.18,-160.5 788.84,-160.5"/>
<polygon fill="#63b8ff" stroke="#63b8ff" points="788.95,-164 798.95,-160.5 788.95,-157 788.95,-164"/>
</a>
</g>
</g>
<!-- Node8&#45;&gt;Node4 -->
<g id="edge11_Node000008_Node000004" class="edge">
<title>Node8&#45;&gt;Node4</title>
<g id="a_edge11_Node000008_Node000004"><a xlink:title=" ">
<path fill="none" stroke="#63b8ff" d="M449.75,-31.8C462.02,-35.33 477.42,-41.44 488,-51.5 515.08,-77.26 499.98,-98.87 524,-127.5 529.55,-134.11 536.71,-140.05 543.74,-145"/>
<polygon fill="#63b8ff" stroke="#63b8ff" points="542.17,-148.16 552.45,-150.73 546.02,-142.31 542.17,-148.16"/>
</a>
</g>
</g>
<!-- Node8&#45;&gt;Node5 -->
<g id="edge12_Node000008_Node000005" class="edge">
<title>Node8&#45;&gt;Node5</title>
<g id="a_edge12_Node000008_Node000005"><a xlink:title=" ">
<path fill="none" stroke="#63b8ff" d="M449.74,-35.28C461.03,-39.83 475.4,-45.78 488,-51.5 558.4,-83.46 639.47,-124.85 680.76,-146.26"/>
<polygon fill="#63b8ff" stroke="#63b8ff" points="679.17,-149.38 689.66,-150.89 682.4,-143.17 679.17,-149.38"/>
</a>
</g>
</g>
<!-- Node9 -->
<g id="Node000009" class="node">
<title>Node9</title>
<g id="a_Node000009"><a xlink:href="group__Properties.html#ga3ff11107726213a640d814b63cb123b2" target="_top" xlink:title="Access current capacity of the dynarr.">
<polygon fill="white" stroke="#666666" points="619,-56 524,-56 524,-37 619,-37 619,-56"/>
<text text-anchor="middle" x="571.5" y="-44" font-family="Mononoki" font-size="10.00">dynarr_capacity</text>
</a>
</g>
</g>
<!-- Node8&#45;&gt;Node9 -->
<g id="edge9_Node000008_Node000009" class="edge">
<title>Node8&#45;&gt;Node9</title>
<g id="a_edge9_Node000008_Node000009"><a xlink:title=" ">
<path fill="none" stroke="#63b8ff" d="M449.54,-30.14C466.22,-32.4 491.07,-35.76 513.92,-38.85"/>
<polygon fill="#63b8ff" stroke="#63b8ff" points="513.52,-42.33 523.9,-40.2 514.46,-35.39 513.52,-42.33"/>
</a>
</g>
</g>
<!-- Node11 -->
<g id="Node000011" class="node">
<title>Node11</title>
<g id="a_Node000011"><a target="_parent" xlink:href="https://evjeesm.github.io/vector/group__Lifetime.html#ga6e5077303af4dfe720af5a0608553922" xlink:title=" ">
<polygon fill="white" stroke="#666666" points="612.5,-19 530.5,-19 530.5,0 612.5,0 612.5,-19"/>
<text text-anchor="middle" x="571.5" y="-7" font-family="Mononoki" font-size="10.00">vector_resize</text>
</a>
</g>
</g>
<!-- Node8&#45;&gt;Node11 -->
<g id="edge13_Node000008_Node000011" class="edge">
<title>Node8&#45;&gt;Node11</title>
<g id="a_edge13_Node000008_Node000011"><a xlink:title=" ">
<path fill="none" stroke="#63b8ff" d="M449.54,-25C467.75,-22.66 495.69,-19.08 520.13,-15.95"/>
<polygon fill="#63b8ff" stroke="#63b8ff" points="520.88,-19.39 530.36,-14.64 519.99,-12.44 520.88,-19.39"/>
</a>
</g>
</g>
<!-- Node10 -->
<g id="Node000010" class="node">
<title>Node10</title>
<g id="a_Node000010"><a target="_parent" xlink:href="https://evjeesm.github.io/vector/group__Properties.html#gab24bd801f91d4ae1ac79b54430b0409f" xlink:title=" ">
<polygon fill="white" stroke="#666666" points="756,-56 662,-56 662,-37 756,-37 756,-56"/>
<text text-anchor="middle" x="709" y="-44" font-family="Mononoki" font-size="10.00">vector_capacity</text>
</a>
</g>
</g>
<!-- Node9&#45;&gt;Node10 -->
<g id="edge10_Node000009_Node000010" class="edge">
<title>Node9&#45;&gt;Node10</title>
<g id="a_edge10_Node000009_Node000010"><a xlink:title=" ">
<path fill="none" stroke="#63b8ff" d="M619.13,-46.5C629.57,-46.5 640.76,-46.5 651.55,-46.5"/>
<polygon fill="#63b8ff" stroke="#63b8ff" points="651.74,-50 661.74,-46.5 651.74,-43 651.74,-50"/>
</a>
</g>
</g>
<!-- Node12&#45;&gt;Node4 -->
<g id="edge18_Node000012_Node000004" class="edge">
<title>Node12&#45;&gt;Node4</title>
<g id="a_edge18_Node000012_Node000004"><a xlink:title=" ">
<path fill="none" stroke="#63b8ff" d="M322.36,-245.98C362.11,-234.43 430.37,-213.97 488,-193.5 504.81,-187.53 523.28,-180.22 538.46,-173.99"/>
<polygon fill="#63b8ff" stroke="#63b8ff" points="540.01,-177.14 547.92,-170.09 537.34,-170.67 540.01,-177.14"/>
</a>
</g>
</g>
<!-- Node12&#45;&gt;Node5 -->
<g id="edge19_Node000012_Node000005" class="edge">
<title>Node12&#45;&gt;Node5</title>
<g id="a_edge19_Node000012_Node000005"><a xlink:title=" ">
<path fill="none" stroke="#63b8ff" d="M298.89,-265.4C313.14,-278.9 340.95,-302.44 370,-311.5 420.06,-327.12 436.05,-318.7 488,-311.5 547.93,-303.2 568.78,-308.24 619,-274.5 655.98,-249.65 684.46,-204.48 698.45,-179.1"/>
<polygon fill="#63b8ff" stroke="#63b8ff" points="701.62,-180.6 703.24,-170.13 695.44,-177.3 701.62,-180.6"/>
</a>
</g>
</g>
<!-- Node13 -->
<g id="Node000013" class="node">
<title>Node13</title>
<g id="a_Node000013"><a xlink:href="group__Elements.html#ga93c32dd116523090126d427cce08e114" target="_top" xlink:title="Returns pointer for the element at index.">
<polygon fill="white" stroke="#666666" points="463.5,-265 394.5,-265 394.5,-246 463.5,-246 463.5,-265"/>
<text text-anchor="middle" x="429" y="-253" font-family="Mononoki" font-size="10.00">dynarr_get</text>
</a>
</g>
</g>
<!-- Node12&#45;&gt;Node13 -->
<g id="edge15_Node000012_Node000013" class="edge">
<title>Node12&#45;&gt;Node13</title>
<g id="a_edge15_Node000012_Node000013"><a xlink:title=" ">
<path fill="none" stroke="#63b8ff" d="M334.13,-255.5C350.13,-255.5 368.1,-255.5 384,-255.5"/>
<polygon fill="#63b8ff" stroke="#63b8ff" points="384.11,-259 394.11,-255.5 384.11,-252 384.11,-259"/>
</a>
</g>
</g>
<!-- Node15 -->
<g id="Node000015" class="node">
<title>Node15</title>
<g id="a_Node000015"><a target="_parent" xlink:href="https://evjeesm.github.io/vector/group__Properties.html#gaae93d7f0c056c1d11d3232a7a7aa5e09" xlink:title=" ">
<polygon fill="white" stroke="#666666" points="488,-302 370,-302 370,-283 488,-283 488,-302"/>
<text text-anchor="middle" x="429" y="-290" font-family="Mononoki" font-size="10.00">vector_element_size</text>
</a>
</g>
</g>
<!-- Node12&#45;&gt;Node15 -->
<g id="edge20_Node000012_Node000015" class="edge">
<title>Node12&#45;&gt;Node15</title>
<g id="a_edge20_Node000012_Node000015"><a xlink:title=" ">
<path fill="none" stroke="#63b8ff" d="M324.8,-265.03C342.25,-269.67 363.45,-275.32 382.08,-280.28"/>
<polygon fill="#63b8ff" stroke="#63b8ff" points="381.28,-283.69 391.84,-282.88 383.08,-276.92 381.28,-283.69"/>
</a>
</g>
</g>
<!-- Node13&#45;&gt;Node4 -->
<g id="edge16_Node000013_Node000004" class="edge">
<title>Node13&#45;&gt;Node4</title>
<g id="a_edge16_Node000013_Node000004"><a xlink:title=" ">
<path fill="none" stroke="#63b8ff" d="M458.02,-245.99C467.84,-242.12 478.72,-237.21 488,-231.5 512.95,-216.16 537.92,-193.37 553.75,-177.77"/>
<polygon fill="#63b8ff" stroke="#63b8ff" points="556.57,-179.91 561.15,-170.35 551.61,-174.96 556.57,-179.91"/>
</a>
</g>
</g>
<!-- Node14 -->
<g id="Node000014" class="node">
<title>Node14</title>
<g id="a_Node000014"><a target="_parent" xlink:href="https://evjeesm.github.io/vector/group__Elements.html#ga9437d9506a3b2799f595c88b82f160b3" xlink:title=" ">
<polygon fill="white" stroke="#666666" points="605.5,-265 537.5,-265 537.5,-246 605.5,-246 605.5,-265"/>
<text text-anchor="middle" x="571.5" y="-253" font-family="Mononoki" font-size="10.00">vector_get</text>
</a>
</g>
</g>
<!-- Node13&#45;&gt;Node14 -->
<g id="edge17_Node000013_Node000014" class="edge">
<title>Node13&#45;&gt;Node14</title>
<g id="a_edge17_Node000013_Node000014"><a xlink:title=" ">
<path fill="none" stroke="#63b8ff" d="M463.65,-255.5C482.68,-255.5 506.68,-255.5 527.11,-255.5"/>
<polygon fill="#63b8ff" stroke="#63b8ff" points="527.12,-259 537.12,-255.5 527.12,-252 527.12,-259"/>
</a>
</g>
</g>
</g>
</svg>

<g id="navigator" transform="translate(0 0)" fill="#404254">
  <rect fill="#f2f5e9" fill-opacity="0.5" stroke="#606060" stroke-width=".5" x="0" y="0" width="60" height="60"/>
  <use id="zoomplus" xlink:href="#zoomPlus" x="17" y="9" onmousedown="handleZoom(evt,'in')"/>
  <use id="zoomminus" xlink:href="#zoomMin" x="42" y="9" onmousedown="handleZoom(evt,'out')"/>
  <use id="reset" xlink:href="#resetDef" x="30" y="36" onmousedown="handleReset()"/>
   <use id="arrowup" xlink:href="#arrowUp" x="0" y="0" onmousedown="handlePan(0,-1)"/>
  <use id="arrowright" xlink:href="#arrowRight" x="0" y="0" onmousedown="handlePan(1,0)"/>
  <use id="arrowdown" xlink:href="#arrowDown" x="0" y="0" onmousedown="handlePan(0,1)"/>
  <use id="arrowleft" xlink:href="#arrowLeft" x="0" y="0" onmousedown="handlePan(-1,0)"/>
</g>
<svg viewBox="0 0 15 15" width="100%" height="30px" preserveAspectRatio="xMaxYMin meet">
 <g id="arrow_out" transform="scale(0.3 0.3)">
  <a xlink:href="group__Elements_ga1e7f043863514d809cd6446053f6dc47_cgraph_org.svg" target="_base">
   <rect id="button" ry="5" rx="5" y="6" x="6" height="38" width="38"
        fill="#f2f5e9" fill-opacity="0.5" stroke="#606060" stroke-width="1.0"/>
   <path id="arrow"
     d="M 11.500037,31.436501 C 11.940474,20.09759 22.043105,11.32322 32.158766,21.979434 L 37.068811,17.246167 C 37.068811,17.246167 37.088388,32 37.088388,32 L 22.160133,31.978069 C 22.160133,31.978069 26.997745,27.140456 26.997745,27.140456 C 18.528582,18.264221 13.291696,25.230495 11.500037,31.436501 z"
     style="fill:#404040;"/>
  </a>
 </g>
</svg>

<style type='text/css'>
<![CDATA[
[data-mouse-over-selected='false'] { opacity: 0.7; }
[data-mouse-over-selected='true']  { opacity: 1.0; }
]]>
</style>
<script type="application/ecmascript"><![CDATA[
document.addEventListener('DOMContentLoaded', (event) => {
  highlightEdges();
  highlightAdjacentNodes();
});
]]></script>
</svg>
