<?xml version="1.0" encoding="UTF-8" standalone="no"?>
<!DOCTYPE svg PUBLIC "-//W3C//DTD SVG 1.1//EN"
 "http://www.w3.org/Graphics/SVG/1.1/DTD/svg11.dtd">
<!-- Generated by graphviz version 2.43.0 (0)
 -->
<!-- Title: grow Pages: 1 -->
<svg width="488pt" height="140pt"
 viewBox="0.00 0.00 488.00 140.00" xmlns="http://www.w3.org/2000/svg" xmlns:xlink="http://www.w3.org/1999/xlink">
<g id="graph0" class="graph" transform="scale(1 1) rotate(0) translate(4 136)">
<title>grow</title>
<!-- Node1 -->
<g id="Node000001" class="node">
<title>Node1</title>
<g id="a_Node000001"><a xlink:title=" ">
<polygon fill="#999999" stroke="#666666" points="41,-76 0,-76 0,-57 41,-57 41,-76"/>
<text text-anchor="middle" x="20.5" y="-64" font-family="Mononoki" font-size="10.00">grow</text>
</a>
</g>
</g>
<!-- Node2 -->
<g id="Node000002" class="node">
<title>Node2</title>
<g id="a_Node000002"><a xlink:href="group__Properties.html#ga3ff11107726213a640d814b63cb123b2" target="_top" xlink:title="Access current capacity of the dynarr.">
<polygon fill="white" stroke="#666666" points="172,-132 77,-132 77,-113 172,-113 172,-132"/>
<text text-anchor="middle" x="124.5" y="-120" font-family="Mononoki" font-size="10.00">dynarr_capacity</text>
</a>
</g>
</g>
<!-- Node1&#45;&gt;Node2 -->
<g id="edge1_Node000001_Node000002" class="edge">
<title>Node1&#45;&gt;Node2</title>
<g id="a_edge1_Node000001_Node000002"><a xlink:title=" ">
<path fill="none" stroke="#63b8ff" d="M33.76,-76.12C44.67,-84.38 61.3,-96.23 77,-104.5 79.91,-106.03 82.98,-107.51 86.1,-108.91"/>
<polygon fill="#63b8ff" stroke="#63b8ff" points="84.92,-112.21 95.49,-112.87 87.64,-105.76 84.92,-112.21"/>
</a>
</g>
</g>
<!-- Node4 -->
<g id="Node000004" class="node">
<title>Node4</title>
<g id="a_Node000004"><a xlink:href="group__Properties.html#gaf5c43e2644d185b9b01065af34ed6e29" target="_top" xlink:title="Access size property of a dynarr.">
<polygon fill="white" stroke="#666666" points="161,-95 88,-95 88,-76 161,-76 161,-95"/>
<text text-anchor="middle" x="124.5" y="-83" font-family="Mononoki" font-size="10.00">dynarr_size</text>
</a>
</g>
</g>
<!-- Node1&#45;&gt;Node4 -->
<g id="edge3_Node000001_Node000004" class="edge">
<title>Node1&#45;&gt;Node4</title>
<g id="a_edge3_Node000001_Node000004"><a xlink:title=" ">
<path fill="none" stroke="#63b8ff" d="M41.17,-70.16C51.58,-72.1 64.84,-74.57 77.66,-76.96"/>
<polygon fill="#63b8ff" stroke="#63b8ff" points="77.32,-80.46 87.79,-78.85 78.6,-73.58 77.32,-80.46"/>
</a>
</g>
</g>
<!-- Node5 -->
<g id="Node000005" class="node">
<title>Node5</title>
<g id="a_Node000005"><a xlink:href="dynarr_8c.html#a73f42f3f25cd0920d8039d63ea31be07" target="_top" xlink:title=" ">
<polygon fill="white" stroke="#666666" points="316,-76 208,-76 208,-57 316,-57 316,-76"/>
<text text-anchor="middle" x="262" y="-64" font-family="Mononoki" font-size="10.00">get_dynarr_header</text>
</a>
</g>
</g>
<!-- Node1&#45;&gt;Node5 -->
<g id="edge6_Node000001_Node000005" class="edge">
<title>Node1&#45;&gt;Node5</title>
<g id="a_edge6_Node000001_Node000005"><a xlink:title=" ">
<path fill="none" stroke="#63b8ff" d="M41.1,-66.5C74.93,-66.5 145.66,-66.5 197.81,-66.5"/>
<polygon fill="#63b8ff" stroke="#63b8ff" points="197.98,-70 207.98,-66.5 197.98,-63 197.98,-70"/>
</a>
</g>
</g>
<!-- Node7 -->
<g id="Node000007" class="node">
<title>Node7</title>
<g id="a_Node000007"><a target="_parent" xlink:href="https://evjeesm.github.io/vector/group__Lifetime.html#ga6e5077303af4dfe720af5a0608553922" xlink:title=" ">
<polygon fill="white" stroke="#666666" points="165.5,-19 83.5,-19 83.5,0 165.5,0 165.5,-19"/>
<text text-anchor="middle" x="124.5" y="-7" font-family="Mononoki" font-size="10.00">vector_resize</text>
</a>
</g>
</g>
<!-- Node1&#45;&gt;Node7 -->
<g id="edge7_Node000001_Node000007" class="edge">
<title>Node1&#45;&gt;Node7</title>
<g id="a_edge7_Node000001_Node000007"><a xlink:title=" ">
<path fill="none" stroke="#63b8ff" d="M37.38,-56.71C48.4,-50.01 63.47,-41 77,-33.5 82.84,-30.26 89.16,-26.9 95.2,-23.76"/>
<polygon fill="#63b8ff" stroke="#63b8ff" points="97.07,-26.74 104.36,-19.05 93.87,-20.51 97.07,-26.74"/>
</a>
</g>
</g>
<!-- Node3 -->
<g id="Node000003" class="node">
<title>Node3</title>
<g id="a_Node000003"><a target="_parent" xlink:href="https://evjeesm.github.io/vector/group__Properties.html#gab24bd801f91d4ae1ac79b54430b0409f" xlink:title=" ">
<polygon fill="white" stroke="#666666" points="309,-132 215,-132 215,-113 309,-113 309,-132"/>
<text text-anchor="middle" x="262" y="-120" font-family="Mononoki" font-size="10.00">vector_capacity</text>
</a>
</g>
</g>
<!-- Node2&#45;&gt;Node3 -->
<g id="edge2_Node000002_Node000003" class="edge">
<title>Node2&#45;&gt;Node3</title>
<g id="a_edge2_Node000002_Node000003"><a xlink:title=" ">
<path fill="none" stroke="#63b8ff" d="M172.13,-122.5C182.57,-122.5 193.76,-122.5 204.55,-122.5"/>
<polygon fill="#63b8ff" stroke="#63b8ff" points="204.74,-126 214.74,-122.5 204.74,-119 204.74,-126"/>
</a>
</g>
</g>
<!-- Node4&#45;&gt;Node5 -->
<g id="edge4_Node000004_Node000005" class="edge">
<title>Node4&#45;&gt;Node5</title>
<g id="a_edge4_Node000004_Node000005"><a xlink:title=" ">
<path fill="none" stroke="#63b8ff" d="M161.1,-80.51C172.36,-78.93 185.16,-77.13 197.76,-75.37"/>
<polygon fill="#63b8ff" stroke="#63b8ff" points="198.36,-78.82 207.78,-73.96 197.39,-71.89 198.36,-78.82"/>
</a>
</g>
</g>
<!-- Node6 -->
<g id="Node000006" class="node">
<title>Node6</title>
<g id="a_Node000006"><a target="_parent" xlink:href="https://evjeesm.github.io/vector/group__Extension.html#gafc2e34dbacffe6480af8681fbf46e808" xlink:title=" ">
<polygon fill="white" stroke="#666666" points="480,-76 352,-76 352,-57 480,-57 480,-76"/>
<text text-anchor="middle" x="416" y="-64" font-family="Mononoki" font-size="10.00">vector_get_ext_header</text>
</a>
</g>
</g>
<!-- Node5&#45;&gt;Node6 -->
<g id="edge5_Node000005_Node000006" class="edge">
<title>Node5&#45;&gt;Node6</title>
<g id="a_edge5_Node000005_Node000006"><a xlink:title=" ">
<path fill="none" stroke="#63b8ff" d="M316.16,-66.5C324.47,-66.5 333.18,-66.5 341.84,-66.5"/>
<polygon fill="#63b8ff" stroke="#63b8ff" points="341.95,-70 351.95,-66.5 341.95,-63 341.95,-70"/>
</a>
</g>
</g>
</g>
</svg>
