<?xml version="1.0" encoding="UTF-8" standalone="no"?>
<!DOCTYPE svg PUBLIC "-//W3C//DTD SVG 1.1//EN"
 "http://www.w3.org/Graphics/SVG/1.1/DTD/svg11.dtd">
<!-- Generated by graphviz version 2.43.0 (0)
 -->
<!-- Title: dynarr_spread_insert Pages: 1 -->
<svg width="848pt" height="329pt"
 viewBox="0.00 0.00 848.00 328.91" xmlns="http://www.w3.org/2000/svg" xmlns:xlink="http://www.w3.org/1999/xlink">
<g id="graph0" class="graph" transform="scale(1 1) rotate(0) translate(4 324.91)">
<title>dynarr_spread_insert</title>
<!-- Node1 -->
<g id="Node000001" class="node">
<title>Node1</title>
<g id="a_Node000001"><a xlink:title=" ">
<polygon fill="#999999" stroke="#666666" points="119,-180.91 0,-180.91 0,-161.91 119,-161.91 119,-180.91"/>
<text text-anchor="middle" x="59.5" y="-168.91" font-family="Mononoki" font-size="10.00">dynarr_spread_insert</text>
</a>
</g>
</g>
<!-- Node2 -->
<g id="Node000002" class="node">
<title>Node2</title>
<g id="a_Node000002"><a xlink:href="group__Dynarr__API.html#ga30d508a9f387e2227dd0d72a8bfd2a39" target="_top" xlink:title=" ">
<polygon fill="white" stroke="#666666" points="235,-218.91 167,-218.91 167,-199.91 235,-199.91 235,-218.91"/>
<text text-anchor="middle" x="201" y="-206.91" font-family="Mononoki" font-size="10.00">dynarr_set</text>
</a>
</g>
</g>
<!-- Node1&#45;&gt;Node2 -->
<g id="edge1_Node000001_Node000002" class="edge">
<title>Node1&#45;&gt;Node2</title>
<g id="a_edge1_Node000001_Node000002"><a xlink:title=" ">
<path fill="none" stroke="#63b8ff" d="M95.7,-181C114.34,-186.07 137.39,-192.35 157.08,-197.71"/>
<polygon fill="#63b8ff" stroke="#63b8ff" points="156.16,-201.09 166.73,-200.34 158,-194.34 156.16,-201.09"/>
</a>
</g>
</g>
<!-- Node3 -->
<g id="Node000003" class="node">
<title>Node3</title>
<g id="a_Node000003"><a xlink:href="group__Dynarr__API.html#gaf5c43e2644d185b9b01065af34ed6e29" target="_top" xlink:title=" ">
<polygon fill="white" stroke="#666666" points="521,-180.91 448,-180.91 448,-161.91 521,-161.91 521,-180.91"/>
<text text-anchor="middle" x="484.5" y="-168.91" font-family="Mononoki" font-size="10.00">dynarr_size</text>
</a>
</g>
</g>
<!-- Node1&#45;&gt;Node3 -->
<g id="edge6_Node000001_Node000003" class="edge">
<title>Node1&#45;&gt;Node3</title>
<g id="a_edge6_Node000001_Node000003"><a xlink:title=" ">
<path fill="none" stroke="#63b8ff" d="M119.32,-171.41C204.41,-171.41 360.13,-171.41 437.43,-171.41"/>
<polygon fill="#63b8ff" stroke="#63b8ff" points="437.81,-174.91 447.81,-171.41 437.81,-167.91 437.81,-174.91"/>
</a>
</g>
</g>
<!-- Node7 -->
<g id="Node000007" class="node">
<title>Node7</title>
<g id="a_Node000007"><a xlink:href="group__Auto-resize.html#ga036b69c5b674d3ac22027b04ba235b42" target="_top" xlink:title=" ">
<polygon fill="white" stroke="#666666" points="362.5,-293.91 321.5,-293.91 321.5,-274.91 362.5,-274.91 362.5,-293.91"/>
<text text-anchor="middle" x="342" y="-281.91" font-family="Mononoki" font-size="10.00">grow</text>
</a>
</g>
</g>
<!-- Node1&#45;&gt;Node7 -->
<g id="edge7_Node000001_Node000007" class="edge">
<title>Node1&#45;&gt;Node7</title>
<g id="a_edge7_Node000001_Node000007"><a xlink:title=" ">
<path fill="none" stroke="#63b8ff" d="M74,-181.04C91.82,-193.41 124.53,-214.89 155,-228.41 208.03,-251.93 273.77,-269.13 311.2,-277.88"/>
<polygon fill="#63b8ff" stroke="#63b8ff" points="310.89,-281.4 321.42,-280.22 312.45,-274.57 310.89,-281.4"/>
</a>
</g>
</g>
<!-- Node11 -->
<g id="Node000011" class="node">
<title>Node11</title>
<g id="a_Node000011"><a xlink:href="group__Auto-resize.html#gadb26f84b95f0ca45c7ccbd72e337485a" target="_top" xlink:title=" ">
<polygon fill="white" stroke="#666666" points="247,-123.91 155,-123.91 155,-104.91 247,-104.91 247,-123.91"/>
<text text-anchor="middle" x="201" y="-111.91" font-family="Mononoki" font-size="10.00">make_space_at</text>
</a>
</g>
</g>
<!-- Node1&#45;&gt;Node11 -->
<g id="edge13_Node000001_Node000011" class="edge">
<title>Node1&#45;&gt;Node11</title>
<g id="a_edge13_Node000001_Node000011"><a xlink:title=" ">
<path fill="none" stroke="#63b8ff" d="M83.85,-161.87C106.68,-152.54 141.66,-138.24 167.26,-127.78"/>
<polygon fill="#63b8ff" stroke="#63b8ff" points="168.64,-131 176.57,-123.98 165.99,-124.52 168.64,-131"/>
</a>
</g>
</g>
<!-- Node15 -->
<g id="Node000015" class="node">
<title>Node15</title>
<g id="a_Node000015"><a target="_parent" xlink:href="https://evjeesm.github.io/vector/group__Vector__API.html#ga6312527827ba72441feeef4fc4047f94" xlink:title=" ">
<polygon fill="white" stroke="#666666" points="244,-86.91 158,-86.91 158,-67.91 244,-67.91 244,-86.91"/>
<text text-anchor="middle" x="201" y="-74.91" font-family="Mononoki" font-size="10.00">vector_spread</text>
</a>
</g>
</g>
<!-- Node1&#45;&gt;Node15 -->
<g id="edge20_Node000001_Node000015" class="edge">
<title>Node1&#45;&gt;Node15</title>
<g id="a_edge20_Node000001_Node000015"><a xlink:title=" ">
<path fill="none" stroke="#63b8ff" d="M70.25,-161.9C86.62,-146.33 121.19,-115.17 155,-95.41 157.52,-93.93 160.18,-92.53 162.9,-91.2"/>
<polygon fill="#63b8ff" stroke="#63b8ff" points="164.57,-94.29 172.26,-87 161.7,-87.91 164.57,-94.29"/>
</a>
</g>
</g>
<!-- Node2&#45;&gt;Node3 -->
<g id="edge2_Node000002_Node000003" class="edge">
<title>Node2&#45;&gt;Node3</title>
<g id="a_edge2_Node000002_Node000003"><a xlink:title=" ">
<path fill="none" stroke="#63b8ff" d="M235.16,-205.9C274.72,-201.6 342.8,-193.85 401,-185.41 412.9,-183.68 425.73,-181.61 437.64,-179.59"/>
<polygon fill="#63b8ff" stroke="#63b8ff" points="438.56,-182.98 447.82,-177.85 437.38,-176.09 438.56,-182.98"/>
</a>
</g>
</g>
<!-- Node6 -->
<g id="Node000006" class="node">
<title>Node6</title>
<g id="a_Node000006"><a target="_parent" xlink:href="https://evjeesm.github.io/vector/group__Vector__API.html#gab3a5e466261d31ee9edd77a5eb280030" xlink:title=" ">
<polygon fill="white" stroke="#666666" points="376,-256.91 308,-256.91 308,-237.91 376,-237.91 376,-256.91"/>
<text text-anchor="middle" x="342" y="-244.91" font-family="Mononoki" font-size="10.00">vector_set</text>
</a>
</g>
</g>
<!-- Node2&#45;&gt;Node6 -->
<g id="edge5_Node000002_Node000006" class="edge">
<title>Node2&#45;&gt;Node6</title>
<g id="a_edge5_Node000002_Node000006"><a xlink:title=" ">
<path fill="none" stroke="#63b8ff" d="M235.29,-218.51C254.12,-223.65 277.86,-230.15 298.08,-235.67"/>
<polygon fill="#63b8ff" stroke="#63b8ff" points="297.41,-239.12 307.98,-238.38 299.25,-232.37 297.41,-239.12"/>
</a>
</g>
</g>
<!-- Node4 -->
<g id="Node000004" class="node">
<title>Node4</title>
<g id="a_Node000004"><a xlink:href="dynarr_8c.html#a73f42f3f25cd0920d8039d63ea31be07" target="_top" xlink:title=" ">
<polygon fill="white" stroke="#666666" points="676,-180.91 568,-180.91 568,-161.91 676,-161.91 676,-180.91"/>
<text text-anchor="middle" x="622" y="-168.91" font-family="Mononoki" font-size="10.00">get_dynarr_header</text>
</a>
</g>
</g>
<!-- Node3&#45;&gt;Node4 -->
<g id="edge3_Node000003_Node000004" class="edge">
<title>Node3&#45;&gt;Node4</title>
<g id="a_edge3_Node000003_Node000004"><a xlink:title=" ">
<path fill="none" stroke="#63b8ff" d="M521.1,-171.41C532.36,-171.41 545.16,-171.41 557.76,-171.41"/>
<polygon fill="#63b8ff" stroke="#63b8ff" points="557.78,-174.91 567.78,-171.41 557.78,-167.91 557.78,-174.91"/>
</a>
</g>
</g>
<!-- Node5 -->
<g id="Node000005" class="node">
<title>Node5</title>
<g id="a_Node000005"><a target="_parent" xlink:href="https://evjeesm.github.io/vector/group__Vector__API.html#gafc2e34dbacffe6480af8681fbf46e808" xlink:title=" ">
<polygon fill="white" stroke="#666666" points="840,-180.91 712,-180.91 712,-161.91 840,-161.91 840,-180.91"/>
<text text-anchor="middle" x="776" y="-168.91" font-family="Mononoki" font-size="10.00">vector_get_ext_header</text>
</a>
</g>
</g>
<!-- Node4&#45;&gt;Node5 -->
<g id="edge4_Node000004_Node000005" class="edge">
<title>Node4&#45;&gt;Node5</title>
<g id="a_edge4_Node000004_Node000005"><a xlink:title=" ">
<path fill="none" stroke="#63b8ff" d="M676.16,-171.41C684.47,-171.41 693.18,-171.41 701.84,-171.41"/>
<polygon fill="#63b8ff" stroke="#63b8ff" points="701.95,-174.91 711.95,-171.41 701.95,-167.91 701.95,-174.91"/>
</a>
</g>
</g>
<!-- Node7&#45;&gt;Node3 -->
<g id="edge10_Node000007_Node000003" class="edge">
<title>Node7&#45;&gt;Node3</title>
<g id="a_edge10_Node000007_Node000003"><a xlink:title=" ">
<path fill="none" stroke="#63b8ff" d="M362.77,-281.66C374.75,-279.22 389.82,-274.69 401,-266.41 423.88,-249.46 418.3,-234.88 437,-213.41 445.01,-204.2 454.93,-195 463.54,-187.57"/>
<polygon fill="#63b8ff" stroke="#63b8ff" points="465.9,-190.16 471.3,-181.04 461.4,-184.8 465.9,-190.16"/>
</a>
</g>
</g>
<!-- Node7&#45;&gt;Node4 -->
<g id="edge11_Node000007_Node000004" class="edge">
<title>Node7&#45;&gt;Node4</title>
<g id="a_edge11_Node000007_Node000004"><a xlink:title=" ">
<path fill="none" stroke="#63b8ff" d="M362.51,-278.92C373.84,-275.59 388.34,-271.09 401,-266.41 470.54,-240.69 549.87,-204.74 591.67,-185.26"/>
<polygon fill="#63b8ff" stroke="#63b8ff" points="593.4,-188.32 600.97,-180.91 590.43,-181.98 593.4,-188.32"/>
</a>
</g>
</g>
<!-- Node8 -->
<g id="Node000008" class="node">
<title>Node8</title>
<g id="a_Node000008"><a xlink:href="group__Dynarr__API.html#ga3ff11107726213a640d814b63cb123b2" target="_top" xlink:title=" ">
<polygon fill="white" stroke="#666666" points="532,-320.91 437,-320.91 437,-301.91 532,-301.91 532,-320.91"/>
<text text-anchor="middle" x="484.5" y="-308.91" font-family="Mononoki" font-size="10.00">dynarr_capacity</text>
</a>
</g>
</g>
<!-- Node7&#45;&gt;Node8 -->
<g id="edge8_Node000007_Node000008" class="edge">
<title>Node7&#45;&gt;Node8</title>
<g id="a_edge8_Node000007_Node000008"><a xlink:title=" ">
<path fill="none" stroke="#63b8ff" d="M362.54,-288.16C379.22,-291.37 404.07,-296.14 426.92,-300.53"/>
<polygon fill="#63b8ff" stroke="#63b8ff" points="426.42,-304 436.9,-302.45 427.74,-297.13 426.42,-304"/>
</a>
</g>
</g>
<!-- Node10 -->
<g id="Node000010" class="node">
<title>Node10</title>
<g id="a_Node000010"><a target="_parent" xlink:href="https://evjeesm.github.io/vector/group__Vector__API.html#ga6e5077303af4dfe720af5a0608553922" xlink:title=" ">
<polygon fill="white" stroke="#666666" points="525.5,-283.91 443.5,-283.91 443.5,-264.91 525.5,-264.91 525.5,-283.91"/>
<text text-anchor="middle" x="484.5" y="-271.91" font-family="Mononoki" font-size="10.00">vector_resize</text>
</a>
</g>
</g>
<!-- Node7&#45;&gt;Node10 -->
<g id="edge12_Node000007_Node000010" class="edge">
<title>Node7&#45;&gt;Node10</title>
<g id="a_edge12_Node000007_Node000010"><a xlink:title=" ">
<path fill="none" stroke="#63b8ff" d="M362.54,-283.02C380.75,-281.72 408.69,-279.73 433.13,-277.99"/>
<polygon fill="#63b8ff" stroke="#63b8ff" points="433.63,-281.46 443.36,-277.26 433.13,-274.48 433.63,-281.46"/>
</a>
</g>
</g>
<!-- Node9 -->
<g id="Node000009" class="node">
<title>Node9</title>
<g id="a_Node000009"><a target="_parent" xlink:href="https://evjeesm.github.io/vector/group__Vector__API.html#gab24bd801f91d4ae1ac79b54430b0409f" xlink:title=" ">
<polygon fill="white" stroke="#666666" points="669,-320.91 575,-320.91 575,-301.91 669,-301.91 669,-320.91"/>
<text text-anchor="middle" x="622" y="-308.91" font-family="Mononoki" font-size="10.00">vector_capacity</text>
</a>
</g>
</g>
<!-- Node8&#45;&gt;Node9 -->
<g id="edge9_Node000008_Node000009" class="edge">
<title>Node8&#45;&gt;Node9</title>
<g id="a_edge9_Node000008_Node000009"><a xlink:title=" ">
<path fill="none" stroke="#63b8ff" d="M532.13,-311.41C542.57,-311.41 553.76,-311.41 564.55,-311.41"/>
<polygon fill="#63b8ff" stroke="#63b8ff" points="564.74,-314.91 574.74,-311.41 564.74,-307.91 564.74,-314.91"/>
</a>
</g>
</g>
<!-- Node11&#45;&gt;Node3 -->
<g id="edge17_Node000011_Node000003" class="edge">
<title>Node11&#45;&gt;Node3</title>
<g id="a_edge17_Node000011_Node000003"><a xlink:title=" ">
<path fill="none" stroke="#63b8ff" d="M247.23,-123.56C299.54,-134.16 385.17,-151.5 437.71,-162.13"/>
<polygon fill="#63b8ff" stroke="#63b8ff" points="437.27,-165.62 447.76,-164.17 438.65,-158.75 437.27,-165.62"/>
</a>
</g>
</g>
<!-- Node11&#45;&gt;Node4 -->
<g id="edge18_Node000011_Node000004" class="edge">
<title>Node11&#45;&gt;Node4</title>
<g id="a_edge18_Node000011_Node000004"><a xlink:title=" ">
<path fill="none" stroke="#63b8ff" d="M232.02,-104.72C237.34,-102.2 242.59,-99.12 247,-95.41 269.64,-76.36 257.03,-53.58 283,-39.41 380.13,13.62 434.29,12.56 532,-39.41 577.19,-63.44 603.57,-121.76 614.71,-152.2"/>
<polygon fill="#63b8ff" stroke="#63b8ff" points="611.42,-153.41 618.02,-161.7 618.03,-151.11 611.42,-153.41"/>
</a>
</g>
</g>
<!-- Node12 -->
<g id="Node000012" class="node">
<title>Node12</title>
<g id="a_Node000012"><a xlink:href="group__Dynarr__API.html#ga93c32dd116523090126d427cce08e114" target="_top" xlink:title=" ">
<polygon fill="white" stroke="#666666" points="376.5,-67.91 307.5,-67.91 307.5,-48.91 376.5,-48.91 376.5,-67.91"/>
<text text-anchor="middle" x="342" y="-55.91" font-family="Mononoki" font-size="10.00">dynarr_get</text>
</a>
</g>
</g>
<!-- Node11&#45;&gt;Node12 -->
<g id="edge14_Node000011_Node000012" class="edge">
<title>Node11&#45;&gt;Node12</title>
<g id="a_edge14_Node000011_Node000012"><a xlink:title=" ">
<path fill="none" stroke="#63b8ff" d="M225.99,-104.73C232.83,-101.85 240.26,-98.6 247,-95.41 263.35,-87.66 266.29,-83.34 283,-76.41 287.75,-74.44 292.79,-72.56 297.84,-70.82"/>
<polygon fill="#63b8ff" stroke="#63b8ff" points="299.09,-74.1 307.5,-67.65 296.91,-67.45 299.09,-74.1"/>
</a>
</g>
</g>
<!-- Node14 -->
<g id="Node000014" class="node">
<title>Node14</title>
<g id="a_Node000014"><a target="_parent" xlink:href="https://evjeesm.github.io/vector/group__Vector__API.html#gaae93d7f0c056c1d11d3232a7a7aa5e09" xlink:title=" ">
<polygon fill="white" stroke="#666666" points="401,-104.91 283,-104.91 283,-85.91 401,-85.91 401,-104.91"/>
<text text-anchor="middle" x="342" y="-92.91" font-family="Mononoki" font-size="10.00">vector_element_size</text>
</a>
</g>
</g>
<!-- Node11&#45;&gt;Node14 -->
<g id="edge19_Node000011_Node000014" class="edge">
<title>Node11&#45;&gt;Node14</title>
<g id="a_edge19_Node000011_Node000014"><a xlink:title=" ">
<path fill="none" stroke="#63b8ff" d="M247.13,-108.24C255.33,-107.12 264.06,-105.92 272.75,-104.73"/>
<polygon fill="#63b8ff" stroke="#63b8ff" points="273.49,-108.17 282.92,-103.35 272.54,-101.23 273.49,-108.17"/>
</a>
</g>
</g>
<!-- Node12&#45;&gt;Node3 -->
<g id="edge15_Node000012_Node000003" class="edge">
<title>Node12&#45;&gt;Node3</title>
<g id="a_edge15_Node000012_Node000003"><a xlink:title=" ">
<path fill="none" stroke="#63b8ff" d="M376.62,-65.4C385,-68.05 393.67,-71.62 401,-76.41 432.07,-96.69 458.23,-131.88 472.32,-153.27"/>
<polygon fill="#63b8ff" stroke="#63b8ff" points="469.42,-155.23 477.76,-161.76 475.31,-151.45 469.42,-155.23"/>
</a>
</g>
</g>
<!-- Node13 -->
<g id="Node000013" class="node">
<title>Node13</title>
<g id="a_Node000013"><a target="_parent" xlink:href="https://evjeesm.github.io/vector/group__Vector__API.html#ga9437d9506a3b2799f595c88b82f160b3" xlink:title=" ">
<polygon fill="white" stroke="#666666" points="518.5,-67.91 450.5,-67.91 450.5,-48.91 518.5,-48.91 518.5,-67.91"/>
<text text-anchor="middle" x="484.5" y="-55.91" font-family="Mononoki" font-size="10.00">vector_get</text>
</a>
</g>
</g>
<!-- Node12&#45;&gt;Node13 -->
<g id="edge16_Node000012_Node000013" class="edge">
<title>Node12&#45;&gt;Node13</title>
<g id="a_edge16_Node000012_Node000013"><a xlink:title=" ">
<path fill="none" stroke="#63b8ff" d="M376.65,-58.41C395.68,-58.41 419.68,-58.41 440.11,-58.41"/>
<polygon fill="#63b8ff" stroke="#63b8ff" points="440.12,-61.91 450.12,-58.41 440.12,-54.91 440.12,-61.91"/>
</a>
</g>
</g>
</g>
</svg>
