<?xml version="1.0" encoding="UTF-8" standalone="no"?>
<!DOCTYPE svg PUBLIC "-//W3C//DTD SVG 1.1//EN"
 "http://www.w3.org/Graphics/SVG/1.1/DTD/svg11.dtd">
<!-- Generated by graphviz version 2.43.0 (0)
 -->
<!-- Title: binary_find_insert_place Pages: 1 -->
<svg width="639pt" height="69pt"
 viewBox="0.00 0.00 639.00 68.50" xmlns="http://www.w3.org/2000/svg" xmlns:xlink="http://www.w3.org/1999/xlink">
<g id="graph0" class="graph" transform="scale(1 1) rotate(0) translate(4 64.5)">
<title>binary_find_insert_place</title>
<!-- Node1 -->
<g id="Node000001" class="node">
<title>Node1</title>
<g id="a_Node000001"><a xlink:title=" ">
<polygon fill="#999999" stroke="#666666" points="111,-42.5 0,-42.5 0,-12.5 111,-12.5 111,-42.5"/>
<text text-anchor="start" x="8" y="-30.5" font-family="Mononoki" font-size="10.00">binary_find_insert</text>
<text text-anchor="middle" x="55.5" y="-19.5" font-family="Mononoki" font-size="10.00">_place</text>
</a>
</g>
</g>
<!-- Node1&#45;&gt;Node1 -->
<g id="edge1_Node000001_Node000001" class="edge">
<title>Node1&#45;&gt;Node1</title>
<g id="a_edge1_Node000001_Node000001"><a xlink:title=" ">
<path fill="none" stroke="#63b8ff" d="M33.35,-42.78C28.43,-51.91 35.81,-60.5 55.5,-60.5 67.19,-60.5 74.54,-57.47 77.55,-53.1"/>
<polygon fill="#63b8ff" stroke="#63b8ff" points="81.06,-52.81 77.65,-42.78 74.06,-52.74 81.06,-52.81"/>
</a>
</g>
</g>
<!-- Node2 -->
<g id="Node000002" class="node">
<title>Node2</title>
<g id="a_Node000002"><a xlink:href="group__Dynarr__API.html#ga93c32dd116523090126d427cce08e114" target="_top" xlink:title=" ">
<polygon fill="white" stroke="#666666" points="216,-37 147,-37 147,-18 216,-18 216,-37"/>
<text text-anchor="middle" x="181.5" y="-25" font-family="Mononoki" font-size="10.00">dynarr_get</text>
</a>
</g>
</g>
<!-- Node1&#45;&gt;Node2 -->
<g id="edge2_Node000001_Node000002" class="edge">
<title>Node1&#45;&gt;Node2</title>
<g id="a_edge2_Node000001_Node000002"><a xlink:title=" ">
<path fill="none" stroke="#63b8ff" d="M111.25,-27.5C119.73,-27.5 128.4,-27.5 136.61,-27.5"/>
<polygon fill="#63b8ff" stroke="#63b8ff" points="136.7,-31 146.7,-27.5 136.7,-24 136.7,-31"/>
</a>
</g>
</g>
<!-- Node3 -->
<g id="Node000003" class="node">
<title>Node3</title>
<g id="a_Node000003"><a xlink:href="group__Dynarr__API.html#gaf5c43e2644d185b9b01065af34ed6e29" target="_top" xlink:title=" ">
<polygon fill="white" stroke="#666666" points="326,-56 252,-56 252,-37 326,-37 326,-56"/>
<text text-anchor="middle" x="289" y="-44" font-family="Mononoki" font-size="10.00">dynarr_size</text>
</a>
</g>
</g>
<!-- Node2&#45;&gt;Node3 -->
<g id="edge3_Node000002_Node000003" class="edge">
<title>Node2&#45;&gt;Node3</title>
<g id="a_edge3_Node000002_Node000003"><a xlink:title=" ">
<path fill="none" stroke="#63b8ff" d="M216.17,-33.56C224.32,-35.03 233.17,-36.63 241.78,-38.18"/>
<polygon fill="#63b8ff" stroke="#63b8ff" points="241.27,-41.64 251.73,-39.97 242.51,-34.75 241.27,-41.64"/>
</a>
</g>
</g>
<!-- Node6 -->
<g id="Node000006" class="node">
<title>Node6</title>
<g id="a_Node000006"><a target="_parent" xlink:href="https://evjeesm.github.io/vector/group__Vector__API.html#ga9437d9506a3b2799f595c88b82f160b3" xlink:title=" ">
<polygon fill="white" stroke="#666666" points="323.5,-19 254.5,-19 254.5,0 323.5,0 323.5,-19"/>
<text text-anchor="middle" x="289" y="-7" font-family="Mononoki" font-size="10.00">vector_get</text>
</a>
</g>
</g>
<!-- Node2&#45;&gt;Node6 -->
<g id="edge6_Node000002_Node000006" class="edge">
<title>Node2&#45;&gt;Node6</title>
<g id="a_edge6_Node000002_Node000006"><a xlink:title=" ">
<path fill="none" stroke="#63b8ff" d="M216.17,-21.76C225.12,-20.23 234.91,-18.56 244.3,-16.96"/>
<polygon fill="#63b8ff" stroke="#63b8ff" points="245.02,-20.38 254.29,-15.25 243.84,-13.48 245.02,-20.38"/>
</a>
</g>
</g>
<!-- Node4 -->
<g id="Node000004" class="node">
<title>Node4</title>
<g id="a_Node000004"><a xlink:href="dynarr_8c.html#a73f42f3f25cd0920d8039d63ea31be07" target="_top" xlink:title=" ">
<polygon fill="white" stroke="#666666" points="468,-56 362,-56 362,-37 468,-37 468,-56"/>
<text text-anchor="middle" x="415" y="-44" font-family="Mononoki" font-size="10.00">get_dynarr_header</text>
</a>
</g>
</g>
<!-- Node3&#45;&gt;Node4 -->
<g id="edge4_Node000003_Node000004" class="edge">
<title>Node3&#45;&gt;Node4</title>
<g id="a_edge4_Node000003_Node000004"><a xlink:title=" ">
<path fill="none" stroke="#63b8ff" d="M326.2,-46.5C334.21,-46.5 342.93,-46.5 351.65,-46.5"/>
<polygon fill="#63b8ff" stroke="#63b8ff" points="351.86,-50 361.86,-46.5 351.86,-43 351.86,-50"/>
</a>
</g>
</g>
<!-- Node5 -->
<g id="Node000005" class="node">
<title>Node5</title>
<g id="a_Node000005"><a target="_parent" xlink:href="https://evjeesm.github.io/vector/group__Vector__API.html#gafc2e34dbacffe6480af8681fbf46e808" xlink:title=" ">
<polygon fill="white" stroke="#666666" points="631,-56 504,-56 504,-37 631,-37 631,-56"/>
<text text-anchor="middle" x="567.5" y="-44" font-family="Mononoki" font-size="10.00">vector_get_ext_header</text>
</a>
</g>
</g>
<!-- Node4&#45;&gt;Node5 -->
<g id="edge5_Node000004_Node000005" class="edge">
<title>Node4&#45;&gt;Node5</title>
<g id="a_edge5_Node000004_Node000005"><a xlink:title=" ">
<path fill="none" stroke="#63b8ff" d="M468.22,-46.5C476.45,-46.5 485.1,-46.5 493.7,-46.5"/>
<polygon fill="#63b8ff" stroke="#63b8ff" points="493.75,-50 503.75,-46.5 493.75,-43 493.75,-50"/>
</a>
</g>
</g>
</g>
</svg>
