<?xml version="1.0" encoding="UTF-8" standalone="no"?>
<!DOCTYPE svg PUBLIC "-//W3C//DTD SVG 1.1//EN"
 "http://www.w3.org/Graphics/SVG/1.1/DTD/svg11.dtd">
<!-- Generated by graphviz version 2.43.0 (0)
 -->
<!-- Title: get_opts Pages: 1 -->
<svg width="403pt" height="138pt"
 viewBox="0.00 0.00 403.00 138.00" xmlns="http://www.w3.org/2000/svg" xmlns:xlink="http://www.w3.org/1999/xlink">

<svg id="main" version="1.1" xmlns="http://www.w3.org/2000/svg" xmlns:xlink="http://www.w3.org/1999/xlink" xml:space="preserve" onload="init(evt)">
<style type="text/css"><![CDATA[
.node, .edge {opacity: 0.7;}
.node.selected, .edge.selected {opacity: 1;}
.edge:hover path { stroke: red; }
.edge:hover polygon { stroke: red; fill: red; }
]]></style>
<script type="application/ecmascript" xlink:href="svg.min.js"/>
<svg id="graph" class="graph">
<g id="graph0" class="graph" transform="scale(1 1) rotate(0) translate(4 134)">
<title>get_opts</title>
<!-- Node1 -->
<g id="Node000001" class="node">
<title>Node1</title>
<g id="a_Node000001"><a xlink:title=" ">
<polygon fill="#999999" stroke="#666666" points="59,-74 0,-74 0,-55 59,-55 59,-74"/>
<text text-anchor="middle" x="29.5" y="-62" font-family="Mononoki" font-size="10.00">get_opts</text>
</a>
</g>
</g>
<!-- Node2 -->
<g id="Node000002" class="node">
<title>Node2</title>
<g id="a_Node000002"><a xlink:href="dynarr_8c.html#a73f42f3f25cd0920d8039d63ea31be07" target="_top" xlink:title=" ">
<polygon fill="white" stroke="#666666" points="216.5,-130 110.5,-130 110.5,-111 216.5,-111 216.5,-130"/>
<text text-anchor="middle" x="163.5" y="-118" font-family="Mononoki" font-size="10.00">get_dynarr_header</text>
</a>
</g>
</g>
<!-- Node1&#45;&gt;Node2 -->
<g id="edge1_Node000001_Node000002" class="edge">
<title>Node1&#45;&gt;Node2</title>
<g id="a_edge1_Node000001_Node000002"><a xlink:title=" ">
<path fill="none" stroke="#63b8ff" d="M44.27,-74.11C56.95,-82.59 76.54,-94.77 95,-102.5 99.77,-104.5 104.83,-106.33 109.94,-108"/>
<polygon fill="#63b8ff" stroke="#63b8ff" points="109.2,-111.43 119.78,-110.99 111.24,-104.73 109.2,-111.43"/>
</a>
</g>
</g>
<!-- Node4 -->
<g id="Node000004" class="node">
<title>Node4</title>
<g id="a_Node000004"><a target="_parent" xlink:href="https://evjeesm.github.io/vector/group__Vector__API.html#ga435ecb8dca435624d8d277feb6b2cc80" xlink:title=" ">
<polygon fill="white" stroke="#666666" points="219,-93 108,-93 108,-74 219,-74 219,-93"/>
<text text-anchor="middle" x="163.5" y="-81" font-family="Mononoki" font-size="10.00">vector_data_offset</text>
</a>
</g>
</g>
<!-- Node1&#45;&gt;Node4 -->
<g id="edge3_Node000001_Node000004" class="edge">
<title>Node1&#45;&gt;Node4</title>
<g id="a_edge3_Node000001_Node000004"><a xlink:title=" ">
<path fill="none" stroke="#63b8ff" d="M59.14,-68.62C70.5,-70.26 84.06,-72.21 97.56,-74.15"/>
<polygon fill="#63b8ff" stroke="#63b8ff" points="97.44,-77.67 107.84,-75.63 98.44,-70.74 97.44,-77.67"/>
</a>
</g>
</g>
<!-- Node5 -->
<g id="Node000005" class="node">
<title>Node5</title>
<g id="a_Node000005"><a target="_parent" xlink:href="https://evjeesm.github.io/vector/group__Vector__API.html#gaae93d7f0c056c1d11d3232a7a7aa5e09" xlink:title=" ">
<polygon fill="white" stroke="#666666" points="221.5,-56 105.5,-56 105.5,-37 221.5,-37 221.5,-56"/>
<text text-anchor="middle" x="163.5" y="-44" font-family="Mononoki" font-size="10.00">vector_element_size</text>
</a>
</g>
</g>
<!-- Node1&#45;&gt;Node5 -->
<g id="edge4_Node000001_Node000005" class="edge">
<title>Node1&#45;&gt;Node5</title>
<g id="a_edge4_Node000001_Node000005"><a xlink:title=" ">
<path fill="none" stroke="#63b8ff" d="M59.14,-60.59C69.85,-59.13 82.52,-57.41 95.25,-55.67"/>
<polygon fill="#63b8ff" stroke="#63b8ff" points="96,-59.1 105.43,-54.28 95.05,-52.17 96,-59.1"/>
</a>
</g>
</g>
<!-- Node6 -->
<g id="Node000006" class="node">
<title>Node6</title>
<g id="a_Node000006"><a target="_parent" xlink:href="https://evjeesm.github.io/vector/group__Vector__API.html#ga8920a1d7d9d5db65a90e0e27b112ed2e" xlink:title=" ">
<polygon fill="white" stroke="#666666" points="232,-19 95,-19 95,0 232,0 232,-19"/>
<text text-anchor="middle" x="163.5" y="-7" font-family="Mononoki" font-size="10.00">vector_initial_capacity</text>
</a>
</g>
</g>
<!-- Node1&#45;&gt;Node6 -->
<g id="edge5_Node000001_Node000006" class="edge">
<title>Node1&#45;&gt;Node6</title>
<g id="a_edge5_Node000001_Node000006"><a xlink:title=" ">
<path fill="none" stroke="#63b8ff" d="M45.37,-54.87C58.13,-46.94 77.22,-35.84 95,-28.5 100.76,-26.12 106.91,-23.93 113.08,-21.96"/>
<polygon fill="#63b8ff" stroke="#63b8ff" points="114.16,-25.28 122.71,-19.03 112.12,-18.59 114.16,-25.28"/>
</a>
</g>
</g>
<!-- Node3 -->
<g id="Node000003" class="node">
<title>Node3</title>
<g id="a_Node000003"><a target="_parent" xlink:href="https://evjeesm.github.io/vector/group__Vector__API.html#gafc2e34dbacffe6480af8681fbf46e808" xlink:title=" ">
<polygon fill="white" stroke="#666666" points="395,-130 268,-130 268,-111 395,-111 395,-130"/>
<text text-anchor="middle" x="331.5" y="-118" font-family="Mononoki" font-size="10.00">vector_get_ext_header</text>
</a>
</g>
</g>
<!-- Node2&#45;&gt;Node3 -->
<g id="edge2_Node000002_Node000003" class="edge">
<title>Node2&#45;&gt;Node3</title>
<g id="a_edge2_Node000002_Node000003"><a xlink:title=" ">
<path fill="none" stroke="#63b8ff" d="M216.57,-120.5C229.65,-120.5 243.93,-120.5 257.82,-120.5"/>
<polygon fill="#63b8ff" stroke="#63b8ff" points="257.84,-124 267.84,-120.5 257.84,-117 257.84,-124"/>
</a>
</g>
</g>
</g>
</svg>
</svg>

<style type='text/css'>
<![CDATA[
[data-mouse-over-selected='false'] { opacity: 0.7; }
[data-mouse-over-selected='true']  { opacity: 1.0; }
]]>
</style>
<script type="application/ecmascript"><![CDATA[
document.addEventListener('DOMContentLoaded', (event) => {
  highlightEdges();
  highlightAdjacentNodes();
});
]]></script>
</svg>
