<?xml version="1.0" encoding="UTF-8" standalone="no"?>
<!DOCTYPE svg PUBLIC "-//W3C//DTD SVG 1.1//EN"
 "http://www.w3.org/Graphics/SVG/1.1/DTD/svg11.dtd">
<!-- Generated by graphviz version 2.43.0 (0)
 -->
<!-- Title: binary_find_insert_place Pages: 1 -->
<svg width="476pt" height="56pt"
 viewBox="0.00 0.00 476.00 56.00" xmlns="http://www.w3.org/2000/svg" xmlns:xlink="http://www.w3.org/1999/xlink">
<g id="graph0" class="graph" transform="scale(1 1) rotate(0) translate(4 52)">
<title>binary_find_insert_place</title>
<!-- Node1 -->
<g id="Node000001" class="node">
<title>Node1</title>
<g id="a_Node000001"><a xlink:title=" ">
<polygon fill="#999999" stroke="#666666" points="111,-30 0,-30 0,0 111,0 111,-30"/>
<text text-anchor="start" x="8" y="-18" font-family="Mononoki" font-size="10.00">binary_find_insert</text>
<text text-anchor="middle" x="55.5" y="-7" font-family="Mononoki" font-size="10.00">_place</text>
</a>
</g>
</g>
<!-- Node1&#45;&gt;Node1 -->
<g id="edge1_Node000001_Node000001" class="edge">
<title>Node1&#45;&gt;Node1</title>
<g id="a_edge1_Node000001_Node000001"><a xlink:title=" ">
<path fill="none" stroke="#63b8ff" d="M33.35,-30.28C28.43,-39.41 35.81,-48 55.5,-48 67.19,-48 74.54,-44.97 77.55,-40.6"/>
<polygon fill="#63b8ff" stroke="#63b8ff" points="81.06,-40.31 77.65,-30.28 74.06,-40.24 81.06,-40.31"/>
</a>
</g>
</g>
<!-- Node2 -->
<g id="Node000002" class="node">
<title>Node2</title>
<g id="a_Node000002"><a xlink:href="group__Dynarr__API.html#ga93c32dd116523090126d427cce08e114" target="_top" xlink:title=" ">
<polygon fill="white" stroke="#666666" points="216,-24.5 147,-24.5 147,-5.5 216,-5.5 216,-24.5"/>
<text text-anchor="middle" x="181.5" y="-12.5" font-family="Mononoki" font-size="10.00">dynarr_get</text>
</a>
</g>
</g>
<!-- Node1&#45;&gt;Node2 -->
<g id="edge2_Node000001_Node000002" class="edge">
<title>Node1&#45;&gt;Node2</title>
<g id="a_edge2_Node000001_Node000002"><a xlink:title=" ">
<path fill="none" stroke="#63b8ff" d="M111.25,-15C119.73,-15 128.4,-15 136.61,-15"/>
<polygon fill="#63b8ff" stroke="#63b8ff" points="136.7,-18.5 146.7,-15 136.7,-11.5 136.7,-18.5"/>
</a>
</g>
</g>
<!-- Node3 -->
<g id="Node000003" class="node">
<title>Node3</title>
<g id="a_Node000003"><a xlink:href="group__Dynarr__API.html#gaf5c43e2644d185b9b01065af34ed6e29" target="_top" xlink:title=" ">
<polygon fill="white" stroke="#666666" points="326,-24.5 252,-24.5 252,-5.5 326,-5.5 326,-24.5"/>
<text text-anchor="middle" x="289" y="-12.5" font-family="Mononoki" font-size="10.00">dynarr_size</text>
</a>
</g>
</g>
<!-- Node2&#45;&gt;Node3 -->
<g id="edge3_Node000002_Node000003" class="edge">
<title>Node2&#45;&gt;Node3</title>
<g id="a_edge3_Node000002_Node000003"><a xlink:title=" ">
<path fill="none" stroke="#63b8ff" d="M216.17,-15C224.23,-15 232.98,-15 241.5,-15"/>
<polygon fill="#63b8ff" stroke="#63b8ff" points="241.73,-18.5 251.73,-15 241.73,-11.5 241.73,-18.5"/>
</a>
</g>
</g>
<!-- Node4 -->
<g id="Node000004" class="node">
<title>Node4</title>
<g id="a_Node000004"><a xlink:href="dynarr_8c.html#a73f42f3f25cd0920d8039d63ea31be07" target="_top" xlink:title=" ">
<polygon fill="white" stroke="#666666" points="468,-24.5 362,-24.5 362,-5.5 468,-5.5 468,-24.5"/>
<text text-anchor="middle" x="415" y="-12.5" font-family="Mononoki" font-size="10.00">get_dynarr_header</text>
</a>
</g>
</g>
<!-- Node3&#45;&gt;Node4 -->
<g id="edge4_Node000003_Node000004" class="edge">
<title>Node3&#45;&gt;Node4</title>
<g id="a_edge4_Node000003_Node000004"><a xlink:title=" ">
<path fill="none" stroke="#63b8ff" d="M326.2,-15C334.21,-15 342.93,-15 351.65,-15"/>
<polygon fill="#63b8ff" stroke="#63b8ff" points="351.86,-18.5 361.86,-15 351.86,-11.5 351.86,-18.5"/>
</a>
</g>
</g>
</g>
</svg>
