<?xml version="1.0" encoding="UTF-8" standalone="no"?>
<!DOCTYPE svg PUBLIC "-//W3C//DTD SVG 1.1//EN"
 "http://www.w3.org/Graphics/SVG/1.1/DTD/svg11.dtd">
<!-- Generated by graphviz version 2.43.0 (0)
 -->
<!-- Title: Graph Legend Pages: 1 -->
<svg width="525pt" height="159pt"
 viewBox="0.00 0.00 524.50 159.00" xmlns="http://www.w3.org/2000/svg" xmlns:xlink="http://www.w3.org/1999/xlink">
<g id="graph0" class="graph" transform="scale(1 1) rotate(0) translate(4 155)">
<title>Graph Legend</title>
<!-- Node9 -->
<g id="Node000009" class="node">
<title>Node9</title>
<g id="a_Node000009"><a xlink:title=" ">
<polygon fill="#999999" stroke="#666666" points="306.5,-19 242.5,-19 242.5,0 306.5,0 306.5,-19"/>
<text text-anchor="middle" x="274.5" y="-7" font-family="Mononoki" font-size="10.00">Inherited</text>
</a>
</g>
</g>
<!-- Node10 -->
<g id="Node000010" class="node">
<title>Node10</title>
<g id="a_Node000010"><a xlink:title=" ">
<polygon fill="white" stroke="#666666" points="69,-85 0,-85 0,-66 69,-66 69,-85"/>
<text text-anchor="middle" x="34.5" y="-73" font-family="Mononoki" font-size="10.00">PublicBase</text>
</a>
</g>
</g>
<!-- Node10&#45;&gt;Node9 -->
<g id="edge1" class="edge">
<title>Node10&#45;&gt;Node9</title>
<g id="a_edge1"><a xlink:title=" ">
<path fill="none" stroke="#63b8ff" d="M76.79,-63.22C124.05,-50.62 199.54,-30.49 242.26,-19.1"/>
<polygon fill="#63b8ff" stroke="#63b8ff" points="75.63,-59.91 66.87,-65.87 77.43,-66.67 75.63,-59.91"/>
</a>
</g>
</g>
<!-- Node11 -->
<g id="Node000011" class="node">
<title>Node11</title>
<g id="a_Node000011"><a xlink:title=" ">
<polygon fill="#fff0f0" stroke="red" points="66.5,-151 2.5,-151 2.5,-132 66.5,-132 66.5,-151"/>
<text text-anchor="middle" x="34.5" y="-139" font-family="Mononoki" font-size="10.00">Truncated</text>
</a>
</g>
</g>
<!-- Node11&#45;&gt;Node10 -->
<g id="edge2" class="edge">
<title>Node11&#45;&gt;Node10</title>
<g id="a_edge2"><a xlink:title=" ">
<path fill="none" stroke="#63b8ff" d="M34.5,-121.58C34.5,-109.63 34.5,-94.72 34.5,-85.41"/>
<polygon fill="#63b8ff" stroke="#63b8ff" points="31,-121.87 34.5,-131.87 38,-121.87 31,-121.87"/>
</a>
</g>
</g>
<!-- Node13 -->
<g id="node4" class="node">
<title>Node13</title>
<g id="a_node4"><a xlink:title=" ">
<polygon fill="white" stroke="#666666" points="172,-85 87,-85 87,-66 172,-66 172,-85"/>
<text text-anchor="middle" x="129.5" y="-73" font-family="Mononoki" font-size="10.00">ProtectedBase</text>
</a>
</g>
</g>
<!-- Node13&#45;&gt;Node9 -->
<g id="edge3" class="edge">
<title>Node13&#45;&gt;Node9</title>
<g id="a_edge3"><a xlink:title=" ">
<path fill="none" stroke="darkgreen" d="M158.51,-61.69C187.09,-49.08 229.96,-30.16 254.79,-19.2"/>
<polygon fill="darkgreen" stroke="darkgreen" points="156.79,-58.63 149.06,-65.87 159.62,-65.03 156.79,-58.63"/>
</a>
</g>
</g>
<!-- Node14 -->
<g id="node5" class="node">
<title>Node14</title>
<g id="a_node5"><a xlink:title=" ">
<polygon fill="white" stroke="#666666" points="264.5,-85 190.5,-85 190.5,-66 264.5,-66 264.5,-85"/>
<text text-anchor="middle" x="227.5" y="-73" font-family="Mononoki" font-size="10.00">PrivateBase</text>
</a>
</g>
</g>
<!-- Node14&#45;&gt;Node9 -->
<g id="edge4" class="edge">
<title>Node14&#45;&gt;Node9</title>
<g id="a_edge4"><a xlink:title=" ">
<path fill="none" stroke="#8b1a1a" d="M239.79,-57.77C248.8,-45.49 260.7,-29.3 267.96,-19.41"/>
<polygon fill="#8b1a1a" stroke="#8b1a1a" points="236.94,-55.74 233.84,-65.87 242.58,-59.88 236.94,-55.74"/>
</a>
</g>
</g>
<!-- Node15 -->
<g id="Node000015" class="node">
<title>Node15</title>
<g id="a_Node000015"><a xlink:title=" ">
<polygon fill="#e0e0e0" stroke="#999999" points="362.5,-85 282.5,-85 282.5,-66 362.5,-66 362.5,-85"/>
<text text-anchor="middle" x="322.5" y="-73" font-family="Mononoki" font-size="10.00">Undocumented</text>
</a>
</g>
</g>
<!-- Node15&#45;&gt;Node9 -->
<g id="edge5" class="edge">
<title>Node15&#45;&gt;Node9</title>
<g id="a_edge5"><a xlink:title=" ">
<path fill="none" stroke="#63b8ff" d="M309.95,-57.77C300.74,-45.49 288.6,-29.3 281.18,-19.41"/>
<polygon fill="#63b8ff" stroke="#63b8ff" points="307.23,-59.97 316.03,-65.87 312.83,-55.77 307.23,-59.97"/>
</a>
</g>
</g>
<!-- Node16 -->
<g id="node7" class="node">
<title>Node16</title>
<g id="a_node7"><a xlink:title=" ">
<polygon fill="white" stroke="#666666" points="460.5,-85 380.5,-85 380.5,-66 460.5,-66 460.5,-85"/>
<text text-anchor="middle" x="420.5" y="-73" font-family="Mononoki" font-size="10.00">Templ&lt; int &gt;</text>
</a>
</g>
</g>
<!-- Node16&#45;&gt;Node9 -->
<g id="edge6" class="edge">
<title>Node16&#45;&gt;Node9</title>
<g id="a_edge6"><a xlink:title=" ">
<path fill="none" stroke="#63b8ff" d="M391.29,-61.69C362.51,-49.08 319.35,-30.16 294.34,-19.2"/>
<polygon fill="#63b8ff" stroke="#63b8ff" points="390.25,-65.06 400.81,-65.87 393.06,-58.65 390.25,-65.06"/>
</a>
</g>
</g>
<!-- Node17 -->
<g id="node8" class="node">
<title>Node17</title>
<g id="a_node8"><a xlink:title=" ">
<polygon fill="white" stroke="#666666" points="455,-151 386,-151 386,-132 455,-132 455,-151"/>
<text text-anchor="middle" x="420.5" y="-139" font-family="Mononoki" font-size="10.00">Templ&lt; T &gt;</text>
</a>
</g>
</g>
<!-- Node17&#45;&gt;Node16 -->
<g id="edge7" class="edge">
<title>Node17&#45;&gt;Node16</title>
<g id="a_edge7"><a xlink:title=" ">
<path fill="none" stroke="orange" stroke-dasharray="5,2" d="M420.5,-121.58C420.5,-109.63 420.5,-94.72 420.5,-85.41"/>
<polygon fill="orange" stroke="orange" points="417,-121.87 420.5,-131.87 424,-121.87 417,-121.87"/>
</a>
</g>
<text text-anchor="middle" x="439" y="-106" font-family="Mononoki" font-size="10.00" fill="grey">&lt; int &gt;</text>
</g>
<!-- Node18 -->
<g id="node9" class="node">
<title>Node18</title>
<g id="a_node9"><a xlink:title=" ">
<polygon fill="white" stroke="#666666" points="516.5,-85 478.5,-85 478.5,-66 516.5,-66 516.5,-85"/>
<text text-anchor="middle" x="497.5" y="-73" font-family="Mononoki" font-size="10.00">Used</text>
</a>
</g>
</g>
<!-- Node18&#45;&gt;Node9 -->
<g id="edge8" class="edge">
<title>Node18&#45;&gt;Node9</title>
<g id="a_edge8"><a xlink:title=" ">
<path fill="none" stroke="#9a32cd" stroke-dasharray="5,2" d="M468.47,-65.73C405.03,-47.12 341.87,-29.32 305.28,-19.08"/>
<polygon fill="#9a32cd" stroke="#9a32cd" points="467.65,-69.14 478.23,-68.6 469.63,-62.42 467.65,-69.14"/>
</a>
</g>
<text text-anchor="middle" x="433.5" y="-40" font-family="Mononoki" font-size="10.00" fill="grey">m_usedClass</text>
</g>
</g>
</svg>
