<?xml version="1.0" encoding="UTF-8" standalone="no"?>
<!DOCTYPE svg PUBLIC "-//W3C//DTD SVG 1.1//EN"
 "http://www.w3.org/Graphics/SVG/1.1/DTD/svg11.dtd">
<!-- Generated by graphviz version 2.43.0 (0)
 -->
<!-- Title: dynarr_foreach Pages: 1 -->
<svg width="529pt" height="64pt"
 viewBox="0.00 0.00 529.00 64.00" xmlns="http://www.w3.org/2000/svg" xmlns:xlink="http://www.w3.org/1999/xlink">
<g id="graph0" class="graph" transform="scale(1 1) rotate(0) translate(4 60)">
<title>dynarr_foreach</title>
<!-- Node1 -->
<g id="Node000001" class="node">
<title>Node1</title>
<g id="a_Node000001"><a xlink:title=" ">
<polygon fill="#999999" stroke="#666666" points="90,-37 0,-37 0,-18 90,-18 90,-37"/>
<text text-anchor="middle" x="45" y="-25" font-family="Mononoki" font-size="10.00">dynarr_foreach</text>
</a>
</g>
</g>
<!-- Node2 -->
<g id="Node000002" class="node">
<title>Node2</title>
<g id="a_Node000002"><a xlink:href="group__Dynarr__API.html#gaf5c43e2644d185b9b01065af34ed6e29" target="_top" xlink:title=" ">
<polygon fill="white" stroke="#666666" points="208,-56 134,-56 134,-37 208,-37 208,-56"/>
<text text-anchor="middle" x="171" y="-44" font-family="Mononoki" font-size="10.00">dynarr_size</text>
</a>
</g>
</g>
<!-- Node1&#45;&gt;Node2 -->
<g id="edge1_Node000001_Node000002" class="edge">
<title>Node1&#45;&gt;Node2</title>
<g id="a_edge1_Node000001_Node000002"><a xlink:title=" ">
<path fill="none" stroke="#63b8ff" d="M90.07,-34.25C101.05,-35.93 112.85,-37.74 123.92,-39.44"/>
<polygon fill="#63b8ff" stroke="#63b8ff" points="123.43,-42.9 133.84,-40.96 124.49,-35.99 123.43,-42.9"/>
</a>
</g>
</g>
<!-- Node5 -->
<g id="Node000005" class="node">
<title>Node5</title>
<g id="a_Node000005"><a target="_parent" xlink:href="https://evjeesm.github.io/vector/group__Vector__API.html#ga988880baa4fe32fb6d4299daf1a29a1f" xlink:title=" ">
<polygon fill="white" stroke="#666666" points="216,-19 126,-19 126,0 216,0 216,-19"/>
<text text-anchor="middle" x="171" y="-7" font-family="Mononoki" font-size="10.00">vector_foreach</text>
</a>
</g>
</g>
<!-- Node1&#45;&gt;Node5 -->
<g id="edge4_Node000001_Node000005" class="edge">
<title>Node1&#45;&gt;Node5</title>
<g id="a_edge4_Node000001_Node000005"><a xlink:title=" ">
<path fill="none" stroke="#63b8ff" d="M90.07,-21.1C98.37,-19.9 107.15,-18.62 115.72,-17.38"/>
<polygon fill="#63b8ff" stroke="#63b8ff" points="116.26,-20.84 125.66,-15.94 115.26,-13.91 116.26,-20.84"/>
</a>
</g>
</g>
<!-- Node3 -->
<g id="Node000003" class="node">
<title>Node3</title>
<g id="a_Node000003"><a xlink:href="dynarr_8c.html#a73f42f3f25cd0920d8039d63ea31be07" target="_top" xlink:title=" ">
<polygon fill="white" stroke="#666666" points="358,-56 252,-56 252,-37 358,-37 358,-56"/>
<text text-anchor="middle" x="305" y="-44" font-family="Mononoki" font-size="10.00">get_dynarr_header</text>
</a>
</g>
</g>
<!-- Node2&#45;&gt;Node3 -->
<g id="edge2_Node000002_Node000003" class="edge">
<title>Node2&#45;&gt;Node3</title>
<g id="a_edge2_Node000002_Node000003"><a xlink:title=" ">
<path fill="none" stroke="#63b8ff" d="M208.07,-46.5C218.46,-46.5 230.11,-46.5 241.61,-46.5"/>
<polygon fill="#63b8ff" stroke="#63b8ff" points="241.64,-50 251.64,-46.5 241.64,-43 241.64,-50"/>
</a>
</g>
</g>
<!-- Node4 -->
<g id="Node000004" class="node">
<title>Node4</title>
<g id="a_Node000004"><a target="_parent" xlink:href="https://evjeesm.github.io/vector/group__Vector__API.html#gafc2e34dbacffe6480af8681fbf46e808" xlink:title=" ">
<polygon fill="white" stroke="#666666" points="521,-56 394,-56 394,-37 521,-37 521,-56"/>
<text text-anchor="middle" x="457.5" y="-44" font-family="Mononoki" font-size="10.00">vector_get_ext_header</text>
</a>
</g>
</g>
<!-- Node3&#45;&gt;Node4 -->
<g id="edge3_Node000003_Node000004" class="edge">
<title>Node3&#45;&gt;Node4</title>
<g id="a_edge3_Node000003_Node000004"><a xlink:title=" ">
<path fill="none" stroke="#63b8ff" d="M358.22,-46.5C366.45,-46.5 375.1,-46.5 383.7,-46.5"/>
<polygon fill="#63b8ff" stroke="#63b8ff" points="383.75,-50 393.75,-46.5 383.75,-43 383.75,-50"/>
</a>
</g>
</g>
</g>
</svg>
