<?xml version="1.0" encoding="UTF-8" standalone="no"?>
<!DOCTYPE svg PUBLIC "-//W3C//DTD SVG 1.1//EN"
 "http://www.w3.org/Graphics/SVG/1.1/DTD/svg11.dtd">
<!-- Generated by graphviz version 2.43.0 (0)
 -->
<!-- Title: free_space_at Pages: 1 -->
<svg width="660pt" height="140pt"
 viewBox="0.00 0.00 660.00 140.00" xmlns="http://www.w3.org/2000/svg" xmlns:xlink="http://www.w3.org/1999/xlink">
<g id="graph0" class="graph" transform="scale(1 1) rotate(0) translate(4 136)">
<title>free_space_at</title>
<!-- Node1 -->
<g id="Node000001" class="node">
<title>Node1</title>
<g id="a_Node000001"><a xlink:title=" ">
<polygon fill="#999999" stroke="#666666" points="85,-76 0,-76 0,-57 85,-57 85,-76"/>
<text text-anchor="middle" x="42.5" y="-64" font-family="Mononoki" font-size="10.00">free_space_at</text>
</a>
</g>
</g>
<!-- Node2 -->
<g id="Node000002" class="node">
<title>Node2</title>
<g id="a_Node000002"><a xlink:href="group__Dynarr__API.html#ga93c32dd116523090126d427cce08e114" target="_top" xlink:title=" ">
<polygon fill="white" stroke="#666666" points="213.5,-95 144.5,-95 144.5,-76 213.5,-76 213.5,-95"/>
<text text-anchor="middle" x="179" y="-83" font-family="Mononoki" font-size="10.00">dynarr_get</text>
</a>
</g>
</g>
<!-- Node1&#45;&gt;Node2 -->
<g id="edge1_Node000001_Node000002" class="edge">
<title>Node1&#45;&gt;Node2</title>
<g id="a_edge1_Node000001_Node000002"><a xlink:title=" ">
<path fill="none" stroke="#63b8ff" d="M85.32,-72.41C100.88,-74.61 118.57,-77.11 134.3,-79.33"/>
<polygon fill="#63b8ff" stroke="#63b8ff" points="133.92,-82.81 144.31,-80.74 134.89,-75.88 133.92,-82.81"/>
</a>
</g>
</g>
<!-- Node3 -->
<g id="Node000003" class="node">
<title>Node3</title>
<g id="a_Node000003"><a xlink:href="group__Dynarr__API.html#gaf5c43e2644d185b9b01065af34ed6e29" target="_top" xlink:title=" ">
<polygon fill="white" stroke="#666666" points="347,-132 273,-132 273,-113 347,-113 347,-132"/>
<text text-anchor="middle" x="310" y="-120" font-family="Mononoki" font-size="10.00">dynarr_size</text>
</a>
</g>
</g>
<!-- Node1&#45;&gt;Node3 -->
<g id="edge6_Node000001_Node000003" class="edge">
<title>Node1&#45;&gt;Node3</title>
<g id="a_edge6_Node000001_Node000003"><a xlink:title=" ">
<path fill="none" stroke="#63b8ff" d="M58.86,-76.11C74.04,-85.09 98.22,-98.06 121,-104.5 168.01,-117.8 223.98,-121.71 262.56,-122.66"/>
<polygon fill="#63b8ff" stroke="#63b8ff" points="262.89,-126.17 272.95,-122.86 263.02,-119.17 262.89,-126.17"/>
</a>
</g>
</g>
<!-- Node4 -->
<g id="Node000004" class="node">
<title>Node4</title>
<g id="a_Node000004"><a xlink:href="dynarr_8c.html#a73f42f3f25cd0920d8039d63ea31be07" target="_top" xlink:title=" ">
<polygon fill="white" stroke="#666666" points="489,-94 383,-94 383,-75 489,-75 489,-94"/>
<text text-anchor="middle" x="436" y="-82" font-family="Mononoki" font-size="10.00">get_dynarr_header</text>
</a>
</g>
</g>
<!-- Node1&#45;&gt;Node4 -->
<g id="edge7_Node000001_Node000004" class="edge">
<title>Node1&#45;&gt;Node4</title>
<g id="a_edge7_Node000001_Node000004"><a xlink:title=" ">
<path fill="none" stroke="#63b8ff" d="M85.35,-64.17C144,-61.46 253.91,-58.44 347,-67.5 359.1,-68.68 372.01,-70.72 384.11,-72.99"/>
<polygon fill="#63b8ff" stroke="#63b8ff" points="383.56,-76.45 394.05,-74.94 384.9,-69.58 383.56,-76.45"/>
</a>
</g>
</g>
<!-- Node7 -->
<g id="Node000007" class="node">
<title>Node7</title>
<g id="a_Node000007"><a target="_parent" xlink:href="https://evjeesm.github.io/vector/group__Vector__API.html#gaae93d7f0c056c1d11d3232a7a7aa5e09" xlink:title=" ">
<polygon fill="white" stroke="#666666" points="237,-19 121,-19 121,0 237,0 237,-19"/>
<text text-anchor="middle" x="179" y="-7" font-family="Mononoki" font-size="10.00">vector_element_size</text>
</a>
</g>
</g>
<!-- Node1&#45;&gt;Node7 -->
<g id="edge8_Node000001_Node000007" class="edge">
<title>Node1&#45;&gt;Node7</title>
<g id="a_edge8_Node000001_Node000007"><a xlink:title=" ">
<path fill="none" stroke="#63b8ff" d="M65.87,-56.95C81.35,-50.34 102.42,-41.37 121,-33.5 129.1,-30.07 137.86,-26.38 146.02,-22.94"/>
<polygon fill="#63b8ff" stroke="#63b8ff" points="147.39,-26.16 155.25,-19.06 144.67,-19.71 147.39,-26.16"/>
</a>
</g>
</g>
<!-- Node2&#45;&gt;Node3 -->
<g id="edge2_Node000002_Node000003" class="edge">
<title>Node2&#45;&gt;Node3</title>
<g id="a_edge2_Node000002_Node000003"><a xlink:title=" ">
<path fill="none" stroke="#63b8ff" d="M213.22,-95.03C229.2,-99.61 248.55,-105.16 265.67,-110.07"/>
<polygon fill="#63b8ff" stroke="#63b8ff" points="264.87,-113.48 275.44,-112.88 266.8,-106.75 264.87,-113.48"/>
</a>
</g>
</g>
<!-- Node6 -->
<g id="Node000006" class="node">
<title>Node6</title>
<g id="a_Node000006"><a target="_parent" xlink:href="https://evjeesm.github.io/vector/group__Vector__API.html#ga9437d9506a3b2799f595c88b82f160b3" xlink:title=" ">
<polygon fill="white" stroke="#666666" points="344.5,-95 275.5,-95 275.5,-76 344.5,-76 344.5,-95"/>
<text text-anchor="middle" x="310" y="-83" font-family="Mononoki" font-size="10.00">vector_get</text>
</a>
</g>
</g>
<!-- Node2&#45;&gt;Node6 -->
<g id="edge5_Node000002_Node000006" class="edge">
<title>Node2&#45;&gt;Node6</title>
<g id="a_edge5_Node000002_Node000006"><a xlink:title=" ">
<path fill="none" stroke="#63b8ff" d="M213.56,-85.5C229.26,-85.5 248.17,-85.5 265,-85.5"/>
<polygon fill="#63b8ff" stroke="#63b8ff" points="265.16,-89 275.16,-85.5 265.16,-82 265.16,-89"/>
</a>
</g>
</g>
<!-- Node3&#45;&gt;Node4 -->
<g id="edge3_Node000003_Node000004" class="edge">
<title>Node3&#45;&gt;Node4</title>
<g id="a_edge3_Node000003_Node000004"><a xlink:title=" ">
<path fill="none" stroke="#63b8ff" d="M342.29,-112.91C358,-108.1 377.24,-102.2 394.11,-97.03"/>
<polygon fill="#63b8ff" stroke="#63b8ff" points="395.18,-100.36 403.72,-94.09 393.13,-93.67 395.18,-100.36"/>
</a>
</g>
</g>
<!-- Node5 -->
<g id="Node000005" class="node">
<title>Node5</title>
<g id="a_Node000005"><a target="_parent" xlink:href="https://evjeesm.github.io/vector/group__Vector__API.html#gafc2e34dbacffe6480af8681fbf46e808" xlink:title=" ">
<polygon fill="white" stroke="#666666" points="652,-94 525,-94 525,-75 652,-75 652,-94"/>
<text text-anchor="middle" x="588.5" y="-82" font-family="Mononoki" font-size="10.00">vector_get_ext_header</text>
</a>
</g>
</g>
<!-- Node4&#45;&gt;Node5 -->
<g id="edge4_Node000004_Node000005" class="edge">
<title>Node4&#45;&gt;Node5</title>
<g id="a_edge4_Node000004_Node000005"><a xlink:title=" ">
<path fill="none" stroke="#63b8ff" d="M489.22,-84.5C497.45,-84.5 506.1,-84.5 514.7,-84.5"/>
<polygon fill="#63b8ff" stroke="#63b8ff" points="514.75,-88 524.75,-84.5 514.75,-81 514.75,-88"/>
</a>
</g>
</g>
</g>
</svg>
