<?xml version="1.0" encoding="UTF-8" standalone="no"?>
<!DOCTYPE svg PUBLIC "-//W3C//DTD SVG 1.1//EN"
 "http://www.w3.org/Graphics/SVG/1.1/DTD/svg11.dtd">
<!-- Generated by graphviz version 2.43.0 (0)
 -->
<!-- Title: dynarr_binary_find_insert_place Pages: 1 -->
<svg width="786pt" height="91pt"
 viewBox="0.00 0.00 786.00 90.50" xmlns="http://www.w3.org/2000/svg" xmlns:xlink="http://www.w3.org/1999/xlink">
<g id="graph0" class="graph" transform="scale(1 1) rotate(0) translate(4 86.5)">
<title>dynarr_binary_find_insert_place</title>
<!-- Node1 -->
<g id="Node000001" class="node">
<title>Node1</title>
<g id="a_Node000001"><a xlink:title=" ">
<polygon fill="#999999" stroke="#666666" points="111,-42.5 0,-42.5 0,-12.5 111,-12.5 111,-42.5"/>
<text text-anchor="start" x="8" y="-30.5" font-family="Mononoki" font-size="10.00">dynarr_binary_find</text>
<text text-anchor="middle" x="55.5" y="-19.5" font-family="Mononoki" font-size="10.00">_insert_place</text>
</a>
</g>
</g>
<!-- Node2 -->
<g id="Node000002" class="node">
<title>Node2</title>
<g id="a_Node000002"><a xlink:href="dynarr_8c.html#a187b18732062f4f69486553f37697739" target="_top" xlink:title=" ">
<polygon fill="white" stroke="#666666" points="258,-64.5 147,-64.5 147,-34.5 258,-34.5 258,-64.5"/>
<text text-anchor="start" x="155" y="-52.5" font-family="Mononoki" font-size="10.00">binary_find_insert</text>
<text text-anchor="middle" x="202.5" y="-41.5" font-family="Mononoki" font-size="10.00">_place</text>
</a>
</g>
</g>
<!-- Node1&#45;&gt;Node2 -->
<g id="edge1_Node000001_Node000002" class="edge">
<title>Node1&#45;&gt;Node2</title>
<g id="a_edge1_Node000001_Node000002"><a xlink:title=" ">
<path fill="none" stroke="#63b8ff" d="M111.32,-35.82C119.53,-37.06 128.06,-38.36 136.46,-39.63"/>
<polygon fill="#63b8ff" stroke="#63b8ff" points="136.19,-43.13 146.6,-41.17 137.24,-36.21 136.19,-43.13"/>
</a>
</g>
</g>
<!-- Node4 -->
<g id="Node000004" class="node">
<title>Node4</title>
<g id="a_Node000004"><a xlink:href="group__Dynarr__API.html#gaf5c43e2644d185b9b01065af34ed6e29" target="_top" xlink:title=" ">
<polygon fill="white" stroke="#666666" points="473,-19 399,-19 399,0 473,0 473,-19"/>
<text text-anchor="middle" x="436" y="-7" font-family="Mononoki" font-size="10.00">dynarr_size</text>
</a>
</g>
</g>
<!-- Node1&#45;&gt;Node4 -->
<g id="edge8_Node000001_Node000004" class="edge">
<title>Node1&#45;&gt;Node4</title>
<g id="a_edge8_Node000001_Node000004"><a xlink:title=" ">
<path fill="none" stroke="#63b8ff" d="M111.13,-24.9C185.81,-21.35 318.47,-15.04 388.59,-11.71"/>
<polygon fill="#63b8ff" stroke="#63b8ff" points="389.05,-15.19 398.88,-11.22 388.72,-8.2 389.05,-15.19"/>
</a>
</g>
</g>
<!-- Node2&#45;&gt;Node2 -->
<g id="edge2_Node000002_Node000002" class="edge">
<title>Node2&#45;&gt;Node2</title>
<g id="a_edge2_Node000002_Node000002"><a xlink:title=" ">
<path fill="none" stroke="#63b8ff" d="M180.35,-64.78C175.43,-73.91 182.81,-82.5 202.5,-82.5 214.19,-82.5 221.54,-79.47 224.55,-75.1"/>
<polygon fill="#63b8ff" stroke="#63b8ff" points="228.06,-74.81 224.65,-64.78 221.06,-74.74 228.06,-74.81"/>
</a>
</g>
</g>
<!-- Node3 -->
<g id="Node000003" class="node">
<title>Node3</title>
<g id="a_Node000003"><a xlink:href="group__Dynarr__API.html#ga93c32dd116523090126d427cce08e114" target="_top" xlink:title=" ">
<polygon fill="white" stroke="#666666" points="363,-56 294,-56 294,-37 363,-37 363,-56"/>
<text text-anchor="middle" x="328.5" y="-44" font-family="Mononoki" font-size="10.00">dynarr_get</text>
</a>
</g>
</g>
<!-- Node2&#45;&gt;Node3 -->
<g id="edge3_Node000002_Node000003" class="edge">
<title>Node2&#45;&gt;Node3</title>
<g id="a_edge3_Node000002_Node000003"><a xlink:title=" ">
<path fill="none" stroke="#63b8ff" d="M258.25,-48.18C266.73,-47.97 275.4,-47.76 283.61,-47.56"/>
<polygon fill="#63b8ff" stroke="#63b8ff" points="283.79,-51.06 293.7,-47.32 283.62,-44.06 283.79,-51.06"/>
</a>
</g>
</g>
<!-- Node3&#45;&gt;Node4 -->
<g id="edge4_Node000003_Node000004" class="edge">
<title>Node3&#45;&gt;Node4</title>
<g id="a_edge4_Node000003_Node000004"><a xlink:title=" ">
<path fill="none" stroke="#63b8ff" d="M356.67,-36.97C369.25,-32.56 384.38,-27.25 397.98,-22.48"/>
<polygon fill="#63b8ff" stroke="#63b8ff" points="399.28,-25.74 407.56,-19.12 396.96,-19.13 399.28,-25.74"/>
</a>
</g>
</g>
<!-- Node7 -->
<g id="Node000007" class="node">
<title>Node7</title>
<g id="a_Node000007"><a target="_parent" xlink:href="https://evjeesm.github.io/vector/group__Vector__API.html#ga9437d9506a3b2799f595c88b82f160b3" xlink:title=" ">
<polygon fill="white" stroke="#666666" points="470.5,-56 401.5,-56 401.5,-37 470.5,-37 470.5,-56"/>
<text text-anchor="middle" x="436" y="-44" font-family="Mononoki" font-size="10.00">vector_get</text>
</a>
</g>
</g>
<!-- Node3&#45;&gt;Node7 -->
<g id="edge7_Node000003_Node000007" class="edge">
<title>Node3&#45;&gt;Node7</title>
<g id="a_edge7_Node000003_Node000007"><a xlink:title=" ">
<path fill="none" stroke="#63b8ff" d="M363.17,-46.5C372.02,-46.5 381.7,-46.5 391,-46.5"/>
<polygon fill="#63b8ff" stroke="#63b8ff" points="391.29,-50 401.29,-46.5 391.29,-43 391.29,-50"/>
</a>
</g>
</g>
<!-- Node5 -->
<g id="Node000005" class="node">
<title>Node5</title>
<g id="a_Node000005"><a xlink:href="dynarr_8c.html#a73f42f3f25cd0920d8039d63ea31be07" target="_top" xlink:title=" ">
<polygon fill="white" stroke="#666666" points="615,-19 509,-19 509,0 615,0 615,-19"/>
<text text-anchor="middle" x="562" y="-7" font-family="Mononoki" font-size="10.00">get_dynarr_header</text>
</a>
</g>
</g>
<!-- Node4&#45;&gt;Node5 -->
<g id="edge5_Node000004_Node000005" class="edge">
<title>Node4&#45;&gt;Node5</title>
<g id="a_edge5_Node000004_Node000005"><a xlink:title=" ">
<path fill="none" stroke="#63b8ff" d="M473.2,-9.5C481.21,-9.5 489.93,-9.5 498.65,-9.5"/>
<polygon fill="#63b8ff" stroke="#63b8ff" points="498.86,-13 508.86,-9.5 498.86,-6 498.86,-13"/>
</a>
</g>
</g>
<!-- Node6 -->
<g id="Node000006" class="node">
<title>Node6</title>
<g id="a_Node000006"><a target="_parent" xlink:href="https://evjeesm.github.io/vector/group__Vector__API.html#gafc2e34dbacffe6480af8681fbf46e808" xlink:title=" ">
<polygon fill="white" stroke="#666666" points="778,-19 651,-19 651,0 778,0 778,-19"/>
<text text-anchor="middle" x="714.5" y="-7" font-family="Mononoki" font-size="10.00">vector_get_ext_header</text>
</a>
</g>
</g>
<!-- Node5&#45;&gt;Node6 -->
<g id="edge6_Node000005_Node000006" class="edge">
<title>Node5&#45;&gt;Node6</title>
<g id="a_edge6_Node000005_Node000006"><a xlink:title=" ">
<path fill="none" stroke="#63b8ff" d="M615.22,-9.5C623.45,-9.5 632.1,-9.5 640.7,-9.5"/>
<polygon fill="#63b8ff" stroke="#63b8ff" points="640.75,-13 650.75,-9.5 640.75,-6 640.75,-13"/>
</a>
</g>
</g>
</g>
</svg>
