<?xml version="1.0" encoding="UTF-8" standalone="no"?>
<!DOCTYPE svg PUBLIC "-//W3C//DTD SVG 1.1//EN"
 "http://www.w3.org/Graphics/SVG/1.1/DTD/svg11.dtd">
<!-- Generated by graphviz version 2.43.0 (0)
 -->
<!-- Title: dynarr_transform Pages: 1 -->
<svg width="666pt" height="64pt"
 viewBox="0.00 0.00 666.00 64.00" xmlns="http://www.w3.org/2000/svg" xmlns:xlink="http://www.w3.org/1999/xlink">
<g id="graph0" class="graph" transform="scale(1 1) rotate(0) translate(4 60)">
<title>dynarr_transform</title>
<!-- Node1 -->
<g id="Node000001" class="node">
<title>Node1</title>
<g id="a_Node000001"><a xlink:title=" ">
<polygon fill="#999999" stroke="#666666" points="101,-37 0,-37 0,-18 101,-18 101,-37"/>
<text text-anchor="middle" x="50.5" y="-25" font-family="Mononoki" font-size="10.00">dynarr_transform</text>
</a>
</g>
</g>
<!-- Node2 -->
<g id="Node000002" class="node">
<title>Node2</title>
<g id="a_Node000002"><a xlink:href="group__Dynarr__API.html#ga2575dd307a95358e074e07c2b9999a9d" target="_top" xlink:title=" ">
<polygon fill="white" stroke="#666666" points="227,-37 137,-37 137,-18 227,-18 227,-37"/>
<text text-anchor="middle" x="182" y="-25" font-family="Mononoki" font-size="10.00">dynarr_foreach</text>
</a>
</g>
</g>
<!-- Node1&#45;&gt;Node2 -->
<g id="edge1_Node000001_Node000002" class="edge">
<title>Node1&#45;&gt;Node2</title>
<g id="a_edge1_Node000001_Node000002"><a xlink:title=" ">
<path fill="none" stroke="#63b8ff" d="M101.2,-27.5C109.51,-27.5 118.18,-27.5 126.61,-27.5"/>
<polygon fill="#63b8ff" stroke="#63b8ff" points="126.73,-31 136.73,-27.5 126.73,-24 126.73,-31"/>
</a>
</g>
</g>
<!-- Node3 -->
<g id="Node000003" class="node">
<title>Node3</title>
<g id="a_Node000003"><a xlink:href="group__Dynarr__API.html#gaf5c43e2644d185b9b01065af34ed6e29" target="_top" xlink:title=" ">
<polygon fill="white" stroke="#666666" points="345,-56 271,-56 271,-37 345,-37 345,-56"/>
<text text-anchor="middle" x="308" y="-44" font-family="Mononoki" font-size="10.00">dynarr_size</text>
</a>
</g>
</g>
<!-- Node2&#45;&gt;Node3 -->
<g id="edge2_Node000002_Node000003" class="edge">
<title>Node2&#45;&gt;Node3</title>
<g id="a_edge2_Node000002_Node000003"><a xlink:title=" ">
<path fill="none" stroke="#63b8ff" d="M227.07,-34.25C238.05,-35.93 249.85,-37.74 260.92,-39.44"/>
<polygon fill="#63b8ff" stroke="#63b8ff" points="260.43,-42.9 270.84,-40.96 261.49,-35.99 260.43,-42.9"/>
</a>
</g>
</g>
<!-- Node6 -->
<g id="Node000006" class="node">
<title>Node6</title>
<g id="a_Node000006"><a target="_parent" xlink:href="https://evjeesm.github.io/vector/group__Vector__API.html#ga988880baa4fe32fb6d4299daf1a29a1f" xlink:title=" ">
<polygon fill="white" stroke="#666666" points="353,-19 263,-19 263,0 353,0 353,-19"/>
<text text-anchor="middle" x="308" y="-7" font-family="Mononoki" font-size="10.00">vector_foreach</text>
</a>
</g>
</g>
<!-- Node2&#45;&gt;Node6 -->
<g id="edge5_Node000002_Node000006" class="edge">
<title>Node2&#45;&gt;Node6</title>
<g id="a_edge5_Node000002_Node000006"><a xlink:title=" ">
<path fill="none" stroke="#63b8ff" d="M227.07,-21.1C235.37,-19.9 244.15,-18.62 252.72,-17.38"/>
<polygon fill="#63b8ff" stroke="#63b8ff" points="253.26,-20.84 262.66,-15.94 252.26,-13.91 253.26,-20.84"/>
</a>
</g>
</g>
<!-- Node4 -->
<g id="Node000004" class="node">
<title>Node4</title>
<g id="a_Node000004"><a xlink:href="dynarr_8c.html#a73f42f3f25cd0920d8039d63ea31be07" target="_top" xlink:title=" ">
<polygon fill="white" stroke="#666666" points="495,-56 389,-56 389,-37 495,-37 495,-56"/>
<text text-anchor="middle" x="442" y="-44" font-family="Mononoki" font-size="10.00">get_dynarr_header</text>
</a>
</g>
</g>
<!-- Node3&#45;&gt;Node4 -->
<g id="edge3_Node000003_Node000004" class="edge">
<title>Node3&#45;&gt;Node4</title>
<g id="a_edge3_Node000003_Node000004"><a xlink:title=" ">
<path fill="none" stroke="#63b8ff" d="M345.07,-46.5C355.46,-46.5 367.11,-46.5 378.61,-46.5"/>
<polygon fill="#63b8ff" stroke="#63b8ff" points="378.64,-50 388.64,-46.5 378.64,-43 378.64,-50"/>
</a>
</g>
</g>
<!-- Node5 -->
<g id="Node000005" class="node">
<title>Node5</title>
<g id="a_Node000005"><a target="_parent" xlink:href="https://evjeesm.github.io/vector/group__Vector__API.html#gafc2e34dbacffe6480af8681fbf46e808" xlink:title=" ">
<polygon fill="white" stroke="#666666" points="658,-56 531,-56 531,-37 658,-37 658,-56"/>
<text text-anchor="middle" x="594.5" y="-44" font-family="Mononoki" font-size="10.00">vector_get_ext_header</text>
</a>
</g>
</g>
<!-- Node4&#45;&gt;Node5 -->
<g id="edge4_Node000004_Node000005" class="edge">
<title>Node4&#45;&gt;Node5</title>
<g id="a_edge4_Node000004_Node000005"><a xlink:title=" ">
<path fill="none" stroke="#63b8ff" d="M495.22,-46.5C503.45,-46.5 512.1,-46.5 520.7,-46.5"/>
<polygon fill="#63b8ff" stroke="#63b8ff" points="520.75,-50 530.75,-46.5 520.75,-43 520.75,-50"/>
</a>
</g>
</g>
</g>
</svg>
