<?xml version="1.0" encoding="UTF-8" standalone="no"?>
<!DOCTYPE svg PUBLIC "-//W3C//DTD SVG 1.1//EN"
 "http://www.w3.org/Graphics/SVG/1.1/DTD/svg11.dtd">
<!-- Generated by graphviz version 2.43.0 (0)
 -->
<!-- Title: dynarr_append Pages: 1 -->
<svg width="923pt" height="329pt"
 viewBox="0.00 0.00 923.00 328.65" xmlns="http://www.w3.org/2000/svg" xmlns:xlink="http://www.w3.org/1999/xlink">
<g id="graph0" class="graph" transform="scale(1 1) rotate(0) translate(4 324.65)">
<title>dynarr_append</title>
<!-- Node1 -->
<g id="Node000001" class="node">
<title>Node1</title>
<g id="a_Node000001"><a xlink:title=" ">
<polygon fill="#999999" stroke="#666666" points="85,-113 0,-113 0,-94 85,-94 85,-113"/>
<text text-anchor="middle" x="42.5" y="-101" font-family="Mononoki" font-size="10.00">dynarr_append</text>
</a>
</g>
</g>
<!-- Node2 -->
<g id="Node000002" class="node">
<title>Node2</title>
<g id="a_Node000002"><a xlink:href="group__Dynarr__API.html#gab449a79e6b33f55af35329df4363336e" target="_top" xlink:title=" ">
<polygon fill="white" stroke="#666666" points="206,-151 121,-151 121,-132 206,-132 206,-151"/>
<text text-anchor="middle" x="163.5" y="-139" font-family="Mononoki" font-size="10.00">dynarr_insert</text>
</a>
</g>
</g>
<!-- Node1&#45;&gt;Node2 -->
<g id="edge1_Node000001_Node000002" class="edge">
<title>Node1&#45;&gt;Node2</title>
<g id="a_edge1_Node000001_Node000002"><a xlink:title=" ">
<path fill="none" stroke="#63b8ff" d="M73.53,-113.09C88.47,-117.86 106.72,-123.69 122.8,-128.82"/>
<polygon fill="#63b8ff" stroke="#63b8ff" points="121.89,-132.21 132.48,-131.91 124.02,-125.54 121.89,-132.21"/>
</a>
</g>
</g>
<!-- Node4 -->
<g id="Node000004" class="node">
<title>Node4</title>
<g id="a_Node000004"><a xlink:href="group__Dynarr__API.html#gaf5c43e2644d185b9b01065af34ed6e29" target="_top" xlink:title=" ">
<polygon fill="white" stroke="#666666" points="599.5,-170 525.5,-170 525.5,-151 599.5,-151 599.5,-170"/>
<text text-anchor="middle" x="562.5" y="-158" font-family="Mononoki" font-size="10.00">dynarr_size</text>
</a>
</g>
</g>
<!-- Node1&#45;&gt;Node4 -->
<g id="edge21_Node000001_Node000004" class="edge">
<title>Node1&#45;&gt;Node4</title>
<g id="a_edge21_Node000001_Node000004"><a xlink:title=" ">
<path fill="none" stroke="#63b8ff" d="M74.18,-93.98C147.3,-72.98 336.42,-28.84 479,-84.5 508.78,-96.12 534.29,-124.09 548.76,-142.66"/>
<polygon fill="#63b8ff" stroke="#63b8ff" points="546.15,-145.01 554.95,-150.91 551.74,-140.81 546.15,-145.01"/>
</a>
</g>
</g>
<!-- Node3 -->
<g id="Node000003" class="node">
<title>Node3</title>
<g id="a_Node000003"><a xlink:href="group__Dynarr__API.html#ga30d508a9f387e2227dd0d72a8bfd2a39" target="_top" xlink:title=" ">
<polygon fill="white" stroke="#666666" points="319,-151 250,-151 250,-132 319,-132 319,-151"/>
<text text-anchor="middle" x="284.5" y="-139" font-family="Mononoki" font-size="10.00">dynarr_set</text>
</a>
</g>
</g>
<!-- Node2&#45;&gt;Node3 -->
<g id="edge2_Node000002_Node000003" class="edge">
<title>Node2&#45;&gt;Node3</title>
<g id="a_edge2_Node000002_Node000003"><a xlink:title=" ">
<path fill="none" stroke="#63b8ff" d="M206.12,-141.5C216.99,-141.5 228.74,-141.5 239.71,-141.5"/>
<polygon fill="#63b8ff" stroke="#63b8ff" points="239.95,-145 249.95,-141.5 239.95,-138 239.95,-145"/>
</a>
</g>
</g>
<!-- Node2&#45;&gt;Node4 -->
<g id="edge7_Node000002_Node000004" class="edge">
<title>Node2&#45;&gt;Node4</title>
<g id="a_edge7_Node000002_Node000004"><a xlink:title=" ">
<path fill="none" stroke="#63b8ff" d="M199.75,-151.09C212.91,-154.3 228.05,-157.55 242,-159.5 338.33,-172.97 452.6,-168.45 515.04,-164.27"/>
<polygon fill="#63b8ff" stroke="#63b8ff" points="515.61,-167.74 525.34,-163.56 515.12,-160.76 515.61,-167.74"/>
</a>
</g>
</g>
<!-- Node8 -->
<g id="Node000008" class="node">
<title>Node8</title>
<g id="a_Node000008"><a xlink:href="group__Auto-resize.html#ga036b69c5b674d3ac22027b04ba235b42" target="_top" xlink:title=" ">
<polygon fill="white" stroke="#666666" points="440,-37 402,-37 402,-18 440,-18 440,-37"/>
<text text-anchor="middle" x="421" y="-25" font-family="Mononoki" font-size="10.00">grow</text>
</a>
</g>
</g>
<!-- Node2&#45;&gt;Node8 -->
<g id="edge8_Node000002_Node000008" class="edge">
<title>Node2&#45;&gt;Node8</title>
<g id="a_edge8_Node000002_Node000008"><a xlink:title=" ">
<path fill="none" stroke="#63b8ff" d="M185.84,-131.98C232.04,-111.36 341.25,-62.64 392.52,-39.76"/>
<polygon fill="#63b8ff" stroke="#63b8ff" points="393.97,-42.95 401.68,-35.67 391.12,-36.55 393.97,-42.95"/>
</a>
</g>
</g>
<!-- Node12 -->
<g id="Node000012" class="node">
<title>Node12</title>
<g id="a_Node000012"><a xlink:href="group__Auto-resize.html#gadb26f84b95f0ca45c7ccbd72e337485a" target="_top" xlink:title=" ">
<polygon fill="white" stroke="#666666" points="327,-265 242,-265 242,-246 327,-246 327,-265"/>
<text text-anchor="middle" x="284.5" y="-253" font-family="Mononoki" font-size="10.00">make_space_at</text>
</a>
</g>
</g>
<!-- Node2&#45;&gt;Node12 -->
<g id="edge14_Node000002_Node000012" class="edge">
<title>Node2&#45;&gt;Node12</title>
<g id="a_edge14_Node000002_Node000012"><a xlink:title=" ">
<path fill="none" stroke="#63b8ff" d="M174.65,-151.22C194.93,-170.65 240.71,-214.51 265.96,-238.7"/>
<polygon fill="#63b8ff" stroke="#63b8ff" points="263.74,-241.41 273.38,-245.81 268.58,-236.36 263.74,-241.41"/>
</a>
</g>
</g>
<!-- Node3&#45;&gt;Node4 -->
<g id="edge3_Node000003_Node000004" class="edge">
<title>Node3&#45;&gt;Node4</title>
<g id="a_edge3_Node000003_Node000004"><a xlink:title=" ">
<path fill="none" stroke="#63b8ff" d="M319.07,-143.81C368.06,-147.18 459.34,-153.47 514.84,-157.29"/>
<polygon fill="#63b8ff" stroke="#63b8ff" points="514.89,-160.8 525.1,-157.99 515.37,-153.82 514.89,-160.8"/>
</a>
</g>
</g>
<!-- Node7 -->
<g id="Node000007" class="node">
<title>Node7</title>
<g id="a_Node000007"><a target="_parent" xlink:href="https://evjeesm.github.io/vector/group__Vector__API.html#gab3a5e466261d31ee9edd77a5eb280030" xlink:title=" ">
<polygon fill="white" stroke="#666666" points="455.5,-113 386.5,-113 386.5,-94 455.5,-94 455.5,-113"/>
<text text-anchor="middle" x="421" y="-101" font-family="Mononoki" font-size="10.00">vector_set</text>
</a>
</g>
</g>
<!-- Node3&#45;&gt;Node7 -->
<g id="edge6_Node000003_Node000007" class="edge">
<title>Node3&#45;&gt;Node7</title>
<g id="a_edge6_Node000003_Node000007"><a xlink:title=" ">
<path fill="none" stroke="#63b8ff" d="M319.09,-132.01C336.51,-127.09 357.97,-121.02 376.63,-115.75"/>
<polygon fill="#63b8ff" stroke="#63b8ff" points="377.7,-119.09 386.37,-113 375.79,-112.35 377.7,-119.09"/>
</a>
</g>
</g>
<!-- Node5 -->
<g id="Node000005" class="node">
<title>Node5</title>
<g id="a_Node000005"><a xlink:href="dynarr_8c.html#a73f42f3f25cd0920d8039d63ea31be07" target="_top" xlink:title=" ">
<polygon fill="white" stroke="#666666" points="752,-170 646,-170 646,-151 752,-151 752,-170"/>
<text text-anchor="middle" x="699" y="-158" font-family="Mononoki" font-size="10.00">get_dynarr_header</text>
</a>
</g>
</g>
<!-- Node4&#45;&gt;Node5 -->
<g id="edge4_Node000004_Node000005" class="edge">
<title>Node4&#45;&gt;Node5</title>
<g id="a_edge4_Node000004_Node000005"><a xlink:title=" ">
<path fill="none" stroke="#63b8ff" d="M599.54,-160.5C610.67,-160.5 623.26,-160.5 635.63,-160.5"/>
<polygon fill="#63b8ff" stroke="#63b8ff" points="635.93,-164 645.93,-160.5 635.93,-157 635.93,-164"/>
</a>
</g>
</g>
<!-- Node6 -->
<g id="Node000006" class="node">
<title>Node6</title>
<g id="a_Node000006"><a target="_parent" xlink:href="https://evjeesm.github.io/vector/group__Vector__API.html#gafc2e34dbacffe6480af8681fbf46e808" xlink:title=" ">
<polygon fill="white" stroke="#666666" points="915,-170 788,-170 788,-151 915,-151 915,-170"/>
<text text-anchor="middle" x="851.5" y="-158" font-family="Mononoki" font-size="10.00">vector_get_ext_header</text>
</a>
</g>
</g>
<!-- Node5&#45;&gt;Node6 -->
<g id="edge5_Node000005_Node000006" class="edge">
<title>Node5&#45;&gt;Node6</title>
<g id="a_edge5_Node000005_Node000006"><a xlink:title=" ">
<path fill="none" stroke="#63b8ff" d="M752.22,-160.5C760.45,-160.5 769.1,-160.5 777.7,-160.5"/>
<polygon fill="#63b8ff" stroke="#63b8ff" points="777.75,-164 787.75,-160.5 777.75,-157 777.75,-164"/>
</a>
</g>
</g>
<!-- Node8&#45;&gt;Node4 -->
<g id="edge11_Node000008_Node000004" class="edge">
<title>Node8&#45;&gt;Node4</title>
<g id="a_edge11_Node000008_Node000004"><a xlink:title=" ">
<path fill="none" stroke="#63b8ff" d="M440.08,-31.49C452.34,-34.99 468.22,-41.18 479,-51.5 506,-77.34 490.98,-98.87 515,-127.5 520.55,-134.11 527.71,-140.05 534.74,-145"/>
<polygon fill="#63b8ff" stroke="#63b8ff" points="533.17,-148.16 543.45,-150.73 537.02,-142.31 533.17,-148.16"/>
</a>
</g>
</g>
<!-- Node8&#45;&gt;Node5 -->
<g id="edge12_Node000008_Node000005" class="edge">
<title>Node8&#45;&gt;Node5</title>
<g id="a_edge12_Node000008_Node000005"><a xlink:title=" ">
<path fill="none" stroke="#63b8ff" d="M440.1,-34.78C451.37,-39.39 466.12,-45.59 479,-51.5 548.86,-83.56 629.41,-124.77 670.61,-146.17"/>
<polygon fill="#63b8ff" stroke="#63b8ff" points="669.25,-149.4 679.73,-150.92 672.48,-143.19 669.25,-149.4"/>
</a>
</g>
</g>
<!-- Node9 -->
<g id="Node000009" class="node">
<title>Node9</title>
<g id="a_Node000009"><a xlink:href="group__Dynarr__API.html#ga3ff11107726213a640d814b63cb123b2" target="_top" xlink:title=" ">
<polygon fill="white" stroke="#666666" points="610,-56 515,-56 515,-37 610,-37 610,-56"/>
<text text-anchor="middle" x="562.5" y="-44" font-family="Mononoki" font-size="10.00">dynarr_capacity</text>
</a>
</g>
</g>
<!-- Node8&#45;&gt;Node9 -->
<g id="edge9_Node000008_Node000009" class="edge">
<title>Node8&#45;&gt;Node9</title>
<g id="a_edge9_Node000008_Node000009"><a xlink:title=" ">
<path fill="none" stroke="#63b8ff" d="M440.24,-29.98C456.64,-32.22 481.64,-35.62 504.68,-38.76"/>
<polygon fill="#63b8ff" stroke="#63b8ff" points="504.37,-42.25 514.75,-40.13 505.31,-35.31 504.37,-42.25"/>
</a>
</g>
</g>
<!-- Node11 -->
<g id="Node000011" class="node">
<title>Node11</title>
<g id="a_Node000011"><a target="_parent" xlink:href="https://evjeesm.github.io/vector/group__Vector__API.html#ga6e5077303af4dfe720af5a0608553922" xlink:title=" ">
<polygon fill="white" stroke="#666666" points="605,-19 520,-19 520,0 605,0 605,-19"/>
<text text-anchor="middle" x="562.5" y="-7" font-family="Mononoki" font-size="10.00">vector_resize</text>
</a>
</g>
</g>
<!-- Node8&#45;&gt;Node11 -->
<g id="edge13_Node000008_Node000011" class="edge">
<title>Node8&#45;&gt;Node11</title>
<g id="a_edge13_Node000008_Node000011"><a xlink:title=" ">
<path fill="none" stroke="#63b8ff" d="M440.24,-25.15C457.81,-22.88 485.25,-19.34 509.59,-16.2"/>
<polygon fill="#63b8ff" stroke="#63b8ff" points="510.32,-19.63 519.79,-14.88 509.42,-12.69 510.32,-19.63"/>
</a>
</g>
</g>
<!-- Node10 -->
<g id="Node000010" class="node">
<title>Node10</title>
<g id="a_Node000010"><a target="_parent" xlink:href="https://evjeesm.github.io/vector/group__Vector__API.html#gab24bd801f91d4ae1ac79b54430b0409f" xlink:title=" ">
<polygon fill="white" stroke="#666666" points="746.5,-56 651.5,-56 651.5,-37 746.5,-37 746.5,-56"/>
<text text-anchor="middle" x="699" y="-44" font-family="Mononoki" font-size="10.00">vector_capacity</text>
</a>
</g>
</g>
<!-- Node9&#45;&gt;Node10 -->
<g id="edge10_Node000009_Node000010" class="edge">
<title>Node9&#45;&gt;Node10</title>
<g id="a_edge10_Node000009_Node000010"><a xlink:title=" ">
<path fill="none" stroke="#63b8ff" d="M610.16,-46.5C620.18,-46.5 630.87,-46.5 641.22,-46.5"/>
<polygon fill="#63b8ff" stroke="#63b8ff" points="641.42,-50 651.42,-46.5 641.42,-43 641.42,-50"/>
</a>
</g>
</g>
<!-- Node12&#45;&gt;Node4 -->
<g id="edge18_Node000012_Node000004" class="edge">
<title>Node12&#45;&gt;Node4</title>
<g id="a_edge18_Node000012_Node000004"><a xlink:title=" ">
<path fill="none" stroke="#63b8ff" d="M317.58,-245.98C356.15,-234.36 422.74,-213.74 479,-193.5 495.79,-187.46 514.25,-180.14 529.44,-173.93"/>
<polygon fill="#63b8ff" stroke="#63b8ff" points="530.99,-177.08 538.9,-170.04 528.32,-170.61 530.99,-177.08"/>
</a>
</g>
</g>
<!-- Node12&#45;&gt;Node5 -->
<g id="edge19_Node000012_Node000005" class="edge">
<title>Node12&#45;&gt;Node5</title>
<g id="a_edge19_Node000012_Node000005"><a xlink:title=" ">
<path fill="none" stroke="#63b8ff" d="M294.87,-265.4C308.4,-278.88 334.89,-302.41 363,-311.5 412.05,-327.37 427.93,-318.57 479,-311.5 538.93,-303.2 559.87,-308.38 610,-274.5 646.76,-249.66 674.84,-204.48 688.61,-179.1"/>
<polygon fill="#63b8ff" stroke="#63b8ff" points="691.77,-180.61 693.33,-170.13 685.57,-177.35 691.77,-180.61"/>
</a>
</g>
</g>
<!-- Node13 -->
<g id="Node000013" class="node">
<title>Node13</title>
<g id="a_Node000013"><a xlink:href="group__Dynarr__API.html#ga93c32dd116523090126d427cce08e114" target="_top" xlink:title=" ">
<polygon fill="white" stroke="#666666" points="455.5,-265 386.5,-265 386.5,-246 455.5,-246 455.5,-265"/>
<text text-anchor="middle" x="421" y="-253" font-family="Mononoki" font-size="10.00">dynarr_get</text>
</a>
</g>
</g>
<!-- Node12&#45;&gt;Node13 -->
<g id="edge15_Node000012_Node000013" class="edge">
<title>Node12&#45;&gt;Node13</title>
<g id="a_edge15_Node000012_Node000013"><a xlink:title=" ">
<path fill="none" stroke="#63b8ff" d="M327.32,-255.5C342.88,-255.5 360.57,-255.5 376.3,-255.5"/>
<polygon fill="#63b8ff" stroke="#63b8ff" points="376.31,-259 386.31,-255.5 376.31,-252 376.31,-259"/>
</a>
</g>
</g>
<!-- Node15 -->
<g id="Node000015" class="node">
<title>Node15</title>
<g id="a_Node000015"><a target="_parent" xlink:href="https://evjeesm.github.io/vector/group__Vector__API.html#gaae93d7f0c056c1d11d3232a7a7aa5e09" xlink:title=" ">
<polygon fill="white" stroke="#666666" points="479,-302 363,-302 363,-283 479,-283 479,-302"/>
<text text-anchor="middle" x="421" y="-290" font-family="Mononoki" font-size="10.00">vector_element_size</text>
</a>
</g>
</g>
<!-- Node12&#45;&gt;Node15 -->
<g id="edge20_Node000012_Node000015" class="edge">
<title>Node12&#45;&gt;Node15</title>
<g id="a_edge20_Node000012_Node000015"><a xlink:title=" ">
<path fill="none" stroke="#63b8ff" d="M320.14,-265.03C336.95,-269.65 357.35,-275.27 375.32,-280.21"/>
<polygon fill="#63b8ff" stroke="#63b8ff" points="374.44,-283.6 385.01,-282.88 376.3,-276.85 374.44,-283.6"/>
</a>
</g>
</g>
<!-- Node13&#45;&gt;Node4 -->
<g id="edge16_Node000013_Node000004" class="edge">
<title>Node13&#45;&gt;Node4</title>
<g id="a_edge16_Node000013_Node000004"><a xlink:title=" ">
<path fill="none" stroke="#63b8ff" d="M449.53,-245.92C459.18,-242.05 469.87,-237.15 479,-231.5 503.9,-216.08 528.89,-193.31 544.73,-177.74"/>
<polygon fill="#63b8ff" stroke="#63b8ff" points="547.54,-179.88 552.13,-170.33 542.59,-174.93 547.54,-179.88"/>
</a>
</g>
</g>
<!-- Node14 -->
<g id="Node000014" class="node">
<title>Node14</title>
<g id="a_Node000014"><a target="_parent" xlink:href="https://evjeesm.github.io/vector/group__Vector__API.html#ga9437d9506a3b2799f595c88b82f160b3" xlink:title=" ">
<polygon fill="white" stroke="#666666" points="597,-265 528,-265 528,-246 597,-246 597,-265"/>
<text text-anchor="middle" x="562.5" y="-253" font-family="Mononoki" font-size="10.00">vector_get</text>
</a>
</g>
</g>
<!-- Node13&#45;&gt;Node14 -->
<g id="edge17_Node000013_Node000014" class="edge">
<title>Node13&#45;&gt;Node14</title>
<g id="a_edge17_Node000013_Node000014"><a xlink:title=" ">
<path fill="none" stroke="#63b8ff" d="M455.77,-255.5C474.31,-255.5 497.52,-255.5 517.47,-255.5"/>
<polygon fill="#63b8ff" stroke="#63b8ff" points="517.56,-259 527.56,-255.5 517.56,-252 517.56,-259"/>
</a>
</g>
</g>
</g>
</svg>
