<?xml version="1.0" encoding="UTF-8" standalone="no"?>
<!DOCTYPE svg PUBLIC "-//W3C//DTD SVG 1.1//EN"
 "http://www.w3.org/Graphics/SVG/1.1/DTD/svg11.dtd">
<!-- Generated by graphviz version 2.43.0 (0)
 -->
<!-- Title: dynarr_insert Pages: 1 -->
<svg width="592pt" height="194pt"
 viewBox="0.00 0.00 592.00 193.52" xmlns="http://www.w3.org/2000/svg" xmlns:xlink="http://www.w3.org/1999/xlink">
<g id="graph0" class="graph" transform="scale(1 1) rotate(0) translate(4 189.52)">
<title>dynarr_insert</title>
<!-- Node1 -->
<g id="Node000001" class="node">
<title>Node1</title>
<g id="a_Node000001"><a xlink:title=" ">
<polygon fill="#999999" stroke="#666666" points="85,-128.52 0,-128.52 0,-109.52 85,-109.52 85,-128.52"/>
<text text-anchor="middle" x="42.5" y="-116.52" font-family="Mononoki" font-size="10.00">dynarr_insert</text>
</a>
</g>
</g>
<!-- Node2 -->
<g id="Node000002" class="node">
<title>Node2</title>
<g id="a_Node000002"><a xlink:href="group__Dynarr__API.html#ga30d508a9f387e2227dd0d72a8bfd2a39" target="_top" xlink:title=" ">
<polygon fill="white" stroke="#666666" points="198,-147.52 129,-147.52 129,-128.52 198,-128.52 198,-147.52"/>
<text text-anchor="middle" x="163.5" y="-135.52" font-family="Mononoki" font-size="10.00">dynarr_set</text>
</a>
</g>
</g>
<!-- Node1&#45;&gt;Node2 -->
<g id="edge1_Node000001_Node000002" class="edge">
<title>Node1&#45;&gt;Node2</title>
<g id="a_edge1_Node000001_Node000002"><a xlink:title=" ">
<path fill="none" stroke="#63b8ff" d="M85.12,-125.67C96.1,-127.42 107.98,-129.32 119.05,-131.09"/>
<polygon fill="#63b8ff" stroke="#63b8ff" points="118.52,-134.55 128.95,-132.67 119.63,-127.63 118.52,-134.55"/>
</a>
</g>
</g>
<!-- Node3 -->
<g id="Node000003" class="node">
<title>Node3</title>
<g id="a_Node000003"><a xlink:href="group__Dynarr__API.html#gaf5c43e2644d185b9b01065af34ed6e29" target="_top" xlink:title=" ">
<polygon fill="white" stroke="#666666" points="431.5,-109.52 357.5,-109.52 357.5,-90.52 431.5,-90.52 431.5,-109.52"/>
<text text-anchor="middle" x="394.5" y="-97.52" font-family="Mononoki" font-size="10.00">dynarr_size</text>
</a>
</g>
</g>
<!-- Node1&#45;&gt;Node3 -->
<g id="edge4_Node000001_Node000003" class="edge">
<title>Node1&#45;&gt;Node3</title>
<g id="a_edge4_Node000001_Node000003"><a xlink:title=" ">
<path fill="none" stroke="#63b8ff" d="M85.02,-116.77C150.82,-113.2 278.58,-106.26 347.23,-102.53"/>
<polygon fill="#63b8ff" stroke="#63b8ff" points="347.52,-106.02 357.32,-101.99 347.14,-99.03 347.52,-106.02"/>
</a>
</g>
</g>
<!-- Node5 -->
<g id="Node000005" class="node">
<title>Node5</title>
<g id="a_Node000005"><a xlink:href="group__Auto-resize.html#ga036b69c5b674d3ac22027b04ba235b42" target="_top" xlink:title=" ">
<polygon fill="white" stroke="#666666" points="295.5,-185.52 257.5,-185.52 257.5,-166.52 295.5,-166.52 295.5,-185.52"/>
<text text-anchor="middle" x="276.5" y="-173.52" font-family="Mononoki" font-size="10.00">grow</text>
</a>
</g>
</g>
<!-- Node1&#45;&gt;Node5 -->
<g id="edge5_Node000001_Node000005" class="edge">
<title>Node1&#45;&gt;Node5</title>
<g id="a_edge5_Node000001_Node000005"><a xlink:title=" ">
<path fill="none" stroke="#63b8ff" d="M59.19,-128.67C74.41,-137.54 98.45,-150.32 121,-157.02 163.87,-169.77 215.88,-173.98 247.29,-175.36"/>
<polygon fill="#63b8ff" stroke="#63b8ff" points="247.37,-178.86 257.5,-175.74 247.63,-171.87 247.37,-178.86"/>
</a>
</g>
</g>
<!-- Node7 -->
<g id="Node000007" class="node">
<title>Node7</title>
<g id="a_Node000007"><a xlink:href="group__Auto-resize.html#gadb26f84b95f0ca45c7ccbd72e337485a" target="_top" xlink:title=" ">
<polygon fill="white" stroke="#666666" points="206,-52.52 121,-52.52 121,-33.52 206,-33.52 206,-52.52"/>
<text text-anchor="middle" x="163.5" y="-40.52" font-family="Mononoki" font-size="10.00">make_space_at</text>
</a>
</g>
</g>
<!-- Node1&#45;&gt;Node7 -->
<g id="edge9_Node000001_Node000007" class="edge">
<title>Node1&#45;&gt;Node7</title>
<g id="a_edge9_Node000001_Node000007"><a xlink:title=" ">
<path fill="none" stroke="#63b8ff" d="M58.57,-109.4C78.87,-96.43 115.19,-73.24 139.07,-57.99"/>
<polygon fill="#63b8ff" stroke="#63b8ff" points="141.01,-60.9 147.55,-52.57 137.24,-55 141.01,-60.9"/>
</a>
</g>
</g>
<!-- Node2&#45;&gt;Node3 -->
<g id="edge2_Node000002_Node000003" class="edge">
<title>Node2&#45;&gt;Node3</title>
<g id="a_edge2_Node000002_Node000003"><a xlink:title=" ">
<path fill="none" stroke="#63b8ff" d="M198.26,-132.55C227.96,-127.72 272.36,-120.47 311,-114.02 322.75,-112.06 335.43,-109.92 347.25,-107.92"/>
<polygon fill="#63b8ff" stroke="#63b8ff" points="348.09,-111.33 357.36,-106.2 346.92,-104.43 348.09,-111.33"/>
</a>
</g>
</g>
<!-- Node4 -->
<g id="Node000004" class="node">
<title>Node4</title>
<g id="a_Node000004"><a xlink:href="dynarr_8c.html#a73f42f3f25cd0920d8039d63ea31be07" target="_top" xlink:title=" ">
<polygon fill="white" stroke="#666666" points="584,-109.52 478,-109.52 478,-90.52 584,-90.52 584,-109.52"/>
<text text-anchor="middle" x="531" y="-97.52" font-family="Mononoki" font-size="10.00">get_dynarr_header</text>
</a>
</g>
</g>
<!-- Node3&#45;&gt;Node4 -->
<g id="edge3_Node000003_Node000004" class="edge">
<title>Node3&#45;&gt;Node4</title>
<g id="a_edge3_Node000003_Node000004"><a xlink:title=" ">
<path fill="none" stroke="#63b8ff" d="M431.54,-100.02C442.67,-100.02 455.26,-100.02 467.63,-100.02"/>
<polygon fill="#63b8ff" stroke="#63b8ff" points="467.93,-103.52 477.93,-100.02 467.93,-96.52 467.93,-103.52"/>
</a>
</g>
</g>
<!-- Node5&#45;&gt;Node3 -->
<g id="edge7_Node000005_Node000003" class="edge">
<title>Node5&#45;&gt;Node3</title>
<g id="a_edge7_Node000005_Node000003"><a xlink:title=" ">
<path fill="none" stroke="#63b8ff" d="M291.76,-166.3C297.8,-162.06 304.85,-156.94 311,-152.02 327.72,-138.66 328.94,-131.51 347,-120.02 350.41,-117.86 354.09,-115.82 357.84,-113.95"/>
<polygon fill="#63b8ff" stroke="#63b8ff" points="359.57,-117 367.17,-109.61 356.63,-110.65 359.57,-117"/>
</a>
</g>
</g>
<!-- Node5&#45;&gt;Node4 -->
<g id="edge8_Node000005_Node000004" class="edge">
<title>Node5&#45;&gt;Node4</title>
<g id="a_edge8_Node000005_Node000004"><a xlink:title=" ">
<path fill="none" stroke="#63b8ff" d="M295.63,-176.58C326.61,-176.97 391.27,-175.25 442,-157.02 467.97,-147.69 494.03,-129.43 510.98,-116.08"/>
<polygon fill="#63b8ff" stroke="#63b8ff" points="513.39,-118.63 518.96,-109.62 508.99,-113.19 513.39,-118.63"/>
</a>
</g>
</g>
<!-- Node6 -->
<g id="Node000006" class="node">
<title>Node6</title>
<g id="a_Node000006"><a xlink:href="group__Dynarr__API.html#ga3ff11107726213a640d814b63cb123b2" target="_top" xlink:title=" ">
<polygon fill="white" stroke="#666666" points="442,-147.52 347,-147.52 347,-128.52 442,-128.52 442,-147.52"/>
<text text-anchor="middle" x="394.5" y="-135.52" font-family="Mononoki" font-size="10.00">dynarr_capacity</text>
</a>
</g>
</g>
<!-- Node5&#45;&gt;Node6 -->
<g id="edge6_Node000005_Node000006" class="edge">
<title>Node5&#45;&gt;Node6</title>
<g id="a_edge6_Node000005_Node000006"><a xlink:title=" ">
<path fill="none" stroke="#63b8ff" d="M295.62,-170.09C311.32,-164.94 334.58,-157.32 354.48,-150.81"/>
<polygon fill="#63b8ff" stroke="#63b8ff" points="355.81,-154.05 364.23,-147.61 353.64,-147.4 355.81,-154.05"/>
</a>
</g>
</g>
<!-- Node7&#45;&gt;Node3 -->
<g id="edge12_Node000007_Node000003" class="edge">
<title>Node7&#45;&gt;Node3</title>
<g id="a_edge12_Node000007_Node000003"><a xlink:title=" ">
<path fill="none" stroke="#63b8ff" d="M202.83,-52.56C242.67,-62.48 305.03,-78 347.51,-88.57"/>
<polygon fill="#63b8ff" stroke="#63b8ff" points="346.77,-92 357.31,-91.02 348.46,-85.2 346.77,-92"/>
</a>
</g>
</g>
<!-- Node7&#45;&gt;Node4 -->
<g id="edge13_Node000007_Node000004" class="edge">
<title>Node7&#45;&gt;Node4</title>
<g id="a_edge13_Node000007_Node000004"><a xlink:title=" ">
<path fill="none" stroke="#63b8ff" d="M178.89,-33.46C193.9,-24.1 218.5,-10.47 242,-5.02 271.87,1.91 280.97,1.21 311,-5.02 385.44,-20.47 465.66,-62.57 505.14,-85.18"/>
<polygon fill="#63b8ff" stroke="#63b8ff" points="503.87,-88.49 514.27,-90.48 507.38,-82.44 503.87,-88.49"/>
</a>
</g>
</g>
<!-- Node8 -->
<g id="Node000008" class="node">
<title>Node8</title>
<g id="a_Node000008"><a xlink:href="group__Dynarr__API.html#ga93c32dd116523090126d427cce08e114" target="_top" xlink:title=" ">
<polygon fill="white" stroke="#666666" points="311,-33.52 242,-33.52 242,-14.52 311,-14.52 311,-33.52"/>
<text text-anchor="middle" x="276.5" y="-21.52" font-family="Mononoki" font-size="10.00">dynarr_get</text>
</a>
</g>
</g>
<!-- Node7&#45;&gt;Node8 -->
<g id="edge10_Node000007_Node000008" class="edge">
<title>Node7&#45;&gt;Node8</title>
<g id="a_edge10_Node000007_Node000008"><a xlink:title=" ">
<path fill="none" stroke="#63b8ff" d="M206.15,-35.89C214.55,-34.46 223.39,-32.94 231.86,-31.49"/>
<polygon fill="#63b8ff" stroke="#63b8ff" points="232.67,-34.91 241.93,-29.77 231.49,-28.01 232.67,-34.91"/>
</a>
</g>
</g>
<!-- Node8&#45;&gt;Node3 -->
<g id="edge11_Node000008_Node000003" class="edge">
<title>Node8&#45;&gt;Node3</title>
<g id="a_edge11_Node000008_Node000003"><a xlink:title=" ">
<path fill="none" stroke="#63b8ff" d="M292.19,-33.65C311.89,-46.55 347.07,-69.6 370.35,-84.86"/>
<polygon fill="#63b8ff" stroke="#63b8ff" points="368.65,-87.92 378.93,-90.48 372.48,-82.07 368.65,-87.92"/>
</a>
</g>
</g>
</g>
</svg>
