<?xml version="1.0" encoding="UTF-8" standalone="no"?>
<!DOCTYPE svg PUBLIC "-//W3C//DTD SVG 1.1//EN"
 "http://www.w3.org/Graphics/SVG/1.1/DTD/svg11.dtd">
<!-- Generated by graphviz version 2.43.0 (0)
 -->
<!-- Title: dynarr_set_zero Pages: 1 -->
<svg width="539pt" height="64pt"
 viewBox="0.00 0.00 539.00 64.00" xmlns="http://www.w3.org/2000/svg" xmlns:xlink="http://www.w3.org/1999/xlink">
<g id="graph0" class="graph" transform="scale(1 1) rotate(0) translate(4 60)">
<title>dynarr_set_zero</title>
<!-- Node1 -->
<g id="Node000001" class="node">
<title>Node1</title>
<g id="a_Node000001"><a xlink:title=" ">
<polygon fill="#999999" stroke="#666666" points="95,-37 0,-37 0,-18 95,-18 95,-37"/>
<text text-anchor="middle" x="47.5" y="-25" font-family="Mononoki" font-size="10.00">dynarr_set_zero</text>
</a>
</g>
</g>
<!-- Node2 -->
<g id="Node000002" class="node">
<title>Node2</title>
<g id="a_Node000002"><a xlink:href="group__Dynarr__API.html#gaf5c43e2644d185b9b01065af34ed6e29" target="_top" xlink:title=" ">
<polygon fill="white" stroke="#666666" points="215.5,-56 141.5,-56 141.5,-37 215.5,-37 215.5,-56"/>
<text text-anchor="middle" x="178.5" y="-44" font-family="Mononoki" font-size="10.00">dynarr_size</text>
</a>
</g>
</g>
<!-- Node1&#45;&gt;Node2 -->
<g id="edge1_Node000001_Node000002" class="edge">
<title>Node1&#45;&gt;Node2</title>
<g id="a_edge1_Node000001_Node000002"><a xlink:title=" ">
<path fill="none" stroke="#63b8ff" d="M95.07,-34.36C106.79,-36.09 119.37,-37.94 131.09,-39.66"/>
<polygon fill="#63b8ff" stroke="#63b8ff" points="130.71,-43.15 141.12,-41.14 131.73,-36.22 130.71,-43.15"/>
</a>
</g>
</g>
<!-- Node5 -->
<g id="Node000005" class="node">
<title>Node5</title>
<g id="a_Node000005"><a target="_parent" xlink:href="https://evjeesm.github.io/vector/group__Vector__API.html#gaf3eaea4a3a47741f46eae9ae6e984ef2" xlink:title=" ">
<polygon fill="white" stroke="#666666" points="226,-19 131,-19 131,0 226,0 226,-19"/>
<text text-anchor="middle" x="178.5" y="-7" font-family="Mononoki" font-size="10.00">vector_set_zero</text>
</a>
</g>
</g>
<!-- Node1&#45;&gt;Node5 -->
<g id="edge4_Node000001_Node000005" class="edge">
<title>Node1&#45;&gt;Node5</title>
<g id="a_edge4_Node000001_Node000005"><a xlink:title=" ">
<path fill="none" stroke="#63b8ff" d="M95.07,-21C103.48,-19.83 112.32,-18.59 120.97,-17.39"/>
<polygon fill="#63b8ff" stroke="#63b8ff" points="121.58,-20.84 131,-15.99 120.61,-13.9 121.58,-20.84"/>
</a>
</g>
</g>
<!-- Node3 -->
<g id="Node000003" class="node">
<title>Node3</title>
<g id="a_Node000003"><a xlink:href="dynarr_8c.html#a73f42f3f25cd0920d8039d63ea31be07" target="_top" xlink:title=" ">
<polygon fill="white" stroke="#666666" points="368,-56 262,-56 262,-37 368,-37 368,-56"/>
<text text-anchor="middle" x="315" y="-44" font-family="Mononoki" font-size="10.00">get_dynarr_header</text>
</a>
</g>
</g>
<!-- Node2&#45;&gt;Node3 -->
<g id="edge2_Node000002_Node000003" class="edge">
<title>Node2&#45;&gt;Node3</title>
<g id="a_edge2_Node000002_Node000003"><a xlink:title=" ">
<path fill="none" stroke="#63b8ff" d="M215.54,-46.5C226.67,-46.5 239.26,-46.5 251.63,-46.5"/>
<polygon fill="#63b8ff" stroke="#63b8ff" points="251.93,-50 261.93,-46.5 251.93,-43 251.93,-50"/>
</a>
</g>
</g>
<!-- Node4 -->
<g id="Node000004" class="node">
<title>Node4</title>
<g id="a_Node000004"><a target="_parent" xlink:href="https://evjeesm.github.io/vector/group__Vector__API.html#gafc2e34dbacffe6480af8681fbf46e808" xlink:title=" ">
<polygon fill="white" stroke="#666666" points="531,-56 404,-56 404,-37 531,-37 531,-56"/>
<text text-anchor="middle" x="467.5" y="-44" font-family="Mononoki" font-size="10.00">vector_get_ext_header</text>
</a>
</g>
</g>
<!-- Node3&#45;&gt;Node4 -->
<g id="edge3_Node000003_Node000004" class="edge">
<title>Node3&#45;&gt;Node4</title>
<g id="a_edge3_Node000003_Node000004"><a xlink:title=" ">
<path fill="none" stroke="#63b8ff" d="M368.22,-46.5C376.45,-46.5 385.1,-46.5 393.7,-46.5"/>
<polygon fill="#63b8ff" stroke="#63b8ff" points="393.75,-50 403.75,-46.5 393.75,-43 393.75,-50"/>
</a>
</g>
</g>
</g>
</svg>
