<?xml version="1.0" encoding="UTF-8" standalone="no"?>
<!DOCTYPE svg PUBLIC "-//W3C//DTD SVG 1.1//EN"
 "http://www.w3.org/Graphics/SVG/1.1/DTD/svg11.dtd">
<!-- Generated by graphviz version 2.43.0 (0)
 -->
<!-- Title: dynarr_spread_insert Pages: 1 -->
<svg width="629pt" height="194pt"
 viewBox="0.00 0.00 629.00 193.52" xmlns="http://www.w3.org/2000/svg" xmlns:xlink="http://www.w3.org/1999/xlink">
<g id="graph0" class="graph" transform="scale(1 1) rotate(0) translate(4 189.52)">
<title>dynarr_spread_insert</title>
<!-- Node1 -->
<g id="Node000001" class="node">
<title>Node1</title>
<g id="a_Node000001"><a xlink:title=" ">
<polygon fill="#999999" stroke="#666666" points="122,-128.52 0,-128.52 0,-109.52 122,-109.52 122,-128.52"/>
<text text-anchor="middle" x="61" y="-116.52" font-family="Mononoki" font-size="10.00">dynarr_spread_insert</text>
</a>
</g>
</g>
<!-- Node2 -->
<g id="Node000002" class="node">
<title>Node2</title>
<g id="a_Node000002"><a xlink:href="group__Dynarr__API.html#ga30d508a9f387e2227dd0d72a8bfd2a39" target="_top" xlink:title=" ">
<polygon fill="white" stroke="#666666" points="235,-147.52 166,-147.52 166,-128.52 235,-128.52 235,-147.52"/>
<text text-anchor="middle" x="200.5" y="-135.52" font-family="Mononoki" font-size="10.00">dynarr_set</text>
</a>
</g>
</g>
<!-- Node1&#45;&gt;Node2 -->
<g id="edge1_Node000001_Node000002" class="edge">
<title>Node1&#45;&gt;Node2</title>
<g id="a_edge1_Node000001_Node000002"><a xlink:title=" ">
<path fill="none" stroke="#63b8ff" d="M122.31,-127.36C133.46,-128.9 144.91,-130.48 155.46,-131.94"/>
<polygon fill="#63b8ff" stroke="#63b8ff" points="155.28,-135.45 165.67,-133.35 156.24,-128.51 155.28,-135.45"/>
</a>
</g>
</g>
<!-- Node3 -->
<g id="Node000003" class="node">
<title>Node3</title>
<g id="a_Node000003"><a xlink:href="group__Dynarr__API.html#gaf5c43e2644d185b9b01065af34ed6e29" target="_top" xlink:title=" ">
<polygon fill="white" stroke="#666666" points="468.5,-109.52 394.5,-109.52 394.5,-90.52 468.5,-90.52 468.5,-109.52"/>
<text text-anchor="middle" x="431.5" y="-97.52" font-family="Mononoki" font-size="10.00">dynarr_size</text>
</a>
</g>
</g>
<!-- Node1&#45;&gt;Node3 -->
<g id="edge4_Node000001_Node000003" class="edge">
<title>Node1&#45;&gt;Node3</title>
<g id="a_edge4_Node000001_Node000003"><a xlink:title=" ">
<path fill="none" stroke="#63b8ff" d="M122.03,-115.93C195.3,-112.15 317.63,-105.84 384.09,-102.42"/>
<polygon fill="#63b8ff" stroke="#63b8ff" points="384.46,-105.9 394.26,-101.89 384.1,-98.91 384.46,-105.9"/>
</a>
</g>
</g>
<!-- Node5 -->
<g id="Node000005" class="node">
<title>Node5</title>
<g id="a_Node000005"><a xlink:href="group__Auto-resize.html#ga036b69c5b674d3ac22027b04ba235b42" target="_top" xlink:title=" ">
<polygon fill="white" stroke="#666666" points="332.5,-185.52 294.5,-185.52 294.5,-166.52 332.5,-166.52 332.5,-185.52"/>
<text text-anchor="middle" x="313.5" y="-173.52" font-family="Mononoki" font-size="10.00">grow</text>
</a>
</g>
</g>
<!-- Node1&#45;&gt;Node5 -->
<g id="edge5_Node000001_Node000005" class="edge">
<title>Node1&#45;&gt;Node5</title>
<g id="a_edge5_Node000001_Node000005"><a xlink:title=" ">
<path fill="none" stroke="#63b8ff" d="M81.73,-128.56C100.8,-137.35 130.73,-150.07 158,-157.02 201.1,-168.01 252.65,-172.72 283.96,-174.69"/>
<polygon fill="#63b8ff" stroke="#63b8ff" points="283.96,-178.19 294.15,-175.27 284.36,-171.21 283.96,-178.19"/>
</a>
</g>
</g>
<!-- Node7 -->
<g id="Node000007" class="node">
<title>Node7</title>
<g id="a_Node000007"><a xlink:href="group__Auto-resize.html#gadb26f84b95f0ca45c7ccbd72e337485a" target="_top" xlink:title=" ">
<polygon fill="white" stroke="#666666" points="243,-52.52 158,-52.52 158,-33.52 243,-33.52 243,-52.52"/>
<text text-anchor="middle" x="200.5" y="-40.52" font-family="Mononoki" font-size="10.00">make_space_at</text>
</a>
</g>
</g>
<!-- Node1&#45;&gt;Node7 -->
<g id="edge9_Node000001_Node000007" class="edge">
<title>Node1&#45;&gt;Node7</title>
<g id="a_edge9_Node000001_Node000007"><a xlink:title=" ">
<path fill="none" stroke="#63b8ff" d="M79.41,-109.4C103.07,-96.32 145.58,-72.83 173.15,-57.59"/>
<polygon fill="#63b8ff" stroke="#63b8ff" points="175.17,-60.47 182.23,-52.57 171.78,-54.34 175.17,-60.47"/>
</a>
</g>
</g>
<!-- Node2&#45;&gt;Node3 -->
<g id="edge2_Node000002_Node000003" class="edge">
<title>Node2&#45;&gt;Node3</title>
<g id="a_edge2_Node000002_Node000003"><a xlink:title=" ">
<path fill="none" stroke="#63b8ff" d="M235.26,-132.55C264.96,-127.72 309.36,-120.47 348,-114.02 359.75,-112.06 372.43,-109.92 384.25,-107.92"/>
<polygon fill="#63b8ff" stroke="#63b8ff" points="385.09,-111.33 394.36,-106.2 383.92,-104.43 385.09,-111.33"/>
</a>
</g>
</g>
<!-- Node4 -->
<g id="Node000004" class="node">
<title>Node4</title>
<g id="a_Node000004"><a xlink:href="dynarr_8c.html#a73f42f3f25cd0920d8039d63ea31be07" target="_top" xlink:title=" ">
<polygon fill="white" stroke="#666666" points="621,-109.52 515,-109.52 515,-90.52 621,-90.52 621,-109.52"/>
<text text-anchor="middle" x="568" y="-97.52" font-family="Mononoki" font-size="10.00">get_dynarr_header</text>
</a>
</g>
</g>
<!-- Node3&#45;&gt;Node4 -->
<g id="edge3_Node000003_Node000004" class="edge">
<title>Node3&#45;&gt;Node4</title>
<g id="a_edge3_Node000003_Node000004"><a xlink:title=" ">
<path fill="none" stroke="#63b8ff" d="M468.54,-100.02C479.67,-100.02 492.26,-100.02 504.63,-100.02"/>
<polygon fill="#63b8ff" stroke="#63b8ff" points="504.93,-103.52 514.93,-100.02 504.93,-96.52 504.93,-103.52"/>
</a>
</g>
</g>
<!-- Node5&#45;&gt;Node3 -->
<g id="edge7_Node000005_Node000003" class="edge">
<title>Node5&#45;&gt;Node3</title>
<g id="a_edge7_Node000005_Node000003"><a xlink:title=" ">
<path fill="none" stroke="#63b8ff" d="M328.76,-166.3C334.8,-162.06 341.85,-156.94 348,-152.02 364.72,-138.66 365.94,-131.51 384,-120.02 387.41,-117.86 391.09,-115.82 394.84,-113.95"/>
<polygon fill="#63b8ff" stroke="#63b8ff" points="396.57,-117 404.17,-109.61 393.63,-110.65 396.57,-117"/>
</a>
</g>
</g>
<!-- Node5&#45;&gt;Node4 -->
<g id="edge8_Node000005_Node000004" class="edge">
<title>Node5&#45;&gt;Node4</title>
<g id="a_edge8_Node000005_Node000004"><a xlink:title=" ">
<path fill="none" stroke="#63b8ff" d="M332.63,-176.58C363.61,-176.97 428.27,-175.25 479,-157.02 504.97,-147.69 531.03,-129.43 547.98,-116.08"/>
<polygon fill="#63b8ff" stroke="#63b8ff" points="550.39,-118.63 555.96,-109.62 545.99,-113.19 550.39,-118.63"/>
</a>
</g>
</g>
<!-- Node6 -->
<g id="Node000006" class="node">
<title>Node6</title>
<g id="a_Node000006"><a xlink:href="group__Dynarr__API.html#ga3ff11107726213a640d814b63cb123b2" target="_top" xlink:title=" ">
<polygon fill="white" stroke="#666666" points="479,-147.52 384,-147.52 384,-128.52 479,-128.52 479,-147.52"/>
<text text-anchor="middle" x="431.5" y="-135.52" font-family="Mononoki" font-size="10.00">dynarr_capacity</text>
</a>
</g>
</g>
<!-- Node5&#45;&gt;Node6 -->
<g id="edge6_Node000005_Node000006" class="edge">
<title>Node5&#45;&gt;Node6</title>
<g id="a_edge6_Node000005_Node000006"><a xlink:title=" ">
<path fill="none" stroke="#63b8ff" d="M332.62,-170.09C348.32,-164.94 371.58,-157.32 391.48,-150.81"/>
<polygon fill="#63b8ff" stroke="#63b8ff" points="392.81,-154.05 401.23,-147.61 390.64,-147.4 392.81,-154.05"/>
</a>
</g>
</g>
<!-- Node7&#45;&gt;Node3 -->
<g id="edge12_Node000007_Node000003" class="edge">
<title>Node7&#45;&gt;Node3</title>
<g id="a_edge12_Node000007_Node000003"><a xlink:title=" ">
<path fill="none" stroke="#63b8ff" d="M239.83,-52.56C279.67,-62.48 342.03,-78 384.51,-88.57"/>
<polygon fill="#63b8ff" stroke="#63b8ff" points="383.77,-92 394.31,-91.02 385.46,-85.2 383.77,-92"/>
</a>
</g>
</g>
<!-- Node7&#45;&gt;Node4 -->
<g id="edge13_Node000007_Node000004" class="edge">
<title>Node7&#45;&gt;Node4</title>
<g id="a_edge13_Node000007_Node000004"><a xlink:title=" ">
<path fill="none" stroke="#63b8ff" d="M215.89,-33.46C230.9,-24.1 255.5,-10.47 279,-5.02 308.87,1.91 317.97,1.21 348,-5.02 422.44,-20.47 502.66,-62.57 542.14,-85.18"/>
<polygon fill="#63b8ff" stroke="#63b8ff" points="540.87,-88.49 551.27,-90.48 544.38,-82.44 540.87,-88.49"/>
</a>
</g>
</g>
<!-- Node8 -->
<g id="Node000008" class="node">
<title>Node8</title>
<g id="a_Node000008"><a xlink:href="group__Dynarr__API.html#ga93c32dd116523090126d427cce08e114" target="_top" xlink:title=" ">
<polygon fill="white" stroke="#666666" points="348,-33.52 279,-33.52 279,-14.52 348,-14.52 348,-33.52"/>
<text text-anchor="middle" x="313.5" y="-21.52" font-family="Mononoki" font-size="10.00">dynarr_get</text>
</a>
</g>
</g>
<!-- Node7&#45;&gt;Node8 -->
<g id="edge10_Node000007_Node000008" class="edge">
<title>Node7&#45;&gt;Node8</title>
<g id="a_edge10_Node000007_Node000008"><a xlink:title=" ">
<path fill="none" stroke="#63b8ff" d="M243.15,-35.89C251.55,-34.46 260.39,-32.94 268.86,-31.49"/>
<polygon fill="#63b8ff" stroke="#63b8ff" points="269.67,-34.91 278.93,-29.77 268.49,-28.01 269.67,-34.91"/>
</a>
</g>
</g>
<!-- Node8&#45;&gt;Node3 -->
<g id="edge11_Node000008_Node000003" class="edge">
<title>Node8&#45;&gt;Node3</title>
<g id="a_edge11_Node000008_Node000003"><a xlink:title=" ">
<path fill="none" stroke="#63b8ff" d="M329.19,-33.65C348.89,-46.55 384.07,-69.6 407.35,-84.86"/>
<polygon fill="#63b8ff" stroke="#63b8ff" points="405.65,-87.92 415.93,-90.48 409.48,-82.07 405.65,-87.92"/>
</a>
</g>
</g>
</g>
</svg>
