<?xml version="1.0" encoding="UTF-8" standalone="no"?>
<!DOCTYPE svg PUBLIC "-//W3C//DTD SVG 1.1//EN"
 "http://www.w3.org/Graphics/SVG/1.1/DTD/svg11.dtd">
<!-- Generated by graphviz version 2.43.0 (0)
 -->
<!-- Title: dynarr_remove Pages: 1 -->
<!--zoomable 296 -->

<svg id="main" version="1.1" xmlns="http://www.w3.org/2000/svg" xmlns:xlink="http://www.w3.org/1999/xlink" xml:space="preserve" onload="init(evt)">
<style type="text/css"><![CDATA[
.node, .edge {opacity: 0.7;}
.node.selected, .edge.selected {opacity: 1;}
.edge:hover path { stroke: red; }
.edge:hover polygon { stroke: red; fill: red; }
]]></style>

<defs>
  <circle id="rim" cx="0" cy="0" r="7"/>
  <circle id="rim2" cx="0" cy="0" r="3.5"/>
  <g id="zoomPlus">
    <use xlink:href="#rim" fill="#404040"><set attributeName="fill" to="#808080" begin="zoomplus.mouseover" end="zoomplus.mouseout"/></use>
    <path d="M-4,0h8M0,-4v8" fill="none" stroke="white" stroke-width="1.5" pointer-events="none"/>
  </g>
  <g id="zoomMin">
    <use xlink:href="#rim" fill="#404040"><set attributeName="fill" to="#808080" begin="zoomminus.mouseover" end="zoomminus.mouseout"/></use>
    <path d="M-4,0h8" fill="none" stroke="white" stroke-width="1.5" pointer-events="none"/>
  </g>
  <g id="arrowUp" transform="translate(30 24)">
    <use xlink:href="#rim"/>
    <path pointer-events="none" fill="none" stroke="white" stroke-width="1.5" d="M0,-3.0v7 M-2.5,-0.5L0,-3.0L2.5,-0.5"/>
  </g>
  <g id="arrowRight" transform="rotate(90) translate(36 -43)">
    <use xlink:href="#rim"/>
    <path pointer-events="none" fill="none" stroke="white" stroke-width="1.5" d="M0,-3.0v7 M-2.5,-0.5L0,-3.0L2.5,-0.5"/>
  </g>
  <g id="arrowDown" transform="rotate(180) translate(-30 -48)">
    <use xlink:href="#rim"/>
    <path pointer-events="none" fill="none" stroke="white" stroke-width="1.5" d="M0,-3.0v7 M-2.5,-0.5L0,-3.0L2.5,-0.5"/>
  </g>
  <g id="arrowLeft" transform="rotate(270) translate(-36 17)">
    <use xlink:href="#rim"/>
    <path pointer-events="none" fill="none" stroke="white" stroke-width="1.5" d="M0,-3.0v7 M-2.5,-0.5L0,-3.0L2.5,-0.5"/>
  </g>
  <g id="resetDef">
    <use xlink:href="#rim2" fill="#404040"><set attributeName="fill" to="#808080" begin="reset.mouseover" end="reset.mouseout"/></use>
  </g>
</defs>
<script type="application/ecmascript">
var viewWidth = 996;
var viewHeight = 296;
var sectionId = 'dynsection-19';
</script>
<script type="application/ecmascript" xlink:href="svg.min.js"/>
<svg id="graph" class="graph">
<g id="viewport">
<title>dynarr_remove</title>
<!-- Node1 -->
<g id="Node000001" class="node">
<title>Node1</title>
<g id="a_Node000001"><a xlink:title=" ">
<polygon fill="#999999" stroke="#666666" points="85,-131 0,-131 0,-112 85,-112 85,-131"/>
<text text-anchor="middle" x="42.5" y="-119" font-family="Mononoki" font-size="10.00">dynarr_remove</text>
</a>
</g>
</g>
<!-- Node2 -->
<g id="Node000002" class="node">
<title>Node2</title>
<g id="a_Node000002"><a xlink:href="group__Dynarr__API.html#ga1187f49d8bde19551b2c95ad430e596c" target="_top" xlink:title=" ">
<polygon fill="white" stroke="#666666" points="237,-131 121,-131 121,-112 237,-112 237,-131"/>
<text text-anchor="middle" x="179" y="-119" font-family="Mononoki" font-size="10.00">dynarr_remove_range</text>
</a>
</g>
</g>
<!-- Node1&#45;&gt;Node2 -->
<g id="edge1_Node000001_Node000002" class="edge">
<title>Node1&#45;&gt;Node2</title>
<g id="a_edge1_Node000001_Node000002"><a xlink:title=" ">
<path fill="none" stroke="#63b8ff" d="M85.32,-121.5C93.41,-121.5 102.08,-121.5 110.75,-121.5"/>
<polygon fill="#63b8ff" stroke="#63b8ff" points="110.89,-125 120.89,-121.5 110.89,-118 110.89,-125"/>
</a>
</g>
</g>
<!-- Node3 -->
<g id="Node000003" class="node">
<title>Node3</title>
<g id="a_Node000003"><a xlink:href="group__Dynarr__API.html#gaf5c43e2644d185b9b01065af34ed6e29" target="_top" xlink:title=" ">
<polygon fill="white" stroke="#666666" points="651.5,-169 577.5,-169 577.5,-150 651.5,-150 651.5,-169"/>
<text text-anchor="middle" x="614.5" y="-157" font-family="Mononoki" font-size="10.00">dynarr_size</text>
</a>
</g>
</g>
<!-- Node2&#45;&gt;Node3 -->
<g id="edge2_Node000002_Node000003" class="edge">
<title>Node2&#45;&gt;Node3</title>
<g id="a_edge2_Node000002_Node000003"><a xlink:title=" ">
<path fill="none" stroke="#63b8ff" d="M237.12,-126.51C323.92,-134.12 487.37,-148.44 567.22,-155.44"/>
<polygon fill="#63b8ff" stroke="#63b8ff" points="567.19,-158.95 577.46,-156.34 567.8,-151.98 567.19,-158.95"/>
</a>
</g>
</g>
<!-- Node6 -->
<g id="Node000006" class="node">
<title>Node6</title>
<g id="a_Node000006"><a xlink:href="group__Auto-resize.html#ga9ff20c2ac9693f6d8f0ea97f9b46539c" target="_top" xlink:title=" ">
<polygon fill="white" stroke="#666666" points="358,-207 273,-207 273,-188 358,-188 358,-207"/>
<text text-anchor="middle" x="315.5" y="-195" font-family="Mononoki" font-size="10.00">free_space_at</text>
</a>
</g>
</g>
<!-- Node2&#45;&gt;Node6 -->
<g id="edge5_Node000002_Node000006" class="edge">
<title>Node2&#45;&gt;Node6</title>
<g id="a_edge5_Node000002_Node000006"><a xlink:title=" ">
<path fill="none" stroke="#63b8ff" d="M197.03,-131.13C220.18,-144.2 261.75,-167.7 288.73,-182.94"/>
<polygon fill="#63b8ff" stroke="#63b8ff" points="287.18,-186.08 297.6,-187.95 290.62,-179.99 287.18,-186.08"/>
</a>
</g>
</g>
<!-- Node10 -->
<g id="Node000010" class="node">
<title>Node10</title>
<g id="a_Node000010"><a xlink:href="group__Auto-resize.html#ga8eb6c0a577084ccd7a64bec67b8bdbbe" target="_top" xlink:title=" ">
<polygon fill="white" stroke="#666666" points="476,-93 428,-93 428,-74 476,-74 476,-93"/>
<text text-anchor="middle" x="452" y="-81" font-family="Mononoki" font-size="10.00">shrink</text>
</a>
</g>
</g>
<!-- Node2&#45;&gt;Node10 -->
<g id="edge12_Node000002_Node000010" class="edge">
<title>Node2&#45;&gt;Node10</title>
<g id="a_edge12_Node000002_Node000010"><a xlink:title=" ">
<path fill="none" stroke="#63b8ff" d="M237.03,-112.77C248.91,-110.99 261.36,-109.16 273,-107.5 323.36,-100.32 381.81,-92.54 417.6,-87.85"/>
<polygon fill="#63b8ff" stroke="#63b8ff" points="418.48,-91.26 427.94,-86.49 417.57,-84.32 418.48,-91.26"/>
</a>
</g>
</g>
<!-- Node4 -->
<g id="Node000004" class="node">
<title>Node4</title>
<g id="a_Node000004"><a xlink:href="dynarr_8c.html#a73f42f3f25cd0920d8039d63ea31be07" target="_top" xlink:title=" ">
<polygon fill="white" stroke="#666666" points="825,-169 719,-169 719,-150 825,-150 825,-169"/>
<text text-anchor="middle" x="772" y="-157" font-family="Mononoki" font-size="10.00">get_dynarr_header</text>
</a>
</g>
</g>
<!-- Node3&#45;&gt;Node4 -->
<g id="edge3_Node000003_Node000004" class="edge">
<title>Node3&#45;&gt;Node4</title>
<g id="a_edge3_Node000003_Node000004"><a xlink:title=" ">
<path fill="none" stroke="#63b8ff" d="M651.57,-159.5C668.6,-159.5 689.43,-159.5 708.9,-159.5"/>
<polygon fill="#63b8ff" stroke="#63b8ff" points="708.92,-163 718.92,-159.5 708.92,-156 708.92,-163"/>
</a>
</g>
</g>
<!-- Node5 -->
<g id="Node000005" class="node">
<title>Node5</title>
<g id="a_Node000005"><a target="_parent" xlink:href="https://evjeesm.github.io/vector/group__Vector__API.html#gafc2e34dbacffe6480af8681fbf46e808" xlink:title=" ">
<polygon fill="white" stroke="#666666" points="988,-169 861,-169 861,-150 988,-150 988,-169"/>
<text text-anchor="middle" x="924.5" y="-157" font-family="Mononoki" font-size="10.00">vector_get_ext_header</text>
</a>
</g>
</g>
<!-- Node4&#45;&gt;Node5 -->
<g id="edge4_Node000004_Node000005" class="edge">
<title>Node4&#45;&gt;Node5</title>
<g id="a_edge4_Node000004_Node000005"><a xlink:title=" ">
<path fill="none" stroke="#63b8ff" d="M825.22,-159.5C833.45,-159.5 842.1,-159.5 850.7,-159.5"/>
<polygon fill="#63b8ff" stroke="#63b8ff" points="850.75,-163 860.75,-159.5 850.75,-156 850.75,-163"/>
</a>
</g>
</g>
<!-- Node6&#45;&gt;Node3 -->
<g id="edge9_Node000006_Node000003" class="edge">
<title>Node6&#45;&gt;Node3</title>
<g id="a_edge9_Node000006_Node000003"><a xlink:title=" ">
<path fill="none" stroke="#63b8ff" d="M352.96,-187.94C365.85,-184.86 380.5,-181.67 394,-179.5 453.28,-169.96 522.36,-164.6 566.95,-161.88"/>
<polygon fill="#63b8ff" stroke="#63b8ff" points="567.41,-165.36 577.19,-161.28 567,-158.37 567.41,-165.36"/>
</a>
</g>
</g>
<!-- Node6&#45;&gt;Node4 -->
<g id="edge10_Node000006_Node000004" class="edge">
<title>Node6&#45;&gt;Node4</title>
<g id="a_edge10_Node000006_Node000004"><a xlink:title=" ">
<path fill="none" stroke="#63b8ff" d="M325.87,-207.4C339.4,-220.88 365.89,-244.41 394,-253.5 516.21,-293.03 565.16,-304.6 683,-253.5 718.53,-238.09 746.28,-200.49 760.5,-177.79"/>
<polygon fill="#63b8ff" stroke="#63b8ff" points="763.58,-179.45 765.75,-169.08 757.59,-175.83 763.58,-179.45"/>
</a>
</g>
</g>
<!-- Node7 -->
<g id="Node000007" class="node">
<title>Node7</title>
<g id="a_Node000007"><a xlink:href="group__Dynarr__API.html#ga93c32dd116523090126d427cce08e114" target="_top" xlink:title=" ">
<polygon fill="white" stroke="#666666" points="486.5,-244 417.5,-244 417.5,-225 486.5,-225 486.5,-244"/>
<text text-anchor="middle" x="452" y="-232" font-family="Mononoki" font-size="10.00">dynarr_get</text>
</a>
</g>
</g>
<!-- Node6&#45;&gt;Node7 -->
<g id="edge6_Node000006_Node000007" class="edge">
<title>Node6&#45;&gt;Node7</title>
<g id="a_edge6_Node000006_Node000007"><a xlink:title=" ">
<path fill="none" stroke="#63b8ff" d="M351.14,-207.03C368.34,-211.76 389.31,-217.53 407.58,-222.55"/>
<polygon fill="#63b8ff" stroke="#63b8ff" points="406.84,-225.98 417.41,-225.26 408.7,-219.23 406.84,-225.98"/>
</a>
</g>
</g>
<!-- Node9 -->
<g id="Node000009" class="node">
<title>Node9</title>
<g id="a_Node000009"><a target="_parent" xlink:href="https://evjeesm.github.io/vector/group__Vector__API.html#gaae93d7f0c056c1d11d3232a7a7aa5e09" xlink:title=" ">
<polygon fill="white" stroke="#666666" points="510,-207 394,-207 394,-188 510,-188 510,-207"/>
<text text-anchor="middle" x="452" y="-195" font-family="Mononoki" font-size="10.00">vector_element_size</text>
</a>
</g>
</g>
<!-- Node6&#45;&gt;Node9 -->
<g id="edge11_Node000006_Node000009" class="edge">
<title>Node6&#45;&gt;Node9</title>
<g id="a_edge11_Node000006_Node000009"><a xlink:title=" ">
<path fill="none" stroke="#63b8ff" d="M358.32,-197.5C366.41,-197.5 375.08,-197.5 383.75,-197.5"/>
<polygon fill="#63b8ff" stroke="#63b8ff" points="383.89,-201 393.89,-197.5 383.89,-194 383.89,-201"/>
</a>
</g>
</g>
<!-- Node7&#45;&gt;Node3 -->
<g id="edge7_Node000007_Node000003" class="edge">
<title>Node7&#45;&gt;Node3</title>
<g id="a_edge7_Node000007_Node000003"><a xlink:title=" ">
<path fill="none" stroke="#63b8ff" d="M486.56,-225.12C494.36,-222.6 502.56,-219.69 510,-216.5 538.29,-204.38 568.97,-186.89 589.52,-174.49"/>
<polygon fill="#63b8ff" stroke="#63b8ff" points="591.49,-177.38 598.2,-169.18 587.84,-171.41 591.49,-177.38"/>
</a>
</g>
</g>
<!-- Node8 -->
<g id="Node000008" class="node">
<title>Node8</title>
<g id="a_Node000008"><a target="_parent" xlink:href="https://evjeesm.github.io/vector/group__Vector__API.html#ga9437d9506a3b2799f595c88b82f160b3" xlink:title=" ">
<polygon fill="white" stroke="#666666" points="649,-244 580,-244 580,-225 649,-225 649,-244"/>
<text text-anchor="middle" x="614.5" y="-232" font-family="Mononoki" font-size="10.00">vector_get</text>
</a>
</g>
</g>
<!-- Node7&#45;&gt;Node8 -->
<g id="edge8_Node000007_Node000008" class="edge">
<title>Node7&#45;&gt;Node8</title>
<g id="a_edge8_Node000007_Node000008"><a xlink:title=" ">
<path fill="none" stroke="#63b8ff" d="M486.65,-234.5C510.83,-234.5 543.65,-234.5 569.85,-234.5"/>
<polygon fill="#63b8ff" stroke="#63b8ff" points="569.9,-238 579.9,-234.5 569.9,-231 569.9,-238"/>
</a>
</g>
</g>
<!-- Node10&#45;&gt;Node3 -->
<g id="edge15_Node000010_Node000003" class="edge">
<title>Node10&#45;&gt;Node3</title>
<g id="a_edge15_Node000010_Node000003"><a xlink:title=" ">
<path fill="none" stroke="#63b8ff" d="M476.13,-91.64C486.76,-95.78 499.34,-101.26 510,-107.5 527.49,-117.74 528.22,-125.76 546,-135.5 553.6,-139.67 562.07,-143.34 570.37,-146.49"/>
<polygon fill="#63b8ff" stroke="#63b8ff" points="569.38,-149.85 579.97,-149.94 571.74,-143.26 569.38,-149.85"/>
</a>
</g>
</g>
<!-- Node10&#45;&gt;Node4 -->
<g id="edge16_Node000010_Node000004" class="edge">
<title>Node10&#45;&gt;Node4</title>
<g id="a_edge16_Node000010_Node000004"><a xlink:title=" ">
<path fill="none" stroke="#63b8ff" d="M476.13,-89.03C527.35,-101.27 651.33,-130.9 721.12,-147.58"/>
<polygon fill="#63b8ff" stroke="#63b8ff" points="720.47,-151.02 731.01,-149.94 722.1,-144.21 720.47,-151.02"/>
</a>
</g>
</g>
<!-- Node11 -->
<g id="Node000011" class="node">
<title>Node11</title>
<g id="a_Node000011"><a xlink:href="group__Dynarr__API.html#ga3ff11107726213a640d814b63cb123b2" target="_top" xlink:title=" ">
<polygon fill="white" stroke="#666666" points="662,-19 567,-19 567,0 662,0 662,-19"/>
<text text-anchor="middle" x="614.5" y="-7" font-family="Mononoki" font-size="10.00">dynarr_capacity</text>
</a>
</g>
</g>
<!-- Node10&#45;&gt;Node11 -->
<g id="edge13_Node000010_Node000011" class="edge">
<title>Node10&#45;&gt;Node11</title>
<g id="a_edge13_Node000010_Node000011"><a xlink:title=" ">
<path fill="none" stroke="#63b8ff" d="M466.22,-73.89C483.7,-61.58 515.81,-40.31 546,-27.5 550.69,-25.51 555.67,-23.68 560.7,-22.03"/>
<polygon fill="#63b8ff" stroke="#63b8ff" points="561.87,-25.33 570.4,-19.05 559.81,-18.64 561.87,-25.33"/>
</a>
</g>
</g>
<!-- Node13 -->
<g id="Node000013" class="node">
<title>Node13</title>
<g id="a_Node000013"><a target="_parent" xlink:href="https://evjeesm.github.io/vector/group__Vector__API.html#ga8920a1d7d9d5db65a90e0e27b112ed2e" xlink:title=" ">
<polygon fill="white" stroke="#666666" points="683,-93 546,-93 546,-74 683,-74 683,-93"/>
<text text-anchor="middle" x="614.5" y="-81" font-family="Mononoki" font-size="10.00">vector_initial_capacity</text>
</a>
</g>
</g>
<!-- Node10&#45;&gt;Node13 -->
<g id="edge17_Node000010_Node000013" class="edge">
<title>Node10&#45;&gt;Node13</title>
<g id="a_edge17_Node000010_Node000013"><a xlink:title=" ">
<path fill="none" stroke="#63b8ff" d="M476.34,-83.5C492.1,-83.5 513.9,-83.5 535.48,-83.5"/>
<polygon fill="#63b8ff" stroke="#63b8ff" points="535.69,-87 545.69,-83.5 535.69,-80 535.69,-87"/>
</a>
</g>
</g>
<!-- Node14 -->
<g id="Node000014" class="node">
<title>Node14</title>
<g id="a_Node000014"><a target="_parent" xlink:href="https://evjeesm.github.io/vector/group__Vector__API.html#ga6e5077303af4dfe720af5a0608553922" xlink:title=" ">
<polygon fill="white" stroke="#666666" points="657,-56 572,-56 572,-37 657,-37 657,-56"/>
<text text-anchor="middle" x="614.5" y="-44" font-family="Mononoki" font-size="10.00">vector_resize</text>
</a>
</g>
</g>
<!-- Node10&#45;&gt;Node14 -->
<g id="edge18_Node000010_Node000014" class="edge">
<title>Node10&#45;&gt;Node14</title>
<g id="a_edge18_Node000010_Node000014"><a xlink:title=" ">
<path fill="none" stroke="#63b8ff" d="M476.34,-78.12C498.74,-72.96 533.32,-64.98 562.16,-58.34"/>
<polygon fill="#63b8ff" stroke="#63b8ff" points="563.13,-61.7 572.09,-56.05 561.56,-54.88 563.13,-61.7"/>
</a>
</g>
</g>
<!-- Node12 -->
<g id="Node000012" class="node">
<title>Node12</title>
<g id="a_Node000012"><a target="_parent" xlink:href="https://evjeesm.github.io/vector/group__Vector__API.html#gab24bd801f91d4ae1ac79b54430b0409f" xlink:title=" ">
<polygon fill="white" stroke="#666666" points="819.5,-19 724.5,-19 724.5,0 819.5,0 819.5,-19"/>
<text text-anchor="middle" x="772" y="-7" font-family="Mononoki" font-size="10.00">vector_capacity</text>
</a>
</g>
</g>
<!-- Node11&#45;&gt;Node12 -->
<g id="edge14_Node000011_Node000012" class="edge">
<title>Node11&#45;&gt;Node12</title>
<g id="a_edge14_Node000011_Node000012"><a xlink:title=" ">
<path fill="none" stroke="#63b8ff" d="M662.16,-9.5C678.45,-9.5 696.93,-9.5 713.98,-9.5"/>
<polygon fill="#63b8ff" stroke="#63b8ff" points="714.38,-13 724.38,-9.5 714.38,-6 714.38,-13"/>
</a>
</g>
</g>
</g>
</svg>

<g id="navigator" transform="translate(0 0)" fill="#404254">
  <rect fill="#f2f5e9" fill-opacity="0.5" stroke="#606060" stroke-width=".5" x="0" y="0" width="60" height="60"/>
  <use id="zoomplus" xlink:href="#zoomPlus" x="17" y="9" onmousedown="handleZoom(evt,'in')"/>
  <use id="zoomminus" xlink:href="#zoomMin" x="42" y="9" onmousedown="handleZoom(evt,'out')"/>
  <use id="reset" xlink:href="#resetDef" x="30" y="36" onmousedown="handleReset()"/>
   <use id="arrowup" xlink:href="#arrowUp" x="0" y="0" onmousedown="handlePan(0,-1)"/>
  <use id="arrowright" xlink:href="#arrowRight" x="0" y="0" onmousedown="handlePan(1,0)"/>
  <use id="arrowdown" xlink:href="#arrowDown" x="0" y="0" onmousedown="handlePan(0,1)"/>
  <use id="arrowleft" xlink:href="#arrowLeft" x="0" y="0" onmousedown="handlePan(-1,0)"/>
</g>
<svg viewBox="0 0 15 15" width="100%" height="30px" preserveAspectRatio="xMaxYMin meet">
 <g id="arrow_out" transform="scale(0.3 0.3)">
  <a xlink:href="group__Dynarr__API_gae2e52e602d3867ce3e5fee688ea20263_cgraph_org.svg" target="_base">
   <rect id="button" ry="5" rx="5" y="6" x="6" height="38" width="38"
        fill="#f2f5e9" fill-opacity="0.5" stroke="#606060" stroke-width="1.0"/>
   <path id="arrow"
     d="M 11.500037,31.436501 C 11.940474,20.09759 22.043105,11.32322 32.158766,21.979434 L 37.068811,17.246167 C 37.068811,17.246167 37.088388,32 37.088388,32 L 22.160133,31.978069 C 22.160133,31.978069 26.997745,27.140456 26.997745,27.140456 C 18.528582,18.264221 13.291696,25.230495 11.500037,31.436501 z"
     style="fill:#404040;"/>
  </a>
 </g>
</svg>

<style type='text/css'>
<![CDATA[
[data-mouse-over-selected='false'] { opacity: 0.7; }
[data-mouse-over-selected='true']  { opacity: 1.0; }
]]>
</style>
<script type="application/ecmascript"><![CDATA[
document.addEventListener('DOMContentLoaded', (event) => {
  highlightEdges();
  highlightAdjacentNodes();
});
]]></script>
</svg>
