<?xml version="1.0" encoding="UTF-8" standalone="no"?>
<!DOCTYPE svg PUBLIC "-//W3C//DTD SVG 1.1//EN"
 "http://www.w3.org/Graphics/SVG/1.1/DTD/svg11.dtd">
<!-- Generated by graphviz version 2.43.0 (0)
 -->
<!-- Title: dynarr_last Pages: 1 -->
<svg width="602pt" height="64pt"
 viewBox="0.00 0.00 602.00 64.00" xmlns="http://www.w3.org/2000/svg" xmlns:xlink="http://www.w3.org/1999/xlink">
<g id="graph0" class="graph" transform="scale(1 1) rotate(0) translate(4 60)">
<title>dynarr_last</title>
<!-- Node1 -->
<g id="Node000001" class="node">
<title>Node1</title>
<g id="a_Node000001"><a xlink:title=" ">
<polygon fill="#999999" stroke="#666666" points="74,-38 0,-38 0,-19 74,-19 74,-38"/>
<text text-anchor="middle" x="37" y="-26" font-family="Mononoki" font-size="10.00">dynarr_last</text>
</a>
</g>
</g>
<!-- Node2 -->
<g id="Node000002" class="node">
<title>Node2</title>
<g id="a_Node000002"><a xlink:href="group__Dynarr__API.html#ga93c32dd116523090126d427cce08e114" target="_top" xlink:title=" ">
<polygon fill="white" stroke="#666666" points="179,-19 110,-19 110,0 179,0 179,-19"/>
<text text-anchor="middle" x="144.5" y="-7" font-family="Mononoki" font-size="10.00">dynarr_get</text>
</a>
</g>
</g>
<!-- Node1&#45;&gt;Node2 -->
<g id="edge1_Node000001_Node000002" class="edge">
<title>Node1&#45;&gt;Node2</title>
<g id="a_edge1_Node000001_Node000002"><a xlink:title=" ">
<path fill="none" stroke="#63b8ff" d="M74.01,-22.01C82.34,-20.52 91.28,-18.9 99.89,-17.35"/>
<polygon fill="#63b8ff" stroke="#63b8ff" points="100.56,-20.79 109.78,-15.57 99.32,-13.9 100.56,-20.79"/>
</a>
</g>
</g>
<!-- Node3 -->
<g id="Node000003" class="node">
<title>Node3</title>
<g id="a_Node000003"><a xlink:href="group__Dynarr__API.html#gaf5c43e2644d185b9b01065af34ed6e29" target="_top" xlink:title=" ">
<polygon fill="white" stroke="#666666" points="289,-56 215,-56 215,-37 289,-37 289,-56"/>
<text text-anchor="middle" x="252" y="-44" font-family="Mononoki" font-size="10.00">dynarr_size</text>
</a>
</g>
</g>
<!-- Node1&#45;&gt;Node3 -->
<g id="edge6_Node000001_Node000003" class="edge">
<title>Node1&#45;&gt;Node3</title>
<g id="a_edge6_Node000001_Node000003"><a xlink:title=" ">
<path fill="none" stroke="#63b8ff" d="M74.13,-31.55C110.09,-34.59 165.41,-39.27 204.6,-42.58"/>
<polygon fill="#63b8ff" stroke="#63b8ff" points="204.43,-46.08 214.69,-43.43 205.02,-39.1 204.43,-46.08"/>
</a>
</g>
</g>
<!-- Node2&#45;&gt;Node3 -->
<g id="edge2_Node000002_Node000003" class="edge">
<title>Node2&#45;&gt;Node3</title>
<g id="a_edge2_Node000002_Node000003"><a xlink:title=" ">
<path fill="none" stroke="#63b8ff" d="M172.67,-19.03C185.25,-23.44 200.38,-28.75 213.98,-33.52"/>
<polygon fill="#63b8ff" stroke="#63b8ff" points="212.96,-36.87 223.56,-36.88 215.28,-30.26 212.96,-36.87"/>
</a>
</g>
</g>
<!-- Node6 -->
<g id="Node000006" class="node">
<title>Node6</title>
<g id="a_Node000006"><a target="_parent" xlink:href="https://evjeesm.github.io/vector/group__Vector__API.html#ga9437d9506a3b2799f595c88b82f160b3" xlink:title=" ">
<polygon fill="white" stroke="#666666" points="286.5,-19 217.5,-19 217.5,0 286.5,0 286.5,-19"/>
<text text-anchor="middle" x="252" y="-7" font-family="Mononoki" font-size="10.00">vector_get</text>
</a>
</g>
</g>
<!-- Node2&#45;&gt;Node6 -->
<g id="edge5_Node000002_Node000006" class="edge">
<title>Node2&#45;&gt;Node6</title>
<g id="a_edge5_Node000002_Node000006"><a xlink:title=" ">
<path fill="none" stroke="#63b8ff" d="M179.17,-9.5C188.02,-9.5 197.7,-9.5 207,-9.5"/>
<polygon fill="#63b8ff" stroke="#63b8ff" points="207.29,-13 217.29,-9.5 207.29,-6 207.29,-13"/>
</a>
</g>
</g>
<!-- Node4 -->
<g id="Node000004" class="node">
<title>Node4</title>
<g id="a_Node000004"><a xlink:href="dynarr_8c.html#a73f42f3f25cd0920d8039d63ea31be07" target="_top" xlink:title=" ">
<polygon fill="white" stroke="#666666" points="431,-56 325,-56 325,-37 431,-37 431,-56"/>
<text text-anchor="middle" x="378" y="-44" font-family="Mononoki" font-size="10.00">get_dynarr_header</text>
</a>
</g>
</g>
<!-- Node3&#45;&gt;Node4 -->
<g id="edge3_Node000003_Node000004" class="edge">
<title>Node3&#45;&gt;Node4</title>
<g id="a_edge3_Node000003_Node000004"><a xlink:title=" ">
<path fill="none" stroke="#63b8ff" d="M289.2,-46.5C297.21,-46.5 305.93,-46.5 314.65,-46.5"/>
<polygon fill="#63b8ff" stroke="#63b8ff" points="314.86,-50 324.86,-46.5 314.86,-43 314.86,-50"/>
</a>
</g>
</g>
<!-- Node5 -->
<g id="Node000005" class="node">
<title>Node5</title>
<g id="a_Node000005"><a target="_parent" xlink:href="https://evjeesm.github.io/vector/group__Vector__API.html#gafc2e34dbacffe6480af8681fbf46e808" xlink:title=" ">
<polygon fill="white" stroke="#666666" points="594,-56 467,-56 467,-37 594,-37 594,-56"/>
<text text-anchor="middle" x="530.5" y="-44" font-family="Mononoki" font-size="10.00">vector_get_ext_header</text>
</a>
</g>
</g>
<!-- Node4&#45;&gt;Node5 -->
<g id="edge4_Node000004_Node000005" class="edge">
<title>Node4&#45;&gt;Node5</title>
<g id="a_edge4_Node000004_Node000005"><a xlink:title=" ">
<path fill="none" stroke="#63b8ff" d="M431.22,-46.5C439.45,-46.5 448.1,-46.5 456.7,-46.5"/>
<polygon fill="#63b8ff" stroke="#63b8ff" points="456.75,-50 466.75,-46.5 456.75,-43 456.75,-50"/>
</a>
</g>
</g>
</g>
</svg>
