<?xml version="1.0" encoding="UTF-8" standalone="no"?>
<!DOCTYPE svg PUBLIC "-//W3C//DTD SVG 1.1//EN"
 "http://www.w3.org/Graphics/SVG/1.1/DTD/svg11.dtd">
<!-- Generated by graphviz version 2.43.0 (0)
 -->
<!-- Title: dynarr_pop_front Pages: 1 -->
<svg width="881pt" height="123pt"
 viewBox="0.00 0.00 881.00 122.70" xmlns="http://www.w3.org/2000/svg" xmlns:xlink="http://www.w3.org/1999/xlink">
<g id="graph0" class="graph" transform="scale(1 1) rotate(0) translate(4 118.7)">
<title>dynarr_pop_front</title>
<!-- Node1 -->
<g id="Node000001" class="node">
<title>Node1</title>
<g id="a_Node000001"><a xlink:title=" ">
<polygon fill="#999999" stroke="#666666" points="101,-76.7 0,-76.7 0,-57.7 101,-57.7 101,-76.7"/>
<text text-anchor="middle" x="50.5" y="-64.7" font-family="Mononoki" font-size="10.00">dynarr_pop_front</text>
</a>
</g>
</g>
<!-- Node2 -->
<g id="Node000002" class="node">
<title>Node2</title>
<g id="a_Node000002"><a xlink:href="group__Dynarr__API.html#gae2e52e602d3867ce3e5fee688ea20263" target="_top" xlink:title=" ">
<polygon fill="white" stroke="#666666" points="222,-76.7 137,-76.7 137,-57.7 222,-57.7 222,-76.7"/>
<text text-anchor="middle" x="179.5" y="-64.7" font-family="Mononoki" font-size="10.00">dynarr_remove</text>
</a>
</g>
</g>
<!-- Node1&#45;&gt;Node2 -->
<g id="edge1_Node000001_Node000002" class="edge">
<title>Node1&#45;&gt;Node2</title>
<g id="a_edge1_Node000001_Node000002"><a xlink:title=" ">
<path fill="none" stroke="#63b8ff" d="M101.33,-67.2C109.63,-67.2 118.26,-67.2 126.61,-67.2"/>
<polygon fill="#63b8ff" stroke="#63b8ff" points="126.61,-70.7 136.61,-67.2 126.61,-63.7 126.61,-70.7"/>
</a>
</g>
</g>
<!-- Node3 -->
<g id="Node000003" class="node">
<title>Node3</title>
<g id="a_Node000003"><a xlink:href="group__Dynarr__API.html#ga1187f49d8bde19551b2c95ad430e596c" target="_top" xlink:title=" ">
<polygon fill="white" stroke="#666666" points="374,-76.7 258,-76.7 258,-57.7 374,-57.7 374,-76.7"/>
<text text-anchor="middle" x="316" y="-64.7" font-family="Mononoki" font-size="10.00">dynarr_remove_range</text>
</a>
</g>
</g>
<!-- Node2&#45;&gt;Node3 -->
<g id="edge2_Node000002_Node000003" class="edge">
<title>Node2&#45;&gt;Node3</title>
<g id="a_edge2_Node000002_Node000003"><a xlink:title=" ">
<path fill="none" stroke="#63b8ff" d="M222.32,-67.2C230.41,-67.2 239.08,-67.2 247.75,-67.2"/>
<polygon fill="#63b8ff" stroke="#63b8ff" points="247.89,-70.7 257.89,-67.2 247.89,-63.7 247.89,-70.7"/>
</a>
</g>
</g>
<!-- Node4 -->
<g id="Node000004" class="node">
<title>Node4</title>
<g id="a_Node000004"><a xlink:href="group__Dynarr__API.html#gaf5c43e2644d185b9b01065af34ed6e29" target="_top" xlink:title=" ">
<polygon fill="white" stroke="#666666" points="720.5,-38.7 646.5,-38.7 646.5,-19.7 720.5,-19.7 720.5,-38.7"/>
<text text-anchor="middle" x="683.5" y="-26.7" font-family="Mononoki" font-size="10.00">dynarr_size</text>
</a>
</g>
</g>
<!-- Node3&#45;&gt;Node4 -->
<g id="edge3_Node000003_Node000004" class="edge">
<title>Node3&#45;&gt;Node4</title>
<g id="a_edge3_Node000003_Node000004"><a xlink:title=" ">
<path fill="none" stroke="#63b8ff" d="M374.17,-65.58C431.52,-63.39 522.24,-58.37 600,-47.2 611.78,-45.51 624.39,-43.08 636.12,-40.55"/>
<polygon fill="#63b8ff" stroke="#63b8ff" points="637.15,-43.9 646.15,-38.32 635.63,-37.07 637.15,-43.9"/>
</a>
</g>
</g>
<!-- Node6 -->
<g id="Node000006" class="node">
<title>Node6</title>
<g id="a_Node000006"><a xlink:href="group__Auto-resize.html#ga9ff20c2ac9693f6d8f0ea97f9b46539c" target="_top" xlink:title=" ">
<polygon fill="white" stroke="#666666" points="495,-19.7 410,-19.7 410,-0.7 495,-0.7 495,-19.7"/>
<text text-anchor="middle" x="452.5" y="-7.7" font-family="Mononoki" font-size="10.00">free_space_at</text>
</a>
</g>
</g>
<!-- Node3&#45;&gt;Node6 -->
<g id="edge5_Node000003_Node000006" class="edge">
<title>Node3&#45;&gt;Node6</title>
<g id="a_edge5_Node000003_Node000006"><a xlink:title=" ">
<path fill="none" stroke="#63b8ff" d="M339.51,-57.66C361.43,-48.37 394.95,-34.17 419.61,-23.72"/>
<polygon fill="#63b8ff" stroke="#63b8ff" points="421.07,-26.9 428.91,-19.77 418.34,-20.45 421.07,-26.9"/>
</a>
</g>
</g>
<!-- Node8 -->
<g id="Node000008" class="node">
<title>Node8</title>
<g id="a_Node000008"><a xlink:href="group__Auto-resize.html#ga8eb6c0a577084ccd7a64bec67b8bdbbe" target="_top" xlink:title=" ">
<polygon fill="white" stroke="#666666" points="589.5,-114.7 541.5,-114.7 541.5,-95.7 589.5,-95.7 589.5,-114.7"/>
<text text-anchor="middle" x="565.5" y="-102.7" font-family="Mononoki" font-size="10.00">shrink</text>
</a>
</g>
</g>
<!-- Node3&#45;&gt;Node8 -->
<g id="edge10_Node000003_Node000008" class="edge">
<title>Node3&#45;&gt;Node8</title>
<g id="a_edge10_Node000003_Node000008"><a xlink:title=" ">
<path fill="none" stroke="#63b8ff" d="M374.09,-75.97C422.84,-83.45 491.26,-93.96 531.43,-100.12"/>
<polygon fill="#63b8ff" stroke="#63b8ff" points="531.07,-103.61 541.49,-101.67 532.14,-96.69 531.07,-103.61"/>
</a>
</g>
</g>
<!-- Node5 -->
<g id="Node000005" class="node">
<title>Node5</title>
<g id="a_Node000005"><a xlink:href="dynarr_8c.html#a73f42f3f25cd0920d8039d63ea31be07" target="_top" xlink:title=" ">
<polygon fill="white" stroke="#666666" points="873,-38.7 767,-38.7 767,-19.7 873,-19.7 873,-38.7"/>
<text text-anchor="middle" x="820" y="-26.7" font-family="Mononoki" font-size="10.00">get_dynarr_header</text>
</a>
</g>
</g>
<!-- Node4&#45;&gt;Node5 -->
<g id="edge4_Node000004_Node000005" class="edge">
<title>Node4&#45;&gt;Node5</title>
<g id="a_edge4_Node000004_Node000005"><a xlink:title=" ">
<path fill="none" stroke="#63b8ff" d="M720.54,-29.2C731.67,-29.2 744.26,-29.2 756.63,-29.2"/>
<polygon fill="#63b8ff" stroke="#63b8ff" points="756.93,-32.7 766.93,-29.2 756.93,-25.7 756.93,-32.7"/>
</a>
</g>
</g>
<!-- Node6&#45;&gt;Node4 -->
<g id="edge8_Node000006_Node000004" class="edge">
<title>Node6&#45;&gt;Node4</title>
<g id="a_edge8_Node000006_Node000004"><a xlink:title=" ">
<path fill="none" stroke="#63b8ff" d="M495,-7.71C524.41,-6.55 564.75,-6.19 600,-10.2 612.91,-11.67 626.73,-14.39 639.31,-17.32"/>
<polygon fill="#63b8ff" stroke="#63b8ff" points="638.54,-20.73 649.08,-19.69 640.19,-13.93 638.54,-20.73"/>
</a>
</g>
</g>
<!-- Node6&#45;&gt;Node5 -->
<g id="edge9_Node000006_Node000005" class="edge">
<title>Node6&#45;&gt;Node5</title>
<g id="a_edge9_Node000006_Node000005"><a xlink:title=" ">
<path fill="none" stroke="#63b8ff" d="M495.28,-5.73C506.84,-4.69 519.39,-3.72 531,-3.2 619.85,0.8 642.84,1.59 731,-10.2 744.08,-11.95 758.1,-14.61 771.03,-17.4"/>
<polygon fill="#63b8ff" stroke="#63b8ff" points="770.59,-20.89 781.12,-19.64 772.11,-14.05 770.59,-20.89"/>
</a>
</g>
</g>
<!-- Node7 -->
<g id="Node000007" class="node">
<title>Node7</title>
<g id="a_Node000007"><a xlink:href="group__Dynarr__API.html#ga93c32dd116523090126d427cce08e114" target="_top" xlink:title=" ">
<polygon fill="white" stroke="#666666" points="600,-38.7 531,-38.7 531,-19.7 600,-19.7 600,-38.7"/>
<text text-anchor="middle" x="565.5" y="-26.7" font-family="Mononoki" font-size="10.00">dynarr_get</text>
</a>
</g>
</g>
<!-- Node6&#45;&gt;Node7 -->
<g id="edge6_Node000006_Node000007" class="edge">
<title>Node6&#45;&gt;Node7</title>
<g id="a_edge6_Node000006_Node000007"><a xlink:title=" ">
<path fill="none" stroke="#63b8ff" d="M495.15,-17.33C503.55,-18.77 512.39,-20.28 520.86,-21.73"/>
<polygon fill="#63b8ff" stroke="#63b8ff" points="520.49,-25.22 530.93,-23.46 521.67,-18.32 520.49,-25.22"/>
</a>
</g>
</g>
<!-- Node7&#45;&gt;Node4 -->
<g id="edge7_Node000007_Node000004" class="edge">
<title>Node7&#45;&gt;Node4</title>
<g id="a_edge7_Node000007_Node000004"><a xlink:title=" ">
<path fill="none" stroke="#63b8ff" d="M600.05,-29.2C611.23,-29.2 623.89,-29.2 635.88,-29.2"/>
<polygon fill="#63b8ff" stroke="#63b8ff" points="636.18,-32.7 646.18,-29.2 636.18,-25.7 636.18,-32.7"/>
</a>
</g>
</g>
<!-- Node8&#45;&gt;Node4 -->
<g id="edge12_Node000008_Node000004" class="edge">
<title>Node8&#45;&gt;Node4</title>
<g id="a_edge12_Node000008_Node000004"><a xlink:title=" ">
<path fill="none" stroke="#63b8ff" d="M580.8,-95.53C586.85,-91.29 593.89,-86.16 600,-81.2 616.85,-67.52 617.67,-59.82 636,-48.2 638.96,-46.32 642.14,-44.57 645.4,-42.94"/>
<polygon fill="#63b8ff" stroke="#63b8ff" points="647.02,-46.05 654.65,-38.7 644.1,-39.68 647.02,-46.05"/>
</a>
</g>
</g>
<!-- Node8&#45;&gt;Node5 -->
<g id="edge13_Node000008_Node000005" class="edge">
<title>Node8&#45;&gt;Node5</title>
<g id="a_edge13_Node000008_Node000005"><a xlink:title=" ">
<path fill="none" stroke="#63b8ff" d="M589.58,-105.57C622.09,-105.39 682.79,-102.47 731,-85.2 756.7,-76 782.64,-58.22 799.63,-45.15"/>
<polygon fill="#63b8ff" stroke="#63b8ff" points="801.97,-47.77 807.65,-38.82 797.64,-42.27 801.97,-47.77"/>
</a>
</g>
</g>
<!-- Node9 -->
<g id="Node000009" class="node">
<title>Node9</title>
<g id="a_Node000009"><a xlink:href="group__Dynarr__API.html#ga3ff11107726213a640d814b63cb123b2" target="_top" xlink:title=" ">
<polygon fill="white" stroke="#666666" points="731,-76.7 636,-76.7 636,-57.7 731,-57.7 731,-76.7"/>
<text text-anchor="middle" x="683.5" y="-64.7" font-family="Mononoki" font-size="10.00">dynarr_capacity</text>
</a>
</g>
</g>
<!-- Node8&#45;&gt;Node9 -->
<g id="edge11_Node000008_Node000009" class="edge">
<title>Node8&#45;&gt;Node9</title>
<g id="a_edge11_Node000008_Node000009"><a xlink:title=" ">
<path fill="none" stroke="#63b8ff" d="M589.7,-97.6C605.09,-92.56 625.68,-85.81 643.56,-79.96"/>
<polygon fill="#63b8ff" stroke="#63b8ff" points="644.74,-83.25 653.16,-76.81 642.56,-76.6 644.74,-83.25"/>
</a>
</g>
</g>
</g>
</svg>
