<?xml version="1.0" encoding="UTF-8" standalone="no"?>
<!DOCTYPE svg PUBLIC "-//W3C//DTD SVG 1.1//EN"
 "http://www.w3.org/Graphics/SVG/1.1/DTD/svg11.dtd">
<!-- Generated by graphviz version 2.43.0 (0)
 -->
<!-- Title: shrink Pages: 1 -->
<svg width="534pt" height="177pt"
 viewBox="0.00 0.00 534.00 177.00" xmlns="http://www.w3.org/2000/svg" xmlns:xlink="http://www.w3.org/1999/xlink">
<g id="graph0" class="graph" transform="scale(1 1) rotate(0) translate(4 173)">
<title>shrink</title>
<!-- Node1 -->
<g id="Node000001" class="node">
<title>Node1</title>
<g id="a_Node000001"><a xlink:title=" ">
<polygon fill="#999999" stroke="#666666" points="48,-94 0,-94 0,-75 48,-75 48,-94"/>
<text text-anchor="middle" x="24" y="-82" font-family="Mononoki" font-size="10.00">shrink</text>
</a>
</g>
</g>
<!-- Node2 -->
<g id="Node000002" class="node">
<title>Node2</title>
<g id="a_Node000002"><a xlink:href="group__Dynarr__API.html#ga3ff11107726213a640d814b63cb123b2" target="_top" xlink:title=" ">
<polygon fill="white" stroke="#666666" points="200,-169 105,-169 105,-150 200,-150 200,-169"/>
<text text-anchor="middle" x="152.5" y="-157" font-family="Mononoki" font-size="10.00">dynarr_capacity</text>
</a>
</g>
</g>
<!-- Node1&#45;&gt;Node2 -->
<g id="edge1_Node000001_Node000002" class="edge">
<title>Node1&#45;&gt;Node2</title>
<g id="a_edge1_Node000001_Node000002"><a xlink:title=" ">
<path fill="none" stroke="#63b8ff" d="M32.29,-94.11C42.47,-106.85 62.18,-129.17 84,-141.5 87.62,-143.55 91.49,-145.37 95.46,-146.99"/>
<polygon fill="#63b8ff" stroke="#63b8ff" points="94.29,-150.29 104.88,-150.41 96.68,-143.71 94.29,-150.29"/>
</a>
</g>
</g>
<!-- Node4 -->
<g id="Node000004" class="node">
<title>Node4</title>
<g id="a_Node000004"><a xlink:href="group__Dynarr__API.html#gaf5c43e2644d185b9b01065af34ed6e29" target="_top" xlink:title=" ">
<polygon fill="white" stroke="#666666" points="189.5,-132 115.5,-132 115.5,-113 189.5,-113 189.5,-132"/>
<text text-anchor="middle" x="152.5" y="-120" font-family="Mononoki" font-size="10.00">dynarr_size</text>
</a>
</g>
</g>
<!-- Node1&#45;&gt;Node4 -->
<g id="edge3_Node000001_Node000004" class="edge">
<title>Node1&#45;&gt;Node4</title>
<g id="a_edge3_Node000001_Node000004"><a xlink:title=" ">
<path fill="none" stroke="#63b8ff" d="M48.2,-91.47C65.49,-96.66 89.55,-103.89 110.11,-110.07"/>
<polygon fill="#63b8ff" stroke="#63b8ff" points="109.29,-113.47 119.87,-113 111.3,-106.77 109.29,-113.47"/>
</a>
</g>
</g>
<!-- Node5 -->
<g id="Node000005" class="node">
<title>Node5</title>
<g id="a_Node000005"><a xlink:href="dynarr_8c.html#a73f42f3f25cd0920d8039d63ea31be07" target="_top" xlink:title=" ">
<polygon fill="white" stroke="#666666" points="363,-113 257,-113 257,-94 363,-94 363,-113"/>
<text text-anchor="middle" x="310" y="-101" font-family="Mononoki" font-size="10.00">get_dynarr_header</text>
</a>
</g>
</g>
<!-- Node1&#45;&gt;Node5 -->
<g id="edge6_Node000001_Node000005" class="edge">
<title>Node1&#45;&gt;Node5</title>
<g id="a_edge6_Node000001_Node000005"><a xlink:title=" ">
<path fill="none" stroke="#63b8ff" d="M48.24,-86.05C91.16,-88.93 184.16,-95.15 246.69,-99.33"/>
<polygon fill="#63b8ff" stroke="#63b8ff" points="246.62,-102.83 256.83,-100.01 247.09,-95.85 246.62,-102.83"/>
</a>
</g>
</g>
<!-- Node7 -->
<g id="Node000007" class="node">
<title>Node7</title>
<g id="a_Node000007"><a target="_parent" xlink:href="https://evjeesm.github.io/vector/group__Vector__API.html#ga8920a1d7d9d5db65a90e0e27b112ed2e" xlink:title=" ">
<polygon fill="white" stroke="#666666" points="221,-56 84,-56 84,-37 221,-37 221,-56"/>
<text text-anchor="middle" x="152.5" y="-44" font-family="Mononoki" font-size="10.00">vector_initial_capacity</text>
</a>
</g>
</g>
<!-- Node1&#45;&gt;Node7 -->
<g id="edge7_Node000001_Node000007" class="edge">
<title>Node1&#45;&gt;Node7</title>
<g id="a_edge7_Node000001_Node000007"><a xlink:title=" ">
<path fill="none" stroke="#63b8ff" d="M48.2,-77.53C65.49,-72.34 89.55,-65.11 110.11,-58.93"/>
<polygon fill="#63b8ff" stroke="#63b8ff" points="111.3,-62.23 119.87,-56 109.29,-55.53 111.3,-62.23"/>
</a>
</g>
</g>
<!-- Node8 -->
<g id="Node000008" class="node">
<title>Node8</title>
<g id="a_Node000008"><a target="_parent" xlink:href="https://evjeesm.github.io/vector/group__Vector__API.html#ga6e5077303af4dfe720af5a0608553922" xlink:title=" ">
<polygon fill="white" stroke="#666666" points="195,-19 110,-19 110,0 195,0 195,-19"/>
<text text-anchor="middle" x="152.5" y="-7" font-family="Mononoki" font-size="10.00">vector_resize</text>
</a>
</g>
</g>
<!-- Node1&#45;&gt;Node8 -->
<g id="edge8_Node000001_Node000008" class="edge">
<title>Node1&#45;&gt;Node8</title>
<g id="a_edge8_Node000001_Node000008"><a xlink:title=" ">
<path fill="none" stroke="#63b8ff" d="M32.29,-74.89C42.47,-62.15 62.18,-39.83 84,-27.5 89.07,-24.63 94.62,-22.21 100.28,-20.16"/>
<polygon fill="#63b8ff" stroke="#63b8ff" points="101.43,-23.47 109.86,-17.06 99.27,-16.81 101.43,-23.47"/>
</a>
</g>
</g>
<!-- Node3 -->
<g id="Node000003" class="node">
<title>Node3</title>
<g id="a_Node000003"><a target="_parent" xlink:href="https://evjeesm.github.io/vector/group__Vector__API.html#gab24bd801f91d4ae1ac79b54430b0409f" xlink:title=" ">
<polygon fill="white" stroke="#666666" points="357.5,-169 262.5,-169 262.5,-150 357.5,-150 357.5,-169"/>
<text text-anchor="middle" x="310" y="-157" font-family="Mononoki" font-size="10.00">vector_capacity</text>
</a>
</g>
</g>
<!-- Node2&#45;&gt;Node3 -->
<g id="edge2_Node000002_Node000003" class="edge">
<title>Node2&#45;&gt;Node3</title>
<g id="a_edge2_Node000002_Node000003"><a xlink:title=" ">
<path fill="none" stroke="#63b8ff" d="M200.16,-159.5C216.45,-159.5 234.93,-159.5 251.98,-159.5"/>
<polygon fill="#63b8ff" stroke="#63b8ff" points="252.38,-163 262.38,-159.5 252.38,-156 252.38,-163"/>
</a>
</g>
</g>
<!-- Node4&#45;&gt;Node5 -->
<g id="edge4_Node000004_Node000005" class="edge">
<title>Node4&#45;&gt;Node5</title>
<g id="a_edge4_Node000004_Node000005"><a xlink:title=" ">
<path fill="none" stroke="#63b8ff" d="M189.57,-118.09C206.6,-116.01 227.43,-113.47 246.9,-111.09"/>
<polygon fill="#63b8ff" stroke="#63b8ff" points="247.42,-114.55 256.92,-109.86 246.57,-107.6 247.42,-114.55"/>
</a>
</g>
</g>
<!-- Node6 -->
<g id="Node000006" class="node">
<title>Node6</title>
<g id="a_Node000006"><a target="_parent" xlink:href="https://evjeesm.github.io/vector/group__Vector__API.html#gafc2e34dbacffe6480af8681fbf46e808" xlink:title=" ">
<polygon fill="white" stroke="#666666" points="526,-113 399,-113 399,-94 526,-94 526,-113"/>
<text text-anchor="middle" x="462.5" y="-101" font-family="Mononoki" font-size="10.00">vector_get_ext_header</text>
</a>
</g>
</g>
<!-- Node5&#45;&gt;Node6 -->
<g id="edge5_Node000005_Node000006" class="edge">
<title>Node5&#45;&gt;Node6</title>
<g id="a_edge5_Node000005_Node000006"><a xlink:title=" ">
<path fill="none" stroke="#63b8ff" d="M363.22,-103.5C371.45,-103.5 380.1,-103.5 388.7,-103.5"/>
<polygon fill="#63b8ff" stroke="#63b8ff" points="388.75,-107 398.75,-103.5 388.75,-100 388.75,-107"/>
</a>
</g>
</g>
</g>
</svg>
