<?xml version="1.0" encoding="UTF-8" standalone="no"?>
<!DOCTYPE svg PUBLIC "-//W3C//DTD SVG 1.1//EN"
 "http://www.w3.org/Graphics/SVG/1.1/DTD/svg11.dtd">
<!-- Generated by graphviz version 2.43.0 (0)
 -->
<!-- Title: dynarr_binary_find_insert_place Pages: 1 -->
<svg width="623pt" height="78pt"
 viewBox="0.00 0.00 623.00 78.00" xmlns="http://www.w3.org/2000/svg" xmlns:xlink="http://www.w3.org/1999/xlink">
<g id="graph0" class="graph" transform="scale(1 1) rotate(0) translate(4 74)">
<title>dynarr_binary_find_insert_place</title>
<!-- Node1 -->
<g id="Node000001" class="node">
<title>Node1</title>
<g id="a_Node000001"><a xlink:title=" ">
<polygon fill="#999999" stroke="#666666" points="111,-30 0,-30 0,0 111,0 111,-30"/>
<text text-anchor="start" x="8" y="-18" font-family="Mononoki" font-size="10.00">dynarr_binary_find</text>
<text text-anchor="middle" x="55.5" y="-7" font-family="Mononoki" font-size="10.00">_insert_place</text>
</a>
</g>
</g>
<!-- Node2 -->
<g id="Node000002" class="node">
<title>Node2</title>
<g id="a_Node000002"><a xlink:href="dynarr_8c.html#a187b18732062f4f69486553f37697739" target="_top" xlink:title=" ">
<polygon fill="white" stroke="#666666" points="258,-52 147,-52 147,-22 258,-22 258,-52"/>
<text text-anchor="start" x="155" y="-40" font-family="Mononoki" font-size="10.00">binary_find_insert</text>
<text text-anchor="middle" x="202.5" y="-29" font-family="Mononoki" font-size="10.00">_place</text>
</a>
</g>
</g>
<!-- Node1&#45;&gt;Node2 -->
<g id="edge1_Node000001_Node000002" class="edge">
<title>Node1&#45;&gt;Node2</title>
<g id="a_edge1_Node000001_Node000002"><a xlink:title=" ">
<path fill="none" stroke="#63b8ff" d="M111.32,-23.32C119.53,-24.56 128.06,-25.86 136.46,-27.13"/>
<polygon fill="#63b8ff" stroke="#63b8ff" points="136.19,-30.63 146.6,-28.67 137.24,-23.71 136.19,-30.63"/>
</a>
</g>
</g>
<!-- Node4 -->
<g id="Node000004" class="node">
<title>Node4</title>
<g id="a_Node000004"><a xlink:href="group__Dynarr__API.html#gaf5c43e2644d185b9b01065af34ed6e29" target="_top" xlink:title=" ">
<polygon fill="white" stroke="#666666" points="473,-22.5 399,-22.5 399,-3.5 473,-3.5 473,-22.5"/>
<text text-anchor="middle" x="436" y="-10.5" font-family="Mononoki" font-size="10.00">dynarr_size</text>
</a>
</g>
</g>
<!-- Node1&#45;&gt;Node4 -->
<g id="edge6_Node000001_Node000004" class="edge">
<title>Node1&#45;&gt;Node4</title>
<g id="a_edge6_Node000001_Node000004"><a xlink:title=" ">
<path fill="none" stroke="#63b8ff" d="M111.05,-13.6C122.9,-13.35 135.37,-13.13 147,-13 232.19,-12.06 331.57,-12.37 388.5,-12.68"/>
<polygon fill="#63b8ff" stroke="#63b8ff" points="388.61,-16.18 398.63,-12.74 388.65,-9.18 388.61,-16.18"/>
</a>
</g>
</g>
<!-- Node2&#45;&gt;Node2 -->
<g id="edge2_Node000002_Node000002" class="edge">
<title>Node2&#45;&gt;Node2</title>
<g id="a_edge2_Node000002_Node000002"><a xlink:title=" ">
<path fill="none" stroke="#63b8ff" d="M180.35,-52.28C175.43,-61.41 182.81,-70 202.5,-70 214.19,-70 221.54,-66.97 224.55,-62.6"/>
<polygon fill="#63b8ff" stroke="#63b8ff" points="228.06,-62.31 224.65,-52.28 221.06,-62.24 228.06,-62.31"/>
</a>
</g>
</g>
<!-- Node3 -->
<g id="Node000003" class="node">
<title>Node3</title>
<g id="a_Node000003"><a xlink:href="group__Dynarr__API.html#ga93c32dd116523090126d427cce08e114" target="_top" xlink:title=" ">
<polygon fill="white" stroke="#666666" points="363,-43.5 294,-43.5 294,-24.5 363,-24.5 363,-43.5"/>
<text text-anchor="middle" x="328.5" y="-31.5" font-family="Mononoki" font-size="10.00">dynarr_get</text>
</a>
</g>
</g>
<!-- Node2&#45;&gt;Node3 -->
<g id="edge3_Node000002_Node000003" class="edge">
<title>Node2&#45;&gt;Node3</title>
<g id="a_edge3_Node000002_Node000003"><a xlink:title=" ">
<path fill="none" stroke="#63b8ff" d="M258.25,-35.68C266.73,-35.47 275.4,-35.26 283.61,-35.06"/>
<polygon fill="#63b8ff" stroke="#63b8ff" points="283.79,-38.56 293.7,-34.82 283.62,-31.56 283.79,-38.56"/>
</a>
</g>
</g>
<!-- Node3&#45;&gt;Node4 -->
<g id="edge4_Node000003_Node000004" class="edge">
<title>Node3&#45;&gt;Node4</title>
<g id="a_edge4_Node000003_Node000004"><a xlink:title=" ">
<path fill="none" stroke="#63b8ff" d="M363.17,-27.3C371.32,-25.68 380.17,-23.91 388.78,-22.2"/>
<polygon fill="#63b8ff" stroke="#63b8ff" points="389.61,-25.6 398.73,-20.22 388.24,-18.74 389.61,-25.6"/>
</a>
</g>
</g>
<!-- Node5 -->
<g id="Node000005" class="node">
<title>Node5</title>
<g id="a_Node000005"><a xlink:href="dynarr_8c.html#a73f42f3f25cd0920d8039d63ea31be07" target="_top" xlink:title=" ">
<polygon fill="white" stroke="#666666" points="615,-22.5 509,-22.5 509,-3.5 615,-3.5 615,-22.5"/>
<text text-anchor="middle" x="562" y="-10.5" font-family="Mononoki" font-size="10.00">get_dynarr_header</text>
</a>
</g>
</g>
<!-- Node4&#45;&gt;Node5 -->
<g id="edge5_Node000004_Node000005" class="edge">
<title>Node4&#45;&gt;Node5</title>
<g id="a_edge5_Node000004_Node000005"><a xlink:title=" ">
<path fill="none" stroke="#63b8ff" d="M473.2,-13C481.21,-13 489.93,-13 498.65,-13"/>
<polygon fill="#63b8ff" stroke="#63b8ff" points="498.86,-16.5 508.86,-13 498.86,-9.5 498.86,-16.5"/>
</a>
</g>
</g>
</g>
</svg>
