<?xml version="1.0" encoding="UTF-8" standalone="no"?>
<!DOCTYPE svg PUBLIC "-//W3C//DTD SVG 1.1//EN"
 "http://www.w3.org/Graphics/SVG/1.1/DTD/svg11.dtd">
<!-- Generated by graphviz version 2.43.0 (0)
 -->
<!-- Title: dynarr_binary_reserve Pages: 1 -->
<!--zoomable 169 -->

<svg id="main" version="1.1" xmlns="http://www.w3.org/2000/svg" xmlns:xlink="http://www.w3.org/1999/xlink" xml:space="preserve" onload="init(evt)">
<style type="text/css"><![CDATA[
.node, .edge {opacity: 0.7;}
.node.selected, .edge.selected {opacity: 1;}
.edge:hover path { stroke: red; }
.edge:hover polygon { stroke: red; fill: red; }
]]></style>

<defs>
  <circle id="rim" cx="0" cy="0" r="7"/>
  <circle id="rim2" cx="0" cy="0" r="3.5"/>
  <g id="zoomPlus">
    <use xlink:href="#rim" fill="#404040"><set attributeName="fill" to="#808080" begin="zoomplus.mouseover" end="zoomplus.mouseout"/></use>
    <path d="M-4,0h8M0,-4v8" fill="none" stroke="white" stroke-width="1.5" pointer-events="none"/>
  </g>
  <g id="zoomMin">
    <use xlink:href="#rim" fill="#404040"><set attributeName="fill" to="#808080" begin="zoomminus.mouseover" end="zoomminus.mouseout"/></use>
    <path d="M-4,0h8" fill="none" stroke="white" stroke-width="1.5" pointer-events="none"/>
  </g>
  <g id="arrowUp" transform="translate(30 24)">
    <use xlink:href="#rim"/>
    <path pointer-events="none" fill="none" stroke="white" stroke-width="1.5" d="M0,-3.0v7 M-2.5,-0.5L0,-3.0L2.5,-0.5"/>
  </g>
  <g id="arrowRight" transform="rotate(90) translate(36 -43)">
    <use xlink:href="#rim"/>
    <path pointer-events="none" fill="none" stroke="white" stroke-width="1.5" d="M0,-3.0v7 M-2.5,-0.5L0,-3.0L2.5,-0.5"/>
  </g>
  <g id="arrowDown" transform="rotate(180) translate(-30 -48)">
    <use xlink:href="#rim"/>
    <path pointer-events="none" fill="none" stroke="white" stroke-width="1.5" d="M0,-3.0v7 M-2.5,-0.5L0,-3.0L2.5,-0.5"/>
  </g>
  <g id="arrowLeft" transform="rotate(270) translate(-36 17)">
    <use xlink:href="#rim"/>
    <path pointer-events="none" fill="none" stroke="white" stroke-width="1.5" d="M0,-3.0v7 M-2.5,-0.5L0,-3.0L2.5,-0.5"/>
  </g>
  <g id="resetDef">
    <use xlink:href="#rim2" fill="#404040"><set attributeName="fill" to="#808080" begin="reset.mouseover" end="reset.mouseout"/></use>
  </g>
</defs>
<script type="application/ecmascript">
var viewWidth = 807;
var viewHeight = 169;
var sectionId = 'dynsection-23';
</script>
<script type="application/ecmascript" xlink:href="svg.min.js"/>
<svg id="graph" class="graph">
<g id="viewport">
<title>dynarr_binary_reserve</title>
<!-- Node1 -->
<g id="Node000001" class="node">
<title>Node1</title>
<g id="a_Node000001"><a xlink:title=" ">
<polygon fill="#999999" stroke="#666666" points="127,-81 0,-81 0,-62 127,-62 127,-81"/>
<text text-anchor="middle" x="63.5" y="-69" font-family="Mononoki" font-size="10.00">dynarr_binary_reserve</text>
</a>
</g>
</g>
<!-- Node2 -->
<g id="Node000002" class="node">
<title>Node2</title>
<g id="a_Node000002"><a xlink:href="group__Dynarr__API.html#ga5f6a46fc8cc0cfe14d98926cadbaa35d" target="_top" xlink:title=" ">
<polygon fill="white" stroke="#666666" points="274,-86.5 163,-86.5 163,-56.5 274,-56.5 274,-86.5"/>
<text text-anchor="start" x="171" y="-74.5" font-family="Mononoki" font-size="10.00">dynarr_binary_find</text>
<text text-anchor="middle" x="218.5" y="-63.5" font-family="Mononoki" font-size="10.00">_insert_place</text>
</a>
</g>
</g>
<!-- Node1&#45;&gt;Node2 -->
<g id="edge1_Node000001_Node000002" class="edge">
<title>Node1&#45;&gt;Node2</title>
<g id="a_edge1_Node000001_Node000002"><a xlink:title=" ">
<path fill="none" stroke="#63b8ff" d="M127.17,-71.5C135.5,-71.5 144.06,-71.5 152.43,-71.5"/>
<polygon fill="#63b8ff" stroke="#63b8ff" points="152.52,-75 162.52,-71.5 152.52,-68 152.52,-75"/>
</a>
</g>
</g>
<!-- Node7 -->
<g id="Node000007" class="node">
<title>Node7</title>
<g id="a_Node000007"><a xlink:href="group__Auto-resize.html#ga036b69c5b674d3ac22027b04ba235b42" target="_top" xlink:title=" ">
<polygon fill="white" stroke="#666666" points="510.5,-19 472.5,-19 472.5,0 510.5,0 510.5,-19"/>
<text text-anchor="middle" x="491.5" y="-7" font-family="Mononoki" font-size="10.00">grow</text>
</a>
</g>
</g>
<!-- Node1&#45;&gt;Node7 -->
<g id="edge8_Node000001_Node000007" class="edge">
<title>Node1&#45;&gt;Node7</title>
<g id="a_edge8_Node000001_Node000007"><a xlink:title=" ">
<path fill="none" stroke="#63b8ff" d="M99.38,-61.89C118.12,-57.01 141.69,-51.32 163,-47.5 272.83,-27.83 405.29,-16.08 462.24,-11.6"/>
<polygon fill="#63b8ff" stroke="#63b8ff" points="462.58,-15.08 472.28,-10.82 462.04,-8.1 462.58,-15.08"/>
</a>
</g>
</g>
<!-- Node9 -->
<g id="Node000009" class="node">
<title>Node9</title>
<g id="a_Node000009"><a xlink:href="group__Auto-resize.html#gadb26f84b95f0ca45c7ccbd72e337485a" target="_top" xlink:title=" ">
<polygon fill="white" stroke="#666666" points="408,-161 323,-161 323,-142 408,-142 408,-161"/>
<text text-anchor="middle" x="365.5" y="-149" font-family="Mononoki" font-size="10.00">make_space_at</text>
</a>
</g>
</g>
<!-- Node1&#45;&gt;Node9 -->
<g id="edge12_Node000001_Node000009" class="edge">
<title>Node1&#45;&gt;Node9</title>
<g id="a_edge12_Node000001_Node000009"><a xlink:title=" ">
<path fill="none" stroke="#63b8ff" d="M100.39,-81.07C154.93,-95.62 258.68,-123.28 318.62,-139.27"/>
<polygon fill="#63b8ff" stroke="#63b8ff" points="318.01,-142.72 328.57,-141.92 319.81,-135.96 318.01,-142.72"/>
</a>
</g>
</g>
<!-- Node3 -->
<g id="Node000003" class="node">
<title>Node3</title>
<g id="a_Node000003"><a xlink:href="dynarr_8c.html#a187b18732062f4f69486553f37697739" target="_top" xlink:title=" ">
<polygon fill="white" stroke="#666666" points="421,-105.5 310,-105.5 310,-75.5 421,-75.5 421,-105.5"/>
<text text-anchor="start" x="318" y="-93.5" font-family="Mononoki" font-size="10.00">binary_find_insert</text>
<text text-anchor="middle" x="365.5" y="-82.5" font-family="Mononoki" font-size="10.00">_place</text>
</a>
</g>
</g>
<!-- Node2&#45;&gt;Node3 -->
<g id="edge2_Node000002_Node000003" class="edge">
<title>Node2&#45;&gt;Node3</title>
<g id="a_edge2_Node000002_Node000003"><a xlink:title=" ">
<path fill="none" stroke="#63b8ff" d="M274.32,-78.68C282.53,-79.76 291.06,-80.88 299.46,-81.98"/>
<polygon fill="#63b8ff" stroke="#63b8ff" points="299.23,-85.48 309.6,-83.31 300.14,-78.54 299.23,-85.48"/>
</a>
</g>
</g>
<!-- Node5 -->
<g id="Node000005" class="node">
<title>Node5</title>
<g id="a_Node000005"><a xlink:href="group__Dynarr__API.html#gaf5c43e2644d185b9b01065af34ed6e29" target="_top" xlink:title=" ">
<polygon fill="white" stroke="#666666" points="646.5,-94 572.5,-94 572.5,-75 646.5,-75 646.5,-94"/>
<text text-anchor="middle" x="609.5" y="-82" font-family="Mononoki" font-size="10.00">dynarr_size</text>
</a>
</g>
</g>
<!-- Node2&#45;&gt;Node5 -->
<g id="edge7_Node000002_Node000005" class="edge">
<title>Node2&#45;&gt;Node5</title>
<g id="a_edge7_Node000002_Node000005"><a xlink:title=" ">
<path fill="none" stroke="#63b8ff" d="M274.22,-66.87C335.67,-62.57 438.29,-58.14 526,-67.5 537.81,-68.76 550.43,-70.93 562.15,-73.31"/>
<polygon fill="#63b8ff" stroke="#63b8ff" points="561.68,-76.79 572.19,-75.44 563.13,-69.94 561.68,-76.79"/>
</a>
</g>
</g>
<!-- Node3&#45;&gt;Node3 -->
<g id="edge3_Node000003_Node000003" class="edge">
<title>Node3&#45;&gt;Node3</title>
<g id="a_edge3_Node000003_Node000003"><a xlink:title=" ">
<path fill="none" stroke="#63b8ff" d="M343.35,-105.78C338.43,-114.91 345.81,-123.5 365.5,-123.5 377.19,-123.5 384.54,-120.47 387.55,-116.1"/>
<polygon fill="#63b8ff" stroke="#63b8ff" points="391.06,-115.81 387.65,-105.78 384.06,-115.74 391.06,-115.81"/>
</a>
</g>
</g>
<!-- Node4 -->
<g id="Node000004" class="node">
<title>Node4</title>
<g id="a_Node000004"><a xlink:href="group__Dynarr__API.html#ga93c32dd116523090126d427cce08e114" target="_top" xlink:title=" ">
<polygon fill="white" stroke="#666666" points="526,-95 457,-95 457,-76 526,-76 526,-95"/>
<text text-anchor="middle" x="491.5" y="-83" font-family="Mononoki" font-size="10.00">dynarr_get</text>
</a>
</g>
</g>
<!-- Node3&#45;&gt;Node4 -->
<g id="edge4_Node000003_Node000004" class="edge">
<title>Node3&#45;&gt;Node4</title>
<g id="a_edge4_Node000003_Node000004"><a xlink:title=" ">
<path fill="none" stroke="#63b8ff" d="M421.25,-88.29C429.73,-87.95 438.4,-87.6 446.61,-87.27"/>
<polygon fill="#63b8ff" stroke="#63b8ff" points="446.85,-90.76 456.7,-86.86 446.57,-83.77 446.85,-90.76"/>
</a>
</g>
</g>
<!-- Node4&#45;&gt;Node5 -->
<g id="edge5_Node000004_Node000005" class="edge">
<title>Node4&#45;&gt;Node5</title>
<g id="a_edge5_Node000004_Node000005"><a xlink:title=" ">
<path fill="none" stroke="#63b8ff" d="M526.05,-85.21C537.23,-85.11 549.89,-85.01 561.88,-84.9"/>
<polygon fill="#63b8ff" stroke="#63b8ff" points="562.22,-88.4 572.18,-84.81 562.15,-81.4 562.22,-88.4"/>
</a>
</g>
</g>
<!-- Node6 -->
<g id="Node000006" class="node">
<title>Node6</title>
<g id="a_Node000006"><a xlink:href="dynarr_8c.html#a73f42f3f25cd0920d8039d63ea31be07" target="_top" xlink:title=" ">
<polygon fill="white" stroke="#666666" points="799,-94 693,-94 693,-75 799,-75 799,-94"/>
<text text-anchor="middle" x="746" y="-82" font-family="Mononoki" font-size="10.00">get_dynarr_header</text>
</a>
</g>
</g>
<!-- Node5&#45;&gt;Node6 -->
<g id="edge6_Node000005_Node000006" class="edge">
<title>Node5&#45;&gt;Node6</title>
<g id="a_edge6_Node000005_Node000006"><a xlink:title=" ">
<path fill="none" stroke="#63b8ff" d="M646.54,-84.5C657.67,-84.5 670.26,-84.5 682.63,-84.5"/>
<polygon fill="#63b8ff" stroke="#63b8ff" points="682.93,-88 692.93,-84.5 682.93,-81 682.93,-88"/>
</a>
</g>
</g>
<!-- Node7&#45;&gt;Node5 -->
<g id="edge10_Node000007_Node000005" class="edge">
<title>Node7&#45;&gt;Node5</title>
<g id="a_edge10_Node000007_Node000005"><a xlink:title=" ">
<path fill="none" stroke="#63b8ff" d="M506.8,-19.18C512.85,-23.41 519.89,-28.54 526,-33.5 542.85,-47.18 543.56,-55.05 562,-66.5 564.33,-67.95 566.8,-69.31 569.34,-70.6"/>
<polygon fill="#63b8ff" stroke="#63b8ff" points="568.13,-73.89 578.68,-74.86 571.04,-67.53 568.13,-73.89"/>
</a>
</g>
</g>
<!-- Node7&#45;&gt;Node6 -->
<g id="edge11_Node000007_Node000006" class="edge">
<title>Node7&#45;&gt;Node6</title>
<g id="a_edge11_Node000007_Node000006"><a xlink:title=" ">
<path fill="none" stroke="#63b8ff" d="M510.62,-8.98C541.57,-8.66 606.2,-10.48 657,-28.5 682.72,-37.62 708.66,-55.42 725.65,-68.51"/>
<polygon fill="#63b8ff" stroke="#63b8ff" points="723.65,-71.39 733.66,-74.85 727.99,-65.9 723.65,-71.39"/>
</a>
</g>
</g>
<!-- Node8 -->
<g id="Node000008" class="node">
<title>Node8</title>
<g id="a_Node000008"><a xlink:href="group__Dynarr__API.html#ga3ff11107726213a640d814b63cb123b2" target="_top" xlink:title=" ">
<polygon fill="white" stroke="#666666" points="657,-57 562,-57 562,-38 657,-38 657,-57"/>
<text text-anchor="middle" x="609.5" y="-45" font-family="Mononoki" font-size="10.00">dynarr_capacity</text>
</a>
</g>
</g>
<!-- Node7&#45;&gt;Node8 -->
<g id="edge9_Node000007_Node000008" class="edge">
<title>Node7&#45;&gt;Node8</title>
<g id="a_edge9_Node000007_Node000008"><a xlink:title=" ">
<path fill="none" stroke="#63b8ff" d="M510.62,-15.44C526.32,-20.58 549.58,-28.2 569.48,-34.72"/>
<polygon fill="#63b8ff" stroke="#63b8ff" points="568.64,-38.12 579.23,-37.91 570.81,-31.47 568.64,-38.12"/>
</a>
</g>
</g>
<!-- Node9&#45;&gt;Node4 -->
<g id="edge13_Node000009_Node000004" class="edge">
<title>Node9&#45;&gt;Node4</title>
<g id="a_edge13_Node000009_Node000004"><a xlink:title=" ">
<path fill="none" stroke="#63b8ff" d="M398.49,-141.9C406.03,-139.22 413.92,-136.05 421,-132.5 430.56,-127.71 452.01,-112.95 468.57,-101.24"/>
<polygon fill="#63b8ff" stroke="#63b8ff" points="471.04,-103.78 477.16,-95.13 466.98,-98.07 471.04,-103.78"/>
</a>
</g>
</g>
<!-- Node9&#45;&gt;Node5 -->
<g id="edge14_Node000009_Node000005" class="edge">
<title>Node9&#45;&gt;Node5</title>
<g id="a_edge14_Node000009_Node000005"><a xlink:title=" ">
<path fill="none" stroke="#63b8ff" d="M400.92,-141.97C443.71,-130.12 516.84,-109.88 563.9,-96.85"/>
<polygon fill="#63b8ff" stroke="#63b8ff" points="565.11,-100.15 573.81,-94.1 563.24,-93.4 565.11,-100.15"/>
</a>
</g>
</g>
<!-- Node9&#45;&gt;Node6 -->
<g id="edge15_Node000009_Node000006" class="edge">
<title>Node9&#45;&gt;Node6</title>
<g id="a_edge15_Node000009_Node000006"><a xlink:title=" ">
<path fill="none" stroke="#63b8ff" d="M408.27,-146.84C440.52,-143.04 486.2,-137.21 526,-130.5 584.62,-120.61 598.83,-115.77 657,-103.5 668.12,-101.15 680.02,-98.61 691.36,-96.16"/>
<polygon fill="#63b8ff" stroke="#63b8ff" points="692.11,-99.58 701.15,-94.05 690.64,-92.74 692.11,-99.58"/>
</a>
</g>
</g>
</g>
</svg>

<g id="navigator" transform="translate(0 0)" fill="#404254">
  <rect fill="#f2f5e9" fill-opacity="0.5" stroke="#606060" stroke-width=".5" x="0" y="0" width="60" height="60"/>
  <use id="zoomplus" xlink:href="#zoomPlus" x="17" y="9" onmousedown="handleZoom(evt,'in')"/>
  <use id="zoomminus" xlink:href="#zoomMin" x="42" y="9" onmousedown="handleZoom(evt,'out')"/>
  <use id="reset" xlink:href="#resetDef" x="30" y="36" onmousedown="handleReset()"/>
   <use id="arrowup" xlink:href="#arrowUp" x="0" y="0" onmousedown="handlePan(0,-1)"/>
  <use id="arrowright" xlink:href="#arrowRight" x="0" y="0" onmousedown="handlePan(1,0)"/>
  <use id="arrowdown" xlink:href="#arrowDown" x="0" y="0" onmousedown="handlePan(0,1)"/>
  <use id="arrowleft" xlink:href="#arrowLeft" x="0" y="0" onmousedown="handlePan(-1,0)"/>
</g>
<svg viewBox="0 0 15 15" width="100%" height="30px" preserveAspectRatio="xMaxYMin meet">
 <g id="arrow_out" transform="scale(0.3 0.3)">
  <a xlink:href="group__Dynarr__API_ga20112ff4b2f14ef520353b23c10761de_cgraph_org.svg" target="_base">
   <rect id="button" ry="5" rx="5" y="6" x="6" height="38" width="38"
        fill="#f2f5e9" fill-opacity="0.5" stroke="#606060" stroke-width="1.0"/>
   <path id="arrow"
     d="M 11.500037,31.436501 C 11.940474,20.09759 22.043105,11.32322 32.158766,21.979434 L 37.068811,17.246167 C 37.068811,17.246167 37.088388,32 37.088388,32 L 22.160133,31.978069 C 22.160133,31.978069 26.997745,27.140456 26.997745,27.140456 C 18.528582,18.264221 13.291696,25.230495 11.500037,31.436501 z"
     style="fill:#404040;"/>
  </a>
 </g>
</svg>

<style type='text/css'>
<![CDATA[
[data-mouse-over-selected='false'] { opacity: 0.7; }
[data-mouse-over-selected='true']  { opacity: 1.0; }
]]>
</style>
<script type="application/ecmascript"><![CDATA[
document.addEventListener('DOMContentLoaded', (event) => {
  highlightEdges();
  highlightAdjacentNodes();
});
]]></script>
</svg>
