<?xml version="1.0" encoding="UTF-8" standalone="no"?>
<!DOCTYPE svg PUBLIC "-//W3C//DTD SVG 1.1//EN"
 "http://www.w3.org/Graphics/SVG/1.1/DTD/svg11.dtd">
<!-- Generated by graphviz version 2.43.0 (0)
 -->
<!-- Title: dynarr_binary_merge Pages: 1 -->
<!--zoomable 406 -->

<svg id="main" version="1.1" xmlns="http://www.w3.org/2000/svg" xmlns:xlink="http://www.w3.org/1999/xlink" xml:space="preserve" onload="init(evt)">
<style type="text/css"><![CDATA[
.node, .edge {opacity: 0.7;}
.node.selected, .edge.selected {opacity: 1;}
.edge:hover path { stroke: red; }
.edge:hover polygon { stroke: red; fill: red; }
]]></style>

<defs>
  <circle id="rim" cx="0" cy="0" r="7"/>
  <circle id="rim2" cx="0" cy="0" r="3.5"/>
  <g id="zoomPlus">
    <use xlink:href="#rim" fill="#404040"><set attributeName="fill" to="#808080" begin="zoomplus.mouseover" end="zoomplus.mouseout"/></use>
    <path d="M-4,0h8M0,-4v8" fill="none" stroke="white" stroke-width="1.5" pointer-events="none"/>
  </g>
  <g id="zoomMin">
    <use xlink:href="#rim" fill="#404040"><set attributeName="fill" to="#808080" begin="zoomminus.mouseover" end="zoomminus.mouseout"/></use>
    <path d="M-4,0h8" fill="none" stroke="white" stroke-width="1.5" pointer-events="none"/>
  </g>
  <g id="arrowUp" transform="translate(30 24)">
    <use xlink:href="#rim"/>
    <path pointer-events="none" fill="none" stroke="white" stroke-width="1.5" d="M0,-3.0v7 M-2.5,-0.5L0,-3.0L2.5,-0.5"/>
  </g>
  <g id="arrowRight" transform="rotate(90) translate(36 -43)">
    <use xlink:href="#rim"/>
    <path pointer-events="none" fill="none" stroke="white" stroke-width="1.5" d="M0,-3.0v7 M-2.5,-0.5L0,-3.0L2.5,-0.5"/>
  </g>
  <g id="arrowDown" transform="rotate(180) translate(-30 -48)">
    <use xlink:href="#rim"/>
    <path pointer-events="none" fill="none" stroke="white" stroke-width="1.5" d="M0,-3.0v7 M-2.5,-0.5L0,-3.0L2.5,-0.5"/>
  </g>
  <g id="arrowLeft" transform="rotate(270) translate(-36 17)">
    <use xlink:href="#rim"/>
    <path pointer-events="none" fill="none" stroke="white" stroke-width="1.5" d="M0,-3.0v7 M-2.5,-0.5L0,-3.0L2.5,-0.5"/>
  </g>
  <g id="resetDef">
    <use xlink:href="#rim2" fill="#404040"><set attributeName="fill" to="#808080" begin="reset.mouseover" end="reset.mouseout"/></use>
  </g>
</defs>
<script type="application/ecmascript">
var viewWidth = 875;
var viewHeight = 406;
var sectionId = 'dynsection-18';
</script>
<script type="application/ecmascript" xlink:href="svg.min.js"/>
<svg id="graph" class="graph">
<g id="viewport">
<title>dynarr_binary_merge</title>
<!-- Node1 -->
<g id="Node000001" class="node">
<title>Node1</title>
<g id="a_Node000001"><a xlink:title=" ">
<polygon fill="#999999" stroke="#666666" points="116,-247 0,-247 0,-228 116,-228 116,-247"/>
<text text-anchor="middle" x="58" y="-235" font-family="Mononoki" font-size="10.00">dynarr_binary_merge</text>
</a>
</g>
</g>
<!-- Node2 -->
<g id="Node000002" class="node">
<title>Node2</title>
<g id="a_Node000002"><a xlink:href="group__Dynarr__API.html#ga1e7f043863514d809cd6446053f6dc47" target="_top" xlink:title=" ">
<polygon fill="white" stroke="#666666" points="239.5,-190 154.5,-190 154.5,-171 239.5,-171 239.5,-190"/>
<text text-anchor="middle" x="197" y="-178" font-family="Mononoki" font-size="10.00">dynarr_append</text>
</a>
</g>
</g>
<!-- Node1&#45;&gt;Node2 -->
<g id="edge1_Node000001_Node000002" class="edge">
<title>Node1&#45;&gt;Node2</title>
<g id="a_edge1_Node000001_Node000002"><a xlink:title=" ">
<path fill="none" stroke="#63b8ff" d="M81.93,-227.96C104.26,-218.67 138.4,-204.46 163.52,-194.01"/>
<polygon fill="#63b8ff" stroke="#63b8ff" points="165.11,-197.14 172.99,-190.07 162.42,-190.68 165.11,-197.14"/>
</a>
</g>
</g>
<!-- Node5 -->
<g id="Node000005" class="node">
<title>Node5</title>
<g id="a_Node000005"><a xlink:href="group__Dynarr__API.html#gaf5c43e2644d185b9b01065af34ed6e29" target="_top" xlink:title=" ">
<polygon fill="white" stroke="#666666" points="714.5,-190 640.5,-190 640.5,-171 714.5,-171 714.5,-190"/>
<text text-anchor="middle" x="677.5" y="-178" font-family="Mononoki" font-size="10.00">dynarr_size</text>
</a>
</g>
</g>
<!-- Node1&#45;&gt;Node5 -->
<g id="edge21_Node000001_Node000005" class="edge">
<title>Node1&#45;&gt;Node5</title>
<g id="a_edge21_Node000001_Node000005"><a xlink:title=" ">
<path fill="none" stroke="#63b8ff" d="M65.42,-227.82C91.96,-189.1 197.51,-47.5 322,-47.5 322,-47.5 322,-47.5 447.5,-47.5 538.97,-47.5 626.58,-127.83 661.08,-163.63"/>
<polygon fill="#63b8ff" stroke="#63b8ff" points="658.57,-166.07 667.98,-170.93 663.66,-161.26 658.57,-166.07"/>
</a>
</g>
</g>
<!-- Node10 -->
<g id="Node000010" class="node">
<title>Node10</title>
<g id="a_Node000010"><a xlink:href="group__Dynarr__API.html#ga93c32dd116523090126d427cce08e114" target="_top" xlink:title=" ">
<polygon fill="white" stroke="#666666" points="594,-285 525,-285 525,-266 594,-266 594,-285"/>
<text text-anchor="middle" x="559.5" y="-273" font-family="Mononoki" font-size="10.00">dynarr_get</text>
</a>
</g>
</g>
<!-- Node1&#45;&gt;Node10 -->
<g id="edge20_Node000001_Node000010" class="edge">
<title>Node1&#45;&gt;Node10</title>
<g id="a_edge20_Node000001_Node000010"><a xlink:title=" ">
<path fill="none" stroke="#63b8ff" d="M116.3,-241.86C217.12,-249.53 424.09,-265.27 514.55,-272.16"/>
<polygon fill="#63b8ff" stroke="#63b8ff" points="514.5,-275.66 524.74,-272.93 515.03,-268.68 514.5,-275.66"/>
</a>
</g>
</g>
<!-- Node11 -->
<g id="Node000011" class="node">
<title>Node11</title>
<g id="a_Node000011"><a xlink:href="group__Dynarr__API.html#ga99f1163f1932f71f0229a7340df68efb" target="_top" xlink:title=" ">
<polygon fill="white" stroke="#666666" points="368,-394 278,-394 278,-375 368,-375 368,-394"/>
<text text-anchor="middle" x="323" y="-382" font-family="Mononoki" font-size="10.00">dynarr_create_</text>
</a>
</g>
</g>
<!-- Node1&#45;&gt;Node11 -->
<g id="edge17_Node000001_Node000011" class="edge">
<title>Node1&#45;&gt;Node11</title>
<g id="a_edge17_Node000001_Node000011"><a xlink:title=" ">
<path fill="none" stroke="#63b8ff" d="M67.94,-247.06C83.63,-263.37 117.72,-296.81 152,-317.5 192.47,-341.92 243.42,-360.61 278.94,-371.97"/>
<polygon fill="#63b8ff" stroke="#63b8ff" points="277.93,-375.32 288.52,-374.97 280.03,-368.64 277.93,-375.32"/>
</a>
</g>
</g>
<!-- Node12 -->
<g id="Node000012" class="node">
<title>Node12</title>
<g id="a_Node000012"><a xlink:href="group__Dynarr__API.html#gaebbaac3879771d77aa20068a26952197" target="_top" xlink:title=" ">
<polygon fill="white" stroke="#666666" points="242,-19 152,-19 152,0 242,0 242,-19"/>
<text text-anchor="middle" x="197" y="-7" font-family="Mononoki" font-size="10.00">dynarr_destroy</text>
</a>
</g>
</g>
<!-- Node1&#45;&gt;Node12 -->
<g id="edge19_Node000001_Node000012" class="edge">
<title>Node1&#45;&gt;Node12</title>
<g id="a_edge19_Node000001_Node000012"><a xlink:title=" ">
<path fill="none" stroke="#63b8ff" d="M61.11,-227.75C68.39,-196.06 95.25,-94.47 152,-33.5 155.15,-30.11 158.9,-27.1 162.85,-24.44"/>
<polygon fill="#63b8ff" stroke="#63b8ff" points="164.86,-27.32 171.68,-19.21 161.29,-21.3 164.86,-27.32"/>
</a>
</g>
</g>
<!-- Node13 -->
<g id="Node000013" class="node">
<title>Node13</title>
<g id="a_Node000013"><a xlink:href="dynarr_8c.html#a498b4e9fc56a6e87a6c5ca525026a9ed" target="_top" xlink:title=" ">
<polygon fill="white" stroke="#666666" points="352.5,-349 293.5,-349 293.5,-330 352.5,-330 352.5,-349"/>
<text text-anchor="middle" x="323" y="-337" font-family="Mononoki" font-size="10.00">get_opts</text>
</a>
</g>
</g>
<!-- Node1&#45;&gt;Node13 -->
<g id="edge22_Node000001_Node000013" class="edge">
<title>Node1&#45;&gt;Node13</title>
<g id="a_edge22_Node000001_Node000013"><a xlink:title=" ">
<path fill="none" stroke="#63b8ff" d="M73.62,-247.04C91.51,-258.38 123.01,-277.31 152,-289.5 195.75,-307.89 248.51,-322.27 283.53,-330.8"/>
<polygon fill="#63b8ff" stroke="#63b8ff" points="282.81,-334.23 293.35,-333.15 284.44,-327.42 282.81,-334.23"/>
</a>
</g>
</g>
<!-- Node3 -->
<g id="Node000003" class="node">
<title>Node3</title>
<g id="a_Node000003"><a xlink:href="group__Dynarr__API.html#gab449a79e6b33f55af35329df4363336e" target="_top" xlink:title=" ">
<polygon fill="white" stroke="#666666" points="365.5,-190 280.5,-190 280.5,-171 365.5,-171 365.5,-190"/>
<text text-anchor="middle" x="323" y="-178" font-family="Mononoki" font-size="10.00">dynarr_insert</text>
</a>
</g>
</g>
<!-- Node2&#45;&gt;Node3 -->
<g id="edge2_Node000002_Node000003" class="edge">
<title>Node2&#45;&gt;Node3</title>
<g id="a_edge2_Node000002_Node000003"><a xlink:title=" ">
<path fill="none" stroke="#63b8ff" d="M239.64,-180.5C249.45,-180.5 260.03,-180.5 270.23,-180.5"/>
<polygon fill="#63b8ff" stroke="#63b8ff" points="270.26,-184 280.26,-180.5 270.26,-177 270.26,-184"/>
</a>
</g>
</g>
<!-- Node2&#45;&gt;Node5 -->
<g id="edge16_Node000002_Node000005" class="edge">
<title>Node2&#45;&gt;Node5</title>
<g id="a_edge16_Node000002_Node000005"><a xlink:title=" ">
<path fill="none" stroke="#63b8ff" d="M224.46,-170.91C288.87,-148.99 458.44,-99.86 594,-136.5 616.01,-142.45 638.7,-155.11 654.7,-165.33"/>
<polygon fill="#63b8ff" stroke="#63b8ff" points="653.01,-168.42 663.29,-171 656.87,-162.57 653.01,-168.42"/>
</a>
</g>
</g>
<!-- Node4 -->
<g id="Node000004" class="node">
<title>Node4</title>
<g id="a_Node000004"><a xlink:href="group__Dynarr__API.html#ga30d508a9f387e2227dd0d72a8bfd2a39" target="_top" xlink:title=" ">
<polygon fill="white" stroke="#666666" points="481,-171 412,-171 412,-152 481,-152 481,-171"/>
<text text-anchor="middle" x="446.5" y="-159" font-family="Mononoki" font-size="10.00">dynarr_set</text>
</a>
</g>
</g>
<!-- Node3&#45;&gt;Node4 -->
<g id="edge3_Node000003_Node000004" class="edge">
<title>Node3&#45;&gt;Node4</title>
<g id="a_edge3_Node000003_Node000004"><a xlink:title=" ">
<path fill="none" stroke="#63b8ff" d="M365.81,-173.96C377.39,-172.15 389.98,-170.18 401.67,-168.35"/>
<polygon fill="#63b8ff" stroke="#63b8ff" points="402.31,-171.8 411.65,-166.79 401.23,-164.88 402.31,-171.8"/>
</a>
</g>
</g>
<!-- Node3&#45;&gt;Node5 -->
<g id="edge6_Node000003_Node000005" class="edge">
<title>Node3&#45;&gt;Node5</title>
<g id="a_edge6_Node000003_Node000005"><a xlink:title=" ">
<path fill="none" stroke="#63b8ff" d="M339.52,-170.84C355.13,-161.74 380.24,-148.73 404,-143.5 487.89,-125.04 588.45,-150.8 640.82,-167.74"/>
<polygon fill="#63b8ff" stroke="#63b8ff" points="639.73,-171.07 650.33,-170.9 641.94,-164.43 639.73,-171.07"/>
</a>
</g>
</g>
<!-- Node7 -->
<g id="Node000007" class="node">
<title>Node7</title>
<g id="a_Node000007"><a xlink:href="group__Auto-resize.html#ga036b69c5b674d3ac22027b04ba235b42" target="_top" xlink:title=" ">
<polygon fill="white" stroke="#666666" points="578.5,-322 540.5,-322 540.5,-303 578.5,-303 578.5,-322"/>
<text text-anchor="middle" x="559.5" y="-310" font-family="Mononoki" font-size="10.00">grow</text>
</a>
</g>
</g>
<!-- Node3&#45;&gt;Node7 -->
<g id="edge7_Node000003_Node000007" class="edge">
<title>Node3&#45;&gt;Node7</title>
<g id="a_edge7_Node000003_Node000007"><a xlink:title=" ">
<path fill="none" stroke="#63b8ff" d="M340.6,-190.09C374.91,-209.86 456.16,-256.49 525,-294.5 527.02,-295.61 529.11,-296.76 531.22,-297.91"/>
<polygon fill="#63b8ff" stroke="#63b8ff" points="529.92,-301.18 540.38,-302.86 533.25,-295.03 529.92,-301.18"/>
</a>
</g>
</g>
<!-- Node9 -->
<g id="Node000009" class="node">
<title>Node9</title>
<g id="a_Node000009"><a xlink:href="group__Auto-resize.html#gadb26f84b95f0ca45c7ccbd72e337485a" target="_top" xlink:title=" ">
<polygon fill="white" stroke="#666666" points="489,-209 404,-209 404,-190 489,-190 489,-209"/>
<text text-anchor="middle" x="446.5" y="-197" font-family="Mononoki" font-size="10.00">make_space_at</text>
</a>
</g>
</g>
<!-- Node3&#45;&gt;Node9 -->
<g id="edge11_Node000003_Node000009" class="edge">
<title>Node3&#45;&gt;Node9</title>
<g id="a_edge11_Node000003_Node000009"><a xlink:title=" ">
<path fill="none" stroke="#63b8ff" d="M365.81,-187.04C374.79,-188.44 384.37,-189.94 393.67,-191.4"/>
<polygon fill="#63b8ff" stroke="#63b8ff" points="393.19,-194.86 403.61,-192.95 394.27,-187.95 393.19,-194.86"/>
</a>
</g>
</g>
<!-- Node4&#45;&gt;Node5 -->
<g id="edge4_Node000004_Node000005" class="edge">
<title>Node4&#45;&gt;Node5</title>
<g id="a_edge4_Node000004_Node000005"><a xlink:title=" ">
<path fill="none" stroke="#63b8ff" d="M481.29,-164.3C520.68,-167.57 586,-172.99 630.12,-176.65"/>
<polygon fill="#63b8ff" stroke="#63b8ff" points="630.05,-180.16 640.3,-177.5 630.62,-173.18 630.05,-180.16"/>
</a>
</g>
</g>
<!-- Node6 -->
<g id="Node000006" class="node">
<title>Node6</title>
<g id="a_Node000006"><a xlink:href="dynarr_8c.html#a73f42f3f25cd0920d8039d63ea31be07" target="_top" xlink:title=" ">
<polygon fill="white" stroke="#666666" points="867,-285 761,-285 761,-266 867,-266 867,-285"/>
<text text-anchor="middle" x="814" y="-273" font-family="Mononoki" font-size="10.00">get_dynarr_header</text>
</a>
</g>
</g>
<!-- Node5&#45;&gt;Node6 -->
<g id="edge5_Node000005_Node000006" class="edge">
<title>Node5&#45;&gt;Node6</title>
<g id="a_edge5_Node000005_Node000006"><a xlink:title=" ">
<path fill="none" stroke="#63b8ff" d="M692.39,-190.31C715.76,-206.82 763.15,-240.29 791.07,-260.01"/>
<polygon fill="#63b8ff" stroke="#63b8ff" points="789.2,-262.98 799.39,-265.89 793.24,-257.26 789.2,-262.98"/>
</a>
</g>
</g>
<!-- Node7&#45;&gt;Node5 -->
<g id="edge9_Node000007_Node000005" class="edge">
<title>Node7&#45;&gt;Node5</title>
<g id="a_edge9_Node000007_Node000005"><a xlink:title=" ">
<path fill="none" stroke="#63b8ff" d="M578.5,-304.73C583.82,-301.95 589.43,-298.5 594,-294.5 626.16,-266.37 652.89,-223.46 666.59,-199.1"/>
<polygon fill="#63b8ff" stroke="#63b8ff" points="669.75,-200.63 671.49,-190.18 663.61,-197.26 669.75,-200.63"/>
</a>
</g>
</g>
<!-- Node7&#45;&gt;Node6 -->
<g id="edge10_Node000007_Node000006" class="edge">
<title>Node7&#45;&gt;Node6</title>
<g id="a_edge10_Node000007_Node000006"><a xlink:title=" ">
<path fill="none" stroke="#63b8ff" d="M578.65,-307.37C592.6,-303.59 612.38,-298.6 630,-295.5 669.82,-288.49 714.98,-283.52 750.47,-280.29"/>
<polygon fill="#63b8ff" stroke="#63b8ff" points="751.03,-283.75 760.68,-279.38 750.41,-276.78 751.03,-283.75"/>
</a>
</g>
</g>
<!-- Node8 -->
<g id="Node000008" class="node">
<title>Node8</title>
<g id="a_Node000008"><a xlink:href="group__Dynarr__API.html#ga3ff11107726213a640d814b63cb123b2" target="_top" xlink:title=" ">
<polygon fill="white" stroke="#666666" points="725,-323 630,-323 630,-304 725,-304 725,-323"/>
<text text-anchor="middle" x="677.5" y="-311" font-family="Mononoki" font-size="10.00">dynarr_capacity</text>
</a>
</g>
</g>
<!-- Node7&#45;&gt;Node8 -->
<g id="edge8_Node000007_Node000008" class="edge">
<title>Node7&#45;&gt;Node8</title>
<g id="a_edge8_Node000007_Node000008"><a xlink:title=" ">
<path fill="none" stroke="#63b8ff" d="M578.62,-312.66C589.81,-312.75 604.82,-312.88 619.73,-313.01"/>
<polygon fill="#63b8ff" stroke="#63b8ff" points="619.96,-316.51 629.99,-313.1 620.02,-309.51 619.96,-316.51"/>
</a>
</g>
</g>
<!-- Node9&#45;&gt;Node5 -->
<g id="edge14_Node000009_Node000005" class="edge">
<title>Node9&#45;&gt;Node5</title>
<g id="a_edge14_Node000009_Node000005"><a xlink:title=" ">
<path fill="none" stroke="#63b8ff" d="M489.24,-196.04C529.08,-192.73 588.99,-187.76 630.26,-184.34"/>
<polygon fill="#63b8ff" stroke="#63b8ff" points="630.65,-187.82 640.33,-183.5 630.07,-180.84 630.65,-187.82"/>
</a>
</g>
</g>
<!-- Node9&#45;&gt;Node6 -->
<g id="edge15_Node000009_Node000006" class="edge">
<title>Node9&#45;&gt;Node6</title>
<g id="a_edge15_Node000009_Node000006"><a xlink:title=" ">
<path fill="none" stroke="#63b8ff" d="M489.07,-208.14C554.92,-221.84 683.3,-248.53 757.13,-263.88"/>
<polygon fill="#63b8ff" stroke="#63b8ff" points="756.67,-267.36 767.17,-265.97 758.1,-260.51 756.67,-267.36"/>
</a>
</g>
</g>
<!-- Node9&#45;&gt;Node10 -->
<g id="edge12_Node000009_Node000010" class="edge">
<title>Node9&#45;&gt;Node10</title>
<g id="a_edge12_Node000009_Node000010"><a xlink:title=" ">
<path fill="none" stroke="#63b8ff" d="M465.19,-209.02C472.68,-213.24 481.41,-218.39 489,-223.5 505.81,-234.82 508.76,-239.37 525,-251.5 528.71,-254.27 532.69,-257.18 536.56,-259.97"/>
<polygon fill="#63b8ff" stroke="#63b8ff" points="534.55,-262.84 544.72,-265.81 538.63,-257.14 534.55,-262.84"/>
</a>
</g>
</g>
<!-- Node10&#45;&gt;Node5 -->
<g id="edge13_Node000010_Node000005" class="edge">
<title>Node10&#45;&gt;Node5</title>
<g id="a_edge13_Node000010_Node000005"><a xlink:title=" ">
<path fill="none" stroke="#63b8ff" d="M572.48,-265.69C592.46,-249.32 632.8,-216.29 656.95,-196.51"/>
<polygon fill="#63b8ff" stroke="#63b8ff" points="659.24,-199.16 664.76,-190.11 654.81,-193.74 659.24,-199.16"/>
</a>
</g>
</g>
<!-- Node11&#45;&gt;Node6 -->
<g id="edge18_Node000011_Node000006" class="edge">
<title>Node11&#45;&gt;Node6</title>
<g id="a_edge18_Node000011_Node000006"><a xlink:title=" ">
<path fill="none" stroke="#63b8ff" d="M368.21,-390.79C444.72,-399.68 605.14,-409.34 725,-355.5 756.2,-341.49 783.86,-312.12 799.51,-293.13"/>
<polygon fill="#63b8ff" stroke="#63b8ff" points="802.31,-295.23 805.82,-285.23 796.84,-290.86 802.31,-295.23"/>
</a>
</g>
</g>
<!-- Node13&#45;&gt;Node6 -->
<g id="edge23_Node000013_Node000006" class="edge">
<title>Node13&#45;&gt;Node6</title>
<g id="a_edge23_Node000013_Node000006"><a xlink:title=" ">
<path fill="none" stroke="#63b8ff" d="M352.54,-344.25C419.43,-354.27 590.8,-373.44 725,-332.5 751.69,-324.36 777.96,-305.53 794.76,-291.73"/>
<polygon fill="#63b8ff" stroke="#63b8ff" points="797.26,-294.2 802.62,-285.06 792.73,-288.86 797.26,-294.2"/>
</a>
</g>
</g>
</g>
</svg>

<g id="navigator" transform="translate(0 0)" fill="#404254">
  <rect fill="#f2f5e9" fill-opacity="0.5" stroke="#606060" stroke-width=".5" x="0" y="0" width="60" height="60"/>
  <use id="zoomplus" xlink:href="#zoomPlus" x="17" y="9" onmousedown="handleZoom(evt,'in')"/>
  <use id="zoomminus" xlink:href="#zoomMin" x="42" y="9" onmousedown="handleZoom(evt,'out')"/>
  <use id="reset" xlink:href="#resetDef" x="30" y="36" onmousedown="handleReset()"/>
   <use id="arrowup" xlink:href="#arrowUp" x="0" y="0" onmousedown="handlePan(0,-1)"/>
  <use id="arrowright" xlink:href="#arrowRight" x="0" y="0" onmousedown="handlePan(1,0)"/>
  <use id="arrowdown" xlink:href="#arrowDown" x="0" y="0" onmousedown="handlePan(0,1)"/>
  <use id="arrowleft" xlink:href="#arrowLeft" x="0" y="0" onmousedown="handlePan(-1,0)"/>
</g>
<svg viewBox="0 0 15 15" width="100%" height="30px" preserveAspectRatio="xMaxYMin meet">
 <g id="arrow_out" transform="scale(0.3 0.3)">
  <a xlink:href="group__Dynarr__API_ga0bfdd0d8fbe0ca29ef26df50dc94f310_cgraph_org.svg" target="_base">
   <rect id="button" ry="5" rx="5" y="6" x="6" height="38" width="38"
        fill="#f2f5e9" fill-opacity="0.5" stroke="#606060" stroke-width="1.0"/>
   <path id="arrow"
     d="M 11.500037,31.436501 C 11.940474,20.09759 22.043105,11.32322 32.158766,21.979434 L 37.068811,17.246167 C 37.068811,17.246167 37.088388,32 37.088388,32 L 22.160133,31.978069 C 22.160133,31.978069 26.997745,27.140456 26.997745,27.140456 C 18.528582,18.264221 13.291696,25.230495 11.500037,31.436501 z"
     style="fill:#404040;"/>
  </a>
 </g>
</svg>

<style type='text/css'>
<![CDATA[
[data-mouse-over-selected='false'] { opacity: 0.7; }
[data-mouse-over-selected='true']  { opacity: 1.0; }
]]>
</style>
<script type="application/ecmascript"><![CDATA[
document.addEventListener('DOMContentLoaded', (event) => {
  highlightEdges();
  highlightAdjacentNodes();
});
]]></script>
</svg>
