<?xml version="1.0" encoding="UTF-8" standalone="no"?>
<!DOCTYPE svg PUBLIC "-//W3C//DTD SVG 1.1//EN"
 "http://www.w3.org/Graphics/SVG/1.1/DTD/svg11.dtd">
<!-- Generated by graphviz version 2.43.0 (0)
 -->
<!-- Title: dynarr_remove_if Pages: 1 -->
<svg width="860pt" height="291pt"
 viewBox="0.00 0.00 860.00 291.00" xmlns="http://www.w3.org/2000/svg" xmlns:xlink="http://www.w3.org/1999/xlink">
<g id="graph0" class="graph" transform="scale(1 1) rotate(0) translate(4 287)">
<title>dynarr_remove_if</title>
<!-- Node1 -->
<g id="Node000001" class="node">
<title>Node1</title>
<g id="a_Node000001"><a xlink:title=" ">
<polygon fill="#999999" stroke="#666666" points="101,-169 0,-169 0,-150 101,-150 101,-169"/>
<text text-anchor="middle" x="50.5" y="-157" font-family="Mononoki" font-size="10.00">dynarr_remove_if</text>
</a>
</g>
</g>
<!-- Node2 -->
<g id="Node000002" class="node">
<title>Node2</title>
<g id="a_Node000002"><a xlink:href="group__Dynarr__API.html#ga93c32dd116523090126d427cce08e114" target="_top" xlink:title=" ">
<polygon fill="white" stroke="#666666" points="350.5,-283 281.5,-283 281.5,-264 350.5,-264 350.5,-283"/>
<text text-anchor="middle" x="316" y="-271" font-family="Mononoki" font-size="10.00">dynarr_get</text>
</a>
</g>
</g>
<!-- Node1&#45;&gt;Node2 -->
<g id="edge1_Node000001_Node000002" class="edge">
<title>Node1&#45;&gt;Node2</title>
<g id="a_edge1_Node000001_Node000002"><a xlink:title=" ">
<path fill="none" stroke="#63b8ff" d="M63.59,-169.15C79.59,-181.54 109.03,-203.03 137,-216.5 180.96,-237.68 234.68,-253.64 271.54,-263.21"/>
<polygon fill="#63b8ff" stroke="#63b8ff" points="270.91,-266.66 281.47,-265.74 272.64,-259.88 270.91,-266.66"/>
</a>
</g>
</g>
<!-- Node3 -->
<g id="Node000003" class="node">
<title>Node3</title>
<g id="a_Node000003"><a xlink:href="group__Dynarr__API.html#gaf5c43e2644d185b9b01065af34ed6e29" target="_top" xlink:title=" ">
<polygon fill="white" stroke="#666666" points="515.5,-169 441.5,-169 441.5,-150 515.5,-150 515.5,-169"/>
<text text-anchor="middle" x="478.5" y="-157" font-family="Mononoki" font-size="10.00">dynarr_size</text>
</a>
</g>
</g>
<!-- Node1&#45;&gt;Node3 -->
<g id="edge6_Node000001_Node000003" class="edge">
<title>Node1&#45;&gt;Node3</title>
<g id="a_edge6_Node000001_Node000003"><a xlink:title=" ">
<path fill="none" stroke="#63b8ff" d="M101.2,-159.5C184.28,-159.5 350.18,-159.5 431.04,-159.5"/>
<polygon fill="#63b8ff" stroke="#63b8ff" points="431.4,-163 441.4,-159.5 431.4,-156 431.4,-163"/>
</a>
</g>
</g>
<!-- Node7 -->
<g id="Node000007" class="node">
<title>Node7</title>
<g id="a_Node000007"><a xlink:href="group__Auto-resize.html#ga9ff20c2ac9693f6d8f0ea97f9b46539c" target="_top" xlink:title=" ">
<polygon fill="white" stroke="#666666" points="222,-207 137,-207 137,-188 222,-188 222,-207"/>
<text text-anchor="middle" x="179.5" y="-195" font-family="Mononoki" font-size="10.00">free_space_at</text>
</a>
</g>
</g>
<!-- Node1&#45;&gt;Node7 -->
<g id="edge7_Node000001_Node000007" class="edge">
<title>Node1&#45;&gt;Node7</title>
<g id="a_edge7_Node000001_Node000007"><a xlink:title=" ">
<path fill="none" stroke="#63b8ff" d="M83.55,-169.09C99.64,-173.9 119.34,-179.8 136.62,-184.97"/>
<polygon fill="#63b8ff" stroke="#63b8ff" points="135.88,-188.4 146.46,-187.91 137.89,-181.69 135.88,-188.4"/>
</a>
</g>
</g>
<!-- Node9 -->
<g id="Node000009" class="node">
<title>Node9</title>
<g id="a_Node000009"><a xlink:href="group__Auto-resize.html#ga8eb6c0a577084ccd7a64bec67b8bdbbe" target="_top" xlink:title=" ">
<polygon fill="white" stroke="#666666" points="340,-93 292,-93 292,-74 340,-74 340,-93"/>
<text text-anchor="middle" x="316" y="-81" font-family="Mononoki" font-size="10.00">shrink</text>
</a>
</g>
</g>
<!-- Node1&#45;&gt;Node9 -->
<g id="edge12_Node000001_Node000009" class="edge">
<title>Node1&#45;&gt;Node9</title>
<g id="a_edge12_Node000001_Node000009"><a xlink:title=" ">
<path fill="none" stroke="#63b8ff" d="M63.7,-149.81C79.58,-137.75 108.67,-117.53 137,-107.5 185.42,-90.36 245.24,-85.34 281.73,-83.94"/>
<polygon fill="#63b8ff" stroke="#63b8ff" points="281.93,-87.44 291.82,-83.62 281.71,-80.44 281.93,-87.44"/>
</a>
</g>
</g>
<!-- Node2&#45;&gt;Node3 -->
<g id="edge2_Node000002_Node000003" class="edge">
<title>Node2&#45;&gt;Node3</title>
<g id="a_edge2_Node000002_Node000003"><a xlink:title=" ">
<path fill="none" stroke="#63b8ff" d="M330.41,-263.98C358.07,-244.33 421.71,-199.13 455.49,-175.13"/>
<polygon fill="#63b8ff" stroke="#63b8ff" points="457.66,-177.88 463.79,-169.24 453.61,-172.18 457.66,-177.88"/>
</a>
</g>
</g>
<!-- Node6 -->
<g id="Node000006" class="node">
<title>Node6</title>
<g id="a_Node000006"><a target="_parent" xlink:href="https://evjeesm.github.io/vector/group__Vector__API.html#ga9437d9506a3b2799f595c88b82f160b3" xlink:title=" ">
<polygon fill="white" stroke="#666666" points="513,-283 444,-283 444,-264 513,-264 513,-283"/>
<text text-anchor="middle" x="478.5" y="-271" font-family="Mononoki" font-size="10.00">vector_get</text>
</a>
</g>
</g>
<!-- Node2&#45;&gt;Node6 -->
<g id="edge5_Node000002_Node000006" class="edge">
<title>Node2&#45;&gt;Node6</title>
<g id="a_edge5_Node000002_Node000006"><a xlink:title=" ">
<path fill="none" stroke="#63b8ff" d="M350.65,-273.5C374.83,-273.5 407.65,-273.5 433.85,-273.5"/>
<polygon fill="#63b8ff" stroke="#63b8ff" points="433.9,-277 443.9,-273.5 433.9,-270 433.9,-277"/>
</a>
</g>
</g>
<!-- Node4 -->
<g id="Node000004" class="node">
<title>Node4</title>
<g id="a_Node000004"><a xlink:href="dynarr_8c.html#a73f42f3f25cd0920d8039d63ea31be07" target="_top" xlink:title=" ">
<polygon fill="white" stroke="#666666" points="689,-169 583,-169 583,-150 689,-150 689,-169"/>
<text text-anchor="middle" x="636" y="-157" font-family="Mononoki" font-size="10.00">get_dynarr_header</text>
</a>
</g>
</g>
<!-- Node3&#45;&gt;Node4 -->
<g id="edge3_Node000003_Node000004" class="edge">
<title>Node3&#45;&gt;Node4</title>
<g id="a_edge3_Node000003_Node000004"><a xlink:title=" ">
<path fill="none" stroke="#63b8ff" d="M515.57,-159.5C532.6,-159.5 553.43,-159.5 572.9,-159.5"/>
<polygon fill="#63b8ff" stroke="#63b8ff" points="572.92,-163 582.92,-159.5 572.92,-156 572.92,-163"/>
</a>
</g>
</g>
<!-- Node5 -->
<g id="Node000005" class="node">
<title>Node5</title>
<g id="a_Node000005"><a target="_parent" xlink:href="https://evjeesm.github.io/vector/group__Vector__API.html#gafc2e34dbacffe6480af8681fbf46e808" xlink:title=" ">
<polygon fill="white" stroke="#666666" points="852,-169 725,-169 725,-150 852,-150 852,-169"/>
<text text-anchor="middle" x="788.5" y="-157" font-family="Mononoki" font-size="10.00">vector_get_ext_header</text>
</a>
</g>
</g>
<!-- Node4&#45;&gt;Node5 -->
<g id="edge4_Node000004_Node000005" class="edge">
<title>Node4&#45;&gt;Node5</title>
<g id="a_edge4_Node000004_Node000005"><a xlink:title=" ">
<path fill="none" stroke="#63b8ff" d="M689.22,-159.5C697.45,-159.5 706.1,-159.5 714.7,-159.5"/>
<polygon fill="#63b8ff" stroke="#63b8ff" points="714.75,-163 724.75,-159.5 714.75,-156 714.75,-163"/>
</a>
</g>
</g>
<!-- Node7&#45;&gt;Node2 -->
<g id="edge8_Node000007_Node000002" class="edge">
<title>Node7&#45;&gt;Node2</title>
<g id="a_edge8_Node000007_Node000002"><a xlink:title=" ">
<path fill="none" stroke="#63b8ff" d="M193.18,-207.13C208.15,-218.22 234.04,-236.58 258,-249.5 264.82,-253.18 272.33,-256.69 279.59,-259.84"/>
<polygon fill="#63b8ff" stroke="#63b8ff" points="278.68,-263.25 289.26,-263.89 281.38,-256.8 278.68,-263.25"/>
</a>
</g>
</g>
<!-- Node7&#45;&gt;Node3 -->
<g id="edge9_Node000007_Node000003" class="edge">
<title>Node7&#45;&gt;Node3</title>
<g id="a_edge9_Node000007_Node000003"><a xlink:title=" ">
<path fill="none" stroke="#63b8ff" d="M216.96,-187.94C229.85,-184.86 244.5,-181.67 258,-179.5 317.28,-169.96 386.36,-164.6 430.95,-161.88"/>
<polygon fill="#63b8ff" stroke="#63b8ff" points="431.41,-165.36 441.19,-161.28 431,-158.37 431.41,-165.36"/>
</a>
</g>
</g>
<!-- Node7&#45;&gt;Node4 -->
<g id="edge10_Node000007_Node000004" class="edge">
<title>Node7&#45;&gt;Node4</title>
<g id="a_edge10_Node000007_Node000004"><a xlink:title=" ">
<path fill="none" stroke="#63b8ff" d="M211.86,-207.01C225.84,-210.77 242.6,-214.64 258,-216.5 382.39,-231.53 528.94,-193.17 596.88,-172.16"/>
<polygon fill="#63b8ff" stroke="#63b8ff" points="598.21,-175.41 606.7,-169.07 596.11,-168.73 598.21,-175.41"/>
</a>
</g>
</g>
<!-- Node8 -->
<g id="Node000008" class="node">
<title>Node8</title>
<g id="a_Node000008"><a target="_parent" xlink:href="https://evjeesm.github.io/vector/group__Vector__API.html#gaae93d7f0c056c1d11d3232a7a7aa5e09" xlink:title=" ">
<polygon fill="white" stroke="#666666" points="374,-207 258,-207 258,-188 374,-188 374,-207"/>
<text text-anchor="middle" x="316" y="-195" font-family="Mononoki" font-size="10.00">vector_element_size</text>
</a>
</g>
</g>
<!-- Node7&#45;&gt;Node8 -->
<g id="edge11_Node000007_Node000008" class="edge">
<title>Node7&#45;&gt;Node8</title>
<g id="a_edge11_Node000007_Node000008"><a xlink:title=" ">
<path fill="none" stroke="#63b8ff" d="M222.32,-197.5C230.41,-197.5 239.08,-197.5 247.75,-197.5"/>
<polygon fill="#63b8ff" stroke="#63b8ff" points="247.89,-201 257.89,-197.5 247.89,-194 247.89,-201"/>
</a>
</g>
</g>
<!-- Node9&#45;&gt;Node3 -->
<g id="edge15_Node000009_Node000003" class="edge">
<title>Node9&#45;&gt;Node3</title>
<g id="a_edge15_Node000009_Node000003"><a xlink:title=" ">
<path fill="none" stroke="#63b8ff" d="M340.13,-91.64C350.76,-95.78 363.34,-101.26 374,-107.5 391.49,-117.74 392.22,-125.76 410,-135.5 417.6,-139.67 426.07,-143.34 434.37,-146.49"/>
<polygon fill="#63b8ff" stroke="#63b8ff" points="433.38,-149.85 443.97,-149.94 435.74,-143.26 433.38,-149.85"/>
</a>
</g>
</g>
<!-- Node9&#45;&gt;Node4 -->
<g id="edge16_Node000009_Node000004" class="edge">
<title>Node9&#45;&gt;Node4</title>
<g id="a_edge16_Node000009_Node000004"><a xlink:title=" ">
<path fill="none" stroke="#63b8ff" d="M340.13,-89.03C391.35,-101.27 515.33,-130.9 585.12,-147.58"/>
<polygon fill="#63b8ff" stroke="#63b8ff" points="584.47,-151.02 595.01,-149.94 586.1,-144.21 584.47,-151.02"/>
</a>
</g>
</g>
<!-- Node10 -->
<g id="Node000010" class="node">
<title>Node10</title>
<g id="a_Node000010"><a xlink:href="group__Dynarr__API.html#ga3ff11107726213a640d814b63cb123b2" target="_top" xlink:title=" ">
<polygon fill="white" stroke="#666666" points="526,-19 431,-19 431,0 526,0 526,-19"/>
<text text-anchor="middle" x="478.5" y="-7" font-family="Mononoki" font-size="10.00">dynarr_capacity</text>
</a>
</g>
</g>
<!-- Node9&#45;&gt;Node10 -->
<g id="edge13_Node000009_Node000010" class="edge">
<title>Node9&#45;&gt;Node10</title>
<g id="a_edge13_Node000009_Node000010"><a xlink:title=" ">
<path fill="none" stroke="#63b8ff" d="M330.22,-73.89C347.7,-61.58 379.81,-40.31 410,-27.5 414.69,-25.51 419.67,-23.68 424.7,-22.03"/>
<polygon fill="#63b8ff" stroke="#63b8ff" points="425.87,-25.33 434.4,-19.05 423.81,-18.64 425.87,-25.33"/>
</a>
</g>
</g>
<!-- Node12 -->
<g id="Node000012" class="node">
<title>Node12</title>
<g id="a_Node000012"><a target="_parent" xlink:href="https://evjeesm.github.io/vector/group__Vector__API.html#ga8920a1d7d9d5db65a90e0e27b112ed2e" xlink:title=" ">
<polygon fill="white" stroke="#666666" points="547,-93 410,-93 410,-74 547,-74 547,-93"/>
<text text-anchor="middle" x="478.5" y="-81" font-family="Mononoki" font-size="10.00">vector_initial_capacity</text>
</a>
</g>
</g>
<!-- Node9&#45;&gt;Node12 -->
<g id="edge17_Node000009_Node000012" class="edge">
<title>Node9&#45;&gt;Node12</title>
<g id="a_edge17_Node000009_Node000012"><a xlink:title=" ">
<path fill="none" stroke="#63b8ff" d="M340.34,-83.5C356.1,-83.5 377.9,-83.5 399.48,-83.5"/>
<polygon fill="#63b8ff" stroke="#63b8ff" points="399.69,-87 409.69,-83.5 399.69,-80 399.69,-87"/>
</a>
</g>
</g>
<!-- Node13 -->
<g id="Node000013" class="node">
<title>Node13</title>
<g id="a_Node000013"><a target="_parent" xlink:href="https://evjeesm.github.io/vector/group__Vector__API.html#ga6e5077303af4dfe720af5a0608553922" xlink:title=" ">
<polygon fill="white" stroke="#666666" points="521,-56 436,-56 436,-37 521,-37 521,-56"/>
<text text-anchor="middle" x="478.5" y="-44" font-family="Mononoki" font-size="10.00">vector_resize</text>
</a>
</g>
</g>
<!-- Node9&#45;&gt;Node13 -->
<g id="edge18_Node000009_Node000013" class="edge">
<title>Node9&#45;&gt;Node13</title>
<g id="a_edge18_Node000009_Node000013"><a xlink:title=" ">
<path fill="none" stroke="#63b8ff" d="M340.34,-78.12C362.74,-72.96 397.32,-64.98 426.16,-58.34"/>
<polygon fill="#63b8ff" stroke="#63b8ff" points="427.13,-61.7 436.09,-56.05 425.56,-54.88 427.13,-61.7"/>
</a>
</g>
</g>
<!-- Node11 -->
<g id="Node000011" class="node">
<title>Node11</title>
<g id="a_Node000011"><a target="_parent" xlink:href="https://evjeesm.github.io/vector/group__Vector__API.html#gab24bd801f91d4ae1ac79b54430b0409f" xlink:title=" ">
<polygon fill="white" stroke="#666666" points="683.5,-19 588.5,-19 588.5,0 683.5,0 683.5,-19"/>
<text text-anchor="middle" x="636" y="-7" font-family="Mononoki" font-size="10.00">vector_capacity</text>
</a>
</g>
</g>
<!-- Node10&#45;&gt;Node11 -->
<g id="edge14_Node000010_Node000011" class="edge">
<title>Node10&#45;&gt;Node11</title>
<g id="a_edge14_Node000010_Node000011"><a xlink:title=" ">
<path fill="none" stroke="#63b8ff" d="M526.16,-9.5C542.45,-9.5 560.93,-9.5 577.98,-9.5"/>
<polygon fill="#63b8ff" stroke="#63b8ff" points="578.38,-13 588.38,-9.5 578.38,-6 578.38,-13"/>
</a>
</g>
</g>
</g>
</svg>
