<?xml version="1.0" encoding="UTF-8" standalone="no"?>
<!DOCTYPE svg PUBLIC "-//W3C//DTD SVG 1.1//EN"
 "http://www.w3.org/Graphics/SVG/1.1/DTD/svg11.dtd">
<!-- Generated by graphviz version 2.43.0 (0)
 -->
<!-- Title: dynarr_spread_insert Pages: 1 -->
<!--zoomable 329 -->

<svg id="main" version="1.1" xmlns="http://www.w3.org/2000/svg" xmlns:xlink="http://www.w3.org/1999/xlink" xml:space="preserve" onload="init(evt)">
<style type="text/css"><![CDATA[
.node, .edge {opacity: 0.7;}
.node.selected, .edge.selected {opacity: 1;}
.edge:hover path { stroke: red; }
.edge:hover polygon { stroke: red; fill: red; }
]]></style>

<defs>
  <circle id="rim" cx="0" cy="0" r="7"/>
  <circle id="rim2" cx="0" cy="0" r="3.5"/>
  <g id="zoomPlus">
    <use xlink:href="#rim" fill="#404040"><set attributeName="fill" to="#808080" begin="zoomplus.mouseover" end="zoomplus.mouseout"/></use>
    <path d="M-4,0h8M0,-4v8" fill="none" stroke="white" stroke-width="1.5" pointer-events="none"/>
  </g>
  <g id="zoomMin">
    <use xlink:href="#rim" fill="#404040"><set attributeName="fill" to="#808080" begin="zoomminus.mouseover" end="zoomminus.mouseout"/></use>
    <path d="M-4,0h8" fill="none" stroke="white" stroke-width="1.5" pointer-events="none"/>
  </g>
  <g id="arrowUp" transform="translate(30 24)">
    <use xlink:href="#rim"/>
    <path pointer-events="none" fill="none" stroke="white" stroke-width="1.5" d="M0,-3.0v7 M-2.5,-0.5L0,-3.0L2.5,-0.5"/>
  </g>
  <g id="arrowRight" transform="rotate(90) translate(36 -43)">
    <use xlink:href="#rim"/>
    <path pointer-events="none" fill="none" stroke="white" stroke-width="1.5" d="M0,-3.0v7 M-2.5,-0.5L0,-3.0L2.5,-0.5"/>
  </g>
  <g id="arrowDown" transform="rotate(180) translate(-30 -48)">
    <use xlink:href="#rim"/>
    <path pointer-events="none" fill="none" stroke="white" stroke-width="1.5" d="M0,-3.0v7 M-2.5,-0.5L0,-3.0L2.5,-0.5"/>
  </g>
  <g id="arrowLeft" transform="rotate(270) translate(-36 17)">
    <use xlink:href="#rim"/>
    <path pointer-events="none" fill="none" stroke="white" stroke-width="1.5" d="M0,-3.0v7 M-2.5,-0.5L0,-3.0L2.5,-0.5"/>
  </g>
  <g id="resetDef">
    <use xlink:href="#rim2" fill="#404040"><set attributeName="fill" to="#808080" begin="reset.mouseover" end="reset.mouseout"/></use>
  </g>
</defs>
<script type="application/ecmascript">
var viewWidth = 839;
var viewHeight = 329;
var sectionId = 'dynsection-23';
</script>
<script type="application/ecmascript" xlink:href="svg.min.js"/>
<svg id="graph" class="graph">
<g id="viewport">
<title>dynarr_spread_insert</title>
<!-- Node1 -->
<g id="Node000001" class="node">
<title>Node1</title>
<g id="a_Node000001"><a xlink:title=" ">
<polygon fill="#999999" stroke="#666666" points="122,-180.68 0,-180.68 0,-161.68 122,-161.68 122,-180.68"/>
<text text-anchor="middle" x="61" y="-168.68" font-family="Mononoki" font-size="10.00">dynarr_spread_insert</text>
</a>
</g>
</g>
<!-- Node2 -->
<g id="Node000002" class="node">
<title>Node2</title>
<g id="a_Node000002"><a xlink:href="group__Dynarr__API.html#ga30d508a9f387e2227dd0d72a8bfd2a39" target="_top" xlink:title=" ">
<polygon fill="white" stroke="#666666" points="235,-218.68 166,-218.68 166,-199.68 235,-199.68 235,-218.68"/>
<text text-anchor="middle" x="200.5" y="-206.68" font-family="Mononoki" font-size="10.00">dynarr_set</text>
</a>
</g>
</g>
<!-- Node1&#45;&gt;Node2 -->
<g id="edge1_Node000001_Node000002" class="edge">
<title>Node1&#45;&gt;Node2</title>
<g id="a_edge1_Node000001_Node000002"><a xlink:title=" ">
<path fill="none" stroke="#63b8ff" d="M96.7,-180.77C114.72,-185.75 136.92,-191.88 156.07,-197.17"/>
<polygon fill="#63b8ff" stroke="#63b8ff" points="155.19,-200.56 165.76,-199.85 157.06,-193.82 155.19,-200.56"/>
</a>
</g>
</g>
<!-- Node3 -->
<g id="Node000003" class="node">
<title>Node3</title>
<g id="a_Node000003"><a xlink:href="group__Dynarr__API.html#gaf5c43e2644d185b9b01065af34ed6e29" target="_top" xlink:title=" ">
<polygon fill="white" stroke="#666666" points="515.5,-180.68 441.5,-180.68 441.5,-161.68 515.5,-161.68 515.5,-180.68"/>
<text text-anchor="middle" x="478.5" y="-168.68" font-family="Mononoki" font-size="10.00">dynarr_size</text>
</a>
</g>
</g>
<!-- Node1&#45;&gt;Node3 -->
<g id="edge6_Node000001_Node000003" class="edge">
<title>Node1&#45;&gt;Node3</title>
<g id="a_edge6_Node000001_Node000003"><a xlink:title=" ">
<path fill="none" stroke="#63b8ff" d="M122.42,-171.18C206.15,-171.18 355.65,-171.18 431.15,-171.18"/>
<polygon fill="#63b8ff" stroke="#63b8ff" points="431.3,-174.68 441.3,-171.18 431.3,-167.68 431.3,-174.68"/>
</a>
</g>
</g>
<!-- Node7 -->
<g id="Node000007" class="node">
<title>Node7</title>
<g id="a_Node000007"><a xlink:href="group__Auto-resize.html#ga036b69c5b674d3ac22027b04ba235b42" target="_top" xlink:title=" ">
<polygon fill="white" stroke="#666666" points="356,-293.68 318,-293.68 318,-274.68 356,-274.68 356,-293.68"/>
<text text-anchor="middle" x="337" y="-281.68" font-family="Mononoki" font-size="10.00">grow</text>
</a>
</g>
</g>
<!-- Node1&#45;&gt;Node7 -->
<g id="edge7_Node000001_Node000007" class="edge">
<title>Node1&#45;&gt;Node7</title>
<g id="a_edge7_Node000001_Node000007"><a xlink:title=" ">
<path fill="none" stroke="#63b8ff" d="M75.76,-180.74C93.92,-193.03 127.21,-214.41 158,-228.18 209.15,-251.04 272.42,-268.57 308.09,-277.53"/>
<polygon fill="#63b8ff" stroke="#63b8ff" points="307.26,-280.94 317.81,-279.94 308.94,-274.14 307.26,-280.94"/>
</a>
</g>
</g>
<!-- Node11 -->
<g id="Node000011" class="node">
<title>Node11</title>
<g id="a_Node000011"><a xlink:href="group__Auto-resize.html#gadb26f84b95f0ca45c7ccbd72e337485a" target="_top" xlink:title=" ">
<polygon fill="white" stroke="#666666" points="243,-123.68 158,-123.68 158,-104.68 243,-104.68 243,-123.68"/>
<text text-anchor="middle" x="200.5" y="-111.68" font-family="Mononoki" font-size="10.00">make_space_at</text>
</a>
</g>
</g>
<!-- Node1&#45;&gt;Node11 -->
<g id="edge13_Node000001_Node000011" class="edge">
<title>Node1&#45;&gt;Node11</title>
<g id="a_edge13_Node000001_Node000011"><a xlink:title=" ">
<path fill="none" stroke="#63b8ff" d="M85.01,-161.64C107.42,-152.35 141.69,-138.14 166.9,-127.69"/>
<polygon fill="#63b8ff" stroke="#63b8ff" points="168.51,-130.81 176.41,-123.75 165.83,-124.34 168.51,-130.81"/>
</a>
</g>
</g>
<!-- Node15 -->
<g id="Node000015" class="node">
<title>Node15</title>
<g id="a_Node000015"><a target="_parent" xlink:href="https://evjeesm.github.io/vector/group__Vector__API.html#ga6312527827ba72441feeef4fc4047f94" xlink:title=" ">
<polygon fill="white" stroke="#666666" points="243,-86.68 158,-86.68 158,-67.68 243,-67.68 243,-86.68"/>
<text text-anchor="middle" x="200.5" y="-74.68" font-family="Mononoki" font-size="10.00">vector_spread</text>
</a>
</g>
</g>
<!-- Node1&#45;&gt;Node15 -->
<g id="edge20_Node000001_Node000015" class="edge">
<title>Node1&#45;&gt;Node15</title>
<g id="a_edge20_Node000001_Node000015"><a xlink:title=" ">
<path fill="none" stroke="#63b8ff" d="M72.27,-161.54C89.15,-146.07 124.26,-115.38 158,-95.18 160.32,-93.79 162.77,-92.45 165.27,-91.17"/>
<polygon fill="#63b8ff" stroke="#63b8ff" points="166.88,-94.27 174.4,-86.81 163.86,-87.96 166.88,-94.27"/>
</a>
</g>
</g>
<!-- Node2&#45;&gt;Node3 -->
<g id="edge2_Node000002_Node000003" class="edge">
<title>Node2&#45;&gt;Node3</title>
<g id="a_edge2_Node000002_Node000003"><a xlink:title=" ">
<path fill="none" stroke="#63b8ff" d="M235.12,-205.47C273.77,-201.1 339.07,-193.39 395,-185.18 406.78,-183.45 419.48,-181.39 431.3,-179.39"/>
<polygon fill="#63b8ff" stroke="#63b8ff" points="432.15,-182.8 441.41,-177.66 430.97,-175.9 432.15,-182.8"/>
</a>
</g>
</g>
<!-- Node6 -->
<g id="Node000006" class="node">
<title>Node6</title>
<g id="a_Node000006"><a target="_parent" xlink:href="https://evjeesm.github.io/vector/group__Vector__API.html#gab3a5e466261d31ee9edd77a5eb280030" xlink:title=" ">
<polygon fill="white" stroke="#666666" points="371.5,-256.68 302.5,-256.68 302.5,-237.68 371.5,-237.68 371.5,-256.68"/>
<text text-anchor="middle" x="337" y="-244.68" font-family="Mononoki" font-size="10.00">vector_set</text>
</a>
</g>
</g>
<!-- Node2&#45;&gt;Node6 -->
<g id="edge5_Node000002_Node000006" class="edge">
<title>Node2&#45;&gt;Node6</title>
<g id="a_edge5_Node000002_Node000006"><a xlink:title=" ">
<path fill="none" stroke="#63b8ff" d="M235.09,-218.67C252.51,-223.59 273.97,-229.65 292.63,-234.92"/>
<polygon fill="#63b8ff" stroke="#63b8ff" points="291.79,-238.32 302.37,-237.67 293.7,-231.59 291.79,-238.32"/>
</a>
</g>
</g>
<!-- Node4 -->
<g id="Node000004" class="node">
<title>Node4</title>
<g id="a_Node000004"><a xlink:href="dynarr_8c.html#a73f42f3f25cd0920d8039d63ea31be07" target="_top" xlink:title=" ">
<polygon fill="white" stroke="#666666" points="668,-180.68 562,-180.68 562,-161.68 668,-161.68 668,-180.68"/>
<text text-anchor="middle" x="615" y="-168.68" font-family="Mononoki" font-size="10.00">get_dynarr_header</text>
</a>
</g>
</g>
<!-- Node3&#45;&gt;Node4 -->
<g id="edge3_Node000003_Node000004" class="edge">
<title>Node3&#45;&gt;Node4</title>
<g id="a_edge3_Node000003_Node000004"><a xlink:title=" ">
<path fill="none" stroke="#63b8ff" d="M515.54,-171.18C526.67,-171.18 539.26,-171.18 551.63,-171.18"/>
<polygon fill="#63b8ff" stroke="#63b8ff" points="551.93,-174.68 561.93,-171.18 551.93,-167.68 551.93,-174.68"/>
</a>
</g>
</g>
<!-- Node5 -->
<g id="Node000005" class="node">
<title>Node5</title>
<g id="a_Node000005"><a target="_parent" xlink:href="https://evjeesm.github.io/vector/group__Vector__API.html#gafc2e34dbacffe6480af8681fbf46e808" xlink:title=" ">
<polygon fill="white" stroke="#666666" points="831,-180.68 704,-180.68 704,-161.68 831,-161.68 831,-180.68"/>
<text text-anchor="middle" x="767.5" y="-168.68" font-family="Mononoki" font-size="10.00">vector_get_ext_header</text>
</a>
</g>
</g>
<!-- Node4&#45;&gt;Node5 -->
<g id="edge4_Node000004_Node000005" class="edge">
<title>Node4&#45;&gt;Node5</title>
<g id="a_edge4_Node000004_Node000005"><a xlink:title=" ">
<path fill="none" stroke="#63b8ff" d="M668.22,-171.18C676.45,-171.18 685.1,-171.18 693.7,-171.18"/>
<polygon fill="#63b8ff" stroke="#63b8ff" points="693.75,-174.68 703.75,-171.18 693.75,-167.68 693.75,-174.68"/>
</a>
</g>
</g>
<!-- Node7&#45;&gt;Node3 -->
<g id="edge10_Node000007_Node000003" class="edge">
<title>Node7&#45;&gt;Node3</title>
<g id="a_edge10_Node000007_Node000003"><a xlink:title=" ">
<path fill="none" stroke="#63b8ff" d="M356.11,-281.63C368.07,-279.23 383.6,-274.67 395,-266.18 417.84,-249.17 412.3,-234.65 431,-213.18 439.01,-203.98 448.93,-194.77 457.54,-187.34"/>
<polygon fill="#63b8ff" stroke="#63b8ff" points="459.9,-189.93 465.3,-180.81 455.4,-184.57 459.9,-189.93"/>
</a>
</g>
</g>
<!-- Node7&#45;&gt;Node4 -->
<g id="edge11_Node000007_Node000004" class="edge">
<title>Node7&#45;&gt;Node4</title>
<g id="a_edge11_Node000007_Node000004"><a xlink:title=" ">
<path fill="none" stroke="#63b8ff" d="M356.13,-278.97C367.41,-275.61 382.17,-270.97 395,-266.18 464.01,-240.39 542.77,-204.61 584.47,-185.15"/>
<polygon fill="#63b8ff" stroke="#63b8ff" points="586.19,-188.21 593.76,-180.8 583.22,-181.87 586.19,-188.21"/>
</a>
</g>
</g>
<!-- Node8 -->
<g id="Node000008" class="node">
<title>Node8</title>
<g id="a_Node000008"><a xlink:href="group__Dynarr__API.html#ga3ff11107726213a640d814b63cb123b2" target="_top" xlink:title=" ">
<polygon fill="white" stroke="#666666" points="526,-320.68 431,-320.68 431,-301.68 526,-301.68 526,-320.68"/>
<text text-anchor="middle" x="478.5" y="-308.68" font-family="Mononoki" font-size="10.00">dynarr_capacity</text>
</a>
</g>
</g>
<!-- Node7&#45;&gt;Node8 -->
<g id="edge8_Node000007_Node000008" class="edge">
<title>Node7&#45;&gt;Node8</title>
<g id="a_edge8_Node000007_Node000008"><a xlink:title=" ">
<path fill="none" stroke="#63b8ff" d="M356.24,-287.71C372.64,-290.88 397.64,-295.72 420.68,-300.18"/>
<polygon fill="#63b8ff" stroke="#63b8ff" points="420.27,-303.66 430.75,-302.13 421.6,-296.79 420.27,-303.66"/>
</a>
</g>
</g>
<!-- Node10 -->
<g id="Node000010" class="node">
<title>Node10</title>
<g id="a_Node000010"><a target="_parent" xlink:href="https://evjeesm.github.io/vector/group__Vector__API.html#ga6e5077303af4dfe720af5a0608553922" xlink:title=" ">
<polygon fill="white" stroke="#666666" points="521,-283.68 436,-283.68 436,-264.68 521,-264.68 521,-283.68"/>
<text text-anchor="middle" x="478.5" y="-271.68" font-family="Mononoki" font-size="10.00">vector_resize</text>
</a>
</g>
</g>
<!-- Node7&#45;&gt;Node10 -->
<g id="edge12_Node000007_Node000010" class="edge">
<title>Node7&#45;&gt;Node10</title>
<g id="a_edge12_Node000007_Node000010"><a xlink:title=" ">
<path fill="none" stroke="#63b8ff" d="M356.24,-282.87C373.81,-281.61 401.25,-279.64 425.59,-277.9"/>
<polygon fill="#63b8ff" stroke="#63b8ff" points="426.06,-281.37 435.79,-277.17 425.56,-274.39 426.06,-281.37"/>
</a>
</g>
</g>
<!-- Node9 -->
<g id="Node000009" class="node">
<title>Node9</title>
<g id="a_Node000009"><a target="_parent" xlink:href="https://evjeesm.github.io/vector/group__Vector__API.html#gab24bd801f91d4ae1ac79b54430b0409f" xlink:title=" ">
<polygon fill="white" stroke="#666666" points="662.5,-320.68 567.5,-320.68 567.5,-301.68 662.5,-301.68 662.5,-320.68"/>
<text text-anchor="middle" x="615" y="-308.68" font-family="Mononoki" font-size="10.00">vector_capacity</text>
</a>
</g>
</g>
<!-- Node8&#45;&gt;Node9 -->
<g id="edge9_Node000008_Node000009" class="edge">
<title>Node8&#45;&gt;Node9</title>
<g id="a_edge9_Node000008_Node000009"><a xlink:title=" ">
<path fill="none" stroke="#63b8ff" d="M526.16,-311.18C536.18,-311.18 546.87,-311.18 557.22,-311.18"/>
<polygon fill="#63b8ff" stroke="#63b8ff" points="557.42,-314.68 567.42,-311.18 557.42,-307.68 557.42,-314.68"/>
</a>
</g>
</g>
<!-- Node11&#45;&gt;Node3 -->
<g id="edge17_Node000011_Node000003" class="edge">
<title>Node11&#45;&gt;Node3</title>
<g id="a_edge17_Node000011_Node000003"><a xlink:title=" ">
<path fill="none" stroke="#63b8ff" d="M243.12,-122.77C293.66,-133.21 378.66,-150.76 431.22,-161.62"/>
<polygon fill="#63b8ff" stroke="#63b8ff" points="430.77,-165.1 441.27,-163.7 432.19,-158.24 430.77,-165.1"/>
</a>
</g>
</g>
<!-- Node11&#45;&gt;Node4 -->
<g id="edge18_Node000011_Node000004" class="edge">
<title>Node11&#45;&gt;Node4</title>
<g id="a_edge18_Node000011_Node000004"><a xlink:title=" ">
<path fill="none" stroke="#63b8ff" d="M228.32,-104.63C233.52,-102.05 238.69,-98.91 243,-95.18 265.35,-75.79 253.03,-53.35 279,-39.18 375.35,13.43 429.21,12.62 526,-39.18 570.97,-63.24 596.92,-121.55 607.84,-151.98"/>
<polygon fill="#63b8ff" stroke="#63b8ff" points="604.54,-153.14 611.09,-161.48 611.17,-150.88 604.54,-153.14"/>
</a>
</g>
</g>
<!-- Node12 -->
<g id="Node000012" class="node">
<title>Node12</title>
<g id="a_Node000012"><a xlink:href="group__Dynarr__API.html#ga93c32dd116523090126d427cce08e114" target="_top" xlink:title=" ">
<polygon fill="white" stroke="#666666" points="371.5,-67.68 302.5,-67.68 302.5,-48.68 371.5,-48.68 371.5,-67.68"/>
<text text-anchor="middle" x="337" y="-55.68" font-family="Mononoki" font-size="10.00">dynarr_get</text>
</a>
</g>
</g>
<!-- Node11&#45;&gt;Node12 -->
<g id="edge14_Node000011_Node000012" class="edge">
<title>Node11&#45;&gt;Node12</title>
<g id="a_edge14_Node000011_Node000012"><a xlink:title=" ">
<path fill="none" stroke="#63b8ff" d="M223.15,-104.54C229.57,-101.61 236.6,-98.33 243,-95.18 259.23,-87.19 262.31,-83.15 279,-76.18 283.43,-74.32 288.13,-72.55 292.85,-70.89"/>
<polygon fill="#63b8ff" stroke="#63b8ff" points="294.12,-74.16 302.48,-67.66 291.89,-67.52 294.12,-74.16"/>
</a>
</g>
</g>
<!-- Node14 -->
<g id="Node000014" class="node">
<title>Node14</title>
<g id="a_Node000014"><a target="_parent" xlink:href="https://evjeesm.github.io/vector/group__Vector__API.html#gaae93d7f0c056c1d11d3232a7a7aa5e09" xlink:title=" ">
<polygon fill="white" stroke="#666666" points="395,-104.68 279,-104.68 279,-85.68 395,-85.68 395,-104.68"/>
<text text-anchor="middle" x="337" y="-92.68" font-family="Mononoki" font-size="10.00">vector_element_size</text>
</a>
</g>
</g>
<!-- Node11&#45;&gt;Node14 -->
<g id="edge19_Node000011_Node000014" class="edge">
<title>Node11&#45;&gt;Node14</title>
<g id="a_edge19_Node000011_Node000014"><a xlink:title=" ">
<path fill="none" stroke="#63b8ff" d="M243.32,-108.27C251.41,-107.13 260.08,-105.9 268.75,-104.68"/>
<polygon fill="#63b8ff" stroke="#63b8ff" points="269.48,-108.11 278.89,-103.24 268.5,-101.18 269.48,-108.11"/>
</a>
</g>
</g>
<!-- Node12&#45;&gt;Node3 -->
<g id="edge15_Node000012_Node000003" class="edge">
<title>Node12&#45;&gt;Node3</title>
<g id="a_edge15_Node000012_Node000003"><a xlink:title=" ">
<path fill="none" stroke="#63b8ff" d="M371.64,-65.45C379.69,-68.07 387.97,-71.56 395,-76.18 426.02,-96.54 452.2,-131.7 466.3,-153.06"/>
<polygon fill="#63b8ff" stroke="#63b8ff" points="463.4,-155.02 471.75,-161.55 469.29,-151.24 463.4,-155.02"/>
</a>
</g>
</g>
<!-- Node13 -->
<g id="Node000013" class="node">
<title>Node13</title>
<g id="a_Node000013"><a target="_parent" xlink:href="https://evjeesm.github.io/vector/group__Vector__API.html#ga9437d9506a3b2799f595c88b82f160b3" xlink:title=" ">
<polygon fill="white" stroke="#666666" points="513,-67.68 444,-67.68 444,-48.68 513,-48.68 513,-67.68"/>
<text text-anchor="middle" x="478.5" y="-55.68" font-family="Mononoki" font-size="10.00">vector_get</text>
</a>
</g>
</g>
<!-- Node12&#45;&gt;Node13 -->
<g id="edge16_Node000012_Node000013" class="edge">
<title>Node12&#45;&gt;Node13</title>
<g id="a_edge16_Node000012_Node000013"><a xlink:title=" ">
<path fill="none" stroke="#63b8ff" d="M371.77,-58.18C390.31,-58.18 413.52,-58.18 433.47,-58.18"/>
<polygon fill="#63b8ff" stroke="#63b8ff" points="433.56,-61.68 443.56,-58.18 433.56,-54.68 433.56,-61.68"/>
</a>
</g>
</g>
</g>
</svg>

<g id="navigator" transform="translate(0 0)" fill="#404254">
  <rect fill="#f2f5e9" fill-opacity="0.5" stroke="#606060" stroke-width=".5" x="0" y="0" width="60" height="60"/>
  <use id="zoomplus" xlink:href="#zoomPlus" x="17" y="9" onmousedown="handleZoom(evt,'in')"/>
  <use id="zoomminus" xlink:href="#zoomMin" x="42" y="9" onmousedown="handleZoom(evt,'out')"/>
  <use id="reset" xlink:href="#resetDef" x="30" y="36" onmousedown="handleReset()"/>
   <use id="arrowup" xlink:href="#arrowUp" x="0" y="0" onmousedown="handlePan(0,-1)"/>
  <use id="arrowright" xlink:href="#arrowRight" x="0" y="0" onmousedown="handlePan(1,0)"/>
  <use id="arrowdown" xlink:href="#arrowDown" x="0" y="0" onmousedown="handlePan(0,1)"/>
  <use id="arrowleft" xlink:href="#arrowLeft" x="0" y="0" onmousedown="handlePan(-1,0)"/>
</g>
<svg viewBox="0 0 15 15" width="100%" height="30px" preserveAspectRatio="xMaxYMin meet">
 <g id="arrow_out" transform="scale(0.3 0.3)">
  <a xlink:href="group__Dynarr__API_ga00ddd61f7109ab9bb88da4fa5a88fb51_cgraph_org.svg" target="_base">
   <rect id="button" ry="5" rx="5" y="6" x="6" height="38" width="38"
        fill="#f2f5e9" fill-opacity="0.5" stroke="#606060" stroke-width="1.0"/>
   <path id="arrow"
     d="M 11.500037,31.436501 C 11.940474,20.09759 22.043105,11.32322 32.158766,21.979434 L 37.068811,17.246167 C 37.068811,17.246167 37.088388,32 37.088388,32 L 22.160133,31.978069 C 22.160133,31.978069 26.997745,27.140456 26.997745,27.140456 C 18.528582,18.264221 13.291696,25.230495 11.500037,31.436501 z"
     style="fill:#404040;"/>
  </a>
 </g>
</svg>

<style type='text/css'>
<![CDATA[
[data-mouse-over-selected='false'] { opacity: 0.7; }
[data-mouse-over-selected='true']  { opacity: 1.0; }
]]>
</style>
<script type="application/ecmascript"><![CDATA[
document.addEventListener('DOMContentLoaded', (event) => {
  highlightEdges();
  highlightAdjacentNodes();
});
]]></script>
</svg>
