<?xml version="1.0" encoding="UTF-8" standalone="no"?>
<!DOCTYPE svg PUBLIC "-//W3C//DTD SVG 1.1//EN"
 "http://www.w3.org/Graphics/SVG/1.1/DTD/svg11.dtd">
<!-- Generated by graphviz version 2.43.0 (0)
 -->
<!-- Title: dynarr_prepend Pages: 1 -->
<svg width="718pt" height="194pt"
 viewBox="0.00 0.00 718.00 193.52" xmlns="http://www.w3.org/2000/svg" xmlns:xlink="http://www.w3.org/1999/xlink">
<g id="graph0" class="graph" transform="scale(1 1) rotate(0) translate(4 189.52)">
<title>dynarr_prepend</title>
<!-- Node1 -->
<g id="Node000001" class="node">
<title>Node1</title>
<g id="a_Node000001"><a xlink:title=" ">
<polygon fill="#999999" stroke="#666666" points="90,-128.52 0,-128.52 0,-109.52 90,-109.52 90,-128.52"/>
<text text-anchor="middle" x="45" y="-116.52" font-family="Mononoki" font-size="10.00">dynarr_prepend</text>
</a>
</g>
</g>
<!-- Node2 -->
<g id="Node000002" class="node">
<title>Node2</title>
<g id="a_Node000002"><a xlink:href="group__Dynarr__API.html#gab449a79e6b33f55af35329df4363336e" target="_top" xlink:title=" ">
<polygon fill="white" stroke="#666666" points="211,-128.52 126,-128.52 126,-109.52 211,-109.52 211,-128.52"/>
<text text-anchor="middle" x="168.5" y="-116.52" font-family="Mononoki" font-size="10.00">dynarr_insert</text>
</a>
</g>
</g>
<!-- Node1&#45;&gt;Node2 -->
<g id="edge1_Node000001_Node000002" class="edge">
<title>Node1&#45;&gt;Node2</title>
<g id="a_edge1_Node000001_Node000002"><a xlink:title=" ">
<path fill="none" stroke="#63b8ff" d="M90.21,-119.02C98.5,-119.02 107.25,-119.02 115.75,-119.02"/>
<polygon fill="#63b8ff" stroke="#63b8ff" points="115.95,-122.52 125.95,-119.02 115.95,-115.52 115.95,-122.52"/>
</a>
</g>
</g>
<!-- Node3 -->
<g id="Node000003" class="node">
<title>Node3</title>
<g id="a_Node000003"><a xlink:href="group__Dynarr__API.html#ga30d508a9f387e2227dd0d72a8bfd2a39" target="_top" xlink:title=" ">
<polygon fill="white" stroke="#666666" points="324,-147.52 255,-147.52 255,-128.52 324,-128.52 324,-147.52"/>
<text text-anchor="middle" x="289.5" y="-135.52" font-family="Mononoki" font-size="10.00">dynarr_set</text>
</a>
</g>
</g>
<!-- Node2&#45;&gt;Node3 -->
<g id="edge2_Node000002_Node000003" class="edge">
<title>Node2&#45;&gt;Node3</title>
<g id="a_edge2_Node000002_Node000003"><a xlink:title=" ">
<path fill="none" stroke="#63b8ff" d="M211.12,-125.67C222.1,-127.42 233.98,-129.32 245.05,-131.09"/>
<polygon fill="#63b8ff" stroke="#63b8ff" points="244.52,-134.55 254.95,-132.67 245.63,-127.63 244.52,-134.55"/>
</a>
</g>
</g>
<!-- Node4 -->
<g id="Node000004" class="node">
<title>Node4</title>
<g id="a_Node000004"><a xlink:href="group__Dynarr__API.html#gaf5c43e2644d185b9b01065af34ed6e29" target="_top" xlink:title=" ">
<polygon fill="white" stroke="#666666" points="557.5,-109.52 483.5,-109.52 483.5,-90.52 557.5,-90.52 557.5,-109.52"/>
<text text-anchor="middle" x="520.5" y="-97.52" font-family="Mononoki" font-size="10.00">dynarr_size</text>
</a>
</g>
</g>
<!-- Node2&#45;&gt;Node4 -->
<g id="edge5_Node000002_Node000004" class="edge">
<title>Node2&#45;&gt;Node4</title>
<g id="a_edge5_Node000002_Node000004"><a xlink:title=" ">
<path fill="none" stroke="#63b8ff" d="M211.02,-116.77C276.82,-113.2 404.58,-106.26 473.23,-102.53"/>
<polygon fill="#63b8ff" stroke="#63b8ff" points="473.52,-106.02 483.32,-101.99 473.14,-99.03 473.52,-106.02"/>
</a>
</g>
</g>
<!-- Node6 -->
<g id="Node000006" class="node">
<title>Node6</title>
<g id="a_Node000006"><a xlink:href="group__Auto-resize.html#ga036b69c5b674d3ac22027b04ba235b42" target="_top" xlink:title=" ">
<polygon fill="white" stroke="#666666" points="421.5,-185.52 383.5,-185.52 383.5,-166.52 421.5,-166.52 421.5,-185.52"/>
<text text-anchor="middle" x="402.5" y="-173.52" font-family="Mononoki" font-size="10.00">grow</text>
</a>
</g>
</g>
<!-- Node2&#45;&gt;Node6 -->
<g id="edge6_Node000002_Node000006" class="edge">
<title>Node2&#45;&gt;Node6</title>
<g id="a_edge6_Node000002_Node000006"><a xlink:title=" ">
<path fill="none" stroke="#63b8ff" d="M185.19,-128.67C200.41,-137.54 224.45,-150.32 247,-157.02 289.87,-169.77 341.88,-173.98 373.29,-175.36"/>
<polygon fill="#63b8ff" stroke="#63b8ff" points="373.37,-178.86 383.5,-175.74 373.63,-171.87 373.37,-178.86"/>
</a>
</g>
</g>
<!-- Node8 -->
<g id="Node000008" class="node">
<title>Node8</title>
<g id="a_Node000008"><a xlink:href="group__Auto-resize.html#gadb26f84b95f0ca45c7ccbd72e337485a" target="_top" xlink:title=" ">
<polygon fill="white" stroke="#666666" points="332,-52.52 247,-52.52 247,-33.52 332,-33.52 332,-52.52"/>
<text text-anchor="middle" x="289.5" y="-40.52" font-family="Mononoki" font-size="10.00">make_space_at</text>
</a>
</g>
</g>
<!-- Node2&#45;&gt;Node8 -->
<g id="edge10_Node000002_Node000008" class="edge">
<title>Node2&#45;&gt;Node8</title>
<g id="a_edge10_Node000002_Node000008"><a xlink:title=" ">
<path fill="none" stroke="#63b8ff" d="M184.57,-109.4C204.87,-96.43 241.19,-73.24 265.07,-57.99"/>
<polygon fill="#63b8ff" stroke="#63b8ff" points="267.01,-60.9 273.55,-52.57 263.24,-55 267.01,-60.9"/>
</a>
</g>
</g>
<!-- Node3&#45;&gt;Node4 -->
<g id="edge3_Node000003_Node000004" class="edge">
<title>Node3&#45;&gt;Node4</title>
<g id="a_edge3_Node000003_Node000004"><a xlink:title=" ">
<path fill="none" stroke="#63b8ff" d="M324.26,-132.55C353.96,-127.72 398.36,-120.47 437,-114.02 448.75,-112.06 461.43,-109.92 473.25,-107.92"/>
<polygon fill="#63b8ff" stroke="#63b8ff" points="474.09,-111.33 483.36,-106.2 472.92,-104.43 474.09,-111.33"/>
</a>
</g>
</g>
<!-- Node5 -->
<g id="Node000005" class="node">
<title>Node5</title>
<g id="a_Node000005"><a xlink:href="dynarr_8c.html#a73f42f3f25cd0920d8039d63ea31be07" target="_top" xlink:title=" ">
<polygon fill="white" stroke="#666666" points="710,-109.52 604,-109.52 604,-90.52 710,-90.52 710,-109.52"/>
<text text-anchor="middle" x="657" y="-97.52" font-family="Mononoki" font-size="10.00">get_dynarr_header</text>
</a>
</g>
</g>
<!-- Node4&#45;&gt;Node5 -->
<g id="edge4_Node000004_Node000005" class="edge">
<title>Node4&#45;&gt;Node5</title>
<g id="a_edge4_Node000004_Node000005"><a xlink:title=" ">
<path fill="none" stroke="#63b8ff" d="M557.54,-100.02C568.67,-100.02 581.26,-100.02 593.63,-100.02"/>
<polygon fill="#63b8ff" stroke="#63b8ff" points="593.93,-103.52 603.93,-100.02 593.93,-96.52 593.93,-103.52"/>
</a>
</g>
</g>
<!-- Node6&#45;&gt;Node4 -->
<g id="edge8_Node000006_Node000004" class="edge">
<title>Node6&#45;&gt;Node4</title>
<g id="a_edge8_Node000006_Node000004"><a xlink:title=" ">
<path fill="none" stroke="#63b8ff" d="M417.76,-166.3C423.8,-162.06 430.85,-156.94 437,-152.02 453.72,-138.66 454.94,-131.51 473,-120.02 476.41,-117.86 480.09,-115.82 483.84,-113.95"/>
<polygon fill="#63b8ff" stroke="#63b8ff" points="485.57,-117 493.17,-109.61 482.63,-110.65 485.57,-117"/>
</a>
</g>
</g>
<!-- Node6&#45;&gt;Node5 -->
<g id="edge9_Node000006_Node000005" class="edge">
<title>Node6&#45;&gt;Node5</title>
<g id="a_edge9_Node000006_Node000005"><a xlink:title=" ">
<path fill="none" stroke="#63b8ff" d="M421.63,-176.58C452.61,-176.97 517.27,-175.25 568,-157.02 593.97,-147.69 620.03,-129.43 636.98,-116.08"/>
<polygon fill="#63b8ff" stroke="#63b8ff" points="639.39,-118.63 644.96,-109.62 634.99,-113.19 639.39,-118.63"/>
</a>
</g>
</g>
<!-- Node7 -->
<g id="Node000007" class="node">
<title>Node7</title>
<g id="a_Node000007"><a xlink:href="group__Dynarr__API.html#ga3ff11107726213a640d814b63cb123b2" target="_top" xlink:title=" ">
<polygon fill="white" stroke="#666666" points="568,-147.52 473,-147.52 473,-128.52 568,-128.52 568,-147.52"/>
<text text-anchor="middle" x="520.5" y="-135.52" font-family="Mononoki" font-size="10.00">dynarr_capacity</text>
</a>
</g>
</g>
<!-- Node6&#45;&gt;Node7 -->
<g id="edge7_Node000006_Node000007" class="edge">
<title>Node6&#45;&gt;Node7</title>
<g id="a_edge7_Node000006_Node000007"><a xlink:title=" ">
<path fill="none" stroke="#63b8ff" d="M421.62,-170.09C437.32,-164.94 460.58,-157.32 480.48,-150.81"/>
<polygon fill="#63b8ff" stroke="#63b8ff" points="481.81,-154.05 490.23,-147.61 479.64,-147.4 481.81,-154.05"/>
</a>
</g>
</g>
<!-- Node8&#45;&gt;Node4 -->
<g id="edge13_Node000008_Node000004" class="edge">
<title>Node8&#45;&gt;Node4</title>
<g id="a_edge13_Node000008_Node000004"><a xlink:title=" ">
<path fill="none" stroke="#63b8ff" d="M328.83,-52.56C368.67,-62.48 431.03,-78 473.51,-88.57"/>
<polygon fill="#63b8ff" stroke="#63b8ff" points="472.77,-92 483.31,-91.02 474.46,-85.2 472.77,-92"/>
</a>
</g>
</g>
<!-- Node8&#45;&gt;Node5 -->
<g id="edge14_Node000008_Node000005" class="edge">
<title>Node8&#45;&gt;Node5</title>
<g id="a_edge14_Node000008_Node000005"><a xlink:title=" ">
<path fill="none" stroke="#63b8ff" d="M304.89,-33.46C319.9,-24.1 344.5,-10.47 368,-5.02 397.87,1.91 406.97,1.21 437,-5.02 511.44,-20.47 591.66,-62.57 631.14,-85.18"/>
<polygon fill="#63b8ff" stroke="#63b8ff" points="629.87,-88.49 640.27,-90.48 633.38,-82.44 629.87,-88.49"/>
</a>
</g>
</g>
<!-- Node9 -->
<g id="Node000009" class="node">
<title>Node9</title>
<g id="a_Node000009"><a xlink:href="group__Dynarr__API.html#ga93c32dd116523090126d427cce08e114" target="_top" xlink:title=" ">
<polygon fill="white" stroke="#666666" points="437,-33.52 368,-33.52 368,-14.52 437,-14.52 437,-33.52"/>
<text text-anchor="middle" x="402.5" y="-21.52" font-family="Mononoki" font-size="10.00">dynarr_get</text>
</a>
</g>
</g>
<!-- Node8&#45;&gt;Node9 -->
<g id="edge11_Node000008_Node000009" class="edge">
<title>Node8&#45;&gt;Node9</title>
<g id="a_edge11_Node000008_Node000009"><a xlink:title=" ">
<path fill="none" stroke="#63b8ff" d="M332.15,-35.89C340.55,-34.46 349.39,-32.94 357.86,-31.49"/>
<polygon fill="#63b8ff" stroke="#63b8ff" points="358.67,-34.91 367.93,-29.77 357.49,-28.01 358.67,-34.91"/>
</a>
</g>
</g>
<!-- Node9&#45;&gt;Node4 -->
<g id="edge12_Node000009_Node000004" class="edge">
<title>Node9&#45;&gt;Node4</title>
<g id="a_edge12_Node000009_Node000004"><a xlink:title=" ">
<path fill="none" stroke="#63b8ff" d="M418.19,-33.65C437.89,-46.55 473.07,-69.6 496.35,-84.86"/>
<polygon fill="#63b8ff" stroke="#63b8ff" points="494.65,-87.92 504.93,-90.48 498.48,-82.07 494.65,-87.92"/>
</a>
</g>
</g>
</g>
</svg>
