<?xml version="1.0" encoding="UTF-8" standalone="no"?>
<!DOCTYPE svg PUBLIC "-//W3C//DTD SVG 1.1//EN"
 "http://www.w3.org/Graphics/SVG/1.1/DTD/svg11.dtd">
<!-- Generated by graphviz version 2.43.0 (0)
 -->
<!-- Title: dynarr_first Pages: 1 -->
<svg width="608pt" height="64pt"
 viewBox="0.00 0.00 608.00 64.00" xmlns="http://www.w3.org/2000/svg" xmlns:xlink="http://www.w3.org/1999/xlink">
<g id="graph0" class="graph" transform="scale(1 1) rotate(0) translate(4 60)">
<title>dynarr_first</title>
<!-- Node1 -->
<g id="Node000001" class="node">
<title>Node1</title>
<g id="a_Node000001"><a xlink:title=" ">
<polygon fill="#999999" stroke="#666666" points="80,-38 0,-38 0,-19 80,-19 80,-38"/>
<text text-anchor="middle" x="40" y="-26" font-family="Mononoki" font-size="10.00">dynarr_first</text>
</a>
</g>
</g>
<!-- Node2 -->
<g id="Node000002" class="node">
<title>Node2</title>
<g id="a_Node000002"><a xlink:href="group__Dynarr__API.html#ga93c32dd116523090126d427cce08e114" target="_top" xlink:title=" ">
<polygon fill="white" stroke="#666666" points="185,-19 116,-19 116,0 185,0 185,-19"/>
<text text-anchor="middle" x="150.5" y="-7" font-family="Mononoki" font-size="10.00">dynarr_get</text>
</a>
</g>
</g>
<!-- Node1&#45;&gt;Node2 -->
<g id="edge1_Node000001_Node000002" class="edge">
<title>Node1&#45;&gt;Node2</title>
<g id="a_edge1_Node000001_Node000002"><a xlink:title=" ">
<path fill="none" stroke="#63b8ff" d="M80.17,-21.64C88.46,-20.19 97.25,-18.65 105.7,-17.17"/>
<polygon fill="#63b8ff" stroke="#63b8ff" points="106.52,-20.58 115.76,-15.41 105.31,-13.69 106.52,-20.58"/>
</a>
</g>
</g>
<!-- Node3 -->
<g id="Node000003" class="node">
<title>Node3</title>
<g id="a_Node000003"><a xlink:href="group__Dynarr__API.html#gaf5c43e2644d185b9b01065af34ed6e29" target="_top" xlink:title=" ">
<polygon fill="white" stroke="#666666" points="295,-56 221,-56 221,-37 295,-37 295,-56"/>
<text text-anchor="middle" x="258" y="-44" font-family="Mononoki" font-size="10.00">dynarr_size</text>
</a>
</g>
</g>
<!-- Node1&#45;&gt;Node3 -->
<g id="edge6_Node000001_Node000003" class="edge">
<title>Node1&#45;&gt;Node3</title>
<g id="a_edge6_Node000001_Node000003"><a xlink:title=" ">
<path fill="none" stroke="#63b8ff" d="M80.12,-31.76C116.83,-34.82 171.78,-39.4 210.67,-42.64"/>
<polygon fill="#63b8ff" stroke="#63b8ff" points="210.44,-46.13 220.69,-43.47 211.02,-39.16 210.44,-46.13"/>
</a>
</g>
</g>
<!-- Node2&#45;&gt;Node3 -->
<g id="edge2_Node000002_Node000003" class="edge">
<title>Node2&#45;&gt;Node3</title>
<g id="a_edge2_Node000002_Node000003"><a xlink:title=" ">
<path fill="none" stroke="#63b8ff" d="M178.67,-19.03C191.25,-23.44 206.38,-28.75 219.98,-33.52"/>
<polygon fill="#63b8ff" stroke="#63b8ff" points="218.96,-36.87 229.56,-36.88 221.28,-30.26 218.96,-36.87"/>
</a>
</g>
</g>
<!-- Node6 -->
<g id="Node000006" class="node">
<title>Node6</title>
<g id="a_Node000006"><a target="_parent" xlink:href="https://evjeesm.github.io/vector/group__Vector__API.html#ga9437d9506a3b2799f595c88b82f160b3" xlink:title=" ">
<polygon fill="white" stroke="#666666" points="292.5,-19 223.5,-19 223.5,0 292.5,0 292.5,-19"/>
<text text-anchor="middle" x="258" y="-7" font-family="Mononoki" font-size="10.00">vector_get</text>
</a>
</g>
</g>
<!-- Node2&#45;&gt;Node6 -->
<g id="edge5_Node000002_Node000006" class="edge">
<title>Node2&#45;&gt;Node6</title>
<g id="a_edge5_Node000002_Node000006"><a xlink:title=" ">
<path fill="none" stroke="#63b8ff" d="M185.17,-9.5C194.02,-9.5 203.7,-9.5 213,-9.5"/>
<polygon fill="#63b8ff" stroke="#63b8ff" points="213.29,-13 223.29,-9.5 213.29,-6 213.29,-13"/>
</a>
</g>
</g>
<!-- Node4 -->
<g id="Node000004" class="node">
<title>Node4</title>
<g id="a_Node000004"><a xlink:href="dynarr_8c.html#a73f42f3f25cd0920d8039d63ea31be07" target="_top" xlink:title=" ">
<polygon fill="white" stroke="#666666" points="437,-56 331,-56 331,-37 437,-37 437,-56"/>
<text text-anchor="middle" x="384" y="-44" font-family="Mononoki" font-size="10.00">get_dynarr_header</text>
</a>
</g>
</g>
<!-- Node3&#45;&gt;Node4 -->
<g id="edge3_Node000003_Node000004" class="edge">
<title>Node3&#45;&gt;Node4</title>
<g id="a_edge3_Node000003_Node000004"><a xlink:title=" ">
<path fill="none" stroke="#63b8ff" d="M295.2,-46.5C303.21,-46.5 311.93,-46.5 320.65,-46.5"/>
<polygon fill="#63b8ff" stroke="#63b8ff" points="320.86,-50 330.86,-46.5 320.86,-43 320.86,-50"/>
</a>
</g>
</g>
<!-- Node5 -->
<g id="Node000005" class="node">
<title>Node5</title>
<g id="a_Node000005"><a target="_parent" xlink:href="https://evjeesm.github.io/vector/group__Vector__API.html#gafc2e34dbacffe6480af8681fbf46e808" xlink:title=" ">
<polygon fill="white" stroke="#666666" points="600,-56 473,-56 473,-37 600,-37 600,-56"/>
<text text-anchor="middle" x="536.5" y="-44" font-family="Mononoki" font-size="10.00">vector_get_ext_header</text>
</a>
</g>
</g>
<!-- Node4&#45;&gt;Node5 -->
<g id="edge4_Node000004_Node000005" class="edge">
<title>Node4&#45;&gt;Node5</title>
<g id="a_edge4_Node000004_Node000005"><a xlink:title=" ">
<path fill="none" stroke="#63b8ff" d="M437.22,-46.5C445.45,-46.5 454.1,-46.5 462.7,-46.5"/>
<polygon fill="#63b8ff" stroke="#63b8ff" points="462.75,-50 472.75,-46.5 462.75,-43 462.75,-50"/>
</a>
</g>
</g>
</g>
</svg>
