<?xml version="1.0" encoding="UTF-8" standalone="no"?>
<!DOCTYPE svg PUBLIC "-//W3C//DTD SVG 1.1//EN"
 "http://www.w3.org/Graphics/SVG/1.1/DTD/svg11.dtd">
<!-- Generated by graphviz version 2.43.0 (0)
 -->
<!-- Title: dynarr_remove_range Pages: 1 -->
<svg width="623pt" height="123pt"
 viewBox="0.00 0.00 623.00 122.70" xmlns="http://www.w3.org/2000/svg" xmlns:xlink="http://www.w3.org/1999/xlink">
<g id="graph0" class="graph" transform="scale(1 1) rotate(0) translate(4 118.7)">
<title>dynarr_remove_range</title>
<!-- Node1 -->
<g id="Node000001" class="node">
<title>Node1</title>
<g id="a_Node000001"><a xlink:title=" ">
<polygon fill="#999999" stroke="#666666" points="116,-76.7 0,-76.7 0,-57.7 116,-57.7 116,-76.7"/>
<text text-anchor="middle" x="58" y="-64.7" font-family="Mononoki" font-size="10.00">dynarr_remove_range</text>
</a>
</g>
</g>
<!-- Node2 -->
<g id="Node000002" class="node">
<title>Node2</title>
<g id="a_Node000002"><a xlink:href="group__Dynarr__API.html#gaf5c43e2644d185b9b01065af34ed6e29" target="_top" xlink:title=" ">
<polygon fill="white" stroke="#666666" points="462.5,-38.7 388.5,-38.7 388.5,-19.7 462.5,-19.7 462.5,-38.7"/>
<text text-anchor="middle" x="425.5" y="-26.7" font-family="Mononoki" font-size="10.00">dynarr_size</text>
</a>
</g>
</g>
<!-- Node1&#45;&gt;Node2 -->
<g id="edge1_Node000001_Node000002" class="edge">
<title>Node1&#45;&gt;Node2</title>
<g id="a_edge1_Node000001_Node000002"><a xlink:title=" ">
<path fill="none" stroke="#63b8ff" d="M116.17,-65.58C173.52,-63.39 264.24,-58.37 342,-47.2 353.78,-45.51 366.39,-43.08 378.12,-40.55"/>
<polygon fill="#63b8ff" stroke="#63b8ff" points="379.15,-43.9 388.15,-38.32 377.63,-37.07 379.15,-43.9"/>
</a>
</g>
</g>
<!-- Node4 -->
<g id="Node000004" class="node">
<title>Node4</title>
<g id="a_Node000004"><a xlink:href="group__Auto-resize.html#ga9ff20c2ac9693f6d8f0ea97f9b46539c" target="_top" xlink:title=" ">
<polygon fill="white" stroke="#666666" points="237,-19.7 152,-19.7 152,-0.7 237,-0.7 237,-19.7"/>
<text text-anchor="middle" x="194.5" y="-7.7" font-family="Mononoki" font-size="10.00">free_space_at</text>
</a>
</g>
</g>
<!-- Node1&#45;&gt;Node4 -->
<g id="edge3_Node000001_Node000004" class="edge">
<title>Node1&#45;&gt;Node4</title>
<g id="a_edge3_Node000001_Node000004"><a xlink:title=" ">
<path fill="none" stroke="#63b8ff" d="M81.51,-57.66C103.43,-48.37 136.95,-34.17 161.61,-23.72"/>
<polygon fill="#63b8ff" stroke="#63b8ff" points="163.07,-26.9 170.91,-19.77 160.34,-20.45 163.07,-26.9"/>
</a>
</g>
</g>
<!-- Node6 -->
<g id="Node000006" class="node">
<title>Node6</title>
<g id="a_Node000006"><a xlink:href="group__Auto-resize.html#ga8eb6c0a577084ccd7a64bec67b8bdbbe" target="_top" xlink:title=" ">
<polygon fill="white" stroke="#666666" points="331.5,-114.7 283.5,-114.7 283.5,-95.7 331.5,-95.7 331.5,-114.7"/>
<text text-anchor="middle" x="307.5" y="-102.7" font-family="Mononoki" font-size="10.00">shrink</text>
</a>
</g>
</g>
<!-- Node1&#45;&gt;Node6 -->
<g id="edge8_Node000001_Node000006" class="edge">
<title>Node1&#45;&gt;Node6</title>
<g id="a_edge8_Node000001_Node000006"><a xlink:title=" ">
<path fill="none" stroke="#63b8ff" d="M116.09,-75.97C164.84,-83.45 233.26,-93.96 273.43,-100.12"/>
<polygon fill="#63b8ff" stroke="#63b8ff" points="273.07,-103.61 283.49,-101.67 274.14,-96.69 273.07,-103.61"/>
</a>
</g>
</g>
<!-- Node3 -->
<g id="Node000003" class="node">
<title>Node3</title>
<g id="a_Node000003"><a xlink:href="dynarr_8c.html#a73f42f3f25cd0920d8039d63ea31be07" target="_top" xlink:title=" ">
<polygon fill="white" stroke="#666666" points="615,-38.7 509,-38.7 509,-19.7 615,-19.7 615,-38.7"/>
<text text-anchor="middle" x="562" y="-26.7" font-family="Mononoki" font-size="10.00">get_dynarr_header</text>
</a>
</g>
</g>
<!-- Node2&#45;&gt;Node3 -->
<g id="edge2_Node000002_Node000003" class="edge">
<title>Node2&#45;&gt;Node3</title>
<g id="a_edge2_Node000002_Node000003"><a xlink:title=" ">
<path fill="none" stroke="#63b8ff" d="M462.54,-29.2C473.67,-29.2 486.26,-29.2 498.63,-29.2"/>
<polygon fill="#63b8ff" stroke="#63b8ff" points="498.93,-32.7 508.93,-29.2 498.93,-25.7 498.93,-32.7"/>
</a>
</g>
</g>
<!-- Node4&#45;&gt;Node2 -->
<g id="edge6_Node000004_Node000002" class="edge">
<title>Node4&#45;&gt;Node2</title>
<g id="a_edge6_Node000004_Node000002"><a xlink:title=" ">
<path fill="none" stroke="#63b8ff" d="M237,-7.71C266.41,-6.55 306.75,-6.19 342,-10.2 354.91,-11.67 368.73,-14.39 381.31,-17.32"/>
<polygon fill="#63b8ff" stroke="#63b8ff" points="380.54,-20.73 391.08,-19.69 382.19,-13.93 380.54,-20.73"/>
</a>
</g>
</g>
<!-- Node4&#45;&gt;Node3 -->
<g id="edge7_Node000004_Node000003" class="edge">
<title>Node4&#45;&gt;Node3</title>
<g id="a_edge7_Node000004_Node000003"><a xlink:title=" ">
<path fill="none" stroke="#63b8ff" d="M237.28,-5.73C248.84,-4.69 261.39,-3.72 273,-3.2 361.85,0.8 384.84,1.59 473,-10.2 486.08,-11.95 500.1,-14.61 513.03,-17.4"/>
<polygon fill="#63b8ff" stroke="#63b8ff" points="512.59,-20.89 523.12,-19.64 514.11,-14.05 512.59,-20.89"/>
</a>
</g>
</g>
<!-- Node5 -->
<g id="Node000005" class="node">
<title>Node5</title>
<g id="a_Node000005"><a xlink:href="group__Dynarr__API.html#ga93c32dd116523090126d427cce08e114" target="_top" xlink:title=" ">
<polygon fill="white" stroke="#666666" points="342,-38.7 273,-38.7 273,-19.7 342,-19.7 342,-38.7"/>
<text text-anchor="middle" x="307.5" y="-26.7" font-family="Mononoki" font-size="10.00">dynarr_get</text>
</a>
</g>
</g>
<!-- Node4&#45;&gt;Node5 -->
<g id="edge4_Node000004_Node000005" class="edge">
<title>Node4&#45;&gt;Node5</title>
<g id="a_edge4_Node000004_Node000005"><a xlink:title=" ">
<path fill="none" stroke="#63b8ff" d="M237.15,-17.33C245.55,-18.77 254.39,-20.28 262.86,-21.73"/>
<polygon fill="#63b8ff" stroke="#63b8ff" points="262.49,-25.22 272.93,-23.46 263.67,-18.32 262.49,-25.22"/>
</a>
</g>
</g>
<!-- Node5&#45;&gt;Node2 -->
<g id="edge5_Node000005_Node000002" class="edge">
<title>Node5&#45;&gt;Node2</title>
<g id="a_edge5_Node000005_Node000002"><a xlink:title=" ">
<path fill="none" stroke="#63b8ff" d="M342.05,-29.2C353.23,-29.2 365.89,-29.2 377.88,-29.2"/>
<polygon fill="#63b8ff" stroke="#63b8ff" points="378.18,-32.7 388.18,-29.2 378.18,-25.7 378.18,-32.7"/>
</a>
</g>
</g>
<!-- Node6&#45;&gt;Node2 -->
<g id="edge10_Node000006_Node000002" class="edge">
<title>Node6&#45;&gt;Node2</title>
<g id="a_edge10_Node000006_Node000002"><a xlink:title=" ">
<path fill="none" stroke="#63b8ff" d="M322.8,-95.53C328.85,-91.29 335.89,-86.16 342,-81.2 358.85,-67.52 359.67,-59.82 378,-48.2 380.96,-46.32 384.14,-44.57 387.4,-42.94"/>
<polygon fill="#63b8ff" stroke="#63b8ff" points="389.02,-46.05 396.65,-38.7 386.1,-39.68 389.02,-46.05"/>
</a>
</g>
</g>
<!-- Node6&#45;&gt;Node3 -->
<g id="edge11_Node000006_Node000003" class="edge">
<title>Node6&#45;&gt;Node3</title>
<g id="a_edge11_Node000006_Node000003"><a xlink:title=" ">
<path fill="none" stroke="#63b8ff" d="M331.58,-105.57C364.09,-105.39 424.79,-102.47 473,-85.2 498.7,-76 524.64,-58.22 541.63,-45.15"/>
<polygon fill="#63b8ff" stroke="#63b8ff" points="543.97,-47.77 549.65,-38.82 539.64,-42.27 543.97,-47.77"/>
</a>
</g>
</g>
<!-- Node7 -->
<g id="Node000007" class="node">
<title>Node7</title>
<g id="a_Node000007"><a xlink:href="group__Dynarr__API.html#ga3ff11107726213a640d814b63cb123b2" target="_top" xlink:title=" ">
<polygon fill="white" stroke="#666666" points="473,-76.7 378,-76.7 378,-57.7 473,-57.7 473,-76.7"/>
<text text-anchor="middle" x="425.5" y="-64.7" font-family="Mononoki" font-size="10.00">dynarr_capacity</text>
</a>
</g>
</g>
<!-- Node6&#45;&gt;Node7 -->
<g id="edge9_Node000006_Node000007" class="edge">
<title>Node6&#45;&gt;Node7</title>
<g id="a_edge9_Node000006_Node000007"><a xlink:title=" ">
<path fill="none" stroke="#63b8ff" d="M331.7,-97.6C347.09,-92.56 367.68,-85.81 385.56,-79.96"/>
<polygon fill="#63b8ff" stroke="#63b8ff" points="386.74,-83.25 395.16,-76.81 384.56,-76.6 386.74,-83.25"/>
</a>
</g>
</g>
</g>
</svg>
