<?xml version="1.0" encoding="UTF-8" standalone="no"?>
<!DOCTYPE svg PUBLIC "-//W3C//DTD SVG 1.1//EN"
 "http://www.w3.org/Graphics/SVG/1.1/DTD/svg11.dtd">
<!-- Generated by graphviz version 2.43.0 (0)
 -->
<!-- Title: dynarr_remove Pages: 1 -->
<svg width="744pt" height="123pt"
 viewBox="0.00 0.00 744.00 122.70" xmlns="http://www.w3.org/2000/svg" xmlns:xlink="http://www.w3.org/1999/xlink">
<g id="graph0" class="graph" transform="scale(1 1) rotate(0) translate(4 118.7)">
<title>dynarr_remove</title>
<!-- Node1 -->
<g id="Node000001" class="node">
<title>Node1</title>
<g id="a_Node000001"><a xlink:title=" ">
<polygon fill="#999999" stroke="#666666" points="85,-76.7 0,-76.7 0,-57.7 85,-57.7 85,-76.7"/>
<text text-anchor="middle" x="42.5" y="-64.7" font-family="Mononoki" font-size="10.00">dynarr_remove</text>
</a>
</g>
</g>
<!-- Node2 -->
<g id="Node000002" class="node">
<title>Node2</title>
<g id="a_Node000002"><a xlink:href="group__Dynarr__API.html#ga1187f49d8bde19551b2c95ad430e596c" target="_top" xlink:title=" ">
<polygon fill="white" stroke="#666666" points="237,-76.7 121,-76.7 121,-57.7 237,-57.7 237,-76.7"/>
<text text-anchor="middle" x="179" y="-64.7" font-family="Mononoki" font-size="10.00">dynarr_remove_range</text>
</a>
</g>
</g>
<!-- Node1&#45;&gt;Node2 -->
<g id="edge1_Node000001_Node000002" class="edge">
<title>Node1&#45;&gt;Node2</title>
<g id="a_edge1_Node000001_Node000002"><a xlink:title=" ">
<path fill="none" stroke="#63b8ff" d="M85.32,-67.2C93.41,-67.2 102.08,-67.2 110.75,-67.2"/>
<polygon fill="#63b8ff" stroke="#63b8ff" points="110.89,-70.7 120.89,-67.2 110.89,-63.7 110.89,-70.7"/>
</a>
</g>
</g>
<!-- Node3 -->
<g id="Node000003" class="node">
<title>Node3</title>
<g id="a_Node000003"><a xlink:href="group__Dynarr__API.html#gaf5c43e2644d185b9b01065af34ed6e29" target="_top" xlink:title=" ">
<polygon fill="white" stroke="#666666" points="583.5,-38.7 509.5,-38.7 509.5,-19.7 583.5,-19.7 583.5,-38.7"/>
<text text-anchor="middle" x="546.5" y="-26.7" font-family="Mononoki" font-size="10.00">dynarr_size</text>
</a>
</g>
</g>
<!-- Node2&#45;&gt;Node3 -->
<g id="edge2_Node000002_Node000003" class="edge">
<title>Node2&#45;&gt;Node3</title>
<g id="a_edge2_Node000002_Node000003"><a xlink:title=" ">
<path fill="none" stroke="#63b8ff" d="M237.17,-65.58C294.52,-63.39 385.24,-58.37 463,-47.2 474.78,-45.51 487.39,-43.08 499.12,-40.55"/>
<polygon fill="#63b8ff" stroke="#63b8ff" points="500.15,-43.9 509.15,-38.32 498.63,-37.07 500.15,-43.9"/>
</a>
</g>
</g>
<!-- Node5 -->
<g id="Node000005" class="node">
<title>Node5</title>
<g id="a_Node000005"><a xlink:href="group__Auto-resize.html#ga9ff20c2ac9693f6d8f0ea97f9b46539c" target="_top" xlink:title=" ">
<polygon fill="white" stroke="#666666" points="358,-19.7 273,-19.7 273,-0.7 358,-0.7 358,-19.7"/>
<text text-anchor="middle" x="315.5" y="-7.7" font-family="Mononoki" font-size="10.00">free_space_at</text>
</a>
</g>
</g>
<!-- Node2&#45;&gt;Node5 -->
<g id="edge4_Node000002_Node000005" class="edge">
<title>Node2&#45;&gt;Node5</title>
<g id="a_edge4_Node000002_Node000005"><a xlink:title=" ">
<path fill="none" stroke="#63b8ff" d="M202.51,-57.66C224.43,-48.37 257.95,-34.17 282.61,-23.72"/>
<polygon fill="#63b8ff" stroke="#63b8ff" points="284.07,-26.9 291.91,-19.77 281.34,-20.45 284.07,-26.9"/>
</a>
</g>
</g>
<!-- Node7 -->
<g id="Node000007" class="node">
<title>Node7</title>
<g id="a_Node000007"><a xlink:href="group__Auto-resize.html#ga8eb6c0a577084ccd7a64bec67b8bdbbe" target="_top" xlink:title=" ">
<polygon fill="white" stroke="#666666" points="452.5,-114.7 404.5,-114.7 404.5,-95.7 452.5,-95.7 452.5,-114.7"/>
<text text-anchor="middle" x="428.5" y="-102.7" font-family="Mononoki" font-size="10.00">shrink</text>
</a>
</g>
</g>
<!-- Node2&#45;&gt;Node7 -->
<g id="edge9_Node000002_Node000007" class="edge">
<title>Node2&#45;&gt;Node7</title>
<g id="a_edge9_Node000002_Node000007"><a xlink:title=" ">
<path fill="none" stroke="#63b8ff" d="M237.09,-75.97C285.84,-83.45 354.26,-93.96 394.43,-100.12"/>
<polygon fill="#63b8ff" stroke="#63b8ff" points="394.07,-103.61 404.49,-101.67 395.14,-96.69 394.07,-103.61"/>
</a>
</g>
</g>
<!-- Node4 -->
<g id="Node000004" class="node">
<title>Node4</title>
<g id="a_Node000004"><a xlink:href="dynarr_8c.html#a73f42f3f25cd0920d8039d63ea31be07" target="_top" xlink:title=" ">
<polygon fill="white" stroke="#666666" points="736,-38.7 630,-38.7 630,-19.7 736,-19.7 736,-38.7"/>
<text text-anchor="middle" x="683" y="-26.7" font-family="Mononoki" font-size="10.00">get_dynarr_header</text>
</a>
</g>
</g>
<!-- Node3&#45;&gt;Node4 -->
<g id="edge3_Node000003_Node000004" class="edge">
<title>Node3&#45;&gt;Node4</title>
<g id="a_edge3_Node000003_Node000004"><a xlink:title=" ">
<path fill="none" stroke="#63b8ff" d="M583.54,-29.2C594.67,-29.2 607.26,-29.2 619.63,-29.2"/>
<polygon fill="#63b8ff" stroke="#63b8ff" points="619.93,-32.7 629.93,-29.2 619.93,-25.7 619.93,-32.7"/>
</a>
</g>
</g>
<!-- Node5&#45;&gt;Node3 -->
<g id="edge7_Node000005_Node000003" class="edge">
<title>Node5&#45;&gt;Node3</title>
<g id="a_edge7_Node000005_Node000003"><a xlink:title=" ">
<path fill="none" stroke="#63b8ff" d="M358,-7.71C387.41,-6.55 427.75,-6.19 463,-10.2 475.91,-11.67 489.73,-14.39 502.31,-17.32"/>
<polygon fill="#63b8ff" stroke="#63b8ff" points="501.54,-20.73 512.08,-19.69 503.19,-13.93 501.54,-20.73"/>
</a>
</g>
</g>
<!-- Node5&#45;&gt;Node4 -->
<g id="edge8_Node000005_Node000004" class="edge">
<title>Node5&#45;&gt;Node4</title>
<g id="a_edge8_Node000005_Node000004"><a xlink:title=" ">
<path fill="none" stroke="#63b8ff" d="M358.28,-5.73C369.84,-4.69 382.39,-3.72 394,-3.2 482.85,0.8 505.84,1.59 594,-10.2 607.08,-11.95 621.1,-14.61 634.03,-17.4"/>
<polygon fill="#63b8ff" stroke="#63b8ff" points="633.59,-20.89 644.12,-19.64 635.11,-14.05 633.59,-20.89"/>
</a>
</g>
</g>
<!-- Node6 -->
<g id="Node000006" class="node">
<title>Node6</title>
<g id="a_Node000006"><a xlink:href="group__Dynarr__API.html#ga93c32dd116523090126d427cce08e114" target="_top" xlink:title=" ">
<polygon fill="white" stroke="#666666" points="463,-38.7 394,-38.7 394,-19.7 463,-19.7 463,-38.7"/>
<text text-anchor="middle" x="428.5" y="-26.7" font-family="Mononoki" font-size="10.00">dynarr_get</text>
</a>
</g>
</g>
<!-- Node5&#45;&gt;Node6 -->
<g id="edge5_Node000005_Node000006" class="edge">
<title>Node5&#45;&gt;Node6</title>
<g id="a_edge5_Node000005_Node000006"><a xlink:title=" ">
<path fill="none" stroke="#63b8ff" d="M358.15,-17.33C366.55,-18.77 375.39,-20.28 383.86,-21.73"/>
<polygon fill="#63b8ff" stroke="#63b8ff" points="383.49,-25.22 393.93,-23.46 384.67,-18.32 383.49,-25.22"/>
</a>
</g>
</g>
<!-- Node6&#45;&gt;Node3 -->
<g id="edge6_Node000006_Node000003" class="edge">
<title>Node6&#45;&gt;Node3</title>
<g id="a_edge6_Node000006_Node000003"><a xlink:title=" ">
<path fill="none" stroke="#63b8ff" d="M463.05,-29.2C474.23,-29.2 486.89,-29.2 498.88,-29.2"/>
<polygon fill="#63b8ff" stroke="#63b8ff" points="499.18,-32.7 509.18,-29.2 499.18,-25.7 499.18,-32.7"/>
</a>
</g>
</g>
<!-- Node7&#45;&gt;Node3 -->
<g id="edge11_Node000007_Node000003" class="edge">
<title>Node7&#45;&gt;Node3</title>
<g id="a_edge11_Node000007_Node000003"><a xlink:title=" ">
<path fill="none" stroke="#63b8ff" d="M443.8,-95.53C449.85,-91.29 456.89,-86.16 463,-81.2 479.85,-67.52 480.67,-59.82 499,-48.2 501.96,-46.32 505.14,-44.57 508.4,-42.94"/>
<polygon fill="#63b8ff" stroke="#63b8ff" points="510.02,-46.05 517.65,-38.7 507.1,-39.68 510.02,-46.05"/>
</a>
</g>
</g>
<!-- Node7&#45;&gt;Node4 -->
<g id="edge12_Node000007_Node000004" class="edge">
<title>Node7&#45;&gt;Node4</title>
<g id="a_edge12_Node000007_Node000004"><a xlink:title=" ">
<path fill="none" stroke="#63b8ff" d="M452.58,-105.57C485.09,-105.39 545.79,-102.47 594,-85.2 619.7,-76 645.64,-58.22 662.63,-45.15"/>
<polygon fill="#63b8ff" stroke="#63b8ff" points="664.97,-47.77 670.65,-38.82 660.64,-42.27 664.97,-47.77"/>
</a>
</g>
</g>
<!-- Node8 -->
<g id="Node000008" class="node">
<title>Node8</title>
<g id="a_Node000008"><a xlink:href="group__Dynarr__API.html#ga3ff11107726213a640d814b63cb123b2" target="_top" xlink:title=" ">
<polygon fill="white" stroke="#666666" points="594,-76.7 499,-76.7 499,-57.7 594,-57.7 594,-76.7"/>
<text text-anchor="middle" x="546.5" y="-64.7" font-family="Mononoki" font-size="10.00">dynarr_capacity</text>
</a>
</g>
</g>
<!-- Node7&#45;&gt;Node8 -->
<g id="edge10_Node000007_Node000008" class="edge">
<title>Node7&#45;&gt;Node8</title>
<g id="a_edge10_Node000007_Node000008"><a xlink:title=" ">
<path fill="none" stroke="#63b8ff" d="M452.7,-97.6C468.09,-92.56 488.68,-85.81 506.56,-79.96"/>
<polygon fill="#63b8ff" stroke="#63b8ff" points="507.74,-83.25 516.16,-76.81 505.56,-76.6 507.74,-83.25"/>
</a>
</g>
</g>
</g>
</svg>
