<?xml version="1.0" encoding="UTF-8" standalone="no"?>
<!DOCTYPE svg PUBLIC "-//W3C//DTD SVG 1.1//EN"
 "http://www.w3.org/Graphics/SVG/1.1/DTD/svg11.dtd">
<!-- Generated by graphviz version 2.43.0 (0)
 -->
<!-- Title: dynarr_remove_if Pages: 1 -->
<svg width="608pt" height="141pt"
 viewBox="0.00 0.00 608.00 141.00" xmlns="http://www.w3.org/2000/svg" xmlns:xlink="http://www.w3.org/1999/xlink">
<g id="graph0" class="graph" transform="scale(1 1) rotate(0) translate(4 137)">
<title>dynarr_remove_if</title>
<!-- Node1 -->
<g id="Node000001" class="node">
<title>Node1</title>
<g id="a_Node000001"><a xlink:title=" ">
<polygon fill="#999999" stroke="#666666" points="101,-76 0,-76 0,-57 101,-57 101,-76"/>
<text text-anchor="middle" x="50.5" y="-64" font-family="Mononoki" font-size="10.00">dynarr_remove_if</text>
</a>
</g>
</g>
<!-- Node2 -->
<g id="Node000002" class="node">
<title>Node2</title>
<g id="a_Node000002"><a xlink:href="group__Dynarr__API.html#ga93c32dd116523090126d427cce08e114" target="_top" xlink:title=" ">
<polygon fill="white" stroke="#666666" points="327,-57 258,-57 258,-38 327,-38 327,-57"/>
<text text-anchor="middle" x="292.5" y="-45" font-family="Mononoki" font-size="10.00">dynarr_get</text>
</a>
</g>
</g>
<!-- Node1&#45;&gt;Node2 -->
<g id="edge1_Node000001_Node000002" class="edge">
<title>Node1&#45;&gt;Node2</title>
<g id="a_edge1_Node000001_Node000002"><a xlink:title=" ">
<path fill="none" stroke="#63b8ff" d="M101.23,-62.56C144.39,-59.15 206.28,-54.25 247.63,-50.97"/>
<polygon fill="#63b8ff" stroke="#63b8ff" points="247.98,-54.46 257.67,-50.18 247.43,-47.48 247.98,-54.46"/>
</a>
</g>
</g>
<!-- Node3 -->
<g id="Node000003" class="node">
<title>Node3</title>
<g id="a_Node000003"><a xlink:href="group__Dynarr__API.html#gaf5c43e2644d185b9b01065af34ed6e29" target="_top" xlink:title=" ">
<polygon fill="white" stroke="#666666" points="447.5,-57 373.5,-57 373.5,-38 447.5,-38 447.5,-57"/>
<text text-anchor="middle" x="410.5" y="-45" font-family="Mononoki" font-size="10.00">dynarr_size</text>
</a>
</g>
</g>
<!-- Node1&#45;&gt;Node3 -->
<g id="edge4_Node000001_Node000003" class="edge">
<title>Node1&#45;&gt;Node3</title>
<g id="a_edge4_Node000001_Node000003"><a xlink:title=" ">
<path fill="none" stroke="#63b8ff" d="M101.01,-70.27C156.34,-73.61 248.48,-76.56 327,-66.5 339.41,-64.91 352.7,-62.27 364.9,-59.47"/>
<polygon fill="#63b8ff" stroke="#63b8ff" points="365.94,-62.82 374.85,-57.09 364.31,-56.01 365.94,-62.82"/>
</a>
</g>
</g>
<!-- Node5 -->
<g id="Node000005" class="node">
<title>Node5</title>
<g id="a_Node000005"><a xlink:href="group__Auto-resize.html#ga9ff20c2ac9693f6d8f0ea97f9b46539c" target="_top" xlink:title=" ">
<polygon fill="white" stroke="#666666" points="222,-19 137,-19 137,0 222,0 222,-19"/>
<text text-anchor="middle" x="179.5" y="-7" font-family="Mononoki" font-size="10.00">free_space_at</text>
</a>
</g>
</g>
<!-- Node1&#45;&gt;Node5 -->
<g id="edge5_Node000001_Node000005" class="edge">
<title>Node1&#45;&gt;Node5</title>
<g id="a_edge5_Node000001_Node000005"><a xlink:title=" ">
<path fill="none" stroke="#63b8ff" d="M72.76,-56.96C93.27,-47.75 124.55,-33.72 147.77,-23.29"/>
<polygon fill="#63b8ff" stroke="#63b8ff" points="149.48,-26.36 157.17,-19.07 146.62,-19.97 149.48,-26.36"/>
</a>
</g>
</g>
<!-- Node6 -->
<g id="Node000006" class="node">
<title>Node6</title>
<g id="a_Node000006"><a xlink:href="group__Auto-resize.html#ga8eb6c0a577084ccd7a64bec67b8bdbbe" target="_top" xlink:title=" ">
<polygon fill="white" stroke="#666666" points="316.5,-133 268.5,-133 268.5,-114 316.5,-114 316.5,-133"/>
<text text-anchor="middle" x="292.5" y="-121" font-family="Mononoki" font-size="10.00">shrink</text>
</a>
</g>
</g>
<!-- Node1&#45;&gt;Node6 -->
<g id="edge9_Node000001_Node000006" class="edge">
<title>Node1&#45;&gt;Node6</title>
<g id="a_edge9_Node000001_Node000006"><a xlink:title=" ">
<path fill="none" stroke="#63b8ff" d="M72.51,-76.07C89.57,-83.47 114.4,-93.46 137,-99.5 178.11,-110.49 226.81,-117.02 258.39,-120.43"/>
<polygon fill="#63b8ff" stroke="#63b8ff" points="258.1,-123.92 268.41,-121.47 258.82,-116.96 258.1,-123.92"/>
</a>
</g>
</g>
<!-- Node2&#45;&gt;Node3 -->
<g id="edge2_Node000002_Node000003" class="edge">
<title>Node2&#45;&gt;Node3</title>
<g id="a_edge2_Node000002_Node000003"><a xlink:title=" ">
<path fill="none" stroke="#63b8ff" d="M327.05,-47.5C338.23,-47.5 350.89,-47.5 362.88,-47.5"/>
<polygon fill="#63b8ff" stroke="#63b8ff" points="363.18,-51 373.18,-47.5 363.18,-44 363.18,-51"/>
</a>
</g>
</g>
<!-- Node4 -->
<g id="Node000004" class="node">
<title>Node4</title>
<g id="a_Node000004"><a xlink:href="dynarr_8c.html#a73f42f3f25cd0920d8039d63ea31be07" target="_top" xlink:title=" ">
<polygon fill="white" stroke="#666666" points="600,-57 494,-57 494,-38 600,-38 600,-57"/>
<text text-anchor="middle" x="547" y="-45" font-family="Mononoki" font-size="10.00">get_dynarr_header</text>
</a>
</g>
</g>
<!-- Node3&#45;&gt;Node4 -->
<g id="edge3_Node000003_Node000004" class="edge">
<title>Node3&#45;&gt;Node4</title>
<g id="a_edge3_Node000003_Node000004"><a xlink:title=" ">
<path fill="none" stroke="#63b8ff" d="M447.54,-47.5C458.67,-47.5 471.26,-47.5 483.63,-47.5"/>
<polygon fill="#63b8ff" stroke="#63b8ff" points="483.93,-51 493.93,-47.5 483.93,-44 483.93,-51"/>
</a>
</g>
</g>
<!-- Node5&#45;&gt;Node2 -->
<g id="edge6_Node000005_Node000002" class="edge">
<title>Node5&#45;&gt;Node2</title>
<g id="a_edge6_Node000005_Node000002"><a xlink:title=" ">
<path fill="none" stroke="#63b8ff" d="M208.51,-19.09C222.18,-23.77 238.83,-29.47 253.62,-34.53"/>
<polygon fill="#63b8ff" stroke="#63b8ff" points="252.9,-37.99 263.5,-37.91 255.17,-31.36 252.9,-37.99"/>
</a>
</g>
</g>
<!-- Node5&#45;&gt;Node3 -->
<g id="edge7_Node000005_Node000003" class="edge">
<title>Node5&#45;&gt;Node3</title>
<g id="a_edge7_Node000005_Node000003"><a xlink:title=" ">
<path fill="none" stroke="#63b8ff" d="M222.03,-13.79C251.45,-17.1 291.79,-22.18 327,-28.5 338.75,-30.61 351.35,-33.29 363.07,-35.97"/>
<polygon fill="#63b8ff" stroke="#63b8ff" points="362.57,-39.45 373.11,-38.31 364.16,-32.63 362.57,-39.45"/>
</a>
</g>
</g>
<!-- Node5&#45;&gt;Node4 -->
<g id="edge8_Node000005_Node000004" class="edge">
<title>Node5&#45;&gt;Node4</title>
<g id="a_edge8_Node000005_Node000004"><a xlink:title=" ">
<path fill="none" stroke="#63b8ff" d="M222.22,-10.12C251.56,-10.76 291.71,-12.02 327,-14.5 385.41,-18.61 400.19,-19.2 458,-28.5 470.54,-30.52 483.99,-33.17 496.5,-35.85"/>
<polygon fill="#63b8ff" stroke="#63b8ff" points="495.79,-39.28 506.31,-37.99 497.28,-32.44 495.79,-39.28"/>
</a>
</g>
</g>
<!-- Node6&#45;&gt;Node3 -->
<g id="edge11_Node000006_Node000003" class="edge">
<title>Node6&#45;&gt;Node3</title>
<g id="a_edge11_Node000006_Node000003"><a xlink:title=" ">
<path fill="none" stroke="#63b8ff" d="M307.76,-113.78C313.8,-109.53 320.85,-104.41 327,-99.5 343.72,-86.14 344.94,-78.99 363,-67.5 366.41,-65.33 370.09,-63.3 373.84,-61.42"/>
<polygon fill="#63b8ff" stroke="#63b8ff" points="375.57,-64.48 383.17,-57.09 372.63,-58.13 375.57,-64.48"/>
</a>
</g>
</g>
<!-- Node6&#45;&gt;Node4 -->
<g id="edge12_Node000006_Node000004" class="edge">
<title>Node6&#45;&gt;Node4</title>
<g id="a_edge12_Node000006_Node000004"><a xlink:title=" ">
<path fill="none" stroke="#63b8ff" d="M316.6,-124.1C349.12,-124.23 409.84,-121.8 458,-104.5 483.97,-95.17 510.03,-76.91 526.98,-63.56"/>
<polygon fill="#63b8ff" stroke="#63b8ff" points="529.39,-66.11 534.96,-57.1 524.99,-60.67 529.39,-66.11"/>
</a>
</g>
</g>
<!-- Node7 -->
<g id="Node000007" class="node">
<title>Node7</title>
<g id="a_Node000007"><a xlink:href="group__Dynarr__API.html#ga3ff11107726213a640d814b63cb123b2" target="_top" xlink:title=" ">
<polygon fill="white" stroke="#666666" points="458,-95 363,-95 363,-76 458,-76 458,-95"/>
<text text-anchor="middle" x="410.5" y="-83" font-family="Mononoki" font-size="10.00">dynarr_capacity</text>
</a>
</g>
</g>
<!-- Node6&#45;&gt;Node7 -->
<g id="edge10_Node000006_Node000007" class="edge">
<title>Node6&#45;&gt;Node7</title>
<g id="a_edge10_Node000006_Node000007"><a xlink:title=" ">
<path fill="none" stroke="#63b8ff" d="M316.7,-115.9C332.09,-110.86 352.68,-104.11 370.56,-98.26"/>
<polygon fill="#63b8ff" stroke="#63b8ff" points="371.74,-101.55 380.16,-95.11 369.56,-94.9 371.74,-101.55"/>
</a>
</g>
</g>
</g>
</svg>
