<?xml version="1.0" encoding="UTF-8" standalone="no"?>
<!DOCTYPE svg PUBLIC "-//W3C//DTD SVG 1.1//EN"
 "http://www.w3.org/Graphics/SVG/1.1/DTD/svg11.dtd">
<!-- Generated by graphviz version 2.43.0 (0)
 -->
<!-- Title: dynarr_binary_merge Pages: 1 -->
<svg width="1106pt" height="522pt"
 viewBox="0.00 0.00 1106.00 521.85" xmlns="http://www.w3.org/2000/svg" xmlns:xlink="http://www.w3.org/1999/xlink">
<g id="graph0" class="graph" transform="scale(1 1) rotate(0) translate(4 517.85)">
<title>dynarr_binary_merge</title>
<!-- Node1 -->
<g id="Node000001" class="node">
<title>Node1</title>
<g id="a_Node000001"><a xlink:title=" ">
<polygon fill="#999999" stroke="#666666" points="116,-172.85 0,-172.85 0,-153.85 116,-153.85 116,-172.85"/>
<text text-anchor="middle" x="58" y="-160.85" font-family="Mononoki" font-size="10.00">dynarr_binary_merge</text>
</a>
</g>
</g>
<!-- Node2 -->
<g id="Node000002" class="node">
<title>Node2</title>
<g id="a_Node000002"><a xlink:href="group__Dynarr__API.html#ga1e7f043863514d809cd6446053f6dc47" target="_top" xlink:title=" ">
<polygon fill="white" stroke="#666666" points="239.5,-343.85 154.5,-343.85 154.5,-324.85 239.5,-324.85 239.5,-343.85"/>
<text text-anchor="middle" x="197" y="-331.85" font-family="Mononoki" font-size="10.00">dynarr_append</text>
</a>
</g>
</g>
<!-- Node1&#45;&gt;Node2 -->
<g id="edge1_Node000001_Node000002" class="edge">
<title>Node1&#45;&gt;Node2</title>
<g id="a_edge1_Node000001_Node000002"><a xlink:title=" ">
<path fill="none" stroke="#63b8ff" d="M63.06,-173.11C74.05,-198.55 106.61,-267.81 152,-310.35 155.62,-313.74 159.81,-316.81 164.13,-319.54"/>
<polygon fill="#63b8ff" stroke="#63b8ff" points="162.64,-322.72 173.06,-324.64 166.12,-316.64 162.64,-322.72"/>
</a>
</g>
</g>
<!-- Node5 -->
<g id="Node000005" class="node">
<title>Node5</title>
<g id="a_Node000005"><a xlink:href="group__Dynarr__API.html#gaf5c43e2644d185b9b01065af34ed6e29" target="_top" xlink:title=" ">
<polygon fill="white" stroke="#666666" points="782.5,-324.85 708.5,-324.85 708.5,-305.85 782.5,-305.85 782.5,-324.85"/>
<text text-anchor="middle" x="745.5" y="-312.85" font-family="Mononoki" font-size="10.00">dynarr_size</text>
</a>
</g>
</g>
<!-- Node1&#45;&gt;Node5 -->
<g id="edge28_Node000001_Node000005" class="edge">
<title>Node1&#45;&gt;Node5</title>
<g id="a_edge28_Node000001_Node000005"><a xlink:title=" ">
<path fill="none" stroke="#63b8ff" d="M69.07,-172.91C102.29,-203.41 212.5,-296.35 322,-296.35 322,-296.35 322,-296.35 447.5,-296.35 536.45,-296.35 640.09,-304.94 698.42,-310.57"/>
<polygon fill="#63b8ff" stroke="#63b8ff" points="698.14,-314.06 708.43,-311.55 698.82,-307.09 698.14,-314.06"/>
</a>
</g>
</g>
<!-- Node14 -->
<g id="Node000014" class="node">
<title>Node14</title>
<g id="a_Node000014"><a xlink:href="group__Dynarr__API.html#ga93c32dd116523090126d427cce08e114" target="_top" xlink:title=" ">
<polygon fill="white" stroke="#666666" points="628,-191.85 559,-191.85 559,-172.85 628,-172.85 628,-191.85"/>
<text text-anchor="middle" x="593.5" y="-179.85" font-family="Mononoki" font-size="10.00">dynarr_get</text>
</a>
</g>
</g>
<!-- Node1&#45;&gt;Node14 -->
<g id="edge27_Node000001_Node000014" class="edge">
<title>Node1&#45;&gt;Node14</title>
<g id="a_edge27_Node000001_Node000014"><a xlink:title=" ">
<path fill="none" stroke="#63b8ff" d="M116.05,-165.88C127.93,-166.39 140.37,-166.9 152,-167.35 297.26,-172.95 469.5,-178.5 548.69,-180.99"/>
<polygon fill="#63b8ff" stroke="#63b8ff" points="548.68,-184.49 558.79,-181.3 548.9,-177.49 548.68,-184.49"/>
</a>
</g>
</g>
<!-- Node17 -->
<g id="Node000017" class="node">
<title>Node17</title>
<g id="a_Node000017"><a xlink:href="group__Dynarr__API.html#ga99f1163f1932f71f0229a7340df68efb" target="_top" xlink:title=" ">
<polygon fill="white" stroke="#666666" points="368,-153.85 278,-153.85 278,-134.85 368,-134.85 368,-153.85"/>
<text text-anchor="middle" x="323" y="-141.85" font-family="Mononoki" font-size="10.00">dynarr_create_</text>
</a>
</g>
</g>
<!-- Node1&#45;&gt;Node17 -->
<g id="edge23_Node000001_Node000017" class="edge">
<title>Node1&#45;&gt;Node17</title>
<g id="a_edge23_Node000001_Node000017"><a xlink:title=" ">
<path fill="none" stroke="#63b8ff" d="M116.07,-159.23C161.06,-155.98 223.38,-151.47 267.65,-148.28"/>
<polygon fill="#63b8ff" stroke="#63b8ff" points="267.93,-151.77 277.65,-147.55 267.43,-144.78 267.93,-151.77"/>
</a>
</g>
</g>
<!-- Node18 -->
<g id="Node000018" class="node">
<title>Node18</title>
<g id="a_Node000018"><a xlink:href="group__Dynarr__API.html#gaebbaac3879771d77aa20068a26952197" target="_top" xlink:title=" ">
<polygon fill="white" stroke="#666666" points="242,-77.85 152,-77.85 152,-58.85 242,-58.85 242,-77.85"/>
<text text-anchor="middle" x="197" y="-65.85" font-family="Mononoki" font-size="10.00">dynarr_destroy</text>
</a>
</g>
</g>
<!-- Node1&#45;&gt;Node18 -->
<g id="edge25_Node000001_Node000018" class="edge">
<title>Node1&#45;&gt;Node18</title>
<g id="a_edge25_Node000001_Node000018"><a xlink:title=" ">
<path fill="none" stroke="#63b8ff" d="M70.33,-153.79C87.44,-139.57 121.16,-112.37 152,-92.35 157.05,-89.07 162.58,-85.81 167.97,-82.8"/>
<polygon fill="#63b8ff" stroke="#63b8ff" points="169.67,-85.86 176.79,-78.01 166.33,-79.71 169.67,-85.86"/>
</a>
</g>
</g>
<!-- Node20 -->
<g id="Node000020" class="node">
<title>Node20</title>
<g id="a_Node000020"><a xlink:href="dynarr_8c.html#a498b4e9fc56a6e87a6c5ca525026a9ed" target="_top" xlink:title=" ">
<polygon fill="white" stroke="#666666" points="476,-78.85 417,-78.85 417,-59.85 476,-59.85 476,-78.85"/>
<text text-anchor="middle" x="446.5" y="-66.85" font-family="Mononoki" font-size="10.00">get_opts</text>
</a>
</g>
</g>
<!-- Node1&#45;&gt;Node20 -->
<g id="edge29_Node000001_Node000020" class="edge">
<title>Node1&#45;&gt;Node20</title>
<g id="a_edge29_Node000001_Node000020"><a xlink:title=" ">
<path fill="none" stroke="#63b8ff" d="M98.19,-153.82C172.51,-135.74 333.12,-96.68 406.95,-78.73"/>
<polygon fill="#63b8ff" stroke="#63b8ff" points="407.88,-82.1 416.77,-76.34 406.23,-75.3 407.88,-82.1"/>
</a>
</g>
</g>
<!-- Node3 -->
<g id="Node000003" class="node">
<title>Node3</title>
<g id="a_Node000003"><a xlink:href="group__Dynarr__API.html#gab449a79e6b33f55af35329df4363336e" target="_top" xlink:title=" ">
<polygon fill="white" stroke="#666666" points="365.5,-400.85 280.5,-400.85 280.5,-381.85 365.5,-381.85 365.5,-400.85"/>
<text text-anchor="middle" x="323" y="-388.85" font-family="Mononoki" font-size="10.00">dynarr_insert</text>
</a>
</g>
</g>
<!-- Node2&#45;&gt;Node3 -->
<g id="edge2_Node000002_Node000003" class="edge">
<title>Node2&#45;&gt;Node3</title>
<g id="a_edge2_Node000002_Node000003"><a xlink:title=" ">
<path fill="none" stroke="#63b8ff" d="M218.75,-343.89C238.78,-353.1 269.32,-367.13 292,-377.56"/>
<polygon fill="#63b8ff" stroke="#63b8ff" points="290.63,-380.78 301.18,-381.78 293.55,-374.42 290.63,-380.78"/>
</a>
</g>
</g>
<!-- Node2&#45;&gt;Node5 -->
<g id="edge22_Node000002_Node000005" class="edge">
<title>Node2&#45;&gt;Node5</title>
<g id="a_edge22_Node000002_Node000005"><a xlink:title=" ">
<path fill="none" stroke="#63b8ff" d="M239.52,-332.91C339.59,-329.43 593.48,-320.6 698.22,-316.96"/>
<polygon fill="#63b8ff" stroke="#63b8ff" points="698.6,-320.45 708.48,-316.6 698.36,-313.45 698.6,-320.45"/>
</a>
</g>
</g>
<!-- Node4 -->
<g id="Node000004" class="node">
<title>Node4</title>
<g id="a_Node000004"><a xlink:href="group__Dynarr__API.html#ga30d508a9f387e2227dd0d72a8bfd2a39" target="_top" xlink:title=" ">
<polygon fill="white" stroke="#666666" points="481,-400.85 412,-400.85 412,-381.85 481,-381.85 481,-400.85"/>
<text text-anchor="middle" x="446.5" y="-388.85" font-family="Mononoki" font-size="10.00">dynarr_set</text>
</a>
</g>
</g>
<!-- Node3&#45;&gt;Node4 -->
<g id="edge3_Node000003_Node000004" class="edge">
<title>Node3&#45;&gt;Node4</title>
<g id="a_edge3_Node000003_Node000004"><a xlink:title=" ">
<path fill="none" stroke="#63b8ff" d="M365.81,-391.35C377.27,-391.35 389.73,-391.35 401.31,-391.35"/>
<polygon fill="#63b8ff" stroke="#63b8ff" points="401.65,-394.85 411.65,-391.35 401.65,-387.85 401.65,-394.85"/>
</a>
</g>
</g>
<!-- Node3&#45;&gt;Node5 -->
<g id="edge8_Node000003_Node000005" class="edge">
<title>Node3&#45;&gt;Node5</title>
<g id="a_edge8_Node000003_Node000005"><a xlink:title=" ">
<path fill="none" stroke="#63b8ff" d="M346.27,-400.89C403.65,-423.88 559.22,-475.87 662,-412.35 692.43,-393.54 673.08,-366.02 698,-340.35 701.73,-336.5 706.19,-333.11 710.84,-330.16"/>
<polygon fill="#63b8ff" stroke="#63b8ff" points="712.91,-333.01 719.9,-325.04 709.47,-326.92 712.91,-333.01"/>
</a>
</g>
</g>
<!-- Node9 -->
<g id="Node000009" class="node">
<title>Node9</title>
<g id="a_Node000009"><a xlink:href="group__Auto-resize.html#ga036b69c5b674d3ac22027b04ba235b42" target="_top" xlink:title=" ">
<polygon fill="white" stroke="#666666" points="612.5,-495.85 574.5,-495.85 574.5,-476.85 612.5,-476.85 612.5,-495.85"/>
<text text-anchor="middle" x="593.5" y="-483.85" font-family="Mononoki" font-size="10.00">grow</text>
</a>
</g>
</g>
<!-- Node3&#45;&gt;Node9 -->
<g id="edge9_Node000003_Node000009" class="edge">
<title>Node3&#45;&gt;Node9</title>
<g id="a_edge9_Node000003_Node000009"><a xlink:title=" ">
<path fill="none" stroke="#63b8ff" d="M331.41,-400.91C344.27,-416.73 372.38,-447.99 404,-462.35 456.76,-486.31 525.87,-488.69 564.05,-487.82"/>
<polygon fill="#63b8ff" stroke="#63b8ff" points="564.52,-491.31 574.4,-487.49 564.3,-484.31 564.52,-491.31"/>
</a>
</g>
</g>
<!-- Node13 -->
<g id="Node000013" class="node">
<title>Node13</title>
<g id="a_Node000013"><a xlink:href="group__Auto-resize.html#gadb26f84b95f0ca45c7ccbd72e337485a" target="_top" xlink:title=" ">
<polygon fill="white" stroke="#666666" points="489,-229.85 404,-229.85 404,-210.85 489,-210.85 489,-229.85"/>
<text text-anchor="middle" x="446.5" y="-217.85" font-family="Mononoki" font-size="10.00">make_space_at</text>
</a>
</g>
</g>
<!-- Node3&#45;&gt;Node13 -->
<g id="edge15_Node000003_Node000013" class="edge">
<title>Node3&#45;&gt;Node13</title>
<g id="a_edge15_Node000003_Node000013"><a xlink:title=" ">
<path fill="none" stroke="#63b8ff" d="M330.88,-381.67C350.51,-354.04 407.02,-274.51 432.62,-238.48"/>
<polygon fill="#63b8ff" stroke="#63b8ff" points="435.76,-240.11 438.69,-229.93 430.05,-236.05 435.76,-240.11"/>
</a>
</g>
</g>
<!-- Node4&#45;&gt;Node5 -->
<g id="edge4_Node000004_Node000005" class="edge">
<title>Node4&#45;&gt;Node5</title>
<g id="a_edge4_Node000004_Node000005"><a xlink:title=" ">
<path fill="none" stroke="#63b8ff" d="M481.22,-398.67C524.68,-406.49 601.81,-414.85 662,-391.35 691.78,-379.73 717.29,-351.76 731.76,-333.19"/>
<polygon fill="#63b8ff" stroke="#63b8ff" points="734.74,-335.04 737.95,-324.94 729.15,-330.84 734.74,-335.04"/>
</a>
</g>
</g>
<!-- Node8 -->
<g id="Node000008" class="node">
<title>Node8</title>
<g id="a_Node000008"><a target="_parent" xlink:href="https://evjeesm.github.io/vector/group__Vector__API.html#gab3a5e466261d31ee9edd77a5eb280030" xlink:title=" ">
<polygon fill="white" stroke="#666666" points="628,-381.85 559,-381.85 559,-362.85 628,-362.85 628,-381.85"/>
<text text-anchor="middle" x="593.5" y="-369.85" font-family="Mononoki" font-size="10.00">vector_set</text>
</a>
</g>
</g>
<!-- Node4&#45;&gt;Node8 -->
<g id="edge7_Node000004_Node000008" class="edge">
<title>Node4&#45;&gt;Node8</title>
<g id="a_edge7_Node000004_Node000008"><a xlink:title=" ">
<path fill="none" stroke="#63b8ff" d="M481.13,-386.94C501.28,-384.3 527.12,-380.92 548.83,-378.07"/>
<polygon fill="#63b8ff" stroke="#63b8ff" points="549.34,-381.54 558.8,-376.77 548.43,-374.59 549.34,-381.54"/>
</a>
</g>
</g>
<!-- Node6 -->
<g id="Node000006" class="node">
<title>Node6</title>
<g id="a_Node000006"><a xlink:href="dynarr_8c.html#a73f42f3f25cd0920d8039d63ea31be07" target="_top" xlink:title=" ">
<polygon fill="white" stroke="#666666" points="935,-229.85 829,-229.85 829,-210.85 935,-210.85 935,-229.85"/>
<text text-anchor="middle" x="882" y="-217.85" font-family="Mononoki" font-size="10.00">get_dynarr_header</text>
</a>
</g>
</g>
<!-- Node5&#45;&gt;Node6 -->
<g id="edge5_Node000005_Node000006" class="edge">
<title>Node5&#45;&gt;Node6</title>
<g id="a_edge5_Node000005_Node000006"><a xlink:title=" ">
<path fill="none" stroke="#63b8ff" d="M760.39,-305.54C783.76,-289.03 831.15,-255.56 859.07,-235.84"/>
<polygon fill="#63b8ff" stroke="#63b8ff" points="861.24,-238.59 867.39,-229.96 857.2,-232.87 861.24,-238.59"/>
</a>
</g>
</g>
<!-- Node7 -->
<g id="Node000007" class="node">
<title>Node7</title>
<g id="a_Node000007"><a target="_parent" xlink:href="https://evjeesm.github.io/vector/group__Vector__API.html#gafc2e34dbacffe6480af8681fbf46e808" xlink:title=" ">
<polygon fill="white" stroke="#666666" points="1098,-229.85 971,-229.85 971,-210.85 1098,-210.85 1098,-229.85"/>
<text text-anchor="middle" x="1034.5" y="-217.85" font-family="Mononoki" font-size="10.00">vector_get_ext_header</text>
</a>
</g>
</g>
<!-- Node6&#45;&gt;Node7 -->
<g id="edge6_Node000006_Node000007" class="edge">
<title>Node6&#45;&gt;Node7</title>
<g id="a_edge6_Node000006_Node000007"><a xlink:title=" ">
<path fill="none" stroke="#63b8ff" d="M935.22,-220.35C943.45,-220.35 952.1,-220.35 960.7,-220.35"/>
<polygon fill="#63b8ff" stroke="#63b8ff" points="960.75,-223.85 970.75,-220.35 960.75,-216.85 960.75,-223.85"/>
</a>
</g>
</g>
<!-- Node9&#45;&gt;Node5 -->
<g id="edge12_Node000009_Node000005" class="edge">
<title>Node9&#45;&gt;Node5</title>
<g id="a_edge12_Node000009_Node000005"><a xlink:title=" ">
<path fill="none" stroke="#63b8ff" d="M612.65,-484C627.58,-481.19 648.42,-475.15 662,-462.35 691.85,-434.21 677.54,-412.91 698,-377.35 707.18,-361.4 719.83,-344.79 729.61,-332.78"/>
<polygon fill="#63b8ff" stroke="#63b8ff" points="732.44,-334.85 736.14,-324.93 727.06,-330.38 732.44,-334.85"/>
</a>
</g>
</g>
<!-- Node9&#45;&gt;Node6 -->
<g id="edge13_Node000009_Node000006" class="edge">
<title>Node9&#45;&gt;Node6</title>
<g id="a_edge13_Node000009_Node000006"><a xlink:title=" ">
<path fill="none" stroke="#63b8ff" d="M612.65,-482.2C626.82,-478.44 646.61,-471.99 662,-462.35 759.97,-400.97 840.89,-283.71 869.7,-238.63"/>
<polygon fill="#63b8ff" stroke="#63b8ff" points="872.82,-240.25 875.19,-229.93 866.9,-236.52 872.82,-240.25"/>
</a>
</g>
</g>
<!-- Node10 -->
<g id="Node000010" class="node">
<title>Node10</title>
<g id="a_Node000010"><a xlink:href="group__Dynarr__API.html#ga3ff11107726213a640d814b63cb123b2" target="_top" xlink:title=" ">
<polygon fill="white" stroke="#666666" points="793,-513.85 698,-513.85 698,-494.85 793,-494.85 793,-513.85"/>
<text text-anchor="middle" x="745.5" y="-501.85" font-family="Mononoki" font-size="10.00">dynarr_capacity</text>
</a>
</g>
</g>
<!-- Node9&#45;&gt;Node10 -->
<g id="edge10_Node000009_Node000010" class="edge">
<title>Node9&#45;&gt;Node10</title>
<g id="a_edge10_Node000009_Node000010"><a xlink:title=" ">
<path fill="none" stroke="#63b8ff" d="M612.59,-488.52C631.18,-490.75 661.08,-494.34 687.71,-497.54"/>
<polygon fill="#63b8ff" stroke="#63b8ff" points="687.38,-501.02 697.73,-498.74 688.22,-494.07 687.38,-501.02"/>
</a>
</g>
</g>
<!-- Node12 -->
<g id="Node000012" class="node">
<title>Node12</title>
<g id="a_Node000012"><a target="_parent" xlink:href="https://evjeesm.github.io/vector/group__Vector__API.html#ga6e5077303af4dfe720af5a0608553922" xlink:title=" ">
<polygon fill="white" stroke="#666666" points="788,-476.85 703,-476.85 703,-457.85 788,-457.85 788,-476.85"/>
<text text-anchor="middle" x="745.5" y="-464.85" font-family="Mononoki" font-size="10.00">vector_resize</text>
</a>
</g>
</g>
<!-- Node9&#45;&gt;Node12 -->
<g id="edge14_Node000009_Node000012" class="edge">
<title>Node9&#45;&gt;Node12</title>
<g id="a_edge14_Node000009_Node000012"><a xlink:title=" ">
<path fill="none" stroke="#63b8ff" d="M612.59,-484.06C632.37,-481.55 664.96,-477.42 692.79,-473.9"/>
<polygon fill="#63b8ff" stroke="#63b8ff" points="693.32,-477.36 702.8,-472.63 692.44,-470.42 693.32,-477.36"/>
</a>
</g>
</g>
<!-- Node11 -->
<g id="Node000011" class="node">
<title>Node11</title>
<g id="a_Node000011"><a target="_parent" xlink:href="https://evjeesm.github.io/vector/group__Vector__API.html#gab24bd801f91d4ae1ac79b54430b0409f" xlink:title=" ">
<polygon fill="white" stroke="#666666" points="929.5,-513.85 834.5,-513.85 834.5,-494.85 929.5,-494.85 929.5,-513.85"/>
<text text-anchor="middle" x="882" y="-501.85" font-family="Mononoki" font-size="10.00">vector_capacity</text>
</a>
</g>
</g>
<!-- Node10&#45;&gt;Node11 -->
<g id="edge11_Node000010_Node000011" class="edge">
<title>Node10&#45;&gt;Node11</title>
<g id="a_edge11_Node000010_Node000011"><a xlink:title=" ">
<path fill="none" stroke="#63b8ff" d="M793.16,-504.35C803.18,-504.35 813.87,-504.35 824.22,-504.35"/>
<polygon fill="#63b8ff" stroke="#63b8ff" points="824.42,-507.85 834.42,-504.35 824.42,-500.85 824.42,-507.85"/>
</a>
</g>
</g>
<!-- Node13&#45;&gt;Node5 -->
<g id="edge19_Node000013_Node000005" class="edge">
<title>Node13&#45;&gt;Node5</title>
<g id="a_edge19_Node000013_Node000005"><a xlink:title=" ">
<path fill="none" stroke="#63b8ff" d="M484.66,-229.89C527.71,-241.22 600.59,-261.25 662,-282.35 678.99,-288.19 697.6,-295.55 712.84,-301.83"/>
<polygon fill="#63b8ff" stroke="#63b8ff" points="711.74,-305.16 722.32,-305.78 714.43,-298.7 711.74,-305.16"/>
</a>
</g>
</g>
<!-- Node13&#45;&gt;Node6 -->
<g id="edge20_Node000013_Node000006" class="edge">
<title>Node13&#45;&gt;Node6</title>
<g id="a_edge20_Node000013_Node000006"><a xlink:title=" ">
<path fill="none" stroke="#63b8ff" d="M489.07,-220.35C565.59,-220.35 729.11,-220.35 818.86,-220.35"/>
<polygon fill="#63b8ff" stroke="#63b8ff" points="818.9,-223.85 828.9,-220.35 818.9,-216.85 818.9,-223.85"/>
</a>
</g>
</g>
<!-- Node13&#45;&gt;Node14 -->
<g id="edge16_Node000013_Node000014" class="edge">
<title>Node13&#45;&gt;Node14</title>
<g id="a_edge16_Node000013_Node000014"><a xlink:title=" ">
<path fill="none" stroke="#63b8ff" d="M484.09,-210.76C503.84,-205.58 528.36,-199.16 549.08,-193.73"/>
<polygon fill="#63b8ff" stroke="#63b8ff" points="550.12,-197.08 558.9,-191.15 548.34,-190.3 550.12,-197.08"/>
</a>
</g>
</g>
<!-- Node16 -->
<g id="Node000016" class="node">
<title>Node16</title>
<g id="a_Node000016"><a target="_parent" xlink:href="https://evjeesm.github.io/vector/group__Vector__API.html#gaae93d7f0c056c1d11d3232a7a7aa5e09" xlink:title=" ">
<polygon fill="white" stroke="#666666" points="651.5,-154.85 535.5,-154.85 535.5,-135.85 651.5,-135.85 651.5,-154.85"/>
<text text-anchor="middle" x="593.5" y="-142.85" font-family="Mononoki" font-size="10.00">vector_element_size</text>
</a>
</g>
</g>
<!-- Node13&#45;&gt;Node16 -->
<g id="edge21_Node000013_Node000016" class="edge">
<title>Node13&#45;&gt;Node16</title>
<g id="a_edge21_Node000013_Node000016"><a xlink:title=" ">
<path fill="none" stroke="#63b8ff" d="M458.2,-210.42C472.41,-197.74 498.8,-175.92 525,-163.35 529.05,-161.41 533.33,-159.65 537.71,-158.07"/>
<polygon fill="#63b8ff" stroke="#63b8ff" points="538.96,-161.34 547.36,-154.87 536.76,-154.69 538.96,-161.34"/>
</a>
</g>
</g>
<!-- Node14&#45;&gt;Node5 -->
<g id="edge17_Node000014_Node000005" class="edge">
<title>Node14&#45;&gt;Node5</title>
<g id="a_edge17_Node000014_Node000005"><a xlink:title=" ">
<path fill="none" stroke="#63b8ff" d="M605.29,-191.91C630.57,-214.33 693.91,-270.49 725.69,-298.67"/>
<polygon fill="#63b8ff" stroke="#63b8ff" points="723.6,-301.5 733.41,-305.51 728.25,-296.26 723.6,-301.5"/>
</a>
</g>
</g>
<!-- Node15 -->
<g id="Node000015" class="node">
<title>Node15</title>
<g id="a_Node000015"><a target="_parent" xlink:href="https://evjeesm.github.io/vector/group__Vector__API.html#ga9437d9506a3b2799f595c88b82f160b3" xlink:title=" ">
<polygon fill="white" stroke="#666666" points="780,-191.85 711,-191.85 711,-172.85 780,-172.85 780,-191.85"/>
<text text-anchor="middle" x="745.5" y="-179.85" font-family="Mononoki" font-size="10.00">vector_get</text>
</a>
</g>
</g>
<!-- Node14&#45;&gt;Node15 -->
<g id="edge18_Node000014_Node000015" class="edge">
<title>Node14&#45;&gt;Node15</title>
<g id="a_edge18_Node000014_Node000015"><a xlink:title=" ">
<path fill="none" stroke="#63b8ff" d="M628.16,-182.35C649.59,-182.35 677.55,-182.35 700.7,-182.35"/>
<polygon fill="#63b8ff" stroke="#63b8ff" points="700.95,-185.85 710.95,-182.35 700.95,-178.85 700.95,-185.85"/>
</a>
</g>
</g>
<!-- Node17&#45;&gt;Node6 -->
<g id="edge24_Node000017_Node000006" class="edge">
<title>Node17&#45;&gt;Node6</title>
<g id="a_edge24_Node000017_Node000006"><a xlink:title=" ">
<path fill="none" stroke="#63b8ff" d="M368.25,-136.65C433.03,-126.59 557.37,-111.86 662,-126.35 721.93,-134.65 737.88,-138.4 793,-163.35 817.71,-174.54 843.47,-192.01 860.69,-204.67"/>
<polygon fill="#63b8ff" stroke="#63b8ff" points="858.76,-207.59 868.86,-210.79 862.95,-201.99 858.76,-207.59"/>
</a>
</g>
</g>
<!-- Node19 -->
<g id="Node000019" class="node">
<title>Node19</title>
<g id="a_Node000019"><a target="_parent" xlink:href="https://evjeesm.github.io/vector/group__Vector__API.html#gae0c0da17ad9469e47ef376a82b6493f3" xlink:title=" ">
<polygon fill="white" stroke="#666666" points="368,-77.85 278,-77.85 278,-58.85 368,-58.85 368,-77.85"/>
<text text-anchor="middle" x="323" y="-65.85" font-family="Mononoki" font-size="10.00">vector_destroy</text>
</a>
</g>
</g>
<!-- Node18&#45;&gt;Node19 -->
<g id="edge26_Node000018_Node000019" class="edge">
<title>Node18&#45;&gt;Node19</title>
<g id="a_edge26_Node000018_Node000019"><a xlink:title=" ">
<path fill="none" stroke="#63b8ff" d="M242.07,-68.35C250.28,-68.35 258.96,-68.35 267.44,-68.35"/>
<polygon fill="#63b8ff" stroke="#63b8ff" points="267.66,-71.85 277.66,-68.35 267.66,-64.85 267.66,-71.85"/>
</a>
</g>
</g>
<!-- Node20&#45;&gt;Node6 -->
<g id="edge30_Node000020_Node000006" class="edge">
<title>Node20&#45;&gt;Node6</title>
<g id="a_edge30_Node000020_Node000006"><a xlink:title=" ">
<path fill="none" stroke="#63b8ff" d="M456.87,-59.45C470.4,-45.97 496.89,-22.44 525,-13.35 582.93,5.39 603.38,3.13 662,-13.35 727.67,-31.82 743.39,-46.52 793,-93.35 827.94,-126.33 857.07,-175.33 871.41,-201.79"/>
<polygon fill="#63b8ff" stroke="#63b8ff" points="868.38,-203.55 876.17,-210.75 874.57,-200.27 868.38,-203.55"/>
</a>
</g>
</g>
<!-- Node20&#45;&gt;Node16 -->
<g id="edge32_Node000020_Node000016" class="edge">
<title>Node20&#45;&gt;Node16</title>
<g id="a_edge32_Node000020_Node000016"><a xlink:title=" ">
<path fill="none" stroke="#63b8ff" d="M465.86,-78.98C490.92,-92.11 536.03,-115.75 565.09,-130.99"/>
<polygon fill="#63b8ff" stroke="#63b8ff" points="563.8,-134.26 574.28,-135.8 567.05,-128.06 563.8,-134.26"/>
</a>
</g>
</g>
<!-- Node21 -->
<g id="Node000021" class="node">
<title>Node21</title>
<g id="a_Node000021"><a target="_parent" xlink:href="https://evjeesm.github.io/vector/group__Vector__API.html#ga435ecb8dca435624d8d277feb6b2cc80" xlink:title=" ">
<polygon fill="white" stroke="#666666" points="649,-78.85 538,-78.85 538,-59.85 649,-59.85 649,-78.85"/>
<text text-anchor="middle" x="593.5" y="-66.85" font-family="Mononoki" font-size="10.00">vector_data_offset</text>
</a>
</g>
</g>
<!-- Node20&#45;&gt;Node21 -->
<g id="edge31_Node000020_Node000021" class="edge">
<title>Node20&#45;&gt;Node21</title>
<g id="a_edge31_Node000020_Node000021"><a xlink:title=" ">
<path fill="none" stroke="#63b8ff" d="M476.15,-69.35C490.91,-69.35 509.56,-69.35 527.58,-69.35"/>
<polygon fill="#63b8ff" stroke="#63b8ff" points="527.79,-72.85 537.79,-69.35 527.79,-65.85 527.79,-72.85"/>
</a>
</g>
</g>
<!-- Node22 -->
<g id="Node000022" class="node">
<title>Node22</title>
<g id="a_Node000022"><a target="_parent" xlink:href="https://evjeesm.github.io/vector/group__Vector__API.html#ga8920a1d7d9d5db65a90e0e27b112ed2e" xlink:title=" ">
<polygon fill="white" stroke="#666666" points="662,-41.85 525,-41.85 525,-22.85 662,-22.85 662,-41.85"/>
<text text-anchor="middle" x="593.5" y="-29.85" font-family="Mononoki" font-size="10.00">vector_initial_capacity</text>
</a>
</g>
</g>
<!-- Node20&#45;&gt;Node22 -->
<g id="edge33_Node000020_Node000022" class="edge">
<title>Node20&#45;&gt;Node22</title>
<g id="a_edge33_Node000020_Node000022"><a xlink:title=" ">
<path fill="none" stroke="#63b8ff" d="M476.15,-62.04C495.85,-57.01 522.46,-50.22 545.27,-44.4"/>
<polygon fill="#63b8ff" stroke="#63b8ff" points="546.28,-47.75 555.11,-41.89 544.55,-40.97 546.28,-47.75"/>
</a>
</g>
</g>
</g>
</svg>
