<?xml version="1.0" encoding="UTF-8" standalone="no"?>
<!DOCTYPE svg PUBLIC "-//W3C//DTD SVG 1.1//EN"
 "http://www.w3.org/Graphics/SVG/1.1/DTD/svg11.dtd">
<!-- Generated by graphviz version 2.43.0 (0)
 -->
<!-- Title: dynarr_aggregate Pages: 1 -->
<svg width="551pt" height="64pt"
 viewBox="0.00 0.00 551.00 64.00" xmlns="http://www.w3.org/2000/svg" xmlns:xlink="http://www.w3.org/1999/xlink">
<g id="graph0" class="graph" transform="scale(1 1) rotate(0) translate(4 60)">
<title>dynarr_aggregate</title>
<!-- Node1 -->
<g id="Node000001" class="node">
<title>Node1</title>
<g id="a_Node000001"><a xlink:title=" ">
<polygon fill="#999999" stroke="#666666" points="101,-37 0,-37 0,-18 101,-18 101,-37"/>
<text text-anchor="middle" x="50.5" y="-25" font-family="Mononoki" font-size="10.00">dynarr_aggregate</text>
</a>
</g>
</g>
<!-- Node2 -->
<g id="Node000002" class="node">
<title>Node2</title>
<g id="a_Node000002"><a xlink:href="group__Dynarr__API.html#gaf5c43e2644d185b9b01065af34ed6e29" target="_top" xlink:title=" ">
<polygon fill="white" stroke="#666666" points="224.5,-56 150.5,-56 150.5,-37 224.5,-37 224.5,-56"/>
<text text-anchor="middle" x="187.5" y="-44" font-family="Mononoki" font-size="10.00">dynarr_size</text>
</a>
</g>
</g>
<!-- Node1&#45;&gt;Node2 -->
<g id="edge1_Node000001_Node000002" class="edge">
<title>Node1&#45;&gt;Node2</title>
<g id="a_edge1_Node000001_Node000002"><a xlink:title=" ">
<path fill="none" stroke="#63b8ff" d="M101,-34.47C113.7,-36.25 127.32,-38.17 139.87,-39.94"/>
<polygon fill="#63b8ff" stroke="#63b8ff" points="139.72,-43.45 150.11,-41.38 140.7,-36.52 139.72,-43.45"/>
</a>
</g>
</g>
<!-- Node5 -->
<g id="Node000005" class="node">
<title>Node5</title>
<g id="a_Node000005"><a target="_parent" xlink:href="https://evjeesm.github.io/vector/group__Vector__API.html#ga1a193e06f6700de896628631b8569740" xlink:title=" ">
<polygon fill="white" stroke="#666666" points="238,-19 137,-19 137,0 238,0 238,-19"/>
<text text-anchor="middle" x="187.5" y="-7" font-family="Mononoki" font-size="10.00">vector_aggregate</text>
</a>
</g>
</g>
<!-- Node1&#45;&gt;Node5 -->
<g id="edge4_Node000001_Node000005" class="edge">
<title>Node1&#45;&gt;Node5</title>
<g id="a_edge4_Node000001_Node000005"><a xlink:title=" ">
<path fill="none" stroke="#63b8ff" d="M101,-20.9C109.33,-19.79 118.06,-18.63 126.61,-17.48"/>
<polygon fill="#63b8ff" stroke="#63b8ff" points="127.1,-20.95 136.55,-16.16 126.18,-14.01 127.1,-20.95"/>
</a>
</g>
</g>
<!-- Node3 -->
<g id="Node000003" class="node">
<title>Node3</title>
<g id="a_Node000003"><a xlink:href="dynarr_8c.html#a73f42f3f25cd0920d8039d63ea31be07" target="_top" xlink:title=" ">
<polygon fill="white" stroke="#666666" points="380,-56 274,-56 274,-37 380,-37 380,-56"/>
<text text-anchor="middle" x="327" y="-44" font-family="Mononoki" font-size="10.00">get_dynarr_header</text>
</a>
</g>
</g>
<!-- Node2&#45;&gt;Node3 -->
<g id="edge2_Node000002_Node000003" class="edge">
<title>Node2&#45;&gt;Node3</title>
<g id="a_edge2_Node000002_Node000003"><a xlink:title=" ">
<path fill="none" stroke="#63b8ff" d="M224.63,-46.5C236.61,-46.5 250.32,-46.5 263.69,-46.5"/>
<polygon fill="#63b8ff" stroke="#63b8ff" points="263.82,-50 273.82,-46.5 263.82,-43 263.82,-50"/>
</a>
</g>
</g>
<!-- Node4 -->
<g id="Node000004" class="node">
<title>Node4</title>
<g id="a_Node000004"><a target="_parent" xlink:href="https://evjeesm.github.io/vector/group__Vector__API.html#gafc2e34dbacffe6480af8681fbf46e808" xlink:title=" ">
<polygon fill="white" stroke="#666666" points="543,-56 416,-56 416,-37 543,-37 543,-56"/>
<text text-anchor="middle" x="479.5" y="-44" font-family="Mononoki" font-size="10.00">vector_get_ext_header</text>
</a>
</g>
</g>
<!-- Node3&#45;&gt;Node4 -->
<g id="edge3_Node000003_Node000004" class="edge">
<title>Node3&#45;&gt;Node4</title>
<g id="a_edge3_Node000003_Node000004"><a xlink:title=" ">
<path fill="none" stroke="#63b8ff" d="M380.22,-46.5C388.45,-46.5 397.1,-46.5 405.7,-46.5"/>
<polygon fill="#63b8ff" stroke="#63b8ff" points="405.75,-50 415.75,-46.5 405.75,-43 405.75,-50"/>
</a>
</g>
</g>
</g>
</svg>
