<?xml version="1.0" encoding="UTF-8" standalone="no"?>
<!DOCTYPE svg PUBLIC "-//W3C//DTD SVG 1.1//EN"
 "http://www.w3.org/Graphics/SVG/1.1/DTD/svg11.dtd">
<!-- Generated by graphviz version 2.43.0 (0)
 -->
<!-- Title: dynarr_insert Pages: 1 -->
<svg width="802pt" height="322pt"
 viewBox="0.00 0.00 802.00 322.16" xmlns="http://www.w3.org/2000/svg" xmlns:xlink="http://www.w3.org/1999/xlink">
<g id="graph0" class="graph" transform="scale(1 1) rotate(0) translate(4 318.16)">
<title>dynarr_insert</title>
<!-- Node1 -->
<g id="Node000001" class="node">
<title>Node1</title>
<g id="a_Node000001"><a xlink:title=" ">
<polygon fill="#999999" stroke="#666666" points="85,-193.16 0,-193.16 0,-174.16 85,-174.16 85,-193.16"/>
<text text-anchor="middle" x="42.5" y="-181.16" font-family="Mononoki" font-size="10.00">dynarr_insert</text>
</a>
</g>
</g>
<!-- Node2 -->
<g id="Node000002" class="node">
<title>Node2</title>
<g id="a_Node000002"><a xlink:href="group__Dynarr__API.html#ga30d508a9f387e2227dd0d72a8bfd2a39" target="_top" xlink:title=" ">
<polygon fill="white" stroke="#666666" points="198,-212.16 129,-212.16 129,-193.16 198,-193.16 198,-212.16"/>
<text text-anchor="middle" x="163.5" y="-200.16" font-family="Mononoki" font-size="10.00">dynarr_set</text>
</a>
</g>
</g>
<!-- Node1&#45;&gt;Node2 -->
<g id="edge1_Node000001_Node000002" class="edge">
<title>Node1&#45;&gt;Node2</title>
<g id="a_edge1_Node000001_Node000002"><a xlink:title=" ">
<path fill="none" stroke="#63b8ff" d="M85.12,-190.3C96.1,-192.06 107.98,-193.95 119.05,-195.72"/>
<polygon fill="#63b8ff" stroke="#63b8ff" points="118.52,-199.18 128.95,-197.3 119.63,-192.27 118.52,-199.18"/>
</a>
</g>
</g>
<!-- Node3 -->
<g id="Node000003" class="node">
<title>Node3</title>
<g id="a_Node000003"><a xlink:href="group__Dynarr__API.html#gaf5c43e2644d185b9b01065af34ed6e29" target="_top" xlink:title=" ">
<polygon fill="white" stroke="#666666" points="478.5,-174.16 404.5,-174.16 404.5,-155.16 478.5,-155.16 478.5,-174.16"/>
<text text-anchor="middle" x="441.5" y="-162.16" font-family="Mononoki" font-size="10.00">dynarr_size</text>
</a>
</g>
</g>
<!-- Node1&#45;&gt;Node3 -->
<g id="edge6_Node000001_Node000003" class="edge">
<title>Node1&#45;&gt;Node3</title>
<g id="a_edge6_Node000001_Node000003"><a xlink:title=" ">
<path fill="none" stroke="#63b8ff" d="M85.24,-181.66C160.02,-178.08 316.29,-170.6 394.23,-166.87"/>
<polygon fill="#63b8ff" stroke="#63b8ff" points="394.42,-170.37 404.24,-166.39 394.09,-163.38 394.42,-170.37"/>
</a>
</g>
</g>
<!-- Node7 -->
<g id="Node000007" class="node">
<title>Node7</title>
<g id="a_Node000007"><a xlink:href="group__Auto-resize.html#ga036b69c5b674d3ac22027b04ba235b42" target="_top" xlink:title=" ">
<polygon fill="white" stroke="#666666" points="319,-287.16 281,-287.16 281,-268.16 319,-268.16 319,-287.16"/>
<text text-anchor="middle" x="300" y="-275.16" font-family="Mononoki" font-size="10.00">grow</text>
</a>
</g>
</g>
<!-- Node1&#45;&gt;Node7 -->
<g id="edge7_Node000001_Node000007" class="edge">
<title>Node1&#45;&gt;Node7</title>
<g id="a_edge7_Node000001_Node000007"><a xlink:title=" ">
<path fill="none" stroke="#63b8ff" d="M61.01,-193.19C76.49,-201.39 99.85,-213.2 121,-221.66 172.88,-242.4 235.65,-260.61 271.09,-270.29"/>
<polygon fill="#63b8ff" stroke="#63b8ff" points="270.18,-273.67 280.75,-272.9 272.01,-266.91 270.18,-273.67"/>
</a>
</g>
</g>
<!-- Node11 -->
<g id="Node000011" class="node">
<title>Node11</title>
<g id="a_Node000011"><a xlink:href="group__Auto-resize.html#gadb26f84b95f0ca45c7ccbd72e337485a" target="_top" xlink:title=" ">
<polygon fill="white" stroke="#666666" points="206,-98.16 121,-98.16 121,-79.16 206,-79.16 206,-98.16"/>
<text text-anchor="middle" x="163.5" y="-86.16" font-family="Mononoki" font-size="10.00">make_space_at</text>
</a>
</g>
</g>
<!-- Node1&#45;&gt;Node11 -->
<g id="edge13_Node000001_Node000011" class="edge">
<title>Node1&#45;&gt;Node11</title>
<g id="a_edge13_Node000001_Node000011"><a xlink:title=" ">
<path fill="none" stroke="#63b8ff" d="M55.79,-173.85C76.29,-157.48 117.67,-124.44 142.45,-104.67"/>
<polygon fill="#63b8ff" stroke="#63b8ff" points="144.83,-107.25 150.46,-98.27 140.46,-101.78 144.83,-107.25"/>
</a>
</g>
</g>
<!-- Node2&#45;&gt;Node3 -->
<g id="edge2_Node000002_Node000003" class="edge">
<title>Node2&#45;&gt;Node3</title>
<g id="a_edge2_Node000002_Node000003"><a xlink:title=" ">
<path fill="none" stroke="#63b8ff" d="M198.12,-198.95C236.77,-194.58 302.07,-186.87 358,-178.66 369.78,-176.93 382.48,-174.87 394.3,-172.87"/>
<polygon fill="#63b8ff" stroke="#63b8ff" points="395.15,-176.28 404.41,-171.14 393.97,-169.38 395.15,-176.28"/>
</a>
</g>
</g>
<!-- Node6 -->
<g id="Node000006" class="node">
<title>Node6</title>
<g id="a_Node000006"><a target="_parent" xlink:href="https://evjeesm.github.io/vector/group__Vector__API.html#gab3a5e466261d31ee9edd77a5eb280030" xlink:title=" ">
<polygon fill="white" stroke="#666666" points="334.5,-250.16 265.5,-250.16 265.5,-231.16 334.5,-231.16 334.5,-250.16"/>
<text text-anchor="middle" x="300" y="-238.16" font-family="Mononoki" font-size="10.00">vector_set</text>
</a>
</g>
</g>
<!-- Node2&#45;&gt;Node6 -->
<g id="edge5_Node000002_Node000006" class="edge">
<title>Node2&#45;&gt;Node6</title>
<g id="a_edge5_Node000002_Node000006"><a xlink:title=" ">
<path fill="none" stroke="#63b8ff" d="M198.09,-212.15C215.51,-217.07 236.97,-223.13 255.63,-228.4"/>
<polygon fill="#63b8ff" stroke="#63b8ff" points="254.79,-231.81 265.37,-231.16 256.7,-225.07 254.79,-231.81"/>
</a>
</g>
</g>
<!-- Node4 -->
<g id="Node000004" class="node">
<title>Node4</title>
<g id="a_Node000004"><a xlink:href="dynarr_8c.html#a73f42f3f25cd0920d8039d63ea31be07" target="_top" xlink:title=" ">
<polygon fill="white" stroke="#666666" points="631,-174.16 525,-174.16 525,-155.16 631,-155.16 631,-174.16"/>
<text text-anchor="middle" x="578" y="-162.16" font-family="Mononoki" font-size="10.00">get_dynarr_header</text>
</a>
</g>
</g>
<!-- Node3&#45;&gt;Node4 -->
<g id="edge3_Node000003_Node000004" class="edge">
<title>Node3&#45;&gt;Node4</title>
<g id="a_edge3_Node000003_Node000004"><a xlink:title=" ">
<path fill="none" stroke="#63b8ff" d="M478.54,-164.66C489.67,-164.66 502.26,-164.66 514.63,-164.66"/>
<polygon fill="#63b8ff" stroke="#63b8ff" points="514.93,-168.16 524.93,-164.66 514.93,-161.16 514.93,-168.16"/>
</a>
</g>
</g>
<!-- Node5 -->
<g id="Node000005" class="node">
<title>Node5</title>
<g id="a_Node000005"><a target="_parent" xlink:href="https://evjeesm.github.io/vector/group__Vector__API.html#gafc2e34dbacffe6480af8681fbf46e808" xlink:title=" ">
<polygon fill="white" stroke="#666666" points="794,-174.16 667,-174.16 667,-155.16 794,-155.16 794,-174.16"/>
<text text-anchor="middle" x="730.5" y="-162.16" font-family="Mononoki" font-size="10.00">vector_get_ext_header</text>
</a>
</g>
</g>
<!-- Node4&#45;&gt;Node5 -->
<g id="edge4_Node000004_Node000005" class="edge">
<title>Node4&#45;&gt;Node5</title>
<g id="a_edge4_Node000004_Node000005"><a xlink:title=" ">
<path fill="none" stroke="#63b8ff" d="M631.22,-164.66C639.45,-164.66 648.1,-164.66 656.7,-164.66"/>
<polygon fill="#63b8ff" stroke="#63b8ff" points="656.75,-168.16 666.75,-164.66 656.75,-161.16 656.75,-168.16"/>
</a>
</g>
</g>
<!-- Node7&#45;&gt;Node3 -->
<g id="edge10_Node000007_Node000003" class="edge">
<title>Node7&#45;&gt;Node3</title>
<g id="a_edge10_Node000007_Node000003"><a xlink:title=" ">
<path fill="none" stroke="#63b8ff" d="M319.11,-275.11C331.07,-272.71 346.6,-268.15 358,-259.66 380.84,-242.65 375.3,-228.13 394,-206.66 402.01,-197.46 411.93,-188.26 420.54,-180.82"/>
<polygon fill="#63b8ff" stroke="#63b8ff" points="422.9,-183.41 428.3,-174.29 418.4,-178.06 422.9,-183.41"/>
</a>
</g>
</g>
<!-- Node7&#45;&gt;Node4 -->
<g id="edge11_Node000007_Node000004" class="edge">
<title>Node7&#45;&gt;Node4</title>
<g id="a_edge11_Node000007_Node000004"><a xlink:title=" ">
<path fill="none" stroke="#63b8ff" d="M319.13,-272.45C330.41,-269.09 345.17,-264.45 358,-259.66 427.01,-233.87 505.77,-198.1 547.47,-178.63"/>
<polygon fill="#63b8ff" stroke="#63b8ff" points="549.19,-181.69 556.76,-174.28 546.22,-175.35 549.19,-181.69"/>
</a>
</g>
</g>
<!-- Node8 -->
<g id="Node000008" class="node">
<title>Node8</title>
<g id="a_Node000008"><a xlink:href="group__Dynarr__API.html#ga3ff11107726213a640d814b63cb123b2" target="_top" xlink:title=" ">
<polygon fill="white" stroke="#666666" points="489,-314.16 394,-314.16 394,-295.16 489,-295.16 489,-314.16"/>
<text text-anchor="middle" x="441.5" y="-302.16" font-family="Mononoki" font-size="10.00">dynarr_capacity</text>
</a>
</g>
</g>
<!-- Node7&#45;&gt;Node8 -->
<g id="edge8_Node000007_Node000008" class="edge">
<title>Node7&#45;&gt;Node8</title>
<g id="a_edge8_Node000007_Node000008"><a xlink:title=" ">
<path fill="none" stroke="#63b8ff" d="M319.24,-281.19C335.64,-284.36 360.64,-289.2 383.68,-293.66"/>
<polygon fill="#63b8ff" stroke="#63b8ff" points="383.27,-297.15 393.75,-295.61 384.6,-290.27 383.27,-297.15"/>
</a>
</g>
</g>
<!-- Node10 -->
<g id="Node000010" class="node">
<title>Node10</title>
<g id="a_Node000010"><a target="_parent" xlink:href="https://evjeesm.github.io/vector/group__Vector__API.html#ga6e5077303af4dfe720af5a0608553922" xlink:title=" ">
<polygon fill="white" stroke="#666666" points="484,-277.16 399,-277.16 399,-258.16 484,-258.16 484,-277.16"/>
<text text-anchor="middle" x="441.5" y="-265.16" font-family="Mononoki" font-size="10.00">vector_resize</text>
</a>
</g>
</g>
<!-- Node7&#45;&gt;Node10 -->
<g id="edge12_Node000007_Node000010" class="edge">
<title>Node7&#45;&gt;Node10</title>
<g id="a_edge12_Node000007_Node000010"><a xlink:title=" ">
<path fill="none" stroke="#63b8ff" d="M319.24,-276.35C336.81,-275.09 364.25,-273.12 388.59,-271.38"/>
<polygon fill="#63b8ff" stroke="#63b8ff" points="389.06,-274.85 398.79,-270.65 388.56,-267.87 389.06,-274.85"/>
</a>
</g>
</g>
<!-- Node9 -->
<g id="Node000009" class="node">
<title>Node9</title>
<g id="a_Node000009"><a target="_parent" xlink:href="https://evjeesm.github.io/vector/group__Vector__API.html#gab24bd801f91d4ae1ac79b54430b0409f" xlink:title=" ">
<polygon fill="white" stroke="#666666" points="625.5,-314.16 530.5,-314.16 530.5,-295.16 625.5,-295.16 625.5,-314.16"/>
<text text-anchor="middle" x="578" y="-302.16" font-family="Mononoki" font-size="10.00">vector_capacity</text>
</a>
</g>
</g>
<!-- Node8&#45;&gt;Node9 -->
<g id="edge9_Node000008_Node000009" class="edge">
<title>Node8&#45;&gt;Node9</title>
<g id="a_edge9_Node000008_Node000009"><a xlink:title=" ">
<path fill="none" stroke="#63b8ff" d="M489.16,-304.66C499.18,-304.66 509.87,-304.66 520.22,-304.66"/>
<polygon fill="#63b8ff" stroke="#63b8ff" points="520.42,-308.16 530.42,-304.66 520.42,-301.16 520.42,-308.16"/>
</a>
</g>
</g>
<!-- Node11&#45;&gt;Node3 -->
<g id="edge17_Node000011_Node000003" class="edge">
<title>Node11&#45;&gt;Node3</title>
<g id="a_edge17_Node000011_Node000003"><a xlink:title=" ">
<path fill="none" stroke="#63b8ff" d="M199.18,-98.21C249.06,-111.94 341.09,-137.29 395.96,-152.39"/>
<polygon fill="#63b8ff" stroke="#63b8ff" points="395.18,-155.81 405.75,-155.09 397.04,-149.06 395.18,-155.81"/>
</a>
</g>
</g>
<!-- Node11&#45;&gt;Node4 -->
<g id="edge18_Node000011_Node000004" class="edge">
<title>Node11&#45;&gt;Node4</title>
<g id="a_edge18_Node000011_Node000004"><a xlink:title=" ">
<path fill="none" stroke="#63b8ff" d="M173.87,-78.76C187.4,-65.27 213.89,-41.75 242,-32.66 346.45,1.13 392.21,19.14 489,-32.66 533.97,-56.72 559.92,-115.03 570.84,-145.46"/>
<polygon fill="#63b8ff" stroke="#63b8ff" points="567.54,-146.63 574.09,-154.96 574.17,-144.36 567.54,-146.63"/>
</a>
</g>
</g>
<!-- Node12 -->
<g id="Node000012" class="node">
<title>Node12</title>
<g id="a_Node000012"><a xlink:href="group__Dynarr__API.html#ga93c32dd116523090126d427cce08e114" target="_top" xlink:title=" ">
<polygon fill="white" stroke="#666666" points="334.5,-61.16 265.5,-61.16 265.5,-42.16 334.5,-42.16 334.5,-61.16"/>
<text text-anchor="middle" x="300" y="-49.16" font-family="Mononoki" font-size="10.00">dynarr_get</text>
</a>
</g>
</g>
<!-- Node11&#45;&gt;Node12 -->
<g id="edge14_Node000011_Node000012" class="edge">
<title>Node11&#45;&gt;Node12</title>
<g id="a_edge14_Node000011_Node000012"><a xlink:title=" ">
<path fill="none" stroke="#63b8ff" d="M199.14,-79.13C216.34,-74.4 237.31,-68.63 255.58,-63.6"/>
<polygon fill="#63b8ff" stroke="#63b8ff" points="256.7,-66.93 265.41,-60.9 254.84,-60.18 256.7,-66.93"/>
</a>
</g>
</g>
<!-- Node14 -->
<g id="Node000014" class="node">
<title>Node14</title>
<g id="a_Node000014"><a target="_parent" xlink:href="https://evjeesm.github.io/vector/group__Vector__API.html#gaae93d7f0c056c1d11d3232a7a7aa5e09" xlink:title=" ">
<polygon fill="white" stroke="#666666" points="358,-98.16 242,-98.16 242,-79.16 358,-79.16 358,-98.16"/>
<text text-anchor="middle" x="300" y="-86.16" font-family="Mononoki" font-size="10.00">vector_element_size</text>
</a>
</g>
</g>
<!-- Node11&#45;&gt;Node14 -->
<g id="edge19_Node000011_Node000014" class="edge">
<title>Node11&#45;&gt;Node14</title>
<g id="a_edge19_Node000011_Node000014"><a xlink:title=" ">
<path fill="none" stroke="#63b8ff" d="M206.32,-88.66C214.41,-88.66 223.08,-88.66 231.75,-88.66"/>
<polygon fill="#63b8ff" stroke="#63b8ff" points="231.89,-92.16 241.89,-88.66 231.89,-85.16 231.89,-92.16"/>
</a>
</g>
</g>
<!-- Node12&#45;&gt;Node3 -->
<g id="edge15_Node000012_Node000003" class="edge">
<title>Node12&#45;&gt;Node3</title>
<g id="a_edge15_Node000012_Node000003"><a xlink:title=" ">
<path fill="none" stroke="#63b8ff" d="M334.64,-58.93C342.69,-61.55 350.97,-65.05 358,-69.66 389.02,-90.02 415.2,-125.18 429.3,-146.54"/>
<polygon fill="#63b8ff" stroke="#63b8ff" points="426.4,-148.5 434.75,-155.03 432.29,-144.72 426.4,-148.5"/>
</a>
</g>
</g>
<!-- Node13 -->
<g id="Node000013" class="node">
<title>Node13</title>
<g id="a_Node000013"><a target="_parent" xlink:href="https://evjeesm.github.io/vector/group__Vector__API.html#ga9437d9506a3b2799f595c88b82f160b3" xlink:title=" ">
<polygon fill="white" stroke="#666666" points="476,-61.16 407,-61.16 407,-42.16 476,-42.16 476,-61.16"/>
<text text-anchor="middle" x="441.5" y="-49.16" font-family="Mononoki" font-size="10.00">vector_get</text>
</a>
</g>
</g>
<!-- Node12&#45;&gt;Node13 -->
<g id="edge16_Node000012_Node000013" class="edge">
<title>Node12&#45;&gt;Node13</title>
<g id="a_edge16_Node000012_Node000013"><a xlink:title=" ">
<path fill="none" stroke="#63b8ff" d="M334.77,-51.66C353.31,-51.66 376.52,-51.66 396.47,-51.66"/>
<polygon fill="#63b8ff" stroke="#63b8ff" points="396.56,-55.16 406.56,-51.66 396.56,-48.16 396.56,-55.16"/>
</a>
</g>
</g>
</g>
</svg>
