<?xml version="1.0" encoding="UTF-8" standalone="no"?>
<!DOCTYPE svg PUBLIC "-//W3C//DTD SVG 1.1//EN"
 "http://www.w3.org/Graphics/SVG/1.1/DTD/svg11.dtd">
<!-- Generated by graphviz version 2.43.0 (0)
 -->
<!-- Title: grow Pages: 1 -->
<svg width="482pt" height="140pt"
 viewBox="0.00 0.00 482.00 140.00" xmlns="http://www.w3.org/2000/svg" xmlns:xlink="http://www.w3.org/1999/xlink">
<g id="graph0" class="graph" transform="scale(1 1) rotate(0) translate(4 136)">
<title>grow</title>
<!-- Node1 -->
<g id="Node000001" class="node">
<title>Node1</title>
<g id="a_Node000001"><a xlink:title=" ">
<polygon fill="#999999" stroke="#666666" points="38,-76 0,-76 0,-57 38,-57 38,-76"/>
<text text-anchor="middle" x="19" y="-64" font-family="Mononoki" font-size="10.00">grow</text>
</a>
</g>
</g>
<!-- Node2 -->
<g id="Node000002" class="node">
<title>Node2</title>
<g id="a_Node000002"><a xlink:href="group__Dynarr__API.html#ga3ff11107726213a640d814b63cb123b2" target="_top" xlink:title=" ">
<polygon fill="white" stroke="#666666" points="169,-132 74,-132 74,-113 169,-113 169,-132"/>
<text text-anchor="middle" x="121.5" y="-120" font-family="Mononoki" font-size="10.00">dynarr_capacity</text>
</a>
</g>
</g>
<!-- Node1&#45;&gt;Node2 -->
<g id="edge1_Node000001_Node000002" class="edge">
<title>Node1&#45;&gt;Node2</title>
<g id="a_edge1_Node000001_Node000002"><a xlink:title=" ">
<path fill="none" stroke="#63b8ff" d="M31.89,-76.15C42.48,-84.42 58.64,-96.28 74,-104.5 76.9,-106.05 79.96,-107.54 83.08,-108.95"/>
<polygon fill="#63b8ff" stroke="#63b8ff" points="81.89,-112.25 92.47,-112.92 84.62,-105.8 81.89,-112.25"/>
</a>
</g>
</g>
<!-- Node4 -->
<g id="Node000004" class="node">
<title>Node4</title>
<g id="a_Node000004"><a xlink:href="group__Dynarr__API.html#gaf5c43e2644d185b9b01065af34ed6e29" target="_top" xlink:title=" ">
<polygon fill="white" stroke="#666666" points="158.5,-95 84.5,-95 84.5,-76 158.5,-76 158.5,-95"/>
<text text-anchor="middle" x="121.5" y="-83" font-family="Mononoki" font-size="10.00">dynarr_size</text>
</a>
</g>
</g>
<!-- Node1&#45;&gt;Node4 -->
<g id="edge3_Node000001_Node000004" class="edge">
<title>Node1&#45;&gt;Node4</title>
<g id="a_edge3_Node000001_Node000004"><a xlink:title=" ">
<path fill="none" stroke="#63b8ff" d="M38.43,-69.98C48.54,-71.9 61.56,-74.36 74.24,-76.75"/>
<polygon fill="#63b8ff" stroke="#63b8ff" points="73.8,-80.23 84.27,-78.65 75.1,-73.35 73.8,-80.23"/>
</a>
</g>
</g>
<!-- Node5 -->
<g id="Node000005" class="node">
<title>Node5</title>
<g id="a_Node000005"><a xlink:href="dynarr_8c.html#a73f42f3f25cd0920d8039d63ea31be07" target="_top" xlink:title=" ">
<polygon fill="white" stroke="#666666" points="311,-76 205,-76 205,-57 311,-57 311,-76"/>
<text text-anchor="middle" x="258" y="-64" font-family="Mononoki" font-size="10.00">get_dynarr_header</text>
</a>
</g>
</g>
<!-- Node1&#45;&gt;Node5 -->
<g id="edge6_Node000001_Node000005" class="edge">
<title>Node1&#45;&gt;Node5</title>
<g id="a_edge6_Node000001_Node000005"><a xlink:title=" ">
<path fill="none" stroke="#63b8ff" d="M38.2,-66.5C71.23,-66.5 142.43,-66.5 194.68,-66.5"/>
<polygon fill="#63b8ff" stroke="#63b8ff" points="194.86,-70 204.86,-66.5 194.86,-63 194.86,-70"/>
</a>
</g>
</g>
<!-- Node7 -->
<g id="Node000007" class="node">
<title>Node7</title>
<g id="a_Node000007"><a target="_parent" xlink:href="https://evjeesm.github.io/vector/group__Vector__API.html#ga6e5077303af4dfe720af5a0608553922" xlink:title=" ">
<polygon fill="white" stroke="#666666" points="164,-19 79,-19 79,0 164,0 164,-19"/>
<text text-anchor="middle" x="121.5" y="-7" font-family="Mononoki" font-size="10.00">vector_resize</text>
</a>
</g>
</g>
<!-- Node1&#45;&gt;Node7 -->
<g id="edge7_Node000001_Node000007" class="edge">
<title>Node1&#45;&gt;Node7</title>
<g id="a_edge7_Node000001_Node000007"><a xlink:title=" ">
<path fill="none" stroke="#63b8ff" d="M34.96,-56.96C45.7,-50.2 60.59,-41.04 74,-33.5 79.82,-30.23 86.13,-26.85 92.17,-23.71"/>
<polygon fill="#63b8ff" stroke="#63b8ff" points="94.04,-26.69 101.33,-19 90.84,-20.46 94.04,-26.69"/>
</a>
</g>
</g>
<!-- Node3 -->
<g id="Node000003" class="node">
<title>Node3</title>
<g id="a_Node000003"><a target="_parent" xlink:href="https://evjeesm.github.io/vector/group__Vector__API.html#gab24bd801f91d4ae1ac79b54430b0409f" xlink:title=" ">
<polygon fill="white" stroke="#666666" points="305.5,-132 210.5,-132 210.5,-113 305.5,-113 305.5,-132"/>
<text text-anchor="middle" x="258" y="-120" font-family="Mononoki" font-size="10.00">vector_capacity</text>
</a>
</g>
</g>
<!-- Node2&#45;&gt;Node3 -->
<g id="edge2_Node000002_Node000003" class="edge">
<title>Node2&#45;&gt;Node3</title>
<g id="a_edge2_Node000002_Node000003"><a xlink:title=" ">
<path fill="none" stroke="#63b8ff" d="M169.16,-122.5C179.18,-122.5 189.87,-122.5 200.22,-122.5"/>
<polygon fill="#63b8ff" stroke="#63b8ff" points="200.42,-126 210.42,-122.5 200.42,-119 200.42,-126"/>
</a>
</g>
</g>
<!-- Node4&#45;&gt;Node5 -->
<g id="edge4_Node000004_Node000005" class="edge">
<title>Node4&#45;&gt;Node5</title>
<g id="a_edge4_Node000004_Node000005"><a xlink:title=" ">
<path fill="none" stroke="#63b8ff" d="M158.54,-80.41C169.78,-78.82 182.51,-77.02 195,-75.26"/>
<polygon fill="#63b8ff" stroke="#63b8ff" points="195.51,-78.72 204.93,-73.86 194.53,-71.79 195.51,-78.72"/>
</a>
</g>
</g>
<!-- Node6 -->
<g id="Node000006" class="node">
<title>Node6</title>
<g id="a_Node000006"><a target="_parent" xlink:href="https://evjeesm.github.io/vector/group__Vector__API.html#gafc2e34dbacffe6480af8681fbf46e808" xlink:title=" ">
<polygon fill="white" stroke="#666666" points="474,-76 347,-76 347,-57 474,-57 474,-76"/>
<text text-anchor="middle" x="410.5" y="-64" font-family="Mononoki" font-size="10.00">vector_get_ext_header</text>
</a>
</g>
</g>
<!-- Node5&#45;&gt;Node6 -->
<g id="edge5_Node000005_Node000006" class="edge">
<title>Node5&#45;&gt;Node6</title>
<g id="a_edge5_Node000005_Node000006"><a xlink:title=" ">
<path fill="none" stroke="#63b8ff" d="M311.22,-66.5C319.45,-66.5 328.1,-66.5 336.7,-66.5"/>
<polygon fill="#63b8ff" stroke="#63b8ff" points="336.75,-70 346.75,-66.5 336.75,-63 336.75,-70"/>
</a>
</g>
</g>
</g>
</svg>
