<?xml version="1.0" encoding="UTF-8" standalone="no"?>
<!DOCTYPE svg PUBLIC "-//W3C//DTD SVG 1.1//EN"
 "http://www.w3.org/Graphics/SVG/1.1/DTD/svg11.dtd">
<!-- Generated by graphviz version 2.43.0 (0)
 -->
<!-- Title: dynarr_binary_insert_uniq Pages: 1 -->
<svg width="986pt" height="298pt"
 viewBox="0.00 0.00 986.00 297.50" xmlns="http://www.w3.org/2000/svg" xmlns:xlink="http://www.w3.org/1999/xlink">
<g id="graph0" class="graph" transform="scale(1 1) rotate(0) translate(4 293.5)">
<title>dynarr_binary_insert_uniq</title>
<!-- Node1 -->
<g id="Node000001" class="node">
<title>Node1</title>
<g id="a_Node000001"><a xlink:title="Same as dynarr_binary_insert except does not inserts duplicates.">
<polygon fill="#999999" stroke="#666666" points="148,-234 0,-234 0,-215 148,-215 148,-234"/>
<text text-anchor="middle" x="74" y="-222" font-family="Mononoki" font-size="10.00">dynarr_binary_insert_uniq</text>
</a>
</g>
</g>
<!-- Node2 -->
<g id="Node000002" class="node">
<title>Node2</title>
<g id="a_Node000002"><a xlink:href="group__Dynarr__API.html#ga8592e4d2a568f36dbcb1bce45a4b1460" target="_top" xlink:title=" ">
<polygon fill="white" stroke="#666666" points="300.5,-289.5 189.5,-289.5 189.5,-259.5 300.5,-259.5 300.5,-289.5"/>
<text text-anchor="start" x="197.5" y="-277.5" font-family="Mononoki" font-size="10.00">dynarr_binary_find</text>
<text text-anchor="middle" x="245" y="-266.5" font-family="Mononoki" font-size="10.00">_index</text>
</a>
</g>
</g>
<!-- Node1&#45;&gt;Node2 -->
<g id="edge1_Node000001_Node000002" class="edge">
<title>Node1&#45;&gt;Node2</title>
<g id="a_edge1_Node000001_Node000002"><a xlink:title=" ">
<path fill="none" stroke="#63b8ff" d="M107.19,-234.02C128.67,-240.38 157.59,-248.94 183.31,-256.55"/>
<polygon fill="#63b8ff" stroke="#63b8ff" points="182.41,-259.93 192.99,-259.41 184.39,-253.22 182.41,-259.93"/>
</a>
</g>
</g>
<!-- Node5 -->
<g id="Node000005" class="node">
<title>Node5</title>
<g id="a_Node000005"><a xlink:href="group__Dynarr__API.html#gad2dd0b992152881697da2073a0c840d7" target="_top" xlink:title=" ">
<polygon fill="white" stroke="#666666" points="306,-213 184,-213 184,-194 306,-194 306,-213"/>
<text text-anchor="middle" x="245" y="-201" font-family="Mononoki" font-size="10.00">dynarr_binary_insert</text>
</a>
</g>
</g>
<!-- Node1&#45;&gt;Node5 -->
<g id="edge4_Node000001_Node000005" class="edge">
<title>Node1&#45;&gt;Node5</title>
<g id="a_edge4_Node000001_Node000005"><a xlink:title=" ">
<path fill="none" stroke="#63b8ff" d="M148.14,-215.41C156.64,-214.36 165.3,-213.28 173.75,-212.23"/>
<polygon fill="#63b8ff" stroke="#63b8ff" points="174.46,-215.67 183.95,-210.96 173.6,-208.72 174.46,-215.67"/>
</a>
</g>
</g>
<!-- Node3 -->
<g id="Node000003" class="node">
<title>Node3</title>
<g id="a_Node000003"><a xlink:href="group__Dynarr__API.html#gaf5c43e2644d185b9b01065af34ed6e29" target="_top" xlink:title=" ">
<polygon fill="white" stroke="#666666" points="825.5,-151 751.5,-151 751.5,-132 825.5,-132 825.5,-151"/>
<text text-anchor="middle" x="788.5" y="-139" font-family="Mononoki" font-size="10.00">dynarr_size</text>
</a>
</g>
</g>
<!-- Node2&#45;&gt;Node3 -->
<g id="edge2_Node000002_Node000003" class="edge">
<title>Node2&#45;&gt;Node3</title>
<g id="a_edge2_Node000002_Node000003"><a xlink:title=" ">
<path fill="none" stroke="#63b8ff" d="M300.51,-281.39C390.73,-290.11 574.13,-296.34 705,-224.5 734.37,-208.38 760.13,-178.59 774.75,-159.43"/>
<polygon fill="#63b8ff" stroke="#63b8ff" points="777.69,-161.34 780.82,-151.22 772.06,-157.18 777.69,-161.34"/>
</a>
</g>
</g>
<!-- Node4 -->
<g id="Node000004" class="node">
<title>Node4</title>
<g id="a_Node000004"><a xlink:href="dynarr_8c.html#a73f42f3f25cd0920d8039d63ea31be07" target="_top" xlink:title=" ">
<polygon fill="white" stroke="#666666" points="978,-94 872,-94 872,-75 978,-75 978,-94"/>
<text text-anchor="middle" x="925" y="-82" font-family="Mononoki" font-size="10.00">get_dynarr_header</text>
</a>
</g>
</g>
<!-- Node3&#45;&gt;Node4 -->
<g id="edge3_Node000003_Node000004" class="edge">
<title>Node3&#45;&gt;Node4</title>
<g id="a_edge3_Node000003_Node000004"><a xlink:title=" ">
<path fill="none" stroke="#63b8ff" d="M812.01,-131.96C833.93,-122.67 867.45,-108.46 892.11,-98.01"/>
<polygon fill="#63b8ff" stroke="#63b8ff" points="893.57,-101.2 901.41,-94.07 890.84,-94.75 893.57,-101.2"/>
</a>
</g>
</g>
<!-- Node6 -->
<g id="Node000006" class="node">
<title>Node6</title>
<g id="a_Node000006"><a xlink:href="group__Dynarr__API.html#ga5f6a46fc8cc0cfe14d98926cadbaa35d" target="_top" xlink:title=" ">
<polygon fill="white" stroke="#666666" points="453,-218.5 342,-218.5 342,-188.5 453,-188.5 453,-218.5"/>
<text text-anchor="start" x="350" y="-206.5" font-family="Mononoki" font-size="10.00">dynarr_binary_find</text>
<text text-anchor="middle" x="397.5" y="-195.5" font-family="Mononoki" font-size="10.00">_insert_place</text>
</a>
</g>
</g>
<!-- Node5&#45;&gt;Node6 -->
<g id="edge5_Node000005_Node000006" class="edge">
<title>Node5&#45;&gt;Node6</title>
<g id="a_edge5_Node000005_Node000006"><a xlink:title=" ">
<path fill="none" stroke="#63b8ff" d="M306.35,-203.5C314.72,-203.5 323.35,-203.5 331.79,-203.5"/>
<polygon fill="#63b8ff" stroke="#63b8ff" points="331.98,-207 341.98,-203.5 331.98,-200 331.98,-207"/>
</a>
</g>
</g>
<!-- Node9 -->
<g id="Node000009" class="node">
<title>Node9</title>
<g id="a_Node000009"><a xlink:href="group__Dynarr__API.html#gab449a79e6b33f55af35329df4363336e" target="_top" xlink:title=" ">
<polygon fill="white" stroke="#666666" points="440,-118 355,-118 355,-99 440,-99 440,-118"/>
<text text-anchor="middle" x="397.5" y="-106" font-family="Mononoki" font-size="10.00">dynarr_insert</text>
</a>
</g>
</g>
<!-- Node5&#45;&gt;Node9 -->
<g id="edge11_Node000005_Node000009" class="edge">
<title>Node5&#45;&gt;Node9</title>
<g id="a_edge11_Node000005_Node000009"><a xlink:title=" ">
<path fill="none" stroke="#63b8ff" d="M261.26,-193.87C287.51,-177.3 341.41,-143.27 372.66,-123.55"/>
<polygon fill="#63b8ff" stroke="#63b8ff" points="374.61,-126.45 381.2,-118.16 370.88,-120.54 374.61,-126.45"/>
</a>
</g>
</g>
<!-- Node6&#45;&gt;Node3 -->
<g id="edge10_Node000006_Node000003" class="edge">
<title>Node6&#45;&gt;Node3</title>
<g id="a_edge10_Node000006_Node000003"><a xlink:title=" ">
<path fill="none" stroke="#63b8ff" d="M437.99,-218.54C453.63,-223.74 471.93,-228.92 489,-231.5 537.78,-238.87 551.34,-239.61 600,-231.5 648.66,-223.39 660.68,-217.18 705,-195.5 727.19,-184.65 750.57,-168.88 766.75,-157.18"/>
<polygon fill="#63b8ff" stroke="#63b8ff" points="768.97,-159.89 774.95,-151.15 764.82,-154.25 768.97,-159.89"/>
</a>
</g>
</g>
<!-- Node7 -->
<g id="Node000007" class="node">
<title>Node7</title>
<g id="a_Node000007"><a xlink:href="dynarr_8c.html#a187b18732062f4f69486553f37697739" target="_top" xlink:title=" ">
<polygon fill="white" stroke="#666666" points="600,-204.5 489,-204.5 489,-174.5 600,-174.5 600,-204.5"/>
<text text-anchor="start" x="497" y="-192.5" font-family="Mononoki" font-size="10.00">binary_find_insert</text>
<text text-anchor="middle" x="544.5" y="-181.5" font-family="Mononoki" font-size="10.00">_place</text>
</a>
</g>
</g>
<!-- Node6&#45;&gt;Node7 -->
<g id="edge6_Node000006_Node000007" class="edge">
<title>Node6&#45;&gt;Node7</title>
<g id="a_edge6_Node000006_Node000007"><a xlink:title=" ">
<path fill="none" stroke="#63b8ff" d="M453.32,-198.21C461.53,-197.41 470.06,-196.59 478.46,-195.78"/>
<polygon fill="#63b8ff" stroke="#63b8ff" points="478.99,-199.25 488.6,-194.8 478.31,-192.28 478.99,-199.25"/>
</a>
</g>
</g>
<!-- Node7&#45;&gt;Node7 -->
<g id="edge7_Node000007_Node000007" class="edge">
<title>Node7&#45;&gt;Node7</title>
<g id="a_edge7_Node000007_Node000007"><a xlink:title=" ">
<path fill="none" stroke="#63b8ff" d="M522.35,-204.78C517.43,-213.91 524.81,-222.5 544.5,-222.5 556.19,-222.5 563.54,-219.47 566.55,-215.1"/>
<polygon fill="#63b8ff" stroke="#63b8ff" points="570.06,-214.81 566.65,-204.78 563.06,-214.74 570.06,-214.81"/>
</a>
</g>
</g>
<!-- Node8 -->
<g id="Node000008" class="node">
<title>Node8</title>
<g id="a_Node000008"><a xlink:href="group__Dynarr__API.html#ga93c32dd116523090126d427cce08e114" target="_top" xlink:title=" ">
<polygon fill="white" stroke="#666666" points="705,-170 636,-170 636,-151 705,-151 705,-170"/>
<text text-anchor="middle" x="670.5" y="-158" font-family="Mononoki" font-size="10.00">dynarr_get</text>
</a>
</g>
</g>
<!-- Node7&#45;&gt;Node8 -->
<g id="edge8_Node000007_Node000008" class="edge">
<title>Node7&#45;&gt;Node8</title>
<g id="a_edge8_Node000007_Node000008"><a xlink:title=" ">
<path fill="none" stroke="#63b8ff" d="M600.25,-176.7C608.83,-174.69 617.6,-172.64 625.88,-170.7"/>
<polygon fill="#63b8ff" stroke="#63b8ff" points="626.76,-174.09 635.7,-168.4 625.17,-167.27 626.76,-174.09"/>
</a>
</g>
</g>
<!-- Node8&#45;&gt;Node3 -->
<g id="edge9_Node000008_Node000003" class="edge">
<title>Node8&#45;&gt;Node3</title>
<g id="a_edge9_Node000008_Node000003"><a xlink:title=" ">
<path fill="none" stroke="#63b8ff" d="M705.05,-155C716.34,-153.15 729.15,-151.06 741.24,-149.08"/>
<polygon fill="#63b8ff" stroke="#63b8ff" points="741.88,-152.52 751.18,-147.45 740.75,-145.61 741.88,-152.52"/>
</a>
</g>
</g>
<!-- Node9&#45;&gt;Node3 -->
<g id="edge14_Node000009_Node000003" class="edge">
<title>Node9&#45;&gt;Node3</title>
<g id="a_edge14_Node000009_Node000003"><a xlink:title=" ">
<path fill="none" stroke="#63b8ff" d="M435.13,-118.03C475.69,-128.77 542.89,-147.14 600,-165.5 616.19,-170.71 619.24,-175.57 636,-178.5 666.21,-183.79 675.01,-184.92 705,-178.5 725.21,-174.18 746.46,-164.51 762.33,-156.14"/>
<polygon fill="#63b8ff" stroke="#63b8ff" points="764.35,-159.02 771.45,-151.16 761,-152.88 764.35,-159.02"/>
</a>
</g>
</g>
<!-- Node10 -->
<g id="Node000010" class="node">
<title>Node10</title>
<g id="a_Node000010"><a xlink:href="group__Dynarr__API.html#ga30d508a9f387e2227dd0d72a8bfd2a39" target="_top" xlink:title=" ">
<polygon fill="white" stroke="#666666" points="705,-56 636,-56 636,-37 705,-37 705,-56"/>
<text text-anchor="middle" x="670.5" y="-44" font-family="Mononoki" font-size="10.00">dynarr_set</text>
</a>
</g>
</g>
<!-- Node9&#45;&gt;Node10 -->
<g id="edge12_Node000009_Node000010" class="edge">
<title>Node9&#45;&gt;Node10</title>
<g id="a_edge12_Node000009_Node000010"><a xlink:title=" ">
<path fill="none" stroke="#63b8ff" d="M440.25,-98.95C490.64,-87.42 574.95,-68.13 626.08,-56.43"/>
<polygon fill="#63b8ff" stroke="#63b8ff" points="626.87,-59.84 635.84,-54.2 625.31,-53.02 626.87,-59.84"/>
</a>
</g>
</g>
<!-- Node11 -->
<g id="Node000011" class="node">
<title>Node11</title>
<g id="a_Node000011"><a xlink:href="group__Auto-resize.html#ga036b69c5b674d3ac22027b04ba235b42" target="_top" xlink:title=" ">
<polygon fill="white" stroke="#666666" points="689.5,-19 651.5,-19 651.5,0 689.5,0 689.5,-19"/>
<text text-anchor="middle" x="670.5" y="-7" font-family="Mononoki" font-size="10.00">grow</text>
</a>
</g>
</g>
<!-- Node9&#45;&gt;Node11 -->
<g id="edge15_Node000009_Node000011" class="edge">
<title>Node9&#45;&gt;Node11</title>
<g id="a_edge15_Node000009_Node000011"><a xlink:title=" ">
<path fill="none" stroke="#63b8ff" d="M413.68,-98.9C431.25,-88.11 461.33,-70.66 489,-59.5 541.29,-38.42 605.55,-22.96 641.58,-15.17"/>
<polygon fill="#63b8ff" stroke="#63b8ff" points="642.32,-18.59 651.38,-13.1 640.87,-11.75 642.32,-18.59"/>
</a>
</g>
</g>
<!-- Node13 -->
<g id="Node000013" class="node">
<title>Node13</title>
<g id="a_Node000013"><a xlink:href="group__Auto-resize.html#gadb26f84b95f0ca45c7ccbd72e337485a" target="_top" xlink:title=" ">
<polygon fill="white" stroke="#666666" points="587,-118 502,-118 502,-99 587,-99 587,-118"/>
<text text-anchor="middle" x="544.5" y="-106" font-family="Mononoki" font-size="10.00">make_space_at</text>
</a>
</g>
</g>
<!-- Node9&#45;&gt;Node13 -->
<g id="edge19_Node000009_Node000013" class="edge">
<title>Node9&#45;&gt;Node13</title>
<g id="a_edge19_Node000009_Node000013"><a xlink:title=" ">
<path fill="none" stroke="#63b8ff" d="M440.05,-108.5C456.13,-108.5 474.71,-108.5 491.65,-108.5"/>
<polygon fill="#63b8ff" stroke="#63b8ff" points="491.94,-112 501.94,-108.5 491.94,-105 491.94,-112"/>
</a>
</g>
</g>
<!-- Node10&#45;&gt;Node3 -->
<g id="edge13_Node000010_Node000003" class="edge">
<title>Node10&#45;&gt;Node3</title>
<g id="a_edge13_Node000010_Node000003"><a xlink:title=" ">
<path fill="none" stroke="#63b8ff" d="M683.48,-56.31C703.46,-72.68 743.8,-105.71 767.95,-125.49"/>
<polygon fill="#63b8ff" stroke="#63b8ff" points="765.81,-128.26 775.76,-131.89 770.24,-122.84 765.81,-128.26"/>
</a>
</g>
</g>
<!-- Node11&#45;&gt;Node3 -->
<g id="edge17_Node000011_Node000003" class="edge">
<title>Node11&#45;&gt;Node3</title>
<g id="a_edge17_Node000011_Node000003"><a xlink:title=" ">
<path fill="none" stroke="#63b8ff" d="M689.5,-17.27C694.82,-20.05 700.43,-23.5 705,-27.5 737.16,-55.63 763.89,-98.54 777.59,-122.9"/>
<polygon fill="#63b8ff" stroke="#63b8ff" points="774.61,-124.74 782.49,-131.82 780.75,-121.37 774.61,-124.74"/>
</a>
</g>
</g>
<!-- Node11&#45;&gt;Node4 -->
<g id="edge18_Node000011_Node000004" class="edge">
<title>Node11&#45;&gt;Node4</title>
<g id="a_edge18_Node000011_Node000004"><a xlink:title=" ">
<path fill="none" stroke="#63b8ff" d="M689.63,-8.8C720.6,-8.18 785.25,-9.44 836,-27.5 861.99,-36.75 888.06,-55.03 904.99,-68.4"/>
<polygon fill="#63b8ff" stroke="#63b8ff" points="903,-71.29 912.97,-74.88 907.41,-65.86 903,-71.29"/>
</a>
</g>
</g>
<!-- Node12 -->
<g id="Node000012" class="node">
<title>Node12</title>
<g id="a_Node000012"><a xlink:href="group__Dynarr__API.html#ga3ff11107726213a640d814b63cb123b2" target="_top" xlink:title=" ">
<polygon fill="white" stroke="#666666" points="836,-56 741,-56 741,-37 836,-37 836,-56"/>
<text text-anchor="middle" x="788.5" y="-44" font-family="Mononoki" font-size="10.00">dynarr_capacity</text>
</a>
</g>
</g>
<!-- Node11&#45;&gt;Node12 -->
<g id="edge16_Node000011_Node000012" class="edge">
<title>Node11&#45;&gt;Node12</title>
<g id="a_edge16_Node000011_Node000012"><a xlink:title=" ">
<path fill="none" stroke="#63b8ff" d="M689.62,-15.28C705.11,-20.22 727.93,-27.5 747.65,-33.79"/>
<polygon fill="#63b8ff" stroke="#63b8ff" points="746.73,-37.17 757.33,-36.88 748.86,-30.5 746.73,-37.17"/>
</a>
</g>
</g>
<!-- Node13&#45;&gt;Node3 -->
<g id="edge21_Node000013_Node000003" class="edge">
<title>Node13&#45;&gt;Node3</title>
<g id="a_edge21_Node000013_Node000003"><a xlink:title=" ">
<path fill="none" stroke="#63b8ff" d="M587.1,-114.17C629.98,-120.02 696.67,-129.11 741.2,-135.19"/>
<polygon fill="#63b8ff" stroke="#63b8ff" points="740.8,-138.66 751.18,-136.55 741.74,-131.73 740.8,-138.66"/>
</a>
</g>
</g>
<!-- Node13&#45;&gt;Node4 -->
<g id="edge22_Node000013_Node000004" class="edge">
<title>Node13&#45;&gt;Node4</title>
<g id="a_edge22_Node000013_Node000004"><a xlink:title=" ">
<path fill="none" stroke="#63b8ff" d="M587.09,-105.86C653.53,-101.65 784.01,-93.38 861.65,-88.45"/>
<polygon fill="#63b8ff" stroke="#63b8ff" points="862.02,-91.94 871.78,-87.81 861.58,-84.95 862.02,-91.94"/>
</a>
</g>
</g>
<!-- Node13&#45;&gt;Node8 -->
<g id="edge20_Node000013_Node000008" class="edge">
<title>Node13&#45;&gt;Node8</title>
<g id="a_edge20_Node000013_Node000008"><a xlink:title=" ">
<path fill="none" stroke="#63b8ff" d="M568.24,-118.04C587.52,-126.12 615.41,-137.82 637.04,-146.89"/>
<polygon fill="#63b8ff" stroke="#63b8ff" points="635.91,-150.21 646.48,-150.85 638.61,-143.75 635.91,-150.21"/>
</a>
</g>
</g>
</g>
</svg>
