<?xml version="1.0" encoding="UTF-8" standalone="no"?>
<!DOCTYPE svg PUBLIC "-//W3C//DTD SVG 1.1//EN"
 "http://www.w3.org/Graphics/SVG/1.1/DTD/svg11.dtd">
<!-- Generated by graphviz version 2.43.0 (0)
 -->
<!-- Title: dynarr_binary_insert_uniq Pages: 1 -->
<svg width="1196pt" height="416pt"
 viewBox="0.00 0.00 1196.00 415.50" xmlns="http://www.w3.org/2000/svg" xmlns:xlink="http://www.w3.org/1999/xlink">
<g id="graph0" class="graph" transform="scale(1 1) rotate(0) translate(4 411.5)">
<title>dynarr_binary_insert_uniq</title>
<!-- Node1 -->
<g id="Node000001" class="node">
<title>Node1</title>
<g id="a_Node000001"><a xlink:title="Same as dynarr_binary_insert except does not inserts duplicates.">
<polygon fill="#999999" stroke="#666666" points="148,-113 0,-113 0,-94 148,-94 148,-113"/>
<text text-anchor="middle" x="74" y="-101" font-family="Mononoki" font-size="10.00">dynarr_binary_insert_uniq</text>
</a>
</g>
</g>
<!-- Node2 -->
<g id="Node000002" class="node">
<title>Node2</title>
<g id="a_Node000002"><a xlink:href="group__Dynarr__API.html#ga8592e4d2a568f36dbcb1bce45a4b1460" target="_top" xlink:title=" ">
<polygon fill="white" stroke="#666666" points="300.5,-80.5 189.5,-80.5 189.5,-50.5 300.5,-50.5 300.5,-80.5"/>
<text text-anchor="start" x="197.5" y="-68.5" font-family="Mononoki" font-size="10.00">dynarr_binary_find</text>
<text text-anchor="middle" x="245" y="-57.5" font-family="Mononoki" font-size="10.00">_index</text>
</a>
</g>
</g>
<!-- Node1&#45;&gt;Node2 -->
<g id="edge1_Node000001_Node000002" class="edge">
<title>Node1&#45;&gt;Node2</title>
<g id="a_edge1_Node000001_Node000002"><a xlink:title=" ">
<path fill="none" stroke="#63b8ff" d="M117.65,-93.91C136.3,-89.72 158.6,-84.7 179.23,-80.06"/>
<polygon fill="#63b8ff" stroke="#63b8ff" points="180.21,-83.43 189.2,-77.82 178.68,-76.6 180.21,-83.43"/>
</a>
</g>
</g>
<!-- Node7 -->
<g id="Node000007" class="node">
<title>Node7</title>
<g id="a_Node000007"><a xlink:href="group__Dynarr__API.html#gad2dd0b992152881697da2073a0c840d7" target="_top" xlink:title=" ">
<polygon fill="white" stroke="#666666" points="306,-170 184,-170 184,-151 306,-151 306,-170"/>
<text text-anchor="middle" x="245" y="-158" font-family="Mononoki" font-size="10.00">dynarr_binary_insert</text>
</a>
</g>
</g>
<!-- Node1&#45;&gt;Node7 -->
<g id="edge6_Node000001_Node000007" class="edge">
<title>Node1&#45;&gt;Node7</title>
<g id="a_edge6_Node000001_Node000007"><a xlink:title=" ">
<path fill="none" stroke="#63b8ff" d="M103.29,-113.04C131.44,-122.53 174.82,-137.17 205.97,-147.67"/>
<polygon fill="#63b8ff" stroke="#63b8ff" points="205.03,-151.05 215.62,-150.93 207.26,-144.42 205.03,-151.05"/>
</a>
</g>
</g>
<!-- Node3 -->
<g id="Node000003" class="node">
<title>Node3</title>
<g id="a_Node000003"><a xlink:href="group__Dynarr__API.html#gaf5c43e2644d185b9b01065af34ed6e29" target="_top" xlink:title=" ">
<polygon fill="white" stroke="#666666" points="872.5,-189 798.5,-189 798.5,-170 872.5,-170 872.5,-189"/>
<text text-anchor="middle" x="835.5" y="-177" font-family="Mononoki" font-size="10.00">dynarr_size</text>
</a>
</g>
</g>
<!-- Node2&#45;&gt;Node3 -->
<g id="edge2_Node000002_Node000003" class="edge">
<title>Node2&#45;&gt;Node3</title>
<g id="a_edge2_Node000002_Node000003"><a xlink:title=" ">
<path fill="none" stroke="#63b8ff" d="M300.57,-60C396.12,-52.57 598.2,-46.81 752,-110.5 779.32,-121.82 804.42,-145.54 819.58,-161.99"/>
<polygon fill="#63b8ff" stroke="#63b8ff" points="817.3,-164.69 826.57,-169.82 822.52,-160.03 817.3,-164.69"/>
</a>
</g>
</g>
<!-- Node6 -->
<g id="Node000006" class="node">
<title>Node6</title>
<g id="a_Node000006"><a target="_parent" xlink:href="https://evjeesm.github.io/vector/group__Vector__API.html#gaae3cfb2691a50da87169b5e057169782" xlink:title=" ">
<polygon fill="white" stroke="#666666" points="453,-37.5 342,-37.5 342,-7.5 453,-7.5 453,-37.5"/>
<text text-anchor="start" x="350" y="-25.5" font-family="Mononoki" font-size="10.00">vector_binary_find</text>
<text text-anchor="middle" x="397.5" y="-14.5" font-family="Mononoki" font-size="10.00">_index</text>
</a>
</g>
</g>
<!-- Node2&#45;&gt;Node6 -->
<g id="edge5_Node000002_Node000006" class="edge">
<title>Node2&#45;&gt;Node6</title>
<g id="a_edge5_Node000002_Node000006"><a xlink:title=" ">
<path fill="none" stroke="#63b8ff" d="M298.64,-50.46C310.09,-47.19 322.32,-43.69 334.11,-40.32"/>
<polygon fill="#63b8ff" stroke="#63b8ff" points="335.24,-43.64 343.89,-37.53 333.32,-36.91 335.24,-43.64"/>
</a>
</g>
</g>
<!-- Node4 -->
<g id="Node000004" class="node">
<title>Node4</title>
<g id="a_Node000004"><a xlink:href="dynarr_8c.html#a73f42f3f25cd0920d8039d63ea31be07" target="_top" xlink:title=" ">
<polygon fill="white" stroke="#666666" points="1025,-189 919,-189 919,-170 1025,-170 1025,-189"/>
<text text-anchor="middle" x="972" y="-177" font-family="Mononoki" font-size="10.00">get_dynarr_header</text>
</a>
</g>
</g>
<!-- Node3&#45;&gt;Node4 -->
<g id="edge3_Node000003_Node000004" class="edge">
<title>Node3&#45;&gt;Node4</title>
<g id="a_edge3_Node000003_Node000004"><a xlink:title=" ">
<path fill="none" stroke="#63b8ff" d="M872.54,-179.5C883.67,-179.5 896.26,-179.5 908.63,-179.5"/>
<polygon fill="#63b8ff" stroke="#63b8ff" points="908.93,-183 918.93,-179.5 908.93,-176 908.93,-183"/>
</a>
</g>
</g>
<!-- Node5 -->
<g id="Node000005" class="node">
<title>Node5</title>
<g id="a_Node000005"><a target="_parent" xlink:href="https://evjeesm.github.io/vector/group__Vector__API.html#gafc2e34dbacffe6480af8681fbf46e808" xlink:title=" ">
<polygon fill="white" stroke="#666666" points="1188,-189 1061,-189 1061,-170 1188,-170 1188,-189"/>
<text text-anchor="middle" x="1124.5" y="-177" font-family="Mononoki" font-size="10.00">vector_get_ext_header</text>
</a>
</g>
</g>
<!-- Node4&#45;&gt;Node5 -->
<g id="edge4_Node000004_Node000005" class="edge">
<title>Node4&#45;&gt;Node5</title>
<g id="a_edge4_Node000004_Node000005"><a xlink:title=" ">
<path fill="none" stroke="#63b8ff" d="M1025.22,-179.5C1033.45,-179.5 1042.1,-179.5 1050.7,-179.5"/>
<polygon fill="#63b8ff" stroke="#63b8ff" points="1050.75,-183 1060.75,-179.5 1050.75,-176 1050.75,-183"/>
</a>
</g>
</g>
<!-- Node8 -->
<g id="Node000008" class="node">
<title>Node8</title>
<g id="a_Node000008"><a xlink:href="group__Dynarr__API.html#ga5f6a46fc8cc0cfe14d98926cadbaa35d" target="_top" xlink:title=" ">
<polygon fill="white" stroke="#666666" points="453,-346.5 342,-346.5 342,-316.5 453,-316.5 453,-346.5"/>
<text text-anchor="start" x="350" y="-334.5" font-family="Mononoki" font-size="10.00">dynarr_binary_find</text>
<text text-anchor="middle" x="397.5" y="-323.5" font-family="Mononoki" font-size="10.00">_insert_place</text>
</a>
</g>
</g>
<!-- Node7&#45;&gt;Node8 -->
<g id="edge7_Node000007_Node000008" class="edge">
<title>Node7&#45;&gt;Node8</title>
<g id="a_edge7_Node000007_Node000008"><a xlink:title=" ">
<path fill="none" stroke="#63b8ff" d="M254.52,-170.18C277.76,-196.59 342.72,-270.4 376.11,-308.34"/>
<polygon fill="#63b8ff" stroke="#63b8ff" points="373.88,-311.1 383.12,-316.29 379.14,-306.48 373.88,-311.1"/>
</a>
</g>
</g>
<!-- Node12 -->
<g id="Node000012" class="node">
<title>Node12</title>
<g id="a_Node000012"><a xlink:href="group__Dynarr__API.html#gab449a79e6b33f55af35329df4363336e" target="_top" xlink:title=" ">
<polygon fill="white" stroke="#666666" points="440,-170 355,-170 355,-151 440,-151 440,-170"/>
<text text-anchor="middle" x="397.5" y="-158" font-family="Mononoki" font-size="10.00">dynarr_insert</text>
</a>
</g>
</g>
<!-- Node7&#45;&gt;Node12 -->
<g id="edge14_Node000007_Node000012" class="edge">
<title>Node7&#45;&gt;Node12</title>
<g id="a_edge14_Node000007_Node000012"><a xlink:title=" ">
<path fill="none" stroke="#63b8ff" d="M306.35,-160.5C319,-160.5 332.23,-160.5 344.54,-160.5"/>
<polygon fill="#63b8ff" stroke="#63b8ff" points="344.64,-164 354.64,-160.5 344.64,-157 344.64,-164"/>
</a>
</g>
</g>
<!-- Node8&#45;&gt;Node3 -->
<g id="edge13_Node000008_Node000003" class="edge">
<title>Node8&#45;&gt;Node3</title>
<g id="a_edge13_Node000008_Node000003"><a xlink:title=" ">
<path fill="none" stroke="#63b8ff" d="M453.2,-330.08C525.55,-326.13 655.2,-311.79 752,-260.5 781.25,-245.01 807.04,-215.87 821.7,-197.09"/>
<polygon fill="#63b8ff" stroke="#63b8ff" points="824.55,-199.13 827.8,-189.04 818.97,-194.9 824.55,-199.13"/>
</a>
</g>
</g>
<!-- Node9 -->
<g id="Node000009" class="node">
<title>Node9</title>
<g id="a_Node000009"><a xlink:href="dynarr_8c.html#a187b18732062f4f69486553f37697739" target="_top" xlink:title=" ">
<polygon fill="white" stroke="#666666" points="600,-389.5 489,-389.5 489,-359.5 600,-359.5 600,-389.5"/>
<text text-anchor="start" x="497" y="-377.5" font-family="Mononoki" font-size="10.00">binary_find_insert</text>
<text text-anchor="middle" x="544.5" y="-366.5" font-family="Mononoki" font-size="10.00">_place</text>
</a>
</g>
</g>
<!-- Node8&#45;&gt;Node9 -->
<g id="edge8_Node000008_Node000009" class="edge">
<title>Node8&#45;&gt;Node9</title>
<g id="a_edge8_Node000008_Node000009"><a xlink:title=" ">
<path fill="none" stroke="#63b8ff" d="M449.21,-346.54C460.08,-349.76 471.66,-353.2 482.86,-356.52"/>
<polygon fill="#63b8ff" stroke="#63b8ff" points="481.99,-359.91 492.57,-359.4 483.98,-353.2 481.99,-359.91"/>
</a>
</g>
</g>
<!-- Node9&#45;&gt;Node9 -->
<g id="edge9_Node000009_Node000009" class="edge">
<title>Node9&#45;&gt;Node9</title>
<g id="a_edge9_Node000009_Node000009"><a xlink:title=" ">
<path fill="none" stroke="#63b8ff" d="M518.84,-389.78C513.13,-398.91 521.69,-407.5 544.5,-407.5 558.04,-407.5 566.56,-404.47 570.06,-400.1"/>
<polygon fill="#63b8ff" stroke="#63b8ff" points="573.56,-399.81 570.16,-389.78 566.56,-399.74 573.56,-399.81"/>
</a>
</g>
</g>
<!-- Node10 -->
<g id="Node000010" class="node">
<title>Node10</title>
<g id="a_Node000010"><a xlink:href="group__Dynarr__API.html#ga93c32dd116523090126d427cce08e114" target="_top" xlink:title=" ">
<polygon fill="white" stroke="#666666" points="728.5,-379 659.5,-379 659.5,-360 728.5,-360 728.5,-379"/>
<text text-anchor="middle" x="694" y="-367" font-family="Mononoki" font-size="10.00">dynarr_get</text>
</a>
</g>
</g>
<!-- Node9&#45;&gt;Node10 -->
<g id="edge10_Node000009_Node000010" class="edge">
<title>Node9&#45;&gt;Node10</title>
<g id="a_edge10_Node000009_Node000010"><a xlink:title=" ">
<path fill="none" stroke="#63b8ff" d="M600,-372.65C616.14,-372.11 633.6,-371.51 648.98,-370.99"/>
<polygon fill="#63b8ff" stroke="#63b8ff" points="649.38,-374.48 659.26,-370.64 649.15,-367.48 649.38,-374.48"/>
</a>
</g>
</g>
<!-- Node10&#45;&gt;Node3 -->
<g id="edge11_Node000010_Node000003" class="edge">
<title>Node10&#45;&gt;Node3</title>
<g id="a_edge11_Node000010_Node000003"><a xlink:title=" ">
<path fill="none" stroke="#63b8ff" d="M728.71,-359.92C737.03,-356.38 745.43,-351.67 752,-345.5 796.26,-303.93 820.09,-233.47 829.57,-199.28"/>
<polygon fill="#63b8ff" stroke="#63b8ff" points="833.07,-199.73 832.24,-189.17 826.3,-197.95 833.07,-199.73"/>
</a>
</g>
</g>
<!-- Node11 -->
<g id="Node000011" class="node">
<title>Node11</title>
<g id="a_Node000011"><a target="_parent" xlink:href="https://evjeesm.github.io/vector/group__Vector__API.html#ga9437d9506a3b2799f595c88b82f160b3" xlink:title=" ">
<polygon fill="white" stroke="#666666" points="870,-379 801,-379 801,-360 870,-360 870,-379"/>
<text text-anchor="middle" x="835.5" y="-367" font-family="Mononoki" font-size="10.00">vector_get</text>
</a>
</g>
</g>
<!-- Node10&#45;&gt;Node11 -->
<g id="edge12_Node000010_Node000011" class="edge">
<title>Node10&#45;&gt;Node11</title>
<g id="a_edge12_Node000010_Node000011"><a xlink:title=" ">
<path fill="none" stroke="#63b8ff" d="M728.77,-369.5C747.31,-369.5 770.52,-369.5 790.47,-369.5"/>
<polygon fill="#63b8ff" stroke="#63b8ff" points="790.56,-373 800.56,-369.5 790.56,-366 790.56,-373"/>
</a>
</g>
</g>
<!-- Node12&#45;&gt;Node3 -->
<g id="edge18_Node000012_Node000003" class="edge">
<title>Node12&#45;&gt;Node3</title>
<g id="a_edge18_Node000012_Node000003"><a xlink:title=" ">
<path fill="none" stroke="#63b8ff" d="M440.31,-162.32C522.15,-165.89 702.95,-173.77 788.24,-177.48"/>
<polygon fill="#63b8ff" stroke="#63b8ff" points="788.26,-180.99 798.4,-177.93 788.56,-173.99 788.26,-180.99"/>
</a>
</g>
</g>
<!-- Node13 -->
<g id="Node000013" class="node">
<title>Node13</title>
<g id="a_Node000013"><a xlink:href="group__Dynarr__API.html#ga30d508a9f387e2227dd0d72a8bfd2a39" target="_top" xlink:title=" ">
<polygon fill="white" stroke="#666666" points="579,-151 510,-151 510,-132 579,-132 579,-151"/>
<text text-anchor="middle" x="544.5" y="-139" font-family="Mononoki" font-size="10.00">dynarr_set</text>
</a>
</g>
</g>
<!-- Node12&#45;&gt;Node13 -->
<g id="edge15_Node000012_Node000013" class="edge">
<title>Node12&#45;&gt;Node13</title>
<g id="a_edge15_Node000012_Node000013"><a xlink:title=" ">
<path fill="none" stroke="#63b8ff" d="M440.05,-155.06C458.69,-152.61 480.69,-149.73 499.6,-147.25"/>
<polygon fill="#63b8ff" stroke="#63b8ff" points="500.29,-150.69 509.75,-145.92 499.38,-143.75 500.29,-150.69"/>
</a>
</g>
</g>
<!-- Node15 -->
<g id="Node000015" class="node">
<title>Node15</title>
<g id="a_Node000015"><a xlink:href="group__Auto-resize.html#ga036b69c5b674d3ac22027b04ba235b42" target="_top" xlink:title=" ">
<polygon fill="white" stroke="#666666" points="713,-37 675,-37 675,-18 713,-18 713,-37"/>
<text text-anchor="middle" x="694" y="-25" font-family="Mononoki" font-size="10.00">grow</text>
</a>
</g>
</g>
<!-- Node12&#45;&gt;Node15 -->
<g id="edge19_Node000012_Node000015" class="edge">
<title>Node12&#45;&gt;Node15</title>
<g id="a_edge19_Node000012_Node000015"><a xlink:title=" ">
<path fill="none" stroke="#63b8ff" d="M419.68,-150.93C471.92,-127.34 606.91,-66.38 665.35,-39.99"/>
<polygon fill="#63b8ff" stroke="#63b8ff" points="667.02,-43.07 674.69,-35.77 664.14,-36.69 667.02,-43.07"/>
</a>
</g>
</g>
<!-- Node19 -->
<g id="Node000019" class="node">
<title>Node19</title>
<g id="a_Node000019"><a xlink:href="group__Auto-resize.html#gadb26f84b95f0ca45c7ccbd72e337485a" target="_top" xlink:title=" ">
<polygon fill="white" stroke="#666666" points="587,-265 502,-265 502,-246 587,-246 587,-265"/>
<text text-anchor="middle" x="544.5" y="-253" font-family="Mononoki" font-size="10.00">make_space_at</text>
</a>
</g>
</g>
<!-- Node12&#45;&gt;Node19 -->
<g id="edge25_Node000012_Node000019" class="edge">
<title>Node12&#45;&gt;Node19</title>
<g id="a_edge25_Node000012_Node000019"><a xlink:title=" ">
<path fill="none" stroke="#63b8ff" d="M413.2,-170.13C438.39,-186.63 489.98,-220.44 520.14,-240.2"/>
<polygon fill="#63b8ff" stroke="#63b8ff" points="518.48,-243.29 528.76,-245.84 522.31,-237.43 518.48,-243.29"/>
</a>
</g>
</g>
<!-- Node13&#45;&gt;Node3 -->
<g id="edge16_Node000013_Node000003" class="edge">
<title>Node13&#45;&gt;Node3</title>
<g id="a_edge16_Node000013_Node000003"><a xlink:title=" ">
<path fill="none" stroke="#63b8ff" d="M574.29,-131.97C614.89,-120.06 690.82,-103.42 752,-122.5 777.24,-130.37 801.57,-148.97 817.18,-162.79"/>
<polygon fill="#63b8ff" stroke="#63b8ff" points="815.18,-165.7 824.91,-169.88 819.91,-160.54 815.18,-165.7"/>
</a>
</g>
</g>
<!-- Node14 -->
<g id="Node000014" class="node">
<title>Node14</title>
<g id="a_Node000014"><a target="_parent" xlink:href="https://evjeesm.github.io/vector/group__Vector__API.html#gab3a5e466261d31ee9edd77a5eb280030" xlink:title=" ">
<polygon fill="white" stroke="#666666" points="728.5,-151 659.5,-151 659.5,-132 728.5,-132 728.5,-151"/>
<text text-anchor="middle" x="694" y="-139" font-family="Mononoki" font-size="10.00">vector_set</text>
</a>
</g>
</g>
<!-- Node13&#45;&gt;Node14 -->
<g id="edge17_Node000013_Node000014" class="edge">
<title>Node13&#45;&gt;Node14</title>
<g id="a_edge17_Node000013_Node000014"><a xlink:title=" ">
<path fill="none" stroke="#63b8ff" d="M579.34,-141.5C600.05,-141.5 626.76,-141.5 649.08,-141.5"/>
<polygon fill="#63b8ff" stroke="#63b8ff" points="649.32,-145 659.32,-141.5 649.32,-138 649.32,-145"/>
</a>
</g>
</g>
<!-- Node15&#45;&gt;Node3 -->
<g id="edge22_Node000015_Node000003" class="edge">
<title>Node15&#45;&gt;Node3</title>
<g id="a_edge22_Node000015_Node000003"><a xlink:title=" ">
<path fill="none" stroke="#63b8ff" d="M713.08,-31.49C725.34,-34.99 741.22,-41.18 752,-51.5 779,-77.34 767.33,-96.36 788,-127.5 796.37,-140.11 807.65,-152.81 817.01,-162.49"/>
<polygon fill="#63b8ff" stroke="#63b8ff" points="814.78,-165.22 824.31,-169.86 819.75,-160.29 814.78,-165.22"/>
</a>
</g>
</g>
<!-- Node15&#45;&gt;Node4 -->
<g id="edge23_Node000015_Node000004" class="edge">
<title>Node15&#45;&gt;Node4</title>
<g id="a_edge23_Node000015_Node000004"><a xlink:title=" ">
<path fill="none" stroke="#63b8ff" d="M713.24,-34.48C724.57,-38.98 739.32,-45.16 752,-51.5 825.48,-88.25 908.16,-139.41 947.61,-164.46"/>
<polygon fill="#63b8ff" stroke="#63b8ff" points="945.93,-167.54 956.24,-169.96 949.69,-161.64 945.93,-167.54"/>
</a>
</g>
</g>
<!-- Node16 -->
<g id="Node000016" class="node">
<title>Node16</title>
<g id="a_Node000016"><a xlink:href="group__Dynarr__API.html#ga3ff11107726213a640d814b63cb123b2" target="_top" xlink:title=" ">
<polygon fill="white" stroke="#666666" points="883,-19 788,-19 788,0 883,0 883,-19"/>
<text text-anchor="middle" x="835.5" y="-7" font-family="Mononoki" font-size="10.00">dynarr_capacity</text>
</a>
</g>
</g>
<!-- Node15&#45;&gt;Node16 -->
<g id="edge20_Node000015_Node000016" class="edge">
<title>Node15&#45;&gt;Node16</title>
<g id="a_edge20_Node000015_Node000016"><a xlink:title=" ">
<path fill="none" stroke="#63b8ff" d="M713.24,-25.15C729.64,-23.03 754.64,-19.8 777.68,-16.83"/>
<polygon fill="#63b8ff" stroke="#63b8ff" points="778.28,-20.28 787.75,-15.53 777.38,-13.34 778.28,-20.28"/>
</a>
</g>
</g>
<!-- Node18 -->
<g id="Node000018" class="node">
<title>Node18</title>
<g id="a_Node000018"><a target="_parent" xlink:href="https://evjeesm.github.io/vector/group__Vector__API.html#ga6e5077303af4dfe720af5a0608553922" xlink:title=" ">
<polygon fill="white" stroke="#666666" points="878,-56 793,-56 793,-37 878,-37 878,-56"/>
<text text-anchor="middle" x="835.5" y="-44" font-family="Mononoki" font-size="10.00">vector_resize</text>
</a>
</g>
</g>
<!-- Node15&#45;&gt;Node18 -->
<g id="edge24_Node000015_Node000018" class="edge">
<title>Node15&#45;&gt;Node18</title>
<g id="a_edge24_Node000015_Node000018"><a xlink:title=" ">
<path fill="none" stroke="#63b8ff" d="M713.24,-29.98C730.81,-32.38 758.25,-36.12 782.59,-39.43"/>
<polygon fill="#63b8ff" stroke="#63b8ff" points="782.41,-42.94 792.79,-40.82 783.35,-36 782.41,-42.94"/>
</a>
</g>
</g>
<!-- Node17 -->
<g id="Node000017" class="node">
<title>Node17</title>
<g id="a_Node000017"><a target="_parent" xlink:href="https://evjeesm.github.io/vector/group__Vector__API.html#gab24bd801f91d4ae1ac79b54430b0409f" xlink:title=" ">
<polygon fill="white" stroke="#666666" points="1019.5,-19 924.5,-19 924.5,0 1019.5,0 1019.5,-19"/>
<text text-anchor="middle" x="972" y="-7" font-family="Mononoki" font-size="10.00">vector_capacity</text>
</a>
</g>
</g>
<!-- Node16&#45;&gt;Node17 -->
<g id="edge21_Node000016_Node000017" class="edge">
<title>Node16&#45;&gt;Node17</title>
<g id="a_edge21_Node000016_Node000017"><a xlink:title=" ">
<path fill="none" stroke="#63b8ff" d="M883.16,-9.5C893.18,-9.5 903.87,-9.5 914.22,-9.5"/>
<polygon fill="#63b8ff" stroke="#63b8ff" points="914.42,-13 924.42,-9.5 914.42,-6 914.42,-13"/>
</a>
</g>
</g>
<!-- Node19&#45;&gt;Node3 -->
<g id="edge27_Node000019_Node000003" class="edge">
<title>Node19&#45;&gt;Node3</title>
<g id="a_edge27_Node000019_Node000003"><a xlink:title=" ">
<path fill="none" stroke="#63b8ff" d="M587.2,-257.76C629.89,-258.69 697.51,-256.28 752,-236.5 776.58,-227.58 800.71,-209.51 816.46,-196.09"/>
<polygon fill="#63b8ff" stroke="#63b8ff" points="819.1,-198.44 824.3,-189.21 814.48,-193.18 819.1,-198.44"/>
</a>
</g>
</g>
<!-- Node19&#45;&gt;Node4 -->
<g id="edge28_Node000019_Node000004" class="edge">
<title>Node19&#45;&gt;Node4</title>
<g id="a_edge28_Node000019_Node000004"><a xlink:title=" ">
<path fill="none" stroke="#63b8ff" d="M587.38,-258.3C602.67,-259.19 620.11,-260.06 636,-260.5 687.54,-261.92 701.25,-269.58 752,-260.5 823.67,-247.67 902.57,-212.97 943.28,-193.41"/>
<polygon fill="#63b8ff" stroke="#63b8ff" points="944.85,-196.54 952.31,-189.01 941.78,-190.24 944.85,-196.54"/>
</a>
</g>
</g>
<!-- Node19&#45;&gt;Node10 -->
<g id="edge26_Node000019_Node000010" class="edge">
<title>Node19&#45;&gt;Node10</title>
<g id="a_edge26_Node000019_Node000010"><a xlink:title=" ">
<path fill="none" stroke="#63b8ff" d="M557.82,-265.02C583.14,-284.59 641.23,-329.49 672.38,-353.56"/>
<polygon fill="#63b8ff" stroke="#63b8ff" points="670.35,-356.42 680.4,-359.76 674.63,-350.88 670.35,-356.42"/>
</a>
</g>
</g>
<!-- Node20 -->
<g id="Node000020" class="node">
<title>Node20</title>
<g id="a_Node000020"><a target="_parent" xlink:href="https://evjeesm.github.io/vector/group__Vector__API.html#gaae93d7f0c056c1d11d3232a7a7aa5e09" xlink:title=" ">
<polygon fill="white" stroke="#666666" points="752,-227 636,-227 636,-208 752,-208 752,-227"/>
<text text-anchor="middle" x="694" y="-215" font-family="Mononoki" font-size="10.00">vector_element_size</text>
</a>
</g>
</g>
<!-- Node19&#45;&gt;Node20 -->
<g id="edge29_Node000019_Node000020" class="edge">
<title>Node19&#45;&gt;Node20</title>
<g id="a_edge29_Node000019_Node000020"><a xlink:title=" ">
<path fill="none" stroke="#63b8ff" d="M582.72,-245.91C602.01,-240.94 625.76,-234.82 646.27,-229.54"/>
<polygon fill="#63b8ff" stroke="#63b8ff" points="647.24,-232.9 656.05,-227.02 645.49,-226.13 647.24,-232.9"/>
</a>
</g>
</g>
</g>
</svg>
