<?xml version="1.0" encoding="UTF-8" standalone="no"?>
<!DOCTYPE svg PUBLIC "-//W3C//DTD SVG 1.1//EN"
 "http://www.w3.org/Graphics/SVG/1.1/DTD/svg11.dtd">
<!-- Generated by graphviz version 2.43.0 (0)
 -->
<!-- Title: dynarr_binary_find Pages: 1 -->
<svg width="571pt" height="64pt"
 viewBox="0.00 0.00 571.00 64.00" xmlns="http://www.w3.org/2000/svg" xmlns:xlink="http://www.w3.org/1999/xlink">
<g id="graph0" class="graph" transform="scale(1 1) rotate(0) translate(4 60)">
<title>dynarr_binary_find</title>
<!-- Node1 -->
<g id="Node000001" class="node">
<title>Node1</title>
<g id="a_Node000001"><a xlink:title=" ">
<polygon fill="#999999" stroke="#666666" points="111,-37 0,-37 0,-18 111,-18 111,-37"/>
<text text-anchor="middle" x="55.5" y="-25" font-family="Mononoki" font-size="10.00">dynarr_binary_find</text>
</a>
</g>
</g>
<!-- Node2 -->
<g id="Node000002" class="node">
<title>Node2</title>
<g id="a_Node000002"><a xlink:href="group__Dynarr__API.html#gaf5c43e2644d185b9b01065af34ed6e29" target="_top" xlink:title=" ">
<polygon fill="white" stroke="#666666" points="239.5,-56 165.5,-56 165.5,-37 239.5,-37 239.5,-56"/>
<text text-anchor="middle" x="202.5" y="-44" font-family="Mononoki" font-size="10.00">dynarr_size</text>
</a>
</g>
</g>
<!-- Node1&#45;&gt;Node2 -->
<g id="edge1_Node000001_Node000002" class="edge">
<title>Node1&#45;&gt;Node2</title>
<g id="a_edge1_Node000001_Node000002"><a xlink:title=" ">
<path fill="none" stroke="#63b8ff" d="M111.32,-34.68C125.9,-36.59 141.5,-38.64 155.56,-40.48"/>
<polygon fill="#63b8ff" stroke="#63b8ff" points="155.12,-43.95 165.49,-41.78 156.03,-37.01 155.12,-43.95"/>
</a>
</g>
</g>
<!-- Node5 -->
<g id="Node000005" class="node">
<title>Node5</title>
<g id="a_Node000005"><a target="_parent" xlink:href="https://evjeesm.github.io/vector/group__Vector__API.html#ga5081815905cf71570856aef717659463" xlink:title=" ">
<polygon fill="white" stroke="#666666" points="258,-19 147,-19 147,0 258,0 258,-19"/>
<text text-anchor="middle" x="202.5" y="-7" font-family="Mononoki" font-size="10.00">vector_binary_find</text>
</a>
</g>
</g>
<!-- Node1&#45;&gt;Node5 -->
<g id="edge4_Node000001_Node000005" class="edge">
<title>Node1&#45;&gt;Node5</title>
<g id="a_edge4_Node000001_Node000005"><a xlink:title=" ">
<path fill="none" stroke="#63b8ff" d="M111.32,-20.69C119.53,-19.68 128.06,-18.62 136.46,-17.57"/>
<polygon fill="#63b8ff" stroke="#63b8ff" points="137.11,-21.02 146.6,-16.31 136.25,-14.07 137.11,-21.02"/>
</a>
</g>
</g>
<!-- Node3 -->
<g id="Node000003" class="node">
<title>Node3</title>
<g id="a_Node000003"><a xlink:href="dynarr_8c.html#a73f42f3f25cd0920d8039d63ea31be07" target="_top" xlink:title=" ">
<polygon fill="white" stroke="#666666" points="400,-56 294,-56 294,-37 400,-37 400,-56"/>
<text text-anchor="middle" x="347" y="-44" font-family="Mononoki" font-size="10.00">get_dynarr_header</text>
</a>
</g>
</g>
<!-- Node2&#45;&gt;Node3 -->
<g id="edge2_Node000002_Node000003" class="edge">
<title>Node2&#45;&gt;Node3</title>
<g id="a_edge2_Node000002_Node000003"><a xlink:title=" ">
<path fill="none" stroke="#63b8ff" d="M239.83,-46.5C253.16,-46.5 268.66,-46.5 283.63,-46.5"/>
<polygon fill="#63b8ff" stroke="#63b8ff" points="283.87,-50 293.87,-46.5 283.87,-43 283.87,-50"/>
</a>
</g>
</g>
<!-- Node4 -->
<g id="Node000004" class="node">
<title>Node4</title>
<g id="a_Node000004"><a target="_parent" xlink:href="https://evjeesm.github.io/vector/group__Vector__API.html#gafc2e34dbacffe6480af8681fbf46e808" xlink:title=" ">
<polygon fill="white" stroke="#666666" points="563,-56 436,-56 436,-37 563,-37 563,-56"/>
<text text-anchor="middle" x="499.5" y="-44" font-family="Mononoki" font-size="10.00">vector_get_ext_header</text>
</a>
</g>
</g>
<!-- Node3&#45;&gt;Node4 -->
<g id="edge3_Node000003_Node000004" class="edge">
<title>Node3&#45;&gt;Node4</title>
<g id="a_edge3_Node000003_Node000004"><a xlink:title=" ">
<path fill="none" stroke="#63b8ff" d="M400.22,-46.5C408.45,-46.5 417.1,-46.5 425.7,-46.5"/>
<polygon fill="#63b8ff" stroke="#63b8ff" points="425.75,-50 435.75,-46.5 425.75,-43 425.75,-50"/>
</a>
</g>
</g>
</g>
</svg>
