<?xml version="1.0" encoding="UTF-8" standalone="no"?>
<!DOCTYPE svg PUBLIC "-//W3C//DTD SVG 1.1//EN"
 "http://www.w3.org/Graphics/SVG/1.1/DTD/svg11.dtd">
<!-- Generated by graphviz version 2.43.0 (0)
 -->
<!-- Title: dynarr_remove Pages: 1 -->
<!--zoomable 123 -->

<svg id="main" version="1.1" xmlns="http://www.w3.org/2000/svg" xmlns:xlink="http://www.w3.org/1999/xlink" xml:space="preserve" onload="init(evt)">
<style type="text/css"><![CDATA[
.node, .edge {opacity: 0.7;}
.node.selected, .edge.selected {opacity: 1;}
.edge:hover path { stroke: red; }
.edge:hover polygon { stroke: red; fill: red; }
]]></style>

<defs>
  <circle id="rim" cx="0" cy="0" r="7"/>
  <circle id="rim2" cx="0" cy="0" r="3.5"/>
  <g id="zoomPlus">
    <use xlink:href="#rim" fill="#404040"><set attributeName="fill" to="#808080" begin="zoomplus.mouseover" end="zoomplus.mouseout"/></use>
    <path d="M-4,0h8M0,-4v8" fill="none" stroke="white" stroke-width="1.5" pointer-events="none"/>
  </g>
  <g id="zoomMin">
    <use xlink:href="#rim" fill="#404040"><set attributeName="fill" to="#808080" begin="zoomminus.mouseover" end="zoomminus.mouseout"/></use>
    <path d="M-4,0h8" fill="none" stroke="white" stroke-width="1.5" pointer-events="none"/>
  </g>
  <g id="arrowUp" transform="translate(30 24)">
    <use xlink:href="#rim"/>
    <path pointer-events="none" fill="none" stroke="white" stroke-width="1.5" d="M0,-3.0v7 M-2.5,-0.5L0,-3.0L2.5,-0.5"/>
  </g>
  <g id="arrowRight" transform="rotate(90) translate(36 -43)">
    <use xlink:href="#rim"/>
    <path pointer-events="none" fill="none" stroke="white" stroke-width="1.5" d="M0,-3.0v7 M-2.5,-0.5L0,-3.0L2.5,-0.5"/>
  </g>
  <g id="arrowDown" transform="rotate(180) translate(-30 -48)">
    <use xlink:href="#rim"/>
    <path pointer-events="none" fill="none" stroke="white" stroke-width="1.5" d="M0,-3.0v7 M-2.5,-0.5L0,-3.0L2.5,-0.5"/>
  </g>
  <g id="arrowLeft" transform="rotate(270) translate(-36 17)">
    <use xlink:href="#rim"/>
    <path pointer-events="none" fill="none" stroke="white" stroke-width="1.5" d="M0,-3.0v7 M-2.5,-0.5L0,-3.0L2.5,-0.5"/>
  </g>
  <g id="resetDef">
    <use xlink:href="#rim2" fill="#404040"><set attributeName="fill" to="#808080" begin="reset.mouseover" end="reset.mouseout"/></use>
  </g>
</defs>
<script type="application/ecmascript">
var viewWidth = 744;
var viewHeight = 123;
var sectionId = 'dynsection-15';
</script>
<script type="application/ecmascript" xlink:href="svg.min.js"/>
<svg id="graph" class="graph">
<g id="viewport">
<title>dynarr_remove</title>
<!-- Node1 -->
<g id="Node000001" class="node">
<title>Node1</title>
<g id="a_Node000001"><a xlink:title=" ">
<polygon fill="#999999" stroke="#666666" points="85,-76.7 0,-76.7 0,-57.7 85,-57.7 85,-76.7"/>
<text text-anchor="middle" x="42.5" y="-64.7" font-family="Mononoki" font-size="10.00">dynarr_remove</text>
</a>
</g>
</g>
<!-- Node2 -->
<g id="Node000002" class="node">
<title>Node2</title>
<g id="a_Node000002"><a xlink:href="group__Dynarr__API.html#ga1187f49d8bde19551b2c95ad430e596c" target="_top" xlink:title=" ">
<polygon fill="white" stroke="#666666" points="237,-76.7 121,-76.7 121,-57.7 237,-57.7 237,-76.7"/>
<text text-anchor="middle" x="179" y="-64.7" font-family="Mononoki" font-size="10.00">dynarr_remove_range</text>
</a>
</g>
</g>
<!-- Node1&#45;&gt;Node2 -->
<g id="edge1_Node000001_Node000002" class="edge">
<title>Node1&#45;&gt;Node2</title>
<g id="a_edge1_Node000001_Node000002"><a xlink:title=" ">
<path fill="none" stroke="#63b8ff" d="M85.32,-67.2C93.41,-67.2 102.08,-67.2 110.75,-67.2"/>
<polygon fill="#63b8ff" stroke="#63b8ff" points="110.89,-70.7 120.89,-67.2 110.89,-63.7 110.89,-70.7"/>
</a>
</g>
</g>
<!-- Node3 -->
<g id="Node000003" class="node">
<title>Node3</title>
<g id="a_Node000003"><a xlink:href="group__Dynarr__API.html#gaf5c43e2644d185b9b01065af34ed6e29" target="_top" xlink:title=" ">
<polygon fill="white" stroke="#666666" points="583.5,-38.7 509.5,-38.7 509.5,-19.7 583.5,-19.7 583.5,-38.7"/>
<text text-anchor="middle" x="546.5" y="-26.7" font-family="Mononoki" font-size="10.00">dynarr_size</text>
</a>
</g>
</g>
<!-- Node2&#45;&gt;Node3 -->
<g id="edge2_Node000002_Node000003" class="edge">
<title>Node2&#45;&gt;Node3</title>
<g id="a_edge2_Node000002_Node000003"><a xlink:title=" ">
<path fill="none" stroke="#63b8ff" d="M237.17,-65.58C294.52,-63.39 385.24,-58.37 463,-47.2 474.78,-45.51 487.39,-43.08 499.12,-40.55"/>
<polygon fill="#63b8ff" stroke="#63b8ff" points="500.15,-43.9 509.15,-38.32 498.63,-37.07 500.15,-43.9"/>
</a>
</g>
</g>
<!-- Node5 -->
<g id="Node000005" class="node">
<title>Node5</title>
<g id="a_Node000005"><a xlink:href="group__Auto-resize.html#ga9ff20c2ac9693f6d8f0ea97f9b46539c" target="_top" xlink:title=" ">
<polygon fill="white" stroke="#666666" points="358,-19.7 273,-19.7 273,-0.7 358,-0.7 358,-19.7"/>
<text text-anchor="middle" x="315.5" y="-7.7" font-family="Mononoki" font-size="10.00">free_space_at</text>
</a>
</g>
</g>
<!-- Node2&#45;&gt;Node5 -->
<g id="edge4_Node000002_Node000005" class="edge">
<title>Node2&#45;&gt;Node5</title>
<g id="a_edge4_Node000002_Node000005"><a xlink:title=" ">
<path fill="none" stroke="#63b8ff" d="M202.51,-57.66C224.43,-48.37 257.95,-34.17 282.61,-23.72"/>
<polygon fill="#63b8ff" stroke="#63b8ff" points="284.07,-26.9 291.91,-19.77 281.34,-20.45 284.07,-26.9"/>
</a>
</g>
</g>
<!-- Node7 -->
<g id="Node000007" class="node">
<title>Node7</title>
<g id="a_Node000007"><a xlink:href="group__Auto-resize.html#ga8eb6c0a577084ccd7a64bec67b8bdbbe" target="_top" xlink:title=" ">
<polygon fill="white" stroke="#666666" points="452.5,-114.7 404.5,-114.7 404.5,-95.7 452.5,-95.7 452.5,-114.7"/>
<text text-anchor="middle" x="428.5" y="-102.7" font-family="Mononoki" font-size="10.00">shrink</text>
</a>
</g>
</g>
<!-- Node2&#45;&gt;Node7 -->
<g id="edge9_Node000002_Node000007" class="edge">
<title>Node2&#45;&gt;Node7</title>
<g id="a_edge9_Node000002_Node000007"><a xlink:title=" ">
<path fill="none" stroke="#63b8ff" d="M237.09,-75.97C285.84,-83.45 354.26,-93.96 394.43,-100.12"/>
<polygon fill="#63b8ff" stroke="#63b8ff" points="394.07,-103.61 404.49,-101.67 395.14,-96.69 394.07,-103.61"/>
</a>
</g>
</g>
<!-- Node4 -->
<g id="Node000004" class="node">
<title>Node4</title>
<g id="a_Node000004"><a xlink:href="dynarr_8c.html#a73f42f3f25cd0920d8039d63ea31be07" target="_top" xlink:title=" ">
<polygon fill="white" stroke="#666666" points="736,-38.7 630,-38.7 630,-19.7 736,-19.7 736,-38.7"/>
<text text-anchor="middle" x="683" y="-26.7" font-family="Mononoki" font-size="10.00">get_dynarr_header</text>
</a>
</g>
</g>
<!-- Node3&#45;&gt;Node4 -->
<g id="edge3_Node000003_Node000004" class="edge">
<title>Node3&#45;&gt;Node4</title>
<g id="a_edge3_Node000003_Node000004"><a xlink:title=" ">
<path fill="none" stroke="#63b8ff" d="M583.54,-29.2C594.67,-29.2 607.26,-29.2 619.63,-29.2"/>
<polygon fill="#63b8ff" stroke="#63b8ff" points="619.93,-32.7 629.93,-29.2 619.93,-25.7 619.93,-32.7"/>
</a>
</g>
</g>
<!-- Node5&#45;&gt;Node3 -->
<g id="edge7_Node000005_Node000003" class="edge">
<title>Node5&#45;&gt;Node3</title>
<g id="a_edge7_Node000005_Node000003"><a xlink:title=" ">
<path fill="none" stroke="#63b8ff" d="M358,-7.71C387.41,-6.55 427.75,-6.19 463,-10.2 475.91,-11.67 489.73,-14.39 502.31,-17.32"/>
<polygon fill="#63b8ff" stroke="#63b8ff" points="501.54,-20.73 512.08,-19.69 503.19,-13.93 501.54,-20.73"/>
</a>
</g>
</g>
<!-- Node5&#45;&gt;Node4 -->
<g id="edge8_Node000005_Node000004" class="edge">
<title>Node5&#45;&gt;Node4</title>
<g id="a_edge8_Node000005_Node000004"><a xlink:title=" ">
<path fill="none" stroke="#63b8ff" d="M358.28,-5.73C369.84,-4.69 382.39,-3.72 394,-3.2 482.85,0.8 505.84,1.59 594,-10.2 607.08,-11.95 621.1,-14.61 634.03,-17.4"/>
<polygon fill="#63b8ff" stroke="#63b8ff" points="633.59,-20.89 644.12,-19.64 635.11,-14.05 633.59,-20.89"/>
</a>
</g>
</g>
<!-- Node6 -->
<g id="Node000006" class="node">
<title>Node6</title>
<g id="a_Node000006"><a xlink:href="group__Dynarr__API.html#ga93c32dd116523090126d427cce08e114" target="_top" xlink:title=" ">
<polygon fill="white" stroke="#666666" points="463,-38.7 394,-38.7 394,-19.7 463,-19.7 463,-38.7"/>
<text text-anchor="middle" x="428.5" y="-26.7" font-family="Mononoki" font-size="10.00">dynarr_get</text>
</a>
</g>
</g>
<!-- Node5&#45;&gt;Node6 -->
<g id="edge5_Node000005_Node000006" class="edge">
<title>Node5&#45;&gt;Node6</title>
<g id="a_edge5_Node000005_Node000006"><a xlink:title=" ">
<path fill="none" stroke="#63b8ff" d="M358.15,-17.33C366.55,-18.77 375.39,-20.28 383.86,-21.73"/>
<polygon fill="#63b8ff" stroke="#63b8ff" points="383.49,-25.22 393.93,-23.46 384.67,-18.32 383.49,-25.22"/>
</a>
</g>
</g>
<!-- Node6&#45;&gt;Node3 -->
<g id="edge6_Node000006_Node000003" class="edge">
<title>Node6&#45;&gt;Node3</title>
<g id="a_edge6_Node000006_Node000003"><a xlink:title=" ">
<path fill="none" stroke="#63b8ff" d="M463.05,-29.2C474.23,-29.2 486.89,-29.2 498.88,-29.2"/>
<polygon fill="#63b8ff" stroke="#63b8ff" points="499.18,-32.7 509.18,-29.2 499.18,-25.7 499.18,-32.7"/>
</a>
</g>
</g>
<!-- Node7&#45;&gt;Node3 -->
<g id="edge11_Node000007_Node000003" class="edge">
<title>Node7&#45;&gt;Node3</title>
<g id="a_edge11_Node000007_Node000003"><a xlink:title=" ">
<path fill="none" stroke="#63b8ff" d="M443.8,-95.53C449.85,-91.29 456.89,-86.16 463,-81.2 479.85,-67.52 480.67,-59.82 499,-48.2 501.96,-46.32 505.14,-44.57 508.4,-42.94"/>
<polygon fill="#63b8ff" stroke="#63b8ff" points="510.02,-46.05 517.65,-38.7 507.1,-39.68 510.02,-46.05"/>
</a>
</g>
</g>
<!-- Node7&#45;&gt;Node4 -->
<g id="edge12_Node000007_Node000004" class="edge">
<title>Node7&#45;&gt;Node4</title>
<g id="a_edge12_Node000007_Node000004"><a xlink:title=" ">
<path fill="none" stroke="#63b8ff" d="M452.58,-105.57C485.09,-105.39 545.79,-102.47 594,-85.2 619.7,-76 645.64,-58.22 662.63,-45.15"/>
<polygon fill="#63b8ff" stroke="#63b8ff" points="664.97,-47.77 670.65,-38.82 660.64,-42.27 664.97,-47.77"/>
</a>
</g>
</g>
<!-- Node8 -->
<g id="Node000008" class="node">
<title>Node8</title>
<g id="a_Node000008"><a xlink:href="group__Dynarr__API.html#ga3ff11107726213a640d814b63cb123b2" target="_top" xlink:title=" ">
<polygon fill="white" stroke="#666666" points="594,-76.7 499,-76.7 499,-57.7 594,-57.7 594,-76.7"/>
<text text-anchor="middle" x="546.5" y="-64.7" font-family="Mononoki" font-size="10.00">dynarr_capacity</text>
</a>
</g>
</g>
<!-- Node7&#45;&gt;Node8 -->
<g id="edge10_Node000007_Node000008" class="edge">
<title>Node7&#45;&gt;Node8</title>
<g id="a_edge10_Node000007_Node000008"><a xlink:title=" ">
<path fill="none" stroke="#63b8ff" d="M452.7,-97.6C468.09,-92.56 488.68,-85.81 506.56,-79.96"/>
<polygon fill="#63b8ff" stroke="#63b8ff" points="507.74,-83.25 516.16,-76.81 505.56,-76.6 507.74,-83.25"/>
</a>
</g>
</g>
</g>
</svg>

<g id="navigator" transform="translate(0 0)" fill="#404254">
  <rect fill="#f2f5e9" fill-opacity="0.5" stroke="#606060" stroke-width=".5" x="0" y="0" width="60" height="60"/>
  <use id="zoomplus" xlink:href="#zoomPlus" x="17" y="9" onmousedown="handleZoom(evt,'in')"/>
  <use id="zoomminus" xlink:href="#zoomMin" x="42" y="9" onmousedown="handleZoom(evt,'out')"/>
  <use id="reset" xlink:href="#resetDef" x="30" y="36" onmousedown="handleReset()"/>
   <use id="arrowup" xlink:href="#arrowUp" x="0" y="0" onmousedown="handlePan(0,-1)"/>
  <use id="arrowright" xlink:href="#arrowRight" x="0" y="0" onmousedown="handlePan(1,0)"/>
  <use id="arrowdown" xlink:href="#arrowDown" x="0" y="0" onmousedown="handlePan(0,1)"/>
  <use id="arrowleft" xlink:href="#arrowLeft" x="0" y="0" onmousedown="handlePan(-1,0)"/>
</g>
<svg viewBox="0 0 15 15" width="100%" height="30px" preserveAspectRatio="xMaxYMin meet">
 <g id="arrow_out" transform="scale(0.3 0.3)">
  <a xlink:href="group__Dynarr__API_gae2e52e602d3867ce3e5fee688ea20263_cgraph_org.svg" target="_base">
   <rect id="button" ry="5" rx="5" y="6" x="6" height="38" width="38"
        fill="#f2f5e9" fill-opacity="0.5" stroke="#606060" stroke-width="1.0"/>
   <path id="arrow"
     d="M 11.500037,31.436501 C 11.940474,20.09759 22.043105,11.32322 32.158766,21.979434 L 37.068811,17.246167 C 37.068811,17.246167 37.088388,32 37.088388,32 L 22.160133,31.978069 C 22.160133,31.978069 26.997745,27.140456 26.997745,27.140456 C 18.528582,18.264221 13.291696,25.230495 11.500037,31.436501 z"
     style="fill:#404040;"/>
  </a>
 </g>
</svg>

<style type='text/css'>
<![CDATA[
[data-mouse-over-selected='false'] { opacity: 0.7; }
[data-mouse-over-selected='true']  { opacity: 1.0; }
]]>
</style>
<script type="application/ecmascript"><![CDATA[
document.addEventListener('DOMContentLoaded', (event) => {
  highlightEdges();
  highlightAdjacentNodes();
});
]]></script>
</svg>
