<?xml version="1.0" encoding="UTF-8" standalone="no"?>
<!DOCTYPE svg PUBLIC "-//W3C//DTD SVG 1.1//EN"
 "http://www.w3.org/Graphics/SVG/1.1/DTD/svg11.dtd">
<!-- Generated by graphviz version 2.43.0 (0)
 -->
<!-- Title: dynarr_binary_insert Pages: 1 -->
<!--zoomable 386 -->

<svg id="main" version="1.1" xmlns="http://www.w3.org/2000/svg" xmlns:xlink="http://www.w3.org/1999/xlink" xml:space="preserve" onload="init(evt)">
<style type="text/css"><![CDATA[
.node, .edge {opacity: 0.7;}
.node.selected, .edge.selected {opacity: 1;}
.edge:hover path { stroke: red; }
.edge:hover polygon { stroke: red; fill: red; }
]]></style>

<defs>
  <circle id="rim" cx="0" cy="0" r="7"/>
  <circle id="rim2" cx="0" cy="0" r="3.5"/>
  <g id="zoomPlus">
    <use xlink:href="#rim" fill="#404040"><set attributeName="fill" to="#808080" begin="zoomplus.mouseover" end="zoomplus.mouseout"/></use>
    <path d="M-4,0h8M0,-4v8" fill="none" stroke="white" stroke-width="1.5" pointer-events="none"/>
  </g>
  <g id="zoomMin">
    <use xlink:href="#rim" fill="#404040"><set attributeName="fill" to="#808080" begin="zoomminus.mouseover" end="zoomminus.mouseout"/></use>
    <path d="M-4,0h8" fill="none" stroke="white" stroke-width="1.5" pointer-events="none"/>
  </g>
  <g id="arrowUp" transform="translate(30 24)">
    <use xlink:href="#rim"/>
    <path pointer-events="none" fill="none" stroke="white" stroke-width="1.5" d="M0,-3.0v7 M-2.5,-0.5L0,-3.0L2.5,-0.5"/>
  </g>
  <g id="arrowRight" transform="rotate(90) translate(36 -43)">
    <use xlink:href="#rim"/>
    <path pointer-events="none" fill="none" stroke="white" stroke-width="1.5" d="M0,-3.0v7 M-2.5,-0.5L0,-3.0L2.5,-0.5"/>
  </g>
  <g id="arrowDown" transform="rotate(180) translate(-30 -48)">
    <use xlink:href="#rim"/>
    <path pointer-events="none" fill="none" stroke="white" stroke-width="1.5" d="M0,-3.0v7 M-2.5,-0.5L0,-3.0L2.5,-0.5"/>
  </g>
  <g id="arrowLeft" transform="rotate(270) translate(-36 17)">
    <use xlink:href="#rim"/>
    <path pointer-events="none" fill="none" stroke="white" stroke-width="1.5" d="M0,-3.0v7 M-2.5,-0.5L0,-3.0L2.5,-0.5"/>
  </g>
  <g id="resetDef">
    <use xlink:href="#rim2" fill="#404040"><set attributeName="fill" to="#808080" begin="reset.mouseover" end="reset.mouseout"/></use>
  </g>
</defs>
<script type="application/ecmascript">
var viewWidth = 1012;
var viewHeight = 386;
var sectionId = 'dynsection-25';
</script>
<script type="application/ecmascript" xlink:href="svg.min.js"/>
<svg id="graph" class="graph">
<g id="viewport">
<title>dynarr_binary_insert</title>
<!-- Node1 -->
<g id="Node000001" class="node">
<title>Node1</title>
<g id="a_Node000001"><a xlink:title=" ">
<polygon fill="#999999" stroke="#666666" points="122,-142.5 0,-142.5 0,-123.5 122,-123.5 122,-142.5"/>
<text text-anchor="middle" x="61" y="-130.5" font-family="Mononoki" font-size="10.00">dynarr_binary_insert</text>
</a>
</g>
</g>
<!-- Node2 -->
<g id="Node000002" class="node">
<title>Node2</title>
<g id="a_Node000002"><a xlink:href="group__Dynarr__API.html#ga5f6a46fc8cc0cfe14d98926cadbaa35d" target="_top" xlink:title=" ">
<polygon fill="white" stroke="#666666" points="269,-91 158,-91 158,-61 269,-61 269,-91"/>
<text text-anchor="start" x="166" y="-79" font-family="Mononoki" font-size="10.00">dynarr_binary_find</text>
<text text-anchor="middle" x="213.5" y="-68" font-family="Mononoki" font-size="10.00">_insert_place</text>
</a>
</g>
</g>
<!-- Node1&#45;&gt;Node2 -->
<g id="edge1_Node000001_Node000002" class="edge">
<title>Node1&#45;&gt;Node2</title>
<g id="a_edge1_Node000001_Node000002"><a xlink:title=" ">
<path fill="none" stroke="#63b8ff" d="M87.19,-123.46C107.89,-115.62 137.84,-104.27 163.27,-94.64"/>
<polygon fill="#63b8ff" stroke="#63b8ff" points="164.66,-97.86 172.77,-91.05 162.18,-91.32 164.66,-97.86"/>
</a>
</g>
</g>
<!-- Node9 -->
<g id="Node000009" class="node">
<title>Node9</title>
<g id="a_Node000009"><a xlink:href="group__Dynarr__API.html#gab449a79e6b33f55af35329df4363336e" target="_top" xlink:title=" ">
<polygon fill="white" stroke="#666666" points="256,-199.5 171,-199.5 171,-180.5 256,-180.5 256,-199.5"/>
<text text-anchor="middle" x="213.5" y="-187.5" font-family="Mononoki" font-size="10.00">dynarr_insert</text>
</a>
</g>
</g>
<!-- Node1&#45;&gt;Node9 -->
<g id="edge10_Node000001_Node000009" class="edge">
<title>Node1&#45;&gt;Node9</title>
<g id="a_edge10_Node000001_Node000009"><a xlink:title=" ">
<path fill="none" stroke="#63b8ff" d="M87.19,-142.54C111.93,-151.91 149.89,-166.29 177.55,-176.76"/>
<polygon fill="#63b8ff" stroke="#63b8ff" points="176.64,-180.16 187.23,-180.43 179.12,-173.61 176.64,-180.16"/>
</a>
</g>
</g>
<!-- Node3 -->
<g id="Node000003" class="node">
<title>Node3</title>
<g id="a_Node000003"><a xlink:href="dynarr_8c.html#a187b18732062f4f69486553f37697739" target="_top" xlink:title=" ">
<polygon fill="white" stroke="#666666" points="416,-30 305,-30 305,0 416,0 416,-30"/>
<text text-anchor="start" x="313" y="-18" font-family="Mononoki" font-size="10.00">binary_find_insert</text>
<text text-anchor="middle" x="360.5" y="-7" font-family="Mononoki" font-size="10.00">_place</text>
</a>
</g>
</g>
<!-- Node2&#45;&gt;Node3 -->
<g id="edge2_Node000002_Node000003" class="edge">
<title>Node2&#45;&gt;Node3</title>
<g id="a_edge2_Node000002_Node000003"><a xlink:title=" ">
<path fill="none" stroke="#63b8ff" d="M250.34,-60.92C269.67,-52.79 293.72,-42.67 314.32,-34.01"/>
<polygon fill="#63b8ff" stroke="#63b8ff" points="315.96,-37.11 323.82,-30.01 313.24,-30.66 315.96,-37.11"/>
</a>
</g>
</g>
<!-- Node5 -->
<g id="Node000005" class="node">
<title>Node5</title>
<g id="a_Node000005"><a xlink:href="group__Dynarr__API.html#gaf5c43e2644d185b9b01065af34ed6e29" target="_top" xlink:title=" ">
<polygon fill="white" stroke="#666666" points="688.5,-199.5 614.5,-199.5 614.5,-180.5 688.5,-180.5 688.5,-199.5"/>
<text text-anchor="middle" x="651.5" y="-187.5" font-family="Mononoki" font-size="10.00">dynarr_size</text>
</a>
</g>
</g>
<!-- Node2&#45;&gt;Node5 -->
<g id="edge9_Node000002_Node000005" class="edge">
<title>Node2&#45;&gt;Node5</title>
<g id="a_edge9_Node000002_Node000005"><a xlink:title=" ">
<path fill="none" stroke="#63b8ff" d="M269.09,-73.65C340.75,-72.59 469.06,-77.81 568,-121 595.11,-132.83 620.25,-156.44 635.49,-172.72"/>
<polygon fill="#63b8ff" stroke="#63b8ff" points="633.2,-175.4 642.51,-180.46 638.38,-170.7 633.2,-175.4"/>
</a>
</g>
</g>
<!-- Node3&#45;&gt;Node3 -->
<g id="edge3_Node000003_Node000003" class="edge">
<title>Node3&#45;&gt;Node3</title>
<g id="a_edge3_Node000003_Node000003"><a xlink:title=" ">
<path fill="none" stroke="#63b8ff" d="M334.84,-30.28C329.13,-39.41 337.69,-48 360.5,-48 374.04,-48 382.56,-44.97 386.06,-40.6"/>
<polygon fill="#63b8ff" stroke="#63b8ff" points="389.56,-40.31 386.16,-30.28 382.56,-40.24 389.56,-40.31"/>
</a>
</g>
</g>
<!-- Node4 -->
<g id="Node000004" class="node">
<title>Node4</title>
<g id="a_Node000004"><a xlink:href="group__Dynarr__API.html#ga93c32dd116523090126d427cce08e114" target="_top" xlink:title=" ">
<polygon fill="white" stroke="#666666" points="544.5,-47.5 475.5,-47.5 475.5,-28.5 544.5,-28.5 544.5,-47.5"/>
<text text-anchor="middle" x="510" y="-35.5" font-family="Mononoki" font-size="10.00">dynarr_get</text>
</a>
</g>
</g>
<!-- Node3&#45;&gt;Node4 -->
<g id="edge4_Node000003_Node000004" class="edge">
<title>Node3&#45;&gt;Node4</title>
<g id="a_edge4_Node000003_Node000004"><a xlink:title=" ">
<path fill="none" stroke="#63b8ff" d="M416,-23.5C432.14,-26.02 449.6,-28.74 464.98,-31.14"/>
<polygon fill="#63b8ff" stroke="#63b8ff" points="464.84,-34.66 475.26,-32.74 465.92,-27.74 464.84,-34.66"/>
</a>
</g>
</g>
<!-- Node4&#45;&gt;Node5 -->
<g id="edge5_Node000004_Node000005" class="edge">
<title>Node4&#45;&gt;Node5</title>
<g id="a_edge5_Node000004_Node000005"><a xlink:title=" ">
<path fill="none" stroke="#63b8ff" d="M543.07,-47.59C551.77,-51.19 560.76,-55.92 568,-62 604.45,-92.6 630.43,-143.45 642.64,-170.95"/>
<polygon fill="#63b8ff" stroke="#63b8ff" points="639.48,-172.45 646.64,-180.25 645.91,-169.68 639.48,-172.45"/>
</a>
</g>
</g>
<!-- Node8 -->
<g id="Node000008" class="node">
<title>Node8</title>
<g id="a_Node000008"><a target="_parent" xlink:href="https://evjeesm.github.io/vector/group__Vector__API.html#ga9437d9506a3b2799f595c88b82f160b3" xlink:title=" ">
<polygon fill="white" stroke="#666666" points="686,-47.5 617,-47.5 617,-28.5 686,-28.5 686,-47.5"/>
<text text-anchor="middle" x="651.5" y="-35.5" font-family="Mononoki" font-size="10.00">vector_get</text>
</a>
</g>
</g>
<!-- Node4&#45;&gt;Node8 -->
<g id="edge8_Node000004_Node000008" class="edge">
<title>Node4&#45;&gt;Node8</title>
<g id="a_edge8_Node000004_Node000008"><a xlink:title=" ">
<path fill="none" stroke="#63b8ff" d="M544.77,-38C563.31,-38 586.52,-38 606.47,-38"/>
<polygon fill="#63b8ff" stroke="#63b8ff" points="606.56,-41.5 616.56,-38 606.56,-34.5 606.56,-41.5"/>
</a>
</g>
</g>
<!-- Node6 -->
<g id="Node000006" class="node">
<title>Node6</title>
<g id="a_Node000006"><a xlink:href="dynarr_8c.html#a73f42f3f25cd0920d8039d63ea31be07" target="_top" xlink:title=" ">
<polygon fill="white" stroke="#666666" points="841,-237.5 735,-237.5 735,-218.5 841,-218.5 841,-237.5"/>
<text text-anchor="middle" x="788" y="-225.5" font-family="Mononoki" font-size="10.00">get_dynarr_header</text>
</a>
</g>
</g>
<!-- Node5&#45;&gt;Node6 -->
<g id="edge6_Node000005_Node000006" class="edge">
<title>Node5&#45;&gt;Node6</title>
<g id="a_edge6_Node000005_Node000006"><a xlink:title=" ">
<path fill="none" stroke="#63b8ff" d="M686.44,-199.59C703.72,-204.47 724.93,-210.46 743.41,-215.68"/>
<polygon fill="#63b8ff" stroke="#63b8ff" points="742.5,-219.06 753.07,-218.41 744.4,-212.33 742.5,-219.06"/>
</a>
</g>
</g>
<!-- Node7 -->
<g id="Node000007" class="node">
<title>Node7</title>
<g id="a_Node000007"><a target="_parent" xlink:href="https://evjeesm.github.io/vector/group__Vector__API.html#gafc2e34dbacffe6480af8681fbf46e808" xlink:title=" ">
<polygon fill="white" stroke="#666666" points="1004,-237.5 877,-237.5 877,-218.5 1004,-218.5 1004,-237.5"/>
<text text-anchor="middle" x="940.5" y="-225.5" font-family="Mononoki" font-size="10.00">vector_get_ext_header</text>
</a>
</g>
</g>
<!-- Node6&#45;&gt;Node7 -->
<g id="edge7_Node000006_Node000007" class="edge">
<title>Node6&#45;&gt;Node7</title>
<g id="a_edge7_Node000006_Node000007"><a xlink:title=" ">
<path fill="none" stroke="#63b8ff" d="M841.22,-228C849.45,-228 858.1,-228 866.7,-228"/>
<polygon fill="#63b8ff" stroke="#63b8ff" points="866.75,-231.5 876.75,-228 866.75,-224.5 866.75,-231.5"/>
</a>
</g>
</g>
<!-- Node9&#45;&gt;Node5 -->
<g id="edge14_Node000009_Node000005" class="edge">
<title>Node9&#45;&gt;Node5</title>
<g id="a_edge14_Node000009_Node000005"><a xlink:title=" ">
<path fill="none" stroke="#63b8ff" d="M256.31,-190C338.15,-190 518.95,-190 604.24,-190"/>
<polygon fill="#63b8ff" stroke="#63b8ff" points="604.4,-193.5 614.4,-190 604.4,-186.5 604.4,-193.5"/>
</a>
</g>
</g>
<!-- Node10 -->
<g id="Node000010" class="node">
<title>Node10</title>
<g id="a_Node000010"><a xlink:href="group__Dynarr__API.html#ga30d508a9f387e2227dd0d72a8bfd2a39" target="_top" xlink:title=" ">
<polygon fill="white" stroke="#666666" points="395,-275.5 326,-275.5 326,-256.5 395,-256.5 395,-275.5"/>
<text text-anchor="middle" x="360.5" y="-263.5" font-family="Mononoki" font-size="10.00">dynarr_set</text>
</a>
</g>
</g>
<!-- Node9&#45;&gt;Node10 -->
<g id="edge11_Node000009_Node000010" class="edge">
<title>Node9&#45;&gt;Node10</title>
<g id="a_edge11_Node000009_Node000010"><a xlink:title=" ">
<path fill="none" stroke="#63b8ff" d="M232.86,-199.63C257.92,-212.76 303.03,-236.4 332.09,-251.64"/>
<polygon fill="#63b8ff" stroke="#63b8ff" points="330.8,-254.91 341.28,-256.45 334.05,-248.71 330.8,-254.91"/>
</a>
</g>
</g>
<!-- Node12 -->
<g id="Node000012" class="node">
<title>Node12</title>
<g id="a_Node000012"><a xlink:href="group__Auto-resize.html#ga036b69c5b674d3ac22027b04ba235b42" target="_top" xlink:title=" ">
<polygon fill="white" stroke="#666666" points="529,-350.5 491,-350.5 491,-331.5 529,-331.5 529,-350.5"/>
<text text-anchor="middle" x="510" y="-338.5" font-family="Mononoki" font-size="10.00">grow</text>
</a>
</g>
</g>
<!-- Node9&#45;&gt;Node12 -->
<g id="edge15_Node000009_Node000012" class="edge">
<title>Node9&#45;&gt;Node12</title>
<g id="a_edge15_Node000009_Node000012"><a xlink:title=" ">
<path fill="none" stroke="#63b8ff" d="M220.97,-199.73C234.32,-219.02 266.87,-262.21 305,-285 361.72,-318.9 439.48,-332.81 480.69,-338.09"/>
<polygon fill="#63b8ff" stroke="#63b8ff" points="480.47,-341.58 490.82,-339.3 481.3,-334.63 480.47,-341.58"/>
</a>
</g>
</g>
<!-- Node16 -->
<g id="Node000016" class="node">
<title>Node16</title>
<g id="a_Node000016"><a xlink:href="group__Auto-resize.html#gadb26f84b95f0ca45c7ccbd72e337485a" target="_top" xlink:title=" ">
<polygon fill="white" stroke="#666666" points="403,-161.5 318,-161.5 318,-142.5 403,-142.5 403,-161.5"/>
<text text-anchor="middle" x="360.5" y="-149.5" font-family="Mononoki" font-size="10.00">make_space_at</text>
</a>
</g>
</g>
<!-- Node9&#45;&gt;Node16 -->
<g id="edge21_Node000009_Node000016" class="edge">
<title>Node9&#45;&gt;Node16</title>
<g id="a_edge21_Node000009_Node000016"><a xlink:title=" ">
<path fill="none" stroke="#63b8ff" d="M251.09,-180.41C269.97,-175.46 293.19,-169.38 313.29,-164.11"/>
<polygon fill="#63b8ff" stroke="#63b8ff" points="314.39,-167.44 323.17,-161.52 312.61,-160.67 314.39,-167.44"/>
</a>
</g>
</g>
<!-- Node10&#45;&gt;Node5 -->
<g id="edge12_Node000010_Node000005" class="edge">
<title>Node10&#45;&gt;Node5</title>
<g id="a_edge12_Node000010_Node000005"><a xlink:title=" ">
<path fill="none" stroke="#63b8ff" d="M395.22,-257.13C447.01,-243.51 546.27,-217.41 604.59,-202.07"/>
<polygon fill="#63b8ff" stroke="#63b8ff" points="605.5,-205.45 614.28,-199.52 603.72,-198.68 605.5,-205.45"/>
</a>
</g>
</g>
<!-- Node11 -->
<g id="Node000011" class="node">
<title>Node11</title>
<g id="a_Node000011"><a target="_parent" xlink:href="https://evjeesm.github.io/vector/group__Vector__API.html#gab3a5e466261d31ee9edd77a5eb280030" xlink:title=" ">
<polygon fill="white" stroke="#666666" points="544.5,-313.5 475.5,-313.5 475.5,-294.5 544.5,-294.5 544.5,-313.5"/>
<text text-anchor="middle" x="510" y="-301.5" font-family="Mononoki" font-size="10.00">vector_set</text>
</a>
</g>
</g>
<!-- Node10&#45;&gt;Node11 -->
<g id="edge13_Node000010_Node000011" class="edge">
<title>Node10&#45;&gt;Node11</title>
<g id="a_edge13_Node000010_Node000011"><a xlink:title=" ">
<path fill="none" stroke="#63b8ff" d="M395.34,-274.72C416.14,-280.08 443,-287 465.39,-292.76"/>
<polygon fill="#63b8ff" stroke="#63b8ff" points="464.76,-296.22 475.32,-295.32 466.51,-289.44 464.76,-296.22"/>
</a>
</g>
</g>
<!-- Node12&#45;&gt;Node5 -->
<g id="edge18_Node000012_Node000005" class="edge">
<title>Node12&#45;&gt;Node5</title>
<g id="a_edge18_Node000012_Node000005"><a xlink:title=" ">
<path fill="none" stroke="#63b8ff" d="M529.22,-338.6C541.24,-336.27 556.77,-331.73 568,-323 578.35,-314.96 619.97,-243.48 639.84,-208.76"/>
<polygon fill="#63b8ff" stroke="#63b8ff" points="643.12,-210.07 645.03,-199.65 637.04,-206.6 643.12,-210.07"/>
</a>
</g>
</g>
<!-- Node12&#45;&gt;Node6 -->
<g id="edge19_Node000012_Node000006" class="edge">
<title>Node12&#45;&gt;Node6</title>
<g id="a_edge19_Node000012_Node000006"><a xlink:title=" ">
<path fill="none" stroke="#63b8ff" d="M529.13,-335.8C540.41,-332.43 555.17,-327.79 568,-323 637.01,-297.22 715.77,-261.44 757.47,-241.97"/>
<polygon fill="#63b8ff" stroke="#63b8ff" points="759.19,-245.03 766.76,-237.62 756.22,-238.69 759.19,-245.03"/>
</a>
</g>
</g>
<!-- Node13 -->
<g id="Node000013" class="node">
<title>Node13</title>
<g id="a_Node000013"><a xlink:href="group__Dynarr__API.html#ga3ff11107726213a640d814b63cb123b2" target="_top" xlink:title=" ">
<polygon fill="white" stroke="#666666" points="699,-377.5 604,-377.5 604,-358.5 699,-358.5 699,-377.5"/>
<text text-anchor="middle" x="651.5" y="-365.5" font-family="Mononoki" font-size="10.00">dynarr_capacity</text>
</a>
</g>
</g>
<!-- Node12&#45;&gt;Node13 -->
<g id="edge16_Node000012_Node000013" class="edge">
<title>Node12&#45;&gt;Node13</title>
<g id="a_edge16_Node000012_Node000013"><a xlink:title=" ">
<path fill="none" stroke="#63b8ff" d="M529.24,-344.53C545.64,-347.7 570.64,-352.54 593.68,-357"/>
<polygon fill="#63b8ff" stroke="#63b8ff" points="593.27,-360.49 603.75,-358.95 594.6,-353.61 593.27,-360.49"/>
</a>
</g>
</g>
<!-- Node15 -->
<g id="Node000015" class="node">
<title>Node15</title>
<g id="a_Node000015"><a target="_parent" xlink:href="https://evjeesm.github.io/vector/group__Vector__API.html#ga6e5077303af4dfe720af5a0608553922" xlink:title=" ">
<polygon fill="white" stroke="#666666" points="694,-340.5 609,-340.5 609,-321.5 694,-321.5 694,-340.5"/>
<text text-anchor="middle" x="651.5" y="-328.5" font-family="Mononoki" font-size="10.00">vector_resize</text>
</a>
</g>
</g>
<!-- Node12&#45;&gt;Node15 -->
<g id="edge20_Node000012_Node000015" class="edge">
<title>Node12&#45;&gt;Node15</title>
<g id="a_edge20_Node000012_Node000015"><a xlink:title=" ">
<path fill="none" stroke="#63b8ff" d="M529.24,-339.69C546.81,-338.43 574.25,-336.47 598.59,-334.72"/>
<polygon fill="#63b8ff" stroke="#63b8ff" points="599.06,-338.2 608.79,-333.99 598.56,-331.21 599.06,-338.2"/>
</a>
</g>
</g>
<!-- Node14 -->
<g id="Node000014" class="node">
<title>Node14</title>
<g id="a_Node000014"><a target="_parent" xlink:href="https://evjeesm.github.io/vector/group__Vector__API.html#gab24bd801f91d4ae1ac79b54430b0409f" xlink:title=" ">
<polygon fill="white" stroke="#666666" points="835.5,-377.5 740.5,-377.5 740.5,-358.5 835.5,-358.5 835.5,-377.5"/>
<text text-anchor="middle" x="788" y="-365.5" font-family="Mononoki" font-size="10.00">vector_capacity</text>
</a>
</g>
</g>
<!-- Node13&#45;&gt;Node14 -->
<g id="edge17_Node000013_Node000014" class="edge">
<title>Node13&#45;&gt;Node14</title>
<g id="a_edge17_Node000013_Node000014"><a xlink:title=" ">
<path fill="none" stroke="#63b8ff" d="M699.16,-368C709.18,-368 719.87,-368 730.22,-368"/>
<polygon fill="#63b8ff" stroke="#63b8ff" points="730.42,-371.5 740.42,-368 730.42,-364.5 730.42,-371.5"/>
</a>
</g>
</g>
<!-- Node16&#45;&gt;Node4 -->
<g id="edge22_Node000016_Node000004" class="edge">
<title>Node16&#45;&gt;Node4</title>
<g id="a_edge22_Node000016_Node000004"><a xlink:title=" ">
<path fill="none" stroke="#63b8ff" d="M373.82,-142.48C399.14,-122.91 457.23,-78.01 488.38,-53.94"/>
<polygon fill="#63b8ff" stroke="#63b8ff" points="490.63,-56.62 496.4,-47.74 486.35,-51.08 490.63,-56.62"/>
</a>
</g>
</g>
<!-- Node16&#45;&gt;Node5 -->
<g id="edge23_Node000016_Node000005" class="edge">
<title>Node16&#45;&gt;Node5</title>
<g id="a_edge23_Node000016_Node000005"><a xlink:title=" ">
<path fill="none" stroke="#63b8ff" d="M391.31,-142.47C432.13,-130.97 507.29,-115.34 568,-134 592.85,-141.64 616.94,-159.59 632.61,-173.12"/>
<polygon fill="#63b8ff" stroke="#63b8ff" points="630.61,-176.03 640.39,-180.09 635.28,-170.82 630.61,-176.03"/>
</a>
</g>
</g>
<!-- Node16&#45;&gt;Node6 -->
<g id="edge24_Node000016_Node000006" class="edge">
<title>Node16&#45;&gt;Node6</title>
<g id="a_edge24_Node000016_Node000006"><a xlink:title=" ">
<path fill="none" stroke="#63b8ff" d="M395.75,-161.51C442.47,-174.14 528.94,-196.34 604,-209 643.85,-215.72 689,-220.44 724.49,-223.49"/>
<polygon fill="#63b8ff" stroke="#63b8ff" points="724.44,-227 734.7,-224.35 725.03,-220.03 724.44,-227"/>
</a>
</g>
</g>
<!-- Node17 -->
<g id="Node000017" class="node">
<title>Node17</title>
<g id="a_Node000017"><a target="_parent" xlink:href="https://evjeesm.github.io/vector/group__Vector__API.html#gaae93d7f0c056c1d11d3232a7a7aa5e09" xlink:title=" ">
<polygon fill="white" stroke="#666666" points="568,-161.5 452,-161.5 452,-142.5 568,-142.5 568,-161.5"/>
<text text-anchor="middle" x="510" y="-149.5" font-family="Mononoki" font-size="10.00">vector_element_size</text>
</a>
</g>
</g>
<!-- Node16&#45;&gt;Node17 -->
<g id="edge25_Node000016_Node000017" class="edge">
<title>Node16&#45;&gt;Node17</title>
<g id="a_edge25_Node000016_Node000017"><a xlink:title=" ">
<path fill="none" stroke="#63b8ff" d="M403.37,-152C415.27,-152 428.53,-152 441.54,-152"/>
<polygon fill="#63b8ff" stroke="#63b8ff" points="441.88,-155.5 451.88,-152 441.88,-148.5 441.88,-155.5"/>
</a>
</g>
</g>
</g>
</svg>

<g id="navigator" transform="translate(0 0)" fill="#404254">
  <rect fill="#f2f5e9" fill-opacity="0.5" stroke="#606060" stroke-width=".5" x="0" y="0" width="60" height="60"/>
  <use id="zoomplus" xlink:href="#zoomPlus" x="17" y="9" onmousedown="handleZoom(evt,'in')"/>
  <use id="zoomminus" xlink:href="#zoomMin" x="42" y="9" onmousedown="handleZoom(evt,'out')"/>
  <use id="reset" xlink:href="#resetDef" x="30" y="36" onmousedown="handleReset()"/>
   <use id="arrowup" xlink:href="#arrowUp" x="0" y="0" onmousedown="handlePan(0,-1)"/>
  <use id="arrowright" xlink:href="#arrowRight" x="0" y="0" onmousedown="handlePan(1,0)"/>
  <use id="arrowdown" xlink:href="#arrowDown" x="0" y="0" onmousedown="handlePan(0,1)"/>
  <use id="arrowleft" xlink:href="#arrowLeft" x="0" y="0" onmousedown="handlePan(-1,0)"/>
</g>
<svg viewBox="0 0 15 15" width="100%" height="30px" preserveAspectRatio="xMaxYMin meet">
 <g id="arrow_out" transform="scale(0.3 0.3)">
  <a xlink:href="group__Dynarr__API_gad2dd0b992152881697da2073a0c840d7_cgraph_org.svg" target="_base">
   <rect id="button" ry="5" rx="5" y="6" x="6" height="38" width="38"
        fill="#f2f5e9" fill-opacity="0.5" stroke="#606060" stroke-width="1.0"/>
   <path id="arrow"
     d="M 11.500037,31.436501 C 11.940474,20.09759 22.043105,11.32322 32.158766,21.979434 L 37.068811,17.246167 C 37.068811,17.246167 37.088388,32 37.088388,32 L 22.160133,31.978069 C 22.160133,31.978069 26.997745,27.140456 26.997745,27.140456 C 18.528582,18.264221 13.291696,25.230495 11.500037,31.436501 z"
     style="fill:#404040;"/>
  </a>
 </g>
</svg>

<style type='text/css'>
<![CDATA[
[data-mouse-over-selected='false'] { opacity: 0.7; }
[data-mouse-over-selected='true']  { opacity: 1.0; }
]]>
</style>
<script type="application/ecmascript"><![CDATA[
document.addEventListener('DOMContentLoaded', (event) => {
  highlightEdges();
  highlightAdjacentNodes();
});
]]></script>
</svg>
