<?xml version="1.0" encoding="UTF-8" standalone="no"?>
<!DOCTYPE svg PUBLIC "-//W3C//DTD SVG 1.1//EN"
 "http://www.w3.org/Graphics/SVG/1.1/DTD/svg11.dtd">
<!-- Generated by graphviz version 2.43.0 (0)
 -->
<!-- Title: dynarr_append Pages: 1 -->
<svg width="713pt" height="242pt"
 viewBox="0.00 0.00 713.00 241.92" xmlns="http://www.w3.org/2000/svg" xmlns:xlink="http://www.w3.org/1999/xlink">
<g id="graph0" class="graph" transform="scale(1 1) rotate(0) translate(4 237.92)">
<title>dynarr_append</title>
<!-- Node1 -->
<g id="Node000001" class="node">
<title>Node1</title>
<g id="a_Node000001"><a xlink:title=" ">
<polygon fill="#999999" stroke="#666666" points="85,-224.84 0,-224.84 0,-205.84 85,-205.84 85,-224.84"/>
<text text-anchor="middle" x="42.5" y="-212.84" font-family="Mononoki" font-size="10.00">dynarr_append</text>
</a>
</g>
</g>
<!-- Node2 -->
<g id="Node000002" class="node">
<title>Node2</title>
<g id="a_Node000002"><a xlink:href="group__Dynarr__API.html#gab449a79e6b33f55af35329df4363336e" target="_top" xlink:title=" ">
<polygon fill="white" stroke="#666666" points="206,-186.84 121,-186.84 121,-167.84 206,-167.84 206,-186.84"/>
<text text-anchor="middle" x="163.5" y="-174.84" font-family="Mononoki" font-size="10.00">dynarr_insert</text>
</a>
</g>
</g>
<!-- Node1&#45;&gt;Node2 -->
<g id="edge1_Node000001_Node000002" class="edge">
<title>Node1&#45;&gt;Node2</title>
<g id="a_edge1_Node000001_Node000002"><a xlink:title=" ">
<path fill="none" stroke="#63b8ff" d="M73.53,-205.75C88.47,-200.98 106.72,-195.15 122.8,-190.02"/>
<polygon fill="#63b8ff" stroke="#63b8ff" points="124.02,-193.3 132.48,-186.92 121.89,-186.63 124.02,-193.3"/>
</a>
</g>
</g>
<!-- Node4 -->
<g id="Node000004" class="node">
<title>Node4</title>
<g id="a_Node000004"><a xlink:href="group__Dynarr__API.html#gaf5c43e2644d185b9b01065af34ed6e29" target="_top" xlink:title=" ">
<polygon fill="white" stroke="#666666" points="552.5,-148.84 478.5,-148.84 478.5,-129.84 552.5,-129.84 552.5,-148.84"/>
<text text-anchor="middle" x="515.5" y="-136.84" font-family="Mononoki" font-size="10.00">dynarr_size</text>
</a>
</g>
</g>
<!-- Node1&#45;&gt;Node4 -->
<g id="edge15_Node000001_Node000004" class="edge">
<title>Node1&#45;&gt;Node4</title>
<g id="a_edge15_Node000001_Node000004"><a xlink:title=" ">
<path fill="none" stroke="#63b8ff" d="M85.01,-222.55C158.1,-233.39 313.28,-247.99 432,-201.34 457.84,-191.18 482.63,-170.6 498.17,-155.94"/>
<polygon fill="#63b8ff" stroke="#63b8ff" points="500.68,-158.38 505.41,-148.9 495.8,-153.36 500.68,-158.38"/>
</a>
</g>
</g>
<!-- Node3 -->
<g id="Node000003" class="node">
<title>Node3</title>
<g id="a_Node000003"><a xlink:href="group__Dynarr__API.html#ga30d508a9f387e2227dd0d72a8bfd2a39" target="_top" xlink:title=" ">
<polygon fill="white" stroke="#666666" points="319,-186.84 250,-186.84 250,-167.84 319,-167.84 319,-186.84"/>
<text text-anchor="middle" x="284.5" y="-174.84" font-family="Mononoki" font-size="10.00">dynarr_set</text>
</a>
</g>
</g>
<!-- Node2&#45;&gt;Node3 -->
<g id="edge2_Node000002_Node000003" class="edge">
<title>Node2&#45;&gt;Node3</title>
<g id="a_edge2_Node000002_Node000003"><a xlink:title=" ">
<path fill="none" stroke="#63b8ff" d="M206.12,-177.34C216.99,-177.34 228.74,-177.34 239.71,-177.34"/>
<polygon fill="#63b8ff" stroke="#63b8ff" points="239.95,-180.84 249.95,-177.34 239.95,-173.84 239.95,-180.84"/>
</a>
</g>
</g>
<!-- Node2&#45;&gt;Node4 -->
<g id="edge5_Node000002_Node000004" class="edge">
<title>Node2&#45;&gt;Node4</title>
<g id="a_edge5_Node000002_Node000004"><a xlink:title=" ">
<path fill="none" stroke="#63b8ff" d="M198.16,-186.92C211.67,-190.3 227.45,-193.67 242,-195.34 326.27,-205 350.98,-202.46 432,-177.34 451.46,-171.3 472.29,-161.68 488.15,-153.63"/>
<polygon fill="#63b8ff" stroke="#63b8ff" points="490.06,-156.58 497.32,-148.87 486.84,-150.37 490.06,-156.58"/>
</a>
</g>
</g>
<!-- Node6 -->
<g id="Node000006" class="node">
<title>Node6</title>
<g id="a_Node000006"><a xlink:href="group__Auto-resize.html#ga036b69c5b674d3ac22027b04ba235b42" target="_top" xlink:title=" ">
<polygon fill="white" stroke="#666666" points="416.5,-34.84 378.5,-34.84 378.5,-15.84 416.5,-15.84 416.5,-34.84"/>
<text text-anchor="middle" x="397.5" y="-22.84" font-family="Mononoki" font-size="10.00">grow</text>
</a>
</g>
</g>
<!-- Node2&#45;&gt;Node6 -->
<g id="edge6_Node000002_Node000006" class="edge">
<title>Node2&#45;&gt;Node6</title>
<g id="a_edge6_Node000002_Node000006"><a xlink:title=" ">
<path fill="none" stroke="#63b8ff" d="M172.73,-167.44C186.05,-151.88 213.71,-121.38 242,-101.34 282.94,-72.34 336.6,-48.69 368.71,-35.85"/>
<polygon fill="#63b8ff" stroke="#63b8ff" points="370.31,-38.98 378.34,-32.07 367.75,-32.47 370.31,-38.98"/>
</a>
</g>
</g>
<!-- Node8 -->
<g id="Node000008" class="node">
<title>Node8</title>
<g id="a_Node000008"><a xlink:href="group__Auto-resize.html#gadb26f84b95f0ca45c7ccbd72e337485a" target="_top" xlink:title=" ">
<polygon fill="white" stroke="#666666" points="327,-129.84 242,-129.84 242,-110.84 327,-110.84 327,-129.84"/>
<text text-anchor="middle" x="284.5" y="-117.84" font-family="Mononoki" font-size="10.00">make_space_at</text>
</a>
</g>
</g>
<!-- Node2&#45;&gt;Node8 -->
<g id="edge10_Node000002_Node000008" class="edge">
<title>Node2&#45;&gt;Node8</title>
<g id="a_edge10_Node000002_Node000008"><a xlink:title=" ">
<path fill="none" stroke="#63b8ff" d="M184.42,-167.8C203.55,-158.63 232.68,-144.68 254.41,-134.27"/>
<polygon fill="#63b8ff" stroke="#63b8ff" points="256.01,-137.39 263.52,-129.91 252.99,-131.07 256.01,-137.39"/>
</a>
</g>
</g>
<!-- Node3&#45;&gt;Node4 -->
<g id="edge3_Node000003_Node000004" class="edge">
<title>Node3&#45;&gt;Node4</title>
<g id="a_edge3_Node000003_Node000004"><a xlink:title=" ">
<path fill="none" stroke="#63b8ff" d="M319.07,-173.52C348.84,-169.95 393.45,-164.16 432,-157.34 443.83,-155.24 456.55,-152.64 468.37,-150.08"/>
<polygon fill="#63b8ff" stroke="#63b8ff" points="469.47,-153.42 478.48,-147.85 467.96,-146.58 469.47,-153.42"/>
</a>
</g>
</g>
<!-- Node5 -->
<g id="Node000005" class="node">
<title>Node5</title>
<g id="a_Node000005"><a xlink:href="dynarr_8c.html#a73f42f3f25cd0920d8039d63ea31be07" target="_top" xlink:title=" ">
<polygon fill="white" stroke="#666666" points="705,-72.84 599,-72.84 599,-53.84 705,-53.84 705,-72.84"/>
<text text-anchor="middle" x="652" y="-60.84" font-family="Mononoki" font-size="10.00">get_dynarr_header</text>
</a>
</g>
</g>
<!-- Node4&#45;&gt;Node5 -->
<g id="edge4_Node000004_Node000005" class="edge">
<title>Node4&#45;&gt;Node5</title>
<g id="a_edge4_Node000004_Node000005"><a xlink:title=" ">
<path fill="none" stroke="#63b8ff" d="M533.53,-129.71C556.68,-116.64 598.25,-93.14 625.23,-77.9"/>
<polygon fill="#63b8ff" stroke="#63b8ff" points="627.12,-80.85 634.1,-72.89 623.68,-74.76 627.12,-80.85"/>
</a>
</g>
</g>
<!-- Node6&#45;&gt;Node4 -->
<g id="edge8_Node000006_Node000004" class="edge">
<title>Node6&#45;&gt;Node4</title>
<g id="a_edge8_Node000006_Node000004"><a xlink:title=" ">
<path fill="none" stroke="#63b8ff" d="M408.39,-35.06C428.17,-54.49 472.79,-98.35 497.4,-122.54"/>
<polygon fill="#63b8ff" stroke="#63b8ff" points="495.05,-125.13 504.63,-129.64 499.96,-120.14 495.05,-125.13"/>
</a>
</g>
</g>
<!-- Node6&#45;&gt;Node5 -->
<g id="edge9_Node000006_Node000005" class="edge">
<title>Node6&#45;&gt;Node5</title>
<g id="a_edge9_Node000006_Node000005"><a xlink:title=" ">
<path fill="none" stroke="#63b8ff" d="M416.67,-18.62C447.43,-8.26 511.44,8.9 563,-6.34 589.76,-14.25 616.02,-33.12 632.79,-46.99"/>
<polygon fill="#63b8ff" stroke="#63b8ff" points="630.77,-49.87 640.65,-53.71 635.32,-44.55 630.77,-49.87"/>
</a>
</g>
</g>
<!-- Node7 -->
<g id="Node000007" class="node">
<title>Node7</title>
<g id="a_Node000007"><a xlink:href="group__Dynarr__API.html#ga3ff11107726213a640d814b63cb123b2" target="_top" xlink:title=" ">
<polygon fill="white" stroke="#666666" points="563,-34.84 468,-34.84 468,-15.84 563,-15.84 563,-34.84"/>
<text text-anchor="middle" x="515.5" y="-22.84" font-family="Mononoki" font-size="10.00">dynarr_capacity</text>
</a>
</g>
</g>
<!-- Node6&#45;&gt;Node7 -->
<g id="edge7_Node000006_Node000007" class="edge">
<title>Node6&#45;&gt;Node7</title>
<g id="a_edge7_Node000006_Node000007"><a xlink:title=" ">
<path fill="none" stroke="#63b8ff" d="M416.62,-25.34C427.81,-25.34 442.82,-25.34 457.73,-25.34"/>
<polygon fill="#63b8ff" stroke="#63b8ff" points="457.99,-28.84 467.99,-25.34 457.99,-21.84 457.99,-28.84"/>
</a>
</g>
</g>
<!-- Node8&#45;&gt;Node4 -->
<g id="edge13_Node000008_Node000004" class="edge">
<title>Node8&#45;&gt;Node4</title>
<g id="a_edge13_Node000008_Node000004"><a xlink:title=" ">
<path fill="none" stroke="#63b8ff" d="M327,-117.85C356.41,-116.69 396.75,-116.33 432,-120.34 444.91,-121.81 458.73,-124.52 471.31,-127.45"/>
<polygon fill="#63b8ff" stroke="#63b8ff" points="470.54,-130.87 481.08,-129.83 472.19,-124.07 470.54,-130.87"/>
</a>
</g>
</g>
<!-- Node8&#45;&gt;Node5 -->
<g id="edge14_Node000008_Node000005" class="edge">
<title>Node8&#45;&gt;Node5</title>
<g id="a_edge14_Node000008_Node000005"><a xlink:title=" ">
<path fill="none" stroke="#63b8ff" d="M327.07,-113.86C391.05,-103.88 514.04,-84.7 588.69,-73.06"/>
<polygon fill="#63b8ff" stroke="#63b8ff" points="589.55,-76.46 598.89,-71.46 588.47,-69.55 589.55,-76.46"/>
</a>
</g>
</g>
<!-- Node9 -->
<g id="Node000009" class="node">
<title>Node9</title>
<g id="a_Node000009"><a xlink:href="group__Dynarr__API.html#ga93c32dd116523090126d427cce08e114" target="_top" xlink:title=" ">
<polygon fill="white" stroke="#666666" points="432,-148.84 363,-148.84 363,-129.84 432,-129.84 432,-148.84"/>
<text text-anchor="middle" x="397.5" y="-136.84" font-family="Mononoki" font-size="10.00">dynarr_get</text>
</a>
</g>
</g>
<!-- Node8&#45;&gt;Node9 -->
<g id="edge11_Node000008_Node000009" class="edge">
<title>Node8&#45;&gt;Node9</title>
<g id="a_edge11_Node000008_Node000009"><a xlink:title=" ">
<path fill="none" stroke="#63b8ff" d="M327.15,-127.47C335.55,-128.9 344.39,-130.42 352.86,-131.87"/>
<polygon fill="#63b8ff" stroke="#63b8ff" points="352.49,-135.36 362.93,-133.59 353.67,-128.46 352.49,-135.36"/>
</a>
</g>
</g>
<!-- Node9&#45;&gt;Node4 -->
<g id="edge12_Node000009_Node000004" class="edge">
<title>Node9&#45;&gt;Node4</title>
<g id="a_edge12_Node000009_Node000004"><a xlink:title=" ">
<path fill="none" stroke="#63b8ff" d="M432.05,-139.34C443.23,-139.34 455.89,-139.34 467.88,-139.34"/>
<polygon fill="#63b8ff" stroke="#63b8ff" points="468.18,-142.84 478.18,-139.34 468.18,-135.84 468.18,-142.84"/>
</a>
</g>
</g>
</g>
</svg>
