<?xml version="1.0" encoding="UTF-8" standalone="no"?>
<!DOCTYPE svg PUBLIC "-//W3C//DTD SVG 1.1//EN"
 "http://www.w3.org/Graphics/SVG/1.1/DTD/svg11.dtd">
<!-- Generated by graphviz version 2.43.0 (0)
 -->
<!-- Title: dynarr_binary_find_index Pages: 1 -->
<svg width="571pt" height="76pt"
 viewBox="0.00 0.00 571.00 75.50" xmlns="http://www.w3.org/2000/svg" xmlns:xlink="http://www.w3.org/1999/xlink">
<g id="graph0" class="graph" transform="scale(1 1) rotate(0) translate(4 71.5)">
<title>dynarr_binary_find_index</title>
<!-- Node1 -->
<g id="Node000001" class="node">
<title>Node1</title>
<g id="a_Node000001"><a xlink:title=" ">
<polygon fill="#999999" stroke="#666666" points="111,-51 0,-51 0,-21 111,-21 111,-51"/>
<text text-anchor="start" x="8" y="-39" font-family="Mononoki" font-size="10.00">dynarr_binary_find</text>
<text text-anchor="middle" x="55.5" y="-28" font-family="Mononoki" font-size="10.00">_index</text>
</a>
</g>
</g>
<!-- Node2 -->
<g id="Node000002" class="node">
<title>Node2</title>
<g id="a_Node000002"><a xlink:href="group__Dynarr__API.html#gaf5c43e2644d185b9b01065af34ed6e29" target="_top" xlink:title=" ">
<polygon fill="white" stroke="#666666" points="239.5,-67.5 165.5,-67.5 165.5,-48.5 239.5,-48.5 239.5,-67.5"/>
<text text-anchor="middle" x="202.5" y="-55.5" font-family="Mononoki" font-size="10.00">dynarr_size</text>
</a>
</g>
</g>
<!-- Node1&#45;&gt;Node2 -->
<g id="edge1_Node000001_Node000002" class="edge">
<title>Node1&#45;&gt;Node2</title>
<g id="a_edge1_Node000001_Node000002"><a xlink:title=" ">
<path fill="none" stroke="#63b8ff" d="M111.32,-44.32C125.9,-46.53 141.5,-48.9 155.56,-51.03"/>
<polygon fill="#63b8ff" stroke="#63b8ff" points="155.07,-54.5 165.49,-52.54 156.12,-47.58 155.07,-54.5"/>
</a>
</g>
</g>
<!-- Node5 -->
<g id="Node000005" class="node">
<title>Node5</title>
<g id="a_Node000005"><a target="_parent" xlink:href="https://evjeesm.github.io/vector/group__Vector__API.html#gaae3cfb2691a50da87169b5e057169782" xlink:title=" ">
<polygon fill="white" stroke="#666666" points="258,-30 147,-30 147,0 258,0 258,-30"/>
<text text-anchor="start" x="155" y="-18" font-family="Mononoki" font-size="10.00">vector_binary_find</text>
<text text-anchor="middle" x="202.5" y="-7" font-family="Mononoki" font-size="10.00">_index</text>
</a>
</g>
</g>
<!-- Node1&#45;&gt;Node5 -->
<g id="edge4_Node000001_Node000005" class="edge">
<title>Node1&#45;&gt;Node5</title>
<g id="a_edge4_Node000001_Node000005"><a xlink:title=" ">
<path fill="none" stroke="#63b8ff" d="M111.32,-28.06C119.53,-26.87 128.06,-25.64 136.46,-24.42"/>
<polygon fill="#63b8ff" stroke="#63b8ff" points="137.21,-27.85 146.6,-22.95 136.21,-20.92 137.21,-27.85"/>
</a>
</g>
</g>
<!-- Node3 -->
<g id="Node000003" class="node">
<title>Node3</title>
<g id="a_Node000003"><a xlink:href="dynarr_8c.html#a73f42f3f25cd0920d8039d63ea31be07" target="_top" xlink:title=" ">
<polygon fill="white" stroke="#666666" points="400,-67.5 294,-67.5 294,-48.5 400,-48.5 400,-67.5"/>
<text text-anchor="middle" x="347" y="-55.5" font-family="Mononoki" font-size="10.00">get_dynarr_header</text>
</a>
</g>
</g>
<!-- Node2&#45;&gt;Node3 -->
<g id="edge2_Node000002_Node000003" class="edge">
<title>Node2&#45;&gt;Node3</title>
<g id="a_edge2_Node000002_Node000003"><a xlink:title=" ">
<path fill="none" stroke="#63b8ff" d="M239.83,-58C253.16,-58 268.66,-58 283.63,-58"/>
<polygon fill="#63b8ff" stroke="#63b8ff" points="283.87,-61.5 293.87,-58 283.87,-54.5 283.87,-61.5"/>
</a>
</g>
</g>
<!-- Node4 -->
<g id="Node000004" class="node">
<title>Node4</title>
<g id="a_Node000004"><a target="_parent" xlink:href="https://evjeesm.github.io/vector/group__Vector__API.html#gafc2e34dbacffe6480af8681fbf46e808" xlink:title=" ">
<polygon fill="white" stroke="#666666" points="563,-67.5 436,-67.5 436,-48.5 563,-48.5 563,-67.5"/>
<text text-anchor="middle" x="499.5" y="-55.5" font-family="Mononoki" font-size="10.00">vector_get_ext_header</text>
</a>
</g>
</g>
<!-- Node3&#45;&gt;Node4 -->
<g id="edge3_Node000003_Node000004" class="edge">
<title>Node3&#45;&gt;Node4</title>
<g id="a_edge3_Node000003_Node000004"><a xlink:title=" ">
<path fill="none" stroke="#63b8ff" d="M400.22,-58C408.45,-58 417.1,-58 425.7,-58"/>
<polygon fill="#63b8ff" stroke="#63b8ff" points="425.75,-61.5 435.75,-58 425.75,-54.5 425.75,-61.5"/>
</a>
</g>
</g>
</g>
</svg>
